<svg id="Layer_1" data-name="Layer 1" xmlns="http://www.w3.org/2000/svg" width="520" height="520" viewBox="0 0 520 520"><defs><style>.cls-1{fill:#221f1f;}</style></defs><title>Notioly v2</title><g id="_98.Community" data-name="98.Community"><path class="cls-1" d="M374.24,273.91a24.26,24.26,0,0,1-1.34,3.9c-.2.46-.39.93-.62,1.37a18.78,18.78,0,0,1-3.17,4.24,14.68,14.68,0,0,1-1.83,1.51,5.63,5.63,0,0,1-2.83,1.09c-.31,0-.3-.22-.12-.54a3.05,3.05,0,0,1,.91-1,17.07,17.07,0,0,0,2.08-1.62,12.13,12.13,0,0,0,1-.92c.31-.33.66-.64.95-1a6.62,6.62,0,0,0,1-1.41l.42-.77.36-.8a23.17,23.17,0,0,0,1.35-3.6,20.51,20.51,0,0,0,.49-2.33,16.12,16.12,0,0,0,.2-3.6,10.13,10.13,0,0,0-.2-1.36c-.12-.45-.25-.89-.35-1.33,0-.19-.13-.37-.18-.56-.21-.71-.15-1,.26-1.27a2.34,2.34,0,0,1,.27-.2c.33-.18.7,0,1,.59a11.18,11.18,0,0,1,1,5.43l0,1.06c0,.34-.08.69-.12,1a18.36,18.36,0,0,1-.38,2.07Z"/><path class="cls-1" d="M325.52,247.59a17.57,17.57,0,0,1,1.46,1.65c.16.21.35.4.5.62a10,10,0,0,1,1.21,2.56c.13.4.27.79.37,1.19s.12.52.16.79a4.42,4.42,0,0,1-.06.81c0,.16-.31.13-.6,0s-.6-.32-.67-.56c-.32-.84-.61-1.62-.93-2.52a4.77,4.77,0,0,0-.94-1.44,13.74,13.74,0,0,0-1.29-1.46,11.69,11.69,0,0,0-.91-.81,7.84,7.84,0,0,0-1.53-1A5.93,5.93,0,0,0,321,247a.74.74,0,0,1-.29-.08c-.33-.15-.4-.3-.41-.68V246c0-.27.23-.46.59-.53a4.34,4.34,0,0,1,2.9.75,11.79,11.79,0,0,1,1.8,1.33Z"/><path class="cls-1" d="M180.83,258.91c0-28,44.85-52.39,63.52-38.63,10.21,7.53,3.75,39.63-31.63,47.78C205.35,269.76,181.87,272.42,180.83,258.91Z"/><path class="cls-1" d="M150.37,247.86c11.85-5.78,29.22,11.93,25.56,19.95-8.37,18.34-26.4,12.36-30.5-1.81C144.06,261.25,143.08,251.42,150.37,247.86Z"/><path class="cls-1" d="M61,286.52c-50.15-9.06-54.4,45.72-20.11,79.68,13.72,13.58,26.75,4.2,36.73-6.58-12.27-10.72-20.07-45.22-12.8-48.14,6-2.4,27.6,3.22,42.86-1.39,6.42-1.93,11.71-5.68,14.23-12.59h0a26.61,26.61,0,0,0,1.51-7.3C125.85,257.61,71.05,257.78,61,286.52Zm-13.58,45.3c-.91-5.41,6.29-6.38,8.71-4-.85,3.67,3.47,11.52,2.82,11.42C55,338.59,48.43,337.8,47.42,331.82Z"/><path class="cls-1" d="M77.43,312.57c-2.33-.17-4.66-.36-6.94-.39a15.83,15.83,0,0,0-1.69,0,10.75,10.75,0,0,0-1.64.11l-.8.09-.69.19-.34.09a1.05,1.05,0,0,0-.21.12c-.15,0-.26.19-.4.31a5.66,5.66,0,0,0-1.1,2.56,18.19,18.19,0,0,0-.34,3.26,43.58,43.58,0,0,0,.48,6.81,77.42,77.42,0,0,0,3.29,13.43,65.33,65.33,0,0,0,5.69,12.57,34.29,34.29,0,0,0,2.83,4.1c.5.65,1.06,1.25,1.62,1.85,0,.05.18.18.32.31l.39.37.79.74.39.38.1.09s-.05.07-.07.1l-.2.21-.77.81L76.93,362c-.29.32-.6.62-.91.93-.63.6-1.23,1.23-1.88,1.81s-1.28,1.17-2,1.73-1.35,1.11-2,1.65A31.79,31.79,0,0,1,62,372.66a18.86,18.86,0,0,1-9.39,1.09l-1.18-.22a5.63,5.63,0,0,1-1.16-.29c-.75-.27-1.51-.51-2.25-.8l-2.11-1.1a6.42,6.42,0,0,1-1-.62L44,370l-1-.68a9,9,0,0,1-.88-.76l-1.73-1.55c-1.09-1.09-2.11-2.21-3.17-3.31A76.79,76.79,0,0,1,19.77,332a54.69,54.69,0,0,1-1.85-16.12,37.07,37.07,0,0,1,.37-4.07c.1-.67.16-1.35.3-2l.45-2a14.56,14.56,0,0,1,.54-2l.63-1.95L21,302l.4-.94.49-.9a26.86,26.86,0,0,1,6.5-8.22,29.89,29.89,0,0,1,9.11-5.23,39.77,39.77,0,0,1,10.27-2c.87-.05,1.74,0,2.61,0a25,25,0,0,1,2.6.07c1.72.16,3.46.22,5.15.55,4.26.7,3.54,1.15-.07,1.16s-10.22-.14-17.51,1.74a26.22,26.22,0,0,0-15.71,11.26,31,31,0,0,0-3.74,9.19,41.47,41.47,0,0,0-.86,5,50.23,50.23,0,0,0-.19,5.06,23.86,23.86,0,0,0,.1,2.54c.08.85.12,1.7.22,2.54.24,1.68.44,3.38.84,5s.8,3.32,1.23,5c.24.82.54,1.62.8,2.44s.53,1.63.87,2.42a75.14,75.14,0,0,0,10,18,72,72,0,0,0,8.24,9.4A20,20,0,0,0,53,371.76a7,7,0,0,0,1.51.13c.5,0,1,.05,1.52,0a18.14,18.14,0,0,0,3-.48,23.18,23.18,0,0,0,5.74-2.29,49.24,49.24,0,0,0,9.88-7.85c.42-.4.81-.84,1.22-1.25l.22-.23c0-.08.23-.14.07-.22l-.25-.25-.14-.14-.31-.33c-.42-.46-.84-.9-1.22-1.38a42.11,42.11,0,0,1-4-6,72.15,72.15,0,0,1-5.62-13.19,74.92,74.92,0,0,1-3.1-14,35.77,35.77,0,0,1-.18-7.25,13.23,13.23,0,0,1,.84-3.68,5.29,5.29,0,0,1,1.09-1.74l.4-.39a3.88,3.88,0,0,1,.48-.3,3.09,3.09,0,0,1,1-.38,17.25,17.25,0,0,1,4.56-.51l2.21.05,2.19.12,8.71.63a98.85,98.85,0,0,0,17.29,0c.56-.07,1.12-.12,1.68-.2l1.67-.29a30.64,30.64,0,0,0,3.29-.73,25.73,25.73,0,0,0,6.21-2.47,18.4,18.4,0,0,0,8.41-9.88l0,.22h0v-.11l0-.11a27.08,27.08,0,0,0,1.34-12.2,19.25,19.25,0,0,0-5-10.91,23,23,0,0,0-8.1-5.5,33.2,33.2,0,0,0-9.56-2.33A43.32,43.32,0,0,0,80.59,269,39.7,39.7,0,0,0,73,273a32.32,32.32,0,0,0-8.13,7.86c-.77,1-1.26,1.82-1.74,2.5-.22.34-.46.63-.65.91s-.36.55-.54.8c-.32.44-.71,1.05-1,1.3-.41.42-.28-.44.36-2.41a24.89,24.89,0,0,1,5-8,32.45,32.45,0,0,1,7.25-5.88,39.62,39.62,0,0,1,8.58-3.91,43.87,43.87,0,0,1,19-1.82,35.41,35.41,0,0,1,9.45,2.5,25.16,25.16,0,0,1,8.26,5.57,20.85,20.85,0,0,1,5.11,8.71,27.33,27.33,0,0,1,.85,10,27.75,27.75,0,0,1-1.52,6.88l.09-.51h0v.27l-.09.24a21.48,21.48,0,0,1-3.25,5.84,20.86,20.86,0,0,1-5,4.49,26.86,26.86,0,0,1-6,2.81,42.31,42.31,0,0,1-6.32,1.49c-8.52,1.31-17,.59-25.32,0Z"/><path class="cls-1" d="M57,337.51a.25.25,0,0,0,0-.13v-.09l0-.09-.25-.71c-.33-.95-.65-1.92-.94-2.91a22.19,22.19,0,0,1-.59-2.2,11.66,11.66,0,0,1-.21-1.8,5.75,5.75,0,0,1,0-.93,1.2,1.2,0,0,1,0-.26s0-.09,0-.14a.69.69,0,0,0-.25-.26,4.46,4.46,0,0,0-.79-.35,5.86,5.86,0,0,0-1.88-.26,4.53,4.53,0,0,0-2.74.94,3.07,3.07,0,0,0-1,1.38,3.64,3.64,0,0,0-.2.82,5.06,5.06,0,0,0-.1.9c0,.38-.58.48-1.15.13a2,2,0,0,1-.77-.87,2.15,2.15,0,0,1-.07-1.51,4.87,4.87,0,0,1,.66-1.38,5.1,5.1,0,0,1,1-1.09,6.09,6.09,0,0,1,2.52-1.22,7.31,7.31,0,0,1,5.2.62l.41.25a2.17,2.17,0,0,1,.44.32c.27.24.57.46.81.7a5.8,5.8,0,0,0-.16,2.41,17.13,17.13,0,0,0,.38,1.92c.22.93.5,1.87.81,2.8l.49,1.4.68,1.84a3,3,0,0,1,.22,1.72c0,.1-.08.28-.22.26l-.34.08a1.8,1.8,0,0,1-.36.06l-.48,0-1.2-.22c-.75-.13-1.11-.22-1.6-.32s-.93-.23-1.39-.38a17.92,17.92,0,0,1-2.72-1A9.23,9.23,0,0,1,47.68,335a7.6,7.6,0,0,1-.57-.9c-.56-1.22-.41-1.71.06-2.06a2.33,2.33,0,0,1,.35-.23c.41-.18.86.21,1.18.87a8.45,8.45,0,0,0,5.22,4c.64.22,1.31.39,2,.55l.89.2.08,0s.08.05.08,0Z"/><path class="cls-1" d="M121.58,298.33c0,.61-2.74,9.44-13.32,11.4.17.47,5.78,37.16-.43,48.17,1.86,1.35,26.5,6,27.84-20.18C136.89,313.72,124.44,308.35,121.58,298.33ZM115,328.7a56.22,56.22,0,0,0,0-9.55c1.75-1.76,4.18-3.23,6.27-.66C123.74,321.54,119.07,328.7,115,328.7Z"/><path class="cls-1" d="M131.74,353.3a19.28,19.28,0,0,1-10.37,6.25,27.27,27.27,0,0,1-12,.07c-.13,0-.51-.14-.78-.22a4.29,4.29,0,0,1-.83-.3,6.4,6.4,0,0,1-.74-.38l-.37-.21-.09-.05,0,0,0-.05.08-.19.59-1.58a4.69,4.69,0,0,0,.2-.44l.1-.26.17-.46a25.68,25.68,0,0,0,1-3.88,76.09,76.09,0,0,0,1.06-14.52c0-4.9-.3-9.82-.72-14.72-.18-1.95-.38-3.91-.62-5.87l-.38-2.92-.48-3.18c.11-.34.18-.62.24-.86s.28-.3.42-.45l.19-.18,1.32-.32c.32-.08.62-.21.94-.31l.92-.34.9-.42a16,16,0,0,0,3.29-2.1,17.47,17.47,0,0,0,4.71-6.17,4.86,4.86,0,0,1,.41-.77c.1-.12.17-.13.39-.13-.11,0,0,0,0,0l.08.06a.57.57,0,0,1,.13.26,3.44,3.44,0,0,1,.1,1,10.74,10.74,0,0,1-3.58,7,18.76,18.76,0,0,1-4.1,2.81,17.41,17.41,0,0,1-2.28.95c-.39.13-.78.27-1.18.39l-.52.12h0l.33,2.4.35,2.94q.33,2.94.57,5.9c.33,3.93.54,7.89.59,11.87,0,3.46,0,7-.14,10.56A45,45,0,0,1,110,355.19c-.14.48-.32,1-.51,1.44l-.12.29-.05.1-.11.23a.39.39,0,0,0-.06.11l.11.06.24.08.27.08.66.15a25.2,25.2,0,0,0,5.56.44,20.54,20.54,0,0,0,10.57-3.05,16.53,16.53,0,0,0,4.78-4.79,21.48,21.48,0,0,0,2.71-6.31,32.53,32.53,0,0,0,.85-5.21,26.37,26.37,0,0,0,.13-2.67l.06-2.67A48,48,0,0,0,133.75,323a37.64,37.64,0,0,0-3-7.54,61.74,61.74,0,0,0-4.42-6.8c-.71-1-1.42-1.93-2.12-2.95a26.12,26.12,0,0,1-1.54-2.49,10.34,10.34,0,0,1-.84-1.83,3.93,3.93,0,0,1-.3-2.25,3.65,3.65,0,0,1,.16-.73c.14-.26.45,0,.87.7.21.35.41.8.75,1.32s.64,1.14,1.09,1.81c1.26,2,2.78,3.95,4.27,6a51.83,51.83,0,0,1,4.15,6.6,39.64,39.64,0,0,1,2.9,7.46c.31,1.31.61,2.62.84,3.94s.41,2.66.47,4l.16,3c0,1,0,2,0,3s0,2-.14,3-.23,2-.38,3a23.57,23.57,0,0,1-4.84,11.22Z"/><path class="cls-1" d="M120.59,320.33a2.25,2.25,0,0,0-.12-.71,1.68,1.68,0,0,1-.15-.3c0-.1-.18-.22-.26-.34a2,2,0,0,0-1.24-.75,2.46,2.46,0,0,0-1.12.25,5.8,5.8,0,0,0-1,.56l-.47.34a.81.81,0,0,0-.2.14l0,2.83c0,.9,0,1.81,0,2.7a10.31,10.31,0,0,1-.2,3.52c-.14.41-.66.18-1.15-.17a2,2,0,0,1-1-1.51c0-2.23.11-4.57.28-6.83a4.22,4.22,0,0,0,0-.6c0-.23,0-.47-.06-.7.35-.32.74-.69,1-.95s.5-.4.76-.59a5.86,5.86,0,0,1,1.84-.91,3.73,3.73,0,0,1,3,.39,4.83,4.83,0,0,1,1.86,2.18,5.26,5.26,0,0,1,0,3.35,11.73,11.73,0,0,1-2.24,4.09,11.46,11.46,0,0,1-2.6,2.55c-.24.14-.48.3-.74.43-1,.4-1.49.21-1.72-.32a2.92,2.92,0,0,1-.14-.38c-.07-.44.25-.8.7-1a10.87,10.87,0,0,0,3.68-3.68,8.72,8.72,0,0,0,.86-1.8,6.22,6.22,0,0,0,.26-.91,3.93,3.93,0,0,0,0-.83Z"/><path class="cls-1" d="M104.32,377.62l.23-.15c.08,0,.17.06.25.09l.5.25.85.41,1.08.55c.73.34,1.4.79,2.09,1.19,1.4.8,2.68,1.76,4,2.68.91.72,1.89,1.35,2.76,2.12a84.12,84.12,0,0,1,8.6,8.6c1.2,1.33,2.37,2.7,3.53,4.05a45.05,45.05,0,0,1,4.17,5.41c.36.56,0,.82-.78.64a5.39,5.39,0,0,1-2.61-1.78c-1.46-1.78-2.93-3.54-4.43-5.26s-3-3.49-4.53-5.2a51.1,51.1,0,0,0-6.26-5.65,46.23,46.23,0,0,0-7.72-5.06l-1.09-.55-.16-.08s-.09,0-.14.06l-.38.24c-.81.56-1.68,1-2.55,1.52A19,19,0,0,1,93,384a13.87,13.87,0,0,1-6.83-1.67l-.69-.37-.65-.44c-1.57-1.17-1.85-1.8-1.72-2.46a2,2,0,0,1,.1-.45c.22-.43,1-.1,2,.63a14.11,14.11,0,0,0,5,2.35,12.81,12.81,0,0,0,5.58,0,18.33,18.33,0,0,0,4.1-1.43c.68-.29,1.31-.69,2-1.05.33-.17.64-.4,1-.6l1.5-1Z"/><path class="cls-1" d="M62.22,397.49c1.34-1.82,2.75-3.59,4.24-5.27.53-.64,1.07-1.26,1.63-1.86a63,63,0,0,1,6.49-5.74c1-.78,2-1.6,3-2.35.65-.49,1.29-1,2-1.46a19.34,19.34,0,0,1,2.11-1.23c.46-.22.61.15.48.72a3.52,3.52,0,0,1-1.27,1.91c-2.57,2-5.1,4-7.64,6a18.85,18.85,0,0,0-2.17,2c-.71.71-1.37,1.47-2,2.2s-1.45,1.66-2.18,2.48-1.4,1.71-2,2.6c-.82,1.09-1.6,2.2-2.36,3.33-1.13,1.72-2.24,3.48-3.2,5.3-.75,1.41-1.35,2.86-2,4.31l-.41,1c-.54,1.18-.85,1.48-1.49,1.48a3.08,3.08,0,0,1-.43,0c-.45-.08-.54-.72-.23-1.64a45.3,45.3,0,0,1,3.79-8.07c1.12-2,2.38-3.87,3.68-5.73Z"/><path class="cls-1" d="M97.7,367.56a17.8,17.8,0,0,1-10.62-.41l-1.82-.66-1.73-.85a27.14,27.14,0,0,1-5.37-4c-.84-.73-1.56-1.58-2.32-2.37s-1.44-1.67-2.07-2.57-1.17-1.57-1.7-2.39S71,352.7,70.5,351.87a25.14,25.14,0,0,1-1.75-3.28l-.35-.87-.29-.89c-.15-.61-.29-1.21-.48-1.8-.2-.75.1-.74.64-.25.27.24.58.61,1,1l.62.68c.11.13.21.26.33.38s.17.29.26.44c1.24,2.07,2.28,4.24,3.67,6.22a46.09,46.09,0,0,0,4.44,5.72,22.9,22.9,0,0,0,7.14,5.13A16.71,16.71,0,0,0,95.06,366a14.67,14.67,0,0,0,5.57-1.92,17.63,17.63,0,0,0,6.25-6.47A19.81,19.81,0,0,0,109.1,351c.08-.51.16-1,.2-1.51a17.51,17.51,0,0,1,.3-2,1.5,1.5,0,0,1,.6-.89,3.24,3.24,0,0,1,.4-.28c.44-.19.79.63.83,2.15a21.09,21.09,0,0,1-4.74,13.07,18.28,18.28,0,0,1-9,6.06Z"/><path class="cls-1" d="M225.55,331.66a15.26,15.26,0,0,1-4,4.71c-.43.3-.85.62-1.31.88l-1.41.72a19.75,19.75,0,0,1-2.91.94,18.21,18.21,0,0,1-3,.48,19.4,19.4,0,0,1-3.05-.1,21,21,0,0,1-5.82-1.51,31,31,0,0,1-7.43-4.35,43.63,43.63,0,0,1-5.49-5.12l-2.4-2.92-2.09-3.11a73.69,73.69,0,0,1-6.28-13.45c-1.51-4.11-2.78-8.32-3.89-12.51-.72-2.69-1.37-5.4-2-8.12-.28-1.36-.56-2.73-.81-4.1s-.32-2.76-.53-4.11a8.13,8.13,0,0,1-.07-.87c0-.18,0-.29.1-.31s.46.27.83.95.85,1.65,1.39,2.82a26.68,26.68,0,0,1,1.19,4.16c1.13,5.5,2.46,10.95,4.09,16.31a92.26,92.26,0,0,0,6.19,15.58l1.21,2.21c.44.72.93,1.41,1.4,2.11a36.58,36.58,0,0,0,3.14,4,41.35,41.35,0,0,0,7.82,6.6,24.66,24.66,0,0,0,4.93,2.52,17.89,17.89,0,0,0,5.32,1.22,15.88,15.88,0,0,0,5.4-.55,12.82,12.82,0,0,0,4.75-2.46,15,15,0,0,0,3.83-5.46,28.72,28.72,0,0,0,1.85-6.63c1.09-7,.7-14.18-.16-21.18-.35-2.72-.8-5.4-1.3-8.08-.23-1.34-.54-2.67-.66-4.1a38.25,38.25,0,0,1-.2-4.16,30.33,30.33,0,0,1,.18-3.68,15.71,15.71,0,0,1,1.23-4.81,3.69,3.69,0,0,1,1.47-1.77,3.3,3.3,0,0,1,.69-.31c.59,0-.32,1.39-.91,4.47a31.45,31.45,0,0,0-.51,7.1c0,1.2.13,2.43.26,3.63s.4,2.42.62,3.66a131.84,131.84,0,0,1,1.92,15.41,71,71,0,0,1-.19,11.75,30.84,30.84,0,0,1-3.3,11.56Z"/><path class="cls-1" d="M165.16,302.85a10.08,10.08,0,0,1-1.45-5.58,5.41,5.41,0,0,1,.08-1.06,4.56,4.56,0,0,1,.2-1,8.28,8.28,0,0,1,4.76-5.38,7.23,7.23,0,0,1,3.22-.51,5.28,5.28,0,0,1,3.72,1.68c.29.31,0,.54-.5.65a3.6,3.6,0,0,1-1.75-.05,5.56,5.56,0,0,0-5.92,1,6,6,0,0,0-1.93,3.67,8.3,8.3,0,0,0,.58,4.68,9.12,9.12,0,0,0,1.73,2.44,15.1,15.1,0,0,0,3.87,2.68,34.27,34.27,0,0,0,3.44,1.38l.78.28c.94.41,1.19.68,1.18,1.21,0,.13,0,.25,0,.37-.08.38-.59.48-1.3.27a26.33,26.33,0,0,1-6.51-2.76,13.48,13.48,0,0,1-4.21-3.91Z"/><path class="cls-1" d="M244.49,247a30.79,30.79,0,0,0,4.65-14.28c.33-5-.62-10.28-3.42-14.33a10.57,10.57,0,0,0-1.77-2l-1-.9a7.21,7.21,0,0,0-1.08-.83,21.66,21.66,0,0,0-4.8-2.6c-6-2.4-13-1.91-19.21.12a56.05,56.05,0,0,0-17.41,9.64c-1.18.9-2.27,1.91-3.4,2.89s-2.17,2-3.16,3.14a60.17,60.17,0,0,0-5.63,6.86,45.88,45.88,0,0,0-8.37,20.71c-.28,2.31-.55,2-.93,0a11.55,11.55,0,0,1-.21-1.87c0-.37,0-.76,0-1.17a7.17,7.17,0,0,1,.07-1.29,21.68,21.68,0,0,1,1.39-6,57.6,57.6,0,0,1,13.28-19.86,62.06,62.06,0,0,1,19.77-13.44,41.2,41.2,0,0,1,14.29-3.33,26.29,26.29,0,0,1,7.48.76,24,24,0,0,1,3.59,1.19c.59.23,1.13.56,1.7.83a10.52,10.52,0,0,1,1.63.95l1.72,1.17,1.56,1.35a12.31,12.31,0,0,1,1.5,1.48A16,16,0,0,1,247.9,218a21.6,21.6,0,0,1,2.9,7.73,31,31,0,0,1-1.45,16.11,36.71,36.71,0,0,1-11.6,16,51.86,51.86,0,0,1-12.91,7.61,80.52,80.52,0,0,1-14.25,4.36A64.59,64.59,0,0,1,199.18,271a32.88,32.88,0,0,1-11.42-1.59,16.48,16.48,0,0,1-4.62-2.46,11.35,11.35,0,0,1-4-5.75c-.1-.37-.17-.7-.23-1a6.78,6.78,0,0,1-.07-.84,3.45,3.45,0,0,1,.14-1.25,5.85,5.85,0,0,1,.27-.92c.19-.31.45.15.74,1.2a17.2,17.2,0,0,0,2,4.36,13.52,13.52,0,0,0,7.75,5.05,34.58,34.58,0,0,0,10,1.06A60.9,60.9,0,0,0,210,267.74,79.66,79.66,0,0,0,220.05,265,57,57,0,0,0,233.89,258a44.31,44.31,0,0,0,5.86-5,37.53,37.53,0,0,0,4.69-6.05Z"/><path class="cls-1" d="M155.73,277.9a13.93,13.93,0,0,0,3.78,1,12.63,12.63,0,0,0,3.88-.24,14,14,0,0,0,6.8-3.89,22,22,0,0,0,3.51-4.8c.46-.76.82-1.57,1.22-2.37a15.31,15.31,0,0,0,.87-2.43,13.06,13.06,0,0,0,.29-5.1,17.35,17.35,0,0,0-4.75-9.24,24.48,24.48,0,0,0-7.72-5.46A19.09,19.09,0,0,0,152,243.8c-1.16.32-1.24-.12-.32-.93a8.05,8.05,0,0,1,5.7-1.43,22.16,22.16,0,0,1,6.51,1.75,26.83,26.83,0,0,1,5.76,3.39,25,25,0,0,1,4.72,4.76,18.35,18.35,0,0,1,3.07,6,15.76,15.76,0,0,1,.25,8.24,18.86,18.86,0,0,1-1.46,3.87,28.11,28.11,0,0,1-2,3.54,22.19,22.19,0,0,1-2.9,3.45,16.5,16.5,0,0,1-3.66,2.7,14.59,14.59,0,0,1-4.3,1.56,14.84,14.84,0,0,1-4.56.11,17.27,17.27,0,0,1-9.75-5A21.18,21.18,0,0,1,144.4,269a29.23,29.23,0,0,1-1.94-8,30.24,30.24,0,0,1-.12-6.31,17.35,17.35,0,0,1,1.67-6.19l.7-1.26c.27-.39.58-.77.88-1.16a6.35,6.35,0,0,1,.87-.91c.28-.26.53-.51.78-.7.53-.35,1-.61,1.34-.81a2.6,2.6,0,0,1,1.75-.24,3.13,3.13,0,0,1,.57.1c.21.09,0,.36-.39.82a4.15,4.15,0,0,1-.87.71,14.37,14.37,0,0,1-1.16,1,13.66,13.66,0,0,0-4.06,9.18,30.69,30.69,0,0,0,1.18,10.86c1.53,5.11,5.21,9.75,10.15,11.73Z"/><path class="cls-1" d="M213.7,350.28a21.05,21.05,0,0,0-17.58-1.49,17.07,17.07,0,0,0-5.56,3.57,57.4,57.4,0,0,0-7.93,9.24A118.43,118.43,0,0,0,176,372c-1.83,3.17-3.48,6.47-5,9.76-1.93,4.25-3.77,8.58-5.38,12.9-.49,1.34-.93,1.05-1-.29a15.09,15.09,0,0,1,1.2-6.26A128.46,128.46,0,0,1,172,375a124.48,124.48,0,0,1,7.55-12.44c1.7-2.38,3.39-4.83,5.33-7.14.91-1.19,2-2.28,3-3.41a33.89,33.89,0,0,1,3.48-3,20.58,20.58,0,0,1,9.51-3.43,22,22,0,0,1,5.06,0,23,23,0,0,1,4.92,1.1c.49.15,1,.35,1.45.54s.95.41,1.41.64l.7.35.71.43a11.41,11.41,0,0,1,1.25,1,21.73,21.73,0,0,1,3.7,5,85.68,85.68,0,0,1,6.76,17c1.37,4.49,2.62,8.92,3.65,13.45.23,1,.46,2,.66,3,.71,3.76.71,5,.26,5.89a2.94,2.94,0,0,1-.31.59c-.4.41-.93-1.07-1.51-3.77a204.31,204.31,0,0,0-6.73-24.55,74.33,74.33,0,0,0-3.71-8.8,30.75,30.75,0,0,0-2.39-4,11.48,11.48,0,0,0-3-3.07Z"/><path class="cls-1" d="M338.73,342.76a19.6,19.6,0,0,1-3.58,4.05,13.39,13.39,0,0,1-4.88,2.61,15.91,15.91,0,0,1-10.61-1.23,25,25,0,0,1-6.55-4,14.83,14.83,0,0,1-1.26-1.12c-.4-.38-.82-.76-1.21-1.16-.74-.83-1.53-1.63-2.2-2.51a46,46,0,0,1-3.76-5.46,71.36,71.36,0,0,1-5.5-11.92c-1.32-3.64-2.47-7.36-3.45-11.07-.63-2.38-1.23-4.78-1.73-7.19a63.1,63.1,0,0,1-1.15-7.27,5.11,5.11,0,0,1,0-.8c0-.06.07,0,.11-.07l.05,0,.12-.13c.06-.06.07-.09.06-.06l-.06.06-.05.06h.07a.29.29,0,0,1,.19.11,3.61,3.61,0,0,1,.5.67,15.23,15.23,0,0,1,1.24,2.5,21.57,21.57,0,0,1,1,3.67c1,4.86,2.13,9.67,3.58,14.4a86.65,86.65,0,0,0,5.42,13.78,35.61,35.61,0,0,0,11.5,13.56,20.76,20.76,0,0,0,9,3.52,10.74,10.74,0,0,0,4.65-.48,11.08,11.08,0,0,0,4-2.43c2.92-2.71,4.79-6.5,6.21-10.33a90,90,0,0,0,4.2-18.3c.67-4.82,1-9.58,1.43-14.39.09-1.06.17-2.1.3-3.17.46-4,1-5.33,1.91-5.95a1.35,1.35,0,0,1,.63-.29c.14,0,.19.11.2.25a3.72,3.72,0,0,1,0,.67c-.09.71-.21,1.77-.37,3.12-.45,4.22-.71,8.66-1.17,13.14s-1,9-1.89,13.58a82.83,82.83,0,0,1-2.49,10.05,39.59,39.59,0,0,1-4.4,9.6Z"/><path class="cls-1" d="M284.49,312.46a15.86,15.86,0,0,1-1.36-5.14,10.08,10.08,0,0,1,0-2,8.6,8.6,0,0,1,1.13-3.34,4.71,4.71,0,0,1,1.29-1.39,3.11,3.11,0,0,1,1.93-.55,5.45,5.45,0,0,1,2.94,1.23A8.85,8.85,0,0,1,293,304c.19.34-.21.56-.75.58a2.19,2.19,0,0,1-1.65-.6,8.84,8.84,0,0,0-2.42-1.9,1.92,1.92,0,0,0-1-.21,1.77,1.77,0,0,0-1,.55,5.75,5.75,0,0,0-1.18,3.67,8.43,8.43,0,0,0,.19,2.27,14.32,14.32,0,0,0,.61,2.27,9.06,9.06,0,0,0,1.38,2.49,10.46,10.46,0,0,0,3.4,2.73,22.69,22.69,0,0,0,3.24,1.27c.24.09.49.15.73.25.9.34,1.14.58,1.13,1.12a2.16,2.16,0,0,1,0,.36c-.07.4-.55.54-1.25.37a19.86,19.86,0,0,1-6.23-2.66,10.9,10.9,0,0,1-3.67-4.12Z"/><path class="cls-1" d="M356.62,307.84a8.12,8.12,0,0,0,.81-4.18l-.13-.75c-.09-.24-.17-.47-.24-.71a3.19,3.19,0,0,0-1.5-1.84,2.43,2.43,0,0,0-2.35-.11,4.15,4.15,0,0,0-1.65,1.74c-.54,1-.85,2.05-1.45,3.06-.2.3-.49.18-.77-.24A2,2,0,0,1,349,303a9.69,9.69,0,0,1,.82-1.8,8,8,0,0,1,1.29-1.67,4.54,4.54,0,0,1,2-1.18,3.81,3.81,0,0,1,2.37.12,6.53,6.53,0,0,1,1.19.57,4.47,4.47,0,0,1,1.06.91c.14.17.31.34.43.52l.32.58a5.26,5.26,0,0,1,.47,1.19,9.24,9.24,0,0,1-.26,5.27c-.21.49-.38,1-.63,1.47a13.26,13.26,0,0,1-.8,1.37,14.89,14.89,0,0,1-3.32,3.4c-.51.34-1,.7-1.48,1.06l-1.56.92a4.79,4.79,0,0,1-.72.35c-.92.36-1.27.35-1.61-.06a1.93,1.93,0,0,1-.22-.28c-.2-.34.07-.77.66-1.1a22.59,22.59,0,0,0,5-3.31,11.11,11.11,0,0,0,2.55-3.5Z"/><path class="cls-1" d="M327,251.47c-49.3-19.78-62.68,22.18-55.43,33.36C284.56,304.86,339.07,280.48,327,251.47Z"/><path class="cls-1" d="M288.24,293.46c-1.1.06-2.21-.09-3.32-.14-.56-.06-1.11-.16-1.66-.24a10.23,10.23,0,0,1-1.65-.32l-1.64-.42-1.59-.59c-.26-.11-.53-.19-.79-.32l-.76-.4a13.58,13.58,0,0,1-1.49-.84,16.49,16.49,0,0,1-4.83-4.87,14.76,14.76,0,0,1-1.83-6.63,27.6,27.6,0,0,1,1.16-9.59,33.13,33.13,0,0,1,8.67-14.33,32.31,32.31,0,0,1,6.77-5,35.61,35.61,0,0,1,7.82-3,43.79,43.79,0,0,1,14.72-1A56.43,56.43,0,0,1,326,250.38c1.75.86,1.38,1-.33,1a24.7,24.7,0,0,1-3.39-.48,30.92,30.92,0,0,1-4.65-1,54.69,54.69,0,0,0-18.26-2,32.65,32.65,0,0,0-17,6.21,29.42,29.42,0,0,0-7.38,8.37,31.85,31.85,0,0,0-2.43,5.15,29.3,29.3,0,0,0-1.47,5.47,23.13,23.13,0,0,0-.31,6.15,11,11,0,0,0,1.87,5.58l.91,1.21,1.08,1a6.68,6.68,0,0,0,1.18.94,7.67,7.67,0,0,0,1.26.84l1.35.71c.47.21,1,.37,1.43.56.25.09.48.19.73.26l.75.19c.5.12,1,.27,1.5.37a35.4,35.4,0,0,0,15.33-1A49.13,49.13,0,0,0,318.7,278.7c4.43-4.12,7.76-9.39,8.75-15.16a17.62,17.62,0,0,0,.24-1.9c0-.63,0-1.27.05-1.91s-.09-1.14-.11-1.64a12.9,12.9,0,0,0-.14-1.37c-.15-.82-.26-1.48-.33-2a6.75,6.75,0,0,1-.18-2.36,5.34,5.34,0,0,1,.12-.82c.13-.31.44,0,.9.81.23.42.5,1,.79,1.64s.44,1.52.67,2.46a22.61,22.61,0,0,1-.11,8.67,26.19,26.19,0,0,1-3.41,8.15,34,34,0,0,1-5.67,6.86c-1,1.05-2.22,2-3.36,2.92s-2.38,1.78-3.65,2.55a49,49,0,0,1-25,7.95Z"/><path class="cls-1" d="M331.74,253c5.87-9,27-8.94,37.94,11.33,4.72,8.75,1.1,20.76-9.38,23.11C330.58,294,331.74,260.58,331.74,253Z"/><path class="cls-1" d="M356.51,286.84c3.19-.4,6.3-1,8.7-2.88l.9-.71.8-.81a6.25,6.25,0,0,0,.75-.87c.22-.31.48-.59.68-.92a15.88,15.88,0,0,0,1.88-4.2,16.3,16.3,0,0,0,.3-6.74,17.28,17.28,0,0,0-2-5.65,36.5,36.5,0,0,0-3.4-5.19,29.87,29.87,0,0,0-9.33-8,23.79,23.79,0,0,0-10.46-2.92c-4.6-.15-9.42,1.22-12.49,4.57-.94,1-1.15.77-.74-.56a8.77,8.77,0,0,1,4.89-4.61c4.92-2,10.4-1.68,15.24-.08a29.54,29.54,0,0,1,12.54,8.48,43.25,43.25,0,0,1,5.3,7.49,23.09,23.09,0,0,1,1.06,2.11c.32.73.55,1.5.8,2.26a17.87,17.87,0,0,1,.62,4.71,20.62,20.62,0,0,1-.16,2.6,19.91,19.91,0,0,1-.59,2.54,15.94,15.94,0,0,1-2.28,4.69,15.22,15.22,0,0,1-3.71,3.67,15.91,15.91,0,0,1-2.29,1.25c-.41.17-.8.36-1.21.5l-1.25.36a29.65,29.65,0,0,1-12.44.56,18.09,18.09,0,0,1-8.51-4.18,22.65,22.65,0,0,1-5.39-7.72,47,47,0,0,1-3.47-13.89c-.11-1.05-.21-2.07-.27-3.13-.18-3.92,0-5.16.5-6a3.3,3.3,0,0,1,.34-.55c.4-.37.68,1.23.83,4a72.37,72.37,0,0,0,1.69,12.59,28,28,0,0,0,5.26,11.44,15.85,15.85,0,0,0,7.54,5.09,23,23,0,0,0,9.36.63Z"/><path class="cls-1" d="M323.89,360.85a33.61,33.61,0,0,0-9.13-2.68c-.79-.07-1.58-.17-2.37-.22s-1.58-.05-2.37,0-1.59.09-2.38.17a22.55,22.55,0,0,0-2.29.44,23.74,23.74,0,0,0-6.35,2.69,38.8,38.8,0,0,0-5.09,3.52,57.46,57.46,0,0,0-4.63,4.21,87.55,87.55,0,0,0-8.17,9.62c-2.23,3-4.3,6.16-6.22,9.35-2.52,4.09-4.64,8.36-7.4,12.42-.43.63-.94.89-1,.69a3.18,3.18,0,0,1,.08-1.28,20.18,20.18,0,0,1,2.27-6c4.88-8.54,10.27-17,17.18-24.25,4.14-4.31,8.77-8.72,14.48-11.4a25.82,25.82,0,0,1,4.9-1.7c.85-.14,1.72-.33,2.57-.39s1.71-.15,2.57-.15a32.27,32.27,0,0,1,10.1,1.53,46,46,0,0,1,11.21,5.45,104.06,104.06,0,0,1,14.45,11.85c3.5,3.29,6.88,6.57,10.42,9.62.79.66,1.57,1.29,2.39,1.9,3,2.28,4,2.54,4.66,3.29a4.3,4.3,0,0,1,.48.47c.17.25-.13.41-1,.43a7.66,7.66,0,0,1-3.32-1.13,36.28,36.28,0,0,1-5.33-3.93c-1.66-1.43-3.27-2.94-4.87-4.46-3.2-3-6.38-6.14-9.71-9-4.94-4.31-10.23-8.3-16.15-10.91Z"/><path class="cls-1" d="M500.66,299.26c-1.16,10-19.15,67.51-65,43.71,6-7,10.49-17.2,13.21-23,17.57,1.9,17.34-11.62,14.18-14.16s-5.9-1-7.6,0c1.37-12.4-.2-21.6-5.11-25.82-8.87-7.61-27.82,7.48-46,4.47-20.61-3.43-24.82-19.18-14.05-34.95,6.86-10.07,44.9-37.71,80.46,4.26C472.23,255.44,506.76,246.8,500.66,299.26Z"/><path class="cls-1" d="M386.77,259.76a20.77,20.77,0,0,0-.8,7.69,16.31,16.31,0,0,0,.84,3.72,15.32,15.32,0,0,0,4.29,6.24,18.84,18.84,0,0,0,3.15,2.27,27.27,27.27,0,0,0,7.35,2.89,32.62,32.62,0,0,0,7.9,1,43.63,43.63,0,0,0,8-.81c5.33-1,10.54-2.74,15.89-4.27a60.63,60.63,0,0,1,6-1.44,21.06,21.06,0,0,1,6.36-.29,11.52,11.52,0,0,1,3.22.93,10.11,10.11,0,0,1,2.74,2,15,15,0,0,1,3.4,5.49,25.64,25.64,0,0,1,1.34,5.18,42,42,0,0,1,.49,5.23c.07,1.75,0,3.49-.05,5.22,0,.44-.05.87-.08,1.3l-.09,1.17,0,.38,0,.19v.1s0,.07,0,0a3.14,3.14,0,0,1,.55-.28l.13,0,.19-.06a5.27,5.27,0,0,1,.57-.14,6.79,6.79,0,0,1,1.2-.14,6.09,6.09,0,0,1,2.36.46,8.9,8.9,0,0,1,2,1.19,5.77,5.77,0,0,1,.86,1,6,6,0,0,1,.54,1.07,9.29,9.29,0,0,1,.55,2.21,10.79,10.79,0,0,1-.5,4.41,10.06,10.06,0,0,1-1,2,9.72,9.72,0,0,1-1.39,1.75,15.15,15.15,0,0,1-1.72,1.39c-.65.33-1.28.73-1.95,1s-1.37.49-2.06.66l-2.09.38c-.7.08-1.4.08-2.1.12a12.13,12.13,0,0,1-2.09,0l-1-.06c-.11,0-.28-.08-.37,0l-.63,1.33L447,325.91c-1.18,2.43-2.41,4.85-3.74,7.22a80.25,80.25,0,0,1-4.35,6.92c-.39.56-.81,1.1-1.23,1.64l-.28.38-.15.18-.3.35-.07.09.11.05.21.11.42.2,1.76.84a20.31,20.31,0,0,0,2.15.9l2.17.83c1.47.5,3,.9,4.47,1.31l2.28.43,1.14.22,1.15.11,2.31.21c.77,0,1.54,0,2.31,0h1.16l1.14-.13c.77-.1,1.54-.15,2.29-.28a32.43,32.43,0,0,0,4.46-1.15,16.31,16.31,0,0,0,2.15-.8c.7-.32,1.41-.6,2.1-.94l2-1.11c.68-.35,1.29-.83,1.93-1.24,6.53-4.44,11.58-10.83,15.56-17.68a91.11,91.11,0,0,0,9.06-22c.61-2.39.83-3.4,1.05-3.31s.34,1.34.1,3.49a60.2,60.2,0,0,1-6.74,20.41c-3.92,7.33-9,14.29-15.71,19.5a36.42,36.42,0,0,1-11.28,5.94A34.08,34.08,0,0,1,454,350c-1.05-.12-2.13-.15-3.17-.35l-3.13-.61a50.06,50.06,0,0,1-6.05-1.92c-1-.4-2-.71-2.92-1.19l-3.63-1.73-1.32-.63-.17-.08s.05-.09.07-.13l.24-.29.46-.56.94-1.14.47-.58.23-.3c.62-.79,1.21-1.61,1.79-2.43a93,93,0,0,0,6.15-10.52c.93-1.83,1.82-3.67,2.71-5.53l.67-1.42.53-1.13.27-.57c0-.13.15-.09.26-.09l.35,0,2.06.13a14.66,14.66,0,0,0,1.48.07,15.56,15.56,0,0,0,6.9-1.43,7.88,7.88,0,0,0,4.22-5.08,8,8,0,0,0,.17-3.4,6.17,6.17,0,0,0-.47-1.58,4.23,4.23,0,0,0-.39-.63,2.68,2.68,0,0,0-.51-.49,4.64,4.64,0,0,0-3-1,7,7,0,0,0-.78.11l-.39.11-.67.26c-1,.49-2.1,1.18-3.09,1.76a3.57,3.57,0,0,1,0-.7l.08-.78.15-1.56c.05-.5.11-1.07.14-1.52l.06-.92c.1-1.22.14-2.44.15-3.66a45.08,45.08,0,0,0-.44-7.27,23.78,23.78,0,0,0-2-6.82,14,14,0,0,0-1.92-2.84,8.65,8.65,0,0,0-2.64-2c-2.26-1-5-.94-7.65-.51a66.22,66.22,0,0,0-8,1.95A123.88,123.88,0,0,1,416,285.15a41,41,0,0,1-8.51.47,37.33,37.33,0,0,1-8.39-1.58,27,27,0,0,1-7.72-3.72,18.27,18.27,0,0,1-5.71-6.51,18.47,18.47,0,0,1-1.77-10.43,28.63,28.63,0,0,1,3.18-10,42.24,42.24,0,0,1,2.7-4.48,27.52,27.52,0,0,1,3.5-3.94,53.53,53.53,0,0,1,38.26-14.35,47.6,47.6,0,0,1,15.25,3.7,56.85,56.85,0,0,1,13.34,8.09c1.05.77,2,1.66,3,2.51l1.46,1.28,1.37,1.36c.9.91,1.86,1.77,2.68,2.74l2.5,2.76c.12.16.27.17.51.2s.63,0,1,.05l2,0c1.36,0,2.73.11,4.1.27a28.27,28.27,0,0,1,8,2,22,22,0,0,1,6.89,4.61,24.43,24.43,0,0,1,4.79,6.77,37.49,37.49,0,0,1,3.17,10.16,56.4,56.4,0,0,1,.76,8.31c0,2.29,0,4.14-.14,5.66a27.19,27.19,0,0,1-1,6.12c-.19.62-.41,1.44-.58,1.8-.29.59-.37-.44-.3-2.79s.22-6,0-10.74a52.66,52.66,0,0,0-1.76-12.05,27,27,0,0,0-5.49-10.66,20.57,20.57,0,0,0-10.1-6.24,31.29,31.29,0,0,0-6.07-1c-1-.07-2.09-.11-3.16-.13l-1.66,0-.45,0c-.17,0-.28,0-.57-.07a2.71,2.71,0,0,1-.75-.22,1.15,1.15,0,0,1-.33-.21,1.81,1.81,0,0,1-.3-.25l-3.15-3.51-3.22-3.21c-1.11-1-2.27-2-3.4-3s-2.38-1.88-3.59-2.78a51.67,51.67,0,0,0-16.23-7.92,43.16,43.16,0,0,0-16-1.27c-1.35.1-2.67.37-4,.58s-2.64.56-3.94,1a48.76,48.76,0,0,0-7.61,2.84,51.74,51.74,0,0,0-13.5,9,29.89,29.89,0,0,0-2.74,2.9,27.45,27.45,0,0,0-2.23,3.29,31.26,31.26,0,0,0-3.23,7.3Z"/><path class="cls-1" d="M419.08,351.76a17.78,17.78,0,0,1-10-3.22,18.15,18.15,0,0,1-6.33-8.26,30.66,30.66,0,0,1-1.9-7.22,59.32,59.32,0,0,1-.11-12.91,127.82,127.82,0,0,1,1.85-12.66c.71-3.7,1.49-7.41,2.29-11.06l1.53-7,.76-3.49a27.4,27.4,0,0,0,.55-3.39c0-.69.08-.71.28-.85a.38.38,0,0,1,.41.08,1.88,1.88,0,0,1,.47.73,12.57,12.57,0,0,1,0,6.58c-2.16,9.59-4.59,19-5.88,28.67a52.89,52.89,0,0,0,.4,17.66,20.87,20.87,0,0,0,3.85,8.62,15,15,0,0,0,7.78,5.05,14.75,14.75,0,0,0,11.3-1.28,27.73,27.73,0,0,0,7.12-5.54,53,53,0,0,0,5.68-7.16,95.15,95.15,0,0,0,6.74-12.33c.43-.94.86-1.86,1.29-2.81,1.63-3.5,2.32-4.61,3.26-5.07a1.55,1.55,0,0,1,.63-.24c.13,0,.18.1.19.26a.88.88,0,0,1,0,.27,3.21,3.21,0,0,1-.1.43,26.73,26.73,0,0,1-1.1,3c-3.25,7.78-7.27,16-13.17,23a34.9,34.9,0,0,1-7.65,7,21.81,21.81,0,0,1-2.31,1.31,19.36,19.36,0,0,1-2.48,1,16.61,16.61,0,0,1-5.34.88Z"/><path class="cls-1" d="M446.31,363.82a20.43,20.43,0,0,0-8.13-4.62,12,12,0,0,0-2.24-.32,8.83,8.83,0,0,0-1.15,0l-1.15.09a15.71,15.71,0,0,0-4.49,1.27,27.06,27.06,0,0,0-5.91,3.78,54.48,54.48,0,0,0-8.69,9.24,101.63,101.63,0,0,0-7.1,10.73c-1.93,3.3-3.68,6.73-5.28,10.17-2.06,4.43-3.87,9-5.79,13.46-.59,1.39-1,1-1-.33a19.18,19.18,0,0,1,1.47-6.44c1.89-4.67,4-9.27,6.32-13.75a98,98,0,0,1,8-12.95c3.62-4.89,7.6-10,12.88-13.67a20.61,20.61,0,0,1,9.87-3.83,15.33,15.33,0,0,1,2.71,0,8.81,8.81,0,0,1,1.35.21,7.06,7.06,0,0,1,1.32.31,15.45,15.45,0,0,1,2.51.95l1.2.58c.38.22.75.46,1.13.69a35.82,35.82,0,0,1,9.25,8.78,74.73,74.73,0,0,1,9.33,16.67,144,144,0,0,1,5,13.7c.32,1,.63,2,.95,3.06,1,3.87,1.05,5.16.65,6.13a3.38,3.38,0,0,1-.29.63c-.37.47-1.14-1-2-3.78-.56-2.07-1.24-4.13-1.9-6.21s-1.39-4.17-2.11-6.27c-.34-1.05-.76-2.08-1.17-3.12s-.82-2.07-1.22-3.11l-1.38-3.06-.69-1.54-.77-1.49c-3-5.9-6.65-11.6-11.55-15.88Z"/><path class="cls-1" d="M381.94,123.61a57.77,57.77,0,0,1,24.77-9.71,89.69,89.69,0,0,1,26.48.11c1.6.14,3.17.51,4.76.78l4.74.86a55.35,55.35,0,0,1,9.29,3,79.87,79.87,0,0,1,14.92,8.27,66.89,66.89,0,0,1,6.69,5.31,57.61,57.61,0,0,1,6,6.13,48.39,48.39,0,0,1,5,7c.76,1.21,1.36,2.52,2,3.8s1.15,2.63,1.58,4,.81,2.75,1.19,4.14.57,2.82.67,4.25a39.16,39.16,0,0,1,0,8.59,44.27,44.27,0,0,1-4.28,14.56,40.21,40.21,0,0,1-9.27,11.94A44.54,44.54,0,0,1,459.53,206a41.45,41.45,0,0,1-19.22,1.29c-4-.78-3.25-1.18.1-1.13a65.26,65.26,0,0,0,16.27-1.88A44.34,44.34,0,0,0,473.33,196a37,37,0,0,0,3.46-3.14c.54-.57,1.12-1.09,1.61-1.69l1.48-1.82a17.1,17.1,0,0,0,1.36-1.89l1.28-1.94,1.08-2.07.55-1c.16-.35.29-.72.43-1.08l.87-2.16c.27-.73.46-1.5.7-2.25a20,20,0,0,0,.6-2.27l.5-2.3a41.32,41.32,0,0,0,.51-9.36,39.25,39.25,0,0,0-5.92-17.75,57.88,57.88,0,0,0-16.29-16.5,76.47,76.47,0,0,0-10.23-6,67.17,67.17,0,0,0-11-4.27,112.07,112.07,0,0,0-25.82-3.15,67,67,0,0,0-25.38,4.8c-9.87,3.91-18.42,11.39-22.87,21A36.72,36.72,0,0,0,367,152.71l-.23,3c0,1,0,2,.06,3l.05,1.51c.05.5.14,1,.21,1.49.15,1,.27,2,.44,3l.76,2.92c.14.48.23,1,.41,1.45l.54,1.41c.37.93.68,1.9,1.1,2.81l1.37,2.69c.23.44.43.91.7,1.33l.82,1.26,1.65,2.53,1.89,2.34a20.27,20.27,0,0,0,2,2.26l1.64,1.66a18.19,18.19,0,0,0,1.69,1.6l3.59,3,3.84,2.59a18.26,18.26,0,0,0,2,1.18l2,1.12a74.51,74.51,0,0,0,17.24,6.53l2,.51,1,.25a6.11,6.11,0,0,1,1.21.44,5.42,5.42,0,0,1,1.9,1.67,12.32,12.32,0,0,1,1.11,2c1.08,2.47,1.71,4.47,2.33,6.14s1.09,3,1.5,4.12a28.15,28.15,0,0,1,1.4,4.65c.08.52.24,1.18.24,1.51.06,1.1-2.44-2.41-5.24-9.5-.5-1.3-1-2.61-1.52-3.92a18.89,18.89,0,0,0-1.7-3.52,3.06,3.06,0,0,0-1.09-1,.85.85,0,0,0-.31-.13l-.36-.11-1.05-.27-4.21-1.08a39.37,39.37,0,0,1-4.17-1.3c-1.38-.49-2.78-.92-4.14-1.48a74.34,74.34,0,0,1-8-3.83,68.54,68.54,0,0,1-7.56-4.83l-3.49-2.89a17.21,17.21,0,0,1-1.65-1.55l-1.6-1.62a48.2,48.2,0,0,1-9.91-15.27A40.63,40.63,0,0,1,364.45,159a38.41,38.41,0,0,1,1.62-13.6l.52-1.64a9.12,9.12,0,0,1,.59-1.61l1.39-3.15c.51-1,1.14-2,1.7-3,.3-.49.56-1,.89-1.47l1-1.38,1-1.37a10.63,10.63,0,0,1,1.08-1.33l2.35-2.5a12.55,12.55,0,0,1,1.25-1.17l1.3-1.11a22.6,22.6,0,0,1,2.68-2.11Z"/><path class="cls-1" d="M432.92,215.12l-1.51,2.65c-.19.32-.32.67-.53,1-.7,1.12-1.5,2.19-2.31,3.24-.36.47-.71.94-1.08,1.41a5.09,5.09,0,0,1-1.68,1.58c-.22.12-.4-.2-.47-.6a1.37,1.37,0,0,1,.19-1.14c.89-1,1.7-2.18,2.61-3.34a18.53,18.53,0,0,0,1.33-2.35c.49-.87,1-1.75,1.45-2.65l.86-1.65c.42-.85.87-1.69,1.25-2.55.3-.67.49-1.38.76-2.08.06-.15.1-.31.17-.46.28-.56.49-.66,1-.49a3.59,3.59,0,0,1,.35.12.78.78,0,0,1,.44,1,19.59,19.59,0,0,1-1.43,3.67c-.43.9-.9,1.8-1.37,2.71Z"/><path class="cls-1" d="M335.7,136.3a42.75,42.75,0,0,0-6.91-9.6l-2.07-2.15-2.24-2-1.12-1-1.2-.88c-.8-.59-1.59-1.19-2.41-1.76a49.81,49.81,0,0,0-5.17-2.94c-.9-.42-1.76-.93-2.7-1.27l-2.78-1a10.09,10.09,0,0,0-1.41-.46l-1.44-.39a20.26,20.26,0,0,0-2.89-.69l-2.93-.51-3-.22a43,43,0,0,0-17,2.6A51.47,51.47,0,0,0,267,121.39a38.77,38.77,0,0,0-10.12,11.36,49.57,49.57,0,0,0,3.81,54.83,50.35,50.35,0,0,0,12.94,11.66,73,73,0,0,0,15.83,7.47c3.45,1.21,2.93,1.4-.22,1a24.63,24.63,0,0,1-2.81-.49c-1.07-.27-2.28-.59-3.59-1s-2.69-1-4.17-1.54-2.93-1.43-4.45-2.3a55.11,55.11,0,0,1-14.16-12A51.29,51.29,0,0,1,251,174.2a52.37,52.37,0,0,1,1.2-36.56,43.42,43.42,0,0,1,13.63-17.89,51.22,51.22,0,0,1,20.59-9.59,43.76,43.76,0,0,1,12.51-.7l1.57.11c.51.07,1,.18,1.54.26,1,.19,2.07.34,3.1.56a48.21,48.21,0,0,1,6,1.85,51.84,51.84,0,0,1,20.32,14.18,49.29,49.29,0,0,1,11.82,27.87,48.06,48.06,0,0,1-3.63,22.76,63.34,63.34,0,0,1-12.77,19.1,96.22,96.22,0,0,1-13.32,11.61,2.7,2.7,0,0,0-.67.6,3.41,3.41,0,0,0-.46.77,9.18,9.18,0,0,0-.62,1.92,28.7,28.7,0,0,0-.57,4.2c-.22,2.86-.2,5.75-.33,8.71,0,.65-.08,1.31-.18,2,0,.18-.06.33-.12.59a2.58,2.58,0,0,1-.31.7,1.38,1.38,0,0,1-.56.51,3.42,3.42,0,0,1-.64.35,3.84,3.84,0,0,1-2.48.07,7,7,0,0,1-2-1,19.68,19.68,0,0,1-4.24-4.74,35,35,0,0,1-2.13-3.64,15.44,15.44,0,0,1-1.57-4.33,7.74,7.74,0,0,1-.18-1.41c.07-.48.45.11,1.34,1.6S300,218.5,302,221.3a25,25,0,0,0,2.38,2.9,7.45,7.45,0,0,0,2.75,1.94,1.79,1.79,0,0,0,1.19,0,.38.38,0,0,0,.15-.06.2.2,0,0,0,.07-.06s0-.06,0-.09l0-.14c0-.06,0-.12,0-.2a35.2,35.2,0,0,0,.21-3.82c.07-2.66.1-5.38.39-8.15a21.54,21.54,0,0,1,.82-4.24,7.43,7.43,0,0,1,1.08-2.22,5.9,5.9,0,0,1,.48-.55c.18-.16.44-.38.54-.45l.8-.6c8.63-6.32,16.55-14.07,21.87-23.45a47.93,47.93,0,0,0,6.5-22.75,46.92,46.92,0,0,0-5.62-23Z"/><path class="cls-1" d="M190.94,111a43.67,43.67,0,0,0-10.54-2.51l-1.34-.18-1.37-.07-2.72-.13-2.73.08-1.36,0-1.36.14a75.42,75.42,0,0,0-21.23,5.34c-1.27.45-2.48,1-3.7,1.59S142.13,116.4,141,117c-2.36,1.27-4.83,2.41-7,3.85A42.14,42.14,0,0,0,123.42,130a38.75,38.75,0,0,0-6.69,12.22c-3,8.91-2.5,18.77.52,27.66l.51,1.48a10.77,10.77,0,0,0,.57,1.46l1.29,2.85a10.21,10.21,0,0,0,.73,1.39l.79,1.35.78,1.35.93,1.26.93,1.25.46.63c.16.2.35.38.52.58l2.12,2.28,2.33,2c.79.67,1.67,1.21,2.5,1.82.27.19.53.39.81.57l.87.5,1.72,1c1.17.62,2.4,1.14,3.6,1.7s2.48,1,3.76,1.35,2.54.8,3.85,1.07a98.56,98.56,0,0,0,15.9,2.28c3.34.23,2.88.69,0,1a50.79,50.79,0,0,1-30.21-6.9,36.51,36.51,0,0,1-12-12,47.77,47.77,0,0,1-6.15-15.77,45,45,0,0,1-.23-16.93c.17-.83.31-1.67.5-2.51s.47-1.64.71-2.47c.12-.41.22-.83.37-1.23l.47-1.2c.32-.8.6-1.62,1-2.4a41.93,41.93,0,0,1,2.45-4.58c.47-.73.89-1.5,1.41-2.19l1.58-2.08c4.31-5.5,10.24-9.63,16.36-12.63a95.62,95.62,0,0,1,21.09-8,70.47,70.47,0,0,1,11.19-1.78l2.85-.08,1.42,0,1.42.06,2.84.14,2.82.36a46.17,46.17,0,0,1,13.35,4.06,45.17,45.17,0,0,1,11.48,7.93,46.7,46.7,0,0,1,11.6,17.51,37.71,37.71,0,0,1,2.34,10.32,24.84,24.84,0,0,1-.22,5.31,23.76,23.76,0,0,1-.55,2.59c-.21.85-.42,1.7-.69,2.53a49.53,49.53,0,0,1-2.89,7.58,41.5,41.5,0,0,1-4.15,6.94,47.06,47.06,0,0,1-11.71,11c-2,1.34-3.92,2.55-6,3.75a59.46,59.46,0,0,0-7.66,4.92,14.32,14.32,0,0,0-2.69,2.84c-.29.32-.47.86-.66,1.08s-.22.11-.23-.23a5.39,5.39,0,0,1,.05-.71,9.45,9.45,0,0,1,.31-1.07,9.18,9.18,0,0,1,1.81-2.69,20.65,20.65,0,0,1,3.42-2.78c4-2.68,8.27-4.9,12.11-7.75a42.54,42.54,0,0,0,16.4-23.12c.38-1.16.66-2.36,1-3.55a16.82,16.82,0,0,0,.34-1.75,12.65,12.65,0,0,0,.18-1.75,27.55,27.55,0,0,0-.59-7.16,44.16,44.16,0,0,0-27.47-31.63Z"/><path class="cls-1" d="M184.57,213.2l1,3a25.58,25.58,0,0,1-4.36-.94,13,13,0,0,1-1.58-.63c-.42-.19-.82-.4-1.23-.6-.77-.41-1.55-.8-2.28-1.27a29.77,29.77,0,0,1-6.82-6.09,18.59,18.59,0,0,1-2.28-3.43,7.89,7.89,0,0,1-.88-2.58,4.72,4.72,0,0,1,.36-2.75c.24-.54.52-.31.77.2.11.24.29.57.46.91a4.86,4.86,0,0,1,.38,1.07,11.33,11.33,0,0,0,1.85,4,30.76,30.76,0,0,0,3.11,3.75,23,23,0,0,0,4.91,3.62,25.61,25.61,0,0,0,2.9,1.49l.49.2.34.13.37.11.19.05c.07,0,.16,0,.11,0l0-.07-.89-2.87a40.18,40.18,0,0,1-1.41-6.44,27.27,27.27,0,0,1-.33-5.11,10.73,10.73,0,0,1,.08-1.13c.2-1.41.55-1.79,1.09-2a2,2,0,0,1,.38-.11c.41,0,.61.59.59,1.55a35.8,35.8,0,0,0,.61,8.65c.22,1.08.48,2.16.8,3.25.15.54.32,1.09.49,1.63l.26.81c.17.53.38,1.07.57,1.6Z"/><path class="cls-1" d="M82.86,157.58a31.16,31.16,0,0,0-18.41-3.1A44.1,44.1,0,0,0,46.54,161a48,48,0,0,0-10.61,9.18,58.44,58.44,0,0,0-7.14,10.19,66.45,66.45,0,0,0-5.05,11.42,52.36,52.36,0,0,0-2.44,24.62,34,34,0,0,0,9.86,19.26,26.06,26.06,0,0,0,5.57,4.17,30.28,30.28,0,0,0,6.46,2.62c4.51,1.29,9.27,1.77,14,2.57,2.93.65,2.49.86-.08,1.08a43.36,43.36,0,0,1-5.29.07,38.7,38.7,0,0,1-7.54-1,30.56,30.56,0,0,1-13.59-6.85,36.6,36.6,0,0,1-5.09-5.69A36.23,36.23,0,0,1,21.86,226a40.55,40.55,0,0,1-3.19-14.78,54.41,54.41,0,0,1,1.69-14.94A71.57,71.57,0,0,1,27,179.39a56.58,56.58,0,0,1,11.21-14.58,48,48,0,0,1,8.1-6.07,49,49,0,0,1,9.15-4.31,39.25,39.25,0,0,1,20-1.64,29.71,29.71,0,0,1,19.95,14,42.43,42.43,0,0,1,3.92,8.56,55.79,55.79,0,0,1,2,9.16l.31,2.32.17,2.33c0,.78.14,1.55.15,2.33l0,2.35a22.68,22.68,0,0,1-.08,2.33c0,.78-.06,1.56-.15,2.33-.2,1.54-.32,3.09-.63,4.61a69.09,69.09,0,0,1-10.41,26.45,58.87,58.87,0,0,1-3.76,5,39.68,39.68,0,0,1-5.93,5.91,11.48,11.48,0,0,1-1.84,1.26,8.47,8.47,0,0,1-1.39.63,8.34,8.34,0,0,1-1.1.37c-.42,0-.06-.49.94-1.47s2.59-2.45,4.54-4.44A58.38,58.38,0,0,0,90,226.94a68.55,68.55,0,0,0,5.72-11.43,60.93,60.93,0,0,0,4.22-25.42c-.12-1.62-.21-3.24-.47-4.84-.12-.8-.21-1.61-.35-2.4l-.49-2.38a21.08,21.08,0,0,0-.59-2.34c-.23-.77-.42-1.56-.67-2.32a43.11,43.11,0,0,0-1.8-4.45,31.34,31.34,0,0,0-5.22-8,27.66,27.66,0,0,0-7.45-5.77Z"/><path class="cls-1" d="M72.69,255.25a31.15,31.15,0,0,0,5.36,2.5c.73.23.63.18.81.24l.12,0c.27.17.14-.12.14-.27l0-.14,0-.07v0l0-.12-.25-1-1-3.82c-.28-1.14-.61-2.26-.93-3.39a17.88,17.88,0,0,1-.77-4.46c0-.49.39-.45.82-.11a3.53,3.53,0,0,1,1.17,1.74l.64,2.13.53,2.19c.35,1.46.69,2.94,1,4.44.08.41.18.83.29,1.25l.48,1.69c.2.68.38,1.46.06,1.66l-.08.1s0,0-.05.05h0l.12.12H81l-.35.05-.7.09-.64-.16c-.4-.09-.82-.22-1.23-.35s-.51-.15-.76-.25c-.49-.19-1-.35-1.48-.56-1-.4-1.93-.84-2.86-1.33a34,34,0,0,1-3.33-2,32.86,32.86,0,0,1-4.52-3.72,29.16,29.16,0,0,1-3.05-3.33c-.19-.27-.4-.53-.59-.82-.66-1.06-.69-1.51-.38-1.94a2.61,2.61,0,0,1,.23-.3c.3-.26.81,0,1.29.72a34,34,0,0,0,5.22,5.68,30,30,0,0,0,4.84,3.39Z"/><path class="cls-1" d="M73.48,329.8c.72-.76.92-.88,1.17-.87a9.64,9.64,0,0,0,2.27-.11,8.09,8.09,0,0,0,2-.43,5.59,5.59,0,0,0,1.46-.85,4.79,4.79,0,0,0,1.09-1.23,3.74,3.74,0,0,0,.44-.87,3.49,3.49,0,0,0,.18-.92s0-.11,0-.15a1.31,1.31,0,0,1,1,.1c.08,0,.21.09.2.12,0,.28.53.68.43,1a5.48,5.48,0,0,0-.29.92,6.8,6.8,0,0,1-.35.91,2.66,2.66,0,0,1-.47.63,5.82,5.82,0,0,1-.79.62c-.09.07-.25.21-.49.37a7,7,0,0,1-.89.57,8.5,8.5,0,0,1-2.6.95,7.77,7.77,0,0,1-2.65.09,5.65,5.65,0,0,1-1.27-.35A2.11,2.11,0,0,1,73.48,329.8Z"/><path class="cls-1" d="M79.09,329.34c-1.35,1.23.86,4,2.44,2.9S81,327.62,79.09,329.34Z"/><path class="cls-1" d="M83,330.87a2.59,2.59,0,0,1-.31,1.27,2.25,2.25,0,0,1-1,.89,1.92,1.92,0,0,1-.44.17,1.14,1.14,0,0,1-.48.06,2.32,2.32,0,0,1-1.39-.54,3.19,3.19,0,0,1-.82-1,3.76,3.76,0,0,1-.37-1.1,1.41,1.41,0,0,1,.54-1.45c.15-.09.29.14.42.4l.19.36c.07.11.14.18.12.22a3.28,3.28,0,0,0,.58,1.34.76.76,0,0,0,.79.33.7.7,0,0,0,.63-.56,1.34,1.34,0,0,0,0-.76,1.59,1.59,0,0,0-.73-1,.69.69,0,0,0-.72.07s-.07.09-.12.11-.26.09-.59-.21l-.23-.19a.54.54,0,0,1-.09-.8,1.92,1.92,0,0,1,1.63-.62,2.65,2.65,0,0,1,1.57.81,3.46,3.46,0,0,1,.91,2.19Z"/><path class="cls-1" d="M98,325.15c-1.73.59-.81,4,1.09,3.63S100.39,324.32,98,325.15Z"/><path class="cls-1" d="M101,328.12a2.51,2.51,0,0,1-.79,1,2.18,2.18,0,0,1-1.27.43,1.87,1.87,0,0,1-.47,0,1.22,1.22,0,0,1-.46-.13,2.34,2.34,0,0,1-1.07-1.06,3,3,0,0,1-.34-1.26,3.51,3.51,0,0,1,.1-1.16,1.38,1.38,0,0,1,1.06-1.11c.18,0,.21.24.23.53s0,.29,0,.41,0,.22,0,.24a3.34,3.34,0,0,0,0,1.46.77.77,0,0,0,.59.62.72.72,0,0,0,.81-.27,1.4,1.4,0,0,0,.25-.71,1.66,1.66,0,0,0-.29-1.18.67.67,0,0,0-.69-.21.53.53,0,0,1-.15,0c-.18,0-.27,0-.46-.43l-.13-.26a.54.54,0,0,1,.23-.78,1.9,1.9,0,0,1,1.73.08,2.66,2.66,0,0,1,1.13,1.37,3.45,3.45,0,0,1,0,2.37Z"/><path class="cls-1" d="M93.18,324.07c.87-.29,1.1-.32,1.26-.23a4.25,4.25,0,0,0,1.82.39,7.43,7.43,0,0,0,1.74-.12,6.09,6.09,0,0,0,1.44-.54,5.24,5.24,0,0,0,1.23-.87,3.07,3.07,0,0,0,.57-.63,7,7,0,0,1,.35-.67.31.31,0,0,1,.14-.09,1.19,1.19,0,0,1,.81.2s.15.1.14.13.09.31.18.5.2.4.09.53a10,10,0,0,1-1,1.51,2,2,0,0,1-.55.45,6.52,6.52,0,0,1-.82.35,11.13,11.13,0,0,1-1.36.59,8.07,8.07,0,0,1-2.48.44,5,5,0,0,1-2.46-.54,3.18,3.18,0,0,1-1-.82A2.24,2.24,0,0,1,93.18,324.07Z"/><path class="cls-1" d="M78.38,318.69A8.86,8.86,0,0,0,76,318.6c-.29,0-.56.15-.85.18A7.32,7.32,0,0,0,72.26,320a5.3,5.3,0,0,0-1,1c-.41.47-.68,1-1.14,1.48-.15.14-.38,0-.55-.28a1.31,1.31,0,0,1-.13-1.12,6.06,6.06,0,0,1,3-3.09c.42-.17.79-.41,1.22-.57l.62-.27c.21-.07.43-.13.65-.18a9.69,9.69,0,0,1,2.88-.24,16.54,16.54,0,0,1,1.74.21c.86.14,1.7.41,2.53.62.64.18,1.31.28,1.95.47a1.94,1.94,0,0,1,.43.11c.51.22.59.45.47.95a3.37,3.37,0,0,1-.1.34A.84.84,0,0,1,84,320a19.49,19.49,0,0,1-3.25-.78,15.34,15.34,0,0,0-2.4-.52Z"/><path class="cls-1" d="M90,327.88a11.41,11.41,0,0,1,.41-5.94,11,11,0,0,1,.84-2,13.12,13.12,0,0,1,5.36-5.11,11.79,11.79,0,0,1,3.12-1.14,8.53,8.53,0,0,1,2.15-.21,4.61,4.61,0,0,1,2.08.61c.4.21.18.54-.27.83a3.82,3.82,0,0,1-.81.4,1.74,1.74,0,0,1-.93.21,10,10,0,0,0-6.61,2.24,10,10,0,0,0-3,11.69,12.58,12.58,0,0,0,2.7,4.07,12.72,12.72,0,0,0,3.06,2.17c.23.14.5.22.74.35.88.51,1.14.7,1.16,1.24a2.18,2.18,0,0,1,0,.35c0,.37-.55.47-1.38.26a13,13,0,0,1-6.2-4.57A13.4,13.4,0,0,1,90,327.89Z"/><path class="cls-1" d="M91.93,348.82c1.59,1.43,3.63,2.82,5.85,2.06,1.71-.59,2.6-2.23,3.19-3.83.42-1.16-1.75-1.12-2.08-.23s-.74,2.25-1.62,2.63c-1.21.52-2.88-1.17-3.66-1.87s-2.6.41-1.68,1.24Z"/><path class="cls-1" d="M203.45,300.11a2.75,2.75,0,0,1-.35.56,2.8,2.8,0,0,1-.42.47,4,4,0,0,1-1,.7,3.51,3.51,0,0,1-2.43.33,4.76,4.76,0,0,1-1.51-.55,13.39,13.39,0,0,1-3.49-3.47c-.42-.57-.88-1.1-1.28-1.66-.26-.36-.53-.72-.77-1.09a6.64,6.64,0,0,1-.56-1.21c-.09-.27.21-.41.63-.41a2.06,2.06,0,0,1,1.34.49c1.17,1.3,2.07,2.74,3.08,4.11a6,6,0,0,0,2.28,1.8,1.94,1.94,0,0,0,2.44-.38,2.1,2.1,0,0,0,.59-1.57,11.16,11.16,0,0,0-.61-3.15c-.25-.83-.62-1.63-.83-2.55,0-.2-.1-.4-.13-.61-.06-.82.15-1.11.65-1.18a2.16,2.16,0,0,1,.35,0,.86.86,0,0,1,.75.73c.3,1.25.87,2.66,1.31,4.31a10.55,10.55,0,0,1,.35,2,4.55,4.55,0,0,1-.38,2.39Z"/><path class="cls-1" d="M222.45,294.31a4.21,4.21,0,0,1-.63,2.13,2.13,2.13,0,0,1-1.18.83,2.72,2.72,0,0,1-1.23,0,3.52,3.52,0,0,1-1.49-.67,13.26,13.26,0,0,1-2.82-3.74c-.33-.58-.68-1.14-1-1.7a10.6,10.6,0,0,1-1.21-2.18c-.08-.24.29-.43.74-.45a1.42,1.42,0,0,1,1.26.58c.86,1.47,1.6,2.95,2.39,4.39a5.58,5.58,0,0,0,1.9,2,1.56,1.56,0,0,0,.56.22,1.31,1.31,0,0,0,.53,0c.23,0,.45-.34.55-.85a8,8,0,0,0,.08-2c-.08-1.05-.2-2.12-.37-3.18-.13-.83-.35-1.63-.44-2.5a5.87,5.87,0,0,1-.05-.59c0-.76.24-1,.69-1.06a1.48,1.48,0,0,1,.3,0,.76.76,0,0,1,.54.76c.15,1.25.47,2.74.68,4.28a20.09,20.09,0,0,1,.27,3.64Z"/><path class="cls-1" d="M220,310.54c.09,0,.09,0,.12-.1a2.07,2.07,0,0,0-.14-.66,19.77,19.77,0,0,0-.82-1.85c-.23-.44-.51-.86-.77-1.3-.9-1.55-1.9-3.08-2.95-4.57-.46-.66-1-1.3-1.49-1.92a12.88,12.88,0,0,1-1.85-2.52c-.15-.3.16-.46.61-.46a2,2,0,0,1,1.44.61,35.54,35.54,0,0,1,3.73,5.2c.66,1.12,1.48,2.18,2.16,3.34.36.63.71,1.31,1,2,.15.33.3.68.43,1.06a2.83,2.83,0,0,1,.18,1.36,1.82,1.82,0,0,1-1.2,1.37,6,6,0,0,1-1.41.36,12.69,12.69,0,0,1-4.17,0,10.18,10.18,0,0,1-3.11-.95,4.45,4.45,0,0,1-.64-.35c-.76-.51-.88-.82-.72-1.25a1.25,1.25,0,0,1,.11-.29c.18-.3.6-.25,1.09,0a10.66,10.66,0,0,0,4.81,1.4,11.52,11.52,0,0,0,1.94-.1,4.78,4.78,0,0,0,1.62-.4Z"/><path class="cls-1" d="M210.07,322c1,1.32,3.4,1.71,4.93,1.6a5.23,5.23,0,0,0,4.94-4.51c.18-.89-2-.55-2.18.24-.32,1.67-1.1,3.12-3,3a4,4,0,0,1-2.71-1.16c-.48-.63-2.58.13-2,.88Z"/><path class="cls-1" d="M190.65,281.75a13.91,13.91,0,0,1,3-.94,9.22,9.22,0,0,1,1.17-.2,4.52,4.52,0,0,1,1,0,8.94,8.94,0,0,1,1,.11,9.43,9.43,0,0,1,2,.59c.27.12.57.2.84.33l.8.39a3.8,3.8,0,0,1,1.8,1.38c.14.2-.23.53-.7.79s-1,.47-1.33.29c-.51-.37-1.05-.6-1.56-.95a17.33,17.33,0,0,0-1.68-.74,2.44,2.44,0,0,0-1.14-.17,7.94,7.94,0,0,0-1.18.1,11.13,11.13,0,0,0-2.6.65,12.87,12.87,0,0,0-1.55.73,11.38,11.38,0,0,0-2.14,1.49,9.37,9.37,0,0,0-1.25,1.57c-.08.12-.13.25-.22.37-.32.42-.47.44-1,.22l-.37-.14a.77.77,0,0,1-.38-1.07,8.43,8.43,0,0,1,2.67-3.2,15.65,15.65,0,0,1,2.72-1.65Z"/><path class="cls-1" d="M219,279.08a3.6,3.6,0,0,0-.84.14l-.44.12-.43.18a6.21,6.21,0,0,0-.6.35,10.93,10.93,0,0,0-2.15,1.39,4.42,4.42,0,0,0-.78.84,3.61,3.61,0,0,1-.87,1.07c-.12.07-.51,0-.84-.34a1.56,1.56,0,0,1-.39-.58.77.77,0,0,1,0-.59,4.93,4.93,0,0,1,1-1.47c.21-.2.42-.4.65-.58s.5-.32.76-.47c.62-.32,1.14-.83,1.76-1.19.36-.18.72-.35,1.08-.5a9.75,9.75,0,0,1,1.17-.34l.74-.13c.25,0,.51,0,.76,0a6.27,6.27,0,0,1,2.23.47,8.11,8.11,0,0,1,.82.31,3.47,3.47,0,0,1,.8.38,3.4,3.4,0,0,1,.3.23c.35.34.35.55,0,1l-.21.27a1,1,0,0,1-.93.33c-.91-.22-1.45-.52-2.08-.71-.25,0-.48-.09-.73-.1a3.49,3.49,0,0,0-.78,0Z"/><path class="cls-1" d="M315.9,310.62a1.48,1.48,0,0,0,1-.05c.17-.12.35-.2.52-.33l.51-.48a3.44,3.44,0,0,0,.42-.81,9.35,9.35,0,0,0,.24-4,18.24,18.24,0,0,0-.37-1.93,8.29,8.29,0,0,1-.38-2.55c0-.28.38-.27.77-.1a1.6,1.6,0,0,1,.92.95,19.61,19.61,0,0,1,.89,5.18,8.6,8.6,0,0,1-.54,3.56,4.28,4.28,0,0,1-.6.9c-.24.24-.47.48-.72.71a8.55,8.55,0,0,1-.91.56,3.52,3.52,0,0,1-2.41.13,5.47,5.47,0,0,1-1.11-.55,12.84,12.84,0,0,1-2.51-2.35c-.58-.62-1.16-1.24-1.73-1.87a4.72,4.72,0,0,1-.37-.41c-.43-.54-.45-.77-.13-1.19.07-.09.14-.19.22-.28.26-.28.69-.24,1.08.1,1.13,1,2,2.22,3,3.24a4.9,4.9,0,0,0,2.2,1.53Z"/><path class="cls-1" d="M337.54,311.27a3.53,3.53,0,0,1-1.11.49,2.65,2.65,0,0,1-1.34,0,3.56,3.56,0,0,1-1.76-1.31,6.92,6.92,0,0,1-.75-1.13,15,15,0,0,1-1.06-4.19c-.1-.61-.22-1.21-.35-1.8a8.9,8.9,0,0,1-.37-2.27c0-.5,1.59-.22,1.83.67a41.86,41.86,0,0,1,.85,4.56,6.92,6.92,0,0,0,.9,2.49,3.91,3.91,0,0,0,.8,1,.92.92,0,0,0,.84.24,2.57,2.57,0,0,0,1.22-.94,8.67,8.67,0,0,0,1.36-2.46,9.49,9.49,0,0,0,.41-2.15l0-.47c.06-.56.18-.69.68-.81l.34-.08c.38-.09.72.22.77.76a9,9,0,0,1-1,4.46,7.67,7.67,0,0,1-2.3,3Z"/><path class="cls-1" d="M325.08,304.68a16,16,0,0,1,1.71-6.07l.56-1c.21-.33.45-.64.69-.95a13.24,13.24,0,0,1,6.75-4.27,18.8,18.8,0,0,1,3.47-.66,6.52,6.52,0,0,1,4.5.8c.42.3.16.53-.34.74-.25.11-.52.18-.86.32a3.42,3.42,0,0,1-1,.14,15.47,15.47,0,0,0-7.8,1.36,9.24,9.24,0,0,0-3.69,3.3,12.73,12.73,0,0,0-2,5.2,16.07,16.07,0,0,0-.2,3.53,12.83,12.83,0,0,0,1.29,5.14,11.52,11.52,0,0,0,2.47,3.18c.23.19.46.37.67.57.84.71,1.06,1,.95,1.55a2.2,2.2,0,0,1-.07.37c-.12.38-.71.36-1.48-.13a12.43,12.43,0,0,1-5-6.72,16.84,16.84,0,0,1-.67-6.37Z"/><path class="cls-1" d="M313.31,293.49a6,6,0,0,0-1.35-.19,7.21,7.21,0,0,0-1.39,0,8.85,8.85,0,0,0-1,.2,11.52,11.52,0,0,0-3.51,1.21,6.68,6.68,0,0,0-1.34,1,5.57,5.57,0,0,0-.72.74c-.25.25-.45.5-.71.72s-.51-.06-.73-.44a1.28,1.28,0,0,1,0-1.37,6.57,6.57,0,0,1,.88-.94,6.72,6.72,0,0,1,1-.8,6.51,6.51,0,0,1,1.1-.6,7.82,7.82,0,0,1,1.17-.44,26.59,26.59,0,0,1,2.87-.89,15,15,0,0,1,1.64-.19c.56,0,1.12,0,1.67.07l1,.17c.33.07.65.2,1,.29a10.1,10.1,0,0,1,2.72,1.43,7.84,7.84,0,0,1,.95.68,8.39,8.39,0,0,1,.93.74c.12.13.25.24.36.37.42.5.45.74.11,1.12-.08.09-.15.18-.23.26a.8.8,0,0,1-1,0c-.25-.19-.48-.39-.71-.6s-.49-.36-.72-.55a14.68,14.68,0,0,0-1.46-1c-.4-.17-.77-.4-1.19-.55a6.72,6.72,0,0,0-1.28-.36Z"/><path class="cls-1" d="M329.54,327.24a1.35,1.35,0,0,1-1.49,1.32c-.88,0-1.21-.33-1.21-1.11S327.08,326,328,326,329.54,326.46,329.54,327.24Z"/><path class="cls-1" d="M417.28,305.4a5.06,5.06,0,0,1-1.62,1.06,3.06,3.06,0,0,1-.54.15c-.2,0-.4,0-.6.05a2.53,2.53,0,0,1-.6-.11,1.55,1.55,0,0,1-.54-.23,3.66,3.66,0,0,1-1.15-1v0a2.61,2.61,0,0,1-.44-1.37,6.5,6.5,0,0,1,.05-1.1c.08-.68.22-1.32.34-1.95a10.73,10.73,0,0,0,.2-1.66,8.64,8.64,0,0,1,.27-2c.06-.21.37-.24.74-.08s.9.55.93,1a9.75,9.75,0,0,1,0,1.2c-.05.38-.11.76-.19,1.12-.14.74-.33,1.44-.52,2.12a3.2,3.2,0,0,0-.11,1,1.17,1.17,0,0,0,.14.61,2.19,2.19,0,0,1,.2.22,1,1,0,0,0,.7.41,1.64,1.64,0,0,0,.94-.35,6.23,6.23,0,0,0,1.17-1.18,10.88,10.88,0,0,0,1.38-2.3,11.72,11.72,0,0,0,.58-2,3.58,3.58,0,0,1,.09-.45c.13-.55.34-.66.84-.65h.33a.75.75,0,0,1,.6.84,9.88,9.88,0,0,1-1.24,4,11.6,11.6,0,0,1-1.95,2.7Z"/><path class="cls-1" d="M433.76,310.26a4.91,4.91,0,0,1-2,.71,3.23,3.23,0,0,1-2.29-.67,3,3,0,0,1-.6-.69l-.23-.37c0-.13-.08-.26-.12-.38a6,6,0,0,1-.06-2.45,17.76,17.76,0,0,1,.51-2.15c.17-.61.32-1.23.47-1.83a4.49,4.49,0,0,1,.85-2.23c.17-.21.48-.08.79.24a3.29,3.29,0,0,1,.47.6,1.73,1.73,0,0,1,.18.36,1,1,0,0,1,0,.34c-.43,1.53-1,3-1.42,4.43a3.51,3.51,0,0,0,.08,2.38.86.86,0,0,0,.67.56,1.69,1.69,0,0,0,1.15-.11,4.86,4.86,0,0,0,1.48-1,10.63,10.63,0,0,0,1.85-2.25,10.94,10.94,0,0,0,.91-2.08l.15-.47c.23-.57.4-.7.92-.64a2,2,0,0,1,.35,0c.38.08.58.44.5.94a10.67,10.67,0,0,1-1.93,4.16,10.31,10.31,0,0,1-2.64,2.58Z"/><path class="cls-1" d="M422.09,303.67a25.29,25.29,0,0,0,2.36-6.46,17.35,17.35,0,0,0,.29-2.46,9.58,9.58,0,0,0,0-2.08,6.34,6.34,0,0,0-.21-.93c-.14-.28-.26-.6-.43-.87a6,6,0,0,0-3.17-2.43,10.44,10.44,0,0,0-3.82-.55,44.53,44.53,0,0,0-5,.65c-.52.06-.63-.48-.32-1.12a3,3,0,0,1,2.16-1.55,16.87,16.87,0,0,1,5.8,0,9.08,9.08,0,0,1,5.34,2.94,7.87,7.87,0,0,1,1,1.62,6.19,6.19,0,0,1,.61,1.85,12.69,12.69,0,0,1,.07,3.58,26.29,26.29,0,0,1-2.07,7.24,31,31,0,0,1-2.2,4,24.41,24.41,0,0,1-4.59,5.24,18.89,18.89,0,0,1-4.54,3c-.37.16-.74.31-1.13.44-1.47.42-2,.29-2.36-.22a2.6,2.6,0,0,1-.25-.36c-.17-.43.35-.84,1.26-1.15a18.3,18.3,0,0,0,7.28-4.81,24,24,0,0,0,3.88-5.62Z"/><path class="cls-1" d="M444.38,290.93a8.49,8.49,0,0,0-2.63-.56c-.34,0-.68,0-1,0a16,16,0,0,0-3.69.4,7.59,7.59,0,0,0-1.53.59c-.3.17-.6.34-.86.52s-.5.39-.57.32a.79.79,0,0,1-.85-.19,1.09,1.09,0,0,1-.17-.85,1.36,1.36,0,0,1,.15-.43.94.94,0,0,1,.26-.32,6.93,6.93,0,0,1,2.27-1.17,10.06,10.06,0,0,1,2.37-.47c.95-.07,1.91-.32,2.89-.36a12.36,12.36,0,0,1,3.25.31,8.85,8.85,0,0,1,1.94.7,6.49,6.49,0,0,1,2.34,2.14,7.27,7.27,0,0,1,1.1,2.19,5,5,0,0,1,.14.52c.08.66-.08.88-.61,1l-.36.09a.89.89,0,0,1-.93-.55,9.63,9.63,0,0,0-1.53-2.7,5,5,0,0,0-2-1.19Z"/><path class="cls-1" d="M411.68,325.67c.92,2.76,2.89,4.93,6,4.23a8.44,8.44,0,0,0,5.59-4.65c.5-1.15-1.68-1.18-2.09-.27a6.13,6.13,0,0,1-3.27,3.2c-2.24.83-3.46-1.24-4.07-3.1-.34-1-2.51-.42-2.18.59Z"/><path class="cls-1" d="M448,148l-5.18-.25c-.63,0-1.26,0-1.89,0l-6.66-.4c-1-.06-2-.06-3,0a19.81,19.81,0,0,1-3.77-.11c-.78-.15.26-1.93,1.71-1.91a71.34,71.34,0,0,1,7.7.47c1.54.18,3.15.12,4.73.19l5.21.21,3.21.11c1.62,0,3.25.09,4.85.05,1.25,0,2.47-.18,3.69-.32l.79-.1c1-.09,1.24,0,1.51.42a1.38,1.38,0,0,0,.27.27c.16.13.19.33-.12.58a2,2,0,0,1-.89.43,32.84,32.84,0,0,1-7,.57c-1.75,0-3.5,0-5.24-.08Z"/><path class="cls-1" d="M444.22,157.4l-7.42-.23c-.9,0-1.8,0-2.7,0-3.18-.14-6.35-.33-9.53-.51-1.41-.08-2.83-.12-4.23-.15a27.35,27.35,0,0,1-5.45-.39,1.13,1.13,0,0,1-.41-.22.19.19,0,0,1,0-.26,1.56,1.56,0,0,1,.26-.24c.1-.08.19-.18.33-.28a3.59,3.59,0,0,1,2.39-.73c3.63.18,7.29.37,11,.72,2.2.21,4.5.18,6.76.25l7.45.21,4.59.08c2.31,0,4.64,0,6.93-.08,1.78-.08,3.52-.29,5.25-.51l1.14-.16c1.42-.18,1.82-.16,2.23.26a2.51,2.51,0,0,1,.28.29c.25.33-.31.82-1.39,1.08a50.76,50.76,0,0,1-9.91,1c-2.5.06-5,0-7.5,0Z"/><path class="cls-1" d="M294.2,146.66c-1.8.08-3.59.15-5.39.26l-2,.16-6.93.37c-1,.07-2.05.19-3.06.32-.65.08-1.3.19-2,.26a9.82,9.82,0,0,1-2,.05c-.6-.08-.27-.54,0-1a2.21,2.21,0,0,1,1.61-1.05,78.67,78.67,0,0,1,8-.47c1.62,0,3.28-.23,4.93-.34l5.44-.32,3.35-.16c1.69-.09,3.39-.13,5.07-.24,1.31-.06,2.59-.25,3.89-.33.29,0,.57-.07.86-.07,1.09,0,1.43.13,1.63.63a2.55,2.55,0,0,1,.14.35c.08.39-.37.69-1.13.79-2.26.29-4.65.42-7.07.57l-5.42.29Z"/><path class="cls-1" d="M296,152.92c-1.31,0-2.62.09-3.94.16-.48,0-.95.1-1.43.12-1.69.09-3.38.14-5.07.25-.75.05-1.5.16-2.24.27a11.87,11.87,0,0,1-2.85.32c-.61,0-.08-1.94,1-2.09a38.48,38.48,0,0,1,5.9-.36c1.19,0,2.4-.18,3.61-.26l4-.21,2.46-.11c1.24-.06,2.49-.08,3.72-.17,1-.06,1.89-.24,2.85-.32.21,0,.42-.06.63-.06.81,0,1.06.12,1.2.63a2.14,2.14,0,0,1,.09.34c0,.39-.28.69-.83.79a46.47,46.47,0,0,1-5.15.53L296,153Z"/><path class="cls-1" d="M300.12,160.16l-2.15.08c-.27,0-.52.08-.78.09-.93,0-1.86,0-2.78.07a7.17,7.17,0,0,0-1.22.17,3.64,3.64,0,0,1-1.59.17c-.21-.05-.17-.53-.08-1s.27-1,.55-1a12.34,12.34,0,0,1,3.22-.1,12,12,0,0,0,2-.14l2.17-.12,1.34-.07c.67,0,1.35-.07,2-.17.52-.07,1-.25,1.54-.37a2,2,0,0,1,.35-.08c.42-.07.68.08.71.58a1.87,1.87,0,0,1,0,.34,1,1,0,0,1-.4.81,9.45,9.45,0,0,1-2.74.63c-.71.08-1.43.12-2.15.18Z"/><path class="cls-1" d="M165.7,140c-2.62,0-5.23,0-7.85,0l-2.86.1c-3.37,0-6.74.09-10.1.2-1.5.05-3,.16-4.47.29a49.59,49.59,0,0,1-5.71.36c-1.19,0,.17-2,2.37-2.12,3.89-.3,7.79-.45,11.73-.39,2.36,0,4.8-.16,7.2-.21,2.65-.06,5.29-.09,7.94-.09h4.89c2.46,0,4.94.08,7.39.11h5.67c.42,0,.83,0,1.25,0,1.56.11,2,.28,2.32.8a2,2,0,0,1,.18.36c.1.39-.56.66-1.68.67-3.32,0-6.83,0-10.37-.05-2.62,0-5.26,0-7.9,0Z"/><path class="cls-1" d="M166.88,148.4l-3.31-.11c-.4,0-.8,0-1.21,0l-4.25-.15a17.08,17.08,0,0,0-1.89.09,8.06,8.06,0,0,1-2.4.07c-.51-.1.05-1.94,1-2a27.35,27.35,0,0,1,5,.12,27.81,27.81,0,0,0,3,0l3.34.06,2.06.05c1,0,2.08.06,3.12,0,.8,0,1.59-.14,2.4-.2a4.75,4.75,0,0,1,.54,0c.66,0,1,.2,1,.7a1.93,1.93,0,0,1,0,.34.88.88,0,0,1-.73.73,26,26,0,0,1-4.31.31l-3.32,0Z"/><path class="cls-1" d="M58.3,190.62l-4.81,1.28c-.59.15-1.15.37-1.74.51l-6.22,1.48c-.92.22-1.83.49-2.72.78a15.7,15.7,0,0,1-3.5.92c-.76.06-.37-2.18.95-2.56a63.44,63.44,0,0,1,7.18-1.66,44.09,44.09,0,0,0,4.37-1.16l4.81-1.3c1-.28,2-.55,2.94-.86,1.48-.45,3-.9,4.4-1.45,1.11-.43,2.14-1,3.19-1.52l.67-.36c.86-.42,1.19-.41,1.63,0a4.11,4.11,0,0,1,.29.3c.27.36.06.85-.55,1.26a26.3,26.3,0,0,1-6.07,2.83c-1.58.57-3.2,1.05-4.8,1.54Z"/><path class="cls-1" d="M55.76,200.33l-2.34.53c-.28.07-.54.19-.83.25l-3,.58a9.67,9.67,0,0,0-1.29.41,3.77,3.77,0,0,1-1.68.46c-.38,0-.51-2.15.11-2.35a13.34,13.34,0,0,1,3.47-.67,11.72,11.72,0,0,0,2.1-.52l2.32-.56,1.41-.37a20.59,20.59,0,0,0,2.1-.68,9.55,9.55,0,0,0,1.45-.86,3.21,3.21,0,0,1,.3-.21c.37-.21.56-.14.91.32L61,197A.8.8,0,0,1,61,198a7.59,7.59,0,0,1-2.86,1.63c-.76.28-1.55.49-2.32.72Z"/></g></svg>