<?xml version="1.0" encoding="UTF-8"?><svg id="Layer_1" xmlns="http://www.w3.org/2000/svg" width="520" height="520" viewBox="0 0 520 520"><defs><style>.cls-1{opacity:.35;}.cls-1,.cls-2,.cls-3{fill:#231f20;stroke-width:0px;}.cls-2{opacity:.55;}</style></defs><path class="cls-3" d="m376.55,441.71c.96,0,1.93-.01,2.89-.05.35-.02.69-.1,1.04-.11,1.24-.04,2.49-.07,3.72-.16.56,0,1.1-.07,1.64-.13.35-.04.69-.11,1.04-.12.36,0,.72.03,1.08.07.06,0,.1.02.13.04h0s-.03.02-.03.02l.09.34h0s0,0,0,0h0s0,0,0,0v-.02s-.03-.03-.03-.04c-.02-.03.03-.07,0-.1-.02.04-.04.09-.08.15-.15.21-.42.61-.78.85-1.34.63-2.7,1.18-4.18,1.11-.88,0-1.74.28-2.62.41-.96.14-1.93.24-2.9.35l-1.79.18c-.91.08-1.82.11-2.72.25-.7.1-1.37.37-2.11.51-.16.02-.32.07-.49.08-.63.03-.92-.29-.93-.97,0-.16,0-.31.01-.46.11-.5.29-.9.62-1.12,1.02-.59,2.28-.71,3.54-.88.94-.1,1.89-.19,2.86-.22v.07Z"/><path class="cls-3" d="m287.93,453.96c.83-.03,1.68-.08,2.52-.17.31-.04.6-.13.91-.16,1.08-.15,2.19-.21,3.29-.37.49-.07.96-.19,1.43-.3.6-.15,1.21-.32,1.84-.36.2-.01.22.15.11.37-.11.22-.34.52-.66.68-1.16.54-2.35,1.05-3.62,1.3-.75.16-1.52.42-2.29.61-.85.19-1.71.35-2.58.48-.53.09-1.07.15-1.61.22-.82.11-1.65.13-2.49.19-.33,0-.66.05-.99.1-.35.01-.69.07-1.07.04-.17-.02-.34-.03-.5-.08-.3-.06-.51-.25-.59-.42-.09-.18-.06-.39.04-.67.05-.13.09-.26.16-.37.22-.39.6-.65.84-.72.8-.26,1.75-.25,2.81-.35.78-.02,1.61-.02,2.44-.09v.05Z"/><path class="cls-3" d="m139.25,212.18c1.56.16,3.12.33,4.68.54.57.07,1.15.08,1.72.18,2,.35,3.99.84,5.95,1.42.88.22,1.74.54,2.6.8.55.19,1.09.4,1.63.61.52.25,1,.63,1.47.97.29.23.15.38-.24.49-.39.1-1.04.26-1.67.16-.55-.11-1.08-.27-1.61-.41-.54-.11-1.09-.23-1.62-.36-1.08-.26-2.15-.59-3.25-.89-1.31-.39-2.75-.42-4.14-.62-1.53-.2-3.07-.38-4.62-.53-.95-.09-1.91-.18-2.87-.24-1.45-.11-2.92-.21-4.36-.27-1.13-.05-2.24.06-3.36,0-.25-.01-.49,0-.74-.04-.92-.12-1.2-.29-1.36-.74-.04-.1-.09-.21-.1-.31-.06-.34.34-.59,1.01-.71,2-.4,4.07-.4,6.17-.38,1.56.06,3.13.17,4.71.28v.06Z"/><path class="cls-3" d="m135.97,149.01s-.08.28-.1.28c.09-.21.1-.23.03-.09-.02.05-.04.09-.07.14-.1.2-.21.39-.33.57-.06.09-.12.17-.18.26-.17.25.19-.21-.03.03-.15.16-.29.33-.44.48s-.32.31-.49.45c-.08.07-.17.14-.26.22.29-.24-.03.02-.1.07-.38.27-.78.52-1.2.73-.1.05-.2.1-.3.15-.07.03-.41.16-.05.02-.2.07-.4.15-.61.22s-.44.13-.66.17c-.1.02-.2.03-.3.06-.12.02-.07.01.15-.02-.07,0-.13.01-.2.02-.19.01-.38.02-.57.01-.07,0-.21-.04-.28-.02.23-.05.27.05.04,0-.12-.02-.42-.06-.51-.15.22.1.26.11.12.05-.04-.02-.08-.04-.11-.06-.09-.05-.17-.1-.25-.16-.65-.45-1.69-.14-2.05.54-.41.77-.15,1.57.54,2.05,1.91,1.33,4.52.73,6.45-.23,2.05-1.01,3.91-2.78,4.63-4.99.24-.75-.28-1.67-1.05-1.85-.82-.19-1.58.25-1.85,1.05h0Z"/><path class="cls-3" d="m144.27,119.18c-3.13-3.28-8.05-5.25-12.59-5.02-.81.04-1.5.66-1.5,1.5,0,.78.69,1.54,1.5,1.5.43-.02.86-.02,1.28,0,.22.01.43.03.65.05-.01,0,.4.05.24.03-.17-.02.22.03.25.04,1,.16,1.99.42,2.95.77,1.85.66,3.69,1.78,5.09,3.26s3.46-.72,2.12-2.12h0Z"/><path class="cls-2" d="m173.97,211.08s-17.57,33.61-21.72,38.88-8.33,12.18-8.33,12.18c0,0,.62,11.32-.96,13.75-1.58,2.43,11.86-9.42,11.86-9.42,0,0,18.78-29.85,24.03-49.55,0,0-2.47-2.59-1.58-4.47s-3.31-1.38-3.31-1.38Z"/><path class="cls-3" d="m158.99,243.72l-3.15,5.22c-.38.64-.73,1.29-1.13,1.92-1.41,2.21-2.9,4.37-4.53,6.44-.73.91-1.4,1.87-2.15,2.76l-.7.87c-.26.27-.53.53-.8.79-.54.52-1.11,1.02-1.78,1.39-.42.23-.39.15-.24-.26.12-.45.42-1.14.88-1.84.78-1.27,1.77-2.33,2.6-3.56.44-.59.87-1.19,1.3-1.8.43-.6.87-1.21,1.31-1.82,1.08-1.44,1.98-3.09,2.93-4.66,1.05-1.73,2.09-3.48,3.12-5.24l1.87-3.26c.93-1.66,1.87-3.32,2.8-4.96.71-1.28,1.28-2.62,2.03-3.86.16-.28.31-.55.48-.82.63-1.02.97-1.26,1.33-1.35.08-.02.17-.06.23-.06.11,0,.13.12.11.36-.02.24-.07.6-.23,1.01-.23.62-.46,1.24-.69,1.87-.22.63-.46,1.27-.76,1.87-.57,1.22-1.17,2.45-1.79,3.67-.96,1.79-1.99,3.56-3,5.34l-.04-.02Z"/><path class="cls-3" d="m145.64,267.7c-.25,1.12-.52,2.23-.8,3.34-.1.41-.16.82-.27,1.22-.39,1.42-.81,2.82-1.25,4.22-.19.62-.35,1.25-.51,1.88-.21.8-.31,1.64-.89,2.33-.24.2-.21.17-.35-.1-.14-.27-.4-.76-.34-1.23.38-1.62.77-3.23,1.29-4.84.32-.96.45-2,.65-3.01.22-1.11.45-2.22.64-3.33.12-.69.24-1.37.34-2.06.14-1.04.31-2.09.39-3.14.05-.81-.01-1.62-.04-2.42,0-.18-.03-.35-.03-.53-.02-.66.18-.86.66-.98.11-.03.21-.07.32-.08.32-.05.68.24.78.74.25,1.48.18,3.03.02,4.58-.12,1.15-.36,2.29-.57,3.42h-.04Z"/><path class="cls-3" d="m162.26,250.75c-.67-.69-1.3-1.38-1.85-2.13-.21-.26-.45-.49-.63-.78-.65-.99-1.17-2.03-1.62-3.08-.21-.46-.41-.92-.61-1.37-.1-.3-.21-.6-.3-.91-.08-.31-.12-.63-.14-.95-.01-.2.16-.22.4-.12.24.1.58.29.77.58.73,1.01,1.27,2.01,1.85,3.06.33.65.91,1.14,1.41,1.65.57.56,1.14,1.12,1.78,1.6.39.3.78.59,1.19.87.31.2.64.38.97.57.34.15.68.32,1.03.42.56.15,1.15.1,1.71.12.12,0,.25-.02.37-.02.45.02.55.31.57,1.03,0,.17.02.34.01.5-.01.55-.28.99-.72,1.15-.64.19-1.3.19-1.95.13-.63-.14-1.26-.36-1.85-.66-.88-.43-1.68-1-2.42-1.61l.04-.05Z"/><path class="cls-3" d="m154.85,259.47c-.46-.79-.9-1.58-1.28-2.4-.14-.3-.35-.55-.48-.85-.44-1.07-.84-2.16-1.21-3.24-.16-.48-.37-.94-.57-1.4-.13-.3-.28-.58-.39-.88-.09-.31-.15-.64-.15-.98,0-.21.4-.32.86-.31.46.01,1.02.12,1.22.4.63,1.06,1.22,2.1,1.53,3.34.2.74.71,1.34,1.1,2,.43.72.83,1.46,1.27,2.18.26.45.55.87.85,1.3.47.62.92,1.27,1.5,1.78.45.39.99.66,1.48.92.11.06.23.1.33.17.37.23.38.46.11,1.11-.06.15-.11.3-.18.44-.22.49-.63.75-1.1.67-.67-.13-1.29-.39-1.85-.73-.57-.33-1.01-.81-1.43-1.27-.64-.69-1.15-1.47-1.68-2.22l.05-.04Z"/><path class="cls-3" d="m166.29,234.77c-.28-.46-.52-.92-.73-1.39-.08-.17-.2-.31-.26-.49-.22-.62-.37-1.26-.48-1.88-.06-.27-.13-.54-.21-.8-.09-.34-.23-.68-.11-1.05.06-.22,1.33-.06,1.44.23.19.57.37,1.11.46,1.73.05.38.32.67.51.99.21.35.43.7.69,1.03.16.2.32.4.5.59.27.28.55.57.9.75.27.14.61.14.91.16.07,0,.14,0,.2,0,.23.04.23.21.05.83l-.12.42c-.15.47-.4.8-.67.83-.78.1-1.46-.26-2.02-.72-.42-.35-.78-.75-1.1-1.19l.04-.04Z"/><path class="cls-3" d="m292.83,446.3c0,4.09-3.15,7.4-7.03,7.4-4.77,0-9.13-4.74-7.69-9.18s4.88-6.18,7.68-6.09c3.54.12,7.05,3.63,7.05,7.86Z"/><path class="cls-3" d="m380.14,434.76c0,4.67-4.78,8.63-9.42,7.32-4.6-1.3-6.69-7.21-4.39-11.26,3.66-6.46,13.81-3.25,13.81,3.95Z"/><path class="cls-3" d="m266.1,309.46s-3.6,3.63,7.33,4.42c8.41.61,28.29.41,73.55-11.86,7.41-2.01,15.1-1.42,16.72.3,4.38,4.65-8.97,7.19-21.27,9.91-12.29,2.73-49.51,8.96-56,9.57-6.49.61-35.28,2.37-36.42-2.43s16.11-9.92,16.11-9.92Z"/><path class="cls-3" d="m183.91,217.7c8.2,20.37,54.5,104.93,62.68,98.03,6.6-5.57-56.86-97.64-56.86-97.64,0,0-5.81-.38-5.81-.38Z"/><path class="cls-1" d="m412.9,212.84v10.75s7.97-4.64,10.97-2.19c3,2.45,10.59,12.59,12.55,14.36,1.96,1.76,3.07,3.11,5.02,1.77s1.87-9.52,0-11.32c-1.87-1.8-11.69-19.15-13.6-18.99-1.92.15-14.94,5.63-14.94,5.63Z"/><path class="cls-1" d="m418.53,259.8s17.06-3.48,18.34-4.24,10.03,11.91,11.72,15.65c1.69,3.74,7.46,19.57,5.26,21.91-2.19,2.34-4.71,2.93-6.88,0-2.17-2.93-10.18-21.38-14.13-22.69-3.95-1.32-14.68.94-14.68.94l.36-11.58Z"/><path class="cls-3" d="m415,216.19c0,.64-.13,1.29-.24,1.91-.03.23-.03.46-.08.68-.19.8-.42,1.57-.65,2.32-.1.34-.19.66-.28,1-.12.42-.24.85-.49,1.23-.07.12-.2.06-.32-.1-.12-.15-.27-.41-.26-.65,0-.43.01-.85.02-1.28.03-.42.1-.83.19-1.24.13-.49.03-1.03.01-1.54,0-.56-.04-1.13-.06-1.69,0-.35-.02-.7-.06-1.04-.06-.52-.12-1.06-.3-1.56-.15-.38-.44-.71-.65-1.05-.05-.08-.11-.14-.15-.22-.13-.29.22-.55.6-.79l.25-.16c.13-.07.27-.1.46-.11.19,0,.46,0,.61.08.85.54,1.12,1.4,1.27,2.26.12.64.15,1.3.18,1.94h-.05Z"/><path class="cls-3" d="m420.98,263.46c.03.59.06,1.18.08,1.76.01.21.07.42.07.63-.01.76-.1,1.51-.14,2.25-.03.33.02.66,0,.98,0,.42-.02.84-.17,1.25-.05.13-.21.11-.41,0-.2-.11-.46-.3-.55-.53-.36-.81-.4-1.61-.33-2.45.05-.5-.14-1-.17-1.5-.05-.55-.1-1.11-.17-1.67-.04-.34-.08-.68-.14-1.02-.09-.51-.17-1.03-.34-1.53-.13-.38-.35-.73-.52-1.09-.03-.08-.07-.16-.09-.24-.06-.32.02-.46.41-.66l.23-.13c.24-.12.6-.09.81.1.16.14.33.29.47.44.12.16.23.33.33.51.21.34.31.73.4,1.12.13.58.2,1.17.28,1.76h-.05Z"/><path class="cls-3" d="m282.62,231.45s14.51-9.9,17.61-17.6c3.11-7.69,3.82-20.74,3.55-23.93s11.83,5.22,11.83,5.22c0,0,17.37,13.91,21.04,23.33,3.67,9.43-1.49,25.36-3.77,28.64-2.28,3.28-7.46,10.64-7.46,10.64,0,0,32.81-9,51.93-11.92s36.9-1.19,36.9-1.19c0,0,4.28,21.18,4.27,31.58s4.27,10.65-5.71,13.27c-9.98,2.62-83.62,15.2-96.49,16.84s-51.79,6.31-60.48-3.31c-8.69-9.62-4.22-30.93-4.22-30.93l5.68-10.84s9.82,4,17.06-.43c7.24-4.42,9.15-15.93,9.12-18.79-.03-2.86-.86-10.6-.86-10.6Z"/><path class="cls-3" d="m410.54,237.52c-29.26-1.34-68.85,11.23-76.2,13.67-.09.03-.14-.08-.07-.14,6.05-5.59,7.7-15.07,7.7-15.07,0,0,25.22-14.15,27.45-14.39s24.31-9.64,28.99-11.05c4.69-1.42,12.12-3.3,12.12-3.3,0,0,.08,22.08.31,25.22s-.31,5.07-.31,5.07Z"/><path class="cls-3" d="m222.04,163.78c1.25-.06,2.5-.04,3.74-.03.45,0,.91-.05,1.36-.03,1.6.05,3.2.15,4.79.32.71.06,1.41.13,2.12.19.9.04,1.8.28,2.66.59.27.1.21.2-.05.31-.26.11-.72.28-1.23.33-.46.05-.9.08-1.35.06-.45,0-.89,0-1.34,0-.9,0-1.79-.03-2.7-.12-1.09-.1-2.22.03-3.33.07-1.22.05-2.45.11-3.67.19-.75.05-1.51.09-2.26.17-1.14.11-2.29.22-3.4.44-.86.17-1.69.48-2.5.76-.18.06-.35.13-.54.18-.68.18-.94.06-1.22-.38-.06-.1-.14-.2-.19-.3-.17-.35.03-.74.52-1.05,1.47-.83,3.16-1.11,4.83-1.38,1.25-.17,2.51-.28,3.76-.37v.05Z"/><path class="cls-3" d="m279.44,216.13s2.11,10.29,7.66,8.17c4.93-1.89,6.31-2.71,6.31-2.71l-11.05,8.72-2.91-14.18Z"/><path class="cls-3" d="m279.81,254.52c-.72,1.17-1.63,2.25-2.62,3.24-.39.33-.72.73-1.14,1.02-1.45,1.09-3.11,1.77-4.73,2.32-.73.24-1.44.5-2.17.71-.93.25-1.86.52-2.83.65-.31.03-.26.03-.05-.13.21-.17.6-.48,1.11-.73,1.76-.95,3.63-1.46,5.36-2.25,1.07-.43,1.97-1.21,2.83-1.95.96-.83,1.73-1.86,2.47-2.91.4-.69.85-1.35,1.18-2.09.56-1.08,1.04-2.22,1.44-3.37.28-.91.49-1.82.65-2.75.04-.2.07-.4.13-.61.21-.74.4-.94.9-.97.11,0,.23-.03.34-.02.37.03.57.41.51,1-.08.87-.23,1.75-.51,2.6-.27.86-.56,1.73-.94,2.57-.27.63-.54,1.26-.88,1.87-.31.62-.64,1.23-1.03,1.81l-.03-.02Z"/><path class="cls-3" d="m218.63,209.1c.53.18,1.04.39,1.55.59.19.06.38.12.56.22.63.34,1.23.71,1.82,1.06.26.15.54.28.81.41.34.19.66.41.94.68.09.09.04.15-.11.21-.14.06-.39.14-.61.13l-.59-.06c-.19-.03-.36-.11-.54-.15-.36-.11-.7-.25-1.04-.41-.4-.21-.88-.24-1.33-.34-.48-.14-.97-.28-1.45-.42-.3-.07-.6-.16-.91-.21-.46-.09-.93-.18-1.4-.18-.37,0-.73.12-1.09.2-.08.02-.16.06-.24.05-.3,0-.39-.15-.45-.66l-.04-.35c-.03-.39.1-.72.33-.86.69-.42,1.45-.42,2.19-.33.55.08,1.09.23,1.63.38v.05Z"/><path class="cls-3" d="m236.84,209.15c-.24-.62-.49-1.22-.81-1.79-.11-.21-.27-.38-.4-.58-.42-.72-.93-1.39-1.5-2.02-.26-.27-.56-.52-.87-.73-.37-.32-.75-.63-1.1-1.02-.11-.12-.04-.21.15-.27.19-.06.53-.15.84-.1.28.05.54.14.82.22.26.09.48.26.71.42.45.31.88.67,1.19,1.14.4.54.9,1,1.3,1.54.42.61.79,1.24,1.11,1.88.21.39.38.79.57,1.18.29.59.51,1.21.81,1.78.23.45.58.82.84,1.24.06.09.13.17.18.27.18.36.11.54-.28.82-.09.07-.17.14-.27.19-.31.19-.66.18-.91-.03-.79-.61-1.2-1.44-1.62-2.26-.32-.61-.54-1.25-.82-1.85l.04-.02Z"/><path class="cls-3" d="m214.29,226.75c.08-1.12.13-2.24.13-3.37,0-.41-.05-.82-.05-1.23,0-1.45-.04-2.9-.17-4.35-.05-.64-.16-1.28-.27-1.91-.15-.81-.36-1.6-.28-2.46.04-.27.12-.25.34-.08.25.17.6.51.77.97.47,1.64.74,3.33.84,5.04.05,1.03.25,2.08.34,3.12.1,1.15.15,2.3.17,3.46.02.71.01,1.42.01,2.13.01,1.07-.08,2.15-.08,3.22,0,.83.09,1.65.12,2.47,0,.18.03.36.03.54-.02.68-.17.88-.71.98-.12.02-.25.06-.37.06-.41.03-.73-.27-.81-.76-.25-1.46-.23-2.96-.22-4.47-.01-1.12.13-2.25.16-3.38h.05Z"/><path class="cls-3" d="m209.69,230.31c.14.71,3.55,13.32,5.71,11.58,2.12-1.7.38-10.44.38-10.44l-6.1-1.14Z"/><path class="cls-2" d="m187.68,196.43s3.82-9.67,2.89-11.05-6.01-.83-6.01-.83c.21-.01-1.18,7.87-3.22,11.33,1.92.91,4.14.44,6.34.55Z"/><path class="cls-3" d="m185.43,188.86c-.12.52-.23,1.05-.37,1.57-.05.19-.06.39-.11.58-.18.67-.36,1.34-.51,2.02-.06.31-.11.6-.16.9-.06.38-.13.77-.27,1.14-.05.12-.15.09-.26-.03-.11-.12-.26-.32-.28-.55-.03-.4-.08-.81-.06-1.21.04-.4.11-.79.21-1.18.12-.47.11-.97.17-1.46.06-.54.15-1.07.25-1.6.06-.33.11-.66.17-.98.08-.5.17-.99.21-1.49.03-.39-.03-.78-.05-1.16,0-.09-.01-.17,0-.25.03-.31.14-.4.52-.43.08,0,.17-.02.25-.02.28,0,.5.16.57.4.23.72.12,1.43.04,2.15-.07.53-.18,1.07-.27,1.6h-.03Z"/><path class="cls-3" d="m32.21,176.87c.3.13.59.25.9.35.11.04.23.03.34.07.39.15.79.28,1.19.41.18.06.36.07.55.08.24-.05.46.1.69.3.07.07.06.14,0,.29-.07.13-.19.41-.34.55-.06.05-.13.14-.2.14l-.19.02c-.13,0-.25,0-.38,0-.25-.01-.51-.06-.75-.19-.29-.14-.61-.11-.91-.18-.33-.07-.66-.17-.99-.27-.2-.06-.4-.12-.6-.19-.3-.09-.6-.2-.91-.26-.24-.05-.5-.01-.75-.02-.06,0-.11.01-.17,0-.2-.04-.23-.16-.14-.57l.06-.28c.08-.31.24-.54.4-.59.47-.15.9-.14,1.31-.02.3.09.6.21.9.3v.04Z"/><path class="cls-3" d="m29.97,163.67c.53.11,1.07.22,1.61.31.2.03.4.01.59.05.7.1,1.4.28,2.1.36.31.04.63.03.94.02.4-.06.8-.02,1.21.29.13.09.11.11.01.25-.07.12-.15.24-.21.33-.09.16-.19.3-.3.36-.1.05-.2.15-.31.15l-.31.03c-.21.02-.42.02-.63.02-.42,0-.84-.04-1.26-.13-.5-.1-1.03-.05-1.55-.1-.57-.06-1.13-.15-1.69-.24-.35-.06-.69-.11-1.03-.17-.52-.08-1.04-.2-1.56-.24-.4-.04-.82.02-1.23.03-.09,0-.18.02-.27.01-.33-.04-.41-.21-.4-.65,0-.1,0-.2,0-.3.03-.33.21-.58.47-.68.74-.2,1.46-.1,2.19,0,.54.09,1.08.18,1.62.27v.04Z"/><path class="cls-3" d="m23.23,170.29c-.03.12-.05.26-.08.26,0,.02-.02.03-.01.06,0,.04.03.21.05.34.05.26.12.54.18.82.14.55.3,1.11.48,1.65.16.44.38.86.55,1.29.53,1.56,1.23,3.08,2.29,4.18.47.45,1.05.74,1.63.77.21.02.53-.19.81-.48.3-.28.62-.63.85-1.01.14-.23.28-.21.43.11.13.32.29.98,0,1.66-.31.54-.75,1.16-1.73,1.43-.87.13-1.51.04-2.19-.22-1.3-.5-2.1-1.47-2.68-2.42-.68-1.16-1.46-2.23-1.98-3.44-.55-1.34-.97-2.61-1.31-4.13-.05-.23-.06-.46-.05-.69.07-.48.1-.77.2-1.16.08-.37.18-.73.3-1.09.42-1.34,1.21-2.52,1.98-3.59.61-.83,1.13-1.69,1.65-2.48.11-.17.2-.36.32-.52.42-.61.71-.66,1.42-.37.16.07.33.12.48.19.5.24.75.82.5,1.44-.78,1.83-2.02,3.13-2.82,4.38-.59.93-1.04,1.9-1.23,3.04h-.07Z"/><path class="cls-3" d="m32.21,166.78c-.2.23-.39.46-.57.7-.07.09-.08.2-.16.28-.26.29-.53.59-.75.91-.1.14-.16.3-.22.45-.09.19-.22.37-.41.53-.06.05-.17,0-.29-.1-.12-.1-.29-.27-.33-.42-.02-.13-.06-.26-.06-.38.02-.11.05-.22.08-.32.07-.21.16-.41.3-.6.17-.22.18-.51.28-.77.13-.27.27-.54.42-.8.09-.16.18-.33.27-.49.13-.25.28-.49.36-.75.06-.21.01-.46,0-.7,0-.05-.02-.11-.01-.16.02-.19.2-.16.72.04l.34.14c.37.16.7.39.75.56.16.48,0,.83-.2,1.17-.15.25-.33.49-.5.73l-.04-.02Z"/><path class="cls-3" d="m71,175.3c-.16.8-.36,1.58-.56,2.36-.07.28-.09.58-.18.86-.3.99-.71,1.95-1.09,2.9-.16.42-.31.85-.44,1.28-.2.54-.44,1.07-.82,1.54-.12.14-.27.05-.41-.17-.13-.22-.3-.58-.27-.9.03-.29.04-.58.09-.85.07-.27.13-.54.21-.81.14-.54.31-1.07.51-1.6.25-.64.26-1.35.41-2.03.15-.75.29-1.5.4-2.25.06-.47.14-.93.17-1.4.06-.71.12-1.43.06-2.13-.05-.55-.26-1.07-.39-1.59-.03-.11-.07-.23-.1-.34-.11-.42.16-.6.67-.77.12-.04.24-.09.35-.12.39-.11.78.02,1.06.35.29.49.49,1.02.59,1.57.08.55.08,1.1.07,1.66-.04.82-.16,1.64-.28,2.45h-.05Z"/><path class="cls-3" d="m62.22,182.06c-.11,1.15-4.28,17.58-1.71,19.04,1.9,1.08,7.06-11.05,7.95-14.28s-4.38-5.05-4.38-5.05l-1.86.29Z"/><path class="cls-3" d="m176.65,211.94l.35.54c.07.1.08.14.1.19l.09.19.26.5c.05.1.11.19.21.27.04.05.1.08.12.14.01.06.02.13.03.19,0,.26.02.52.02.78,0,.25.04.5.08.75.04.22.15.41.2.64.04.16.09.24.14.51-.01.03.06.1-.02.37-.04.2-.38.36-.48.32-.05,0-.09-.01-.14-.03-.05-.02-.09-.04-.13-.06-.02-.01-.02-.02-.03-.03-.07-.07-.09-.11-.11-.15-.04-.08-.06-.17-.08-.25-.02-.11.13-.22.34-.31.11-.05.24-.1.36-.15.06-.02.12-.05.16-.07h.02s.01-.02-.04.03c-.07.07-.14.15-.2.23-.06.09-.12.18-.14.2-.01.02-.02.05-.02.08,0,0-.01,0-.01,0-.05-.01-.11-.01-.16.01-.06.02-.19.04-.28.08-.18.06-.44.18-.38.14-.02,0-.05-.01-.08-.03-.06-.03-.13-.07-.19-.11-.13-.08-.28-.17-.33-.31-.15-.25-.26-.54-.31-.86-.03-.19-.12-.36-.19-.54l-.12-.26c-.04-.08-.02-.07-.03-.12,0-.08.01-.18.03-.31.02-.1.08-.22-.02-.2-.04-.04-.12.01-.15-.11-.04-.01-.09-.02-.14-.03l-.39-.06c-.18-.02-.36-.04-.54-.02-.28.02-.56.21-.84.32-.06.03-.12.08-.18.09-.23.04-.3-.14-.33-.85l-.02-.49c0-.55.09-1,.26-1.16.5-.46,1.03-.51,1.55-.49l.25.02h.13s.24.05.24.05l.96.16.04-.09h0s0,0,0,0h0s0,0,0,0h0s0,.01,0,.01h0s.02.04.02.04l.04.06.08.11-.02.06Z"/><path class="cls-3" d="m185.12,194.29c.63.23,1.23.49,1.83.75.22.1.45.12.66.22.37.2.73.4,1.08.62.34.24.68.47,1.02.71.3.2.62.34.92.54.41.18.74.53,1.02.96.08.14-.02.3-.25.49-.22.18-.6.46-.89.51-.53.11-.96.03-1.38-.06-.39-.17-.76-.37-1.11-.64-.42-.34-.95-.42-1.44-.6-.53-.22-1.07-.43-1.61-.61-.34-.11-.67-.22-1.02-.29-.52-.12-1.05-.24-1.58-.22-.41.03-.81.23-1.19.38-.08.03-.17.09-.25.11-.31.1-.44-.19-.6-.91l-.11-.5c-.1-.55-.01-1.05.25-1.33.8-.62,1.76-.72,2.67-.62.68.07,1.34.24,1.98.41v.07Z"/><path class="cls-3" d="m196.59,184.25c-1.31.34-2.65.6-4.01.74-.5.05-.99.16-1.49.17-1.77,0-3.61-.26-5.29-1.07-.74-.36-1.48-.8-2.05-1.44-.35-.41-.73-.83-.9-1.35-.09-.26-.14-.52-.16-.79-.02-.27-.03-.53.03-.79.19-.35.17-.29.54-.11.2.08.38.21.61.34.25.12.46.26.64.4.33.24.47.53.75.74.26.21.53.39.82.6.58.39,1.3.72,2.11.99.99.32,2.12.18,3.21.11,1.21-.08,2.44-.28,3.66-.57.75-.18,1.49-.4,2.23-.65,1.11-.39,2.22-.82,3.24-1.39.8-.44,1.49-1.03,2.21-1.57.16-.12.3-.26.46-.37.6-.42.88-.43,1.35-.04.11.09.22.17.32.26.32.32.28.81-.11,1.26-.58.66-1.24,1.25-1.97,1.79-.74.51-1.53.96-2.35,1.36-1.22.6-2.52,1.05-3.82,1.45l-.02-.06Z"/><path class="cls-3" d="m140.7,117.98c-1.32-.12-2.64-.27-3.97-.32-.48-.03-.97.01-1.45,0-1.71-.06-3.43-.04-5.15.05-.76.03-1.52.14-2.27.23-.96.18-1.92.29-2.92.3-.31,0-.29-.11-.07-.32.22-.2.64-.56,1.18-.78.97-.33,1.97-.5,2.97-.68,1-.16,2.02-.28,3.04-.26,1.22,0,2.49-.15,3.74-.16,1.37-.01,2.75.03,4.12.13.84.06,1.68.15,2.52.24,1.27.13,2.54.34,3.79.49.98.13,1.95.17,2.92.29.21.02.43.03.64.08.79.15,1.02.32,1.08.79.02.11.04.22.04.32,0,.35-.38.56-.96.55-1.73-.02-3.49-.26-5.27-.48-1.32-.16-2.64-.33-3.98-.42v-.04Z"/><path class="cls-3" d="m147.24,80.11c-6.2,1.18-24.97,7.66-31.53,34.98,0,0,29.06-.72,36.64,3.17s8.76,6.06,9.94,9.72-1.19,10.8.53,11.85,6.44,3.12,7.18-.06,4.37-11.34,6.97-11.77c2.6-.43,7.7.25,8.53,3.06s-1.01,10.65-1.01,10.65c0,0,4.37,4.6,10.38,4.66s12.04-.56,15.23-2.88c8.11-5.91,7.77-13.84,8.31-16.01s-.05-5.56-.05-5.56c0,0-10,5.33-12.59-.84s2.14-11.46.24-17.14c-1.89-5.68-4.86-11.5-8.07-13.46-3.22-1.95-10-4.37-13.08-3.27s-12.07,6.31-12.07,6.31c0,0-4.36-8.41-8.05-10.42s-17.5-3.01-17.5-3.01Z"/><path class="cls-3" d="m240.26,294.63c1.43,2.7,2.83,5.42,4.15,8.19,1.32,2.78,2.6,5.57,3.6,8.62.12.38.24.77.35,1.18l.08.3.04.15.05.25.18.99c.16,1.34.04,2.59-.74,3.4l-.31.3-.39.19c-.23.17-.53.19-.8.27-.28,0-.56.04-.85.02l-.89-.19c-.3-.1-.6-.26-.89-.39-.3-.13-.6-.28-.88-.47l-.67-.45-.49-.38c-2.56-2.07-4.58-4.39-6.6-6.72-2.9-3.43-5.68-6.92-8.3-10.51-9.21-12.7-17.62-25.88-25.74-39.24-3.58-5.94-7.22-11.89-10.63-17.87-2.18-3.85-4.34-7.72-6.35-11.68-1.97-3.98-4.02-7.93-5.08-12.4-.16-.7-.16-1.27-.11-1.63.09-.4.21-.55.27-.5.08.05.08.28.18.59.1.32.26.74.52,1.26.5,1.04,1.33,2.46,2.39,4.14,1.03,1.7,2.19,3.71,3.4,5.92,4.27,7.86,9,15.51,13.53,23.29,4.6,7.74,9.32,15.43,14.12,23.13,5.76,9.19,12.25,18.45,18.96,27.22,1.85,2.41,3.74,4.78,5.72,7.05.99,1.14,2,2.25,3.05,3.3.52.53,1.06,1.04,1.6,1.52.27.23.54.49.83.69.25.21.61.48.78.58.23.16.51.33.81.38.15.02.32.01.42-.12.1-.12.12-.28.12-.43,0-.15-.02-.3-.04-.46-.04-.19-.04-.25-.16-.67-.18-.69-.41-1.39-.66-2.08-1.02-2.79-2.31-5.55-3.63-8.27-3.31-6.71-6.98-13.28-10.72-19.78-5.7-9.84-11.63-19.64-17.7-29.17-4.72-7.41-9.57-14.53-14.47-21.71-1.09-1.57-2.15-3.11-3.24-4.7-1.01-1.47-1.82-2.71-2.46-3.78-.65-1.06-1.16-1.92-1.54-2.66-.75-1.49-1.06-2.43-1.22-3.25-.07-.37-.23-.83-.24-1.07-.02-.4.46-.06,1.43.85.97.91,2.36,2.44,3.95,4.54,4.67,6.24,9.12,12.89,13.6,19.64,4.46,6.77,8.87,13.71,13.21,20.72,6.42,10.42,12.7,21,18.56,31.84l-.06.05Z"/><path class="cls-3" d="m303.58,206.99c-.9,2.74-2.23,5.32-3.63,7.81-.52.91-1.04,1.81-1.61,2.69-2.11,3.03-4.63,5.73-7.39,8.1-.59.54-1.25,1.02-1.86,1.54-.62.51-1.2,1.07-1.88,1.49-.85.57-1.67,1.19-2.54,1.72-.46.24-.89.5-1.38.69-.48.18-.96.35-1.45.53-.61.2-.6.02-.29-.51.15-.27.38-.63.64-1.06.14-.21.28-.45.45-.65.18-.19.39-.37.61-.54,3.08-2.54,6.01-5.1,8.76-7.98.82-.87,1.6-1.8,2.26-2.83l1.03-1.52.93-1.59c1.43-2.28,2.52-4.75,3.58-7.24.55-1.57,1.16-3.13,1.54-4.76.67-2.44,1.1-4.96,1.28-7.48.05-.98,0-1.95-.05-2.91-.05-.96-.2-1.92-.26-2.88-.04-.42-.08-.83-.14-1.25-.18-1.56.05-2.09.8-2.54.17-.1.33-.23.5-.3.28-.12.56-.03.83.24.27.27.55.72.7,1.32.26.89.49,1.8.62,2.74.14.93.33,1.89.31,2.85,0,.96.02,1.93-.02,2.9-.09.97-.18,1.94-.27,2.92-.41,2.88-1.06,5.74-2,8.49l-.08-.02Z"/><path class="cls-3" d="m120,137.85c-.78,1-1.52,2.02-2.07,3.05-.2.38-.3.78-.44,1.14-.11.31-.22.63-.26.9-.01.07-.03.14-.03.21,0,.07-.01.06-.02.11,0,.07,0,.15.02.23.02.18.2.24.35.31.04.02.08.03.14.05.09.03.17.05.27.07.18.04.37.07.56.1.69.09,1.4.04,2.1-.07.91-.1,1.78-.34,2.76-.32.31.01.35.21.2.58-.07.18-.19.42-.35.67-.16.23-.39.43-.65.57-.48.22-.97.44-1.48.6-.52.12-1.04.22-1.58.27-.54.05-1.09.06-1.66,0-.14-.01-.29-.03-.44-.06-.15-.03-.42-.06-.62-.14-.43-.12-.82-.31-1.14-.56-.37-.32-.59-.78-.72-1.26-.15-.47-.23-1.03-.21-1.37,0-.8.16-1.51.39-2.15.53-1.4,1.29-2.56,2.05-3.69.47-.69.96-1.35,1.44-2.02.72-1.01,1.49-1.98,2.1-3.01.48-.8.77-1.69,1.04-2.52.05-.18.11-.36.18-.52.13-.31.27-.47.49-.55.21-.09.44-.11.78-.1.16,0,.31-.01.46,0,.47,0,.86.47.92,1.22-.01,1.06-.37,1.97-.79,2.8-.42.84-.92,1.6-1.43,2.34-.76,1.1-1.58,2.13-2.31,3.17l-.06-.04Z"/><path class="cls-3" d="m212.93,141.89c-2.02,2.01-4.38,3.72-6.98,4.9-.45.26-.95.41-1.43.63-.48.19-.95.43-1.46.55-1.77.49-3.57.82-5.38.87-.91.01-1.79.08-2.74-.03-.93-.09-1.81-.29-2.69-.51-1.55-.41-3.05-.97-4.48-1.67-.9-.48-1.83-.96-2.59-1.69-.77-.7-1.44-1.57-1.8-2.57-.17-.65-.04-.58.51-.34.27.13.64.29,1.07.44.42.16.85.36,1.3.6.37.24.81.39,1.18.63.39.22.78.44,1.19.63.81.38,1.66.73,2.53,1.01,1.74.58,3.49,1.11,5.31,1.12,2.28.18,4.59-.51,6.74-1.3,2.37-.9,4.61-2.22,6.54-3.94.59-.54,1.14-1.11,1.72-1.66.51-.61,1.05-1.21,1.54-1.84,1.46-1.94,2.69-4.1,3.58-6.36.31-.89.63-1.77.8-2.7.21-.91.39-1.82.51-2.74.06-.4.1-.81.17-1.21.19-1.51.45-1.96,1.31-2.18.18-.05.36-.13.52-.16.5-.09,1.06.63,1.01,1.85-.09,3.59-1.17,7.33-2.91,10.75-1.32,2.54-3.02,4.9-5.02,6.98l-.05-.04Z"/><path class="cls-3" d="m132.2,157.66l1.33,1.61c.43.56.98.99,1.46,1.49l.75.73.38.37.42.32,1.66,1.28c2.25,1.64,4.74,2.92,7.42,3.58,1.95.51,3.99.64,6.05.65,3.65.02,7.42-.49,11.26-.83,1.91-.18,3.86-.3,5.84-.31,1.97.04,3.93.16,5.86.46,3.43.49,6.82,1.27,10.08,2.31,2.11.64,4.16,1.48,6.13,2.51.98.51,1.95,1.06,2.85,1.73.92.62,1.79,1.33,2.54,2.17.93,1.04.67,1-.44.59-1.14-.4-3.16-.99-5.37-1.88-.98-.4-1.96-.8-2.97-1.13-.5-.18-1-.35-1.52-.49-.5-.17-.99-.37-1.51-.52-2.02-.67-4.09-1.18-6.17-1.62-2.08-.45-4.2-.72-6.31-.94-2.13-.24-4.2-.28-6.38-.19-2.61.1-5.29.44-8.03.75-2.74.31-5.58.54-8.43.31-1.57-.1-3.13-.41-4.67-.8-1.52-.46-3.02-.99-4.41-1.73l-1.05-.54-1-.62c-.33-.21-.67-.4-.99-.63l-.93-.71-1.85-1.42-1.68-1.61c-2.7-2.7-4.92-5.86-6.56-9.27-2.48-5.19-3.66-10.88-4.06-16.49-.28-4.37-.18-8.69.5-12.99.16-.95.25-1.89.51-2.82.78-3.51,1.57-4.48,2.47-4.95.21-.11.44-.26.63-.3.6-.13.67,1.4.11,3.82-.77,3.63-1.24,7.39-1.38,11.2-.12,3.81.04,7.68.8,11.45.59,2.78,1.3,5.56,2.47,8.14.5,1.33,1.22,2.55,1.88,3.79.32.63.77,1.18,1.15,1.77.41.57.75,1.19,1.24,1.7l-.06.05Z"/><path class="cls-3" d="m200.33,89.93c3.19,3.07,5.39,6.91,6.61,11.04.45,1.49.81,3.09.91,4.62.21,2.69.1,5.38-.15,7.98-.11,1.3-.25,2.57-.3,3.8-.05,1.22,0,2.38.42,3.27.18.4.44.73.78,1.02.14.17.38.26.57.4.21.14.37.23.61.31.92.35,1.99.46,2.99.49,1.31,0,2.6-.33,3.77-.9.58-.3,1.14-.64,1.71-1.01.3-.17.53-.42.81-.62.29-.2.57-.41.85-.64.72-.55.76-.42.59.44-.05.25-.1.51-.16.8-.06.33-.23.61-.38.97-.15.36-.4.69-.66,1.05-.14.18-.28.36-.44.53-.18.15-.37.3-.57.44-1.43,1.01-3.18,1.63-4.94,1.8-.88.1-1.78.09-2.65-.08-.89-.17-1.71-.35-2.71-.86-.84-.49-1.72-1.11-2.32-2.04-.35-.43-.52-.93-.74-1.41-.14-.47-.3-.97-.35-1.42-.26-1.84-.04-3.39.13-4.91.47-3.57.48-7.22-.05-10.66-.6-3.71-2.26-7.34-4.7-10.29-1.5-1.81-3.3-3.39-5.38-4.41-3.14-1.52-6.92-1.87-10.38-1.01-2.7.69-5.13,2.03-7.38,3.6-.5.35-.95.74-1.45,1.08-1.81,1.36-2.48,1.67-3.37,1.45-.2-.05-.43-.07-.59-.14-.28-.13-.31-.43-.14-.9.17-.47.54-1.11,1.18-1.76,1.87-1.97,4.17-3.64,6.78-4.91,2.62-1.24,5.6-2.03,8.67-2.05,2.28-.03,4.56.37,6.73,1.19,2.2.85,4.12,2.16,5.77,3.68l-.05.06Z"/><path class="cls-3" d="m205.78,179.45c-1.93,1.66-4.06,3.13-6.29,4.4-.83.45-1.61.99-2.5,1.33l-1.16.48-1.22.37c-.79.28-1.64.41-2.48.55l-.63.11-.65.03-1.28.05c-.43,0-.86-.08-1.29-.11-.43-.06-.86-.05-1.27-.2l-1.11-.29c-.19-.05-.37-.09-.55-.16l-.58-.24c-.75-.37-1.44-.9-1.96-1.55-1.39-1.67-1.48-4.17-.33-5.83.4-.5.51-.27.62.27.12.57.43,1.39.7,2.12.1.33.25.64.43.91.09.13.18.26.29.37.07.13.17.24.25.36.36.44.83.74,1.38.94,1.37.42,2.94.82,4.59.73,2-.05,4-.93,5.9-1.86,2.08-1.08,4.07-2.43,5.95-3.92l1.69-1.45c.56-.49,1.08-1.03,1.62-1.54.83-.77,1.56-1.64,2.34-2.46.74-.86,1.46-1.73,2.13-2.64.5-.72.97-1.46,1.41-2.2l1.24-2.28c.19-.33.33-.68.52-1.01.68-1.24,1.13-1.49,2.01-1.34.2.04.41.05.6.11.62.2.78.98.4,2.01-1.2,3.02-3.11,5.88-5.33,8.5-.8.99-1.7,1.91-2.57,2.84-.94.88-1.82,1.81-2.81,2.64l-.05-.05Z"/><path class="cls-3" d="m285.24,176.92c8.76,3.45,17.33,7.48,25.41,12.41,1.47.9,2.92,1.84,4.38,2.77,1.41,1,2.88,1.93,4.23,3.02,4.84,3.73,9.31,8.04,12.94,13.05,1.79,2.47,3.42,5.13,4.69,7.96,1.27,2.84,2.14,5.86,2.57,8.95.7,5.5-.17,11.18-2.32,16.17-.28.83-.69,1.6-1.1,2.37l-1.2,2.32c-.89,1.49-1.89,2.91-2.84,4.36-1.07,1.36-2.23,2.64-3.36,3.95-.56.66-1.22,1.21-1.83,1.82-.63.59-1.32,1.11-1.96,1.67-1.64,1.37-1.52,1.06-.58-.52.48-.78,1.04-1.99,1.92-3.23.45-.62.86-1.34,1.32-2.09.46-.74.96-1.51,1.52-2.28.23-.35.51-.67.74-1.02l.66-1.06,1.33-2.12c.48-.69.78-1.46,1.16-2.19l1.1-2.22.84-2.31.42-1.15c.13-.39.19-.79.3-1.18.18-.79.38-1.57.58-2.36l.32-2.4c.31-3.2.09-6.45-.74-9.6-.82-3.16-2.21-6.19-3.95-9.07-2.08-3.5-4.74-6.67-7.76-9.57-3.02-2.89-6.33-5.55-9.8-7.93-3.8-2.64-7.77-5.05-11.88-7.25-4.11-2.18-8.33-4.18-12.61-6.03-5.28-2.26-10.68-4.29-16.14-6.1-8.27-2.75-16.73-5.13-25.2-6.94-6.59-1.42-13.12-2.38-19.71-3.15-1.45-.14-2.87-.28-4.34-.42-5.42-.5-7.11-.68-8.27-1.52-.26-.18-.62-.36-.77-.54-.54-.54,1.75-1.19,5.84-1.06,12.1.42,24.65,2.69,37,5.8,9.18,2.32,18.26,5.19,27.13,8.61l-.02.08Z"/><path class="cls-3" d="m270.92,260.03c1.53-.42,2.86-1.08,4.08-2.16.61-.56,1.28-1.07,1.78-1.74l.82-.94.7-1.04c1.85-2.81,2.91-6.18,3.35-9.67.28-2.57.22-5.17.05-7.78-.72-9.24-3.64-18.38-7.49-26.98-1.73-3.82-3.76-7.53-6-11.03-2.92-4.45-6.04-8.88-9.99-12.38-1.26-1.06-1.12-.97.27-.46.68.28,1.62.76,2.68,1.47,1.09.68,2.24,1.63,3.31,2.8.96,1.03,1.89,2.09,2.76,3.2.91,1.08,1.72,2.22,2.51,3.38,1.57,2.32,3.02,4.72,4.39,7.16,2.66,4.92,5.02,10.04,6.68,15.45,1.03,3.21,1.98,6.52,2.71,9.92.73,3.39,1.26,6.88,1.34,10.39.08,3.85-.33,7.78-1.63,11.51-1.27,3.72-3.55,7.2-6.66,9.71-2,1.6-4.47,2.51-6.9,2.83-2.44.33-4.86.18-7.2-.17-3.55-.54-6.96-1.58-10.27-2.78-3.31-1.19-6.54-2.55-9.72-3.94-4.95-2.15-9.78-4.27-14.65-6.29-1.07-.43-2.12-.86-3.2-1.3-3.97-1.68-5.17-2.17-5.87-3.17-.16-.22-.4-.44-.48-.63-.33-.56,1.65-.82,4.83.12,4.7,1.31,9.18,3.36,13.71,5.31,4.52,1.99,9.06,4.02,13.66,5.79,3.42,1.28,6.87,2.48,10.35,3.19,1.74.38,3.47.61,5.17.67,1.7.05,3.37-.06,4.88-.51l.03.08Z"/><path class="cls-3" d="m229.55,212.78l6.15,3.46c.75.42,1.53.76,2.27,1.18,2.63,1.47,5.24,2.95,7.94,4.24,1.18.61,2.42,1.09,3.65,1.54,1.6.53,3.17.96,4.75,1.51.51.2.46.26,0,.46-.33.15-.68.31-1.01.46-.45.18-.93.16-1.45.12-.45-.07-.95-.07-1.37-.2l-1.31-.36c-.89-.23-1.7-.57-2.55-.87-1.67-.62-3.25-1.45-4.79-2.33-1.84-1.05-3.86-1.93-5.77-2.92l-6.26-3.33-3.85-2.02c-1.96-.99-3.92-1.99-5.93-2.83-.78-.31-1.57-.59-2.36-.85l-2.39-.7c-.35-.11-.7-.19-1.05-.28-1.3-.37-1.65-.68-1.74-1.42-.02-.17-.06-.35-.06-.51.02-.54.68-.79,1.72-.63,3.08.51,6.11,1.7,9.03,3.05,2.18.99,4.3,2.1,6.41,3.19l-.03.06Z"/><path class="cls-3" d="m237.98,205.37c.46.93.88,1.87,1.26,2.83.15.34.35.66.47,1.01.45,1.24.85,2.48,1.2,3.73.17.55.38,1.08.59,1.6.3.66.53,1.35.62,2.1.02.23-.22.3-.57.23-.34-.07-.81-.25-1.06-.59-.46-.6-.77-1.26-1.11-1.9-.32-.65-.62-1.31-.83-2.02-.23-.86-.76-1.61-1.16-2.4l-1.34-2.6c-.28-.53-.58-1.05-.89-1.57-.49-.77-.96-1.56-1.56-2.24-.46-.54-1.03-.96-1.55-1.43-.11-.1-.25-.18-.36-.29-.38-.42-.32-.72.07-1.24.09-.12.17-.25.27-.36.32-.37.8-.47,1.26-.3,1.27.61,2.32,1.57,3.1,2.74.61.84,1.12,1.76,1.65,2.66l-.06.04Z"/><path class="cls-3" d="m111.14,173.68c4.83,1.1,9.67,2.1,14.53,3.04,1.77.35,3.57.56,5.34.88,6.27,1.1,12.56,2.09,18.89,2.68,2.81.31,5.64.4,8.44.54,3.6.08,7.18-.09,10.79.22,1.13.11,1,.24.07.61-.47.18-1.13.47-1.94.73-.41.13-.85.26-1.32.39-.24.07-.48.11-.73.19-.25.03-.51.07-.77.07l-5.6.14c-1.86-.05-3.73-.1-5.59-.15-3.72-.29-7.43-.66-11.12-1.25-2.22-.31-4.47-.62-6.74-.93-2.28-.27-4.55-.62-6.81-.98-4.96-.8-9.89-1.77-14.8-2.8-3.02-.65-6.04-1.31-9.04-2.01-4.55-1.05-9.11-2.19-13.61-3.3-1.76-.41-3.5-.81-5.23-1.22-1.74-.39-3.48-.78-5.21-1.22-.76-.19-1.52-.35-2.29-.56-2.83-.81-3.68-1.26-4.03-2.22-.08-.21-.22-.42-.25-.59-.12-.54,1.22-.81,3.29-.31,6.19,1.36,12.65,3.01,19.16,4.59,2.42.59,4.84,1.18,7.28,1.74,2.43.58,4.87,1.12,7.31,1.65v.07Z"/><path class="cls-3" d="m97.26,211.15c4.82.31,9.67.51,14.52.67,1.77.06,3.55.03,5.32.1,3.13.1,6.25.25,9.38.47,3.13.2,6.26.42,9.38.68,2.77.22,5.57.45,8.32.71,3.53.39,7.1.78,10.51,1.86,1.07.31.87.5-.1.64-.49.07-1.17.14-1.99.2-.82.08-1.76.1-2.76-.03-7.12-.66-14.26-1.08-21.51-1.52-2.17-.14-4.38-.18-6.61-.21-2.23-.04-4.47-.09-6.7-.13-4.89-.14-9.8-.3-14.71-.54-3.02-.15-6.04-.35-9.06-.59-4.57-.37-9.15-.94-13.66-1.7-3.5-.61-6.96-1.23-10.36-2.33-.74-.27-1.47-.52-2.21-.81-2.71-1.18-3.4-1.94-3.63-2.77-.05-.19-.14-.4-.15-.56,0-.53,1.22-.33,3.13.36,1.42.52,2.89.95,4.38,1.34,1.48.43,3,.8,4.53,1.16,3.07.7,6.25,1.22,9.47,1.64,4.77.64,9.63,1.03,14.49,1.29v.07Z"/><path class="cls-3" d="m58.57,183.77c-1.79.4-3.78.71-5.75.58-.72,0-1.43-.1-2.14-.19-2.49-.58-4.62-1.55-6.67-2.85-.91-.56-1.77-1.21-2.56-1.92-1-.91-1.98-2.02-2.24-3.42-.09-.42.06-.41.43-.21.33.23,1.06.47,1.53.93.85.83,1.89,1.45,2.94,2.01,1.05.59,2.13,1.18,3.26,1.74.67.36,1.41.63,2.15.82.73.16,1.47.34,2.21.39,1.62.21,3.27.08,4.96-.29,1.04-.22,2.1-.51,3.2-.79,1.65-.42,3.54-.7,5.4-.31.68.21,1.43.32,2.06.63.33.14.68.26.99.43l.9.55c.25.17.57.29.78.5.43.37.66.67.72.98.07.3,0,.57-.2.91-.09.15-.16.31-.26.45-.34.44-1,.49-1.7.2-.23-.13-.46-.27-.68-.42-.24-.11-.47-.22-.69-.34-.22-.11-.44-.25-.66-.36-.22-.08-.44-.17-.65-.27-.41-.24-.85-.26-1.25-.44-.43-.03-.84-.16-1.3-.12-1.34-.02-2.98.41-4.77.87l-.02-.07Z"/><path class="cls-3" d="m27.6,172.48c.06.34.23.66.62.99.19.17.42.33.7.49l.44.24.71.37c.41.23.78.51,1.01.91.07.21.17.42.22.64l.06.35.04.28c.09.88.25,1.64.59,2.33.34.67.88,1.41,1.47,1.9.27.25.5.31.69.28.21-.04.34-.22.41-.41.03-.08.05-.14.08-.23l.08-.33c.05-.23.1-.46.14-.71.06-.49.11-.99.19-1.52.04-.33.15-.33.43-.1.15.12.33.3.54.55.18.25.33.56.4.91.05.32.09.64.09.98.01.17-.01.34-.04.52l-.04.27-.1.35c-.29.95-1.24,1.93-2.34,1.84-.55-.09-.99-.2-1.38-.35-.34-.18-.68-.38-.92-.59-.54-.43-1-.87-1.34-1.46-.42-.68-.8-1.42-1.07-2.16-.14-.37-.25-.74-.34-1.11-.05-.18-.09-.38-.12-.52l-.02-.17c.02-.15-.12-.21-.22-.28-.01-.02-.21-.11-.38-.2l-.54-.29c-.72-.42-1.51-.97-2.05-1.81-.34-.5-.54-1.1-.63-1.67-.1-.55-.09-1.23.17-1.86.35-.84,1.08-1.33,1.63-1.62.62-.35.86-.39.96-.76l.08-.25.11-.31c.2-.54.41-1.1.68-1.63.26-.53.57-1.03.8-1.45.1-.18.17-.37.25-.53.28-.61.51-.76,1.24-.72.16,0,.33,0,.48.02.5.05.9.56.72,1.35-.23,1.02-.84,1.91-1.14,2.5-.16.31-.3.6-.42.91-.06.16-.13.31-.18.48l-.09.25-.13.41c-.1.26-.24.5-.38.74-.17.23-.37.42-.59.6-.14.11-.31.22-.45.32l-.3.18-.42.24c-.23.14-.32.23-.34.24-.02.01-.02,0-.05.08,0,.09,0,.33.06.48l-.06.02Z"/><path class="cls-3" d="m181.64,191.89c.25-.58.48-1.18.69-1.8.08-.22.09-.46.17-.69.28-.8.57-1.61.85-2.4.13-.36.21-.72.29-1.09.09-.47.15-.96.49-1.37.1-.13.35-.04.61.16.25.19.58.51.59.78-.08.95-.11,1.9-.55,2.81-.24.55-.25,1.16-.38,1.75-.15.64-.32,1.29-.5,1.93-.12.4-.24.8-.37,1.19-.19.61-.42,1.2-.65,1.83-.16.49-.27,1.04-.58,1.61-.09.12-.17.26-.28.38-.19.22-.43.3-.62.26-.19-.04-.34-.2-.5-.5-.07-.13-.14-.27-.2-.41-.17-.48-.22-.97-.26-1.09-.08-.45.18-.98.48-1.69.22-.52.47-1.09.67-1.68h.05Z"/><path class="cls-3" d="m191.82,194.92c.24-.49.47-1,.67-1.54.07-.2.09-.4.16-.6.26-.7.53-1.42.77-2.13.1-.32.18-.64.27-.96.09-.41.18-.83.43-1.21.08-.12.3-.04.51.13.21.17.44.43.44.67-.01.43-.02.85-.07,1.27-.08.41-.2.82-.36,1.23-.19.48-.18,1.03-.28,1.56-.11.58-.25,1.16-.42,1.74-.1.36-.23.72-.35,1.07-.19.55-.45,1.07-.67,1.61-.18.41-.27.89-.44,1.33-.04.1-.05.21-.11.3-.19.34-.45.29-.96-.06-.12-.08-.24-.16-.36-.24-.38-.29-.61-.67-.62-.95.08-.76.31-1.3.65-1.86.23-.42.49-.87.7-1.36h.05Z"/><path class="cls-3" d="m147.57,259.97l-1.22,1.71-.59.83s-.06.06-.06.11l.02,1c0,.41,0,.83-.03,1.24-.03.82-.12,1.63-.22,2.43-.2,1.6-.5,3.17-.84,4.71-.34,1.54-.74,3.06-1.13,4.55-.26,1.01-.22.8-.3,1.06-.05.17-.11.36-.12.55-.02.15.13.08.2.04.09-.04.17-.08.26-.13.1-.06.21-.12.32-.19l.75-.48c.81-.51,1.6-1.05,2.41-1.59,1.99-1.34,3.96-2.74,5.91-4.17l2.91-2.17,1.44-1.1.23-.18s.07-.09.11-.14l.46-.75c2.52-4.15,5.06-8.29,7.5-12.5,2.17-3.72,4.22-7.55,6.26-11.31,1.3-2.42,2.54-4.88,3.78-7.33.64-1.22,1.22-2.46,1.84-3.68.57-1.24,1.16-2.48,1.7-3.73.85-1.51.68-1.34.48.13-.07.75-.31,1.77-.64,2.99-.31,1.24-.79,2.63-1.36,4.13-1.05,2.63-2.24,5.2-3.44,7.76-1.21,2.55-2.43,5.1-3.79,7.58-2.68,4.98-5.47,9.9-8.44,14.74-.45.72-.89,1.45-1.34,2.18l-.67,1.1c-.17.26-.32.63-.64.82l-.58.46c-1.37,1.07-2.74,2.14-4.13,3.21-2.78,2.13-5.59,4.25-8.58,6.15-.28.2-1.03.62-1.65.98-.63.39-1.27.72-1.91,1.02-.26.07-.53.17-.77.22h-.6c-.2-.02-.41.03-.59-.04-.25-.11-.37-.34-.46-.51-.34-.67-.34-1.8,0-3.16l1.46-5.61c.79-3.21,1.44-6.47,1.41-9.66,0-.2-.02-.53-.03-.85-.03-.43.22-.79.37-1.17l.55-.79.98-1.36,1.94-2.71c1.29-1.81,2.56-3.62,3.81-5.46,3.99-5.86,7.91-11.81,11.37-17.94,2.67-4.77,5-9.6,7.07-14.56.46-1.09.87-2.17,1.31-3.28.81-2.05,1.33-3.4,1.79-4.32.49-.91.86-1.4,1.35-1.75.22-.16.46-.38.65-.46.32-.13.44.28.39,1.12-.04.85-.29,2.13-.8,3.71-3.05,9.39-8.09,18.46-13.35,27.33-3.91,6.6-8.26,12.96-12.66,19.24l-.06-.03Z"/><path class="cls-3" d="m372.62,247.6c-2.7.45-5.42.84-8.11,1.39l-4.05.77-4.03.87c-1.96.41-3.9.94-5.85,1.41-6.89,1.61-13.76,3.32-20.58,5.27-3.03.85-6.04,1.83-9,2.8-1.9.63-3.82,1.22-5.75,1.81-1.93.56-3.84,1.19-5.82,1.61-1.23.26-1.14.01-.25-.67.88-.7,2.56-1.82,4.71-2.69,1.91-.75,3.82-1.53,5.75-2.25,1.95-.64,3.91-1.27,5.87-1.91,3.93-1.22,7.9-2.38,11.92-3.39,2.4-.63,4.85-1.28,7.3-1.97,2.45-.68,4.93-1.31,7.4-1.93,2.72-.64,5.44-1.25,8.17-1.84,2.75-.52,5.47-1.14,8.23-1.59l5.08-.87,5.11-.73c1.29-.2,2.58-.36,3.88-.49l3.89-.43c2.59-.27,5.19-.41,7.77-.67,2.01-.11,4-.24,5.98-.4,1.99-.15,3.98-.16,5.97-.23.88-.02,1.74-.09,2.63-.03,3.29.15,4.33.44,4.95,1.36.14.2.33.4.41.58.25.58-1.13,1.18-3.48,1.19-6.98.13-14.31.29-21.68,1.02-2.74.23-5.47.59-8.21.87-2.73.41-5.48.73-8.2,1.21l-.02-.07Z"/><path class="cls-3" d="m431.58,254.88l5.73-1.01c.7-.13,1.37-.33,2.07-.45,2.46-.41,4.92-.84,7.39-1.21,1.09-.18,2.18-.42,3.25-.64,1.38-.28,2.73-.71,4.23-.53.46.04.44.18.14.55-.2.25-.42.5-.61.74-.26.27-.59.51-.96.68-1.37.48-2.74.94-4.13,1.3-1.41.31-2.82.62-4.28.76-1.74.18-3.48.7-5.22,1.05l-5.76,1.11-3.54.69c-1.78.37-3.59.69-5.34,1.14-1.36.35-2.67.81-4,1.22-.29.09-.58.2-.88.28-.55.15-.93.18-1.23.07-.29-.09-.48-.26-.67-.53-.08-.12-.18-.24-.24-.36-.2-.4.17-.91.92-1.38,2.31-1.04,4.82-1.78,7.39-2.33,1.9-.43,3.82-.79,5.74-1.18l.02.06Z"/><path class="cls-3" d="m444.79,286.31c.96,1.64,1.95,3.26,3.01,4.71.53.71,1.09,1.4,1.66,1.92.28.26.56.48.79.61l.17.1s.09.02.11.04c.04.05.1.03.15.06.12-.04.24-.04.37-.04.1-.03.18-.07.28-.08.24-.12.44-.36.63-.81.2-.43.27-1.08.36-1.71.19-2.37-.16-5.12-.74-7.75-.3-1.32-.64-2.65-1.05-3.96-.39-1.32-.8-2.64-1.27-3.94-.83-2.31-1.87-4.56-2.98-6.72-1.5-2.75-3.02-5.48-4.7-8.15-.51-.84-.36-.82.4-.36.77.45,2.15,1.38,3.38,2.81,1.11,1.26,2.05,2.63,2.93,4.04.88,1.41,1.71,2.85,2.46,4.33,1.48,2.97,2.82,6.05,3.58,9.35.48,1.96.98,3.96,1.32,6.06.32,2.09.56,4.29-.17,6.72-.32.89-.79,1.83-1.67,2.58-.91.73-2.03,1.03-3.03,1.04-.3-.02-.59-.05-.89-.1-.29-.09-.57-.17-.81-.28l-.66-.36-.56-.4c-.69-.56-1.27-1.15-1.76-1.77-1.01-1.22-1.83-2.49-2.62-3.76-1.43-2.36-2.71-4.76-4.04-7.11-1-1.78-1.99-3.57-3.04-5.29-1.06-1.71-2.17-3.41-3.51-4.75-.26-.26-.52-.49-.8-.69-.28-.2-.52-.35-.86-.51-.64-.33-1.3-.54-1.96-.68-1.32-.27-2.66-.11-4.15.17-.65.12-1.31.29-2,.39-2.6.39-3.51.18-4.11-.74-.14-.2-.31-.4-.39-.6-.26-.68.73-1.35,2.5-1.74,1.33-.3,2.65-.66,4.18-.9.76-.12,1.59-.2,2.46-.19.88,0,1.79.15,2.68.39.87.26,1.71.6,2.46,1.03.35.17.85.51,1.22.79.37.3.72.61,1.02.92,1.23,1.25,2.11,2.53,2.99,3.81,2.54,3.81,4.49,7.77,6.73,11.48l-.07.05Z"/><path class="cls-3" d="m419.83,208.77c1.34-.34,2.67-.7,3.99-1.13.48-.15.93-.39,1.41-.54,1.69-.55,3.4-1.12,5.05-1.8.73-.31,1.46-.64,2.16-1,.45-.23.89-.48,1.35-.7.46-.21.96-.35,1.47-.48.32-.07.42.21.36.65-.07.43-.28,1.09-.73,1.5-.86.61-1.75,1.16-2.67,1.67-.94.48-1.92.87-2.94,1.19-1.21.39-2.36,1.05-3.55,1.55-1.32.54-2.66,1.03-4.01,1.49l-2.5.82c-1.27.4-2.56.72-3.81,1.14-.97.33-1.88.81-2.82,1.2-.21.09-.41.2-.62.27-.82.17-1.13.04-1.49-.7-.08-.15-.17-.29-.22-.42-.17-.39-.01-1.16.51-1.49,1.55-1.06,3.32-1.54,5.08-2.12,1.31-.41,2.64-.78,3.98-1.16l.03.07Z"/><path class="cls-3" d="m434.45,230.5c1.04,1.42,2.1,2.82,3.21,4.05.55.61,1.13,1.19,1.65,1.55.13.1.25.14.3.19.04.02.08.05.13.06.03.02.14-.01.27,0,.13,0,.17-.05.27-.05.17-.08.23-.14.34-.45.11-.28.16-.77.18-1.28.04-1.89-.51-4.1-1.16-6.2-.68-2.11-1.48-4.22-2.37-6.29-.8-1.84-1.77-3.61-2.69-5.38-.62-1.12-1.22-2.26-1.81-3.4l-.89-1.72-.44-.86c-.14-.3-.25-.61-.36-.92-.21-.83-.27-.66.35-.27.67.36,1.84,1.11,2.85,2.26,3.68,4.03,6.07,8.95,7.77,14.18.48,1.58,1,3.17,1.42,4.86.2.85.39,1.71.48,2.63.09.91.14,1.88-.15,2.95-.07.29-.22.6-.33.9-.17.3-.35.61-.59.88-.27.26-.53.54-.86.7-.16.09-.32.18-.49.25l-.49.14c-.34.11-.64.11-.95.13-.33.04-.71-.04-1.06-.11-.34-.11-.71-.25-.95-.42-.28-.15-.47-.32-.69-.48-.83-.67-1.45-1.37-2.06-2.09-.6-.72-1.16-1.44-1.71-2.17-1.35-1.79-2.6-3.61-3.9-5.38-.99-1.33-1.97-2.67-3.04-3.9-.53-.62-1.08-1.21-1.67-1.72-.57-.51-1.23-.96-1.77-1.1-.2-.04-.37-.04-.54.02l-.92.3-1.87.55c-1.24.35-2.48.68-3.71.99-.54.15-1.07.29-1.61.43-1.01.24-1.66.39-2.15.36-.5-.07-.83-.23-1.13-.46-.14-.11-.31-.2-.41-.31-.17-.19-.07-.43.24-.76.31-.32.84-.76,1.6-.99,2.22-.77,4.51-1.32,6.75-1.9.55-.15,1.11-.29,1.64-.46l.83-.27.87-.16c.29,0,.6.03.89.06,1.08.23,1.72.69,2.33,1.11.61.43,1.09.89,1.58,1.35,2.74,2.76,4.74,5.75,6.92,8.58l-.05.05Z"/><path class="cls-3" d="m327.89,317.5c-8.66,1.57-17.36,2.9-26.08,4.03-3.18.41-6.36.88-9.55,1.21-5.63.59-11.27,1.04-16.93,1.28-5.66.22-11.35.33-17.06-.29-1.27-.15-2.54-.34-3.81-.64-1.27-.31-2.56-.68-3.8-1.5-.6-.42-1.23-1.02-1.52-1.9-.26-.81-.2-1.72.1-2.45.61-1.48,1.69-2.39,2.73-3.19,1.36-1.03,2.83-1.77,4.32-2.46,1.49-.68,3.01-1.26,4.54-1.77,3.07-1.02,6.22-1.84,9.45-2.09,1.02-.01,1.46.05,1.45.13-.02.09-.49.24-1.28.61-.82.38-1.92.88-3.2,1.47-1.32.58-2.88,1.17-4.56,1.79-2.97,1.08-5.93,2.37-8.41,4-.62.4-1.2.83-1.67,1.28-.47.45-.82.93-.93,1.28-.12.33-.06.59.06.75.15.24.67.58,1.27.84,1.24.52,2.77.82,4.3,1.04,1.54.22,3.13.34,4.72.43,3.19.16,6.43.16,9.69.1,7.79-.17,15.88-1.17,23.82-2.14,8.73-1.09,17.44-2.4,26.11-3.94,5.34-.95,10.66-1.98,15.95-3.14,4-.88,8-1.82,11.96-2.89,3.93-1.09,7.89-2.24,11.49-3.88.41-.19.55-.27.75-.38.19-.11.38-.22.56-.34.32-.25.75-.53.69-.98-.15-.42-.64-.58-1.02-.7-.2-.06-.4-.1-.6-.12-.24-.04-.3-.03-.74-.09-2.96-.25-6.06-.06-9.13.2-1.35.14-2.68.29-4.04.43-5.07.53-6.66.65-7.9.04-.28-.14-.65-.24-.84-.39-.66-.48,1.35-1.59,5.12-2.37,2.8-.59,5.65-1.06,8.58-1.31,1.47-.13,2.95-.23,4.46-.26.75-.02,1.52,0,2.29.02.39.02.78.04,1.18.08l.6.06.68.09c1.37.24,2.81.58,3.79,1.24.26.16.45.35.67.53.19.19.34.41.51.62.33.43.54.94.61,1.52.09,1.15-.34,2.04-1.23,2.94-.45.44-1.01.85-1.62,1.22-.3.19-.63.35-.95.53l-.49.25-.31.15c-2.91,1.35-5.78,2.26-8.68,3.14-8.6,2.53-17.32,4.34-26.05,6.01l-.03-.08Z"/><path class="cls-3" d="m300.01,351.4l4.69,10.23c.57,1.25,1.22,2.45,1.78,3.7,1.98,4.4,3.92,8.82,5.95,13.2.9,1.94,1.82,3.89,2.76,5.79.59,1.23,1.24,2.43,1.8,3.68.52,1.27,1.1,2.51,1.47,3.85.23.84.05.81-.58.32-.66-.47-1.75-1.39-2.62-2.71-1.49-2.37-2.78-4.84-4.11-7.29-1.31-2.47-2.42-5.04-3.55-7.62-1.32-3.1-3.03-6.15-4.55-9.24-1.67-3.39-3.27-6.82-4.9-10.23l-3.01-6.3c-1.54-3.17-3.04-6.38-4.65-9.48-1.25-2.42-2.69-4.68-4-7.02-.29-.52-.6-1.01-.87-1.54-.5-.99-.79-1.66-.86-2.19-.05-.55.08-.94.34-1.33.12-.18.22-.39.36-.53.23-.23.56-.2.97.04.41.24.94.69,1.38,1.37,2.82,3.96,5.08,8.49,7.35,13.03,1.68,3.38,3.28,6.82,4.92,10.23l-.07.04Z"/><path class="cls-3" d="m374.41,444.74c-1.64.55-3.53.84-5.34.63-1.8-.2-3.54-.81-5.05-1.8-1.09-.73-2.12-1.6-2.87-2.7-.69-.96-1.1-2.1-1.37-3.23-.22-1.16-.19-2.33.02-3.43.41-2.25,1.68-4.18,3.22-5.64,1.41-1.27,3.06-2.23,4.82-2.8,2.22-.78,4.87-.75,6.92.45.64.36.44.48-.2.51-.63-.02-1.72.1-2.85.2-4.05.26-7.84,3.04-9.14,6.62-.79,2.23-.03,4.76,1.62,6.41,1.82,1.87,4.7,2.78,7.36,2.3.83-.13,1.68-.41,2.47-.72.76-.37,1.52-.76,2.12-1.34,1.95-1.6,2.62-4.4,1.78-6.83l-.27-.7-.35-.66c-.24-.42-.52-.79-.85-1.13-.65-.68-1.45-1.19-2.29-1.55-.37-.16-.76-.25-1.14-.36-1.41-.37-1.83-.54-2.22-1.42-.09-.2-.21-.4-.28-.59-.11-.34,0-.65.38-.92.37-.27,1-.45,1.81-.43,2.39.11,4.8,1.3,6.48,3.32.41.5.8,1.08,1.08,1.65l.41.85.33.9c.39,1.22.58,2.55.49,3.89-.14,1.99-.95,4.02-2.31,5.49-1.33,1.5-3.05,2.48-4.75,3.08l-.03-.07Z"/><path class="cls-3" d="m287.97,456.01c-1.64.55-3.53.84-5.34.63-1.8-.2-3.54-.81-5.05-1.8-1.09-.73-2.12-1.6-2.87-2.7-.69-.96-1.1-2.1-1.37-3.23-.22-1.16-.19-2.33.02-3.43.41-2.25,1.68-4.18,3.22-5.64,1.41-1.27,3.06-2.23,4.82-2.8,2.22-.78,4.87-.75,6.92.45.64.36.44.48-.2.51-.63-.02-1.72.1-2.85.2-4.05.26-7.84,3.04-9.14,6.62-.79,2.23-.03,4.76,1.62,6.41,1.82,1.87,4.7,2.78,7.36,2.3.83-.13,1.68-.41,2.47-.72.76-.37,1.52-.76,2.12-1.34,1.95-1.6,2.62-4.4,1.78-6.83l-.27-.7-.35-.66c-.24-.42-.52-.79-.85-1.13-.65-.68-1.45-1.19-2.29-1.55-.37-.16-.76-.25-1.14-.36-1.41-.37-1.83-.54-2.22-1.42-.09-.2-.21-.4-.28-.59-.11-.34,0-.65.38-.92.37-.27,1-.45,1.81-.43,2.39.11,4.8,1.3,6.48,3.32.41.5.8,1.08,1.08,1.65l.41.85.33.9c.39,1.22.58,2.55.49,3.89-.14,1.99-.95,4.02-2.31,5.49-1.33,1.5-3.05,2.48-4.75,3.08l-.03-.07Z"/><path class="cls-3" d="m113.92,109.38c-.13.63-.3,1.26-.38,1.9l-.15.95-.03.32c-.03.07-.02.15.06.17.03.02.06.03.1.04l.06.02.36.07c1.02.17,2.15.27,3.28.36,2.27.16,4.6.24,6.93.33,4.66.18,9.36.35,14.07.74,3.95.32,7.93.7,11.87,1.62,1.74.41,3.47.91,5.18,1.58,1.7.68,3.41,1.52,4.94,2.8.76.64,1.47,1.41,2.02,2.31.46.83.93,1.62,1.28,2.5.74,1.72,1.22,3.6,1.31,5.49.11,1.89-.17,3.76-.48,5.46-.15.85-.31,1.68-.34,2.38-.01.09-.01.18,0,.26v.11c0,.08.02.17.03.26.03.18.23.27.36.37.16.08.51.26.76.28.28.06.55.06.82.02.54-.09,1.09-.4,1.62-.84,1.03-.96,1.88-2.36,2.52-3.86.59-1.29,1.13-2.88,2.02-4.31.88-1.43,2.14-2.81,3.8-3.58,1.66-.78,3.52-.91,5.17-.65.43.08.81.09,1.29.27l.68.22c.22.09.42.22.63.34.85.45,1.49,1.15,2.05,1.85,1.32,1.9,1.84,4.08,1.87,6.22.04,2.14-.42,4.32-1.63,6.25-.34.47-.68.94-1.06,1.29-.36.39-.77.73-1.18,1.08-.84.66-1.77,1.24-2.78,1.64-2.03.81-4.31.79-6.28.15-1.22-.46-1.64-.86-1.56-.95.09-.12.71.03,1.74.02,1.02-.02,2.46-.15,3.88-.81,1.42-.65,2.8-1.68,4.01-3.2.31-.34.46-.63.67-.92.15-.34.35-.65.46-1.04.28-.72.41-1.55.47-2.36.07-.82-.02-1.66-.14-2.46-.18-.78-.4-1.56-.76-2.19-.36-.62-.78-1.14-1.24-1.45-.49-.28-.86-.39-1.78-.49-.4-.07-.76-.02-1.14-.04-.34.06-.72.02-1.03.13-.66.12-1.24.4-1.77.82-1.09.83-1.94,2.27-2.66,4.01-.79,1.85-1.68,3.96-3.37,5.78-.8.91-1.99,1.79-3.47,2.16-.36.11-.76.12-1.14.16-.38,0-.78-.02-1.15-.09-.37-.08-.74-.17-1.07-.31-.34-.13-.64-.28-1.06-.55-.77-.48-1.44-1.14-1.55-2.05-.05-.22-.1-.42-.12-.66l-.02-.68c0-.33.05-.61.07-.92.15-1.15.4-2.12.58-3.07.23-1.13.35-2.22.35-3.31-.02-1.08-.18-2.16-.46-3.21-.32-1.04-.73-2.08-1.3-3.06l-.42-.74c-.15-.23-.26-.41-.43-.6-.3-.39-.68-.73-1.08-1.07-1.66-1.32-3.87-2.19-6.12-2.84-2.27-.65-4.64-1.09-7.02-1.44-5.25-.77-10.61-1.1-15.99-1.34l-8.1-.32c-1.36-.06-2.72-.12-4.09-.22-.69-.05-1.38-.11-2.07-.19l-1.05-.14-.54-.09-.28-.05c-.12-.02-.25-.05-.38-.08-.71-.16-1.39-.4-1.91-.82-.26-.2-.49-.49-.58-.81-.06-.32-.07-.66-.1-.99l.14-1.51.18-1.11c.1-.74.31-1.46.47-2.19.39-1.44.84-2.85,1.41-4.22,1.12-2.74,2.57-5.32,4.25-7.72,2.98-4.23,6.69-7.91,10.86-10.93,4.17-3.01,8.84-5.37,13.8-6.74,7.69-2.18,16.16-1.59,23.32,2.32,1.54.92,3.04,1.88,4.36,3.15,2.47,2.34,3.58,4.38,4.16,5.84.58,1.48.54,2.47.33,3.26-.12.37-.22.81-.37,1.02-.58.69-1.28-1.7-3.87-5.08-1.94-2.5-4.53-4.49-7.45-5.87-2.9-1.42-6.21-2.15-9.5-2.47-6.58-.54-13.4,1.45-19.32,4.94-4.41,2.6-8.4,6-11.68,9.96-3.25,3.96-5.88,8.52-7.05,13.4h-.08Z"/><path class="cls-3" d="m180.51,195.12c3.05.47,6.04,1.08,9.03,2.07.55.19,1.1.36,1.65.6l.42.17c.18.09.43.27.63.42.29.26.46.45.69.68,2.58,2.98,4.94,5.92,7.77,8.48,1.21,1.17,2.57,2.18,3.94,3.09,1.84,1.05,3.6,2.17,5.64,2.87.62.39.56.25-.05.4-.31.08-.74.14-1.31.23-.27.01-.56,0-.88,0-.16,0-.32-.02-.49-.02-.16-.03-.33-.06-.5-.09-.58-.16-1.15-.34-1.73-.52-.57-.19-1.06-.54-1.59-.8-1.02-.6-2-1.24-2.91-1.96-1.87-1.39-3.45-3.09-4.95-4.81-.88-1.05-1.83-2.07-2.76-3.1l-1.4-1.52c-.23-.24-.47-.51-.68-.72l-.32-.32s-.04-.02-.05-.04c0-.03-.04.04.02-.08.09-.19.18-.39.25-.59v-.02c-.12.29.31-.68-.29.65h0s0,0,0,0h-.01s-.03-.02-.03-.02c-2.56-1.12-5.55-1.76-8.47-2.28-.9-.16-1.81-.29-2.72-.4-.45-.06-.91-.11-1.35-.14-.23-.02-.44-.03-.65-.04-.06.01-.12.01-.19.02l-.3.06c-1.26.32-2.6.82-3.87,1.34-1.28.53-2.54,1.12-3.69,1.81-.23.13-.43.28-.64.43-.12.08-.18.13-.23.18l-.16.15c-.19.2-.38.45-.27.71.11.26.4.37.62.44.12.02.68.17,1.14.22.42.06.84.05,1.26.07,1.59,0,1.98-.06,2.53.45.12.1.28.18.38.28.17.16.13.39-.15.72-.29.33-.85.59-1.58.74-1.08.2-2.17.25-3.31.08-.3-.07-.54-.08-.9-.2-.51-.13-.87-.35-1.28-.57-.77-.47-1.32-1.17-1.42-2.04-.05-.86.3-1.67.97-2.35l.55-.48.28-.24c.1-.08.13-.09.2-.14.23-.16.47-.34.71-.48.94-.6,1.89-1.08,2.85-1.54,1.43-.68,2.87-1.25,4.42-1.74.4-.12.78-.24,1.27-.34.15-.05.72-.11.93-.1.22,0,.45.02.65.03.82.06,1.59.15,2.36.26v.06Z"/><path class="cls-3" d="m172.07,202.97c1.19-.83,2.42-1.5,3.72-2.09.48-.21.95-.46,1.48-.62.24-.07.49-.12.74-.18.3-.02.52-.09.87-.06.16.01.36.03.49.06l.27.07c.18.05.38.08.58.11.8.12,1.66.17,2.53.23.77.04,1.56.09,2.33.22.5.07,1,.17,1.49.33l.36.14c.11.07.22.14.33.22.22.15.42.32.6.49.23.22.19.2-.09.19-.14,0-.34,0-.59.05-.14.03-.27.06-.38.08-.07.02-.13.02-.21.06-.06,0-.13-.01-.19-.02-.89-.13-1.81-.08-2.75-.03-.94-.02-1.92,0-2.96-.1-.32-.03-.64-.06-.96-.08-.3-.02-.79-.1-.82-.06-.33.03-.88.22-1.38.43-1.13.48-2.27,1.13-3.32,1.85-.32.23-.64.46-.94.7-.15.12-.31.25-.44.37-.08.06-.16.13-.24.21-.21.22-.55.5-.51.87.17.32.59.34.93.38.16,0,.23,0,.45,0,.23,0,.46-.02.7-.04l1.43-.11c.22-.01.43-.04.66-.04.81.01,1.3.3,1.28.96-.01.14-.05.3-.15.38-.16.16-.05-.07-.35.45-.07.18-.21.25-.46.3-.74.14-1.63.3-2.54.36-.23.02-.47.03-.71.03-.07,0-.37,0-.58-.01-.23,0-.45-.03-.67-.06-.9-.09-1.68-.4-2.15-.88-.34-.35-.62-.92-.58-1.44,0-.26.09-.52.14-.78.1-.26.22-.53.35-.79.41-.5.8-1.01,1.32-1.45.34-.31.6-.49.9-.73l.04.04Z"/><path class="cls-3" d="m173.1,209.41c.4-.52.89-1.05,1.4-1.49l.37-.33.25-.18c.16-.12.32-.25.49-.36.66-.47,1.34-.88,2.04-1.27.52-.28,1.01-.6,1.58-.82.5-.19,1.02-.38,1.69-.44.4-.03.62,0,.86.02l.73.07c.98.09,1.96.19,2.94.33.87.11,1.75.25,2.61.47.55.14,1.11.31,1.64.58l.39.22.33.33c.2.24.39.48.5.77.13.35.09.29-.17.13-.12-.09-.33-.16-.59-.19-.24-.06-.57.03-.81-.08-.91-.3-1.98-.36-3.03-.41-1.07-.1-2.15-.19-3.24-.29-.33-.03-.67-.05-1-.05h-.51c-.08,0-.19,0-.24.01l-.14.03c-.44.08-1.05.37-1.6.66-.62.31-1.24.69-1.84,1.1-.3.2-.59.42-.88.63l-.69.55c-.27.23-.56.47-.77.82-.06.09-.09.21-.09.31.06.19.27.21.44.24.18.02.36.03.55.02.21,0,.36-.01.62-.04l1.05-.11c1.09-.13,2.15-.41,3.32-.48.26-.02.52-.04.79-.02,1.02.08,1.45.47,1.36,1.07-.02.14-.03.28-.08.4-.08.2-.26.34-.42.44-.17.1-.35.17-.6.19-.76.07-1.68.26-2.61.43l-1.45.26-.76.12-.39.06-.74.09c-1.12.11-2.22.06-2.88-.29-.32-.19-.6-.37-.8-.71-.24-.35-.3-.76-.32-1.09.05-.28.13-.56.2-.83.05-.27.3-.57.44-.86h.07Z"/><path class="cls-3" d="m194.63,223.96c-1.12-1.26-1.98-2.84-2.73-3.89-.39-.52-.75-.85-1.27-1.09-.49-.25-1.16-.42-1.87-.53-1.03-.17-2.11-.16-3.21-.2-1.95-.08-3.92.02-6.07-.19-.27-.03-.55-.07-.84-.13-.24-.04-.71-.18-1.05-.33-.35-.17-.68-.41-.89-.73-.22-.32-.25-.73-.34-1.11-.26-1.36.4-2.73,1.3-3.51.79-.71,1.67-1.18,2.55-1.53.44-.18.88-.33,1.33-.47l.66-.19c.24-.05.53-.13.78-.15,1.32-.12,2.51.06,3.64.34.56.16,1.11.34,1.65.54.54.19,1.03.49,1.53.75.59.43.55.39-.13.64-.34.13-.82.24-1.39.38-.56.1-1.17.1-1.79.03-.55-.05-1.09-.14-1.59-.22-.51-.07-1.01-.11-1.43-.08-.2.02-.39.04-.54.08-.21.05-.51.14-.74.21-.5.15-.98.33-1.42.53-.89.39-1.6.93-1.86,1.43-.02.07-.06.13-.1.19-.02.07-.04.14-.07.2-.04.06-.02.15-.04.23l-.03.17c-.04.11.01.25.14.32.03.02.01.01.06.03.06.02.13.03.19.05.13.03.28.06.43.08.3.05.63.07.97.09.67.03,1.37.02,2.08,0,1.42-.03,2.87-.1,4.34-.03,1.62.12,3.26.19,5.01,1.05.86.45,1.56,1.17,2.05,1.85.51.68.91,1.33,1.35,1.94,1.06,1.5,2.36,2.78,3.84,3.89.55.44,1.16.8,1.73,1.22l.86.49.92.39c1.27.45,2.66.63,4.09.75,2.2.19,4.58.14,6.91,1.12l.76.32c.24.13.48.27.71.42,1.71,1.18,1.93,1.91,1.65,2.67-.06.17-.11.37-.2.5-.15.23-.44.28-.81.2-.39-.06-.77-.36-1.29-.65-.71-.51-1.51-.82-2.3-1.12-.83-.25-1.69-.43-2.62-.54-1.87-.23-4-.22-6.34-.73-.43-.08-.87-.24-1.3-.36-.43-.15-.86-.34-1.29-.51-.41-.22-.84-.45-1.23-.68l-1.03-.71c-1.35-.98-2.65-2.1-3.78-3.4l.04-.05Z"/><path class="cls-3" d="m217.88,225.85c.18,2.6.29,5.21.26,7.85-.02.96.03,1.93-.07,2.91-.2,1.72-.35,3.48-1.37,5.28-.28.44-.64.9-1.18,1.24-.14.08-.28.16-.42.23-.15.06-.31.09-.46.13-.31.09-.64.1-.95.05-1.24-.21-1.97-.95-2.58-1.6-1.08-1.2-1.82-2.53-2.52-3.85-.44-.85-.84-1.72-1.18-2.62-.34-.89-.62-1.82-.7-2.8-.04-.62.15-.55.52-.14.24.26.5.54.75.81.28.34.55.75.78,1.21.83,1.65,1.79,3.25,2.87,4.64.53.69,1.08,1.36,1.63,1.76.27.2.51.31.64.33.12.04.22-.01.39-.08.44-.31.85-1.38,1.02-2.43.19-1.07.24-2.22.29-3.36.1-2.51,0-5.08-.18-7.64-.11-1.58-.25-3.16-.43-4.74-.27-2.39-.55-4.79-.98-7.15-.33-1.83-.83-3.6-1.27-5.38-.1-.39-.22-.78-.3-1.18-.33-1.48-.2-1.99.45-2.44.15-.1.29-.23.44-.3.5-.24,1.1.28,1.46,1.35,1.05,3.16,1.7,6.59,2.22,10.07.38,2.58.67,5.19.91,7.81h-.06Z"/><path class="cls-3" d="m40.61,162.29l-12.16-4.58c-1.48-.54-2.98-1.04-4.44-1.59-1.35-.51-2.71-1.02-4.06-1.47l-1.17-.37c-.12-.03-.26-.07-.39-.08-.06,0-.15-.01-.19.05l-.05.18c-.04.23,0,.48.11.71.05.11.13.24.19.33.17.22.35.44.56.65.82.86,1.85,1.61,2.92,2.29,2,1.3,4.24,2.3,6.49,3.16,2.92,1.05,5.88,1.98,8.8,3.17.88.54.76.5-.15.75-.46.14-1.09.22-1.85.29-.77.07-1.65.07-2.56-.12-.81-.17-1.63-.3-2.42-.55-.79-.25-1.57-.51-2.35-.79-1.55-.57-3.09-1.2-4.6-1.94-1.5-.75-3-1.57-4.38-2.67-.69-.55-1.37-1.14-1.99-1.85l-.46-.56-.27-.38c-.12-.16-.21-.31-.3-.46-.15-.31-.32-.62-.45-.94-.08-.31-.21-.63-.24-.94-.11-.65-.06-1.28.08-1.89.12-.26.22-.54.4-.77.22-.21.45-.3.71-.38.51-.15,1.18-.13,1.9.02.35.06.72.15,1.07.25l.86.24,1.3.37c1.73.5,3.43,1.03,5.11,1.6,4.13,1.44,8.2,3.03,12.29,4.54,2.51.94,5.03,1.87,7.55,2.77,3.83,1.37,7.66,2.7,11.53,3.83,3.01.88,6,1.56,9.02,2.3.67.16,1.32.31,1.99.49,2.47.72,3.23,1.12,3.49,2.05.07.19.17.38.2.52.1.42-1.1.76-2.88.3-5.37-1.17-11.11-2.47-16.78-4.16-4.21-1.32-8.32-2.82-12.45-4.29l.02-.07Z"/><path class="cls-3" d="m27.94,171.67c-.32.14-.51.31-.53.36-.01.05-.04.03,0,.36.05.23.15.42.29.67.16.23.42.47.73.7.47.32,1.09.51,1.7.73,2.21.8,4.79,1.02,7.32,1.15,1.13.04,2.27-.07,3.38-.2,1.44-.16,2.8-.54,4.33-.48.49.03.42-.02.13.31-.28.35-.82,1.15-1.65,1.53-1.49.54-3.02.96-4.59,1.11-1.56.16-3.14.26-4.72-.01-1.88-.3-3.87-.4-5.83-1.16-1.05-.43-2.17-1.04-2.99-2.17-.42-.55-.63-1.3-.67-1.98-.08-.65.15-1.61.69-2.16.65-.7,1.41-.94,2.08-1.15.68-.2,1.34-.31,1.99-.39,1.97-.23,3.9-.17,5.79-.25,1.47-.05,2.9-.25,4.28-.48.29-.06.59-.12.88-.19,1.08-.16,1.34-.09,1.81.5.11.13.23.24.32.36.33.36-.03,1.14-1,1.5-1.39.54-2.79.65-4.16.75-1.38.08-2.74.08-4.09.09-1,0-1.98.02-2.93.08-.93.07-1.89.17-2.52.46l-.03-.05Z"/><path class="cls-3" d="m70.24,187.87c-.98,2.75-2.1,5.47-3.51,8.09-.52.96-.99,1.95-1.64,2.86-1.13,1.59-2.5,3.2-4.57,4.18-.27.11-.52.22-.82.31l-1.08.19c-.71.08-1.44-.15-1.96-.63-.53-.46-.88-1.14-1.08-1.78-.17-.54-.25-1.05-.31-1.56-.18-1.78-.09-3.46.04-5.11.09-1.06.2-2.13.45-3.17.24-1.04.52-2.09,1.18-3.01.59-.51.57-.4.91.28.19.34.35.78.55,1.29.15.5.22,1.04.17,1.61-.13,2.01-.4,4.01-.37,5.94.02.95.03,1.9.18,2.62.06.23.02.19.03.25,0,.04,0,.1.03.15.04.1.15.18.27.19.04,0,.08.01.13.01l.32-.11c.22-.05.43-.19.65-.31.43-.26.85-.62,1.24-1.03.78-.83,1.46-1.86,2.1-2.91,1.39-2.33,2.51-4.92,3.46-7.56.59-1.63,1.13-3.29,1.6-4.96.7-2.54,1.38-5.12,1.79-7.71.32-2.02.38-4.03.55-6.02.03-.44.02-.87.07-1.31.1-.81.2-1.34.38-1.71.22-.37.46-.58.77-.76.14-.08.27-.19.38-.24.2-.08.37.05.61.36.25.32.49.82.57,1.46.15.95.21,1.91.23,2.88.01.96.04,1.94-.06,2.91-.18,1.94-.49,3.88-.88,5.81-.56,2.87-1.4,5.7-2.31,8.5l-.08-.02Z"/><path class="cls-3" d="m310.92,304.94l19.48-2.45c6.5-.8,12.97-1.64,19.45-2.55,4.72-.66,9.43-1.45,14.14-2.17,8.31-1.26,16.6-2.61,24.86-4.12,4.13-.76,8.25-1.56,12.35-2.44,4.09-.89,8.19-1.81,12.14-3.04.87-.28,1.73-.57,2.54-.91.39-.16.83-.37,1.1-.53.2-.13.42-.24.47-.47l.03-5.2c.02-3.74-.02-7.45-.12-11.14-.15-4.73-.49-9.45-1.29-14.08-.76-4.65-2.03-9.17-3.41-13.69-.29-1.47-.41-2.12-.35-2.1.07.02.38.67,1.14,1.72.44.5.79,1.19,1.23,1.97.43.78.93,1.67,1.38,2.67.48,1,.9,2.12,1.3,3.33.43,1.2.74,2.52,1.08,3.88,1.04,4.87,1.6,9.82,1.86,14.73.29,4.92.23,9.81.22,14.68v1.82s-.01.91-.01.91v.8c-.05.28-.05.57-.16.84-.17.55-.56.99-1,1.36-.43.38-1.01.68-1.27.81-.65.33-1.26.58-1.87.81-2.43.9-4.81,1.54-7.21,2.16-4.79,1.21-9.61,2.17-14.45,3.07-11.57,2.11-23.59,4.34-35.46,6.15-6.53.99-13.06,1.93-19.61,2.8l-19.62,2.56c-8.05,1.06-16.13,2.09-24.25,2.77-6.15.51-12.36.8-18.58.47-3.11-.15-6.22-.51-9.29-1.14-3.06-.64-6.1-1.58-8.92-3.07-2.18-1.16-4.21-2.66-5.87-4.52-1.67-1.86-2.88-4.1-3.71-6.42-1.66-4.69-1.8-9.63-1.24-14.45.25-2.12.68-4.18,1.28-6.25,1.14-3.83,2.35-6.2,3.35-7.74,1.04-1.53,1.86-2.26,2.64-2.76.34-.23.73-.58.95-.69.38-.19.22.43-.23,1.76-.4,1.36-1.27,3.32-2.24,5.87-1.41,3.79-2.36,7.8-2.64,11.87-.29,4.05.08,8.23,1.45,11.88.73,1.8,1.71,3.46,2.98,4.9,1.3,1.41,2.87,2.58,4.61,3.54,3.51,1.9,7.65,2.88,11.86,3.42,6.29.76,12.81.63,19.32.23,6.52-.4,13.06-1.14,19.59-1.95l.03.08Z"/><path class="cls-3" d="m377.87,216.19c4.99-2.03,10.05-3.92,15.17-5.61,1.88-.59,3.72-1.31,5.62-1.83l2.51-.71,2.53-.64c.84-.2,1.68-.44,2.53-.62l3.05-.67,2.02-.44.25-.05s.04-.01.06,0v.07s.03.13.03.13l.09.52.17,1.03c.11.67.23,1.39.31,2.01.06.43.12.87.16,1.3.19,1.73.32,3.47.42,5.21.18,3.08.31,6.18.27,9.25-.02,1.97-.13,3.95-.38,5.92-.11.98-.28,1.97-.5,2.94-.28.96-.52,1.92-.91,2.85-.53,1.14-.63.92-.8-.18-.09-.55-.15-1.3-.26-2.19-.04-.44-.09-.92-.11-1.43-.01-.5.02-1.02.05-1.57.13-1.92.13-3.86.12-5.8,0-1.94-.06-3.88-.16-5.83-.11-1.95-.25-3.9-.44-5.85l-.31-2.92-.08-.73-.04-.37-.02-.18v-.04c.01-.11.02-.23.02-.38.06-.26-.13-.18-.28-.17l-.25.03h-.07s-.22.06-.22.06l-.44.1c-1.18.24-2.35.55-3.53.88-2.36.61-4.69,1.37-7.01,2.06-5.11,1.58-10.15,3.39-15.14,5.36-3.07,1.2-6.12,2.48-9.14,3.82-4.57,2.03-9.16,4.13-13.58,6.4-3.45,1.76-6.72,3.68-10.06,5.57-.73.42-1.45.83-2.2,1.23-2.79,1.46-3.77,1.75-4.73,1.38-.22-.08-.47-.13-.63-.23-.51-.33.36-1.42,2.32-2.67,5.76-3.77,12.19-7.12,18.72-10.34,4.86-2.38,9.82-4.62,14.84-6.73l.04.07Z"/><path class="cls-3" d="m301.27,376.88c1.4-1.42,3.02-2.71,4.88-3.7,1.83-1.01,4.03-1.63,6.01-1.8,4.08-.5,8.11.4,11.72,1.81,2.64,1.05,5.17,2.31,7.47,3.88,4.09,2.72,7.66,6.01,10.99,9.46,3.33,3.46,6.37,7.15,9.26,10.93,2.56,3.36,5.09,6.77,7.41,10.25,1.49,2.24,3,4.47,4.35,6.81,1.33,2.34,2.54,4.76,3.56,7.27.48,1.65.32,1.46-.76.44-.56-.5-1.26-1.25-2.1-2.15-.85-.9-1.79-1.97-2.67-3.22-.81-1.09-1.57-2.2-2.31-3.33l-2.31-3.33c-1.57-2.19-3.15-4.38-4.73-6.57-3.17-4.36-6.5-8.62-10.07-12.68-4.27-4.86-9.46-9.26-15.07-12.47-3.08-1.74-6.38-3.11-9.8-3.58l-1.28-.12-.64-.06-.64.02-1.28.03c-.43.02-.84.11-1.27.16-1.71.19-3.22.73-4.68,1.63-3.59,2.18-6.35,5.82-8.66,9.58-3.45,5.81-6.02,12.24-8.03,18.73-1.54,5.06-2.61,10.14-3.59,15.28-.21,1.13-.41,2.24-.61,3.38-.81,4.22-1.23,5.53-2.22,6.31-.23.18-.46.42-.67.52-.7.32-1-1.53-.65-4.72.51-4.73,1.37-9.54,2.52-14.37,1.14-4.83,2.58-9.67,4.34-14.45,1.32-3.54,2.84-7.04,4.65-10.43,1.84-3.38,3.96-6.69,6.82-9.58l.07.06Z"/><path class="cls-3" d="m129.64,129.32c-.13-.85-.24-1.76.11-2.33l.2-.43c-.03-.24.2-.24.32-.34l.48-.21.54-.18c.54-.13,1.17-.29,1.69-.33.61-.02,1.23-.02,1.84-.02.62.03,1.23.06,1.84.1.54,0,1.08-.01,1.62-.02.68-.09,1.39.12,2.08.38.21.09.18.23.01.46-.17.22-.48.66-.84.91l-.48.3c-.16.1-.32.12-.48.19-.32.11-.65.21-.97.3-.66.09-1.33.15-2.02.11-.41,0-.83,0-1.24.07l-.62.11-.3.05s-.07,0-.1,0c-.16,0-.35-.01-.57,0-.15-.03-.12.11-.14.18-.02.09-.02.18-.03.28,0,.12,0,.25,0,.4,0,.11.07.42.14.61.09.32.27.57.28.6,0,0,0-.01,0,0v.03s-.1.75-.1.75c0,.02,0-.02-.02-.02-.07-.08-.3-.16-.63-.21-.11-.01-.04,0-.06-.01h0s0-.04,0-.05c.01-.13,0-.34-.02-.53-.07-.62-.39-1.24-.6-1.88-.05-.14-.12-.28-.16-.43-.12-.55.03-.79.81-.97.17-.04.34-.09.5-.11.53-.07,1.11.07,1.3.42.31.52.53,1.1.68,1.72.07.31.13.64.2.99.03.18.05.37.06.6,0,.11.01.24,0,.41-.03.2.03.3-.21.91-.07.15-.18.34-.3.48-.16.2-.52.49-.85.6-.19.07-.4.11-.61.12-.1,0-.21,0-.31,0h-.06s-.14-.04-.14-.04c-.19-.04-.38-.09-.56-.16-.32-.14-.63-.34-.84-.53-.42-.39-.66-.77-.83-1.1-.18-.34-.29-.65-.38-.94l-.07-.22-.08-.31c-.06-.21-.11-.42-.15-.65h.07Z"/><path class="cls-3" d="m467.43,214.2l6.63-1.11c.81-.14,1.59-.36,2.4-.5,2.86-.42,5.72-.84,8.58-1.26,1.27-.18,2.52-.49,3.78-.68,1.61-.28,3.23-.56,4.89-.57.52,0,.49.33.12.76-.37.42-1.07.98-1.97,1.26l-2.39.7c-.4.11-.8.24-1.2.34l-1.22.25c-1.63.32-3.26.61-4.93.83-1.99.25-3.99.88-6,1.28l-6.65,1.29-4.1.79c-2.07.41-4.15.8-6.19,1.23-1.59.34-3.12.85-4.7,1.21-.35.07-.69.16-1.04.21-1.33.17-1.78.03-2.16-.56-.09-.13-.19-.26-.25-.4-.19-.45.28-.95,1.18-1.33.68-.28,1.36-.55,2.04-.83.7-.22,1.4-.44,2.12-.64,1.43-.38,2.88-.81,4.37-1.08,2.21-.42,4.43-.83,6.65-1.25l.02.07Z"/><path class="cls-3" d="m474.58,223.94c1.37-.21,2.75-.44,4.13-.7.5-.09.99-.26,1.49-.35,1.78-.32,3.57-.63,5.37-.88.8-.12,1.59-.28,2.38-.44,1.01-.2,2.03-.43,3.08-.38.33.01.32.32.1.68-.22.36-.65.79-1.2.95-1.97.55-3.92,1.21-6,1.51-1.25.15-2.49.58-3.74.88-1.38.32-2.77.61-4.17.89l-2.58.49c-1.31.25-2.63.43-3.94.68-1.02.18-2,.5-3.04.69-.23.04-.45.12-.68.14-.87.07-1.16-.11-1.32-.83-.04-.16-.09-.33-.11-.5-.06-.56.28-1.03.84-1.19,1.67-.49,3.44-.74,5.27-1.03,1.35-.23,2.73-.42,4.11-.68l.02.06Z"/><path class="cls-3" d="m482.32,265.79c1.75-.25,3.5-.52,5.25-.8.64-.11,1.26-.28,1.9-.37,2.26-.35,4.53-.63,6.81-.89,1.01-.13,2.01-.28,3.01-.45,1.28-.21,2.56-.45,3.87-.4.41.01.39.38.1.79-.29.41-.86.89-1.58,1.02-2.55.51-5.08,1.05-7.7,1.37-1.57.18-3.15.63-4.73.95l-5.24,1.03-3.24.61c-1.64.32-3.29.58-4.91.92-1.26.25-2.48.65-3.73.95-.27.07-.54.16-.82.21-1.04.18-1.4.03-1.71-.67-.07-.16-.15-.32-.2-.48-.16-.56.21-1.08.93-1.34,2.15-.76,4.43-1.24,6.76-1.64,1.74-.29,3.49-.58,5.24-.86l.02.06Z"/><path class="cls-3" d="m102.82,79.17c.25.15.2.47-.03.85-.07.12-.4.33-.49.31-.17-.04-.35-.08-.49-.13-.05,0-.3-.25-.63-.45-.34-.2-.67-.43-.89-.49-.38-.15-.71-.35-1.06-.51-.33-.19-.72-.3-1.08-.44-.39-.09-.75-.22-1.14-.29-.17-.04-.33-.11-.49-.2-.56-.3-1.19-.41-1.85-.4-.11,0-.22-.02-.33.07-.18.13-1.96.12-2.2.05-.58-.2-1.18-.31-1.79-.47-.09-.02-.18.02-.26-.11-.18-.31-.37-.25-.56-.28-.26-.04-.53-.11-.8-.22-.13-.06-.26-.24-.38-.38-.11-.13-.04-.58,0-.63.12-.14.03-.36.03-.54,0-.06,0-.15,0-.2.02-.09,1.52-.96,1.69-.92.04,0,2.28-.12,2.57-.14.14-.02.27.06.41.12.05,0,1.96.01,2.04.05.39.09.81.09,1.16.4.07.06.15.07.23.09.69.13,1.34.43,1.98.74.34.16.66.31.99.47.06.03.1.1.15.14.06.06.12.13.19.17.38.2.73.46,1.06.74.35.26.65.56.99.83.18.11.62.98.79,1.12.1.08.09.6.2.66Z"/><path class="cls-3" d="m107.62,77.08c.16.18-.05.4-.45.65-.13.08-.55.17-.62.12-.14-.09-.29-.19-.4-.29-.07-.06-.58-1.21-.76-1.61-.18-.38-.28-.78-.36-1.18-.17-.81-.29-1.63-.38-2.43-.02-.18-.02-.36.02-.54.11-.62.07-1.22-.04-1.81-.02-.1-.01-.2-.11-.29-.16-.15-.36-1.72-.33-1.92.12-.52.11-1.03.22-1.55.01-.07-.04-.14.07-.23.24-.2.17-.34.17-.5,0-.22,0-.44.04-.68.02-.12.14-.25.24-.38.08-.12.46-.15.51-.13.14.07.29-.05.45-.09.05-.01.12-.03.16-.04.09-.02,1.06,1.16,1.08,1.32,0,0,.04.13.11.32.06.19.14.44.19.7.11.51.23,1.04.26,1.17.03.11-.02.24-.05.36,0,.06.29,1.6.28,1.66-.01.32.09.63-.12.96-.04.06-.03.13-.02.19.06.54,0,1.08-.03,1.61-.01.27.03.54.05.81,0,.05-.03.1-.04.15-.01.06-.04.13-.03.19.05.63-.02,1.28.12,1.89.02.14-.11.87-.06,1.03.02.09-.23.45-.16.53Z"/><path class="cls-3" d="m86.76,89.93c-.2.08-.37-.11-.47-.45-.03-.11,0-.43.06-.47.1-.09.2-.17.3-.23.06-.01.95-.25,1.25-.4.28-.11.58-.23.87-.3.61-.19,1.21-.42,1.83-.66.14-.05.28-.09.43-.1.52-.05,1-.23,1.48-.45.08-.04.17-.05.23-.15.08-.17,1.49-.64,1.7-.6.51.03,1.01.02,1.52.07.07,0,.14-.03.22.05.17.2.32.15.47.16.21,0,.43.04.64.12.1.04.2.16.29.26.08.09,0,.39-.03.43-.1.09-.04.24-.04.37,0,.04,0,.1-.01.13,0,.04-.28.18-.52.31-.26.15-.51.3-.56.3,0,0-.37.08-.74.19-.37.12-.76.26-.84.3-.08.04-.18.02-.27.01-.04,0-1.2.44-1.26.46-.26.04-.5.18-.8.09-.06-.02-.11,0-.16.02-.44.15-.91.21-1.38.29-.24.04-.47.12-.71.18-.04.01-.09,0-.14,0-.06,0-.12,0-.17,0-.57.14-1.16.18-1.75.31-.14.04-.82-.08-.98-.06-.09.01-.39-.21-.47-.18Z"/></svg>