<?xml version="1.0" encoding="UTF-8"?><svg id="Layer_1" xmlns="http://www.w3.org/2000/svg" width="520" height="520" viewBox="0 0 520 520"><defs><style>.cls-1{opacity:.45;}.cls-1,.cls-2,.cls-3{fill:#231f20;stroke-width:0px;}.cls-4{opacity:.25;}.cls-2{opacity:.15;}</style></defs><path class="cls-3" d="M223.17,468.36s5.03.37,5.74,1.67c.71,1.3-13.98,1.48-13.98,1.48l5.22-1.83,3.02-1.33Z"/><path class="cls-3" d="M130.81,468.36s-6.09,1.4-5.25,2.61,16.94,1.2,16.94,1.2l-6.7-2.14-5-1.67Z"/><path class="cls-3" d="M192.41,257.81c-.01.06-.31.34-.59.61-.28.27-.55.55-.55.55,0,.02-.11-.01-.28-.08-.26-.11-.57-.26-.76-.38-.13-.08-.23-.16-.24-.19-.03-.11-.05-.2-.03-.29.02-.11.06-.2.1-.3.03-.08.13-.13.08-.25-.07-.18.11-.24.04-.42-.08-.18.01-.28,0-.42-.02-.19.03-.35.05-.53,0-.06-.05-.14-.03-.19.02-.07.11-.1.13-.17.03-.08,0-.19.03-.28.03-.13.08-.25.11-.39,0-.04-.04-.1-.02-.14.02-.04.1-.06.13-.1.04-.06.05-.14.07-.22,0,0-.03-.03-.05-.05-.14-.15-.12-.22-.08-.29.06-.11.1-.24.14-.37.02-.1,1.14-1.52,1.14-1.57,0,0,0-.01,0-.02,0-.03.13,0-.1-.14-.08-.05-.02-.04,0-.04.02,0,.1.02-.06-.07-.07-.04-.03-.04,0-.02.24.07.47.14.24-.04-.07-.05.04-.02.02-.04-.08-.11.12-.09-.08-.27-.08-.07.11,0,.17,0,.02,0,.07,0,.04-.02-.12-.11-.09-.14,0-.13.13,0,.05-.1.06-.16,0-.05,0-.11.03-.16.03-.07.1-.11.08-.19,0-.03-.06-.08-.05-.1.02-.06-.03-.15-.02-.21,0-.03.09-.02.11-.05.1-.11.2-.22.29-.33.03-.04,0-.13.07-.15.13-.04.22-.09.19-.21-.02-.08.18-.06.26-.09.1-.04.18-.08.26-.12.07-.03.65.26,1.22.57.28.16.56.32.77.43.21.12.34.2.33.21-.04.03-.04.35-.02.68,0,.32,0,.65-.04.69-.09.12-.18.25-.26.36-.05.09-.05.2-.1.29-.05.09-.15.15-.18.25-.02.08.03.2.04.29,0,.01-.02.02-.03.02-.01,0-.04.01-.04.03,0,.02,0,.06.02.08,0,.01,0,.02,0,.04,0,.01.07.05.05.04-.21-.05-.21.01-.2.08,0,.01-.04,0-.03.03.05.16.2.36-.04.37-.05,0-.07.01.04.09.06.05.07.06.02.06-.22-.04,0,.14-.07.18-.07.04-.01.14-.11.17-.1.03,0,.15-.06.2-.06.05-.15.37-.19.45-.03.06-.09.1-.12.16-.08.14-.15.27-.22.42-.08.17-.14.36-.23.53-.07.12-1.41,1.21-1.45,1.32Z"/><path class="cls-3" d="M200.29,225.07c.1.03,1.25.83,1.27.81.02,0,.02.08,0,.22-.03.2-.08.45-.14.6-.04.1-.08.19-.1.2-.09.04-.17.07-.25.08-.1,0-.2,0-.3-.01-.08,0-.15-.07-.24,0-.15.09-.24-.04-.39.07-.14.1-.25.06-.38.1-.17.06-.33.06-.49.1-.05.01-.12.08-.17.08-.06,0-.11-.07-.18-.07-.08,0-.17.04-.26.04-.13,0-.24,0-.37,0-.04,0-.09.06-.12.05-.05,0-.08-.07-.12-.09-.07-.02-.14,0-.21,0,0,0-.02.03-.03.05-.11.16-.17.16-.24.14-.12-.03-.24-.02-.36-.02-.09.01-1.61-.62-1.66-.62,0,0-.01,0-.02,0-.03,0-.02-.13-.1.12-.03.09-.03.03-.04,0,0-.02,0-.1-.05.07-.02.08-.03.04-.02,0,.01-.24.02-.47-.08-.21-.03.07-.02-.03-.04-.01-.09.1-.11-.09-.22.14-.04.09-.03-.1-.04-.15,0-.02,0-.07-.02-.03-.07.14-.1.11-.12.02-.02-.12-.1-.03-.15-.02-.05,0-.1.02-.15,0-.06,0-.12-.07-.19-.03-.02.01-.06.07-.08.07-.06,0-.13.07-.19.08-.03,0-.04-.07-.07-.09-.12-.06-.24-.12-.36-.16-.05-.02-.11.04-.15-.02-.06-.1-.13-.16-.24-.08-.07.05-.09-.13-.14-.2-.05-.07-.11-.14-.17-.2-.05-.05.11-.72.28-1.37.09-.32.18-.65.24-.89.07-.24.12-.39.12-.39.06.07,1.13-.23,1.22-.19.13.06.25.13.38.17.09.03.19,0,.28.02.09.02.17.1.27.11.08,0,.17-.08.25-.11.01,0,.02.01.03.02.01.01.02.03.04.03.02,0,.05-.02.07-.04,0,0,.02,0,.03-.02,0,0,.03-.07.03-.05,0,.2.06.19.11.16.01,0,.02.03.03.02.13-.09.28-.26.34-.04.01.04.03.07.08-.05.03-.07.04-.08.05-.03.01.22.13-.02.18.03.05.05.13-.02.17.07.04.09.14-.03.19.02.05.05.35.07.44.09.06.02.11.06.17.08.14.05.27.09.41.12.17.04.35.07.51.12.12.03,1.37,1.06,1.47,1.09Z"/><path class="cls-3" d="M205.13,189.53c.06,0,.43.21.81.35.38.16.77.26.77.26.02,0,.04.05.06.13.03.12.03.25,0,.34-.02.06-.04.12-.06.13-.09.04-.18.08-.26.1-.12.03-.23.05-.35.07-.1.02-.19-.01-.29.05-.15.1-.29.03-.44.14-.15.1-.29.11-.43.15-.19.06-.38.07-.57.11-.06.01-.13.07-.19.08-.08,0-.15-.04-.23-.04-.1,0-.21.05-.31.06-.15.02-.3.01-.46.03-.04,0-.1.06-.14.05-.06,0-.11-.06-.16-.07-.08-.01-.17,0-.26,0,0,0-.02.03-.04.05-.11.15-.2.15-.29.14-.15-.02-.3-.01-.46-.02-.13.04-2.03-.8-2.07-.82,0,0-.02,0-.03,0-.03,0-.02-.12-.13.1-.04.08-.04.02-.05,0,0-.02,0-.09-.06.06-.03.07-.03.03-.03,0,.02-.22.05-.44-.09-.22-.04.06-.02-.03-.05-.02-.11.07-.13-.11-.28.08-.06.07-.03-.1-.04-.15,0-.02,0-.06-.03-.03-.1.11-.13.08-.15,0-.02-.12-.12-.05-.19-.06-.06,0-.13,0-.18-.03-.08-.02-.14-.09-.23-.08-.03,0-.08.05-.11.05-.07-.01-.17.03-.24.02-.04,0-.04-.08-.07-.1-.15-.09-.29-.18-.43-.27-.06-.03-.15,0-.19-.06-.06-.12-.13-.21-.26-.18-.1.02-.08-.17-.13-.25-.05-.09-.1-.18-.16-.26-.04-.07.28-.63.61-1.18.17-.27.34-.54.46-.74.13-.2.21-.33.22-.32.06.09,1.23.09,1.31.17.12.09.23.19.36.26.09.05.2.05.29.09.09.04.16.14.26.16.08.02.19-.04.28-.05.01,0,.02.02.03.03.01.01.02.04.03.04.02,0,.05-.01.08-.02.01,0,.02,0,.03-.01,0,0,.04-.06.03-.04-.01.19.04.19.1.17.01,0,.01.03.03.02.14-.06.31-.2.36,0,.01.04.02.07.08-.04.03-.06.05-.06.05-.02,0,.2.14,0,.18.05.05.05.14,0,.18.08.04.09.14-.01.2.03.06.05.37.09.46.11.06.02.12.06.18.08.15.04.29.11.43.15.18.05.37.1.54.15.07.02.44.3.84.52.4.23.81.41.87.41Z"/><path class="cls-3" d="M241.55,167.08c-.03-.05.08-.48.13-.87.02-.2.06-.39.05-.53-.01-.14-.02-.22-.02-.23,0-.02,0-.04.03-.06.04-.03.08-.05.12-.04.03,0,.06.02.07.04.06.1.1.17.13.21.05.09.12.18.18.27.05.07.08.16.16.22.13.09.15.22.29.31.15.08.2.19.3.29.14.13.23.27.36.4.04.04.12.07.16.11.04.06.04.13.08.19.05.07.15.13.21.2.09.11.18.21.25.33.02.03.09.05.1.09.02.05-.01.11,0,.15.02.07.07.13.11.2,0,0,.04,0,.06,0,.19.02.22.08.25.15.04.12.12.23.18.34.01.05.17.48.19.94.05.46.09.91.11.93,0,0,0,.01.01.02.02.02-.09.08.15.04.09-.02.03.01.03.03,0,.02-.08.05.08.01.07-.02.04,0,0,.02-.2.11-.39.21-.13.18.07,0-.01.04.01.04.12.03-.02.15.22.14.09,0-.07.07-.1.11-.01.02-.05.04-.01.04.14,0,.14.04.08.1-.08.08.03.11.06.16.03.04.06.09.08.13.02.06,0,.14.07.19.02.02.09.02.1.04.03.05.12.09.15.14.02.03-.04.07-.03.1.01.14.03.28.05.42,0,.05.09.09.06.15-.04.11-.06.2.05.26.07.05-.08.16-.12.24-.04.09-.08.18-.1.26-.02.07-.6.24-1.17.39-.29.07-.57.14-.79.2-.21.05-.36.08-.36.07-.01-.08-.8-.92-.8-1.04-.02-.14-.02-.29-.06-.43-.02-.1-.09-.18-.12-.27-.03-.1,0-.21-.05-.3-.04-.07-.15-.12-.22-.18-.01,0,0-.03,0-.04,0-.02.02-.04,0-.05-.01-.02-.04-.03-.06-.05,0,0-.01-.01-.03-.02-.01,0-.07,0-.06,0,.16-.1.12-.14.07-.18-.01,0,.02-.03,0-.04-.14-.08-.36-.13-.22-.29.03-.03.04-.06-.09-.04-.07,0-.08,0-.05-.03.17-.12-.09-.11-.07-.18.02-.07-.09-.11-.04-.19.05-.09-.1-.11-.09-.18,0-.07-.14-.36-.15-.45-.01-.06,0-.14,0-.2-.02-.15-.05-.3-.08-.45-.04-.18-.1-.36-.13-.55,0-.03,0-.17.03-.34.03-.18.11-.42.16-.66.11-.47.17-.92.16-.97Z"/><path class="cls-1" d="M37.8,47.94c-3.03.98-8.05,1.68-12.36,10.09-2.47,4.82-2.72,13.96-.48,16.41,2.88,3.15,6.36-.09,6.9-3.35.54-3.26.96-7.33,2.01-9.33,0,0,1.52-3.2,3.92-4.86,2.41-1.66,8.28-7.4,5.04-8.07s-5.04-.88-5.04-.88Z"/><path class="cls-3" d="M30.07,71.82c.43-1.1.72-2.46,1-3.8.1-.5.13-1,.24-1.51.4-1.76.91-3.55,1.61-5.29.31-.77.61-1.56,1.05-2.29.31-.45.52-.97.99-1.32.44-.36.97-.61,1.51-.76.45.08.26-.11.2.27-.05.38-.16.94-.2,1.56-.03.12-.03.25-.07.36-.05.09-.11.17-.16.27l-.27.6c-.2.37-.29.85-.53,1.23-.36.85-.73,1.73-1.08,2.67-.44,1.12-.51,2.4-.76,3.64-.26,1.36-.51,2.75-.91,4.18-.29.88-.5,1.77-1.21,2.67-1.02,1.23-2.45,1.79-3.84,2.1-1.09.23-2.22.33-3.37.13-.25-.05-.5-.09-.74-.17-.45-.16-.72-.33-.82-.58-.12-.23-.12-.46-.05-.75.03-.13.06-.27.1-.39.16-.39.65-.55,1.2-.55,1.5.26,2.91.19,4.18-.37.46-.2.89-.48,1.19-.77.17-.14.22-.3.35-.43.09-.24.22-.43.31-.72l.06.02Z"/><g class="cls-4"><path class="cls-3" d="M219.56,458.51c.68-1.33,1.09-2.96,1.63-4.63.2-.61.35-1.25.63-1.86.24-.53.56-1.09.87-1.56.31-.46.63-.92.96-1.37.66-.91,1.35-1.79,2.09-2.63.65-.75,1.34-1.49,2.07-2.16.93-.85,1.92-1.76,3.2-2.08.39-.12.41.06.26.45-.07.2-.19.44-.33.73-.12.3-.31.57-.57.78-.91.76-1.72,1.63-2.49,2.54-.81.87-1.59,1.81-2.36,2.78-.46.58-.87,1.22-1.25,1.88-.37.64-.62,1.27-.88,1.97-.56,1.52-.91,3.21-1.54,4.89-.38,1.02-.94,2.09-1.61,2.94-.99,1.31-2.06,2.49-2.94,3.77-.67.98-1.21,2.09-1.37,3.06-.06.22,0,.39-.04.56,0,.14.01.23,0,.33.02.07.01.14-.01.23-.02.16-.06.33-.17.59l-.13.37c-.08.19-.24.29-.52.23-.14-.03-.31-.1-.49-.21-.15-.15-.32-.35-.48-.61-.36-.79-.35-1.65-.17-2.31.08-.35.2-.64.31-.97.13-.29.26-.58.41-.86.59-1.1,1.31-2.06,2.03-2.98,1.04-1.37,2.26-2.62,2.84-3.87l.05.02Z"/></g><path class="cls-3" d="M222.14,448.14c.6-.67,1.2-1.33,1.84-1.94.24-.22.43-.49.67-.7.88-.73,1.78-1.43,2.73-2.06.42-.28.83-.61,1.28-.9.28-.19.59-.38.96-.45.18-.03.36-.09.55-.06.19.03.38.08.56.15.22.1.18.16.04.38-.07.11-.15.28-.23.48-.04.1-.07.22-.11.31-.04.08-.08.14-.13.2-.31.43-.71.67-1.11,1.08-.4.38-.87.81-1.41,1.12-.64.4-1.08,1.05-1.59,1.59-.56.61-1.15,1.2-1.71,1.82-.34.38-.68.78-.99,1.19-.47.62-.95,1.25-1.31,1.94-.27.54-.43,1.12-.62,1.69-.04.12-.07.25-.13.37-.21.44-.42.51-.98.37-.13-.03-.26-.05-.38-.09-.41-.13-.66-.47-.65-.89.03-1.23.46-2.39,1.11-3.42.46-.77,1.01-1.5,1.56-2.21l.05.04Z"/><g class="cls-4"><path class="cls-3" d="M138.14,461.05c-1.25-1.43-2.43-2.97-3.4-4.67-.35-.61-.73-1.26-.98-1.91-.9-2.27-1.5-4.55-2.38-6.69-.4-.94-.84-1.87-1.39-2.71-.35-.54-.74-1.05-1.16-1.52-.39-.51-.79-1.01-1.25-1.48-.28-.31-.17-.39.24-.35.4.04,1.18.18,1.88.66,1.13.96,2.02,2.16,2.75,3.4.73,1.25,1.16,2.6,1.59,3.92.49,1.58,1.2,3.15,1.89,4.57.77,1.54,1.85,2.98,3.03,4.34.73.83,1.51,1.64,2.32,2.42l1.87,1.76c.62.57,1.29,1.14,1.94,1.76.51.49,1.01,1,1.45,1.61.44.63.78,1.34.94,2.13.07.35.13.7.11,1.08-.03.7-.25,1.18-.51,1.42-.25.25-.52.3-.85.23-.15-.03-.3-.06-.42-.12-.41-.23-.45-.74-.5-1.25,0-.77-.33-1.64-.85-2.32-.55-.74-1.37-1.45-2.32-2.25-1.45-1.22-2.74-2.58-4.06-3.99l.04-.04Z"/></g><path class="cls-3" d="M133.85,449.17c-.35-.86-.74-1.71-1.22-2.5-.17-.29-.41-.52-.59-.81-.64-.99-1.33-1.99-2.26-2.77-.4-.37-.88-.61-1.33-.91-.61-.32-1.18-.73-1.78-1.15-.19-.13-.14-.2.09-.28.22-.08.66-.25,1.13-.24,1.65.07,3.06,1.02,4.14,2.18.64.7,1.43,1.31,1.98,2.1.62.86,1.14,1.76,1.6,2.69.28.57.53,1.15.78,1.72.37.87.69,1.76,1.03,2.63.25.68.67,1.28.91,1.95.06.15.13.28.17.44.16.56.08.79-.31,1.06-.09.06-.17.13-.27.18-.31.17-.67.04-.97-.3-.94-1-1.52-2.18-2.08-3.33-.35-.89-.68-1.77-1.08-2.62l.05-.03Z"/><path class="cls-3" d="M134.3,447.45c0-.23.01-.45,0-.67,0-.08-.05-.15-.05-.23-.02-.28.06-.6.08-.89,0-.13-.02-.25-.05-.37-.03-.15-.03-.32.04-.5.02-.06.12-.08.26-.09.13,0,.35,0,.45.06.08.05.18.11.25.17.05.07.1.13.14.2.08.14.14.29.14.45.02.19.11.37.17.56.05.21.08.42.11.64.02.13.04.26.07.39.05.19.06.4.15.58.07.14.23.24.36.36.03.03.07.05.09.08.07.11-.03.18-.47.36l-.3.12c-.35.13-.65.18-.78.12-.39-.16-.51-.42-.6-.69-.07-.2-.06-.43-.1-.64h.04Z"/><path class="cls-3" d="M133.13,273.77s-2.16,5.55-1.96,9.23c.2,3.68,4.3,22.71,6.27,25.61,1.97,2.9,6.64,23.56,7.27,27.49.63,3.93-6.88,24.46-7.93,26.48-1.05,2.01-18.28,37.45-18.28,37.45l-11.78,25.84s2.19,4.14,4.52,5.84c2.33,1.7,14.92,8.42,17.48,9.45,2.56,1.02,19.51,7.77,23.71,7.76s8.29-1.84,8.29-1.84l11.46-23.27,16.51-40.11s9.75-21.93,9.47-24.19c-.29-2.26-3.3,21.46-2,29.93.83,5.4,2.67,38.12,2.67,39.25,0,1.13.22,17.13,2.27,17.64,2.06.5,17.73-.52,17.73-.52l23.84-6.05,10.38-5.95s-1.14-19.39-1.4-20.85-5.8-30.49-9.61-41.82c-3.81-11.33-13.23-46.05-16.18-55.13-2.94-9.08-8.71-33.27-11.74-37.26-3.03-3.98-5.33-10.1-5.89-12.49-.56-2.39-1.45-11.17-1.45-11.17l-37.65,8.35-36.01,10.33Z"/><path class="cls-3" d="M161.11,210.64c-.55.26-1.11.54-1.63.88-.2.12-.34.3-.53.42-.68.43-1.3.94-1.96,1.44-.29.23-.51.51-.74.79-.14.19-.28.36-.44.54-.17.17-.29.36-.57.47-.17.07-.29-.02-.44-.26-.17-.25-.35-.65-.27-.95.08-.26.17-.51.28-.76.12-.23.27-.45.42-.67.31-.42.64-.84,1.13-1.1.55-.34.96-.84,1.47-1.23.56-.42,1.16-.79,1.77-1.12.37-.21.76-.4,1.14-.59.58-.29,1.18-.51,1.75-.8.44-.22.85-.52,1.3-.75.1-.05.19-.12.29-.16.19-.08.34-.07.47.05.13.1.22.24.32.46.05.1.1.19.13.28.12.3.05.67-.13.99-.64.61-1.35.98-2.1,1.31-.55.25-1.11.5-1.65.79l-.03-.04Z"/><path class="cls-2" d="M230.13,82.43c-.57.28-2.8.47-3.14-.8-.34-1.27,1.72-7.95,1.72-7.95,0,0,1.18-3.79,2.36-3.98,1.18-.19,3.01.7,3.01.7,0,0,3.53-.24,3.97,1.05.44,1.29,3.15,0,3.15,0,0,0,2.31,1.67,2.95,1.76s1.48,3.39,1.48,3.39c0,0-2.13,1.56-2.42,1.75s-1.79,2.2-2.45,3.28-1.35,3.11-1.35,3.11l5.17,1.17s-.86,4.03-1.82,6.03-4.07,6.96-4.25,7.9-.76,5.45-.68,6.02.68,3.76.68,3.76c0,0-5.22,2.63-11.47.44-1.3-.46,1.13-5.43.75-7.5-.38-2.07-1.28-5.64-2.63-7.91-1.26-2.12.2-11.56.2-11.56l4.4.3.38-.98Z"/><path class="cls-3" d="M236.64,109.08c.24-.26.45-.53.6-.89.06-.13.06-.27.12-.4.17-.47.33-1,.44-1.55.05-.24.02-.49.05-.74.06-.32.11-.64.21-.97.03-.1.07-.09.16-.02.08.08.27.22.39.39.55.62.53,1.32.42,2.03-.11.42-.09.87-.19,1.31-.11.48-.3.96-.56,1.4-.15.27-.34.52-.53.76-.29.37-.67.66-1.04.94-.29.22-.57.49-.93.67-.08.04-.15.1-.25.09-.34,0-.46-.15-.54-.48-.02-.08-.04-.15-.05-.22-.04-.24.05-.48.16-.67.14-.35.29-.42.43-.58.15-.14.28-.28.42-.41.2-.22.48-.4.68-.68l.04.02Z"/><path class="cls-3" d="M246.37,128.67c-.73-.03-1.46-.06-2.19-.09-.27,0-.53.05-.79.03-.94-.08-1.89-.17-2.83-.2-.42,0-.83,0-1.25,0-.26,0-.53.01-.8,0h-.2s-.21-.1-.21-.1c-.13-.06-.26-.11-.41-.18-.17-.08-.15-.07-.02-.19.06-.06.15-.18.26-.33.07-.1.13-.18.17-.25.03-.05.06-.07.1-.14.04-.02.07-.03.11-.05.52-.2,1.05-.39,1.58-.53.54-.04,1.08-.04,1.63.02.66.08,1.32-.11,1.99-.14.73-.01,1.47-.03,2.2-.04.45,0,.9-.02,1.35-.03.68-.03,1.37-.02,2.04-.12.52-.08,1.02-.29,1.53-.45.11-.04.22-.1.34-.09.11,0,.2,0,.27.03.08.04.15.13.2.2.11.15.18.34.25.57.03.11.07.21.09.31.07.31-.08.68-.36,1.08-.44.37-.91.46-1.38.57-.48.1-.97.14-1.46.17-.73.04-1.47.03-2.2.04v-.06Z"/><path class="cls-3" d="M244.64,76.77c-.2.11-2.27,2.47-3.07,3.67-.8,1.2-1.37,3.94-1.37,3.94,0,0,10.02,1.93,10.65,1.64s1.91-5.18,1.91-5.18v-2.48l-8.12-1.58Z"/><path class="cls-3" d="M241.13,83.92c.48.22.95.46,1.42.75.17.1.37.15.53.28.28.24.58.46.79.8l.16.25c.07.11.14.22.18.32.09.2.15.39.18.57.08.31.12.6.15.87,0,.18.08.34-.02.54-.03.09-.09.19-.1.28,0,.09-.01.17-.02.26-.02.11-.09.1-.21.03-.06-.03-.13-.08-.2-.14-.04-.03-.06-.06-.12-.09-.1-.04-.16-.07-.2-.09-.76-.43-1.12-.92-1.08-1.03-.16-.22-.44-.36-.73-.5-.31-.19-.65-.38-1.03-.52-.23-.09-.47-.19-.72-.25-.38-.09-.77-.22-1.17-.23-.31,0-.63.15-.94.24-.07.02-.14.07-.21.05-.25-.05-.33-.24-.36-.84l-.02-.41c0-.45.11-.84.32-1.04.31-.34.62-.4.94-.48.32-.06.65-.07.99-.04.5.03.99.23,1.48.38v.06Z"/><path class="cls-3" d="M230.98,83.74c.12.05.23.09.36.13.14.03.34.02.57,0,.17-.02.34-.1.55-.12.36-.03.82-.06,1.28.11.47.16.79.51.98.78.17.26.31.5.45.66.22.18.32.45.62.61.1.05.1.07,0,.16-.08.08-.33.29-.65.3-.29.02-.52-.09-.71-.21-.2-.12-.38-.26-.51-.36-.3-.2-.37-.4-.45-.49-.09-.15-.36-.04-.73.08-.4.11-.97.33-1.63.28-.38-.04-.74-.14-1.07-.28-.5-.21-.91-.55-1.3-.87-.31-.24-.61-.49-.86-.78-.06-.06-.09-.14-.12-.21-.09-.3-.02-.46.23-.67.06-.05.11-.1.17-.14.19-.14.43-.15.68-.08.77.17,1.16.4,1.46.66.22.17.46.33.69.4v.05Z"/><polygon class="cls-3" points="225.35 71.45 228.71 72.31 226.45 77.54 225.35 76.77 225.35 71.45"/><path class="cls-2" d="M204.95,81.63s-1.87-4.78-3.84-5.19c-1.97-.41-4-1.39-4.27.16-.27,1.55.77,6.51.77,6.51,0,0,5.33,6.18,6.24,7.24.91,1.07,3.94,4.98,4.19,6.48.25,1.5.44,12.33.44,12.33,0,0,8.14,1.92,10.26,1.26,2.12-.66,5.62-.54,5.14-3.61s-1.36-11.45-1.34-13.78c.02-2.33,1.91-8.87,1.91-8.87,0,0,.88-6.71.9-7.92s-1.36-5.47-1.94-6.59c-.58-1.11-3.69-2.11-3.69-2.11,0,0-5.22-2.96-5.93-2.12s-4.37.77-4.37.77c0,0-3.19-2.07-5.22-1.32s-2.55,1.46-2.55,1.46c0,0,4.82,2.89,5.02,4.73s1.05,5.91,1.05,7.26-1.46,3.95-1.46,3.95l-1.32-.66Z"/><path class="cls-3" d="M202.04,79.47c-.3-.37-.63-.72-.98-1.05-.13-.12-.28-.2-.41-.31-.43-.4-.89-.69-1.45-.86-.24-.07-.5-.08-.74-.05-.16.01-.3.08-.46.1-.16.01-.33.02-.51.04-.11,0-.18-.1-.18-.3,0-.19.06-.53.28-.71.4-.29.9-.33,1.35-.33.46,0,.91.12,1.3.35.46.26.96.49,1.34.79.42.33.81.69,1.18,1.06.23.23.45.47.67.71.33.36.63.76.94,1.15.23.31.5.6.71.94.04.08.1.15.12.24.1.33.02.48-.23.61-.06.03-.12.07-.18.09-.2.08-.42.01-.58-.12-.27-.19-.46-.39-.69-.58-.11-.1-.22-.2-.33-.3-.1-.1-.19-.23-.28-.35-.28-.35-.57-.73-.89-1.08l.02-.03Z"/><path class="cls-3" d="M197.85,67.56s-1.69,3.48-1.41,5.64c.28,2.17,10.24,3.56,10.24,3.56,0,0-.52-5.99-1.77-7.24s-7.06-1.97-7.06-1.97Z"/><path class="cls-3" d="M216.54,111.52c-1.03-.09-2.06-.21-3.09-.36-.38-.05-.76-.06-1.14-.12-.67-.15-1.34-.3-2.03-.56l-.52-.21c-.2-.11-.41-.2-.58-.35-.38-.26-.63-.65-.82-1.02-.32-.66-.44-1.31-.51-1.93-.05-.4-.07-.79,0-1.17.05-.38.12-.75.32-1.09.24-.21.17-.2.44,0,.26.2.66.58.76.98.26.7.29,1.34.5,1.81.09.24.2.4.29.54.1.13.16.24.36.39.63.39,1.57.41,2.43.51.96.12,1.95.21,2.94.26.61.03,1.22.07,1.84.08.93,0,1.87.04,2.79-.06.71-.07,1.4-.29,2.08-.47.15-.04.29-.1.44-.12.27-.07.46.01.6.1.13.09.24.25.36.49.06.11.12.21.17.32.18.34-.02.76-.45,1.06-1.29.71-2.67.82-4.06.94-1.03.07-2.07.05-3.11.04v-.06Z"/><path class="cls-3" d="M193.56,116.82c.46-.85,1.19-1.6,1.96-2.09.28-.18.55-.36.84-.49,1.04-.45,2.08-.74,3.13-.93.46-.09.92-.19,1.38-.26.59-.07,1.2-.07,1.79.02.18.03.16.07,0,.15-.15.07-.42.24-.73.36-.28.1-.55.21-.82.33-.27.1-.54.18-.81.27-.52.17-1.05.35-1.61.54-.65.2-1.24.61-1.77,1.01-.58.46-1.12.85-1.48,1.46-.24.36-.42.76-.54,1.19-.19.65-.29,1.36-.26,2.08.03.56.19,1.11.3,1.67.02.12.07.25.08.37.05.47-.08.64-.61.75-.12.03-.24.06-.36.08-.41.06-.75-.12-.89-.45-.42-.98-.59-2.1-.44-3.32.1-.9.34-1.86.8-2.74l.04.02Z"/><path class="cls-3" d="M125,177.82s3.44-3.37,6.21-3.95c3.67-.77,7.01,1.16,7.2,2.26.19,1.1,4.24-3.38,4.24-3.38l-10.24-1.63h-4.33l-3.08,6.71Z"/><path class="cls-2" d="M110.59,150.26s-8.03,6.3-11.14,2.46c-3.11-3.84-3.89-10.48-3.08-12.03.82-1.55,10.28-3.67,11.26-3.1s6.64,4.32,6.78,2.59c.14-1.74,0-5.55,0-5.55l-3.11-7s9.04-2.29,10.45-6.12c1.41-3.83,3.67-14.41,3.67-14.41,0,0,18.64-.93,21.88.66,3.25,1.6,19.62,17.12,20.89,21.22s3.11,20.78,3.11,20.78c0,0-4.24,11.46-7.48,14.54-3.25,3.08-9.14,6.22-12.97,7.54-3.83,1.33-13.92.83-13.92.83l-9.79-3.35s-1.78-8-3.18-9.32c-1.4-1.32-6.26-5.04-6.26-5.04l-7.11-4.69Z"/><path class="cls-3" d="M110.59,150.26s1.14,3.19,5.16,4.86c4.03,1.67,8.12,8.87,7.13,15.65-.99,6.78-7.53,8.69-9.88,8.75-2.35.06-4.73-.92-4.73-.92,0,0-2.07,4.48-6.68,6.47-4.61,1.99-12.31,2.76-12.31,2.76,0,0-8.06-5.17-9.39-6.17-1.34-1.01-2.75-7.5-3.6-7.64s-2.84-3.9-4.39-4.49-9.31-.58-10.72-1.85-5.83-3.42-6.45-6.02c-.61-2.6-2.24-8.59-1.61-10.31s5.56-9,7.8-9.4c2.24-.4,10.78-2.51,10.78-2.51,0,0-1.53-6.5-1.36-9.18s2.04-8.87,3.79-10.65,11.62-5.48,11.62-5.48l4.64-.82s1.2-11.63,3.09-14.07c1.89-2.44,7.63-6.53,10.54-6.87s13.22,2.08,13.22,2.08l3.06,1.42s4.19-7.16,8.21-9.18c4.02-2.02,11.18-4.38,14-3.27s9.38,4.97,11.75,8.05c2.37,3.08,10.56,16.83,10.56,16.83,0,0,11.14,5.48,13.62,7.51,2.48,2.03,5.07,7.8,4.76,10.64-.31,2.83-3.41,12.62-4.12,14.78s0,2.86.84,5.76c.85,2.9,2.62,5.53,1.67,7.69s-2.27,6.56-9.15,9.63c-5.65,2.52-13.16,1.94-13.16,1.94,0,0,4.68-5.47,5.73-7.67,1.06-2.2,3.66-11.78,3.66-11.78,0,0-.16-9.2-.95-11.32s-6.63-13.13-7.59-14.4-7.86-7.88-10.34-8.81c-2.48-.93-9.12-4.4-12.65-4.5-3.53-.1-11.37-1-12,.52s-1.98,8.07-1.98,8.07c0,0-.75,7.78-2.59,8.89s-6.31,2.39-6.31,2.39l-2.77.99s4.27,6.83,4.25,7.99.05,3.8-.65,4.09c-.69.29-5.3-.52-5.3-.52h-9.86s-4.1,2.8-4.21,4.34.88,5.78,1.73,6.2,4.66,1.9,5.65,1.95,7.47-2.41,7.47-2.41Z"/><path class="cls-3" d="M155.93,114.36c6.2,5.24,10.95,12.29,13.05,20.16.74,2.87,1.29,5.78,1.3,8.79-.01,5.28-1.44,10.44-3.81,15.04-1.2,2.29-2.59,4.49-4.33,6.46-1.72,1.96-3.74,3.66-5.96,5.02-3.94,2.4-8.42,3.91-13.01,4.18-2.93.17-5.9-.13-8.73-.92-1.41-.41-2.8-.91-4.12-1.56-1.32-.66-2.55-1.48-3.67-2.42-1.29-1.33-.93-1.3.55-.83,1.56.47,4.06,1.22,6.99,2.1,10.44,3.19,22.64-1.09,28.53-10.57,3.66-5.62,5.53-12.79,4.58-19.56-.85-7.52-4.36-14.67-9.61-20.22-1.6-1.73-3.38-3.27-5.24-4.72-1.88-1.42-3.89-2.66-5.99-3.72-3.1-1.69-6.64-2.23-10.22-2.38-1.79-.07-3.59-.01-5.37.14-.89.08-1.78.18-2.66.32-.44.07-.87.15-1.3.24-.42.08-.91.2-1.08.26-.17.07-.41.11-.5.28-.03.2-.02.4-.02.59l-.07,2.04c-.05,1.42-.14,2.84-.32,4.26-.19,1.42-.41,2.85-.86,4.27-.45,1.41-1.05,2.87-2.22,4.11-1.05,1.11-2.25,1.74-3.48,2.26-2.31.92-3.92,1.13-5.08,1.13-1.16-.02-1.89-.29-2.37-.79-.22-.23-.48-.53-.44-.75.02-.16.18-.23.31-.33.02-.02.05-.04.08-.06.05-.02.1-.04.15-.06.08-.03.24-.07.4-.11.67-.15,1.87-.39,3.37-.81,2.17-.64,4.59-1.6,5.48-3.1.54-.81.97-1.86,1.26-2.99.3-1.13.53-2.32.68-3.55.15-1.22.26-2.47.32-3.74.02-.32.02-.64.02-.96v-.48s.01-.65.01-.65l.04-.97c.08-.28.11-.61.23-.86l.11-.18.03-.04c.09.04.04-.01.07-.02l.07-.09c.1-.11.16-.24.28-.33.22-.2.49-.34.77-.48.55-.24,1.34-.48,1.57-.52.36-.09.71-.16,1.05-.23.69-.13,1.38-.24,2.07-.33,1.37-.18,2.74-.29,4.12-.35,4.08-.13,8.24.06,12.4,1.55,1.08.4,1.93.87,2.89,1.31.9.51,1.84.96,2.7,1.53l1.31.82c.43.29.84.59,1.26.89.85.58,1.64,1.24,2.45,1.88l-.04.06Z"/><path class="cls-3" d="M95.18,142.39c.98-1.8,2.36-2.92,3.92-3.75,1.58-.81,3.36-1.17,5.17-.95,1.25.17,2.34.43,3.38.79,1.81.61,3.55,1.37,5.18,1.71.4.08.79.12,1.07.09.21-.02.39-.09.49-.28.36-.46.51-1.32.48-2.13-.05-1.49-.58-3.05-1.27-4.46-.45-.92-.99-1.79-1.55-2.63-.28-.42-.59-.81-.85-1.24-.05-.12-.14-.21-.18-.33l-.12-.39c-.09-.25-.19-.51-.34-.72-.41-.43-.4-.46.22-.32.28.1.8.15,1.45.27.63.15,1.11.57,1.49,1.11.69.94,1.3,1.92,1.81,2.96.52,1.04.97,2.12,1.27,3.29.29,1.17.52,2.4.31,3.79-.13.71-.31,1.35-.8,2.11-.24.41-.62.76-1.06.96-.44.21-.94.32-1.29.33-.9.03-1.62-.11-2.32-.26-.7-.15-1.37-.33-2.03-.5-1.32-.35-2.6-.72-3.83-1.01-.67-.16-1.34-.29-1.93-.32-.56-.03-1.2.04-1.78.19-1.19.29-2.33.91-3.23,1.79-1.1,1.02-1.57,2.47-1.35,4,.19,1.14.71,2.27,1.48,3.18.79.91,1.82,1.6,2.95,1.88,1.88.47,3.78.08,5.4-.77.36-.18.69-.42,1.05-.63,1.31-.82,1.76-1.08,2.6-.63.17.08.36.13.48.21.38.19.38,1.29-.7,2.17-1.5,1.37-3.58,2.52-5.96,2.76-1.18.13-2.38.05-3.53-.21-1.28-.3-2.45-.9-3.44-1.7-1.49-1.17-2.55-2.78-3.11-4.6-.55-1.8-.51-3.96.4-5.78l.07.03Z"/><path class="cls-3" d="M124.45,173.5c.17-.22.24-.48.36-.73.1-.25.24-.5.31-.76.1-.54.3-1.08.34-1.65.1-1.16.02-2.43-.18-3.68-.15-.91-.44-1.79-.71-2.66-.23-.77-.52-1.52-.88-2.21-.18-.34-.37-.67-.58-.97-.23-.29-.47-.58-.73-.86-1.09-1.09-2.55-1.94-4.08-2.72-1.37-.69-2.82-1.32-4.22-2.12-.88-.55-1.8-1.11-2.52-1.94-.68-.84-1.27-1.83-1.29-2.93.05-.69-.01-.55.46-.18.26.17.52.46.97.66.21.11.37.25.56.39.21.12.4.26.58.41,2.51,2.27,6.68,2.99,10.23,5.84,1.03.86,2.07,1.93,2.78,3.14.71,1.19,1.25,2.43,1.62,3.69.41,1.39.69,2.81.8,4.27.06.73.08,1.47.02,2.23-.06.76-.24,1.51-.4,2.25-.52,1.82-1.57,3.45-2.89,4.73-.98,1.02-2.2,1.71-3.41,2.34-1.26.53-2.55.99-3.89,1.2-2.06.37-4.19.51-6.32.02-.46-.14-.95-.17-1.39-.39-.84-.36-1.36-.67-1.6-1.08-.27-.36-.28-.74-.17-1.18.05-.2.07-.39.14-.55.22-.49,1.16-.69,2.07-.34,2.82.93,6.04.92,8.94-.13,1.09-.37,2.04-.98,2.94-1.63.82-.73,1.57-1.54,2.07-2.5l.07.03Z"/><path class="cls-3" d="M59.65,164.45c.93.8,1.96,1.48,3.03,1.97,1.09.49,2.14.79,3.39.88,1.23.12,2.6.04,4.15.23,1.54.14,3.32.79,4.58,1.92,1.88,1.61,2.83,3.77,3.53,5.67.63,1.69,1.15,3.31,1.92,4.67.79,1.33,1.89,2.61,3.14,3.64,2.5,2.1,5.67,3.41,8.96,3.32,2.92-.07,5.87-.97,8.43-2.46,1.65-.94,3.18-2.11,4.54-3.42,1.3-1.35,2.69-2.64,3.62-4.2.57-.93.75-.93.99.32.16,1.19-.16,3.71-1.91,5.57-3.1,3.18-6.96,5.55-11.34,6.62-2.19.53-4.5.64-6.78.31-2.3-.37-4.44-1.28-6.3-2.54-2.23-1.51-4.18-3.41-5.65-5.79-1.41-2.43-1.99-4.98-3.03-7.03-.57-1.12-1.27-2.09-2.17-2.75-.89-.66-1.94-.95-3.22-1.03-1.26-.08-2.7-.04-4.19-.21-1.49-.16-3.01-.64-4.33-1.32-3.27-1.69-5.84-4.37-7.59-7.52-.65-1.2-1.18-2.49-1.45-3.87-.06-.34-.1-.7-.16-1.04-.05-.35-.02-.69-.03-1.04,0-.69-.05-1.38.1-2.06.33-2.74,1.54-5.3,3.19-7.41,2.6-3.26,6.06-5.71,10.05-6.98.45-.13.89-.25,1.33-.38.45-.11.91-.16,1.38-.24.86-.16,1.62-.07,2.23-.07.62.03,1.12.22,1.51.33.8.21,1.17.74,1.39,1.15.1.2.25.4.28.55.05.26-.28.37-.87.45-.15.01-.31.05-.48.03-.16-.02-.35-.02-.56,0-.42.04-.87,0-1.4.04-3.14.14-6.33,1.46-9.06,3.34-2.66,1.96-4.95,4.58-5.81,7.64-.08.28-.2.55-.24.84l-.12.87c-.03.29-.12.57-.1.87l.02.88c-.02.6.05,1.15.16,1.69.12.55.3,1.11.52,1.66.9,2.2,2.49,4.25,4.38,5.82l-.04.06Z"/><path class="cls-3" d="M83.63,112.71c1.26-.26,2.52-.45,3.77-.6l.93-.11c.1-.01.09-.01.11,0h.03s.07,0,.07,0c.05,0,.1,0,.16-.01.02-.04.01-.09.02-.14,0-.03,0-.1.01-.11l.02-.77c0-.52.05-1.03.09-1.55.09-1.03.23-2.05.43-3.07.33-1.66.74-3.33,1.42-4.91,1.22-2.77,3.07-5.37,5.62-7.16.62-.47,1.3-.83,1.98-1.2.69-.31,1.37-.64,2.09-.87,1.41-.53,2.88-.82,4.35-1.03,2.62-.31,5.29-.26,7.87.3,1.65.35,3.26.96,4.76,1.77,1.55.73,2.77,2.09,3.54,3.61.48.95.46.74-.36.38-.21-.09-.47-.18-.77-.27-.08-.02-.15-.05-.26-.04-.07-.04-.17-.04-.25-.06-.18-.03-.37-.05-.57-.08-.22,0-.36-.09-.56-.13-.19-.05-.39-.09-.58-.14-.2-.05-.38-.12-.59-.16-.17-.1-.36-.17-.54-.26-1.28-.7-2.68-1.15-4.1-1.5-1.41-.37-2.87-.63-4.35-.66-1.48-.04-2.97.07-4.44.34-1.46.28-2.91.75-4.25,1.38-1.58.75-2.98,1.97-4.07,3.46-1.1,1.48-1.9,3.22-2.49,5.02-.45,1.31-.73,2.68-.94,4.07-.11.69-.17,1.39-.22,2.1-.03.74-.08,1.21-.02,2.59l-.16.74-.08.37c-.04.13-.17.18-.26.25-.4.26-.98.37-1.56.44l-1.34.18-1.08.16c-2.63.42-5.21,1.06-7.6,2.1-1.8.8-3.48,1.85-4.81,3.24-1.34,1.37-2.21,3.13-2.71,5.01-.77,2.94-.69,6.03-.2,8.99.11.65.26,1.29.41,1.93.56,2.39.77,3.1.23,3.92-.11.18-.19.39-.29.52-.28.42-1.4-.31-2.09-2.23-1.07-2.8-1.53-5.88-1.47-9.02.13-3.13.75-6.45,2.68-9.43,1.45-2.18,3.51-3.81,5.66-4.96,2.16-1.16,4.44-1.93,6.73-2.42l.02.07Z"/><path class="cls-3" d="M160.45,97.77c.72,1.53,1.37,3.06,2.07,4.49.7,1.42,1.45,2.78,2.33,3.69.45.47.84.73,1.54,1.1.68.35,1.42.69,2.17,1.03,1.51.68,3.07,1.39,4.59,2.2,2.22,1.18,4.47,2.48,6.4,4.3,1.69,1.6,3.13,3.58,3.98,5.83l.32.84c.09.29.14.58.21.87.12.58.3,1.17.33,1.73.06.57.13,1.13.17,1.7l.03,1.71c-.05,2.28-.45,4.53-1.12,6.67-.66,2.14-1.59,4.17-2.57,6.08-.43.85-.85,1.69-1.18,2.49-.15.39-.27.78-.27,1,0,.06,0,.11,0,.17l.05.21c.05.18.12.36.2.55.32.74.81,1.48,1.34,2.26.27.41.54.75.82,1.28.12.27.28.55.36.82l.22.82c.27,1.4.17,2.73-.04,4.02-.2,1.29-.61,2.52-1.17,3.68-1.06,2.3-2.65,4.5-4.94,5.71-1.53.53-1.21.52-.33-.41.18-.29.43-.57.65-.95.21-.4.45-.81.63-1.32.43-.95.86-2.07,1.26-3.28.37-1.06.59-2.18.78-3.24.19-1.06.26-2.14.13-3.05-.18-1.01-.31-1.19-1.12-2.41-.35-.52-.72-1.1-1.06-1.75-.17-.33-.34-.67-.49-1.05-.07-.19-.15-.38-.21-.58-.07-.22-.11-.35-.19-.71-.01-.59-.09-1.25.07-1.7.1-.52.25-.82.38-1.2.28-.68.57-1.26.85-1.83.57-1.12,1.12-2.18,1.61-3.26.99-2.14,1.74-4.33,2.12-6.6.15-.68.16-1.37.23-2.06.02-.69,0-1.39-.03-2.1-.15-1.42-.33-2.77-.88-4-.97-2.53-3.01-4.57-5.32-6.24-2.58-1.83-5.54-3.17-8.62-4.54-.77-.35-1.55-.69-2.37-1.15-.85-.45-1.68-1.16-2.28-1.88-1.23-1.46-2.02-3.03-2.78-4.56-1.79-3.78-3.34-7.52-5.73-10.69-1.79-2.39-4.01-4.44-6.64-5.84-1.3-.7-2.7-1.27-4.12-1.68-.71-.16-1.41-.37-2.14-.41-.36-.03-.72-.1-1.09-.1h-1.09c-4.56.17-8.8,2.41-12.06,5.45-.38.32-.7.69-1.03,1.05-.34.36-.67.71-.97,1.11-1.2,1.39-1.82,2.42-2.4,3.07-.31.31-.58.56-.82.75-.25.19-.5.33-.76.44-.24.1-.49.27-.67.31-.32.07-.4-.29-.34-1.08.04-.8.37-1.98,1.16-3.3,2.3-3.95,5.98-7.23,10.42-9.23,2.22-.99,4.67-1.64,7.21-1.77.64,0,1.28-.04,1.91,0,.64.07,1.28.12,1.92.21l1.9.43c.59.19,1.18.36,1.76.59,3.47,1.24,6.66,3.48,9.09,6.25,2.45,2.76,4.18,5.95,5.64,9.03l-.07.04Z"/><path class="cls-3" d="M195.48,132.69c0,3.58-.13,7.18-.49,10.78-.18,1.8-.41,3.6-.74,5.39-.32,1.79-.74,3.59-1.32,5.35-.84,2.56-1.9,5.2-3.94,7.34-.41.49-.97.87-1.46,1.3-.5.34-1.01.65-1.51.97l-1.51.95-1.6.78c-.53.26-1.06.53-1.6.77l-1.65.62c-.55.2-1.09.43-1.65.6l-1.68.49c-4.49,1.28-9.05,1.93-13.56,2.58-4,.58-8,1.21-11.83,2.17-1.22.36-2.47.62-3.65,1.07-1.2.4-2.42.75-3.57,1.26l-1.76.69-1.69.84c-.28.14-.56.28-.85.41-.29.12-.58.25-.85.42l-1.66.92c-1.42.72-1.39.46-.51-.66.45-.55,1.08-1.37,1.98-2.22.46-.4,1-.79,1.57-1.2.29-.2.6-.4.9-.61.32-.19.66-.35,1.01-.51,1.23-.59,2.47-1.19,3.76-1.63.64-.25,1.28-.46,1.93-.66l1.96-.52c2.62-.69,5.25-1.15,7.88-1.59,5.25-.84,10.46-1.39,15.54-2.48,1.54-.28,3.01-.78,4.51-1.22,1.44-.58,2.94-1.08,4.3-1.85,1.43-.65,2.69-1.59,3.99-2.43,1.15-.84,2.05-1.99,2.8-3.28,1.65-2.86,2.48-6.3,3.06-9.72.55-3.45.81-6.97.9-10.5.12-4.35,0-8.72-.21-13.09l-.22-4.36-.1-2.19c0-.38-.03-.73-.02-1.13,0-.21.01-.5.06-.74.03-.25.09-.51.21-.73.38-.54,1.02-.98,1.44-1.22.46-.25.92-.46,1.38-.64.92-.36,1.84-.64,2.76-.89,1.85-.49,3.69-.87,5.54-1.19,5.11-.87,10.13-1.53,15.26-1.82,1.13-.06,2.24-.12,3.38-.13,2.12,0,3.53.12,4.51.34.49.1.87.24,1.17.4.3.19.53.4.73.6.18.19.43.37.52.51.32.4-1.42.89-4.39.81-4.44.03-9.03.37-13.65.9-2.31.29-4.63.63-6.92,1.05-2.29.43-4.59.92-6.7,1.62-.62.2-1.19.43-1.72.67-.23.13-.5.25-.66.37-.09.05-.03.01-.05.03h0s0-.04,0,.07c0,.29.02.66.03.99l.12,2.12.26,4.31c.17,2.89.29,5.8.29,8.71h-.07Z"/><path class="cls-3" d="M204.8,190.83c3.17-1.72,6.2-3.67,8.96-5.94,2.74-2.28,5.19-4.89,7.06-7.87,1.36-2.19,2.25-4.55,3-7.07,1.32-4.43,2.15-9.09,2.83-13.75.67-4.67,1.16-9.37,1.47-14.09.3-4.19.4-8.41.37-12.57-.03-2.67-.07-5.35-.16-8.02-.06-1.33-.06-2.67-.09-4.01-.01-1.34-.07-2.67.04-4.02.12-.85.17-1.23.2-1.21.04.02.1.42.4,1.1.63,1.35,1.63,3.92,1.93,7.04.5,5.53.44,11.07.19,16.6-.24,5.53-.72,11.06-1.5,16.58-.24,1.65-.48,3.32-.72,4.99-.29,1.67-.52,3.36-.85,5.05-.62,3.38-1.38,6.77-2.59,10.07-1.37,3.67-3.61,6.91-6.21,9.72-2.62,2.81-5.61,5.2-8.77,7.29-3.88,2.58-8.05,4.66-12.26,6.54-6.4,2.82-13.07,5.01-19.64,7.11-5.11,1.63-10.11,3.27-15.09,4.96-1.09.39-2.15.77-3.25,1.16-2.03.71-3.34,1.2-4.3,1.44-.98.2-1.59.22-2.15.12-.26-.05-.58-.06-.76-.13-.31-.12-.11-.47.52-1.05.63-.57,1.7-1.33,3.2-1.97,4.43-1.93,9.08-3.43,13.77-4.94,4.69-1.5,9.43-2.98,14.12-4.6,3.48-1.2,6.93-2.48,10.32-3.9,3.4-1.39,6.73-2.92,9.91-4.69l.04.06Z"/><path class="cls-3" d="M120.21,208.98c-.52,5.42-.85,10.88-1.03,16.35-.07,1.99-.03,3.99-.06,5.98-.07,3.52-.08,7.04-.06,10.56-.02,3.52.04,7.05.14,10.57.11,3.12.31,6.26.58,9.35.14,1.99.33,3.97.5,5.96.15,1.99.21,3.99.46,5.96.16,1.23.12,1.08-.24.08-.33-1.01-1.06-2.87-1.62-5.14-.4-2.02-.67-4.05-.97-6.08-.26-2.03-.44-4.08-.62-6.12-.34-4.09-.56-8.19-.63-12.32-.08-4.93-.26-10.07-.23-15.12.05-5.55.26-11.1.64-16.65.22-3.41.56-6.82.92-10.22.58-5.15,1.45-10.3,2.57-15.34.9-3.91,1.85-7.78,3.5-11.51.32-.84.77-1.61,1.2-2.42.38-.76.85-1.32,1.22-1.79.39-.46.66-.85,1.02-1.08.71-.45,1.22-.58,1.71-.58.22,0,.46-.04.62,0,.49.13-.06,1.42-1.2,3.27-1.72,2.79-2.91,6.06-3.92,9.45-1.01,3.39-1.75,6.96-2.38,10.56-.91,5.35-1.6,10.81-2.08,16.28h-.07Z"/><path class="cls-3" d="M251.15,149.2c-.86,7.17-2.07,14.31-3.76,21.34-.62,2.57-1.24,5.14-2.03,7.67-1.4,4.45-3.1,8.83-5.3,12.99-1.11,2.07-2.32,4.09-3.77,5.98-1.59,1.95-3.41,3.38-5.24,4.85-3.27,2.52-6.64,4.9-9.97,7.23-2.15,1.49-4.34,2.92-6.53,4.34l-3.3,2.1c-1.09.72-2.33,1.21-3.47,1.83-1.47.72-1.23.69-.24-.29.5-.49,1.17-1.24,1.97-2.17.84-.86,1.93-1.73,3.14-2.62l6.45-4.68c2.18-1.51,4.35-3.03,6.48-4.58,2.12-1.56,4.24-3.14,6.2-4.82.49-.42.97-.85,1.41-1.29.48-.43.84-.88,1.23-1.33.76-1.01,1.51-2.09,2.19-3.2,3.3-5.32,5.39-11.67,7.08-17.92,1.86-6.9,3.14-13.97,4.12-21.09.59-4.38,1.07-8.79,1.41-13.2.52-6.68.84-13.42.79-20.08-.01-1.61-.06-3.22-.14-4.81-.04-.8-.09-1.59-.15-2.37-.03-.48-.05-.53-.08-.75-.03-.18-.01-.41-.26-.4-.12-.02-.23-.03-.34-.03l-.41-.02c-.46-.03-.93-.03-1.4-.04-.94,0-1.89,0-2.84.04-1.11.04-2.2.12-3.32.18-4.16.25-5.45.29-6.45-.42-.23-.15-.52-.29-.67-.44-.5-.48,1.16-1.39,4.3-1.77,1.95-.25,3.92-.42,5.93-.51,1.01-.04,2.02-.07,3.05-.06.52,0,1.04.01,1.58.05h.2s.34.04.34.04l.7.1c.23.04.48.05.69.12l.63.22c.13.06.23.16.34.24l.16.13.02.02h.01c-.05.06.12-.1-.11.12h0s.03.05.03.05l.06.08c.15.2.32.41.45.68.23.53.2,1.3.26,1.89.04.7.08,1.41.11,2.11.06,1.4.1,2.81.11,4.22.04,2.82,0,5.65-.07,8.48-.2,7.26-.72,14.54-1.54,21.79h-.07Z"/><path class="cls-3" d="M200.28,89.09c-.64-.62-1.28-1.25-1.92-1.95-.63-.71-1.3-1.42-1.79-2.65-.57-1.87-1.05-3.56-1.11-5.63,0-.37,0-.76.06-1.18.02-.21.05-.4.12-.65.06-.29.17-.54.3-.79.46-1.02,1.52-1.74,2.64-1.68.2,0,.42.02.6.04l.41.06c.27.05.52.1.76.16.25.05.48.14.71.21l.32.1c.13.05.4.12.56.21.73.37,1.14.87,1.48,1.32.34.46.59.92.81,1.36l.32.67.27.59.23.51c.09.17.18.36.32.52.07.08.17.15.27.13.11,0,.16-.11.25-.13.17-.31.25-.62.28-1,.02-.13.02-.21.02-.36.01-.23,0-.47-.02-.71-.01-.48-.07-.96-.13-1.44-.12-.96-.32-1.92-.56-2.85-.15-.6-.34-1.19-.54-1.77-.19-.58-.38-1.17-.6-1.73-.21-.54-.48-1.18-.71-1.6-.12-.22-.23-.35-.37-.45-.13-.11-.34-.31-.63-.38-.73-.2-.71-.28,0-.67.18-.09.41-.21.74-.29.35-.14.78,0,1.2.19.84.48,1.32,1.15,1.73,1.79,1.24,2.02,1.77,4.2,2.17,6.4.18,1.11.31,2.23.32,3.41v.7c-.03.25-.01.52-.08.73-.11.44-.18.94-.33,1.32-.26.82-.69,1.35-1.19,1.78-.27.18-.55.34-.9.4-.36.03-.66-.03-.92-.15-.51-.23-1.01-.69-1.43-1.45-.3-.61-.67-1.16-.97-1.76l-.31-.58-.28-.49c-.37-.63-.82-1.25-1.22-1.52-.09-.07-.18-.1-.23-.12l-.4-.08c-.39-.07-.76-.15-1.12-.23-.18-.03-.35-.06-.51-.08-.09-.01-.14-.01-.21-.01-.13,0-.25.08-.34.17-.05.06-.08.12-.11.19-.02.04-.01.05-.04.11-.03.06-.04.14-.06.22-.08.31-.09.7-.1,1.08,0,.78.12,1.61.27,2.44.08.42.17.83.27,1.25.1.4.24.88.35,1.1.28.59.85,1.25,1.42,1.87,1.46,1.53,3.11,3,4.64,4.62,1.15,1.23,2.27,2.57,3.06,4.18.4.79.66,1.73.78,2.56.14.84.25,1.66.35,2.49.29,2.57.58,5.09.54,7.7,0,.57-.01,1.14-.07,1.73-.24,2.17-.72,2.87-1.47,3.08-.17.05-.36.12-.51.12-.55-.03-.6-.88-.48-2.27.17-2.1.09-4.34-.05-6.61-.08-1.13-.18-2.28-.3-3.42-.13-1.12-.29-2.34-.51-3.27-.35-1.26-1.29-2.59-2.37-3.83-1.11-1.24-2.38-2.43-3.68-3.66l.04-.05Z"/><path class="cls-3" d="M203.93,63.54l.42-.04c.14-.02.29-.03.35-.02.17,0,.34,0,.51,0,.34,0,.68.03,1.04.08.36.05.73.13,1.16.3.37.16.69.34.99.54.43.29.85.57,1.19.92.6.62,1.09,1.29,1.51,1.99l.3.53c.1.18.22.44.29.64.15.41.25.8.34,1.19.17.68.32,1.35.45,2.01.2.84.37,1.69.26,2.58-.19.31-.18.27-.53.12-.34-.16-.78-.49-1.02-.94-.35-.81-.57-1.63-.85-2.42-.2-.8-.38-1.63-.61-2.16-.42-.87-1.19-1.56-1.91-2.13-.39-.31-.83-.58-1.21-.71-.36-.11-.91-.2-1.44-.2h-.44c-.09,0-.18,0-.27,0-.18,0-.38.04-.57.08-.28.07-.65.17-.81.46-.1.18.14.23.24.3l.42.22c.24.13.44.19.69.34.4.27.79.62,1.1,1.07.14.2.28.4.36.63.31.89.04,1.23-.46,1.38-.12.04-.24.08-.36.09-.41.04-.73-.24-.96-.52-.3-.43-.68-.67-1.18-.95-.3-.19-.73-.36-1.11-.56-.41-.19-.82-.39-1.1-.62-.07-.06-.17-.11-.22-.17l-.08-.17-.14-.32-.22-.51-.08-.19c0-.09.05-.2.06-.31.06-.21.05-.43.16-.6.15-.37.42-.66.76-.93.69-.54,1.78-.88,2.91-1.04l.02.06Z"/><path class="cls-3" d="M215.5,65.86c.68.79.99,1.6,1.24,2.35.09.27.22.53.26.81.15.98.18,1.93.22,2.85.02.41.07.81.07,1.22.01.26.02.52.01.78-.04.26-.16.53-.26.78-.07.16-.14.14-.3.01-.15-.13-.5-.35-.72-.61-.21-.47-.42-.93-.55-1.4-.09-.47-.14-.95-.17-1.44-.02-.59-.32-1.13-.53-1.65-.22-.58-.43-1.15-.74-1.58-.18-.27-.39-.48-.67-.66-.42-.26-.95-.46-1.52-.45-.44,0-.88.19-1.3.35-.09.04-.18.09-.28.12-.35.1-.5-.09-.7-.77l-.14-.46c-.13-.5-.05-1.01.25-1.23.89-.62,2.05-.85,3.28-.53.91.21,1.86.7,2.6,1.46l-.04.05Z"/><path class="cls-3" d="M219.8,66.75c.09.08.19.19.29.32.07.07.31.4.33.47l.23.56c.14.37.27.74.38,1.11.08.27.22.51.28.78.22.96.35,1.91.43,2.86.02.42.07.84.1,1.26.02.27.05.53.02.81-.05.27-.12.54-.23.8-.07.16-.16.13-.3-.01-.13-.14-.41-.38-.56-.65-.21-.47-.33-.94-.49-1.4-.17-.46-.26-.94-.3-1.44-.06-.6-.38-1.16-.62-1.71-.13-.31-.26-.61-.41-.9l-.22-.44-.12-.21-.06-.11-.03-.05v-.03s-.02,0-.02,0h0c-.06.04.55-.36.29-.19h0s0,0,0,0h-.02s-.07.06-.07.06c-.06.04-.12.08-.17.12-.02.01,0,0,0,0,0,0,0,0,0-.01l-.06-.06c-.06-.05-.11-.11-.19-.16-.14-.11-.3-.21-.47-.31-.51-.29-1.07-.56-1.65-.67-.46-.08-.93.04-1.33.16-.09.02-.17.08-.26.1-.31.07-.42-.15-.62-.82l-.14-.46c-.14-.51-.03-.99.34-1.24,1.11-.57,2.39-.41,3.47-.02.81.34,1.49.78,2.25,1.45l-.04.05Z"/><path class="cls-3" d="M221.09,92.62c.39-2.5,1.11-4.79,1.73-7.07l.61-2.48c.77-2.83,1.21-5.8.9-8.68-.16-1.27-.53-2.5-1.08-3.59-.37-.68-.89-1.31-1.41-1.88-.26-.3-.53-.58-.83-.82-.31-.24-.6-.54-.96-.75-.45-.33-.43-.22.07-.33.26-.06.63-.11,1.13-.13.48.02,1.03.18,1.54.47,1.73,1.1,2.87,2.98,3.43,4.87.48,1.92.53,3.83.33,5.68-.23,2.2-.49,4.5-1.04,6.64-.59,2.34-1.32,4.61-1.8,6.88-.31,1.4-.47,2.79-.49,4.21-.02,2.15.23,4.35.63,6.51.31,1.68.77,3.32,1.09,5.03.07.38.15.75.2,1.13.16,1.43,0,1.91-.61,2.23-.14.07-.27.17-.4.21-.44.14-.9-.41-1.09-1.38-.61-2.88-1.36-5.91-1.85-9.19-.36-2.42-.48-5-.15-7.56h.06Z"/><path class="cls-3" d="M195.68,75.8c-.22-.04-.45-.09-.69-.16-.34-.08-.7-.21-1.02-.37-.32-.17-.61-.38-.81-.67-.18-.31-.36-.61-.45-.96l-.16-.51-.05-.41c-.04-.27-.03-.51-.04-.76,0-.49.05-.94.12-1.39.11-.64.18-1.29.39-1.9.19-.54.41-1.06.71-1.58.06-.12.15-.27.29-.46.12-.17.22-.36.37-.5.27-.31.59-.55.96-.7.35-.17.78-.06,1.17-.04.47.07.63.11.91.16.51.1,1.02.22,1.52.36.89.26,1.8.41,2.67.74.56.2,1.13.39,1.66.69.52.33,1.02.71,1.38,1.24.22.32.16.29-.19.27-.18,0-.42,0-.74.07-.29.04-.61.08-.93.07-.28,0-.56-.02-.82-.08l-.82-.09-.82-.08-.81-.16c-.54-.11-1.09-.21-1.64-.32-.27-.06-.54-.14-.82-.21l-.41-.11c-.12-.03-.09-.05-.15-.08-.09-.07-.22-.12-.3-.03-.04.03-.08.07-.11.12-.03.05-.05.07-.13.24-.26.53-.44,1.17-.62,1.78-.19.68-.32,1.38-.33,2.02-.01.34.04.63.06.74.03.08.05.17.1.23.06.06.14.11.21.14.37.19,1.69.34,2.6.6,1.47.37,2.89.84,4.32,1.26,1.11.34,2.23.56,3.37.98.25.1.51.18.76.3.92.47,1.2,1.03.85,1.61-.08.13-.16.26-.26.36-.18.17-.42.23-.62.29-.17.05-.42.05-.65-.03-1.64-.49-3.66-1.06-5.62-1.6-.74-.2-1.47-.4-2.21-.58-.37-.09-.74-.17-1.09-.25-.39-.08-.6-.11-1.12-.18v-.06Z"/><path class="cls-3" d="M238.13,76.3c-.71,1.49-1.32,3.09-1.7,4.69-.14.58-.17,1.18-.23,1.73-.02.22-.04.43-.04.63v.46c0,.15.03.34.16.47.17.18.44.12.65-.02l.08-.05.1-.07c.1-.09.2-.18.3-.28.2-.19.39-.42.58-.64.59-.73,1.07-1.6,1.49-2.46.51-1.14.92-2.28,1.95-3.25.36-.3.21-.3.37.09.08.2.21.5.39.88.13.37.16.77.12,1.17-.04.73-.38,1.34-.67,1.96-.3.62-.64,1.23-1.02,1.82-.38.59-.81,1.17-1.32,1.73-.14.14-.26.28-.41.41l-.22.2c-.08.07-.24.21-.34.29-.48.34-.99.64-1.52.7-.56.08-1.16,0-1.65-.32-.83-.51-1.26-1.59-1.35-2.54-.07-.76-.03-1.46.07-2.13.31-1.89.9-3.62,1.6-5.32.44-1.04.93-2.06,1.54-3.05.24-.38.49-.75.86-1.12.33-.31.61-.58.97-.88.67-.59,1.73-1.09,2.75-1.01,1.51.07,3,.86,3.87,2.13.19.27.37.55.51.85.47,1.13.29,1.56-.26,1.88-.12.07-.24.16-.35.2-.36.15-.91-.19-1.2-.76-.46-.86-1.04-1.48-1.68-1.78-.31-.15-.7-.25-1.01-.25-.3,0-.46.04-.74.22-.21.12-.46.35-.76.62l-.23.22-.19.19c-.07.06-.17.19-.27.33-.4.57-.79,1.32-1.13,2.07l-.05-.02Z"/><path class="cls-3" d="M233.15,74.31c-.57,1.43-1.02,2.95-1.32,4.48-.11.56-.13,1.13-.2,1.68-.05.49-.1.97-.1,1.43v.58c0,.09.03.19.05.28.06.2.3.3.5.24.22-.07.33-.14.75-.53.62-.59,1.09-1.39,1.56-2.15.62-.99,1.13-2.05,1.81-3.04.19-.31.23-.27.28.09.03.18.06.43.08.74.04.31.03.67-.07,1.01-.33,1.22-.7,2.47-1.47,3.56-.18.28-.38.56-.6.83-.11.14-.23.27-.35.4l-.2.2s-.07.05-.1.12l-.17.14c-.45.35-.93.69-1.45.78-.13.02-.26.03-.38.05-.13,0-.25-.02-.37-.04-.25-.03-.49-.11-.71-.23-.53-.29-.88-.8-1.08-1.37l-.14-.44c-.05-.14-.07-.34-.09-.43-.04-.22-.05-.44-.07-.65-.05-.84-.02-1.65.08-2.43.22-1.72.63-3.38,1.17-5,.33-1,.72-1.98,1.2-2.95.36-.73.78-1.44,1.38-2.11.3-.33.65-.65,1.16-.88.49-.23,1.11-.25,1.57-.1,1.43.29,2.63,1.45,3.15,2.72.12.28.24.55.32.85.13.55.13.92.03,1.18-.14.27-.33.41-.62.52-.13.05-.25.11-.36.13-.2.04-.38-.05-.56-.2-.19-.16-.4-.38-.49-.66-.32-.85-.78-1.6-1.27-1.95-.24-.18-.48-.27-.77-.33-.1-.01-.09-.02-.09-.01,0,0,0,0,0,.01-.01-.01.03-.02-.07.05-.28.21-.71.79-1.05,1.4-.35.63-.65,1.33-.92,2.05l-.06-.02Z"/><path class="cls-3" d="M254.36,81.72c-.14.84-.33,1.65-.62,2.44-.3.79-.62,1.56-1.19,2.37-.11.12-.24.36-.41.51-.17.16-.33.33-.51.47-.37.28-.84.42-1.29.43h-.03c-.21-.04-.42-.06-.63-.1l-.4-.09-.72-.17-1.42-.35-2.83-.7c-.84-.2-1.69-.35-2.53-.5-.54-.11-1.09-.15-1.62-.33-.27-.08-.53-.17-.79-.27-.13-.05-.26-.1-.39-.16-.13-.07-.24-.2-.35-.31-.27-.33-.21-.34.16-.61.39-.34,1.01-.7,1.62-.67.56,0,1.09.1,1.63.21l1.62.32c1.08.22,2.16.48,3.23.79.55.15,1.12.26,1.69.34l.86.1.42.04c.06,0,.1,0,.15.01.07.03.14.01.2-.01.06-.02.11-.06.16-.1.03-.02.04-.05.06-.07.03-.05.08-.09.11-.16.15-.25.29-.53.42-.84.26-.62.45-1.3.61-1.97.2-.81.32-1.83.29-2.17v-.03c.02-.22-.18-.28-.34-.36l-.26-.11-.48-.18c-.64-.24-1.29-.46-1.95-.65-1.04-.3-2.1-.44-3.15-.62-.23-.04-.46-.06-.69-.11-.85-.23-.99-.52-1.04-1.16.03-.14-.03-.3-.1-.43-.06-.12-.1-.22-.05-.33.03-.06.08-.11.16-.16.04-.02.09-.05.15-.06.04-.02.05-.04.08-.06.22-.15.54-.25.89-.28,2.04,0,3.99.57,5.96,1.19l.64.21.85.3c.22.06.38.19.57.29.18.1.38.19.48.35l.19.21.09.11.05.05h.01s0,.01,0,.01c-.03.02.22-.17.12-.09h0s0,0,0,0h0s.02.04.02.04l.27.52.14.88c.03.29.02.58.03.87,0,.3-.02.4-.03.61-.01.19-.03.36-.06.54h-.07Z"/><path class="cls-3" d="M225.61,80.06c.02-.38.08-.74.14-1.1l.21-.95.47-1.87c.12-.45.18-.92.32-1.38.51-1.59,1.08-3.16,2.03-4.69.22-.34.44-.69.77-1.03.27-.34.82-.69,1.47-.74.2,0,.46.02.6.07.15.04.28.09.41.14.26.08.48.24.69.42.19.2.44.34.54.66.07.33.2.62.14.94-.09.37-.1.23-.2.03-.06-.1-.27-.16-.53-.11-.13.01-.35.14-.47.19-.12.02-.23.04-.34.03-.18-.02-.41.04-.56,0-.08-.02-.16-.04-.22-.05-.04,0-.06,0-.08,0h0s0,0,0,0h0c-.1.39.14-.53.11-.44h0s0,0,0,0h0s0-.01,0-.02c0-.01,0-.03,0-.05,0-.02,0,.1.02.13.01.05.04.09.06.13.02.03.08.2.13.28.04.09.03,0,0,.06-.03.03-.07.06-.12.08-.4.39-.89,1.15-1.33,1.9-.55.93-.76,2.06-1.07,3.13-.34,1.18-.65,2.42-.9,3.6-.15.66-.17,1.44-.07,1.99.05.3.15.63.37.89.11.14.31.18.45.1.15-.07.26-.21.35-.35.07-.11.13-.23.17-.36l.14-.46c.12-.41.22-.83.32-1.25.04-.19.06-.38.11-.56.17-.69.38-.87.94-.88.13,0,.26-.02.38,0,.4.03.69.42.65,1-.05.85-.22,1.71-.53,2.59-.05.15-.24.62-.44.96-.1.18-.2.36-.3.54l-.37.44c-.52.54-1.11.84-1.82.8-1.05-.07-1.8-.93-2.25-2.08-.12-.28-.2-.58-.27-.88-.07-.3-.09-.43-.11-.65-.05-.4-.06-.79-.04-1.17h.05Z"/><path class="cls-3" d="M227.61,73.11c-.31-.15-.62-.3-.94-.43-.12-.05-.24-.04-.36-.1-.41-.18-.8-.46-1.21-.65-.18-.09-.37-.13-.56-.18-.23-.09-.51-.09-.64-.51-.04-.11-.03-.12.07-.22.05-.05.13-.14.22-.26.04-.05.09-.13.14-.17.04-.03.08-.06.11-.07.13-.03.25-.08.38-.09.12,0,.23.02.35.03.24.03.47.1.7.21.27.13.6.08.89.16.33.08.65.18.98.27.2.06.41.12.61.17.16.03.31.09.47.15l.28.1.08.03s.11.04.2.12c.09.07.16.18.2.28.04.06.05.27,0,.41-.02.05-.03.07-.05.11l-.07.1c-.19.25-.24.47-.33.67-.02.04-.02.09-.04.13-.07.12-.17.06-.59-.11l-.29-.11c-.33-.11-.54-.35-.53-.6.01-.34.09-.62.18-.85.05-.1.07-.25.11-.24l.29.22.24.17c.2.12.26.18.37.23.07.02.09.05.12.05.02,0,.03,0,.05,0-.03,0-.05.01-.08.02-.1.04-.15.18-.12.29-.02.16-.16.42-.22.63l-.1.3h0s.02.02-.01.02c-.24.03-.58-.14-.89-.24v-.05Z"/><path class="cls-3" d="M242.3,96.03l-1.16,1.64-.56.8c-.17.25-.41.59-.45.7-.14.25-.19.7-.29,1.11-.32,1.53-.53,3.24-.6,4.92-.02.75-.02,1.5-.01,2.25l.02,1.44c-.04.49-.33.98-.32,1.46-.03.3-.08.26-.16,0-.05-.13-.07-.3-.23-.51-.14-.21-.34-.45-.51-.72-.24-.96-.38-1.94-.51-2.93-.06-.99-.06-1.99.03-3,.12-1.21,0-2.47.27-3.8.03-.18.1-.38.15-.57.04-.18.13-.39.23-.6.1-.23.19-.37.28-.51l.27-.43,1.09-1.68c.44-.68.87-1.36,1.26-2.06.59-1.06,1.15-2.14,1.52-3.28.3-.88.4-1.8.52-2.71.02-.2.03-.4.06-.6.13-.74.33-.94,1.01-.98.15,0,.31-.03.46-.03.51.02.86.41.89,1.02.09,1.81-.37,3.71-1.17,5.44-.58,1.29-1.32,2.5-2.05,3.66l-.05-.03Z"/><path class="cls-3" d="M206.17,238.06c-1.16-2.04-2.32-4.09-3.46-6.16-.42-.75-.89-1.48-1.27-2.25-1.35-2.73-2.61-5.51-3.71-8.36-.52-1.25-.97-2.53-1.43-3.79l-.82-2.45c-.18-.85-.36-1.69-.41-2.57.19-.6.06-.49.52-.15.44.35,1.05,1.02,1.48,1.89.68,1.57,1.33,3.14,2.06,4.68.66,1.57,1.32,3.15,1.98,4.74.77,1.92,1.96,3.74,3.01,5.58,1.14,2.04,2.31,4.07,3.51,6.1l2.24,3.73c1.15,1.88,2.25,3.8,3.42,5.65.9,1.45,1.92,2.79,2.85,4.22.21.31.43.61.62.94.7,1.21.71,1.71.17,2.31-.12.14-.24.29-.37.4-.45.37-1.17.1-1.78-.7-1.79-2.39-3.39-5.04-5.03-7.72-1.21-2.01-2.42-4.04-3.63-6.06l.06-.04Z"/><path class="cls-3" d="M178.59,261.87c-4.66.98-9.32,2.04-13.94,3.19-1.69.42-3.35.93-5.04,1.36-5.94,1.53-11.86,3.14-17.68,5.04-2.59.83-5.15,1.78-7.63,2.81-1.6.65-3.16,1.39-4.7,2.14-.39.18-.76.39-1.14.58-.39.17-.78.35-1.15.54-.77.36-1.48.78-2.2,1.18-.97.4-1,.31-.63-.71.07-.29.25-.54.45-.83.2-.29.44-.64.73-.94.59-.61,1.29-1.36,2.23-1.81,6.51-3.37,13.29-5.65,20.25-7.51,4.16-1.1,8.42-2.49,12.67-3.62,4.67-1.25,9.37-2.39,14.08-3.47,2.9-.66,5.81-1.29,8.71-1.91,4.4-.94,8.85-1.78,13.24-2.63,3.41-.67,6.74-1.44,10.14-2.06.75-.13,1.48-.31,2.24-.41,2.82-.41,3.76-.25,4.44.55.15.18.35.36.45.55.32.65-.77,1.29-2.78,1.67-5.95,1.19-12.26,2.28-18.59,3.48-4.7.88-9.43,1.83-14.12,2.88l-.02-.07Z"/><path class="cls-3" d="M163.87,445.56c-.38.69-.83,1.38-1.27,2.08-.51.71-.89,1.38-1.93,2.28-.4.28-.95.52-1.34.61-.21.06-.39.09-.57.12-.18.03-.36.06-.52.07-.68.07-1.29.06-1.89.03-1.19-.06-2.32-.21-3.44-.39-2.22-.37-4.38-.87-6.52-1.42-4.27-1.12-8.44-2.48-12.55-3.99-4.11-1.53-8.16-3.21-12.12-5.14-3.95-1.95-7.84-4.06-11.41-6.89-1.01-.82-1.98-1.71-2.89-2.73-.45-.52-.89-1.06-1.27-1.69-.2-.3-.36-.65-.53-.99l-.22-.55c-.04-.09-.06-.18-.09-.3-.04-.14-.07-.28-.12-.42-.03-.12-.02-.24-.02-.36,0-.12-.02-.24,0-.36.03-.23.05-.5.1-.67.08-.36.17-.64.26-.94.19-.58.38-1.12.59-1.65.43-1.06.87-2.09,1.33-3.11.92-2.04,1.87-4.04,2.84-6.03,5.37-10.93,10.93-21.71,16.38-32.55,2.73-5.42,5.42-10.85,8.03-16.32,2.58-5.47,5.16-10.97,7.24-16.59.45-1.24.87-2.5,1.17-3.74.15-.6.23-1.26.32-1.9.11-.64.16-1.29.21-1.94.19-2.61.05-5.25-.31-7.86-.72-5.24-2.32-10.36-4.03-15.38-2.23-6.46-4.85-12.85-6.81-19.53-.97-3.34-1.7-6.78-2.04-10.28-.19-1.75-.19-3.52-.13-5.28.15-1.76.47-3.51.97-5.2.26-1.07.61-1.78.81-2.24.21-.46.34-.64.4-.59.06.05.04.35-.03.85-.06.5-.22,1.2-.28,2.11-.23,1.79-.14,4.34.19,7.33.35,2.99,1.12,6.44,2.15,10.17,1.8,6.62,4.39,13.11,6.76,19.76,2.35,6.64,4.58,13.52,5.18,20.85.24,3.67.11,7.38-.93,11.1-1.07,3.54-2.45,6.8-3.86,10.07-2.85,6.5-5.95,12.86-9.11,19.2-3.79,7.57-7.66,15.29-11.54,23.05-3.85,7.77-7.82,15.57-11.35,23.37-.36.8-.69,1.61-1.02,2.4-.16.39-.31.79-.43,1.16-.07.18-.12.38-.15.49-.01.07-.03.15,0,.22-.01,0,.07.28.14.45.07.19.17.39.26.59.22.39.46.79.77,1.17.58.77,1.32,1.47,2.08,2.14,1.56,1.33,3.3,2.52,5.1,3.61,3.62,2.18,7.47,4.04,11.4,5.72,3.93,1.68,7.94,3.17,12.01,4.5,4.07,1.31,8.19,2.49,12.35,3.27,1.24.23,2.48.42,3.69.51.61.04,1.21.07,1.78.04.28-.02.55-.05.78-.1.25-.06.34-.1.48-.18.11-.14.25-.26.4-.41l.46-.63c.31-.41.59-.92.89-1.37.57-.96,1.13-1.93,1.65-2.93,1.07-1.99,2.07-4.04,3.07-6.08,1.97-4.1,3.86-8.26,5.71-12.43,7.12-16.21,13.89-32.69,20.01-49.17,1.18-3.21,2.32-6.41,3.38-9.61.53-1.6,1.05-3.21,1.5-4.81.23-.8.44-1.61.6-2.37.18-.72.17-1.58.25-2.37.33-6.51-1.01-13.14-2.58-19.61-.73-2.85-1.54-5.63-2.43-8.46-1.64-5.27-2.88-8.68-3.63-11.12-.76-2.44-1.07-3.89-1.15-5.16-.04-.57-.16-1.31-.12-1.68.08-1.26,2.84,2.58,5.75,10.3,2.17,5.71,4.02,11.63,5.47,17.76.7,3.07,1.33,6.18,1.7,9.39.23,1.59.31,3.23.42,4.85,0,1.65.05,3.31-.16,5.01-.05.43-.04.82-.15,1.3-.09.45-.18.94-.29,1.32-.2.83-.43,1.61-.67,2.39-.47,1.55-.97,3.07-1.49,4.59-1.03,3.03-2.12,6.03-3.23,9.03-2.23,5.99-4.56,11.96-6.94,17.92-3.55,8.84-7.22,17.65-11.04,26.42-1.91,4.38-3.86,8.75-5.89,13.09-2.05,4.34-4.07,8.66-6.49,12.93l-.08-.02Z"/><path class="cls-3" d="M251.36,432.34c.24-1.69.24-3.55.17-5.4-.08-1.86-.23-3.73-.44-5.61-.41-3.76-1-7.52-1.65-11.28-1.32-7.52-2.97-14.99-4.72-22.44-1.29-5.44-2.72-10.84-4.11-16.25-4.93-19.08-10.33-38.05-16.22-56.87-2.62-8.34-5.4-16.69-8.39-24.83-.97-2.61-1.94-5.21-3.01-7.78-1.06-2.58-2.17-5.15-3.17-7.79-1.99-5.24-3.67-10.84-3.44-16.55.13-1.77.26-2.52.3-2.47.07.05.09.91.39,2.36.28,1.45.85,3.47,1.56,5.84.75,2.37,1.72,5.08,2.82,8.04,1.95,5.23,4.46,10.42,6.43,15.83,1.99,5.38,3.84,10.79,5.63,16.22,3.58,10.87,6.92,21.82,10.07,32.89,3.76,13.23,7.81,26.97,11.3,40.62,1.91,7.5,3.72,15.03,5.34,22.62,1.6,7.59,3.1,15.2,3.95,22.97.22,2.17.39,4.36.4,6.57,0,1.11-.03,2.23-.17,3.37-.06.57-.17,1.14-.29,1.72-.07.29-.17.59-.26.88-.08.3-.25.57-.42.97-.13.2-.32.37-.47.56-.16.18-.4.3-.55.42-.33.22-.63.37-.95.54-.62.31-1.23.59-1.84.85-1.23.52-2.45,1-3.69,1.44-2.47.9-4.96,1.7-7.47,2.43-6.21,1.82-12.5,3.37-18.89,4.51-3.19.56-6.41,1.03-9.67,1.26-1.63.09-3.27.16-4.94.05-.83-.07-1.67-.13-2.52-.31-.42-.06-.85-.18-1.28-.32-.23-.08-.4-.09-.67-.23l-.76-.36c-.49-.24-.84-.72-1.02-1.24-.09-.26-.18-.52-.24-.8-.05-.22-.09-.42-.12-.63-.14-.82-.21-1.61-.27-2.39-.36-5.65-.28-11.13-.41-16.62-.1-5.48-.25-10.94-.56-16.4-.14-2.4-.33-4.75-.54-7.16-.81-8.93-1.41-11.63-.93-13.72.09-.47.12-1.08.23-1.38.29-1.02,2.19,2.43,3.18,9.11,1.26,8.18,1.63,16.58,1.83,25.06.08,4.23.16,8.48.23,12.76.05,2.13.11,4.25.24,6.34.06,1.04.14,2.07.27,3.04l.11.69.06.32c.02.09.06.24.04.18h0s.04.02.04.02l.41.12c.29.11.64.17,1,.24.34.08.73.12,1.12.15.38.05.77.08,1.18.09,1.61.08,3.3.01,5-.13,3.47-.28,6.99-.84,10.5-1.51,3.51-.67,7-1.47,10.48-2.36,3.48-.88,6.93-1.88,10.35-2.95,1.71-.52,3.41-1.07,5.06-1.67.82-.3,1.64-.62,2.41-.96.74-.31,1.6-.85,1.4-.74.01-.02-.02.02.02-.05.03-.07.07-.11.09-.21l.16-.51c.08-.39.19-.76.23-1.2h.08Z"/><path class="cls-3" d="M212.97,467.96s.01.08.05.11c.04.03.04.05.14.09.29.09.61.17.94.23.65.12,1.35.17,2.03.16,1.37-.02,2.72-.31,3.85-.9.24-.12.44-.27.67-.42l.69-.57c.46-.38.89-.83,1.35-1.24,3.15-3.06,5.73-6.93,8.32-10.79l1.32-2c.24-.34.43-.65.72-1.01.35-.48.71-.92,1.05-1.43l.7-.54c.13-.07.21-.22.37-.22.16,0,.28.04.41.09.34.14.69.37,1.02.72.33.36.64.79.92,1.23l.64,1.01c.18.29.35.58.51.88.32.59.62,1.19.9,1.81.14.31.27.62.39.94.11.32.14.69.2,1.03.08.91-.08.79-.72.32-.31-.24-.88-.49-1.32-.91-.46-.41-.96-.9-1.39-1.49l-.84-1.13-.39-.51s0,0,0,0c0,0,0-.04,0,0-.04-.08-.02-.02-.03-.04-.01.01,0-.03-.04.03-.23.35-.44.69-.69,1.03l-1.44,2.09c-.97,1.41-1.97,2.83-3.05,4.22-2.02,2.6-3.94,5.51-6.6,7.87-.37.32-.77.61-1.15.92-.42.3-.89.61-1.36.83-.95.47-1.94.78-2.94.96-1,.18-2,.24-3,.19-1.02-.06-1.94-.18-3.03-.51l-.74-.28c-.23-.11-.46-.23-.68-.35-.55-.38-1.05-.91-1.12-1.59-.06-.67.14-1.33.51-1.94.08-.16.17-.31.27-.46l.27-.39.45-.6.9-1.13c1.07-1.31,2.08-2.61,2.95-4.01.83-1.37,1.6-2.94,2.35-4.43,1.14-2.34,2.11-4.72,2.94-7.1.18-.52.33-1.04.49-1.56.6-1.94.8-2.34,1.63-2.72.18-.09.37-.23.55-.3.31-.12.59.02.81.51.21.48.28,1.22.14,2.07-.42,2.51-1.3,4.79-2.26,7.06-.97,2.26-2.1,4.45-3.22,6.63-.92,1.77-2.06,3.38-3.23,4.86l-1.69,2.11c-.12.16-.27.35-.35.47,0,0-.01,0-.02.01-.02.02-.03.04-.04.06l-.09.03Z"/><path class="cls-3" d="M146.52,471.68c-2.3.55-4.54.64-6.8.43-2.24-.25-4.53-.81-6.57-2.08-.74-.46-1.45-.99-2.07-1.63-.59-.62-1.13-1.28-1.58-1.99-1.57-2.5-2.36-5.16-3.35-7.57-.25-.6-.5-1.2-.79-1.77l-.91-1.78-1.86-3.57c-.53-.99-1.07-1.99-1.63-2.96l-.42-.73-.21-.36-.18-.3c-.15-.22-.29-.45-.46-.63-.04-.06-.1-.03-.14.02-.14.12-.25.26-.36.39-.12.14-.17.22-.48.56l-1.51,1.7c-1.02,1.13-2.02,2.29-3.33,3.18-.48.21-.69.29-.7.26-.01-.03.14-.2.25-.65.1-.45.33-1,.56-1.7.27-.67.68-1.37,1.19-2.09l1.65-2.22.21-.28.12-.15.21-.26c.28-.34.57-.75.9-1.05.33-.3.67-.55.99-.65l.96-.04c.34.21.7.43,1.05.72.31.43.63.82.92,1.29l.53.87.43.72c.56.96,1.11,1.92,1.61,2.91,1.02,1.98,1.99,3.9,2.95,5.98,1.58,3.59,2.64,7.36,4.91,9.97,1.17,1.42,2.86,2.32,4.74,2.83,1.88.5,3.91.62,5.89.44.84-.08,1.68-.21,2.48-.41.2-.05.39-.11.59-.17l.44-.16c.2-.09.42-.17.55-.36.23-.37-.01-.81-.28-1.11-.55-.61-1.32-1.2-2.09-1.77l-2.39-1.73c-.8-.6-1.61-1.22-2.37-1.96-.37-.38-.73-.79-1.06-1.26-.34-.51-.53-.92-.78-1.39-1.41-2.84-2.4-5.74-3.14-8.72-.16-.66-.33-1.3-.45-1.97-.4-2.5-.17-3.34.53-3.94.16-.14.31-.31.47-.39.52-.28,1.13.67,1.61,2.37.69,2.53,1.36,5.12,2.25,7.6.45,1.24.94,2.45,1.52,3.56.14.29.3.54.45.81.08.15.12.18.18.28.07.09.13.18.22.27.33.37.74.79,1.2,1.22,1.1,1.01,2.44,1.98,3.8,3.09.68.57,1.38,1.15,2.09,1.96.45.55,1,1.29,1.16,2.03.19.74.14,1.54-.2,2.23-.36.7-1.02,1.21-1.79,1.57l-.58.25-.39.13c-.25.08-.49.15-.73.22l-.02-.06Z"/><path class="cls-3" d="M135.51,58.84c-7.88-1.44-15.78-2.76-23.7-3.9-2.89-.42-5.8-.72-8.69-1.11-10.21-1.33-20.44-2.48-30.71-2.98-4.56-.21-9.15-.32-13.65-.16-5.78.25-11.51.95-16.83,2.94-1.66.63-1.59.39-.43-.76.59-.54,1.45-1.4,2.69-2.05,1.23-.66,2.75-1.31,4.45-1.69,3.02-.74,6.08-1.04,9.11-1.21,3.03-.17,6.05-.19,9.06-.15,6.01.12,12.03.56,18.03,1.19,7.18.77,14.65,1.4,21.97,2.33,8.04,1.03,16.05,2.26,24.04,3.6,4.92.82,9.83,1.71,14.72,2.62,7.42,1.38,14.84,2.92,22.18,4.47,5.7,1.21,11.32,2.27,16.94,3.67,1.24.3,2.46.6,3.7.95,4.58,1.39,6.04,2.38,6.55,3.67.11.31.25.65.23.87-.05.38-.53.41-1.25.27-.81-.13-2.02-.48-3.67-.91-4.84-1.32-9.97-2.48-15.16-3.64-5.19-1.16-10.48-2.29-15.79-3.39-7.89-1.62-15.83-3.18-23.79-4.56v-.08Z"/><path class="cls-3" d="M21.26,62.15c-.39,2.14-.55,4.36-.33,6.44.12,1.02.32,2.06.68,2.82.39.83.97,1.57,1.69,2.19,1.06.89,2.46,1.39,3.81,1.55,1.19.14,2.37-.08,3.11-.71.77-.61,1.25-1.82,1.5-3.17.52-2.74.26-5.81.96-9,.17-.71.4-1.43.78-2.14.38-.67.72-1.19,1.1-1.78.75-1.15,1.55-2.27,2.44-3.33.58-.67,1.19-1.34,1.87-1.94.67-.61,1.44-1.12,2.23-1.58.81-.44,1.7-.7,2.56-.93.87-.22,1.77-.26,2.63-.33,1.09-.03.94-.02.12.43-.82.44-2.18,1.65-3.5,2.79-1.25.91-2.36,1.92-3.43,3.09-1.06,1.17-2.01,2.51-2.91,3.91l-.33.53c-.12.18-.23.36-.28.46-.14.24-.26.55-.36.87-.2.66-.34,1.42-.43,2.22-.19,1.61-.24,3.36-.45,5.18-.13,1.09-.27,2.22-.61,3.4-.33,1.16-.89,2.45-1.97,3.42-1.07.99-2.45,1.45-3.74,1.58-1.3.13-2.57-.05-3.75-.44-2.58-.84-4.87-2.76-5.93-5.34-.51-1.3-.74-2.57-.83-3.83-.1-1.25-.09-2.49,0-3.72.1-1.51.35-3,.7-4.47.34-1.47.81-2.91,1.42-4.3.91-2.09,2.19-4.16,4.08-5.65,1.86-1.48,4.07-2.37,6.28-2.87,1.72-.41,3.46-.6,5.2-.64,1.73-.06,3.47.04,5.19.31.76.1,1.5.24,2.26.41,2.8.69,3.55,1.42,3.82,2.26.06.2.16.41.17.57.01.56-1.17.51-3.03.07-2.79-.62-5.72-.98-8.63-.86-1.45.06-2.9.21-4.27.55-.7.13-1.35.39-2.01.6-.62.29-1.27.53-1.82.9-.87.48-1.6,1.13-2.26,1.82-.63.73-1.21,1.56-1.68,2.51-.96,1.86-1.6,3.98-1.96,6.14h-.08Z"/><path class="cls-3" d="M343.71,172.09c.57,8.42-.08,16.86-1.58,25.08-1.51,8.23-3.87,16.26-6.77,24.05-2.08,5.7-4.45,11.28-7.06,16.73-9.33,19.18-20.89,37.07-33.23,54.3-5.5,7.63-11.12,15.24-16.79,22.64-7.29,9.51-14.57,19.09-22.57,28.01-2.52,2.76-2.45,2.18-.93-.65,1.5-2.84,4.43-7.94,8.6-13.42,7.51-9.63,14.93-19.31,22.24-29.08,3.66-4.89,7.23-9.84,10.77-14.82,3.5-5.01,6.98-10.05,10.33-15.19,8-12.3,15.45-25.7,21.45-39.41,6.57-15.03,11.48-31,12.22-47.38.21-2.51.06-5.03.06-7.54v-.94s-.09-.94-.09-.94l-.16-1.88c-.12-1.25-.18-2.51-.34-3.76l-.59-3.72-.3-1.86c-.1-.62-.28-1.23-.42-1.84l-.89-3.67-.44-1.84c-.16-.61-.38-1.2-.57-1.8l-1.79-5.43-2.22-5.28c-.19-.44-.36-.88-.56-1.32l-.66-1.27-1.32-2.54c-.45-.84-.86-1.71-1.33-2.53l-1.52-2.43c-4.01-6.49-8.8-12.51-14.3-17.73-1.01-1.07-2.14-2.02-3.25-2.98-1.11-.96-2.21-1.93-3.33-2.87-1.17-.88-2.33-1.76-3.5-2.64l-1.75-1.31c-.59-.43-1.21-.81-1.82-1.22l-3.64-2.4c-1.21-.8-2.5-1.48-3.75-2.23-1.27-.71-2.49-1.5-3.79-2.15l-3.89-2c-.57-.29-1.14-.58-1.71-.87l-1.74-.78c-1.16-.53-2.32-1.05-3.5-1.59-1.08-.52-2.1-.94-3.03-1.32-.93-.39-1.77-.75-2.54-1.07-1.52-.69-2.75-1.24-3.77-1.7-2.03-.92-3.14-1.63-3.98-2.38-.38-.34-.91-.73-1.11-.99-.34-.44.46-.45,2.21-.12.88.16,1.99.44,3.31.8,1.33.34,2.85.84,4.52,1.47,9.98,3.68,19.9,8.57,29.14,14.9,1.19.74,2.27,1.64,3.4,2.47,1.12.85,2.24,1.7,3.37,2.55l3.21,2.77c1.06.94,2.17,1.82,3.15,2.85,2,2.02,4.11,3.94,5.92,6.16l2.81,3.24,2.56,3.45c5,6.88,9.05,14.48,12.01,22.48l1.98,6.08c.58,2.05,1.02,4.14,1.53,6.2.57,2.05.78,4.19,1.15,6.29.4,2.1.49,4.23.68,6.36l-.09.03Z"/><path class="cls-3" d="M326.41,271.27c7.43-11.45,15.27-22.62,23.57-33.45,1.51-1.98,3-3.97,4.55-5.92,1.55-1.95,3.05-3.94,4.65-5.84,11.2-13.5,23.2-26.41,36.55-37.85,2.92-2.58,6.01-4.98,9.05-7.43,1.57-1.16,3.14-2.33,4.7-3.49,1.55-1.18,3.21-2.2,4.81-3.3,2.04-1.44,4.24-2.63,6.37-3.94,1.06-.67,2.19-1.21,3.3-1.79l3.34-1.72c1.15-.51,2.33-.95,3.49-1.42,1.17-.46,2.32-.96,3.55-1.25l3.62-1.04c.59-.22,1.25-.2,1.86-.3l1.87-.23c3.1-.32,2.63-.45.19.54-1.22.5-2.89,1.36-4.86,2.39-.99.51-2.06,1.05-3.2,1.6-1.12.62-2.3,1.26-3.55,1.88-8.95,4.17-17.19,9.85-25.1,15.92-7.89,6.13-15.37,12.88-22.58,19.98-8.62,8.51-16.76,18.19-24.48,27.89-8.5,10.68-16.53,21.74-24.13,33.1-4.64,7.01-9.21,14.08-13.51,21.31-6.56,10.92-12.82,22.09-18.49,33.4-4.39,8.79-8.35,17.59-12.07,26.55-.85,1.96-1.59,3.92-2.41,5.91-.76,1.85-1.41,3.37-1.96,4.65-.53,1.28-.99,2.3-1.4,3.13-.82,1.66-1.47,2.55-2.19,3.2-.33.29-.7.7-.97.85-.91.48-.22-2.76,1.75-8.32,3.04-8.19,6.47-16.5,10.26-24.78,3.84-8.26,7.96-16.53,12.34-24.67,6.5-12.11,13.55-23.98,20.99-35.57l.08.03Z"/><path class="cls-3" d="M438.36,177.86c2.14-1.27,4.33-2.44,6.52-3.6.81-.41,1.57-.9,2.38-1.29,2.86-1.39,5.77-2.66,8.68-3.89,1.32-.5,2.59-1.07,3.91-1.59.85-.33,1.73-.65,2.66-.82.92-.23,1.94-.04,2.82.21.55.21.44.26-.04.37-.24.07-.58.18-.94.36-.18.09-.38.19-.57.3-.1.05-.2.1-.3.18l-.32.1c-1.56.47-3.06,1.37-4.68,2.22-1.58.89-3.27,1.54-4.95,2.23-2.03.81-3.97,1.99-5.92,3.04-2.15,1.16-4.27,2.37-6.36,3.64-1.28.78-2.55,1.59-3.8,2.43-1.87,1.3-3.78,2.57-5.5,4.03-1.35,1.12-2.53,2.4-3.73,3.65-.26.28-.52.55-.78.83-1.02.99-1.49,1.15-2.24.82-.17-.07-.36-.13-.5-.23-.5-.32-.41-1.07.23-1.95,1.93-2.59,4.48-4.83,7.15-6.89,1.97-1.55,4.12-2.9,6.24-4.23l.04.06Z"/><path class="cls-3" d="M471.08,152.18c.9-.06,1.81-.15,2.72-.3.34-.06.62-.17.93-.25,1.08-.26,2.08-.79,2.98-1.58.41-.33.79-.72,1.14-1.12.44-.52.99-.98,1.52-1.46.17-.14.18-.1.14.1-.04.2-.07.6-.21,1.01-.23.73-.61,1.36-1.06,1.97-.42.63-1.07,1.11-1.74,1.53-.81.49-1.66,1.03-2.57,1.32-.99.3-1.95.52-2.96.63-.61.07-1.23.11-1.85.14-.94.04-1.88-.03-2.82-.13-.73-.08-1.48-.1-2.23-.3-.17-.04-.33-.08-.5-.14-.6-.24-.7-.52-.51-1.02.04-.12.08-.24.14-.35.2-.37.58-.55.93-.48,1.07.16,2.11.36,3.28.42.86.05,1.75.05,2.65-.04v.05Z"/><path class="cls-3" d="M469.11,130.69l4.56-.42c.56-.05,1.1-.17,1.66-.21,1.96-.19,3.94-.25,5.91-.34.88-.03,1.75-.05,2.62-.08,1.12-.02,2.24-.02,3.35.06.35.02.3.11,0,.23-.29.12-.82.3-1.45.38-1.1.23-2.21.47-3.32.7-1.1.26-2.22.33-3.35.44-1.35.12-2.74.39-4.11.6l-4.55.63-2.81.36c-1.42.19-2.86.34-4.27.55-1.1.17-2.17.43-3.29.6-.25.04-.5.07-.76.09-.47.04-.8-.03-1.04-.17-.22-.13-.33-.33-.39-.62-.03-.13-.06-.27-.07-.39,0-.43.4-.77.95-.88,1.78-.4,3.77-.7,5.79-.98,1.51-.2,3.03-.41,4.54-.61v.05Z"/><path class="cls-3" d="M429.83,140.79c-.1.28-.16.47-.03.71.06.09.17.14.27.23.4.31,1.05.68,1.66.89.28.09.57.14.85.23.37.1.75.18,1.13.22.12.02.11.05,0,.12-.1.06-.28.19-.51.26-.4.16-.83.36-1.26.39-.43,0-.85-.06-1.26-.2-.48-.16-1.02-.2-1.59-.51-.63-.32-1.17-1.11-1.24-1.82-.06-.44-.03-.86.07-1.24.14-.59.46-1.09.67-1.55.18-.36.24-.76.34-1.1.03-.07.04-.15.08-.21.14-.24.29-.25.76-.14l.32.07c.35.09.59.33.62.64.02.22.03.45.02.66-.04.2-.09.38-.15.55-.12.34-.27.63-.37.88-.18.35-.23.64-.33.91h-.05Z"/><path class="cls-3" d="M427.83,139.58c.24-.38.49-.76.75-1.13.09-.14.16-.28.26-.41.34-.46.7-.91,1.07-1.34.16-.19.32-.39.48-.59.2-.25.4-.51.65-.71.15-.13.25.28.08.6-.34.55-.63,1.11-1.05,1.6-.25.3-.41.67-.6,1.01-.21.37-.42.75-.62,1.13-.12.24-.24.47-.35.72-.16.37-.33.74-.44,1.12-.08.3-.09.62-.12.93,0,.07,0,.14,0,.21-.04.25-.14.3-.48.27l-.24-.03c-.26-.04-.44-.2-.46-.41-.04-.61.17-1.19.42-1.75.19-.42.41-.82.64-1.21h.02Z"/><path class="cls-3" d="M432.1,133.41c.41-.52.83-1.02,1.26-1.51.15-.18.28-.38.44-.56.59-.6,1.14-1.22,1.8-1.74.28-.24.55-.49.82-.74.34-.32.7-.62,1.09-.88.12-.08.15-.02.12.12-.03.14-.1.4-.24.62-.55.78-.98,1.61-1.67,2.25-.42.38-.72.88-1.06,1.33-.38.5-.75,1-1.1,1.52-.22.32-.43.64-.63.97-.3.5-.61,1-.84,1.54-.17.42-.25.87-.34,1.31-.02.1-.03.2-.05.29-.08.36-.31.39-.75.3-.1-.02-.21-.04-.3-.06-.32-.09-.54-.34-.57-.66.05-.89.44-1.7.89-2.47.33-.57.72-1.12,1.11-1.65l.03.02Z"/><path class="cls-3" d="M474.48,153.3c.61-.12,1.09-.37,1.62-.85.53-.46,1.03-1.11,1.55-1.83,1.08-1.5,2.19-3.06,3.36-4.52,2.33-2.95,4.83-5.72,7.39-8.42,1.87-1.97,3.71-3.94,5.62-5.84l5.02-5.02.23-.22c.06-.07.18-.12.11-.22-.06-.19-.15-.3-.36-.49-.74-.64-1.73-1.21-2.75-1.71-4.13-1.98-8.7-3.33-13.23-4.59-4.04-1.1-8.17-2.01-12.25-2.83-2.62-.53-5.25-1.06-7.88-1.6-2.63-.51-5.25-1.11-7.85-1.81-1.59-.58-1.37-.57.1-.74.74-.1,1.76-.14,3-.16.62,0,1.29-.02,2,.02.7.05,1.45.13,2.21.24,2.72.41,5.44.83,8.14,1.33,2.7.55,5.39,1.14,8.07,1.78,5.37,1.31,10.73,2.75,15.97,4.88,1.57.66,3.14,1.34,4.7,2.31.39.25.78.5,1.16.82l.3.24c.12.11.23.26.35.38l.35.39.17.2.11.22c.14.3.33.57.42.9l.16.48s.03.08.04.12l-.07.1-.14.2c-.2.26-.31.53-.59.79l-.69.73c-2.36,2.43-4.74,4.88-7.1,7.3-5.19,5.31-10.21,10.65-14.29,16.86-.7.97-1.54,1.99-2.75,2.69-1.23.7-2.63.86-3.87.8-1.26-.06-2.4-.28-3.54-.51-1.14-.22-2.28-.42-3.4-.71-6.85-1.55-13.37-4.19-19.85-6.37-5.04-1.73-10.09-3.01-15.2-3.71-1.12-.19-2.24-.2-3.37-.33-4.22-.31-5.55-.33-6.5-1.2-.22-.19-.5-.37-.64-.55-.22-.31.1-.59.9-.86.4-.14.92-.25,1.54-.34.31-.05.65-.09,1.01-.13.36,0,.75-.02,1.16-.02,4.87-.07,9.88.72,14.74,2.01,4.87,1.28,9.59,3.04,14.28,4.67,3.48,1.22,6.97,2.35,10.47,3.34,1.76.46,3.52.93,5.29,1.27,1.8.4,3.52.72,4.74.45l.02.07Z"/><path class="cls-3" d="M432.22,131.54c1.61-1.41,3.21-2.83,4.71-4.35.56-.54,1.04-1.16,1.59-1.72,1.91-1.98,3.82-3.97,5.53-6.15.77-.96,1.51-1.94,2.2-2.94.43-.65.86-1.3,1.36-1.92.46-.64.95-1.26,1.49-1.85.34-.37.42-.25.41.23-.02.47-.03,1.36-.39,2.23-1.28,3.04-3.16,5.77-5.45,8.15-1.34,1.45-2.58,3.07-3.96,4.54-1.52,1.6-3.11,3.14-4.74,4.62-1,.92-2.02,1.8-3.04,2.7-1.57,1.32-3.14,2.64-4.7,3.95-1.2,1.03-2.29,2.13-3.45,3.19-.25.23-.49.48-.76.7-1,.8-1.44.91-2.06.54-.14-.08-.3-.16-.42-.26-.41-.34-.26-1,.38-1.7,1.9-2.06,4.14-3.89,6.35-5.77,1.65-1.39,3.3-2.78,4.9-4.22l.04.04Z"/><path class="cls-3" d="M476.97,130.57c-3.08.53-6.16,1.1-9.22,1.78-1.12.24-2.22.57-3.34.81l-3.25.69-1.66.33c-.92.23-1.77.24-2.44-.08-.19-.3-.42-.52-.56-.88-.14-.32-.33-.7-.43-.97l-.49-1.31c-.31-.87-.64-1.74-.91-2.63-.55-1.72-1.16-3.42-1.75-5.11-.39-1.08-.75-2.18-1.08-3.28-.16-.55-.31-1.11-.44-1.68-.08-.28-.1-.58-.1-.87l-.03-.89c0-.75.08-.66.55-.17.24.25.59.59,1.04.99.39.42.69.95.95,1.55.92,2.13,1.75,4.29,2.58,6.47.4,1.09.84,2.17,1.2,3.27l.53,1.66c.17.53.42,1.24.36,1.23,0,.06.02.13.04.2.03.1.15.06.23.06h.14s.1-.03.1-.03l.24-.05c.63-.13,1.28-.28,1.92-.44,1.29-.31,2.58-.65,3.88-.94,3.1-.69,6.21-1.35,9.34-1.97,1.92-.37,3.86-.72,5.79-1.05,2.93-.5,5.89-.88,8.84-1.23,2.29-.25,4.55-.6,6.94-.51.52,0,1.05.04,1.59.13,1,.17,1.68.42,2.09.77.39.33.53.76.54,1.13,0,.18.03.36-.01.5-.06.24-.32.34-.68.39-.34.03-.84.12-1.39.01-1.75-.18-3.7-.05-5.7.07-2,.15-4.06.37-6.14.65-3.08.41-6.19.9-9.28,1.48l-.02-.07Z"/><path class="cls-3" d="M432.52,135.95c1.7-.6,3.41-1.18,5.12-1.75.62-.22,1.23-.47,1.86-.65,2.24-.64,4.49-1.22,6.73-1.79.99-.25,1.97-.57,2.95-.86.63-.17,1.26-.37,1.89-.52.32-.07.66-.09.99-.12.16-.03.34,0,.52.06.18.03.34,0,.51,0,.42,0,.38.07.1.35-.14.16-.35.29-.54.7-.22.31-.51.53-.84.74-2.43,1.07-4.94,1.78-7.52,2.44-1.55.37-3.05,1.09-4.57,1.66-1.67.62-3.36,1.21-5.04,1.85-1.03.39-2.06.79-3.08,1.21-1.54.64-3.11,1.26-4.6,2-1.16.57-2.23,1.28-3.33,1.92-.24.14-.47.31-.72.44-.47.24-.79.36-1.08.33-.3-.06-.53-.21-.78-.48-.11-.12-.24-.23-.34-.36-.16-.21-.18-.46-.11-.74.08-.28.25-.63.57-.85,1.85-1.45,3.98-2.62,6.22-3.57,1.65-.73,3.36-1.39,5.05-2.05l.03.06Z"/><path class="cls-3" d="M471.48,147.53c-.35-.95-.72-1.9-1.11-2.84-.14-.34-.35-.65-.49-1-.46-1.24-.9-2.5-1.42-3.71-.23-.54-.46-1.08-.72-1.6-.16-.34-.34-.67-.47-1.02-.13-.35-.24-.72-.33-1.09-.05-.23.07-.27.33-.18.25.09.69.26,1.01.58.53.57.98,1.19,1.43,1.81.44.63.74,1.33,1.04,2.04.33.87.95,1.62,1.35,2.48.46.93.88,1.88,1.3,2.84l.76,1.77c.39.89.73,1.81,1.16,2.67.32.68.79,1.28,1.17,1.94.09.14.19.28.26.43.28.55.07.84-.49,1.18-.13.08-.26.17-.4.23-.45.22-.95.14-1.32-.18-.91-1.03-1.42-2.26-1.96-3.5-.38-.93-.77-1.87-1.15-2.81l.05-.03Z"/><path class="cls-3" d="M220.12,131.52c-.96.07-1.92.16-2.89.21-.35.02-.69.12-1.05.13-1.25.05-2.51.06-3.76.09-.55.01-1.11.09-1.66.1-.35.01-.71.03-1.07.02-.36-.03-.72-.14-1.07-.24-.22-.08-.19-.29,0-.58.18-.28.5-.7.87-.88.34-.12.67-.2,1.01-.29.34-.09.67-.2,1.01-.2.69-.06,1.38-.08,2.1-.05.85.03,1.7-.23,2.56-.36.94-.15,1.89-.26,2.85-.38l1.76-.24c.89-.14,1.79-.24,2.66-.44.68-.16,1.31-.48,1.98-.72.15-.05.28-.14.43-.17.56-.16.78.07,1,.76.05.16.11.32.15.48.13.53-.03,1.04-.39,1.31-1.1.66-2.34.92-3.61,1.14-.94.16-1.9.26-2.86.39v-.06Z"/><path class="cls-3" d="M225.58,91.38c.27,1.28.72,2.59,1.17,3.95.17.49.4.98.56,1.48.55,1.8,1.03,3.72,1.02,5.67,0,.86.04,1.72-.11,2.55-.13,1.08-.43,2.13-.9,3.09-.14.3-.26.22-.38-.1-.11-.32-.28-.87-.28-1.45-.11-2.09-.25-3.93-.48-5.93-.12-1.21-.66-2.39-1.11-3.6-.49-1.33-1.02-2.7-1.4-4.16-.25-.89-.4-1.82-.52-2.75-.17-1.48.17-2.95.65-4.26.38-1.02.77-2.02,1.3-2.95.11-.21.24-.4.39-.58.26-.35.49-.54.7-.63.2-.1.38-.11.57-.08.09.02.18.02.25.04.23.08.22.51.05,1.12-.28.89-.64,1.7-.96,2.52-.31.82-.57,1.64-.69,2.43-.08.59-.15,1.17-.11,1.74.05.57.15,1.25.31,1.87l-.05.02Z"/><path class="cls-3" d="M145.75,251.09s.19.39.32.74c.14.35.28.68.28.68.02,0-.06.09-.19.23-.2.2-.47.43-.66.56-.13.09-.24.16-.27.15-.11,0-.2-.03-.27-.08-.09-.06-.15-.14-.22-.21-.06-.06-.06-.17-.19-.17-.19,0-.16-.19-.35-.2-.18,0-.23-.12-.36-.16-.17-.06-.29-.17-.44-.25-.05-.02-.14,0-.18-.04-.05-.04-.05-.13-.1-.17-.06-.05-.17-.07-.24-.12-.11-.07-.2-.16-.3-.24-.03-.02-.11,0-.13-.03-.03-.04-.01-.12-.04-.16-.04-.06-.1-.1-.16-.15,0,0-.04.01-.06.02-.19.07-.23.02-.27-.04-.07-.1-.17-.18-.26-.27-.07-.06-.85-1.61-.9-1.63,0,0,0-.01-.02-.01-.03-.01.05-.11-.15.03-.07.05-.04,0-.03-.02,0-.02.05-.07-.08.03-.06.04-.04.01-.02-.02.14-.18.28-.35.06-.22-.07.04,0-.04-.03-.03-.12.02-.03-.14-.25-.04-.08.04.03-.09.05-.15,0-.02.03-.05,0-.04-.13.06-.14.02-.11-.06.05-.11-.07-.08-.11-.12-.04-.03-.09-.05-.12-.09-.05-.05-.06-.13-.13-.15-.02,0-.09.02-.1,0-.05-.04-.14-.03-.19-.06-.03-.02,0-.08,0-.11-.06-.13-.11-.26-.18-.38-.03-.05-.11-.05-.1-.12,0-.12-.02-.21-.13-.23-.08-.01,0-.16,0-.25,0-.09-.01-.18-.02-.26,0-.07.45-.45.92-.82.24-.18.47-.36.64-.49.18-.13.29-.21.3-.2.01.1,1.08.51,1.14.6.08.12.14.25.22.36.06.08.16.12.22.19.06.07.08.19.16.25.06.05.18.05.27.07.01,0,0,.02.01.04,0,.02,0,.04.01.05.02.01.05.01.08.02.01,0,.02,0,.03,0,.01,0,.06-.04.05-.02-.11.16-.06.18,0,.2.01,0,0,.03.01.03.16.01.39-.04.32.17-.01.04-.01.07.1,0,.06-.04.08-.03.06,0-.11.18.12.06.14.13.01.07.12.06.11.15-.01.1.14.06.16.12.02.07.28.26.34.32.04.05.06.11.1.16.1.11.19.23.3.33.13.12.27.26.4.38.09.1.49,1.72.6,1.77Z"/><path class="cls-3" d="M136.89,209.78c-.05.13-1.69.58-1.69.62-.02.02-.07-.02-.15-.08-.11-.09-.22-.22-.27-.32-.03-.07-.06-.14-.06-.16.03-.1.07-.19.12-.27.06-.1.14-.2.2-.29.06-.08.15-.12.17-.24.02-.2.18-.23.22-.4.03-.18.15-.25.21-.38.08-.18.2-.31.3-.48.03-.05.03-.14.06-.19.05-.05.14-.06.19-.12.07-.07.1-.17.17-.24.1-.11.19-.21.29-.32.03-.03.02-.1.05-.13.04-.03.12-.03.16-.06.07-.05.12-.12.17-.18,0,0,0-.04-.01-.05-.04-.17.01-.23.08-.27.11-.09.2-.19.3-.3.07-.08,1.74-1.09,1.77-1.14,0,0,.01-.01.02-.02.02-.03.11.04-.01-.15-.04-.07,0-.04.02-.04.02,0,.07.04-.02-.08-.04-.05-.01-.04.02-.02.17.12.33.23.22.02-.03-.06.04,0,.04-.03,0-.12.15-.05.07-.26-.03-.08.09.02.15.03.02,0,.05.03.04,0-.05-.12,0-.14.07-.12.11.03.1-.08.13-.13.03-.05.06-.1.11-.13.06-.05.14-.06.18-.14.01-.02,0-.08.01-.1.05-.05.06-.14.1-.19.02-.03.09,0,.12-.02.14-.07.28-.14.42-.22.05-.03.06-.11.14-.12.12,0,.22-.04.25-.16.02-.08.17-.02.26-.03.1-.01.19-.03.28-.05.07-.02.42.39.75.81.16.21.32.42.44.57.11.16.19.26.18.27-.1.02-.67,1.12-.77,1.19-.13.09-.27.17-.4.27-.08.07-.14.17-.23.24-.09.07-.21.1-.29.18-.06.06-.08.18-.11.27,0,.01-.03.01-.04.01-.02,0-.04,0-.05.02-.02.02-.02.05-.03.08,0,.01-.01.02,0,.03,0,.01.03.06.02.05-.15-.09-.18-.04-.21.02,0,.01-.03,0-.04.02-.04.15-.02.37-.22.33-.04,0-.07,0-.02.09.03.06.02.07-.01.06-.17-.09-.08.12-.16.14-.08.02-.08.12-.18.12-.1,0-.08.14-.15.16-.07.03-.31.29-.39.35-.06.04-.13.07-.19.11-.14.1-.27.21-.4.32-.15.14-.32.28-.47.41-.11.1-1.83.73-1.92.81Z"/><path class="cls-3" d="M215.21,161.77s-.35.09-.65.14c-.29.07-.65.04-.64.06-.01.01-.08-.06-.19-.19-.16-.2-.34-.44-.44-.62-.07-.12-.13-.23-.13-.25,0-.1.01-.19.04-.26.04-.08.08-.16.14-.21.05-.05.14-.03.14-.15,0-.18.16-.12.15-.3-.01-.18.09-.2.12-.32.04-.16.13-.25.19-.38.02-.04,0-.13.03-.16.04-.04.12-.02.16-.05.05-.05.06-.14.11-.19.06-.08.14-.14.21-.22.02-.02,0-.1.03-.11.03-.02.1.01.14,0,.05-.03.08-.08.12-.12,0,0-.01-.04-.02-.06-.07-.19-.02-.22.02-.25.09-.05.15-.13.22-.2.05-.06,1.37-.51,1.39-.55,0,0,0,0,.01-.01,0-.02.1.07-.03-.15-.05-.08,0-.04.01-.03.02,0,.07.06-.03-.08-.04-.07-.01-.04.01-.01.16.17.32.33.2.09-.04-.07.03,0,.03-.02-.02-.12.12,0,.02-.23-.04-.09.09.05.13.08.02.01.05.04.03,0-.06-.14-.03-.14.05-.09.1.06.07-.05.1-.08.03-.03.04-.07.08-.1.04-.03.11-.02.13-.09,0-.02-.02-.08,0-.1.03-.04.03-.12.05-.16.01-.02.07.02.1.02.11-.03.22-.07.32-.11.04-.02.03-.1.1-.08.1.02.18.02.19-.09,0-.08.14.03.21.04.09.03.13-.01.25.06.1.06.43.52.76,1.01.17.25.33.5.45.69.13.19.21.33.21.33-.08,0-.41.9-.49.94-.1.05-.21.09-.3.15-.06.04-.09.13-.16.17-.06.04-.16.04-.21.1-.04.05-.03.16-.05.24,0,.01-.02,0-.03,0-.01,0-.03,0-.04,0,0,.02,0,.05-.01.07,0,0,0,.01,0,.03,0,.01.04.07.02.05-.14-.13-.16-.09-.17-.04,0,.01-.03,0-.03,0,0,.14.05.37-.14.27-.04-.02-.06-.03,0,.09.04.07.03.08,0,.05-.16-.14-.05.1-.11.1-.06,0-.05.1-.13.07-.09-.03-.04.12-.1.12-.06,0-.22.21-.27.25-.04.03-.1.03-.14.06-.1.07-.19.14-.28.21-.11.09-.21.2-.32.29-.09.06-1.44.22-1.51.27Z"/><path class="cls-3" d="M134.87,130.27c1.07.9,2.33,1.4,3.7,1.68s2.85.48,4.27.3c2.71-.33,5.19-2.08,5.45-4.96.06-.67-.62-1.25-1.25-1.25-.73,0-1.19.57-1.25,1.25-.15,1.64-2.11,2.44-3.56,2.51-1.04.05-2.07-.08-3.08-.29-.88-.18-1.81-.42-2.51-1.01-.52-.44-1.26-.51-1.77,0-.45.45-.52,1.33,0,1.77h0Z"/><path class="cls-3" d="M154.48,123.55c.06.06.11.13.16.19-.07-.09-.06-.07.03.05.06.11.13.21.19.32.02.03.16.35.08.15.06.15.09.3.14.46.06.24.03-.14,0,.12,0,.07,0,.15,0,.22.02-.14.02-.16,0-.07-.01.05-.03.1-.05.15.06-.14.05-.14-.01-.01.08-.09.09-.11.03-.04-.03.04-.07.07-.1.11-.08.08-.18.15-.25.23-.07.06-.05.04.06-.04-.05.04-.11.08-.16.11-.18.12-.37.2-.56.31-.08.04-.06.03.07-.03-.06.02-.12.05-.19.07-.09.03-.19.06-.29.09-.11.03-.23.06-.35.08-.07.01-.44.06-.12.03-.45.05-.91.06-1.36.02-.06,0-.51-.06-.2-.01-.11-.02-.21-.03-.32-.05-.24-.04-.49-.1-.73-.17-.2-.06-.4-.12-.6-.19-.05-.02-.47-.18-.18-.06-.09-.04-.18-.08-.27-.12-.2-.1-.4-.2-.6-.32-.08-.05-.16-.1-.24-.15-.06-.04-.38-.29-.11-.07-.53-.42-1.25-.52-1.77,0-.43.43-.53,1.35,0,1.77,1.55,1.22,3.51,1.88,5.48,1.91,1.03.01,2.04-.18,2.98-.6s1.88-1.21,2.2-2.23c.44-1.42-.29-2.92-1.22-3.97-.45-.51-1.31-.46-1.77,0-.5.5-.45,1.26,0,1.77h0Z"/><path class="cls-3" d="M142.61,148.59c.68,1.4,1.91,2.44,3.34,3.01,1.58.63,3.36.44,4.88-.27.65-.31.87-1.3.49-1.88-.43-.67-1.18-.82-1.88-.49-.17.08-.02.05.04,0-.03.04-.15.06-.2.07-.15.05-.31.1-.46.13-.07.02-.14.03-.21.04-.04,0-.27.05-.08.02.21-.03-.12,0-.14,0-.07,0-.14,0-.21,0-.14,0-.28,0-.43,0-.02,0-.21,0-.21-.02.17.02.21.03.1.01-.04,0-.07-.01-.11-.02-.14-.03-.28-.06-.41-.1s-.3-.14-.43-.15c.07,0,.23.11.07.02-.06-.03-.11-.06-.17-.09-.11-.06-.22-.12-.33-.19-.07-.04-.13-.09-.2-.13-.03-.02-.21-.15-.05-.04s-.02-.02-.05-.04c-.05-.04-.1-.08-.14-.13-.1-.1-.2-.2-.3-.31-.02-.03-.09-.14-.12-.15.05.01.16.22.04.05-.16-.24-.31-.48-.44-.74-.31-.65-1.29-.87-1.88-.49-.67.43-.83,1.19-.49,1.88h0Z"/><path class="cls-3" d="M140.44,117.66c-1.43-1.24-3.28-1.68-5.14-1.43s-3.55,1.16-5.1,2.19c-.6.4-.91,1.23-.49,1.88.38.6,1.24.92,1.88.49,1.31-.87,2.45-1.56,3.93-1.84.07-.01.13-.02.2-.03-.14.02-.13.02.03,0,.18-.01.36-.02.54-.02s.36.01.54.02c.17.02.18.02.03,0,.07.01.13.02.2.04.15.03.3.07.45.11.05.02.52.2.29.1.16.08.31.16.46.25.07.05.15.1.22.15-.1-.08-.09-.07.03.03.54.47,1.42.57,1.94,0,.47-.52.58-1.44,0-1.94h0Z"/><path class="cls-3" d="M148.02,117.51c-.31.14-.57.32-.75.51-.19.22-.3.3-.41.77l-.19.59c-.07.2-.05.4-.08.61-.01.21-.06.41-.06.62l.06.63c0,.31.11.62.21.93.09.31.18.62.32.92.81,2.22,2.44,4.32,4.28,6.16.83.81,1.73,1.57,2.66,2.27.59.46,1.24.84,1.81,1.34.28.26.6.45.84.77.24.31.48.64.69,1.01.25.48.25.37-.23.37-.24,0-.65.09-1.08.12-.22,0-.47.05-.7.02-.21-.05-.43-.11-.63-.21-2.84-1.47-5.37-3.59-7.3-6.33-1.14-1.62-2.47-3.28-3.13-5.37-.17-.57-.34-1.15-.37-1.76-.03-.3-.08-.6-.08-.91l.06-.92c0-.62.24-1.2.38-1.79.14-.59.56-1.3,1.02-1.76,1.21-1.2,2.73-1.62,4.17-1.74,1.09-.06,2.29,0,3.4.75.28.21.49.38.75.77.12.19.24.51.22.83-.02.32-.16.6-.31.8-.3.39-.79.61-1.21.63-.41.03-.74-.05-1-.1-1.39-.36-2.78-.15-3.89.26-.24.1-.46.23-.66.35-.74.46-1,.5-1.73.26-.16-.06-.34-.09-.5-.15-.26-.11-.42-.32-.42-.67,0-.35.17-.82.58-1.27,1.29-1.3,3.13-1.85,4.8-1.8.83,0,1.72.15,2.47.35l.16.04h.04s0,0,0,0h0s-.01.12-.01.12c-.03.29-.02.46-.01.57v.07s.08.36.08.36c0-.03-.02-.06-.02-.08-.04-.09,0,.03.14.12.11.1.31.02.03.1-.09.04-.21.1-.38.23-.09.06-.19.14-.32.25-.12.1-.38.34-.31.27-.01-.01-.02-.02-.04-.04-.04-.03-.11-.07-.22-.11-.21-.08-.54-.14-.92-.15-.76-.02-1.58.14-2.18.45l-.03-.06Z"/><path class="cls-3" d="M423.53,93.05c-.23-.11-.15-.4.1-.81.08-.13.43-.38.51-.37.17.03.35.06.5.12.09.03,1.07.91,1.41,1.2.34.28.61.61.87.96.52.7,1.05,1.39,1.53,2.12.11.16.19.33.25.52.21.64.53,1.22.87,1.79.06.09.1.2.23.25.23.08,1.02,1.71,1.05,1.95.07.6.2,1.18.28,1.76.01.08.08.15,0,.26-.18.26-.08.4-.03.58.07.24.11.48.11.74,0,.13-.1.29-.18.44-.07.14-.47.22-.52.2-.16-.06-.3.09-.46.15-.05.02-.12.05-.16.06-.1.02-1.2-1.01-1.25-1.14,0-.02-.24-.45-.48-.92-.25-.46-.52-.93-.59-1.02-.07-.09-.06-.23-.07-.35,0-.06-.86-1.37-.88-1.43-.11-.3-.35-.54-.29-.93.01-.08-.03-.13-.06-.19-.27-.48-.44-1.02-.65-1.54-.11-.27-.27-.5-.4-.75-.02-.05-.02-.11-.04-.16-.02-.07-.03-.14-.06-.19-.35-.58-.6-1.22-1.04-1.74-.09-.12-.32-.88-.45-1.01-.07-.08,0-.53-.1-.57Z"/><path class="cls-3" d="M412.41,109.11c-.2.16-.36-.16-.51-.77-.05-.19-.04-.78.02-.86.12-.16.24-.32.36-.43.07-.07,1.26-.35,1.68-.45.4-.11.79-.11,1.19-.09.8.05,1.6.08,2.4.18.18.02.35.07.51.16.57.29,1.16.41,1.77.48.1.01.2.05.32-.03.2-.15,1.83.24,2.01.38.46.34.91.67,1.34,1.01.06.05.15.04.17.19.04.34.21.35.35.44.2.11.39.24.55.42.08.09.12.29.16.45.04.15-.18.54-.23.57-.14.09-.15.32-.22.49-.02.06-.05.14-.07.18-.06.09-1.46.4-1.58.36,0,0-.12-.02-.29-.06-.17-.03-.39-.06-.62-.1-.47-.05-.93-.17-1.03-.15-.1,0-.18-.1-.27-.18-.04-.05-1.42-.19-1.47-.2-.26-.11-.56-.07-.78-.39-.04-.06-.1-.06-.16-.07-.48-.07-.94-.27-1.42-.42-.24-.08-.5-.08-.74-.13-.04,0-.08-.05-.13-.08-.05-.03-.11-.07-.16-.08-.59-.06-1.17-.27-1.78-.21-.14,0-.78-.32-.94-.29-.09.01-.37-.41-.45-.34Z"/></svg>