<?xml version="1.0" encoding="UTF-8"?>
<svg id="Layer_35" data-name="Layer 35" xmlns="http://www.w3.org/2000/svg" viewBox="0 0 520 520">
  <defs>
    <style>
      .cls-1, .cls-2, .cls-3 {
        fill: #231f20;
      }

      .cls-4 {
        opacity: .4;
      }

      .cls-2 {
        opacity: .5;
      }

      .cls-3 {
        opacity: .3;
      }
    </style>
  </defs>
  <path class="cls-3" d="M456.01,327.12s10.22,2.79,15.49,12.53-9.12,44.02-22.54,56.74c-12.33,11.67-19.96,12.67-19.96,12.67,0,0-12.32-7.52-13.05-13.83s2.07,6.74,16.48-9.38c14.41-16.13,23.58-41.43,23.58-50.08v-8.64Z"/>
  <path class="cls-1" d="M489.82,365.15c-1.92-2.96-3.94-5.87-6.05-8.72-.76-1.05-1.59-2.04-2.36-3.07-2.69-3.68-5.53-7.25-8.58-10.64-1.33-1.52-2.8-2.93-4.24-4.32-.97-.84-1.93-1.71-2.9-2.53l-1.45-1.27c-.49-.41-1.01-.76-1.52-1.16-.63-.49-.49-.57,.21-.4,.35,.08,.84,.23,1.43,.43,.59,.2,1.2,.55,1.87,.94,2.28,1.49,4.2,3.38,6.15,5.21,.95,.94,1.87,1.91,2.8,2.88,.91,.98,1.78,2.01,2.65,3.03,2.05,2.47,4.32,4.92,6.38,7.47,2.25,2.82,4.36,5.75,6.44,8.7,1.25,1.83,2.5,3.67,3.71,5.53,1.84,2.82,3.59,5.71,5.29,8.58,.64,1.13,1.31,2.23,1.99,3.32l1.9,3.36c.28,.49,.57,.97,.77,1.52,.8,1.98,.88,2.68,.54,3.31-.08,.14-.14,.32-.24,.42-.31,.34-1-.3-1.84-1.58-1.24-1.9-2.42-3.88-3.6-5.9-1.25-1.99-2.47-4.02-3.7-6.06-.89-1.53-1.84-3.03-2.79-4.54-.93-1.52-1.92-3-2.92-4.48l.05-.04Z"/>
  <path class="cls-1" d="M386.42,320.21s2.82,1.13,4.42,3.67c1.07,1.71-10.56,1.6-10.56,1.6l6.14-5.27Z"/>
  <path class="cls-1" d="M379.31,308.33c0,.12,.19,2.66,1.22,3.22s3.01,3.64,3.01,3.64l-11.01,2s5.27-5.93,5.51-7.25,1.27-1.62,1.27-1.62Z"/>
  <path class="cls-3" d="M305.38,226.81c-10.21,0-18.48,8.27-18.48,18.48s8.27,18.47,18.48,18.47,18.47-8.27,18.47-18.47-8.27-18.48-18.47-18.48Zm0,28.14c-4.89,0-8.86-3.97-8.86-8.86s3.97-8.85,8.86-8.85,8.85,3.96,8.85,8.85-3.96,8.86-8.85,8.86Z"/>
  <path class="cls-1" d="M293.99,258.79c1.01,.83,2.1,1.56,3.32,2.11,.61,.27,1.21,.6,1.86,.78,.64,.22,1.27,.46,1.93,.58,2.62,.63,5.38,.67,8.02,.08,1.93-.45,3.72-1.32,5.38-2.35,1.48-.9,2.76-2.1,3.9-3.41,1.11-1.34,1.98-2.88,2.66-4.51,1.31-3.32,1.53-7,.56-10.44-.87-3.05-2.88-5.76-5.32-7.77-1.58-1.29-3.37-2.33-5.28-3.03-1.89-.74-3.85-1.28-5.87-1.58-1.24-.23-1.15-1.25,.11-2.17,.63-.46,1.57-.92,2.72-1.04,1.16-.21,2.5-.05,3.88,.38,2.39,.89,4.62,2.15,6.63,3.73,1.98,1.61,3.66,3.59,4.99,5.79,1.33,2.21,2.13,4.73,2.5,7.28l.17,1.93c0,.64-.05,1.28-.08,1.92,0,.64-.12,1.27-.25,1.89-.13,.62-.21,1.25-.4,1.85-.81,2.88-2.13,5.7-4.03,8.12-1.88,2.43-4.35,4.42-7.11,5.71-3.03,1.42-6.38,2.08-9.68,1.99-3.31-.09-6.56-.94-9.48-2.41-3.61-1.86-6.66-4.78-8.56-8.33-1.5-2.65-2.28-5.68-2.46-8.7-.15-3.03,.45-6.08,1.61-8.85,1.84-4.29,5.06-7.97,9.24-10.2,.92-.48,1.84-.93,2.85-1.27,.93-.29,1.72-.5,2.4-.57,.67-.1,1.22-.12,1.68-.05,.91,.08,1.44,.43,1.84,.95,.18,.24,.42,.48,.51,.72,.16,.41-.12,.79-.72,1.11-.3,.16-.67,.3-1.12,.47-.44,.15-.95,.3-1.52,.48-3.36,.99-6.45,2.87-8.75,5.47-2.3,2.58-3.78,5.94-4.04,9.4-.44,5.13,1.79,10.6,5.94,13.86l-.06,.08Z"/>
  <path class="cls-1" d="M307.75,239.23v-22.18c0-3.06-4.75-3.06-4.75,0v22.18c0,3.06,4.75,3.06,4.75,0h0Z"/>
  <path class="cls-1" d="M307.75,275.4v-22.07c0-3.06-4.75-3.06-4.75,0v22.07c0,3.06,4.75,3.06,4.75,0h0Z"/>
  <path class="cls-1" d="M260.34,248.47h38.57c3.06,0,3.06-4.75,0-4.75h-38.57c-3.06,0-3.06,4.75,0,4.75h0Z"/>
  <path class="cls-1" d="M312.23,248.47h26.96c3.06,0,3.06-4.75,0-4.75h-26.96c-3.06,0-3.06,4.75,0,4.75h0Z"/>
  <path class="cls-1" d="M307.75,195.66v-19.64c0-3.06-4.75-3.06-4.75,0v19.64c0,3.06,4.75,3.06,4.75,0h0Z"/>
  <path class="cls-1" d="M360.93,248.47h18.11c3.06,0,3.06-4.75,0-4.75h-18.11c-3.06,0-3.06,4.75,0,4.75h0Z"/>
  <path class="cls-1" d="M302.2,295.27v21.05c0,3.06,4.75,3.06,4.75,0v-21.05c0-3.06-4.75-3.06-4.75,0h0Z"/>
  <path class="cls-3" d="M172.3,261.71c-13.29,17.72-31.52-4.56-40.07-29.1-5.54-15.9-2.76-30.63-.68-38.66,3.02-11.67,17.23-12.7,17.23-12.7,0,0-7.02,24.01,1.95,48.54,8.97,24.54,21.57,31.92,21.57,31.92Z"/>
  <path class="cls-1" d="M459.23,450.09s2.11-13.55-25.18-38.59c-.75-.68-3.32-2.45-3.32-2.45l12.6,15.66,11.93,20.85,3.97,4.52Z"/>
  <path class="cls-1" d="M352.11,307.12s19.76-11.06,25.93-2.96l-2.45,.65s-15.7,.83-16,1.7-7.47,.61-7.47,.61Z"/>
  <path class="cls-1" d="M449.71,357.81c-.59,1.37-1.16,2.75-1.84,4.07-.65,1.34-1.3,2.68-2,3.99-.5,.96-.89,1.98-1.43,2.92-1.84,3.35-3.88,6.59-5.96,9.78-.94,1.41-1.87,2.83-2.84,4.2-1.22,1.78-2.59,3.49-4.37,4.8-.55,.41-.52,.31-.37-.3,.07-.3,.17-.74,.27-1.28,.13-.51,.34-1.05,.63-1.59,.27-.46,.49-.97,.73-1.45,.24-.48,.54-.92,.81-1.38,.58-.89,1.07-1.85,1.62-2.77,.59-.89,1.18-1.78,1.75-2.7,.57-.91,1.2-1.8,1.77-2.72,.69-1.1,1.34-2.25,1.93-3.45,.57-1.2,1.15-2.41,1.72-3.61l1.86-3.97,1.77-4.02c.7-1.66,1.42-3.32,2.03-5.01,.97-2.55,1.86-5.15,2.5-7.77,.26-1.02,.38-2.05,.54-3.07,.12-1.02,.21-2.03,.36-3.03,.04-.44,.03-.87,.08-1.3,.04-.4,.1-.74,.15-1.02,.03-.27,.07-.48,.16-.67,.2-.37,.45-.6,.79-.82,.16-.1,.31-.23,.45-.29,.25-.11,.48,0,.73,.3,.25,.31,.56,.84,.67,1.55,.22,2.01,.37,4.12,0,6.13-.31,2.02-.83,3.99-1.38,5.96-.88,2.89-1.91,5.74-3.03,8.53l-.08-.03Z"/>
  <path class="cls-1" d="M449.45,335.34c-.35-.84,3.41-9.78,4.77-7.99,4.15,5.46-.46,15.97-.46,15.97l-4.31-7.98Z"/>
  <path class="cls-1" d="M426.91,370.47c-1.1,.56-14.29,18.91-11.11,22.87,4.92,6.12,17.36-9.67,17.36-9.67l-6.25-13.2Z"/>
  <path class="cls-1" d="M271.64,176.69s9.96-.37,11.86,.89c1.9,1.27,0,3.28,0,3.28l-9.6-2.09-2.26-2.09Z"/>
  <path class="cls-1" d="M281.9,197.14s8.28-3.99,11.86-3.05c2.84,.75,1.13,3.29,1.13,3.29l-12.99-.25Z"/>
  <path class="cls-1" d="M150.09,230.43c-.32-1.58-.66-3.15-.91-4.74-.29-1.58-.55-3.16-.79-4.75-.2-1.15-.45-2.3-.58-3.46-.52-4.1-.76-8.23-.77-12.36-.05-1.83,.04-3.67,.04-5.49,.06-1.17,.09-2.34,.23-3.51,.08-.58,.22-1.16,.4-1.72,.2-.56,.4-1.11,.61-1.68,.27-.69,.32-.58,.52,.07,.1,.32,.26,.78,.47,1.33,.09,.27,.23,.57,.3,.87,.06,.3,.1,.62,.1,.94-.03,4.6,.02,9.16,.1,13.85,.04,2.8,.6,5.68,1.05,8.51,.27,1.55,.54,3.11,.84,4.66,.35,1.54,.63,3.1,1.02,4.63,.23,.95,.47,1.89,.67,2.85l.71,2.84c.73,2.86,1.58,5.72,2.5,8.51,.76,2.16,1.63,4.22,2.49,6.3,.19,.46,.38,.9,.54,1.38,.6,1.76,.67,2.38,.5,2.89-.04,.12-.06,.26-.11,.34-.15,.26-.67-.34-1.44-1.51-.28-.44-.56-.87-.85-1.31-.28-.45-.5-.92-.75-1.38-.48-.93-1-1.87-1.44-2.84-.93-1.93-1.81-3.92-2.61-5.94-.55-1.52-1.05-3.06-1.55-4.6-.46-1.56-.95-3.1-1.37-4.67l.08-.02Z"/>
  <path class="cls-1" d="M161.18,269.13s-62.76,20.59-81.91,48.44c0,0-2.85,3.91-1.86,7.43,.68,2.4,7.34-12.1,30.65-26.45,23.31-14.35,53.12-29.42,53.12-29.42Z"/>
  <path class="cls-1" d="M82.67,325.48c.03,1.66-3.56,4.87-4.44,16.19-1.03,13.27,3.81,22.73,3.81,22.73l.63-38.92Z"/>
  <path class="cls-1" d="M155.18,192.37c-1.19-1.86-4.16-12.97-6.36-9.67-4.56,6.84-3.01,20.1-2.86,19.77l9.22-10.1Z"/>
  <path class="cls-1" d="M156.92,245.14s10.56,19.59,14.32,18.03c4.41-1.83-4.64-23.09-4.64-23.09l-9.68,5.06Z"/>
  <path class="cls-1" d="M267.76,278.37c.86-1.59,1.51-3.7,1.72-5.6,.23-1.94,.07-3.96-.39-5.97-.92-4.03-2.97-7.96-5.31-11.73-2.34-3.79-5.03-7.45-7.69-11.22-1.33-1.9-2.63-3.84-3.82-5.94-1.17-2.1-2.29-4.36-2.71-7.12-.1-.49-.11-1.02-.11-1.55-.03-.52,.05-1.07,.14-1.61,.17-1.08,.61-2.16,1.19-3.09,1.23-1.88,2.77-3.05,4.36-4.04,3.2-1.93,6.57-2.99,9.92-3.81,5.93-1.39,11.87-1.99,17.78-2.44,5.92-.42,11.82-.62,17.7-.78,5.88-.16,11.75-.25,17.59-.49,2.92-.12,5.83-.29,8.72-.49,2.88-.22,5.77-.54,8.47-1.2,1.18-.3,2.36-.68,3.26-1.23,.45-.26,.84-.6,1.01-.87,.17-.26,.26-.59,.17-.9-.08-.49-.99-1.35-2-1.91-1.01-.6-2.17-1.09-3.35-1.52-4.76-1.7-9.87-2.68-14.92-3.51-6.51-1.03-13.12-1.67-19.72-2.17-6.6-.49-13.23-.78-19.78-.81-2.03,.02-2.91-.08-2.9-.39,.02-.3,.98-.81,2.73-1.32,3.49-1.08,10.07-1.94,17.8-1.49,6.84,.39,13.66,1.06,20.47,2.08,3.4,.52,6.8,1.13,10.19,1.91,3.4,.82,6.78,1.7,10.2,3.35,.86,.43,1.72,.92,2.6,1.61,.44,.34,.88,.76,1.3,1.28,.46,.57,.89,1.38,1.05,2.16,.17,.81,.11,1.64-.13,2.42-.26,.75-.75,1.55-1.2,2.01-.94,1.01-1.93,1.54-2.87,1.99-1.87,.85-3.66,1.28-5.43,1.65-1.77,.36-3.51,.61-5.25,.81-1.74,.2-3.47,.37-5.19,.47-1.73,.09-3.45,.16-5.17,.21-3.44,.1-6.87,.15-10.29,.18-8.19,.09-16.52,.27-24.82,.92-4.15,.33-8.29,.78-12.34,1.48-4.04,.72-8.07,1.64-11.6,3.26-.96,.45-1.89,.94-2.71,1.53-.83,.57-1.57,1.25-2.08,1.9-.46,.7-.84,1.41-.9,2.27-.07,.85-.02,1.78,.27,2.75,.51,1.93,1.52,3.9,2.66,5.81,1.14,1.91,2.43,3.79,3.73,5.67,2.6,3.77,5.39,7.49,7.81,11.53,2.41,4.02,4.57,8.39,5.36,13.27,.5,2.97,.32,6.19-.57,9.07-.43,1.45-1,2.89-1.85,4.26-.43,.69-.94,1.36-1.62,1.95-.67,.59-1.52,1.1-2.48,1.33-.96,.24-1.96,.17-2.84-.07-.86-.26-1.64-.63-2.32-1.07-1.38-.88-2.46-1.96-3.46-3.07-2.01-2.21-3.58-4.7-5.11-7.08-4.55-7.17-9.69-14.01-15.67-20.01-3-2.98-6.16-5.81-9.56-8.29-3.4-2.48-7-4.66-10.77-6.44-5.86-2.79-12.14-4.48-18.47-4.96-6.34-.48-12.71,.28-18.78,2.09-.67,.21-1.33,.42-1.99,.62-.66,.22-1.3,.49-1.95,.73-1.31,.46-2.56,1.06-3.86,1.61-4.77,2.14-7.67,4.04-9.86,5.14-2.16,1.15-3.56,1.62-4.79,1.91-.56,.13-1.24,.38-1.6,.42-.61,.06-.12-.66,1.2-2.21,1.3-1.57,3.73-3.61,7.18-5.75,5.14-3.12,10.8-5.72,16.88-7.23,6.05-1.6,12.5-2.08,18.89-1.49,6.38,.67,12.7,2.41,18.54,5.16,2.95,1.32,5.73,2.96,8.46,4.67,2.67,1.79,5.29,3.67,7.72,5.76,7.31,6.12,13.49,13.41,18.85,21.15,.69,.96,1.33,1.94,1.97,2.93l1.91,2.94c1.17,1.87,2.43,3.67,3.8,5.23,.68,.79,1.4,1.48,2.11,2.06,.7,.59,1.42,.99,1.91,1.1,.5,.11,.67,.09,1.11-.17,.43-.27,.96-.92,1.4-1.7l.1,.03Z"/>
  <path class="cls-1" d="M287.85,184.27c-.41-.29-.81-.6-1.26-.84l-.67-.39-.71-.33c-.92-.46-2.03-.85-3.06-1.2-.77-.25-1.56-.38-2.34-.59-2.74-.75-5.65-1.11-8.6-1.39-1.31-.11-2.64-.12-3.94-.11-.84,.03-1.68,.01-2.53-.03-.42-.03-.84-.03-1.27-.13-.42-.11-.84-.23-1.27-.35-.53-.17-.46-.43-.01-.87,.22-.22,.54-.5,.92-.79,.19-.14,.4-.31,.62-.42,.22-.09,.45-.16,.7-.19l1.3-.16,.65-.08h.65c.87-.03,1.74-.02,2.61,0,1.74,.06,3.5,.17,5.27,.51,2.1,.38,4.36,.48,6.52,1.02,1.19,.29,2.35,.65,3.49,1.06,.56,.19,1.14,.43,1.72,.68,.58,.22,1.14,.53,1.69,.82,1.35,.76,2.64,1.66,3.73,2.79,1.73,1.64,2.9,3.8,3.7,5.98,.59,1.71,1.11,3.43,1.34,5.21,.06,.39,.1,.78,.08,1.17-.02,.73-.13,1.21-.37,1.53-.21,.32-.55,.48-1.01,.59-.21,.05-.4,.12-.59,.14-.58,.07-1.26-.55-1.5-1.5l-.28-1.04c-.09-.35-.21-.68-.26-1.02-.06-.34-.15-.67-.23-1-.07-.33-.15-.66-.25-.98-.16-.65-.37-1.27-.59-1.87-.14-.29-.2-.61-.32-.91l-.36-.88c-.79-1.69-1.93-3.28-3.62-4.37l.04-.07Z"/>
  <path class="cls-1" d="M277.75,169.85c-1.2-1.33-2.74-2.3-4.56-3.01-.67-.26-1.39-.4-2.1-.61-2.49-.77-5.15-1.29-7.82-1.63-1.19-.15-2.4-.18-3.59-.22l-2.3-.06c-.38-.03-.77-.01-1.15-.11-.38-.11-.76-.22-1.15-.34-.48-.16-.41-.38,0-.76,.2-.19,.5-.44,.85-.71,.18-.13,.37-.29,.57-.38,.2-.07,.42-.12,.64-.14,3.17-.31,6.38-.17,9.59,.45,1.91,.39,3.95,.49,5.93,.98,2.14,.52,4.43,1.36,6.31,2.78,1.18,.84,2.19,1.89,3.07,3,1.32,1.7,2.24,3.62,3.09,5.49,.66,1.45,1.43,2.84,1.91,4.33,.11,.33,.25,.64,.3,.98,.11,.64,.11,1.07-.01,1.4-.15,.34-.38,.57-.7,.78-.15,.1-.28,.21-.41,.28-.23,.12-.48,.07-.78-.09-.3-.16-.68-.43-.92-.83l-.61-.87c-.2-.29-.34-.6-.52-.89l-.49-.89c-.17-.29-.33-.59-.45-.89-.54-1.2-1.03-2.42-1.62-3.54-.84-1.7-1.89-3.16-3.13-4.42l.06-.07Z"/>
  <path class="cls-1" d="M219.41,156.4c-7.26,2.01-14.4,4.54-21.3,7.66-1.26,.56-2.5,1.16-3.73,1.8-1.23,.62-2.46,1.25-3.68,1.89-8.67,4.41-17,9.58-24.5,15.79-3.33,2.74-6.47,5.77-9.27,8.98-1.83,2.04-3.42,4.28-5.06,6.45-1.58,2.23-3.07,4.49-4.65,6.76-.6,.66-.93,.93-1.04,.85-.12-.08-.07-.52-.08-1.34-.02-.83,.09-1.97,.37-3.3,.28-1.34,.89-2.77,1.73-4.23,.35-.66,.78-1.25,1.17-1.88,.41-.62,.78-1.27,1.25-1.83,.91-1.16,1.79-2.35,2.76-3.45l1.44-1.67,1.51-1.6c.99-1.09,2.07-2.08,3.11-3.1,4.23-4.06,8.96-7.52,13.87-10.67,5.89-3.73,11.99-7.65,18.38-10.79,3.49-1.76,7.08-3.31,10.69-4.81,3.64-1.42,7.29-2.81,11.02-3.96,4.58-1.45,9.23-2.69,13.92-3.72,7.12-1.5,14.4-2.42,21.63-2.72l2.11-.07c.71-.02,1.38-.08,2.15-.03l1.13,.04,1.12,.16c.76,.08,1.48,.33,2.21,.51,2.9,.94,5.45,2.76,7.45,4.91,.89,.94,1.73,1.89,2.42,2.98,1.3,1.99,1.92,3.39,2.25,4.43,.32,1.04,.35,1.71,.2,2.34-.06,.29-.09,.63-.19,.83-.33,.68-1.67-.74-3.7-3.27-.72-.96-1.49-1.86-2.27-2.72-.79-.85-1.55-1.71-2.4-2.44-1.67-1.49-3.51-2.6-5.47-3.15l-.74-.21c-.25-.06-.51-.08-.76-.12-.5-.11-1.02-.12-1.55-.14-.47-.05-1.18,0-1.78,.01l-1.88,.05c-2.51,.1-5.03,.27-7.54,.54-3.74,.39-7.48,.93-11.19,1.68-3.72,.7-7.41,1.63-11.06,2.65l-.04-.1Z"/>
  <path class="cls-1" d="M149.71,216.77c1.21,5.84,2.8,11.64,4.78,17.28,.72,2.06,1.61,4.06,2.43,6.07,1.45,3.55,3.06,7.04,4.96,10.32,1.9,3.25,4.04,6.5,6.87,8.61,.31,.24,.63,.42,.96,.62l.49,.25c.17,.09,.21,.09,.33,.14,.2,.07,.4,.13,.61,.14,.21,0,.41-.13,.52-.3,.12-.17,.2-.37,.25-.57,.03-.12,.04-.17,.07-.31,.04-.18,.06-.37,.09-.56,.09-.77,.12-1.59,.12-2.4-.03-4.25-.96-8.57-1.42-12.88-.04-1.38,.24-1.32,1.24-.38,.5,.47,1.06,1.21,1.62,2.13,.27,.47,.57,.98,.8,1.54,.22,.57,.4,1.18,.54,1.82,.48,2.29,.85,4.6,1,7.02,.07,1.22,.1,2.45-.1,3.8-.05,.38-.08,.57-.24,1.25-.06,.27-.17,.53-.26,.79-.08,.27-.19,.51-.32,.74-.48,.96-1.25,1.7-2.21,2.07-.97,.35-2.03,.19-3.06-.13l-.77-.26c-.29-.07-.38-.16-.56-.24-.33-.16-.65-.32-.94-.5-1.2-.72-2.2-1.56-3.11-2.45-1.79-1.79-3.2-3.76-4.45-5.78-2.91-4.87-5.57-9.99-7.66-15.26-2.28-5.79-4.1-11.73-5.57-17.75-.9-3.71-1.65-7.45-2.24-11.21-.89-5.71-1.37-11.53-1.03-17.34,.14-2.16,.38-4.31,.89-6.46,.27-1.07,.62-2.15,1.1-3.19,.25-.52,.53-1.03,.86-1.53,.15-.26,.35-.49,.53-.73,.21-.31,.54-.6,.82-.9,.23-.21,.47-.4,.75-.55,1.37-.71,3.01-.14,4.24,.85,1.78,1.56,2.14,2.91,2.31,3.84,.19,.92,.02,1.51-.25,2.01-.11,.22-.19,.48-.29,.61-.17,.22-.44,0-.94-.49-.28-.23-.52-.55-.81-.92-.27-.37-.67-.75-1.02-1.15-.24-.3-.5-.57-.76-.8-.13-.12-.26-.22-.4-.3-.12-.09-.13-.06-.19-.09-.19-.06-.4-.02-.47,.16,.07-.06-.4,.64-.64,1.13-.25,.56-.49,1.13-.69,1.75-.41,1.23-.69,2.58-.88,3.98-.37,2.8-.41,5.79-.25,8.79,.31,5.87,1.17,11.84,2.47,17.71l-.1,.03Z"/>
  <path class="cls-1" d="M23.52,278.46c.37-.75,.8-1.48,1.23-2.21,.43-.73,.85-1.47,1.31-2.13l2.72-4.06,2.72-4.06c.89-1.36,1.94-2.61,2.9-3.93l2.95-3.89,1.47-1.94c.5-.64,1.04-1.25,1.56-1.87,2.11-2.48,4.19-4.97,6.32-7.42l4.81-5.23,2.4-2.62c.83-.85,1.68-1.67,2.53-2.49,11.91-11.69,24.94-22.15,38.74-31.43,6.17-4.04,12.39-8.1,18.82-11.62l3.08-1.74c1.03-.57,2.09-1.09,3.14-1.64,2.11-1.06,4.2-2.15,6.39-3.06,2.18-.93,4.31-1.94,6.59-2.65l3.37-1.1c.56-.18,1.16-.27,1.74-.4,.59-.11,1.16-.27,1.75-.34,1.47-.22,2.11-.26,2.1-.15,0,.12-.66,.45-1.73,1.15-2.17,1.34-5.92,4.01-10.67,6.34l-3.15,1.57c-1.05,.53-2.07,1.13-3.1,1.69-2.06,1.14-4.17,2.17-6.2,3.38-2.03,1.19-4.12,2.29-6.12,3.55-2.01,1.24-4.02,2.48-6.05,3.68-8,5.03-15.84,10.4-23.49,16.11-9.11,6.89-17.77,15.09-25.86,23.5-8.92,9.23-17.03,19.26-24.08,29.98l-1.65,2.46-.82,1.23-.73,1.25-.73,1.25-.67,1.29-.67,1.29-.61,1.33c-1.64,3.54-2.99,7.23-4.15,10.99-3.45,11.42-5.38,23.4-6.45,35.26-.8,9.24-.92,18.35-.83,27.51,.02,2.02,.1,3.99,.11,6.02,.01,3.77,.02,6.25-.16,8-.23,1.75-.53,2.77-.97,3.6-.2,.38-.39,.88-.57,1.1-.32,.38-.66-.19-1.05-1.56-.38-1.37-.86-3.52-1.03-6.31-.69-8.27-.74-16.79-.47-25.43,.29-8.64,1.01-17.41,2.26-26.15,.92-6.49,2.17-12.98,3.87-19.39,.88-3.2,1.82-6.39,2.99-9.53,1.16-3.14,2.44-6.26,4.04-9.26l.1,.04Z"/>
  <path class="cls-1" d="M130.25,287.44c-2.53,1.37-5.08,2.72-7.56,4.18l-3.74,2.16-3.67,2.27c-.89,.56-1.78,1.12-2.64,1.71-.86,.6-1.72,1.2-2.6,1.78-3.13,1.99-6.12,4.15-9.15,6.28-2.95,2.24-5.92,4.44-8.72,6.87-2.57,2.06-4.88,4.42-7.24,6.67-1.44,1.52-2.81,3.1-4.29,4.58-.75,.73-1.43,1.53-2.17,2.27-.72,.76-1.55,1.43-2.33,2.15-1.01,.86-1.13,.55-.81-.62,.16-.59,.41-1.41,.76-2.38,.38-.95,.93-1.97,1.65-2.98,5.53-6.81,12.1-12.69,19.23-17.8,4.25-3.08,8.56-6.42,12.99-9.41,2.44-1.64,4.95-3.19,7.43-4.76,2.54-1.49,5.03-3.04,7.6-4.47l4.73-2.65,4.78-2.55c4.82-2.58,9.78-4.95,14.62-7.4,3.79-1.85,7.39-3.92,11.14-5.75,.83-.4,1.62-.84,2.47-1.21,3.19-1.29,4.32-1.41,5.38-.79,.24,.14,.53,.26,.71,.43,.59,.56-.44,1.7-2.59,3.01-3.19,1.94-6.55,3.69-10.01,5.38-3.45,1.69-6.94,3.41-10.45,5.12-2.59,1.3-5.18,2.6-7.78,3.9-2.56,1.37-5.17,2.66-7.69,4.09l-.05-.08Z"/>
  <path class="cls-1" d="M79.31,352.92c0-2.5,.07-5,.19-7.5,.04-.91-.02-1.82,.07-2.73,.21-3.2,.71-6.38,1.23-9.54,.24-1.4,.38-2.82,.66-4.2,.17-.89,.34-1.78,.6-2.66,.25-.88,.61-1.73,.95-2.57,.23-.52,.42-.39,.61,.14,.18,.53,.47,1.48,.48,2.51,.02,3.64-.52,7.14-1.02,10.75-.16,1.08-.21,2.19-.27,3.3-.03,1.12-.02,2.24-.07,3.35-.06,2.45-.12,4.9-.07,7.35l.05,2.27,.11,2.26c.12,2.28,.27,4.58,.62,6.83,.31,1.74,.76,3.41,1.2,5.09,.1,.37,.21,.73,.26,1.11,.22,1.41,.08,1.91-.52,2.37-.14,.11-.27,.23-.41,.31-.46,.26-1.04-.21-1.56-1.2-1.54-2.94-2.25-6.31-2.65-9.68-.3-2.51-.5-5.04-.55-7.56h.09Z"/>
  <path class="cls-1" d="M280.77,292.79c-1.45-.52-2.91-1.16-4.35-2.14-.71-.51-1.45-1.08-2.1-1.86-.82-.95-1.36-2.23-1.54-3.47-.02-.51,0-1.03,.14-1.52,.07-.25,.18-.48,.31-.7,.11-.23,.27-.44,.43-.64,.15-.21,.33-.39,.53-.57,.18-.19,.39-.35,.62-.49l.66-.45,.59-.31c1.31-.64,2.52-1.01,3.73-1.35,2.41-.68,4.78-1.06,7.15-1.41,2.76-.41,5.5-.84,8.25-1.09,9.69-.87,19.35-1.19,29-1.53,4.28-.15,8.58-.38,12.82-.58,2.72-.14,5.45-.28,8.18-.42,1.36-.07,2.73-.09,4.09-.06,1.37,.02,2.73,0,4.1,.31,.86,.26,1.24,.45,1.22,.61-.01,.17-.42,.37-1.11,.85-1.39,.99-4.01,2.15-7.14,2.41-5.56,.34-11.11,.68-16.67,.89-5.56,.18-11.13,.31-16.73,.42-6.7,.13-13.62,.9-20.37,1.7-3.12,.38-6.25,.81-9.27,1.43-1.5,.31-3.01,.65-4.36,1.13-.34,.12-.66,.25-.97,.38l-.33,.16-.21,.13c-.28,.17-.52,.49-.43,.84,.05,.25,.15,.49,.29,.71,.06,.07,.21,.3,.36,.45,.13,.17,.33,.33,.49,.49,1.5,1.22,3.64,2.02,5.77,2.63,2.15,.6,4.4,1.03,6.66,1.36,6.87,.97,13.93,1.27,20.88,1.22,5.41-.05,10.71-.47,16.05-.86,1.18-.09,2.32-.21,3.51-.29,2.2-.14,3.66-.17,4.69-.03,.52,.08,.93,.2,1.27,.35,.34,.17,.62,.38,.87,.6,.23,.2,.52,.38,.66,.55,.23,.29-.1,.58-.88,1-.78,.43-2.02,.72-3.63,.93-9.57,1.2-19.75,1.74-30.04,1.48-3.82-.1-7.66-.32-11.52-.76-3.86-.46-7.74-1.05-11.67-2.37l.02-.1Z"/>
  <path class="cls-1" d="M343.46,320.33c5.92,.53,11.97,.18,17.65-1.47,2.08-.6,4.05-1.47,5.96-2.4,1.69-.82,3.29-1.79,4.75-2.89,1.43-1.11,2.77-2.39,3.56-3.8,.39-.69,.62-1.41,.61-1.98,0-.14-.03-.27-.04-.4-.06-.11-.05-.25-.13-.35-.06-.11-.11-.23-.22-.33l-.13-.16s-.09-.07-.14-.1c-.38-.32-1.25-.54-2.11-.63-.88-.1-1.83-.08-2.78-.04-3.4,.2-6.86,1.06-10.24,1.86-2.18,.54-4.34,1.18-6.51,1.79l-3.27,.91-1.64,.44c-.56,.12-1.12,.22-1.7,.27-1.49,0-1.28,.02-.32-.88,.93-.98,2.79-2.36,5.26-3.31,2.18-.84,4.39-1.64,6.63-2.37,2.24-.72,4.51-1.42,6.89-1.82,2.38-.42,4.78-.77,7.46-.63,.34,.02,.67,.04,1.03,.1,.34,.04,.71,.11,1.08,.2,.73,.17,1.55,.44,2.38,1.03,.44,.3,.75,.65,1.05,1,.29,.37,.55,.8,.74,1.23,.4,.9,.47,1.86,.42,2.72-.25,2.03-1.14,3.56-2.1,4.86-.98,1.3-2.1,2.42-3.28,3.42-2.4,1.98-5.07,3.49-7.84,4.66-6.11,2.5-12.67,3.46-19.12,3.38-2-.05-3.93-.14-5.97-.4-2.03-.29-4.02-.8-5.94-1.59-.73-.3-1.44-.65-2.13-1.06-.34-.2-.69-.43-1.02-.66-.31-.21-.63-.45-.94-.69-1.24-.98-2.4-2.15-3.25-3.59-.86-1.42-1.36-3.16-1.28-4.86,.08-1.7,.63-3.29,1.38-4.68,1.16-2.19,2.73-3.96,4.35-5.61,1.64-1.64,3.4-3.12,5.25-4.47,.8-.62,1.6-1.18,2.45-1.74,3.26-1.87,4.48-2.11,5.58-1.74,.24,.07,.52,.09,.68,.16,.48,.15-.42,1.63-2.53,3.24-.78,.6-1.52,1.27-2.31,1.86-.79,.59-1.56,1.2-2.33,1.82-1.52,1.25-3.02,2.53-4.34,3.91-1.31,1.38-2.52,2.85-3.27,4.35-.77,1.51-1.02,2.92-.72,4.14,.21,.92,.73,1.85,1.55,2.73,.41,.44,.87,.86,1.39,1.26,.25,.2,.55,.41,.83,.6,.25,.17,.51,.33,.78,.49,1.1,.62,2.39,1.11,3.72,1.47,1.36,.36,2.68,.59,4.16,.67v.1Z"/>
  <path class="cls-1" d="M358.18,332.51c3.95-.6,7.88-1.66,11.62-3.2,1.36-.56,2.65-1.28,3.95-1.95,2.3-1.17,4.52-2.53,6.43-4.14,.95-.8,1.82-1.69,2.48-2.61,.35-.45,.59-.92,.77-1.37,.14-.44,.19-.83,.12-1.16-.14-.55-.9-1.24-1.73-1.49-.86-.27-1.91-.22-2.95,0-1.35,.3-2.69,.89-4,1.53-.33,.16-.66,.32-.98,.5-.34,.14-.68,.3-1.02,.45l-1.03,.47c-.35,.15-.73,.26-1.1,.39-.98,.25-.87,.2-.49-.66,.36-.88,1.13-2.51,2.69-3.58,1.42-.87,2.93-1.67,4.67-2.21,.43-.14,.88-.26,1.36-.34,.46-.11,.96-.15,1.47-.18,.49-.06,1.06,.03,1.59,.06,.55,.12,1.12,.22,1.66,.46,.55,.25,1.08,.51,1.54,.91,.24,.2,.47,.34,.69,.6,.22,.26,.44,.52,.64,.8,.18,.31,.34,.64,.48,.97,.11,.34,.19,.69,.26,1.04,.08,.69,.06,1.37-.07,1.96-.55,2.36-1.83,3.77-3.11,4.99-3.1,2.8-6.44,5.12-10.05,6.89-3.96,1.91-8.12,3.3-12.38,4.21-2.62,.56-5.29,.92-7.96,1.08-2.02,.12-4.07,.14-6.17-.16-2.08-.3-4.14-.91-6.02-1.95-1.47-.77-2.82-1.83-3.92-3.16-1.11-1.31-1.9-2.95-2.21-4.69-.06-.38-.1-.76-.14-1.14-.06-.38-.07-.77-.03-1.15,.06-.72,.17-1.3,.35-1.75,.16-.46,.29-.83,.49-1.1,.41-.54,.79-.78,1.24-.91,.21-.06,.42-.15,.6-.15,.6-.02,.71,1.13,.8,2.74,.09,2.4,.78,4.41,2.17,5.93,.68,.77,1.5,1.47,2.5,1.98,.98,.53,2.07,.96,3.24,1.2,1.74,.4,3.52,.47,5.58,.4,1.99-.06,4-.28,5.98-.62l.02,.1Z"/>
  <path class="cls-1" d="M365.71,342.3c3.67-.88,7.33-2.07,10.83-3.57,1.28-.55,2.48-1.25,3.7-1.87,2.14-1.12,4.24-2.35,6.01-3.84,1.77-1.46,3.22-3.3,3.24-5.09,0-.2-.05-.4-.07-.6-.02-.19-.15-.44-.16-.52-.07-.26-.33-.44-.59-.5-.15-.04-.18-.03-.45-.07-.23,0-.45-.05-.69-.02-.48,0-.98,.07-1.48,.14-1.29,.22-2.57,.65-3.8,1.16-1.24,.51-2.38,1.15-3.65,1.7-.46,.1-.72,.1-.8,0-.08-.11-.02-.35,.06-.86,.07-.53,.35-1.09,.74-1.78,.43-.63,1.06-1.23,1.85-1.67,1.41-.78,2.9-1.39,4.52-1.8,.8-.21,1.65-.35,2.57-.38,.22-.02,.48,0,.72,0,.25,0,.45,.01,.8,.08,.39,.08,.78,.1,1.08,.27,.31,.16,.68,.23,.94,.47,.57,.4,1.03,.93,1.36,1.56,.07,.17,.14,.34,.21,.51l.14,.37c.11,.24,.13,.52,.2,.78,.05,.27,.11,.53,.13,.8v.81c.02,.55-.13,1.05-.22,1.57-.13,.5-.32,.95-.52,1.41-.24,.4-.47,.82-.74,1.19-.54,.73-1.12,1.36-1.74,1.92-1.48,1.33-3.01,2.45-4.59,3.5-1.58,1.04-3.2,1.97-4.87,2.76-3.67,1.73-7.44,3.13-11.3,4.25-2.38,.68-4.79,1.26-7.28,1.62-.94,.13-1.94,.22-2.94,.19-.95-.03-1.9-.1-2.85-.22-1.89-.24-3.8-.62-5.62-1.38-1.4-.6-2.77-1.4-3.9-2.51-1.13-1.08-1.99-2.4-2.65-3.75-.28-.6-.56-1.18-.78-1.8-.75-2.3-.69-3.06-.06-3.75,.13-.15,.25-.34,.38-.44,.4-.34,1.24,.44,1.87,1.96,.98,2.23,2.11,4.33,3.68,5.65,.78,.61,1.69,1.1,2.72,1.45,1.02,.36,2.12,.69,3.29,.88,.86,.15,1.76,.25,2.66,.31,.45,.03,.91,.05,1.37,.06,.41,0,.77,0,1.21-.05,1.72-.15,3.61-.55,5.44-1.02l.03,.08Z"/>
  <path class="cls-1" d="M385.4,347.55c2.28-.26,4.59-.62,6.87-1.16,.84-.19,1.64-.51,2.47-.72,2.94-.76,5.86-1.66,8.73-2.72,1.28-.46,2.52-1.03,3.73-1.63,.39-.19,.77-.4,1.15-.6l1.18-.54c.4-.16,.79-.36,1.21-.48,.43-.11,.86-.23,1.29-.34,.55-.13,.62,.12,.43,.71-.09,.3-.25,.7-.46,1.15-.11,.22-.22,.47-.37,.68-.16,.19-.34,.38-.55,.54l-1.12,.82c-.38,.26-.79,.47-1.18,.69-.8,.44-1.61,.85-2.44,1.24-.83,.38-1.66,.76-2.52,1.07-.87,.3-1.74,.57-2.64,.81-2.13,.57-4.21,1.5-6.38,2.12-2.38,.68-4.8,1.23-7.25,1.63-1.51,.23-3.04,.39-4.58,.49-2.33,.15-4.69,.04-7.02-.28-1.81-.24-3.64-.62-5.37-1.44-.37-.19-.76-.35-1.09-.62-.32-.24-.57-.45-.76-.65-.19-.19-.29-.42-.37-.6-.15-.37-.14-.67-.03-1.02,.05-.16,.09-.32,.16-.45,.24-.42,.97-.34,1.88-.02,2.63,.99,5.29,1.39,8.25,1.59,2.18,.11,4.47-.02,6.76-.35l.02,.09Z"/>
  <path class="cls-1" d="M363.68,247.39c3.07,4.7,6.51,9.03,10.63,12.79,4.08,3.78,8.65,7.07,13.47,10.07,3.51,2.2,7.19,4.18,10.82,6.31,3.19,1.88,6.4,3.79,9.53,5.84,3.13,2.05,6.18,4.27,9.13,6.59,2.97,2.31,5.72,4.88,8.44,7.48,1.3,1.36,2.66,2.66,3.88,4.09l1.87,2.11,1.77,2.19c4.16,5.2,7.84,10.8,11.02,16.56,2.07,3.69,3.94,7.49,5.64,11.36,.88,1.93,1.56,3.93,2.31,5.9,.38,.98,.71,1.99,1.02,3,.3,1.01,.5,2.06,.71,3.1,.22,1.31,.25,1.9,.1,1.91-.16,.01-.53-.54-1.24-1.45-1.53-1.81-3.75-5.27-5.69-9.6-3.36-7.72-7.32-15.15-12.02-22.07-1.12-1.77-2.43-3.4-3.64-5.11-1.32-1.62-2.57-3.3-3.99-4.84-2.74-3.17-5.69-6.17-8.9-8.91-7.62-6.68-16.99-11.73-26.11-17.04-5.01-2.93-10.05-5.97-14.76-9.55-2.38-1.76-4.62-3.71-6.79-5.73-2.11-2.09-4.18-4.23-5.99-6.58-4.57-5.69-8.18-12.01-11.42-18.41-1.23-2.42-2.4-4.88-3.57-7.31-.58-1.21-1.16-2.43-1.77-3.6-.61-1.16-1.25-2.34-1.97-3.26-.18-.23-.27-.31-.43-.45-.14-.13-.32-.21-.5-.25-.38-.01-.74,.18-1.04,.41-.8,.62-1.53,1.7-2.05,2.81-1.07,2.27-1.59,4.86-1.78,7.43-.28,4.02,.25,8.06,1.41,11.87,1.16,3.82,2.91,7.43,5.14,10.73,.48,.74,1,1.43,1.53,2.12,.51,.7,1.1,1.35,1.65,2.04,4.38,4.88,5.91,6.35,6.49,7.92,.14,.35,.38,.75,.44,1,.09,.41-.46,.27-1.62-.28-.59-.26-1.3-.67-2.09-1.24-.8-.56-1.73-1.23-2.68-2.1-5.6-5.13-10.17-11.98-12.35-19.83-1.11-3.91-1.6-8.04-1.36-12.21,.13-2.09,.45-4.18,1.08-6.27,.32-1.04,.69-2.08,1.23-3.11,.54-1.02,1.14-2.05,2.12-3.01,.16-.18,.38-.35,.58-.52,.28-.2,.55-.48,.88-.61l.96-.46c.33-.12,.67-.17,1.01-.26l.25-.06,.06-.02c.02,.05,.04,.01,.06,.02h.13c.17,0,.35-.03,.52-.01,.34,.08,.68,.15,.99,.3,.65,.25,1.21,.7,1.73,1.19,.06,.06,.13,.12,.21,.17l.15,.17,.24,.27c.17,.19,.28,.35,.43,.53,.29,.35,.49,.69,.72,1.04,.43,.68,.82,1.35,1.19,2.02,1.47,2.65,2.69,5.26,3.97,7.85,2.54,5.17,5.23,10.19,8.35,14.9l-.08,.07Z"/>
  <path class="cls-1" d="M425.14,370.8c-.4-.88-.87-1.73-1.28-2.61-.46-.86-.91-1.72-1.4-2.56-.37-.61-.81-1.17-1.19-1.78-1.3-2.16-2.72-4.28-4.27-6.31-.68-.91-1.48-1.72-2.23-2.56-1-1.05-2.08-2.02-2.63-3.51-.14-.49,.04-.58,.65-.64,.66-.1,1.67-.09,2.4,.38,2.44,1.82,4.39,4.16,6.05,6.75,.98,1.56,2.3,2.94,3.37,4.48,1.17,1.7,2.25,3.46,3.24,5.28,.6,1.12,1.16,2.26,1.71,3.4,.82,1.74,1.56,3.51,2.3,5.26,.59,1.35,1.27,2.64,1.87,3.99,.13,.3,.24,.59,.32,.91,.32,1.16,.06,1.64-.55,2.09-.15,.1-.28,.22-.43,.3-.48,.26-1.11-.06-1.72-.75-.81-1.06-1.47-2.18-2.07-3.33-.62-1.14-1.22-2.3-1.73-3.49-.39-.88-.77-1.77-1.19-2.65-.39-.89-.83-1.75-1.28-2.62l.08-.05Z"/>
  <path class="cls-1" d="M428.66,386.41c4.09-4.12,7.67-8.97,10.81-14.05,1.15-1.86,2.15-3.81,3.2-5.73,3.7-6.77,6.94-13.87,9.2-21.26,.98-3.28,1.71-6.66,2.01-9.98,.17-2.12,.15-4.28-.34-6.17-.13-.46-.25-.93-.41-1.33-.14-.28-.08-.26-.25-.35-.19-.04-.64,.03-1.08,.19-.44,.17-.88,.44-1.28,.76-.5,.4-.72,.59-.82,.52-.09-.07-.07-.43,.15-1.05,.25-.61,.56-1.51,1.61-2.46l.11-.09c.02-.07,.07-.06,.11-.1l.27-.14c.17-.1,.4-.17,.64-.23,.22-.07,.54-.07,.82-.08,.31,.04,.65,.08,.95,.23,.65,.26,1.13,.75,1.46,1.21l.13,.18,.08,.13,.15,.26c.1,.17,.21,.35,.29,.54,.58,1.31,.77,2.62,.91,3.88,.13,1.27,.13,2.5,.07,3.71-.13,2.42-.46,4.77-1,7.06-1.08,4.57-2.64,8.96-4.51,13.21-2.24,5.08-4.48,10.38-7.23,15.34-3.03,5.44-6.46,10.68-10.54,15.47-2.54,2.91-5.33,5.68-8.68,7.84-1.27,.81-2.64,1.52-4.13,2-1.48,.48-3.1,.74-4.72,.57-.77-.1-1.69-.25-2.52-.76-.82-.5-1.45-1.29-1.81-2.11-.69-1.67-.62-3.29-.47-4.79,.27-2.35,.89-4.53,1.61-6.67,.72-2.14,1.61-4.19,2.65-6.19,.46-.88,.91-1.74,1.45-2.6,1.98-3.19,3.42-3.75,4.5-3.73,.26,.01,.56,0,.74,.06,.31,.12,.25,.5,.02,1.1-.25,.6-.63,1.51-1.25,2.59-1.89,3.18-3.46,6.78-4.74,10.38-.62,1.8-1.14,3.65-1.34,5.38-.1,.86-.12,1.7,0,2.33,.12,.66,.34,.93,.48,1.02,.07,.17,1.46,.43,2.53,.23,1.13-.16,2.33-.57,3.5-1.18,2.35-1.24,4.58-3.11,6.61-5.19l.07,.06Z"/>
  <path class="cls-1" d="M491.23,366.74c-2.15-3.7-4.53-7.27-7-10.79-.91-1.27-1.95-2.45-2.87-3.72-3.32-4.41-6.8-8.73-10.54-12.83-.8-.93-1.7-1.79-2.57-2.66-.89-.86-1.74-1.74-2.66-2.54-1.18-1.03-2.34-2.09-3.48-3.18-.58-.53-1.18-1.04-1.7-1.63-.52-.6-1.04-1.21-1.54-1.82-.62-.78-.26-1.02,.75-.92,.51,.05,1.18,.17,1.96,.37,.38,.11,.81,.21,1.2,.4,.38,.19,.77,.43,1.14,.7,2.61,1.98,5.04,4.18,7.33,6.52,1.17,1.14,2.28,2.35,3.37,3.58,1.1,1.22,2.14,2.49,3.14,3.81,1.21,1.56,2.52,3.08,3.79,4.64l1.95,2.32c.62,.8,1.24,1.6,1.85,2.39,2.69,3.51,5.14,7.2,7.53,10.91,1.41,2.33,2.85,4.63,4.15,7.02,.5,.9,1.02,1.79,1.51,2.7l1.41,2.75c.97,1.82,1.79,3.7,2.71,5.53,1.34,2.88,2.85,5.62,4,8.56,.25,.65,.56,1.26,.75,1.93,.18,.62,.31,1.15,.4,1.59,.08,.45,.09,.83,.09,1.14,0,.63-.12,1.03-.33,1.38-.09,.16-.17,.36-.26,.46-.3,.35-1.06-.51-2.11-2.11-.32-.62-.68-1.22-.97-1.85-.33-.62-.66-1.24-1-1.86-.67-1.24-1.19-2.55-1.86-3.81-.65-1.27-1.23-2.58-1.89-3.85-.66-1.28-1.31-2.56-1.97-3.85-2.09-3.75-4.03-7.61-6.35-11.25l.08-.05Z"/>
  <path class="cls-1" d="M444.36,430.13c-.92-1.48-1.85-2.96-2.85-4.39-.96-1.46-2.02-2.85-3.06-4.25-.75-1.04-1.68-1.91-2.46-2.92-.69-.89-1.44-1.72-2.18-2.57-.74-.85-1.47-1.7-2.26-2.5-.78-.81-1.54-1.65-2.34-2.44l-2.46-2.32c-.72-.7-1.53-1.29-2.31-1.92-.79-.61-1.57-1.25-2.4-1.79-2.08-1.48-4.23-2.86-6.06-4.77-.58-.58-.36-.74,.44-.76,.4,0,.97,.01,1.63,.07,.33,.03,.69,.07,1.06,.13,.19,.03,.36,.08,.57,.1,.17,.08,.34,.15,.51,.24,1.2,.63,2.34,1.34,3.49,2.06,1.13,.75,2.17,1.61,3.23,2.46,.52,.43,1.05,.85,1.57,1.29l1.49,1.38c.99,.92,1.97,1.87,2.86,2.9,1.12,1.18,2.25,2.38,3.39,3.59,.57,.61,1.16,1.19,1.72,1.81,.54,.63,1.09,1.26,1.63,1.89,1.2,1.37,2.25,2.86,3.36,4.29,1.05,1.48,2.11,2.96,3.11,4.47l1.81,2.81,1.73,2.85c.89,1.43,1.67,2.93,2.52,4.38,.81,1.47,1.62,2.94,2.42,4.4,.62,1.14,1.28,2.24,1.95,3.34,.66,1.1,1.28,2.22,1.9,3.34,.28,.49,.57,.97,.81,1.48,.9,1.91,.9,2.65,.32,3.41-.14,.18-.26,.38-.41,.51-.51,.45-1.38-.09-2.3-1.34-1.29-1.89-2.54-3.86-3.7-5.89-.58-1.02-1.15-2.05-1.71-3.09-.57-1.03-1.15-2.07-1.72-3.11-.84-1.55-1.75-3.06-2.6-4.6-.93-1.49-1.79-3.04-2.77-4.5l.07-.05Z"/>
  <path class="cls-1" d="M130.41,236.41c-1.21-3.6-2.19-7.27-2.87-10.99-.26-1.36-.58-2.7-.76-4.07-.61-4.83-.76-9.72-.33-14.56,.06-1.07,.23-2.15,.31-3.22,.18-1.07,.3-2.14,.53-3.18,.25-1.35,.58-2.7,.96-4.02,.49-1.3,1.12-2.54,1.83-3.72,.44-.74,.62-.52,.73,.28,.05,.4,.1,.95,.12,1.59,.02,.64,.09,1.39,0,2.13-.55,2.59-.89,5.19-1.15,7.81-.33,2.62-.48,5.28-.54,7.98-.08,3.24,.51,6.58,1.11,9.83,.66,3.59,1.54,7.15,2.62,10.65,.66,2.16,1.44,4.29,2.28,6.38,1.31,3.16,2.77,6.29,4.55,9.19,1.38,2.25,3.07,4.22,4.73,6.17,.36,.44,.77,.8,1.14,1.24,1.39,1.56,1.72,2.14,1.45,3.1-.06,.22-.09,.46-.18,.65-.27,.63-1.35,.45-2.69-.6-1.94-1.57-3.77-3.39-5.29-5.46-1.53-2.06-2.88-4.28-4.09-6.56-1.8-3.39-3.27-6.96-4.57-10.56l.08-.04Z"/>
  <path class="cls-1" d="M136.06,210.72c.34-.32,.69-.64,1.03-.95,.12-.11,.22-.26,.35-.37,.45-.39,.96-.73,1.44-1.08,.22-.16,.41-.34,.6-.52,.24-.23,.48-.5,.85-.59,.11-.03,.25,.21,.33,.48,.08,.28,.14,.58,.02,.71-.43,.44-.88,.89-1.44,1.25-.33,.22-.58,.56-.86,.84-.31,.31-.63,.63-.95,.94-.19,.2-.38,.39-.56,.6-.26,.32-.57,.61-.79,.96-.17,.27-.28,.57-.42,.84-.03,.06-.05,.12-.09,.18-.13,.21-.24,.23-.53,.16l-.2-.05c-.21-.07-.33-.25-.33-.48,.02-.34,.07-.68,.16-1,.1-.32,.28-.58,.45-.86,.24-.41,.58-.75,.9-1.09l.03,.02Z"/>
  <path class="cls-1" d="M139.37,221.14c.21-.21,.47-.38,.7-.57,.08-.07,.15-.16,.23-.22,.31-.22,.63-.45,.93-.67,.13-.1,.25-.22,.37-.34,.15-.15,.28-.32,.49-.4,.13-.05,.46,.56,.32,.75-.26,.33-.54,.63-.9,.87-.22,.14-.35,.38-.52,.57-.19,.2-.38,.41-.58,.62-.12,.12-.25,.25-.36,.38-.18,.2-.36,.39-.5,.61-.11,.17-.15,.39-.22,.58-.02,.04-.03,.08-.06,.12-.1,.13-.2,.13-.46,0l-.18-.09c-.19-.11-.31-.26-.32-.42-.05-.48,.21-.8,.43-1.13,.18-.24,.39-.46,.59-.68l.02,.02Z"/>
  <path class="cls-1" d="M142.66,240.3c.27-.34,.54-.68,.84-1,.1-.12,.17-.26,.28-.37,.4-.39,.82-.76,1.22-1.14,.17-.17,.32-.36,.45-.56,.17-.25,.3-.55,.63-.66,.2-.07,1.11,1.06,.94,1.33-.33,.48-.7,.92-1.21,1.28-.31,.21-.44,.57-.66,.86-.24,.32-.49,.64-.73,.95-.15,.2-.3,.4-.43,.61-.21,.31-.41,.63-.56,.97-.11,.27-.13,.57-.19,.85-.01,.06-.01,.13-.03,.19-.08,.22-.21,.24-.64,.13l-.29-.08c-.32-.1-.55-.3-.59-.51-.1-.63,0-1.23,.24-1.76,.19-.39,.44-.75,.68-1.12l.04,.02Z"/>
  <path class="cls-1" d="M456.41,386.11c.89-1.28,1.86-2.51,2.66-3.87l1.24-2,1.13-2.08c.27-.51,.53-1.02,.78-1.54,.23-.53,.46-1.06,.71-1.58,1.8-3.65,3.35-7.46,4.73-11.34,.64-1.71,1.08-3.5,1.57-5.25,.28-1.13,.62-2.25,.95-3.37,.32-1.13,.67-2.24,1.17-3.33,.3-.68,.4-.56,.54,.11,.08,.42,.18,.89,.27,1.38,.08,.56,.09,1.21,.02,1.89-.16,1.2-.31,2.41-.51,3.6-.26,1.18-.58,2.35-.88,3.52-.66,2.33-1.37,4.66-2.34,6.92-1.14,2.7-2.14,5.57-3.4,8.3-.71,1.49-1.48,2.95-2.27,4.4-.86,1.41-1.63,2.88-2.6,4.23-.58,.84-1.12,1.7-1.74,2.51l-1.87,2.42c-.97,1.2-2.04,2.32-3.06,3.47-1.13,1.05-2.18,2.19-3.32,3.2-.9,.78-1.75,1.6-2.62,2.41l-2.79,2.2c-.41,.34-.83,.62-1.29,.89-.21,.12-.41,.23-.59,.33-.19,.08-.37,.14-.53,.2-.33,.11-.6,.18-.85,.21-.48,.06-.82-.03-1.16-.24-.16-.1-.33-.17-.45-.28-.38-.35,.07-1.15,1.04-2.17,3.07-2.66,6.3-5.17,9.27-8.12,1.16-1.03,2.13-2.25,3.2-3.38,.54-.57,.98-1.21,1.48-1.82,.47-.62,1-1.21,1.43-1.86l.07,.04Z"/>
  <path class="cls-1" d="M439.98,391.59c-.14-.36-.28-.73-.41-1.09-.05-.13-.15-.23-.19-.36-.14-.48-.21-1-.35-1.46-.06-.21-.15-.4-.25-.58-.13-.24-.3-.45-.27-.77,0-.19,1.15-.5,1.36-.28,.34,.41,.64,.84,.75,1.38,.06,.33,.35,.54,.48,.83,.15,.32,.31,.64,.47,.96,.1,.2,.2,.4,.31,.59,.17,.28,.32,.59,.53,.85,.17,.19,.43,.31,.61,.49,.04,.04,.09,.07,.13,.11,.12,.17,.06,.31-.25,.63l-.21,.22c-.24,.23-.52,.35-.74,.32-.31-.05-.62-.13-.85-.27-.22-.15-.41-.33-.58-.53-.24-.3-.39-.67-.58-1.01l.04-.03Z"/>
  <path class="cls-1" d="M448.55,377.37c-.04-.2-.08-.39-.13-.59-.02-.07-.06-.13-.08-.2-.06-.25-.1-.51-.18-.75-.03-.11-.09-.2-.14-.3-.07-.12-.18-.23-.16-.39,0-.1,.65-.32,.76-.19,.17,.23,.31,.48,.36,.78,.03,.18,.16,.31,.24,.47,.08,.18,.16,.36,.23,.54,.05,.11,.08,.23,.12,.34,.06,.17,.11,.35,.19,.51,.07,.12,.18,.22,.26,.33,.02,.02,.04,.04,.06,.07,.06,.1,.02,.16-.15,.28l-.12,.08c-.14,.08-.28,.11-.37,.06-.27-.14-.45-.33-.61-.55-.11-.16-.22-.32-.31-.5h.02Z"/>
  <path class="cls-1" d="M455.15,360.27c-.08-.27-.09-.56-.14-.84-.02-.1-.08-.18-.09-.28-.04-.36-.06-.73-.11-1.07-.02-.15-.08-.29-.14-.43-.08-.17-.21-.33-.14-.56,.03-.14,1.07-.36,1.2-.19,.21,.31,.37,.64,.39,1.04,0,.24,.19,.42,.28,.62,.1,.23,.2,.46,.28,.7,.05,.15,.09,.3,.15,.45,.09,.22,.16,.45,.31,.64,.12,.14,.33,.22,.45,.35,.03,.03,.07,.05,.1,.08,.08,.12,0,.23-.35,.5l-.24,.18c-.27,.2-.55,.3-.72,.27-.24-.05-.47-.11-.62-.23-.14-.13-.24-.28-.33-.45-.13-.24-.22-.51-.32-.76l.04-.02Z"/>
  <path class="cls-1" d="M351.56,177.52c7.76,0,15.61,0,23.34,.78,.44,.04,.88,.09,1.32,.15-.63-.08,.56,.09,.79,.13,.28,.05,.56,.12,.84,.19,.1,.02,.2,.08,.3,.1,.37,.05-.51-.27-.18-.07-.07-.04-1.3-1.47-.88-1.64-.02,0,0,.32,0,.34-.04,.53,0,1.08,0,1.62,.01,4.95,0,9.91-.04,14.86-.05,5.8,0,11.64-.43,17.43-.09,1.21,1.1,2.25,2.25,2.25,1.29,0,2.16-1.03,2.25-2.25,.39-5.21,.37-10.46,.42-15.68,.05-5.39,.06-10.78,.05-16.17,0-.96,.17-2.14-.1-3.09-.49-1.72-2.45-2.12-3.97-2.35-4.83-.74-9.78-.82-14.66-.95-3.76-.1-7.53-.16-11.3-.16-2.9,0-2.9,4.5,0,4.5h0Z"/>
  <path class="cls-1" d="M261.01,316.02c-7.76,0-15.61,0-23.34-.78-.44-.04-.88-.09-1.32-.15,.63,.08-.56-.09-.79-.13-.28-.05-.56-.12-.84-.19-.1-.02-.2-.08-.3-.1-.37-.05,.51,.27,.18,.07,.07,.04,1.3,1.47,.88,1.64,.02,0,0-.32,0-.34,.04-.53,0-1.08,0-1.62-.01-4.95,0-9.91,.04-14.86,.05-5.8,0-11.64,.43-17.43,.09-1.21-1.1-2.25-2.25-2.25-1.29,0-2.16,1.03-2.25,2.25-.39,5.21-.37,10.46-.42,15.68s-.06,10.78-.05,16.17c0,.96-.17,2.14,.1,3.09,.49,1.72,2.45,2.12,3.97,2.35,4.83,.74,9.78,.82,14.66,.95,3.76,.1,7.53,.16,11.3,.16,2.9,0,2.9-4.5,0-4.5h0Z"/>
  <g class="cls-4">
    <path class="cls-1" d="M354.92,185.19c4.44,0,8.9,.04,13.32,.36,.55,.04,1.1,.09,1.64,.14,.13,.01,.26,.03,.38,.05-.04,0-.37-.06-.08-.01,.23,.04,.46,.07,.68,.12,.11,.03,.24,.08,.36,.1,.25,.03-.37-.21-.19-.08-.23-.16-.8-.67-.67-1.24-.03,.14,0,.34,0,.48,0,2.56,0,5.13-.01,7.69-.02,3.44,0,6.9-.25,10.32-.15,2.09,3.1,2.08,3.25,0,.44-5.98,.29-12.03,.27-18.01,0-.85-.17-1.61-.99-2.07s-1.96-.51-2.88-.61c-2.85-.3-5.73-.35-8.6-.42-2.08-.04-4.16-.07-6.24-.07s-2.09,3.25,0,3.25h0Z"/>
  </g>
  <g class="cls-4">
    <path class="cls-1" d="M258.59,309.27c-4.4,0-8.82-.04-13.21-.35-.54-.04-1.09-.09-1.63-.14-.13-.01-.25-.03-.38-.04,.04,0,.37,.06,.08,.01-.23-.04-.45-.07-.68-.12-.11-.03-.24-.08-.35-.1-.25-.03,.37,.21,.19,.08,.23,.16,.8,.67,.67,1.25,.03-.14,0-.33,0-.48,0-2.54,0-5.08,.01-7.63,.02-3.41,0-6.83,.25-10.23,.15-2.09-3.1-2.08-3.25,0-.44,5.92-.28,11.92-.26,17.86,0,.84,.17,1.61,.99,2.06s1.94,.51,2.87,.61c2.83,.3,5.68,.35,8.52,.41,2.06,.04,4.12,.07,6.18,.07,2.09,0,2.09-3.25,0-3.25h0Z"/>
  </g>
  <path class="cls-3" d="M150.73,93.79c.76-3.83,4.97-2.87,6.1-.45,1.83,3.91-2.17,5.57-4.89,2.24-.35-.43-1.29-1.39-1.21-1.79Z"/>
  <path class="cls-1" d="M475.66,177.82c-3.46-3.36,.37-7.09,3.64-6.63,5.29,.74,4.32,6-.97,6.58-.68,.08-2.31,.41-2.67,.05Z"/>
  <path class="cls-1" d="M137.21,329.91c.76-3.83,4.97-2.87,6.1-.45,1.83,3.91-2.17,5.57-4.89,2.24-.35-.43-1.29-1.39-1.21-1.79Z"/>
  <path class="cls-1" d="M114.48,152.51c3.22,3.98-1.29,7.43-4.68,6.53-5.48-1.45-3.79-6.87,1.86-6.81,.73,0,2.48-.14,2.82,.28Z"/>
  <path class="cls-2" d="M236.01,111.07c4.14,2.57,1.16,7.07-2.17,7.33-5.38,.41-5.55-4.99-.46-6.7,.66-.22,2.19-.9,2.62-.63Z"/>
  <path class="cls-1" d="M175.24,72.35c-2.49,2.03-4.66-.8-4.1-2.93,.91-3.44,4.31-2.38,4.27,1.16,0,.46,1.35,.52-.18,1.77Z"/>
  <path class="cls-1" d="M359.24,124.42c-2.49,2.03-4.66-.8-4.1-2.93,.91-3.44,4.31-2.38,4.27,1.16,0,.46,1.35,.52-.18,1.77Z"/>
  <path class="cls-3" d="M466.06,191.64c.46,4.19-4.21,4.56-6.16,2.42-3.14-3.45,.46-6.45,4.33-3.88,.5,.33,1.54-1.11,1.83,1.46Z"/>
  <path class="cls-3" d="M327.75,366.46c0,2.21-1.79,4-4,4-11.49,.02,3.99-15.56,4-4Z"/>
  <path class="cls-2" d="M410.97,89.75c.38,4.73-7.79,3.67-6.41-.9,.99-3.27,6.15-2.32,6.41,.9Z"/>
</svg>