<?xml version="1.0" encoding="UTF-8"?><svg id="Layer_1" xmlns="http://www.w3.org/2000/svg" width="520" height="520" viewBox="0 0 520 520"><defs><style>.cls-1{opacity:.3;}.cls-1,.cls-2{fill:#231f20;stroke-width:0px;}.cls-3{opacity:.55;}</style></defs><path class="cls-2" d="M305.42,223.58s-3.54,4.94-3.49,10.46c.06,7.17,6.34,11.56,6.34,11.56,0,0-10.84-4.38-10.84-9.69,0-5.12,7.98-12.33,7.98-12.33Z"/><path class="cls-2" d="M335.61,470.03c-1.78-.03-3.55-.02-5.33-.07-.65-.01-1.29.05-1.94.03-2.29-.06-4.58-.1-6.87-.11-1.02,0-2.04.04-3.04.09-1.29.07-2.58.23-3.89-.05-.42-.28-.36-.15-.04-.47.16-.17.39-.31.68-.49.28-.15.61-.38.99-.4,2.63-.33,5.25-.68,7.92-.59,1.6.04,3.25-.19,4.88-.27,1.79-.1,3.59-.13,5.38-.14l3.32-.03c1.67-.03,3.36,0,5.01-.08,1.29-.06,2.55-.27,3.83-.4.28-.03.56-.08.84-.1,1.05-.04,1.39.14,1.62.83.05.16.12.31.15.47.1.53-.33.98-1.09,1.15-2.26.49-4.64.57-7.04.63-1.78.02-3.57.04-5.36.06v-.06Z"/><path class="cls-2" d="M382.12,470.07l-5.24-.15c-.64,0-1.27.03-1.91,0-2.25-.1-4.5-.21-6.75-.24-1-.02-2,.04-2.99.05-1.27,0-2.54.19-3.83-.15-.4-.08-.35-.19-.03-.43.23-.16.46-.32.67-.47.14-.09.29-.2.45-.27.16-.06.34-.11.52-.13,1.29-.18,2.59-.41,3.89-.45,1.3-.05,2.61-.06,3.92,0,1.57.07,3.2-.1,4.8-.14,1.76-.03,3.53,0,5.3.02l3.26.03c1.64,0,3.3.04,4.93-.02,1.27-.05,2.51-.25,3.76-.31.28-.02.55-.06.82-.06,1.03,0,1.36.16,1.59.75.05.13.12.27.15.4.1.45-.32.83-1.07,1.01-1.12.24-2.26.47-3.43.57-1.16.08-2.34.1-3.53.11-1.76.01-3.52-.03-5.29-.04v-.06Z"/><path class="cls-1" d="M414,156.82s1.07-6.7,1.02-8.88-2.4-8.32-1.8-10.4c.61-2.08,3.35-3.54,3.35-3.54,0,0,6.12-18.84,7.98-18.92,1.85-.07,1.06,5.77,1.06,5.77l-4.07,13.97,2.39-1.15s7.91-14.45,9.18-14.5c1.27-.05.75,5.46.75,5.46l-6.24,12.85s4.02-2.85,4.93-2.67c.91.18,1.42,4.09,1.42,4.09,0,0,2.51-1.17,2.32.83s-2.09,6.68-3.18,7.62c-1.08.94-4.34,3.88-5.06,4.71-.72.83-3.51,4.75-3.51,4.75,0,0-2.4,4.13-1.44,5.17s-9.11-5.17-9.11-5.17Z"/><path class="cls-2" d="M426.2,142.31c.05.37.05.74.03,1.08,0,.12.02.24,0,.36-.08.42-.17.82-.32,1.2-.06.17-.1.33-.14.5-.05.21-.1.42-.21.62-.04.06-.12.04-.22-.03-.09-.07-.22-.2-.25-.32-.07-.45-.21-.88-.06-1.27.08-.24,0-.49,0-.73-.02-.26-.04-.51-.1-.76-.03-.15-.08-.3-.14-.44-.09-.21-.2-.43-.37-.58-.14-.11-.33-.14-.49-.16-.04,0-.08,0-.11,0-.11-.03-.09-.14.05-.56l.1-.29c.11-.32.3-.55.5-.56.59-.02,1.13.36,1.38.84.21.35.32.73.39,1.1h-.03Z"/><path class="cls-2" d="M416.01,156.89c.38.45.89.84,1.4,1.23.18.16.41.24.6.39.69.52,1.44,1.01,2.23,1.42.35.18.71.34,1.07.5.46.2.92.42,1.35.7.13.09.09.14-.06.18-.16.04-.44.11-.73.09-.52-.05-1.04-.1-1.56-.18-.5-.13-1-.29-1.47-.52-.57-.28-1.22-.41-1.83-.67-.68-.26-1.29-.7-1.9-1.13-.36-.3-.73-.58-1.05-.94-.53-.49-.91-1.17-1.23-1.85-.1-.28-.21-.56-.33-.85-.08-.29-.15-.6-.18-.91-.01-.14,0-.27.03-.4.13-.48.32-.6.81-.55.11.01.23.02.33.04.36.07.64.32.77.58.1.19.15.37.28.52.08.14.11.28.18.4.08.12.13.23.18.35.09.11.16.22.22.34.24.36.48.83.93,1.22l-.03.04Z"/><path class="cls-2" d="M368.32,436.37c.37-.96,1.05-1.88,1.91-2.43.31-.2.6-.42.93-.55.58-.24,1.15-.36,1.71-.47.57-.06,1.12-.09,1.66-.12.48-.03.95-.09,1.41-.15.58-.11,1.19-.1,1.8-.12.19,0,.18.04.05.16-.13.11-.37.38-.68.57-.56.36-1.15.52-1.73.73-.58.19-1.15.35-1.71.47-.68.12-1.33.41-1.85.74-.58.35-1.08.77-1.4,1.37-.11.18-.17.39-.27.59-.07.21-.11.43-.17.65-.1.74-.2,1.51-.23,2.26-.02.59.1,1.17.11,1.75,0,.13.03.25.02.38-.04.47-.22.62-.68.71-.11.02-.21.05-.32.06-.35.04-.64-.17-.78-.53-.38-1.08-.35-2.23-.27-3.36.03-.42.07-.85.11-1.27,0-.19.09-.47.14-.71.05-.25.11-.49.21-.74h.05Z"/><path class="cls-2" d="M322.77,436.4c.84-.32,1.62-.44,2.39-.54.28-.05.55-.12.83-.12.99,0,1.96.11,2.91.22.42.07.84.13,1.26.2.53.08,1.07.27,1.53.59.14.1.09.17-.08.28-.17.1-.46.28-.75.38-1.03.28-1.96.45-2.98.28-.61-.08-1.22.12-1.81.24-.66.09-1.32.19-1.93.37-.38.11-.71.25-.99.44-.5.35-.96.75-1.26,1.24-.23.38-.26.83-.27,1.23,0,.09.02.18.01.27-.06.31-.21.41-.76.48l-.37.05c-.41.05-.77-.14-.91-.54-.37-1.18.15-2.58.95-3.48.3-.34.63-.64.97-.89l.26-.19.33-.21c.23-.15.43-.23.65-.33l.03.05Z"/><path class="cls-2" d="M417.96,405.5l-28.83-94.79-13.94-52.56s-31.73,5.54-35.48,5.79c-3.76.25-25.83-.4-25.83-.4,0,0-4.44,27.69-6.01,39.37-1.58,11.67-5.88,60.59-5.88,60.59l-3.99,48.52-.09,18.09s16.13,6.48,29.7,6.37c13.57-.11,44.74-2.36,58.1-6.03,13.35-3.68,34.4-13.13,34.4-13.13l-2.15-11.82ZM323.18,378.41c1.16-.51,12.12,7.16,13.09,7.65.84.42,11.13-7.27,13.8-9.28.39-.3.9-.33,1.32-.09,2.28,1.3,9.55,5.37,11.37,5.82,2.17.53,12.94-8.11,12.94-8.11,0,0,8.37,3.84,7.73,4.58-.65.75-7.56-2.35-7.56-2.35,0,0-8.87,7.39-11.16,8.8-2.29,1.4-13.39-6.23-13.39-6.23,0,0-12.65,8.63-13.82,9-1.17.36-13.42-7.21-13.42-7.21,0,0-8.37,7.75-9.14,8.09-.78.34-1.56-1.28-1.56-1.28,0,0,8.64-8.88,9.8-9.39ZM394.33,398.2c-.8.83-8.28-2.28-8.28-2.28,0,0-8.47,7.94-11.29,9.53-2.81,1.58-16.33-6.83-16.33-6.83,0,0-15.56,9.72-16.99,10.14-1.44.42-16.36-7.91-16.36-7.91,0,0-10.32,8.7-11.27,9.08-.95.38-1.9-1.4-1.9-1.4,0,0,10.65-9.97,12.08-10.54,1.42-.58,14.78,7.87,15.96,8.4,1.03.46,13.69-8.19,16.97-10.45.48-.33,1.1-.37,1.62-.11,2.78,1.43,11.63,5.9,13.86,6.38,2.65.58,12.58-9.05,12.58-9.05,0,0,10.14,4.2,9.35,5.04Z"/><path class="cls-1" d="M313.5,250.11s2.99-1.11,4.12-2.23,6.23-5.79,6.23-5.79c0,0,7.54-1.44,10.73-.63,3.18.8,5.05,1.3,4.64,2.18s-4.24,1.55-4.24,1.55c0,0,5.87,2.27,6.01,2.86s-9.19,2.06-9.19,2.06c0,0,8.26,2.68,7.9,3.36s-7.43,1.49-7.43,1.49c0,0,5.13,1.51,4.4,2.37s-12.11.98-14.6,2.54-9.95,2.25-10.76,1.96,2.18-11.72,2.18-11.72Z"/><path class="cls-2" d="M323.04,259.97c.5-.17,1-.38,1.55-.65.2-.09.36-.26.58-.34.78-.28,1.66-.51,2.54-.54.39-.02.77-.06,1.15-.05.49.02.99.19,1.36.53.11.11.05.19-.11.3-.16.09-.42.3-.62.39-.19.06-.36.16-.52.24-.16.06-.32.11-.48.18-.32.13-.63.26-.99.35-.46.08-.82.46-1.27.72-.51.27-1.06.55-1.64.82-.36.16-.72.31-1.08.46-.55.22-1.11.38-1.64.61-.41.18-.79.47-1.2.7-.09.05-.17.12-.27.14-.37.09-.52-.07-.72-.67-.04-.14-.09-.27-.13-.41-.12-.47-.06-.89.13-1.12.56-.66,1.21-.86,1.87-1.13.49-.19.99-.35,1.48-.58l.03.05Z"/><path class="cls-2" d="M326.3,261.46c.12.32.28.6.6.85.11.09.25.12.37.2.22.15.47.26.73.36.26.12.55.21.85.26.27.05.53.02.81.04.35,0,.58,0,1.08,0,.12,0,.11.02.04.11-.07.08-.2.28-.38.43-.33.24-.68.52-1.08.62-.4.1-.82.14-1.24.08-.5-.08-1.04-.1-1.55-.27-.55-.19-1.1-.52-1.53-.96-.27-.26-.49-.57-.68-.88-.3-.47-.44-1.02-.57-1.57-.1-.42-.26-.88-.25-1.4,0-.11-.02-.23.01-.34.12-.42.42-.43.94-.21.12.05.25.1.37.16.39.21.68.5.82.67.33.46.36.62.47.98.09.23.09.57.25.84l-.04.04Z"/><path class="cls-2" d="M310.31,255.72c.26-.78.6-1.53.94-2.27.13-.26.21-.55.37-.81.59-.88,1.17-1.74,1.9-2.49.32-.33.63-.66.94-.99.21-.2.42-.4.64-.59.23-.18.48-.34.72-.49.16-.09.18-.02.15.16-.04.18-.1.5-.26.77-.27.5-.52,1-.76,1.49-.12.24-.24.48-.36.73-.16.22-.33.43-.49.65-.42.51-.62,1.19-.89,1.8-.34.66-.63,1.34-.89,2.04-.15.43-.3.87-.4,1.32-.16.67-.32,1.36-.3,2.05,0,.53.17,1.04.27,1.53.02.11.06.21.07.32.08.39-.02.54-.41.76-.09.05-.18.11-.27.15-.31.14-.62.04-.85-.3-.17-.25-.3-.51-.41-.79-.13-.28-.22-.56-.24-.85-.09-.58-.06-1.16-.01-1.73.08-.85.28-1.67.52-2.47h.05Z"/><path class="cls-2" d="M341.96,175.55s-5.53,4.23-12.06,4.14c-7.72-.11-8.29-2.43-14.49-2.43-3.18,0-7.88,2.48-9.72,3.84s6.09-5.55,6.09-5.55l4.63-2s7.22,3.14,9.58,3.4,9.7,0,9.7,0l6.27-1.4Z"/><path class="cls-2" d="M303.28,166.85c-.39-.68-.96-1.31-1.59-1.82-.21-.16-.47-.27-.74-.4-.91-.47-2.05-.71-3.14-.58-.49.02-.98.16-1.42.35-.55.28-1.13.55-1.7.94-.18.11-.22.06-.2-.17.03-.21.07-.66.33-1.05.98-1.31,2.76-1.96,4.34-1.65.94.15,1.92.24,2.83.68,1.04.51,1.76,1.21,2.43,2.03.39.51.73,1.06,1,1.64.41.88.61,1.87.61,2.87,0,.76-.03,1.59-.38,2.33-.06.17-.15.32-.24.48-.38.56-.69.56-1.11.32-.1-.06-.2-.11-.29-.18-.29-.23-.37-.62-.27-.96.23-1.02.41-1.76.28-2.72-.1-.69-.35-1.42-.77-2.08l.04-.03Z"/><path class="cls-1" d="M301.09,161.15s3.74,1.89,4.61,3.2,10.22,9.56,16.39,11.2c6.17,1.65,15.52,1.05,18.35-.47,2.82-1.51,10.69-11.11,10.69-11.11,0,0,3.25-9.63,2.09-15.31-1.16-5.68-4.63-20-8.51-23.43-3.88-3.43-13.38-9.65-13.38-9.65,0,0-11.84,3.59-14.91,3.59-3.07,0-8.12,8.12-8.33,8.48s-.02,8.51-1.52,13.4c-1.51,4.89-7.56,9.06-7.56,9.06,0,0-8.19.49-9.07,4.44s1.79,5.51,3.5,6.96c1.71,1.44,7.65-.37,7.65-.37Z"/><path class="cls-2" d="M350.52,167.45s7.44,2.53,11.9,0c3.07-1.74,2.1-7.44,2.1-7.44,0,0,3.01,1.12,4.83-1.22,2.18-2.81-.23-6.44-.89-8.27s.96-1.63,4.38-5.93.09-10.01-1.82-11.14c-2.27-1.33-7.22-.85-6.49-2.82.91-2.44,1.58-8.8-2.1-11.45-3.61-2.6-6.74-2.16-8.56-2.73-2.73-.86-.64-14.26-11.39-17.23-3.74-1.03-9.18.93-9.18.93,0,0-1.35.16-2.27-3.17-.93-3.33-6.95-4.11-9.64-3.53s-5.33,6.7-5.33,6.7c0,0-2-1.27-4.27-2.92-2.27-1.65-9.49-1.92-12.75-.25s-6.15,5.78-6.62,7.4,1.48,8.67,1.48,8.67c0,0-7.29-.95-8.69-.28s-3.74,3.56-4.26,5.25c-.52,1.69,2.89,6.66,2.89,6.66,0,0-6.57,1.85-9.01,3.54-2.44,1.69-4.37,7.2-4.86,11.16s5.47,9.98,7.9,11.45,2.08,4.34,2.08,4.34c0,0-2.53.76-3.66,2.63-1.13,1.88-3.91,7.92,1.58,12.47,7.03,5.82,15.46-.29,15.77-2.82l1.51-4.48s-5.87-3.99-5.22-6.65,2.66-4.72,2.66-4.72c0,0,9.79-2.55,11.47-4.4s4.1-6.14,4.1-6.14l1.11-10.96s3.05-2.34,4.29-3.4,2.85-6.17,2.85-6.17c0,0,7.13,1.38,9.18,0,2.05-1.38,5.74-4.94,5.74-4.94l7.12,6.23s10.56,11.84,11.61,15.72c1.05,3.88,4.85,11.09,4.5,14.06-.36,2.96-4.03,15.85-4.03,15.85Z"/><path class="cls-2" d="M232.21,464.02s-4.55.51-4.69,2.2,12.75,3.38,12.75,3.38l-6.44-3.72-1.63-1.86Z"/><path class="cls-2" d="M236.82,451.59c1.07-.3,1.97-.33,2.89-.39.33-.02.65-.09.98-.1,1.16-.03,2.31.19,3.44.35.5.06,1,.16,1.5.24.63.11,1.27.27,1.86.57.18.09.14.12-.04.18-.18.05-.51.2-.87.29-.63.13-1.25.3-1.87.44-.61.09-1.23.07-1.85.04-.74-.02-1.51.1-2.26.18-.82.07-1.65.15-2.41.32-.24.05-.45.11-.65.18-.19.07-.31.13-.49.26-.5.38-.99.98-1.3,1.67-.25.53-.33,1.14-.45,1.73-.03.13-.03.27-.08.39-.18.46-.4.56-.98.46-.13-.02-.27-.04-.39-.07-.43-.11-.71-.43-.75-.84-.1-1.23.31-2.41,1-3.62.27-.45.59-.89,1.03-1.32.22-.21.44-.42.76-.6.16-.09.33-.19.49-.26l.42-.15.02.06Z"/><path class="cls-2" d="M170.94,467.27s5.23.56,5.23,2.12c0,1.29-9.32,2.12-9.32,2.12l4.09-4.24Z"/><path class="cls-2" d="M168.75,459.06c-.17-.38-.45-.81-.69-1.15-.23-.32-.5-.62-.86-.86-.25-.18-.56-.28-.86-.42-1.06-.52-2.38-.79-3.72-.89-.6-.06-1.21-.06-1.81-.03-.77.09-1.57.02-2.38-.13-.25-.05-.23-.16-.05-.37.19-.2.52-.59.96-.82,1.54-.66,3.25-.95,4.99-.56,1.02.22,2.15.26,3.23.7.59.24,1.16.56,1.67.97.27.18.48.45.72.67.21.23.38.47.57.7.45.59.84,1.24,1.13,1.95.45,1.07.63,2.31.47,3.45-.1.89-.21,1.76-.47,2.57-.05.18-.09.36-.16.52-.29.6-.55.68-1.2.52-.15-.04-.3-.07-.45-.11-.48-.16-.75-.59-.72-1.09.03-.73.14-1.37.17-1.94.06-.57-.03-1.05,0-1.5.01-.67-.17-1.4-.6-2.16l.06-.04Z"/><path class="cls-2" d="M173.02,256.35c-.12.89-14.95,54.72-14.95,54.72,0,0-28.32,101.5-29.84,108.25-1.52,6.76-5.1,24.59-4.58,27.2s9.14,7.87,17.36,7.73c8.22-.14,32.78,1.75,37.42-.23,4.64-1.98,8.6-3.07,8.6-3.07l19.01-88.02s-1.37,12.99,1.34,25.69c2.71,12.71,9.37,47.86,9.37,47.86,0,0,4.4,13.21,6.74,13.74,2.34.53,26.79,1.79,31.87.73,5.08-1.06,24.59-5.59,24.59-5.59l-2.86-19.69-21.66-97.19-9.85-51.4s-3.71-20.47-2.32-20.74c1.39-.27-45.46-2.84-51.7-1.76s-18.53,1.76-18.53,1.76Z"/><path class="cls-2" d="M157.3,224.25c1.35-.39,2.66-.91,3.96-1.48.48-.2.9-.5,1.37-.72.82-.39,1.62-.83,2.42-1.27l1.2-.67,1.15-.75c.68-.45,1.29-1,1.89-1.53.79-.68,1.53-1.4,2.43-2,.28-.19.37-.06.34.3-.04.34-.1.99-.43,1.54-.32.46-.68.89-1.03,1.34-.36.44-.81.77-1.22,1.15-.41.38-.87.71-1.32,1.04-.45.34-.92.64-1.42.91-.58.35-1.16.7-1.75,1.05-.58.37-1.17.72-1.78,1.03-1.33.69-2.73,1.26-4.13,1.78-.87.3-1.74.6-2.63.84-1.33.41-2.71.67-4.05.99-1.05.22-2.07.52-3.14.7-.23.04-.46.11-.7.13-.89.07-1.18-.07-1.37-.62-.05-.13-.1-.25-.13-.38-.09-.43.25-.81.84-.98,1.77-.5,3.58-.89,5.42-1.3,1.36-.34,2.73-.67,4.06-1.14l.02.05Z"/><path class="cls-2" d="M100.83,176.8c-.49.62-1,1.11-1.61,1.6-.21.16-.38.35-.59.48-.73.49-1.49.91-2.26,1.31-.34.18-.65.4-.98.6-.39.3-.87.47-1.4.53-.17.01-.17-.07-.11-.24.06-.16.14-.48.29-.73.13-.23.3-.38.48-.53.18-.15.35-.31.53-.47.36-.31.74-.6,1.14-.85.51-.28.92-.73,1.35-1.1.23-.2.48-.42.66-.6.21-.22.41-.45.59-.69.23-.29.42-.59.57-.91.22-.48.38-1,.37-1.54,0-.42-.2-.82-.36-1.21-.02-.09-.07-.17-.08-.26-.06-.34.04-.49.48-.71.1-.05.19-.1.29-.15.33-.14.67-.08.91.17.17.19.34.39.47.62.11.23.19.48.26.74.12.52.15,1.1.06,1.68-.16.86-.57,1.64-1.02,2.28l-.04-.02Z"/><path class="cls-2" d="M86.68,153.88c-.36.05-.73.09-1.12.11-.14,0-.28.03-.42.03-.5-.01-.99-.14-1.43-.35-.2-.09-.39-.18-.57-.29-.23-.14-.44-.34-.57-.57-.04-.07,0-.09.09-.08.08.02.22.04.35.1.44.21.88.23,1.33.31.27.04.57.02.86-.02.32-.03.64-.09.97-.17.2-.05.41-.1.62-.16.31-.09.64-.17.96-.27.25-.08.48-.21.75-.3.06-.02.11-.05.17-.06.22-.05.31.03.37.34l.04.21c.03.24-.04.44-.16.52-.37.24-.74.41-1.19.5-.34.07-.69.14-1.04.2v-.03Z"/><path class="cls-2" d="M397.18,466.99c.88-.01,1.77-.08,2.49-.24.15-.02.35-.04.36-.22,0-.08-.01-.16-.05-.24-.03-.06,0-.03-.12-.18-.09-.14-.25-.27-.37-.4-.56-.54-1.3-1.06-2.07-1.53-1.14-.7-2.43-1.2-3.68-1.79l-6.82-3.07c-1.15-.54-2.29-1.1-3.42-1.74-1.12-.65-2.25-1.35-3.25-2.38l-.34-.38c-.12-.17-.22-.36-.32-.54-.17-.37-.23-.67-.32-.98-.13-.6-.21-1.17-.28-1.75-.12-1.14-.2-2.26-.26-3.37-.11-2.85-.39-5.72.62-8.53.38-.87.25-.74.5.02.14.38.36.91.69,1.56.26.64.42,1.38.53,2.18.04.36.09.71.12,1.06l.03,1.06.09,2.12c.08,1.4.17,2.81.36,4.11.04.34.11.62.16.92.07.25.14.51.12.47-.03-.01.07.08.15.19.07.1.19.19.29.29.19.2.45.39.69.58,1.02.76,2.24,1.45,3.49,2.1,3,1.59,6.48,2.67,9.77,4.19,1.8.88,3.65,1.71,5.36,3.22.23.19.38.39.66.69.23.31.47.63.62.97.36.68.45,1.44.34,2.14-.11.73-.7,1.26-1.3,1.64-.34.16-.66.35-1.03.44l-.53.17-.4.08c-2.63.47-5.08.28-7.53.06-3.71-.39-7.34-1.23-10.87-2.23-2.74-.79-5.45-1.59-8.08-2.74-.57-.28-1.15-.5-1.71-.82-2.07-1.15-2.57-1.81-2.51-2.76.01-.21,0-.44.04-.62.17-.6,1.23-.51,2.69.15,1.1.49,2.22.94,3.36,1.36,1.13.46,2.29.87,3.46,1.28,2.35.79,4.77,1.52,7.23,2.07,3.64.82,7.44,1.42,11.05,1.32v.08Z"/><path class="cls-2" d="M370.07,448.11l.03,5.36c0,.65.1,1.3.11,1.95l.08,3.45c.02,1.15.04,2.31.11,3.46.02.51.07,1.02.13,1.53.04.51.08,1.02.12,1.52.06.65.14,1.3.16,1.95.04.65-.02,1.32.06,1.97.03.41-.08.37-.26.05-.14-.33-.52-.91-.84-1.62-.47-1.28-.87-2.58-1.15-3.89-.23-1.32-.4-2.66-.47-4.01-.07-1.62-.36-3.28-.51-4.92-.15-1.81-.27-3.62-.32-5.44l-.1-3.35c-.06-1.69-.05-3.39-.15-5.07-.08-1.3-.32-2.58-.48-3.87-.04-.28-.1-.56-.11-.85-.03-1.06.18-1.41.95-1.63.18-.05.35-.12.53-.15.59-.1,1.09.33,1.3,1.09.61,2.27.66,4.66.76,7.07.04,1.79.08,3.59.12,5.38h-.07Z"/><path class="cls-2" d="M347.77,466.25c.86-.02,1.71-.06,2.51-.17.4-.06.78-.13,1.14-.22.09-.02.16-.05.25-.07.06-.02.05,0,.08-.01.04-.01.08-.02.11-.03.19-.04.22-.26.14-.42.08-.01-.59-.74-1.22-1.16-.97-.68-2.18-1.16-3.36-1.69-2.1-.94-4.32-1.76-6.54-2.64-2.22-.89-4.46-1.77-6.62-3.06-.48-.29-.95-.61-1.41-.97-.23-.19-.45-.38-.67-.6-.21-.22-.42-.42-.63-.81-.36-.66-.47-1.22-.59-1.78-.11-.56-.18-1.1-.25-1.63-.14-1.38-.27-2.74-.22-4.11.03-.68.09-1.36.17-2.04.02-.34.12-.68.23-1.01.11-.34.2-.67.32-1,.38-.82.25-.7.5.02.14.36.35.87.68,1.48.26.6.42,1.3.53,2.06.04.33.1.67.13,1l.05.99c.04.66.09,1.32.16,1.96.07.64.15,1.28.27,1.84.02.15.06.27.1.4.03.13.07.26.1.33.04.09.07.2.06.17,0,0,0,0,0,.01l.12.12c.64.68,1.74,1.37,2.87,1.96,1.14.6,2.37,1.15,3.61,1.7,2.99,1.33,6.33,2.18,9.53,3.65.88.41,1.75.87,2.62,1.43.43.29.86.61,1.28,1.01.18.18.5.48.68.79.24.3.38.63.53.97.21.68.35,1.41.12,2.08-.27.66-.83,1.14-1.46,1.48-.31.17-.65.34-.98.43-.26.09-.52.15-.77.22-.51.12-1,.21-1.5.27-2.42.3-4.77.21-7.1.02-3.53-.31-7-1.03-10.38-1.94-2.62-.71-5.22-1.42-7.74-2.5-.55-.25-1.1-.46-1.63-.76-1.98-1.09-2.45-1.73-2.38-2.67.01-.21,0-.43.05-.61.17-.59,1.2-.54,2.59.08,4.19,1.73,8.66,3.31,13.36,4.27,3.47.72,7.07,1.18,10.55,1.09v.08Z"/><path class="cls-2" d="M321.94,448.11l.03,5.36c0,.65.1,1.3.11,1.95l.08,3.45c.02,1.15.04,2.31.11,3.46.02.51.07,1.02.13,1.53.04.51.08,1.02.12,1.52.06.65.14,1.3.16,1.95.04.65-.02,1.32.06,1.97.03.41-.08.37-.26.05-.14-.33-.52-.91-.84-1.62-.47-1.28-.87-2.58-1.15-3.89-.23-1.32-.4-2.66-.47-4.01-.07-1.62-.36-3.28-.51-4.92-.15-1.81-.27-3.62-.32-5.44l-.1-3.35c-.06-1.69-.05-3.39-.15-5.07-.08-1.3-.32-2.58-.48-3.87-.04-.28-.1-.56-.11-.85-.03-1.06.18-1.41.95-1.63.18-.05.35-.12.53-.15.59-.1,1.09.33,1.3,1.09.61,2.27.66,4.66.76,7.07.04,1.79.08,3.59.12,5.38h-.07Z"/><path class="cls-2" d="M308.54,432.2c5.53,1.19,11.31,1.73,17.07,2.05,5.77.29,11.57.31,17.37.09,11.6-.41,23.17-1.59,34.55-3.86,8.31-1.65,16.52-3.81,24.56-6.4,3.06-.99,6.08-2.07,9.04-3.28,1.47-.61,2.93-1.25,4.32-1.96.7-.35,1.37-.73,2.01-1.12.3-.2.62-.4.86-.61.14-.1.27-.22.32-.28.05-.04.08-.09.12-.14.02-.05.04-.1.05-.15.01-.06,0-.08,0-.24,0-.28-.03-.62-.07-.95-.08-.67-.2-1.38-.34-2.08-.27-1.41-.61-2.83-.96-4.25-.7-2.84-1.48-5.67-2.28-8.5-1.6-5.66-3.28-11.31-4.99-16.95l-10.35-33.84c-3.9-12.77-7.88-25.59-11.62-38.31-2.41-8.17-4.79-16.36-7.02-24.6-2.14-8.26-4.19-16.55-5.69-24.94-.28-2.66-.41-3.8-.38-3.73.04.07.3,1.34,1.1,3.46,1.52,4.26,4.21,12.08,7,21.46,9.29,33.43,19.75,66.52,29.73,100.12,1.62,5.5,3.27,11.05,4.87,16.67.8,2.81,1.58,5.64,2.3,8.51.36,1.44.7,2.88,1,4.36.15.74.28,1.49.38,2.27.05.4.09.79.1,1.24.02.21,0,.55-.06.84-.03.31-.14.59-.25.87-.15.21-.29.42-.44.62l-.48.48c-.28.22-.56.47-.84.65-.55.39-1.11.73-1.66,1.05-1.11.64-2.23,1.19-3.37,1.72-2.26,1.05-4.55,1.98-6.86,2.86-4.62,1.73-9.31,3.24-14.02,4.56-11.43,3.18-23.12,5.43-34.93,6.66-11.79,1.23-23.68,1.61-35.54.85-4.39-.29-8.78-.76-13.14-1.56-2.18-.41-4.36-.9-6.5-1.59-1.07-.34-2.14-.76-3.19-1.25-.52-.25-1.04-.53-1.55-.85-.26-.14-.5-.35-.75-.52-.12-.09-.25-.18-.37-.29-.13-.12-.32-.28-.46-.43-.35-.4-.52-.93-.61-1.45-.07-.52-.08-.83-.1-1.23-.04-.76-.05-1.49-.06-2.22,0-1.47.03-2.92.07-4.37.09-2.9.24-5.79.4-8.68,1.3-21.96,3.35-43.94,5.33-65.66,1.57-16.88,3.04-33.44,4.87-50.12.41-3.67.79-7.27,1.25-10.97,1.74-13.7,2.9-18.06,4.48-20.77.35-.61.81-1.43,1.13-1.71.55-.46.41.55.14,3-.28,2.45-.74,6.33-1.38,11.32-1.86,14.81-3.39,30.11-4.96,45.62-1.55,15.51-3.05,31.26-4.44,47.04-.87,9.92-1.7,19.86-2.43,29.81-.36,4.97-.7,9.95-.96,14.92-.13,2.48-.25,4.97-.31,7.44-.03,1.23-.05,2.47-.04,3.67.01.6.01,1.2.07,1.75.08.74.05.5.07.58,0-.02-.02-.02-.02-.03.03.03.1.09.17.14l.43.29c.33.18.62.38.99.54.69.35,1.48.64,2.27.91,1.59.52,3.27.98,4.98,1.34v.09Z"/><path class="cls-2" d="M436.82,144.18c-.6,1.13-1.28,2.19-2.16,3.11-.31.34-.6.71-.97,1.01-.33.27-.68.52-1.08.75-.23.11-.39.2-.7.31-.3.07-.59.14-.89.12-1.26.02-1.89-1.58-1.69-2.48.1-.8.42-1.46.75-2.06.21-.39.45-.76.71-1.11.25-.35.55-.67.95-.9.24-.15.28-.07.29.22,0,.21.02.42.03.59,0,.23-.07.44-.16.65-.35.73-.66,1.49-.78,2.15-.03.17-.07.31-.09.45-.03.12-.01.3-.04.3-.03.05-.05.17.01.29.04.07.12.1.2.09.05,0,.05,0,.13-.04.08-.04.16-.1.24-.15.33-.25.65-.59.96-.95.68-.79,1.33-1.69,1.86-2.64.32-.59.61-1.2.82-1.83.31-.94.5-1.96.24-2.8-.09-.32-.28-.58-.51-.76-.05-.03-.12-.12-.15-.1-.01,0-.03-.01-.04,0,.06-.07.12-.16.16-.27.03-.06.05-.09.05-.16,0,0,0-.01,0,0,.02.08.09.22.28.41l.07.07s0,0,0,0v.05s-.03.08-.05.14c-.2.42-.49.61-1.08.55-.14-.01-.28-.01-.4-.04-.42-.09-.73-.42-.73-1.06,0-.24.06-.48.16-.75.11-.27.23-.6.74-.97.25-.18.65-.34,1.08-.34.41,0,.78.14,1,.27.29.16.38.26.56.41l.31.33c.81.95,1.04,2.16,1.03,3.15-.03,1.51-.51,2.78-1.05,3.96l-.05-.02Z"/><path class="cls-2" d="M434.67,139.8c-.75,1.64-1.67,3.1-2.74,4.47-.39.5-.74,1.03-1.18,1.49-.81.81-1.58,1.6-2.87,2.18-.42.17-.83.22-1.24.2-.41-.04-.78-.25-1.05-.55-.28-.29-.5-.64-.58-1.04-.08-.19-.08-.4-.09-.59,0-.17-.01-.33.01-.48.12-1.09.45-2.02.83-2.92.24-.57.51-1.13.84-1.66.17-.26.34-.52.54-.76.08-.13.21-.23.35-.32.13-.1.26-.19.4-.28.35-.21.36-.12.36.28,0,.19.02.48.05.81,0,.31-.08.61-.2.91-.43,1.05-.92,2.11-1.15,3.12-.07.25-.1.49-.13.72-.03.2,0,.49-.03.47-.03.07-.02.25.14.32.06.15.71-.24,1.17-.71.48-.47.92-1.03,1.35-1.59.95-1.24,1.81-2.59,2.5-4,.21-.43.41-.87.57-1.32.08-.22.16-.45.23-.67.06-.21.08-.27.12-.42.08-.38.16-.86-.06-1.26-.1-.23-.38-.21-.56-.13-.2.08-.39.2-.56.34-.13.11-.25.23-.36.35l-.53.58c-.37.43-.71.87-1.05,1.32-.15.2-.28.41-.43.6-.57.71-.82.82-1.51.61-.15-.04-.3-.07-.43-.11-.44-.11-.65-.83-.28-1.52.51-1.04,1.15-1.98,1.93-2.88l.3-.33c.1-.11.19-.2.42-.42.42-.33.84-.7,1.29-.95.9-.55,1.76-.76,2.55-.57.63.16,1.16.59,1.46,1.15.35.51.48,1.22.51,1.97v.58c-.02.19-.07.4-.1.6-.04.2-.06.4-.12.6l-.14.53c-.14.46-.31.89-.48,1.32l-.06-.02Z"/><path class="cls-2" d="M421.86,116.5c.65-1.25,1.35-2.36,1.99-2.97.16-.17.32-.28.47-.38.15-.12.3-.18.44-.26.29-.12.54-.17.89-.25.18,0,.41-.03.65.11.13.02.24.08.35.13.08.07.19.13.25.2.28.27.43.57.56.93.27.7.41,1.73.2,3.18-.07.61-.23,1.28-.36,1.91l-.23.95c-.03.15-.09.33-.12.45l-.08.28c-.21.74-.44,1.47-.67,2.19-.46,1.45-.95,2.88-1.46,4.3-.45,1.26-.85,2.55-1.25,3.81-.29.8-.56,1.61-.87,2.41l-.23.6-.31.57c-.21.38-.41.76-.62,1.14-.27.47-.26.4-.28-.08-.01-.24-.04-.58-.09-1-.03-.23-.05-.46-.08-.68-.02-.12-.01-.24-.04-.37l.05-.36.47-2.58c.18-.85.44-1.68.67-2.51.48-1.66.95-3.33,1.57-4.95.35-.98.63-2,.86-3.03l.26-1.24c.05-.24.1-.51.11-.81,0-.15,0-.31-.05-.45-.06-.15-.22-.18-.31-.13-.28.18-.48.47-.7.82-.16.25-.32.53-.48.84l-.14.27-.23.48-.45.98c-.9,1.98-1.77,4-2.53,6.04-.58,1.59-1.01,3.2-1.51,4.8-.11.35-.2.71-.32,1.06-.44,1.31-.82,1.64-1.51,1.69-.16.01-.32.04-.46.03-.46-.04-.69-.73-.48-1.73.65-2.94,1.65-5.94,2.79-8.92.42-1.11.87-2.21,1.34-3.31l.72-1.65.46-1.01.74-1.54.04.06Z"/><path class="cls-2" d="M430.09,120.4c.76-1.11,1.6-2.14,2.35-2.67.77-.56,1.28-.63,2.04-.61.08.01.19.06.29.08.07.1.2.11.27.17.19.1.3.23.39.36.18.27.3.55.37.91.09.38.12.86.1,1.39-.04.55-.14,1.18-.32,1.83-.15.57-.33,1.15-.52,1.7l-.21.58-.19.49c-.26.65-.53,1.29-.81,1.92-.56,1.27-1.14,2.51-1.74,3.75-.53,1.1-1.09,2.19-1.63,3.27-.36.69-.69,1.39-1.11,2.05-.44.64-.87,1.3-1.44,1.86-.36.35-.37.26-.33-.19.02-.46.05-1.3.3-2.15.52-1.47,1.15-2.88,1.71-4.33.57-1.44,1.29-2.82,1.95-4.23.4-.84.73-1.73,1.02-2.64l.44-1.47c.06-.2.12-.42.16-.66.02-.12.03-.25.02-.38,0-.14-.11-.24-.21-.23-.33.06-.56.36-.83.65-.19.22-.33.4-.57.74-.37.53-.72,1.07-1.07,1.62-1.05,1.67-2.1,3.36-3.07,5.08-.75,1.34-1.37,2.72-2.11,4.08-.16.3-.31.6-.49.89-.7,1.08-1.14,1.29-1.76,1.15-.14-.03-.29-.05-.41-.1-.39-.17-.41-.8-.06-1.62,1.08-2.42,2.41-4.91,3.82-7.41.52-.93,1.06-1.85,1.62-2.78l.86-1.39.44-.69.27-.42.43-.65.05.04Z"/><path class="cls-2" d="M340.76,262l4.8-.35c1.6-.17,3.2-.31,4.79-.52,1.16-.16,2.31-.4,3.47-.55,4.09-.58,8.17-1.29,12.24-2.12,1.79-.41,3.58-.87,5.31-1.44l1.68-.51,1.67-.54c1.14-.3,2.28-.54,3.48-.7.72-.16.68-.02.2.44-.24.23-.57.6-.97,1.07-.41.44-.93.87-1.54,1.22-2.22,1.07-4.55,1.85-6.91,2.47-1.18.32-2.36.64-3.56.88-1.2.26-2.39.52-3.62.66-2.91.42-5.87,1.14-8.83,1.57-1.63.24-3.26.48-4.9.64l-2.45.28-2.46.21c-2.02.2-4.05.26-6.07.39-1.53.07-3.07.07-4.61.12-1.54,0-3.07-.03-4.6-.02-1.19-.05-2.37-.03-3.54-.03-1.18,0-2.36-.09-3.54-.15-.52-.04-1.04-.02-1.56-.12-1.94-.3-2.51-.68-2.76-1.47-.06-.18-.14-.37-.16-.54-.06-.58.81-.92,2.18-.91.51.03,1.01.05,1.52.08.52,0,1.03.01,1.55.02,1.04,0,2.07.1,3.13.08,1.06,0,2.12.04,3.18.08,1.07,0,2.14,0,3.22,0,1.6.03,3.2-.07,4.81-.08,1.61-.05,3.22-.17,4.83-.25v.07Z"/><path class="cls-2" d="M324.53,257.41c.41-.26.83-.56,1.34-.53.12-.01.24,0,.37,0h.29s.41.03.41.03l1.58.11c1.04.07,2.08.13,3.11.17.38.01.75,0,1.12,0l.56-.02c.16,0,.12,0,.2,0,.18.02.39.04.64.03.13,0,.26,0,.4-.04.13-.02.33-.08.32-.21-.14-.37-.64-.56-1.21-.81l-.32-.12-.42-.14c-.28-.09-.56-.17-.84-.24-.56-.16-1.13-.32-1.7-.45-.73-.17-1.47-.29-2.2-.41-.74-.17-1.46-.33-2.22-.5-.47-.1-.42-.08-.02-.24.39-.15,1.17-.62,2.11-.74,1.63-.05,3.27.07,4.86.42.39.1.79.22,1.18.34l.43.14c.18.05.36.12.53.18.36.12.69.25,1.03.39.64.28,1.26.59,1.63.93.4.33.64.65.78.97.08.19.15.38.18.62.03.23-.03.6-.19.78-.29.39-.68.63-1.2.86-.53.22-1.23.39-2.02.47-.39.04-.79.08-1.19.1l-.59.03h-.37c-2.16.03-4.29-.1-6.39-.2-.39,0-.42-.05-.6,0-.07.03-.13.08-.19.12l-.37.28c-.54.4-1.08.81-1.67,1.17-1.74,1.12-3.74,1.87-5.77,2.25-1.58.29-3.18.41-4.8.26-.35-.05-.7-.07-1.06-.14-1.3-.27-1.62-.69-1.65-1.37,0-.16-.04-.31-.02-.45.03-.23.19-.4.47-.53.28-.13.65-.21,1.07-.14.62.11,1.26.08,1.87.17.62-.03,1.24.06,1.85-.02,1.23-.04,2.44-.27,3.61-.67.87-.29,1.73-.67,2.54-1.15.41-.24.81-.49,1.21-.78.2-.14.39-.29.59-.44l.3-.24c.12-.08.16-.15.42-.31l.04.05Z"/><path class="cls-2" d="M335.91,252.93c.14.04.38.09.69.07.09,0,.21-.03.26-.09.04-.06.02-.11,0-.14-.05-.08-.29-.11-.35-.16-.06-.05-.15-.11-.27-.16l-.2-.09-.11-.05s-.05-.02-.2-.06c-.95-.26-1.92-.48-2.89-.65-.87-.14-1.74-.24-2.61-.3-.56-.02-1.11-.04-1.67-.11-.28-.04-.55-.03-.84-.11-.28-.09-.57-.19-.86-.23-.36-.03-.32-.03-.03-.18.14-.08.34-.24.59-.46.12-.1.26-.25.41-.34.15-.08.31-.13.49-.18,1.21-.37,2.43-.3,3.63-.28,1.2.13,2.38.35,3.55.67l.53.14.29.07.44.09c.59.14,1.17.27,1.72.44,1.11.32,2.09.72,2.59,1.15.36.29.6.56.78.93.08.18.16.46.05.73-.08.26-.25.41-.41.55-.46.33-.95.55-1.71.7-1.15.24-2.81.22-4.14.19-1.49-.06-2.96-.19-4.42-.22-1.13-.02-2.25.07-3.35.14-.24.02-.48.05-.72.06-.9.05-1.17-.15-1.4-.64-.05-.12-.12-.23-.16-.34-.13-.38.24-.76.95-.96,2.08-.42,4.2-.38,6.31-.34l2.34.07h.57s.01.02.02.03c.02,0,.04.02.07.02l.06.05Z"/><path class="cls-2" d="M338.23,247.97c.1.02.29.03.5-.04.22-.1.1-.24.01-.3-.09-.06-.27-.06-.37-.11l-.17-.07-.62-.14c-.46-.1-.93-.19-1.4-.28-.95-.17-1.9-.27-2.86-.4-.85-.1-1.72-.12-2.56-.12l-1.63.04c-.54,0-1.07-.01-1.65-.02-.35,0-.32-.03-.06-.23.25-.2.75-.58,1.39-.8,1.14-.33,2.29-.44,3.45-.54,1.16-.09,2.32-.09,3.47.11.69.11,1.4.17,2.11.24l.54.06c.17.02.55.05.81.11.58.1,1.15.23,1.63.41.75.26,1.27.59,1.61.96.18.19.32.39.4.67.05.14.04.31,0,.47,0,.15-.09.29-.15.41-.31.41-.68.7-1.24.95-.54.24-1.23.41-1.93.53-.35.06-.7.1-1.05.15l-.73.07c-1.45.13-2.89.16-4.31.27-1.1.08-2.17.27-3.25.4-.24.03-.47.08-.71.1-.89.02-1.18-.11-1.4-.55-.05-.1-.12-.2-.15-.3-.11-.34.23-.67.88-.88,1.93-.56,3.97-.69,5.99-.9l2.23-.22,1.09-.13h.09s.05.06.05.06Z"/><path class="cls-2" d="M326.76,240.14c2.18-.06,4.3.07,6.42.29.77.08,1.56.12,2.33.25.34.06.68.13,1.03.2.37.08.6.13,1.2.29,1.05.29,2.06.72,2.49,1.35.12.15.2.33.25.54.04.1,0,.22.09.32.02.1.04.21.03.32-.01.46-.27.79-.56,1.04-.56.52-1.65.79-2.65.93l-.32.05-.23.02-.46.04-.9.08c-.6.05-1.19.1-1.78.15-1.52.12-3.03.12-4.56-.05-.48-.04-.41-.02-.03-.18.19-.08.46-.23.78-.42.32-.21.71-.41,1.14-.52l1.14-.32.57-.16.57-.09,2.26-.35,1.1-.19c.12-.02.12-.01.13-.01.01,0,.04,0,.05,0l.08.02c.06,0,.15.01.26,0,.1,0,.26-.06.29-.16.08-.13-.01-.22-.12-.29-.12-.07-.24-.11-.42-.15l-.17-.04-.33-.06-.68-.11-1.38-.19c-2.02-.26-4.09-.4-6.15-.4-1.25.01-2.55.04-3.67.3-.41.1-.65.23-1.03.52-.35.27-.7.59-1.05.92-.7.66-1.38,1.36-2.08,2.06-1.09,1.07-2.1,2.23-3.49,3.14-.32.18-.6.42-.98.52-1.37.46-1.95.19-2.21-.31-.06-.11-.14-.22-.17-.32-.05-.18.06-.34.25-.53.09-.1.21-.17.33-.24.13-.08.28-.19.44-.27,1.87-1.12,3.72-3.02,5.69-5.04.37-.38.76-.76,1.18-1.14.23-.2.42-.38.7-.58l.4-.29c.17-.11.35-.21.53-.3.8-.38,1.37-.42,1.97-.52.58-.08,1.14-.12,1.69-.15v.06Z"/><path class="cls-2" d="M301.09,243.55c-1.78-1.25-3.64-2.81-4.58-5.24-.32-.85-.53-1.89-.45-2.74.19-2.9,1.23-5.65,2.79-7.95.7-1.02,1.43-2.02,2.25-2.94.28-.28.53-.59.82-.86.3-.26.62-.51.96-.72.17-.11.33-.22.52-.31l.58-.22c.2-.07.41-.11.6-.17.2-.05.44-.01.66,0,.55.07.45.07.21.52-.24.47-.42,1.46-.88,2.04-.22.26-.44.5-.64.78-.21.26-.47.47-.69.72-.47.48-.9,1-1.33,1.53-.83,1.08-1.58,2.23-2.26,3.47-.19.37-.35.77-.49,1.17-.11.41-.24.82-.3,1.25-.05.42-.15.85-.15,1.28-.03.43-.06.87-.04,1.2.08,1.55,1.26,3.1,2.77,4.3.93.75,1.96,1.42,3.04,2.01,1.65.89,3.39,1.68,5.17,2.31,1.39.48,2.81.78,4.23,1.15.31.08.63.14.94.23,1.17.33,1.47.68,1.5,1.36,0,.15.03.31.02.45-.05.46-.66.74-1.53.61-2.6-.4-5.3-1.16-7.96-2.21-1.98-.78-3.93-1.72-5.81-2.93l.03-.06Z"/><path class="cls-2" d="M277.3,218.66c-1.61,3.57-2.95,7.27-3.8,11.05-.47,1.89-.72,3.8-.92,5.71-.12,1.91-.15,3.82.09,5.69.32,2.72,1.25,5.36,2.54,7.76,2.26,4.27,6.01,7.7,10.32,10.18,4.32,2.5,9.18,4.14,14.13,5.17,2.2.47,4.44.79,6.68.94.56.04,1.11.06,1.66.07.33,0,.56,0,.84-.05.06-.02.15-.01.16-.09,0-.07,0-.14,0-.2l-.03-.4c-.01-.12-.06-.9-.08-1.43-.13-2.97-.03-6.03.74-9.02.39-1.49.97-2.97,1.89-4.26.43-.66.97-1.25,1.53-1.81.6-.52,1.32-.9,2.03-1.2.89-.37,1.3-.42,1.3-.37.01.08-.4.3-.93.88-.56.55-1.04,1.59-1.59,2.64-.26.55-.5,1.15-.71,1.8-.1.33-.21.66-.29,1.01-.11.34-.22.69-.32,1.06-.75,2.6-.87,5.45-.77,8.29l.06,1.08.09,1.28c.02.37.06.75.07,1.11v.54c-.02.17-.08.31-.11.46-.08.3-.17.56-.36.76-.34.1-.41.4-.7.53-.56.26-1.3.3-2.03.33-.88.02-1.1.01-1.53,0-.79-.03-1.57-.08-2.34-.15-6.17-.56-12.21-2.19-17.82-4.94-3.33-1.66-6.61-3.71-9.44-6.38-2.83-2.65-5.15-5.97-6.49-9.64-.36-1.01-.67-2.03-.91-3.07-.19-1.05-.43-2.1-.49-3.16-.23-2.12-.17-4.23.03-6.31.42-4.17,1.46-8.2,2.86-12.07,1.71-4.78,3.97-9.31,6.52-13.65,3.88-6.57,8.59-12.64,13.72-18.18,3.99-4.31,8.17-8.3,12.8-11.87,1.04-.75,2.03-1.55,3.12-2.25,4.04-2.64,5.55-3.12,6.8-2.92.28.04.62.03.81.1.32.12.09.5-.53,1.13-.31.32-.74.66-1.28,1.04-.53.39-1.14.84-1.85,1.31-4.18,2.84-8.2,6.13-12.07,9.68-3.83,3.6-7.5,7.48-10.81,11.66-4.94,6.19-9.28,12.96-12.48,20.19l-.07-.02Z"/><path class="cls-2" d="M152.93,473.92c-4.23.23-8.47.26-12.74-.07-1.56-.13-3.13-.2-4.71-.46-1.4-.26-2.8-.58-4.23-1.18-.36-.15-.72-.31-1.08-.54-.19-.11-.35-.2-.56-.34l-.63-.54c-.78-.75-1.37-1.73-1.4-2.79.03-1.06.59-2.03,1.37-2.76.42-.4.73-.61,1.05-.83.33-.22.65-.4.98-.58,1.32-.68,2.65-1.12,3.98-1.53,2.36-.69,4.73-1.28,7.11-1.66,1.53-.22,3.07-.46,4.63-.44.78,0,1.56.03,2.34.11.39.02.78.11,1.16.22.38.1.77.21,1.14.34.93.41.78.33-.04.59-.41.14-.98.36-1.65.7-.67.29-1.42.5-2.25.69-1.46.34-2.91.62-4.36.95-1.44.38-2.89.64-4.31,1.02-1.42.38-2.82.8-4.16,1.29-.67.24-1.29.53-1.9.8-.3.14-.58.28-.84.43-.11.06-.27.17-.31.19l-.13.06c-.23.11-.38.44-.2.69.08.13.17.22.31.32.3.17.61.37.99.51,1.49.63,3.35.93,5.15,1.19,4.01.5,8.18.54,12.31.39,2.55-.1,5.1-.28,7.63-.58,1.75-.21,3.51-.45,5.23-.78.86-.16,1.71-.36,2.53-.58.4-.12.81-.24,1.17-.39.38-.14.68-.31.86-.45.13-.19.33-.32.45-.58.66-1.05.99-2.47,1.18-3.86.2-1.4.26-2.84.29-4.29.01-.64-.02-1.26,0-1.91,0-2.39.23-3.14,1.14-3.68.2-.12.41-.29.61-.37.66-.27,1.35.73,1.55,2.59.22,2.23.26,4.53.01,6.92-.14,1.2-.34,2.42-.7,3.68l-.33.96c-.12.32-.29.66-.43.99-.15.33-.4.69-.6,1.02-.23.35-.56.69-.9,1.06-.88.72-1.56.95-2.13,1.18-.6.22-1.16.39-1.71.54-2.2.58-4.32.91-6.46,1.2-2.14.28-4.27.48-6.41.63v-.08Z"/><path class="cls-2" d="M250.21,468.04c4.11.48,8.28.72,12.42.75,1.51,0,3.01-.13,4.48-.22.56-.03,1.11-.08,1.65-.14l.97-.11c.18-.03.37-.06.56-.14.09-.04.19-.09.24-.18.05-.09.02-.19-.02-.27.14-.49-3.47-2.31-6.15-3.33-2.21-.87-4.52-1.57-6.81-2.21-1.47-.41-2.95-.82-4.42-1.23-.73-.23-1.48-.39-2.2-.69-.72-.3-1.43-.61-2.14-.96-.88-.44-.75-.43.11-.56.43-.06,1.06-.21,1.8-.31.37-.05.78-.13,1.2-.14.41.02.84.06,1.28.14,1.56.29,3.11.58,4.66.94,1.54.39,3.07.82,4.59,1.29,1.53.47,3.05,1,4.55,1.61.75.3,1.51.63,2.25.99.37.18.75.37,1.12.58.19.1.37.21.56.32l.3.17c.14.06.29.17.43.27,1.38.89,2.52,1.94,2.85,3.17.1.43.14.97-.1,1.44-.22.44-.55.77-.94,1.08-.82.59-2,.95-3.2,1.2l-.66.13-.57.09-1.14.16c-.76.09-1.51.15-2.25.2-4.36.25-8.66.07-12.95-.29-2.64-.22-5.28-.53-7.9-.94-1.99-.31-3.98-.7-5.95-1.25-.99-.28-1.97-.59-2.96-1.01-.49-.21-.98-.45-1.47-.76-.48-.31-.99-.68-1.41-1.29-.52-.87-.78-1.68-.98-2.5-.19-.82-.3-1.62-.37-2.42-.14-1.6-.13-3.17-.02-4.73.04-.69.08-1.37.18-2.06.19-1.28.41-2.1.72-2.65.34-.54.71-.8,1.2-.95.22-.07.43-.18.62-.2.32-.03.53.23.69.72.17.49.27,1.22.19,2.09-.17,2.6-.28,5.32-.04,7.82.08.61.15,1.22.28,1.75.11.54.32,1,.44,1.24-.08-.09.24.22.7.44.45.24,1.02.46,1.62.66,1.79.59,3.8,1.02,5.82,1.38,2.03.35,4.09.62,6.17.82v.09Z"/><path class="cls-2" d="M148.18,456.17c-4.65-.23-9.3-.64-13.98-1.34-2.34-.37-4.68-.8-7.08-1.6-.6-.21-1.21-.43-1.83-.74-.62-.31-1.25-.64-1.91-1.23-.16-.14-.33-.33-.49-.5-.16-.19-.32-.42-.46-.64-.12-.23-.23-.47-.32-.71-.11-.25-.12-.41-.18-.62-.2-.8-.23-1.46-.26-2.12-.06-2.58.26-4.89.58-7.24.34-2.33.76-4.62,1.21-6.9.9-4.56,1.93-9.07,3-13.57,1.57-6.56,3.16-13.11,4.9-19.61,6.17-22.91,12.92-45.63,19.64-68.36,2.94-10.09,5.9-20.24,8.82-30.26,1.86-6.44,3.73-12.89,5.59-19.34,1.93-6.43,3.99-12.82,6.2-19.15,1.43-3.93,1.43-3.35.95.19-.24,1.77-.61,4.28-1.09,7.3-.52,3.01-1.25,6.5-2.18,10.25-7.26,26.4-15.23,52.56-23.18,78.98-4.75,15.79-9.2,32.38-13.4,48.7-2.28,8.97-4.52,17.98-6.24,27.03-.42,2.26-.81,4.53-1.09,6.79-.13,1.13-.26,2.26-.3,3.36-.05,1.09-.06,2.23.13,3.08.11.48.12.5.4.8.27.26.69.51,1.13.73.9.45,1.96.8,3.02,1.1,2.15.59,4.4.99,6.66,1.31,5.59.75,11.28,1.05,16.95,1.17,5.68.11,11.37.02,17.03-.36,2.14-.15,4.28-.33,6.4-.59,2.11-.27,4.24-.59,6.19-1.17.48-.14.95-.31,1.32-.51.32-.16.43-.28.67-.7.45-.81.82-1.82,1.15-2.81.67-2,1.22-4.08,1.75-6.16,2.06-8.36,3.7-16.84,5.32-25.27,2.52-13.11,4.67-26.02,7.23-39,.57-2.86,1.1-5.66,1.74-8.53,2.38-10.64,3.73-13.95,5.4-15.88.38-.44.82-1.03,1.13-1.25,1.06-.72.21,3.58-1.46,11.3-2.47,11.46-4.6,23.38-6.86,35.45-1.14,6.04-2.28,12.12-3.43,18.23-1.21,6.1-2.46,12.23-3.84,18.36-1.05,4.56-2.07,9.09-3.6,13.71-.42,1.18-.79,2.3-1.56,3.67-.12.18-.2.35-.38.57-.19.21-.34.47-.58.64-.37.4-1.01.72-1.33.87-.73.34-1.37.54-2.01.73-2.51.68-4.86.99-7.24,1.27-4.74.52-9.44.74-14.14.83-4.7.09-9.4.03-14.1-.19l-.02-.08Z"/><path class="cls-2" d="M272.8,446.83c1.11-.34,2.23-.69,3.17-1.15.51-.21.89-.48,1.3-.72.15-.13.29-.26.45-.37.1-.06.09-.11.14-.16.03-.03.03-.01.04-.02.01-.02.02-.04.03-.07v-.04s.01-.2.01-.2c.02-.3,0-.7-.01-1.07-.05-.79-.13-1.61-.24-2.44-.21-1.67-.49-3.36-.79-5.05-.6-3.39-1.28-6.79-1.98-10.18-1.42-6.79-2.93-13.57-4.47-20.36-1.36-5.83-2.73-11.66-4.09-17.49-4.68-20.59-9.24-41.21-13.43-61.92-1.85-9.19-3.74-18.43-5.35-27.6-2.06-11.77-4.13-23.68-4.17-35.71.11-3.75.38-3.24,1.09-.13.39,1.55.85,3.75,1.46,6.39.57,2.64,1.14,5.74,1.69,9.12.99,5.98,1.91,11.98,3.03,17.95,1.09,5.98,2.27,11.94,3.4,17.93,2.31,11.96,4.78,23.93,7.25,35.97,2.97,14.39,6.65,29.24,10.03,43.9,1.86,8.06,3.71,16.12,5.49,24.21.89,4.04,1.75,8.1,2.57,12.17.78,4.09,1.61,8.13,2.02,12.4.05.56.08,1.13.08,1.73-.02.33.01.57-.08,1.02-.04.41-.17.81-.35,1.17l-.4.54c-.12.15-.24.32-.37.45l-.8.68c-.27.22-.55.36-.83.54-.28.18-.55.34-.84.46-.56.28-1.12.54-1.69.74-.56.23-1.13.42-1.7.59-2.27.7-4.55,1.16-6.83,1.55-4.57.75-9.15,1.15-13.73,1.39-5.57.27-11.16.31-16.74.04-2.79-.14-5.58-.35-8.36-.71-1.39-.18-2.79-.4-4.18-.7-.7-.16-1.4-.33-2.1-.55-.35-.09-.71-.25-1.06-.39-.35-.11-.71-.34-1.18-.6-.17-.1-.28-.27-.41-.4-.13-.14-.26-.28-.36-.46-.23-.39-.33-.62-.45-.9-.25-.55-.42-1.07-.62-1.61-.36-1.06-.69-2.11-.99-3.16-.61-2.1-1.15-4.2-1.68-6.29-2.86-11.59-5.38-22.99-7.64-34.56-.49-2.55-.99-5.04-1.44-7.62-1.62-9.57-1.71-12.71-1-14.89.16-.5.3-1.14.49-1.44.62-.99,1.65,2.83,2.93,9.76,1.82,9.78,3.87,19.79,6.06,29.92,1.1,5.06,2.24,10.15,3.47,15.22.62,2.53,1.26,5.06,1.96,7.56.35,1.24.7,2.49,1.1,3.67.19.6.4,1.17.61,1.7l.16.36c.05.12.12.26.12.26-.04-.06-.02-.03-.02-.03l-.03-.03c.06.03.1.07.21.11l.57.22c.44.13.87.28,1.36.39,3.66.87,7.78,1.21,11.81,1.45,4.06.21,8.15.27,12.23.19,4.08-.09,8.17-.31,12.21-.72,4.03-.42,8.07-1,11.81-2.05l.04.08Z"/><path class="cls-2" d="M79.91,169.68c.68.76,1.57,1.54,2.49,2.13.34.23.72.38,1.08.58,1.26.74,2.72,1.29,4.24,1.9.68.25,1.36.54,2.04.83.85.38,1.8.78,2.23,1.77.11.33.04.34-.33.46-.43.18-1.03.35-1.51.26-.43-.07-.78-.27-1.18-.39l-1.2-.38c-.8-.29-1.63-.65-2.49-1.06-1.02-.5-2.22-.78-3.31-1.35-1.2-.61-2.27-1.48-3.21-2.4l-.43-.43-.43-.51c-.26-.34-.49-.7-.71-1.05-.63-1.09-1.06-2.24-1.43-3.41-.27-.92-.66-1.84-.61-2.99.01-.25.01-.51.11-.78.34-1.01.89-1.22,1.49-.8.13.08.26.15.36.24.17.15.25.35.38.59.07.13.11.22.13.29.02.07.06.17.07.24.17.8.36,2.18.87,3.53.36.98.85,2.04,1.42,2.7l-.04.04Z"/><path class="cls-2" d="M79.35,167.98c-.92-1.16-1.72-2.38-2.43-3.67-.25-.47-.56-.92-.77-1.42-.37-.89-.68-1.82-.83-2.84-.15-.99-.12-2.2.55-3.24.29-.45.68-.83,1.2-1.11.52-.27,1.15-.35,1.65-.23.66.14,1.19.42,1.65.76.43.37.77.82,1.01,1.32.06.4,0,.37-.41.41-.4.03-1.06.08-1.57,0-.4-.14-.77-.25-1.02-.23-.26.05-.21.03-.27.06-.08.05-.25.19-.34.39-.1.22-.17.55-.22.95-.08.99.5,2.1,1.02,3.12.58,1.16,1.29,2.29,2.1,3.35.48.64,1.05,1.31,1.57,1.83.23.24.49.5.79.74.3.22.65.46,1,.44.13,0,.26-.09.3-.23.01-.16-.08-.34-.15-.5-.17-.31-.36-.57-.51-.77-.07-.09-.16-.17-.2-.24-.17-.24-.03-.28.39-.71.1-.09.18-.22.29-.26.13-.04-.16.03-.03,0l.25-.06.07-.03c.08-.07.18-.08.31-.05.34.08.61.38,1.01.84.55.68.99,1.51,1.24,2.2.24.7.27,1.26.07,1.6-.08.19-.15.38-.32.65-.24.2-.5.42-.76.53-.53.23-1.06.26-1.69.14-.93-.19-2.06-.87-3.09-1.75l-.76-.69-.39-.41c-.26-.28-.51-.55-.75-.84l.05-.04Z"/><path class="cls-2" d="M86.06,169.39c-.35-.21-.51-.33-.71-.49-.19-.15-.38-.31-.54-.46-.35-.31-.65-.64-.94-.97-.58-.66-1.1-1.34-1.57-2.03-.36-.5-.73-.99-1.01-1.54-.5-.96-.94-1.95-1.29-2.99-.34-1.04-.65-2.11-.64-3.33,0-.53.08-1.13.39-1.72.33-.62.89-.99,1.37-1.21.65-.29,1.36-.34,2.04-.23.68.12,1.33.49,1.71,1.02.23.35.08.35-.26.3-.36-.06-.93.03-1.4.19-.42.1-.81.36-1.1.59-.15.08-.3.19-.35.26-.04.06,0,.05-.03.12-.04.15-.04.56.02,1.01.04.45.14.97.27,1.49.31,1.26,1.13,2.44,1.88,3.57.81,1.26,1.7,2.53,2.75,3.49.28.26.63.52.76.6.18.11.41.2.64.16l.14-.04c.39-.13.57-.56.54-.97,0-.16-.06-.54-.15-.85-.09-.32-.21-.65-.35-.96-.44-.99-1.13-1.87-1.74-2.81-.14-.21-.29-.4-.42-.61-.39-.85-.38-1.24.03-1.69.09-.1.17-.21.26-.28.29-.23.83-.12,1.36.34.42.33.77.73,1.11,1.15.34.42.69.85.98,1.33.58.97,1.12,2.01,1.44,3.36.05.18.06.3.11.58.02.26.05.52.04.78,0,.52-.1,1.03-.3,1.48-.39.92-1.2,1.59-2.14,1.88-.97.25-2,.06-2.92-.48l.03-.06Z"/><path class="cls-2" d="M82.82,134.91c.04-.78.21-1.29.43-1.73.24-.45.5-.84,1.26-1.24.53-.07.74.03.98.08.23.06.46.17.71.35.49.36,1.08.83,1.73,1.89.57.9,1.14,2.05,1.68,3.11l.75,1.64.29.65.21.49,1.63,3.88c.49,1.14,1,2.28,1.53,3.38.72,1.4,1.38,2.82,1.72,4.41,0,.56.06.46-.41.25-.24-.1-.54-.28-.91-.49-.38-.21-.75-.5-1.03-.87-1.94-2.69-3.27-5.62-4.41-8.66-.17-.45-.37-.9-.57-1.35l-.07-.15-.02-.06-.05-.11-.1-.22c-.15-.3-.29-.54-.46-.89-.11-.23-.23-.48-.38-.74-.07-.13-.15-.27-.25-.4-.09-.12-.21-.31-.35-.27-.37.1-.33.46-.35.76.02.48.12,1.04.29,1.69l.2.77.42,1.44c.29.98.6,1.95.92,2.92.5,1.5,1.11,2.94,1.59,4.47.11.33.22.67.31,1.01.32,1.29.14,1.78-.52,2.14-.14.08-.26.18-.38.23-.35.15-1.04-.27-1.33-1.11-.95-2.51-1.91-5.2-2.84-7.98l-.51-1.56-.76-2.43c-.31-1.04-.57-2.04-.78-3-.16-.9-.3-1.77-.26-2.38l.08.09Z"/><path class="cls-2" d="M74.6,142.02c-.13-.29-.51-1.14-.75-1.84-.13-.37-.26-.74-.32-1.08-.04-.17-.08-.35-.11-.52l-.04-.47c-.03-.62.06-1.11.26-1.54.1-.21.25-.41.43-.61.12-.08.22-.17.35-.24.06-.04.13-.06.18-.12l.19-.08c.37-.03.65-.08.96-.02.3.04.63.18.96.36.5.28,1.03.69,1.54,1.17.26.26.52.5.77.77l.37.41.22.26c1.89,2.39,3.53,4.84,5.16,7.3.73,1.09,1.51,2.14,2.3,3.16l1.46,2c.25.32.48.67.68,1.03.21.36.45.68.66,1.03.19.54.29.37-.24.3-.27-.04-.6-.17-1-.33-.19-.08-.41-.18-.63-.29-.11-.05-.21-.12-.33-.18l-.27-.25c-.63-.61-1.24-1.24-1.83-1.87-.57-.64-1.08-1.34-1.6-2.02-1.02-1.37-2.02-2.75-2.93-4.2-.55-.86-1.17-1.69-1.83-2.5-.33-.4-.66-.8-1-1.19l-.72-.83c-.24-.26-.5-.66-.96-.79-.29,0-.34.3-.32.51.02.23.08.47.16.72.04.14.11.31.18.49l.42.95c.29.63.61,1.25.94,1.87,1.01,1.87,2.09,3.73,3.29,5.48.93,1.36,1.98,2.61,3,3.88.23.28.46.54.68.83.83,1.05.87,1.55.62,2.1-.06.13-.11.27-.18.38-.25.35-.88.13-1.64-.55-2.09-2.14-3.95-4.65-5.67-7.29-1.27-1.97-2.46-4-3.52-6.2l.05-.03Z"/><path class="cls-2" d="M225.52,167.45s-6.12,8.53-15.95,8.52c-9.85-.01-11.88-3.65-15.87-4.3-2.85-.46-10-.5-13.91,2.03,0,0,5.85-4.88,10.96-4.93,5.12-.05,6.81-.13,6.81-.13,0,0,7.81,3.07,10.8,3.03s8.48-.94,8.48-.94l8.67-3.28Z"/><path class="cls-2" d="M162.96,186.99c-4.44,2.88-9.18,5.65-14.53,7.12-1.94.52-3.93.94-5.93,1.06-1.77.1-3.52.04-5.25-.09-1.7-.18-3.5-.38-5.2-.9-1.72-.45-3.34-1.17-4.91-1.93-1.54-.83-3.04-1.72-4.42-2.75-2.47-1.82-4.82-3.8-6.85-6.03-2.65-2.81-5.02-5.95-6.49-9.55-.52-1.08-.41-.95.31-.22.36.36.9.86,1.61,1.41.35.28.75.56,1.12.89.36.34.74.7,1.1,1.1,1.33,1.38,2.61,2.77,3.94,4.1.67.66,1.35,1.31,2.05,1.93.66.67,1.36,1.27,2.05,1.9,1.42,1.2,2.87,2.37,4.43,3.36.76.54,1.58.95,2.38,1.42.83.39,1.64.85,2.51,1.16,2.06.85,4.21,1.25,6.57,1.37,2.32.14,4.64.05,6.89-.29,2.48-.38,4.9-1.1,7.23-2.11,2.33-1.01,4.58-2.29,6.78-3.67,2.7-1.72,5.34-3.56,7.91-5.5,3.91-2.93,7.77-6.05,12-8.7,3.3-2.01,6.85-3.76,10.75-4.54.86-.13,1.7-.3,2.57-.4,3.26-.2,4.27.39,4.86,1.23.14.2.32.4.39.59.23.63-1.07,1.13-3.2,1.38-3.17.35-6.25,1.06-9.19,2.36-2.95,1.27-5.75,3.08-8.57,5.09-4.17,2.99-8.38,6.33-12.86,9.3l-.05-.06Z"/><path class="cls-2" d="M183.14,128.48c-4.05,1.42-15.73-3.84-17.18-13.26,0,0-.77-4.16.94-8.1s10.39-5.66,11.1-6.97c.71-1.31,0-7.29,0-7.29,0,0,1.83-6.74,3.83-9.22,2-2.48,9.18-9.83,13.31-9.83s13.74-1.41,16.32-.75,14.25,7.72,15.72,9.98,5.18,10.53,5.18,10.53c0,0,9.93-3.75,12.99-3.94,3.06-.19,12.49,4.58,14.38,6.75s7.21,9.82,7.73,13.4-1.95,15.92-2.36,16.94-4.07,9.32-2.66,11.91,4.98,6.35,4.92,8.94c-.06,2.59-1.67,6.95-4.54,7.45-2.87.5-5.99-1.24-6.83,0s-2.58,4.14-4.82,4.83c-4.27,1.31-12.73-4.83-11.62-10.54l1.55-2.15s6.8-.09,8.15-2.27c1.35-2.18,2.56-5.79,2.56-5.79l-2.56-3.85s-6.39-2.48-9.7-5.59c-3.3-3.11-5.81-6.87-6.38-9.12-.56-2.26-.95-10.22-.95-10.22,0,0-3.4,1.3-6.69,1.84s-13-.78-14.06-1.34-4.79-3.72-4.79-3.72c0,0-5.02,4.26-8.84,4.7-3.82.44-9.49.98-9.49.98l-5.21,15.71Z"/><path class="cls-2" d="M252.91,141.47c-.41,1.53-1.21,2.84-2.18,3.95-.35.41-.7.82-1.11,1.16-1.5,1.18-3.38,1.73-5.16,1.79-.79.02-1.59,0-2.35-.19-.49-.1-.97-.24-1.42-.44-.22-.11-.44-.22-.65-.35-.2-.14-.37-.35-.52-.55-.14-.34-.08-.34.29-.51.19-.09.42-.18.68-.29.24-.07.49-.12.72-.09.8.13,1.56.1,2.28.05.73,0,1.45-.08,2.21-.24.92-.2,1.67-.88,2.34-1.53.74-.72,1.36-1.63,1.73-2.63.22-.61.37-1.26.36-1.92,0-.98-.22-2-.82-2.81-.46-.63-1.14-1.04-1.82-1.38-.14-.08-.32-.11-.46-.2-.53-.31-.62-.55-.35-1.4.06-.19.11-.38.17-.56.22-.6.76-.97,1.4-.83.93.23,1.85.69,2.66,1.4.81.7,1.43,1.67,1.83,2.72.61,1.57.64,3.32.27,4.86h-.07Z"/><path class="cls-2" d="M215.46,110.08c1.47.54,3.05.91,4.66,1.05.59.05,1.18-.01,1.77,0,2.08.04,4.19-.24,6.21-.89.88-.32,1.71-.77,2.45-1.31,1.02-.64,1.74-1.51,2.91-2.17.34-.23.38-.16.39.26,0,.31.01.62.01.9-.02.18.02.43-.03.63-.06.18-.15.37-.26.55l-.66.87c-.24.28-.49.54-.74.81-.54.49-1.15.89-1.77,1.26-1.25.71-2.61,1.22-4.01,1.44-1.67.24-3.35.65-5.05.68-1.87.04-3.72-.19-5.53-.62-1.11-.25-2.2-.63-3.25-1.07-1.6-.66-3.1-1.58-4.5-2.61-1.07-.81-2.2-1.61-3.09-2.7-.2-.23-.42-.45-.58-.73-.59-1.01-.44-1.5.2-2,.15-.12.3-.25.46-.34.54-.31,1.21-.15,1.69.32,1.53,1.34,2.81,2.64,4.56,3.69,1.26.79,2.68,1.45,4.18,1.9l-.02.08Z"/><path class="cls-2" d="M167.42,108.73c-1.09,2.04-1.79,4.35-1.84,6.71,0,.44.02.88.03,1.32.04.43.12.86.13,1.3.14,1.52.46,3.03,1.06,4.44.62,1.4,1.51,2.69,2.59,3.84.96,1.02,2.13,1.87,3.39,2.53,1.59.89,3.29,1.65,5.05,2.34.54.23.44.35-.1.43-.54.09-1.54.2-2.67,0-.99-.21-1.99-.46-2.95-.82-.94-.42-1.87-.9-2.74-1.48-1.75-1.16-3.32-2.74-4.3-4.66-1.19-2.26-2.15-4.77-2.35-7.33-.06-.7-.04-1.4-.06-2.09.04-.7.09-1.41.18-2.11.23-1.39.55-2.76,1.08-4.06.6-1.61,1.47-3.11,2.48-4.48,1.54-2.08,3.57-3.8,5.84-5.04,1.76-.95,3.63-1.74,5.67-2.07.45-.06.89-.11,1.34-.14.85-.06,1.39.12,1.76.33.36.21.54.51.64.93.05.2.11.39.12.58.03.63-.67,1.1-1.68,1.23-3,.38-5.83,1.24-8.25,3.09-1.8,1.33-3.3,3.17-4.35,5.24l-.07-.03Z"/><path class="cls-2" d="M269.01,110.48c.56,3.27.56,6.7-.05,9.97-.6,3.28-1.74,6.37-3.1,9.26l-.75,1.58-.58,1.39c-.14.46-.28.93-.4,1.39-.05.46-.21.93-.2,1.38-.14,1.62.21,3.23,1.04,4.77.41.77.91,1.52,1.49,2.29l.89,1.24c.16.22.32.47.48.73.17.31.35.64.43.9.87,2.2.79,4.86-.43,6.94-.59,1.04-1.42,1.91-2.36,2.57-.91.66-2.01,1.16-3.13,1.39-2,.39-3.72.18-5.17.68-.16.06-.4.14-.48.18-.1.05-.18.12-.24.2-.11.13-.35.5-.52.86-.37.74-.74,1.61-1.26,2.43-.66,1.06-1.66,2.06-2.88,2.59-1.22.55-2.49.66-3.72.65-.63-.03-1.25-.12-1.86-.28-.6-.18-1.17-.42-1.71-.7-1.09-.56-2.03-1.35-2.78-2.27-.46-.58-.57-.89-.48-.94.1-.06.41.14.96.41.54.28,1.34.58,2.25.85.46.13.95.23,1.46.3.26.03.51.07.78.08.26.04.52.06.78.09.91.07,1.94-.07,2.73-.34.81-.29,1.39-.76,1.88-1.45.5-.69.84-1.61,1.37-2.78.16-.32.29-.62.56-1,.07-.11.15-.21.22-.33l.31-.29.31-.29c.12-.08.24-.15.36-.23.55-.36.79-.39,1.16-.52.34-.11.69-.2,1.03-.27,1.37-.28,2.61-.27,3.56-.39.96-.12,1.68-.36,2.44-.85,1.53-.93,2.42-2.47,2.36-4.22-.01-.52-.11-1.05-.29-1.56l-.15-.38c-.05-.13-.1-.18-.14-.27-.13-.2-.3-.45-.51-.71-.84-1.04-1.82-2.27-2.59-3.66-.78-1.38-1.37-2.98-1.56-4.65-.21-1.66,0-3.35.49-4.86.22-.86.62-1.62.95-2.42.33-.69.67-1.37.98-2.06.62-1.38,1.18-2.77,1.64-4.19.94-2.83,1.42-5.77,1.35-8.73-.1-3.62-.92-7.35-2.32-10.73-1.09-2.56-2.56-4.95-4.48-6.95-.96-.99-2.02-1.89-3.15-2.68-.58-.37-1.16-.76-1.77-1.06-.59-.35-1.22-.6-1.85-.86-3.97-1.56-8.28-1.11-12.35,0-.91.24-1.78.56-2.69.84-3.37,1.12-4.52,1.38-5.57.78-.24-.13-.53-.24-.7-.39-.57-.5.58-1.63,3.09-2.74,3.7-1.61,7.85-3.03,12.48-3.05,2.3,0,4.67.4,6.89,1.24.55.23,1.1.45,1.64.7l1.57.83c.99.61,1.96,1.25,2.86,1.99,2.72,2.16,4.89,4.98,6.45,8.01,1.57,3.04,2.54,6.28,3.13,9.55l-.09.02Z"/><path class="cls-2" d="M97.5,156.26c-.21-1.12-.6-2.07-1.18-2.67-.48-.39-.14-.28-.73-.38-.46-.04-1.06.02-1.64.11-.86.14-1.72.44-2.59.7-1.4.42-2.8.96-4.06,1.62-.62.32-1.31.79-1.43.89-.25.17-.52.58-.26.87.09.09.18.18.3.24.15.09.32.15.5.18.26.07.64.11.96.15.69.05,1.4.02,2.1-.06.9-.11,1.8-.26,2.7-.47.45-.1.89-.22,1.33-.34.22-.05.44-.13.66-.2.23-.05.48-.05.72-.09.63-.04.59,0,.3.54-.24.64-.94,1.55-2.05,2.04-1.43.62-2.94,1.11-4.55,1.18-.8.06-1.63.04-2.51-.1l-.46-.09c-.17-.03-.35-.06-.5-.14-.31-.13-.65-.23-.93-.39-.26-.18-.55-.34-.79-.54-.21-.22-.42-.43-.6-.68-.44-.73-.53-1.71-.14-2.5.19-.4.45-.77.77-1.11.32-.32.72-.66,1.06-.88,1.18-.74,2.32-1.29,3.49-1.82,1.17-.52,2.37-.97,3.6-1.3,1.38-.33,2.72-.66,4.39-.54.4.04.99.15,1.43.44.45.31.71.53,1.01.85.56.61.99,1.3,1.27,2.01.7,1.75.84,3.49.93,5.16.12,2.54-.03,5.03.11,7.46.12,1.87.48,3.7,1.1,5.3.14.35.3.68.47,1,.57,1.21.64,1.62.35,2.3-.07.15-.11.33-.19.46-.13.23-.37.29-.73.18-.37-.1-.82-.4-1.27-.91-.67-.76-1.08-1.68-1.42-2.58-.33-.91-.56-1.85-.72-2.79-.31-1.87-.38-3.72-.41-5.52-.06-2.65.05-5.32-.44-7.56l.07-.02Z"/><path class="cls-2" d="M133.94,229.16l-2.03-.31-2.01-.4c-1.34-.25-2.66-.61-3.98-.93-1.32-.33-2.63-.78-3.94-1.16-1.28-.48-2.58-.91-3.84-1.45l-2.75-1.17c-.9-.43-1.79-.87-2.68-1.32-3.07-1.7-5.99-3.65-8.73-5.8-2.71-2.2-5.26-4.57-7.64-7.11-2.05-2.29-4.13-4.59-5.9-7.08-.59-.78-1.18-1.57-1.71-2.39-.55-.81-1.11-1.62-1.56-2.49-.47-.86-.93-1.73-1.38-2.6-.42-.89-.77-1.81-1.1-2.73-.26-1.23-.27-1.04.57-.33.83.72,2.3,2.02,3.62,3.77l.87,1.17c.31.38.62.75.89,1.15.57.78,1.11,1.58,1.72,2.33.6.75,1.17,1.53,1.79,2.27.64.72,1.22,1.49,1.83,2.24,2.48,2.94,5.17,5.73,8.07,8.32,3.48,3.11,7.67,5.62,11.96,7.67,4.7,2.32,9.75,3.81,14.94,4.81,3.18.59,6.41,1.02,9.65,1.07,4.9.15,9.84-.45,14.53-1.76,3.65-1.04,7.03-2.62,10.31-4.4.73-.38,1.42-.8,2.13-1.22,2.67-1.51,3.65-1.79,4.66-1.4.23.09.5.15.68.26.59.38-.22,1.51-2.1,2.94-5.77,3.88-12.79,6.83-20.22,8.03-5.51.87-11.17.9-16.64.12v-.08Z"/><path class="cls-2" d="M256.36,192.01c-2.18-2.31-4.23-4.68-6.34-6.95-.77-.83-1.61-1.58-2.39-2.38-2.76-2.81-5.66-5.47-9-7.52-1.49-.88-3.07-1.65-4.7-2.2-.52-.2-1.05-.36-1.58-.5-.53-.15-1.05-.35-1.59-.48-1.07-.3-2.13-.58-3.18-1.11-.65-.38-.55-.47.11-.78.33-.16.8-.36,1.39-.58.57-.18,1.22-.16,1.9-.07,4.81.79,9.33,3.15,13.04,6.24,2.23,1.84,4.54,3.74,6.58,5.8,2.24,2.27,4.34,4.64,6.48,6.92,1.32,1.41,2.64,2.79,4.04,4.09,2.11,1.97,4.33,3.85,6.79,5.27,1.91,1.11,3.95,1.87,6.02,2.45.45.15.92.21,1.37.34,1.7.47,2.2.74,2.4,1.67.05.21.12.42.13.61.05.67-.81,1.01-2.23.87-2.09-.3-4.2-.9-6.23-1.78-2.02-.9-3.95-2.06-5.75-3.36-2.68-1.94-5.06-4.21-7.29-6.5l.05-.06Z"/><path class="cls-2" d="M249.66,225.44c-.61-.32-1.23-.64-1.85-.99-.31-.18-.62-.36-.95-.57-.17-.11-.33-.22-.53-.38-.1-.09-.2-.16-.36-.34-.03-.03-.08-.09-.13-.16-.04-.06-.09-.12-.15-.27-.03-.06-.05-.13-.07-.19-.03-.09-.05-.22-.06-.34-.03-.2.04-.57.2-.83l-.18.67c0-.25.06-.49.2-.72.07-.12.17-.24.27-.33.11-.1.16-.13.26-.18.08-.05.18-.09.26-.12l.16-.04c.11-.02.22-.04.27-.04.29-.01.41.03.55.05.26.06.44.12.62.18.36.13.67.27.98.41.7.33,1.4.61,2.05.98,2.3,1.28,4.45,2.75,6.6,4.2.95.66,1.94,1.25,2.87,1.92.6.42,1.21.85,1.79,1.31.56.49,1.08,1.05,1.54,1.65.28.39.09.48-.38.42-.46-.07-1.25-.18-2-.53-2.51-1.44-4.97-3.02-7.43-4.7-1.47-1-3.16-1.77-4.75-2.57-.47-.23-.95-.46-1.42-.66-.23-.1-.46-.19-.67-.26-.1-.03-.2-.06-.25-.07-.03.15.03-.38-.01-.63-.02-.28-.17-.29-.04-.26l.24.05h-.3s.13.02.31-.13c.11-.07.18-.15.33-.26l.09-.08s0,0,0,0c0,0,0,0,0,0,.02.03.09.09.15.15.14.12.32.24.5.36.36.24.75.48,1.15.72,1.05.63,2.15,1.21,3.25,1.79,1.67.88,3.34,1.77,5,2.65,1.3.67,2.62,1.24,3.92,1.97.28.16.57.3.85.49,1.02.7,1.23,1.13,1.04,1.72-.04.14-.07.28-.14.4-.23.39-.78.34-1.51-.03-2.28-1.17-4.58-2.35-6.92-3.54-1.78-.93-3.58-1.87-5.37-2.8l.02-.05Z"/><path class="cls-2" d="M177.71,228.55c-.55,2.28-1.14,4.56-1.88,6.78-.25.82-.46,1.65-.74,2.45-1.02,2.83-2.14,5.62-3.33,8.35-.55,1.2-1.01,2.45-1.53,3.66-.69,1.54-1.23,3.14-2.29,4.53-.31.44-.29.37-.29-.1,0-.24-.01-.58-.04-1,0-.21-.04-.44-.03-.67.03-.22.07-.46.13-.69.44-1.67.87-3.33,1.44-4.94.28-.8.57-1.61.85-2.42.31-.8.67-1.58,1.01-2.37.83-1.88,1.36-3.95,1.95-5.96.65-2.2,1.26-4.42,1.8-6.66.34-1.38.63-2.77.9-4.16.39-2.12.79-4.25,1.02-6.38.19-1.66.18-3.31.24-4.96.01-.36,0-.72.02-1.09.08-1.36.38-1.76,1.1-1.98.17-.05.33-.12.5-.14.54-.08.95.52,1.05,1.54.18,3-.13,6.13-.56,9.26-.33,2.33-.77,4.65-1.26,6.97h-.07Z"/><path class="cls-2" d="M245.27,230.38c.42,2,.8,4,1.14,6.01.13.73.32,1.45.43,2.18.37,2.59.63,5.18.9,7.76.1,1.15.26,2.29.43,3.42.21,1.45.34,2.92.09,4.42-.07.47-.22.43-.55.08-.17-.17-.4-.42-.66-.72-.28-.3-.52-.65-.65-1.06l-.36-1.08-.18-.54-.1-.55-.38-2.2c-.26-1.46-.32-2.96-.42-4.45-.09-1.8-.56-3.6-.89-5.39-.36-1.97-.74-3.94-1.18-5.9-.27-1.21-.56-2.41-.88-3.6-.51-1.8-1-3.62-1.64-5.37-.5-1.36-1.17-2.62-1.79-3.91-.13-.29-.3-.55-.41-.85-.43-1.09-.35-1.53.17-2.01.12-.11.23-.24.35-.32.4-.29,1.02-.02,1.54.72,1.54,2.18,2.53,4.76,3.45,7.37.68,1.94,1.15,3.96,1.66,5.96l-.07.02Z"/><path class="cls-2" d="M204.31,216.31c-.11,2.37-.06,4.76-.01,7.15l.16,2.61c.11,3.08.3,6.18.52,9.28.09,1.38.2,2.76.33,4.12.19,1.75.26,3.52.08,5.3-.07.55-.15.48-.4.04-.26-.45-.7-1.27-.94-2.25-.72-3.51-1.2-7.04-1.36-10.67-.1-2.17-.47-4.4-.65-6.62-.22-2.44-.26-4.9-.27-7.35.02-1.51.03-3.02.11-4.53.04-1.14.11-2.29.21-3.42.07-1.14.18-2.28.27-3.41.1-1.76.19-3.5.28-5.24.04-.38.04-.76.09-1.15.2-1.43.48-1.84,1.21-2.02.17-.04.34-.1.5-.11.55-.04.9.61.92,1.66-.05,3.09-.37,6.26-.64,9.46-.17,2.38-.36,4.76-.37,7.16h-.06Z"/><path class="cls-2" d="M199.44,252.85c4.24,0,8.47.06,12.69.22,1.54.05,3.08.02,4.62.12,5.42.3,10.83.69,16.22,1.23,2.39.21,4.8.39,7.18.54,1.53.1,3.05.25,4.58.41,1.53.12,3.04.49,4.55.74.94.19.81.28-.01.46-.49.11-1.07.23-1.7.36-.37.07-.75.14-1.14.22-.2.04-.41.06-.63.11-.21,0-.43.01-.65.02-1.56,0-3.13.04-4.69,0l-4.68-.22c-3.12-.18-6.24-.34-9.36-.67-3.74-.39-7.65-.37-11.49-.49-4.22-.1-8.44-.19-12.66-.13-2.6,0-5.19.1-7.79.2-1.96.11-3.93.21-5.89.35-1.96.18-3.92.31-5.85.57-1.5.2-2.99.43-4.46.7-1.47.29-2.93.59-4.4.88-.65.12-1.27.3-1.92.42-2.41.48-3.24.3-3.91-.39-.15-.16-.34-.3-.44-.47-.17-.27-.03-.57.37-.89.4-.32,1.06-.67,1.94-.93,5.24-1.52,10.94-2.35,16.68-2.82,4.26-.38,8.55-.5,12.83-.62v.07Z"/><path class="cls-2" d="M303.65,144.68c1.07-.99,1.96-2.21,2.72-3.52.28-.48.43-1.01.66-1.51.81-1.78,1.25-3.75,1.27-5.75.02-.89-.16-1.78-.43-2.62-.14-.55-.36-1.08-.56-1.62l-.18-.39-.12-.44c-.09-.29-.2-.57-.32-.86-.13-.37-.12-.32.17-.14.26.2,1.04.38,1.62.92.44.52.86,1.07,1.19,1.68.19.29.31.62.43.94.13.32.24.65.32.99.38,1.33.49,2.75.22,4.1-.3,1.6-.5,3.27-1.09,4.82-.64,1.69-1.56,3.27-2.72,4.65-.69.87-1.5,1.63-2.34,2.35-1.29,1.08-2.78,1.91-4.34,2.56-1.21.49-2.47.99-3.84,1.17-.3.06-.6.09-.9.08-.57-.01-.93-.12-1.15-.35-.22-.21-.31-.52-.33-.98,0-.21-.03-.42,0-.63.07-.69.57-1.2,1.18-1.33.87-.23,1.74-.46,2.61-.7.84-.23,1.66-.55,2.47-.97,1.21-.6,2.37-1.45,3.38-2.49l.06.05Z"/><path class="cls-2" d="M311.95,126.55c.27-.13.47-.34.73-.52.2-.22.45-.43.63-.69.13-.2.21-.41.32-.61.44-.71.87-1.54,1.07-2.46.06-.41.1-.82.09-1.24-.02-.53.03-1.08.12-1.67.03-.19.12-.19.32-.08.18.11.55.31.79.62.21.27.38.56.48.86.11.3.26.61.27.93.08.64.03,1.3-.12,1.94-.12.38-.17.77-.24,1.17-.11.39-.18.8-.35,1.17-.36.83-.85,1.6-1.46,2.26-.17.22-.4.39-.6.58-.2.19-.41.37-.64.52-.66.52-1.45.81-2.18,1.18-.58.25-1.12.65-1.76.9-.14.07-.27.13-.42.14-.54.06-.73-.22-.84-1.03-.03-.19-.06-.37-.07-.56-.04-.62.13-1.17.38-1.45.73-.76,1.37-.88,2.01-1.22.45-.25.96-.45,1.41-.81l.06.05Z"/><path class="cls-2" d="M366.96,123.06l-.1-.29-.2-.38c-.14-.25-.26-.52-.42-.75-.29-.5-.62-.95-.97-1.4-.28-.29-.6-.56-.9-.82-1.03-1.01-2.35-1.77-3.84-2.17-.67-.16-1.36-.28-2.05-.3-.9-.04-1.79.08-2.73-.15-.29-.07-.29-.36-.07-.74.21-.35.63-.95,1.19-1.03.99-.18,2.02-.29,3.07-.24,1.05.06,2.11.4,3.08.87,1.15.58,2.39,1.11,3.41,1.95,1.11.92,2.02,2.03,2.73,3.21.22.33.48.8.64,1.24.18.44.29.89.38,1.34.26,1.36.14,2.72-.13,4.03-.22,1.02-.43,2.1-1.07,3.12-.15.21-.28.45-.46.65-.73.74-1.26.59-1.78-.07-.12-.16-.25-.31-.35-.47-.33-.57-.33-1.2-.22-1.58.24-.53.41-1.01.59-1.55.17-.54.33-1.14.4-1.77.11-.93.07-1.94-.24-2.68l.07-.04Z"/><path class="cls-2" d="M320.36,91.87c1.55-.68,3.43-.88,5.01-.38.56.16,1.09.3,1.6.55,1.73.91,3.23,2.19,4.22,3.78.44.7.86,1.42,1.16,2.18.41.97.53,2.07.31,3.08-.07.32-.28.26-.57.01-.14-.12-.3-.29-.46-.48-.16-.19-.34-.39-.43-.62-.41-.78-.8-1.49-1.28-2.16-.48-.67-1.06-1.25-1.62-1.9-.71-.77-1.77-1.16-2.75-1.48-1.11-.33-2.08-.47-3.15-.18-.64.18-1.28.48-1.86.93-.88.66-1.69,1.52-2.27,2.52-.45.78-.69,1.66-.9,2.52-.05.19-.07.38-.12.57-.23.68-.48.83-1.27.78-.18-.01-.36-.01-.53-.04-.58-.08-.95-.53-.97-1.19.06-1.92.82-3.83,2.1-5.48.94-1.22,2.18-2.33,3.75-3.08l.04.07Z"/><path class="cls-2" d="M286.18,114.09c-1.03.28-2.01.8-2.74,1.6-.24.31-.46.64-.65.99-.38.57-.65,1.33-.87,1.96-.17.67-.16,1.43.03,2.18.16.67.52,1.28.88,1.88.5.75,1.11,1.44,1.76,2.14.2.22.07.36-.28.4-.34.04-.95,0-1.48-.33-.46-.3-.9-.64-1.3-1.04-.41-.39-.79-.82-1.06-1.34-.56-1.01-.91-2.21-.83-3.44.04-.74.17-1.48.37-2.14l.14-.51.2-.49c.15-.32.26-.67.47-.96.81-1.35,2.04-2.41,3.4-3.08.85-.39,1.73-.69,2.63-.84,1.36-.25,2.75-.19,4.08.01.52.06,1.03.16,1.57.23.51.14,1.06.2,1.56.41.22.08.46.14.67.25.78.45.88.82.56,1.52-.07.16-.14.33-.23.47-.31.5-.86.71-1.37.6-.36-.11-.77-.12-1.11-.24-.35-.09-.72-.14-1.06-.25-.72-.12-1.42-.27-2.15-.29-1.07-.06-2.16.04-3.18.36l-.03-.06Z"/><path class="cls-2" d="M273.9,164.69c0,1.7.55,3.47,1.51,5,.37.55.83,1.03,1.28,1.5,1.55,1.69,3.81,2.95,6.27,3.42,1.09.22,2.23.22,3.34.15,1.44-.05,2.83-.42,4.32-.56.47-.06.47.09.18.45-.15.18-.35.45-.64.71-.14.13-.3.29-.48.41-.18.12-.38.21-.6.29-3.04,1.24-6.63,1.14-9.72-.21-.92-.42-1.85-.84-2.74-1.4-.89-.55-1.74-1.22-2.42-2-1.54-1.71-2.56-3.83-2.99-6.07-.26-1.38-.26-2.81,0-4.2.42-2.1,1.53-4.06,3.09-5.5,1.19-1.12,2.54-2.13,4.19-2.66.36-.11.72-.24,1.1-.29,1.43-.18,1.92.19,2.07,1.03.04.2.09.39.09.59,0,.66-.53,1.09-1.22,1.29-1.05.31-2,.78-2.9,1.34-.9.55-1.7,1.29-2.32,2.12-.89,1.27-1.43,2.87-1.34,4.57h-.07Z"/><path class="cls-2" d="M273.47,132.89c-1.01,1.52-1.7,3.32-1.96,5.22-.08.7-.08,1.4-.06,2.06.01,1.17.2,2.34.72,3.41.52,1.06,1.27,2.07,2.17,3.03.79.85,1.75,1.59,2.64,2.42.57.55,1.14,1.1,1.63,1.75l.36.49c.11.17.19.37.28.55.19.36.32.75.42,1.14.13.48,0,.45-.36.17-.19-.13-.4-.33-.71-.52-.3-.2-.66-.38-.96-.65-1.08-.95-2.4-1.65-3.64-2.66-1.24-.97-2.61-2.1-3.48-3.69-1.07-1.84-1.86-4.06-1.81-6.2.02-2.28.53-4.56,1.49-6.64.55-1.3,1.39-2.45,2.26-3.54,1.38-1.62,3.14-2.87,4.99-3.83,1.42-.78,2.91-1.4,4.49-1.84.35-.08.69-.19,1.05-.25,1.33-.19,1.77.06,2.05.88.06.19.14.38.18.57.11.65-.38,1.21-1.2,1.42-.61.15-1.2.39-1.8.53-.57.24-1.18.37-1.73.64-1.15.41-2.21,1.01-3.22,1.67-1.48,1.01-2.77,2.32-3.7,3.9l-.07-.03Z"/><path class="cls-2" d="M373.36,184.13c.91,0,1.85.14,2.74.04.45-.03.91-.03,1.36-.09l1.32-.23c1.74-.39,3.42-1,4.94-2.04.28-.18.57-.34.84-.56l.78-.65.78-.65.74-.71c1.78-1.64,3.39-3.54,4.84-5.57,1.49-2,2.85-4.13,4.09-6.33,1.12-1.95,2.06-4.01,2.97-6.05.6-1.3,1.17-2.62,1.76-3.94l.44-.99.51-.96c.34-.64.68-1.28,1.06-1.91.48-.78.47-.65.44.15-.04.8.04,2.34-.39,3.98-.45,1.42-.92,2.84-1.43,4.24-.54,1.4-1.15,2.76-1.8,4.11-1.3,2.7-2.75,5.37-4.51,7.87-2.1,2.97-4.3,6.13-7.24,8.63l-1.23,1c-.41.33-.89.59-1.33.89-.86.62-1.89,1.03-2.85,1.51-2.03.75-4.14,1.23-6.25,1.29-2.59.1-5.14-.22-7.62-.71-3.74-.8-7.33-2.08-10.82-3.41-2.71-1.04-5.39-2-8.04-3.08-.59-.24-1.16-.45-1.74-.71-2.14-.98-2.69-1.54-2.85-2.4-.03-.2-.1-.41-.09-.59.03-.59,1.09-.61,2.75-.12,2.44.77,4.87,1.72,7.32,2.64,2.45.92,4.92,1.82,7.39,2.71,3.66,1.25,7.4,2.31,11.12,2.58v.08Z"/><path class="cls-2" d="M400.22,208.53c3.52-2.53,6.76-5.48,9.73-8.7,1.1-1.17,2.05-2.46,3.08-3.68,1.77-2.21,3.48-4.47,5.04-6.84,1.56-2.37,3.02-4.82,4.4-7.32,1.2-2.23,2.26-4.55,3.18-6.88.62-1.49,1.2-2.99,1.72-4.52.14-.38.27-.76.38-1.14.14-.38.3-.75.42-1.13.26-.76.51-1.53.74-2.3.25-.98.16-.87.28,0,.1.87.36,2.59.04,4.51-.36,1.66-.78,3.32-1.29,4.94-.52,1.62-1.18,3.18-1.85,4.73-1.36,3.1-2.95,6.11-4.86,8.94-2.24,3.39-4.51,6.97-7.16,10.21-2.9,3.55-6.13,6.85-9.7,9.74-2.23,1.74-4.51,3.42-6.97,4.83-3.69,2.19-7.69,3.87-11.78,5.05-3.17.97-6.38,1.62-9.67,1.95-.73.05-1.44.12-2.17.15-2.72.03-3.58-.35-4.08-1.17-.11-.19-.27-.38-.32-.57-.19-.61.93-1.11,2.79-1.19,5.56-.25,11.24-1.34,16.65-3.38,4.01-1.55,7.83-3.68,11.33-6.28l.05.06Z"/><path class="cls-2" d="M430.11,151.57c-.46.52-.93,1-1.42,1.43-.18.16-.32.35-.5.5-.66.52-1.31,1-1.91,1.52-.27.22-.51.48-.7.74-.27.34-.52.65-.79,1.01-.09.11-.2.08-.32-.07-.11-.14-.32-.5-.27-.81.04-.59.25-1.11.53-1.53.25-.46.6-.8,1-1.09.47-.35.78-.85,1.16-1.27.41-.46.85-.88,1.26-1.33.23-.28.5-.55.69-.86.32-.45.62-.92.79-1.43.16-.39.11-.83.14-1.22,0-.09-.03-.18-.02-.26.06-.32.22-.41.69-.46l.32-.04c.35-.03.64.14.77.46.37.96.18,2.03-.21,2.94-.31.67-.73,1.27-1.16,1.81l-.04-.03Z"/><path class="cls-2" d="M342.35,226.47c-.49-2.13-1-4.27-1.55-6.39-.2-.78-.47-1.53-.66-2.31-.66-2.76-1.31-5.51-1.97-8.27-.31-1.22-.62-2.44-.93-3.65-.19-.78-.42-1.55-.56-2.34-.14-.79-.16-1.62-.36-2.39-.1-.49-.03-.44.17-.06.15.4.62,1.07,1.09,1.89.1.18.21.36.3.55l.23.57.45,1.14.88,2.29c.53,1.54.96,3.12,1.37,4.72.47,1.91,1.23,3.83,1.77,5.77.61,2.13,1.19,4.28,1.76,6.42l1.02,3.98c.52,2.01.95,4.04,1.48,6.04.4,1.55.88,3.06,1.26,4.6.09.34.2.67.26,1.02.23,1.29.08,1.74-.46,2.11-.13.08-.25.19-.37.25-.43.19-.91-.26-1.28-1.15-.5-1.32-.93-2.69-1.34-4.08-.22-.69-.39-1.4-.55-2.11-.17-.71-.34-1.43-.51-2.15-.5-2.13-.98-4.28-1.53-6.42l.06-.02Z"/><path class="cls-2" d="M370.83,236.74c-.68-2.12-1.37-4.24-2.1-6.34-.26-.77-.6-1.51-.86-2.28-.92-2.72-1.73-5.48-2.69-8.18-.41-1.2-.92-2.38-1.38-3.55l-.88-2.27c-.25-.78-.43-1.58-.62-2.38-.11-.5.03-.49.4-.18.36.31,1.07.87,1.65,1.64,1.71,2.88,2.91,5.98,3.99,9.16.62,1.91,1.55,3.78,2.24,5.71.77,2.12,1.51,4.25,2.25,6.38l1.35,3.94c.69,1.98,1.32,4,2.06,5.95.57,1.52,1.23,2.97,1.82,4.46.13.33.27.65.37.99.39,1.26.35,1.72-.14,2.17-.11.1-.22.23-.33.31-.4.26-.94-.12-1.43-.97-1.47-2.51-2.59-5.29-3.56-8.15-.72-2.12-1.45-4.25-2.18-6.37l.06-.03Z"/><path class="cls-2" d="M365.89,171.19c-1.33,1.13-2.77,1.51-4.12,1.75-.49.07-.97.21-1.47.22-.87.03-1.72,0-2.55-.13-.42-.06-.83-.15-1.24-.26-.41-.09-.81-.22-1.2-.34-.7-.22-1.41-.45-2.05-.8-.82-.44-1.63-1-2.11-1.83-.16-.24-.09-.24.16-.15.24.1.67.24,1.14.38.37.18.82.25,1.21.36l1.23.22c.8.17,1.64.25,2.47.38,1.01.16,2.08-.01,3.07-.19,1.1-.19,2.18-.52,3-1.08l.37-.27c.11-.09.19-.21.3-.31.1-.09.2-.21.3-.36.1-.14.2-.27.28-.42.53-.87.9-1.87,1.01-2.94.09-.84-.08-1.68-.15-2.59-.02-.2-.06-.4-.06-.61.01-.77.28-1.03,1.12-1.03.19,0,.39-.01.58,0,.65.07,1.11.42,1.23.91.34,1.43.39,3.23-.15,5.15-.2.71-.5,1.41-.86,2.08-.4.66-.75,1.24-1.45,1.92l-.05-.05Z"/><g class="cls-3"><path class="cls-2" d="M127.6,56.15c-.03-.15.09-.28.24-.39.05-.03.18-.03.21.02.05.1.1.19.14.26.02.05.26.89.32,1.17.08.27.12.55.15.82.09.56.09,1.11.13,1.66,0,.12,0,.24-.02.37-.08.42-.06.84,0,1.26,0,.07,0,.14.06.21.09.11.18,1.25.15,1.41-.08.43-.14.75-.2,1.12-.01.05.01.11-.05.16-.16.12-.12.23-.13.35-.01.16-.03.32-.08.48-.03.08-.12.16-.19.24-.07.07-.29.04-.32.02-.08-.07-.18,0-.28,0-.03,0-.07,0-.1,0-.08,0-.53-.9-.52-1,0-.02-.16-1.31-.18-1.51-.02-.08.02-.16.04-.24,0-.06-.11-1.11-.11-1.15.02-.22-.03-.45.1-.67.03-.04.02-.09.02-.13-.02-.39.04-.77.08-1.16.02-.2,0-.39.02-.59,0-.04.02-.07.03-.11.01-.04.03-.09.03-.13.02-.46.14-.92.15-1.39,0-.11.16-.61.18-.73.01-.07.18-.29.16-.35Z"/><path class="cls-2" d="M123.94,60.76c-.14.05-.27-.12-.39-.2-.04-.03-.03-.1,0-.13.08-.05.16-.12.24-.18.05,0,.86-.31,1.13-.37.27-.07.54-.11.81-.13l1.65-.14c.12,0,.24.01.36.04.41.09.82.1,1.23.07.07,0,.14,0,.2-.05.11-.08,1.21-.1,1.35-.07.35.09.7.14,1.06.21.05,0,.1-.01.15.05.11.15.22.12.33.12.15.01.31.02.46.07.08.03.15.11.23.18.07.06.04.28.02.31-.07.07,0,.18,0,.27,0,.03,0,.07,0,.1,0,.07-.88.5-.99.48-.02,0-1.3.11-1.49.12-.08.01-.16-.03-.23-.05-.06,0-1.09.05-1.13.05-.22-.03-.43.01-.64-.12-.04-.03-.09-.02-.13-.02-.37,0-.73-.06-1.1-.13-.19-.03-.37-.03-.56-.05-.03,0-.07-.02-.1-.03-.04-.01-.08-.03-.13-.03-.44-.03-.88-.11-1.32-.09-.1.01-.59-.15-.71-.16-.07,0-.29-.14-.34-.13Z"/><path class="cls-2" d="M125.22,57.39c-.12-.09-.16-.24-.16-.4,0-.05.08-.12.12-.1.1.04.19.09.25.12.05.03.74.53,1,.67.24.15.48.3.69.49l1.29,1.1c.1.08.18.17.26.27.27.34.59.62.94.88.06.04.11.1.19.11.13.02,1.04.75,1.13.87.27.34.48.59.71.89.03.04.09.06.09.14,0,.18.1.24.18.32.11.12.22.24.31.38.04.07.05.18.07.28.01.09-.16.23-.19.23-.1,0-.12.12-.18.2-.02.02-.04.06-.06.07-.04.04-.98-.3-1.06-.38,0,0-.28-.22-.57-.45-.27-.23-.56-.46-.63-.52-.07-.05-.1-.13-.15-.2-.04-.04-.85-.75-.88-.77-.15-.17-.33-.31-.42-.54-.02-.05-.05-.08-.09-.11-.28-.27-.52-.58-.77-.88-.13-.15-.27-.29-.41-.44-.02-.03-.04-.06-.06-.09-.03-.04-.05-.08-.08-.11-.33-.33-.61-.71-.92-1.07-.07-.08-.34-.54-.42-.63-.05-.05-.13-.29-.18-.33Z"/><path class="cls-2" d="M124.06,63.62c-.13.11-.31.1-.49.05-.06-.02-.11-.13-.08-.17.06-.1.13-.19.17-.26.1-.11.67-.73.89-.97.2-.23.42-.44.64-.65.44-.43.87-.86,1.32-1.28.1-.09.21-.18.33-.25.4-.25.75-.57,1.07-.92.05-.06.12-.11.14-.2.03-.15.95-1.06,1.09-1.15.37-.22.71-.46,1.07-.69.05-.03.08-.09.17-.08.2.03.27-.08.38-.16.14-.11.29-.21.46-.3.08-.04.21-.03.32-.03.1,0,.23.21.22.25-.01.11.11.15.18.22.02.02.06.05.07.08.03.05-.47,1.02-.55,1.08,0,0-.27.28-.55.56-.27.28-.55.58-.62.65-.06.07-.15.1-.23.15-.04.04-.88.89-.91.92-.2.15-.36.35-.63.42-.05.01-.09.05-.12.09-.32.29-.68.53-1.04.79-.19.15-.35.27-.53.41-.03.02-.08.03-.11.05-.05.02-.1.04-.14.07-.43.31-.9.56-1.33.87-.1.07-.65.3-.78.35-.07.04-.36.05-.42.1Z"/></g><path class="cls-2" d="M40.63,237.84c-.02-.13.08-.23.21-.32.04-.03.16-.02.18.01.05.08.09.16.12.21.02.04.22.74.28.97.07.23.1.45.13.68.08.46.08.91.12,1.37,0,.1,0,.2-.02.3-.07.35-.05.69,0,1.04,0,.06,0,.12.05.17.08.09.16,1.03.13,1.16-.07.36-.12.62-.17.93,0,.04.01.09-.05.13-.13.1-.11.19-.11.29,0,.13-.02.26-.07.4-.03.07-.11.13-.17.2-.06.06-.25.04-.28.02-.07-.06-.16,0-.24,0-.03,0-.06,0-.09,0-.07,0-.46-.74-.45-.83,0-.02-.14-1.07-.16-1.24-.01-.06.02-.13.04-.2,0-.05-.09-.92-.1-.95.02-.18-.03-.37.08-.56.02-.04.02-.07.01-.11-.01-.32.03-.64.07-.95.02-.16,0-.32.01-.49,0-.03.02-.06.03-.09,0-.04.03-.07.03-.11.02-.38.12-.76.13-1.14,0-.09.14-.5.16-.6,0-.06.15-.24.14-.29Z"/><path class="cls-2" d="M37.23,241.65c-.13.04-.25-.11-.36-.17-.03-.02-.03-.08,0-.11.07-.04.15-.1.22-.16.05,0,.79-.26,1.05-.32.25-.06.5-.09.75-.11l1.52-.12c.11,0,.22,0,.33.03.38.08.76.09,1.14.06.06,0,.13,0,.19-.04.1-.07,1.12-.09,1.25-.06.33.08.65.12.98.18.05,0,.1-.01.14.04.1.13.2.1.3.11.14.01.28.01.43.06.07.02.14.1.21.15.06.05.04.25.02.27-.06.06,0,.15,0,.23,0,.03,0,.06,0,.08,0,.06-.82.43-.91.42-.02,0-1.19.09-1.38.1-.07.01-.14-.02-.22-.04-.05,0-1.01.04-1.04.04-.2-.02-.4,0-.59-.1-.04-.02-.08-.02-.12-.02-.34,0-.68-.05-1.02-.11-.17-.03-.34-.03-.52-.05-.03,0-.06-.02-.09-.03-.04-.01-.08-.03-.12-.03-.41-.02-.82-.09-1.22-.08-.09.01-.54-.13-.65-.14-.06,0-.26-.12-.32-.11Z"/><path class="cls-2" d="M38.43,238.88c-.11-.08-.15-.2-.16-.34,0-.04.06-.11.1-.09.09.03.17.07.23.09.04.02.68.43.91.54.22.12.44.24.63.39l1.18.9c.09.07.17.14.24.22.25.28.55.51.86.72.05.03.1.08.17.09.12.01.95.61,1.03.71.26.29.45.5.67.74.03.04.08.05.08.12,0,.16.1.2.17.27.1.1.21.2.29.31.04.06.05.16.07.24.02.08-.13.21-.16.21-.09,0-.1.11-.14.18-.01.02-.03.05-.05.07-.04.04-.87-.22-.94-.28-.02-.01-.96-.69-1.1-.8-.06-.04-.1-.11-.14-.17-.04-.03-.79-.61-.81-.63-.14-.14-.31-.25-.4-.45-.02-.04-.05-.06-.08-.09-.26-.22-.49-.48-.72-.73-.12-.13-.25-.24-.38-.36-.02-.02-.04-.05-.06-.08-.02-.03-.05-.07-.07-.09-.31-.28-.57-.59-.86-.89-.07-.07-.32-.46-.41-.53-.04-.04-.13-.25-.17-.28Z"/><path class="cls-2" d="M37.32,244.02c-.12.09-.28.08-.43.03-.05-.02-.09-.11-.07-.15.06-.08.12-.16.16-.22.1-.1.63-.61.84-.81.19-.19.39-.37.6-.54.41-.36.81-.72,1.24-1.06.09-.08.19-.14.3-.21.37-.2.69-.47.99-.76.05-.05.11-.09.13-.17.04-.13.89-.89,1.03-.96.33-.18.65-.38.98-.56.05-.03.08-.08.15-.06.17.03.24-.06.34-.12.13-.09.27-.18.42-.24.08-.03.18-.02.28-.02.09,0,.19.19.18.22-.02.1.09.14.15.2.02.02.05.05.06.07.03.05-.47.87-.55.92,0,0-.25.23-.52.47-.25.23-.51.48-.58.54-.05.06-.14.08-.21.12-.04.04-.82.74-.85.77-.18.12-.34.29-.58.35-.05.01-.08.04-.11.07-.3.24-.63.44-.96.64-.18.12-.32.22-.48.34-.03.02-.07.03-.1.04-.04.02-.09.03-.13.05-.39.25-.82.45-1.21.71-.09.06-.59.23-.7.28-.06.03-.32.03-.37.07Z"/><g class="cls-3"><path class="cls-2" d="M478.34,202.56c-.02-.13.08-.23.21-.32.04-.03.16-.02.18.01.05.08.09.16.12.21.02.04.22.74.28.97.07.23.1.45.13.68.08.46.08.91.12,1.37,0,.1,0,.2-.02.3-.07.35-.05.69,0,1.04,0,.06,0,.12.05.17.08.09.16,1.03.13,1.16-.07.36-.12.62-.17.93,0,.04.01.09-.05.13-.13.1-.11.19-.11.29,0,.13-.02.26-.07.4-.03.07-.11.13-.17.2-.06.06-.25.04-.28.02-.07-.06-.16,0-.24,0-.03,0-.06,0-.09,0-.07,0-.46-.74-.45-.83,0-.02-.14-1.07-.16-1.24-.01-.06.02-.13.04-.2,0-.05-.09-.92-.1-.95.02-.18-.03-.37.08-.56.02-.04.02-.07.01-.11-.01-.32.03-.64.07-.95.02-.16,0-.32.01-.49,0-.03.02-.06.03-.09,0-.04.03-.07.03-.11.02-.38.12-.76.13-1.14,0-.09.14-.5.16-.6,0-.06.15-.24.14-.29Z"/><path class="cls-2" d="M474.93,206.37c-.13.04-.25-.11-.36-.17-.03-.02-.03-.08,0-.11.07-.04.15-.1.22-.16.05,0,.79-.26,1.05-.32.25-.06.5-.09.75-.11l1.52-.12c.11,0,.22,0,.33.03.38.08.76.09,1.14.06.06,0,.13,0,.19-.04.1-.07,1.12-.09,1.25-.06.33.08.65.12.98.18.05,0,.1-.01.14.04.1.13.2.1.3.11.14.01.28.01.43.06.07.02.14.1.21.15.06.05.04.25.02.27-.06.06,0,.15,0,.23,0,.03,0,.06,0,.08,0,.06-.82.43-.91.42-.02,0-1.19.09-1.38.1-.07.01-.14-.02-.22-.04-.05,0-1.01.04-1.04.04-.2-.02-.4,0-.59-.1-.04-.02-.08-.02-.12-.02-.34,0-.68-.05-1.02-.11-.17-.03-.34-.03-.52-.05-.03,0-.06-.02-.09-.03-.04-.01-.08-.03-.12-.03-.41-.02-.82-.09-1.22-.08-.09.01-.54-.13-.65-.14-.06,0-.26-.12-.32-.11Z"/><path class="cls-2" d="M476.13,203.6c-.11-.08-.15-.2-.16-.34,0-.04.06-.11.1-.09.09.03.17.07.23.09.04.02.68.43.91.54.22.12.44.24.63.39l1.18.9c.09.07.17.14.24.22.25.28.55.51.86.72.05.03.1.08.17.09.12.01.95.61,1.03.71.26.29.45.5.67.74.03.04.08.05.08.12,0,.16.1.2.17.27.1.1.21.2.29.31.04.06.05.16.07.24.02.08-.13.21-.16.21-.09,0-.1.11-.14.18-.01.02-.03.05-.05.07-.04.04-.87-.22-.94-.28-.02-.01-.96-.69-1.1-.8-.06-.04-.1-.11-.14-.17-.04-.03-.79-.61-.81-.63-.14-.14-.31-.25-.4-.45-.02-.04-.05-.06-.08-.09-.26-.22-.49-.48-.72-.73-.12-.13-.25-.24-.38-.36-.02-.02-.04-.05-.06-.08-.02-.03-.05-.07-.07-.09-.31-.28-.57-.59-.86-.89-.07-.07-.32-.46-.41-.53-.04-.04-.13-.25-.17-.28Z"/><path class="cls-2" d="M475.02,208.74c-.12.09-.28.08-.43.03-.05-.02-.09-.11-.07-.15.06-.08.12-.16.16-.22.1-.1.63-.61.84-.81.19-.19.39-.37.6-.54.41-.36.81-.72,1.24-1.06.09-.08.19-.14.3-.21.37-.2.69-.47.99-.76.05-.05.11-.09.13-.17.04-.13.89-.89,1.03-.96.33-.18.65-.38.98-.56.05-.03.08-.08.15-.06.17.03.24-.06.34-.12.13-.09.27-.18.42-.24.08-.03.18-.02.28-.02.09,0,.19.19.18.22-.02.1.09.14.15.2.02.02.05.05.06.07.03.05-.47.87-.55.92,0,0-.25.23-.52.47-.25.23-.51.48-.58.54-.05.06-.14.08-.21.12-.04.04-.82.74-.85.77-.18.12-.34.29-.58.35-.05.01-.08.04-.11.07-.3.24-.63.44-.96.64-.18.12-.32.22-.48.34-.03.02-.07.03-.1.04-.04.02-.09.03-.13.05-.39.25-.82.45-1.21.71-.09.06-.59.23-.7.28-.06.03-.32.03-.37.07Z"/></g><path class="cls-2" d="M382.58,48.16c-.02-.13.08-.23.21-.32.04-.03.16-.02.18.01.05.08.09.16.12.21.02.04.22.74.28.97.07.23.1.45.13.68.08.46.08.91.12,1.37,0,.1,0,.2-.02.3-.07.35-.05.69,0,1.04,0,.06,0,.12.05.17.08.09.16,1.03.13,1.16-.07.36-.12.62-.17.93,0,.04.01.09-.05.13-.13.1-.11.19-.11.29,0,.13-.02.26-.07.4-.03.07-.11.13-.17.2-.06.06-.25.04-.28.02-.07-.06-.16,0-.24,0-.03,0-.06,0-.09,0-.07,0-.46-.74-.45-.83,0-.02-.14-1.07-.16-1.24-.01-.06.02-.13.04-.2,0-.05-.09-.92-.1-.95.02-.18-.03-.37.08-.56.02-.04.02-.07.01-.11-.01-.32.03-.64.07-.95.02-.16,0-.32.01-.49,0-.03.02-.06.03-.09,0-.04.03-.07.03-.11.02-.38.12-.76.13-1.14,0-.09.14-.5.16-.6,0-.06.15-.24.14-.29Z"/><path class="cls-2" d="M379.18,51.97c-.13.04-.25-.11-.36-.17-.03-.02-.03-.08,0-.11.07-.04.15-.1.22-.16.05,0,.79-.26,1.05-.32.25-.06.5-.09.75-.11l1.52-.12c.11,0,.22,0,.33.03.38.08.76.09,1.14.06.06,0,.13,0,.19-.04.1-.07,1.12-.09,1.25-.06.33.08.65.12.98.18.05,0,.1-.01.14.04.1.13.2.1.3.11.14.01.28.01.43.06.07.02.14.1.21.15.06.05.04.25.02.27-.06.06,0,.15,0,.23,0,.03,0,.06,0,.08,0,.06-.82.43-.91.42-.02,0-1.19.09-1.38.1-.07.01-.14-.02-.22-.04-.05,0-1.01.04-1.04.04-.2-.02-.4,0-.59-.1-.04-.02-.08-.02-.12-.02-.34,0-.68-.05-1.02-.11-.17-.03-.34-.03-.52-.05-.03,0-.06-.02-.09-.03-.04-.01-.08-.03-.12-.03-.41-.02-.82-.09-1.22-.08-.09.01-.54-.13-.65-.14-.06,0-.26-.12-.32-.11Z"/><path class="cls-2" d="M380.38,49.2c-.11-.08-.15-.2-.16-.34,0-.04.06-.11.1-.09.09.03.17.07.23.09.04.02.68.43.91.54.22.12.44.24.63.39l1.18.9c.09.07.17.14.24.22.25.28.55.51.86.72.05.03.1.08.17.09.12.01.95.61,1.03.71.26.29.45.5.67.74.03.04.08.05.08.12,0,.16.1.2.17.27.1.1.21.2.29.31.04.06.05.16.07.24.02.08-.13.21-.16.21-.09,0-.1.11-.14.18-.01.02-.03.05-.05.07-.04.04-.87-.22-.94-.28-.02-.01-.96-.69-1.1-.8-.06-.04-.1-.11-.14-.17-.04-.03-.79-.61-.81-.63-.14-.14-.31-.25-.4-.45-.02-.04-.05-.06-.08-.09-.26-.22-.49-.48-.72-.73-.12-.13-.25-.24-.38-.36-.02-.02-.04-.05-.06-.08-.02-.03-.05-.07-.07-.09-.31-.28-.57-.59-.86-.89-.07-.07-.32-.46-.41-.53-.04-.04-.13-.25-.17-.28Z"/><path class="cls-2" d="M379.27,54.34c-.12.09-.28.08-.43.03-.05-.02-.09-.11-.07-.15.06-.08.12-.16.16-.22.1-.1.63-.61.84-.81.19-.19.39-.37.6-.54.41-.36.81-.72,1.24-1.06.09-.08.19-.14.3-.21.37-.2.69-.47.99-.76.05-.05.11-.09.13-.17.04-.13.89-.89,1.03-.96.33-.18.65-.38.98-.56.05-.03.08-.08.15-.06.17.03.24-.06.34-.12.13-.09.27-.18.42-.24.08-.03.18-.02.28-.02.09,0,.19.19.18.22-.02.1.09.14.15.2.02.02.05.05.06.07.03.05-.47.87-.55.92,0,0-.25.23-.52.47-.25.23-.51.48-.58.54-.05.06-.14.08-.21.12-.04.04-.82.74-.85.77-.18.12-.34.29-.58.35-.05.01-.08.04-.11.07-.3.24-.63.44-.96.64-.18.12-.32.22-.48.34-.03.02-.07.03-.1.04-.04.02-.09.03-.13.05-.39.25-.82.45-1.21.71-.09.06-.59.23-.7.28-.06.03-.32.03-.37.07Z"/><path class="cls-2" d="M211.29,75.25c-3.85-.96-7.93-1.12-11.95-.56-.74.09-1.47.21-2.15.42-.69.2-1.4.33-2.07.59-2.44.71-4.77,1.9-6.88,3.4-2.12,1.49-4.02,3.32-5.62,5.39-1.38,1.86-2.44,3.98-3.05,6.17-.14.71-.38,1.42-.43,2.14-.09.72-.21,1.44-.16,2.16v1.09c.02.36.13.71.1,1.08-.03.75.12,1.48.23,2.24.12.97.1.87-.47.22-.26-.34-.81-.78-1.25-1.43-.43-.65-.99-1.5-1.03-2.49l-.16-1.32c-.06-.44,0-.87-.01-1.32l.04-1.33.26-1.29c.14-.87.42-1.69.71-2.51.25-.84.66-1.6,1.02-2.38.77-1.54,1.71-2.99,2.82-4.29,1.12-1.29,2.36-2.47,3.71-3.5,3.18-2.49,6.84-4.71,10.9-5.73,4.42-1.03,8.9-1.24,13.34-.6,1.37.14,2.7.52,4.03.83.67.15,1.31.43,1.96.63.65.23,1.31.42,1.92.73,3.84,1.62,7.3,4.11,10.09,7.15,2.15,2.36,4.11,4.94,5.35,7.95.33.64.52,1.31.76,1.99.44,1.26.52,2.15.46,2.78-.05.63-.3,1.02-.71,1.35-.19.15-.36.34-.55.43-.62.3-1.46-.6-1.93-2.24-.91-2.4-1.95-4.76-3.41-6.89-1.47-2.12-3.22-4.07-5.25-5.73-3.06-2.4-6.71-4.15-10.6-5.03v-.08Z"/><path class="cls-2" d="M184.14,146.66c.53,3.5,1.51,6.96,3.1,10.09,1.59,3.13,3.78,5.93,6.52,8.08,2.02,1.54,4.3,2.7,6.73,3.49,2.16.69,4.41,1.2,6.67,1.4,2.27.18,4.55.08,6.79-.32,4.49-.8,8.74-2.86,12.38-5.75,1.62-1.28,3.12-2.72,4.49-4.27,1.36-1.56,2.59-3.23,3.72-4.95,1.44-2.22,2.66-4.59,3.69-7.03,1.04-2.44,1.9-4.94,2.45-7.55.26-1.63.3-1.45.54,0,.08.73.19,1.78.19,3.08-.01,1.29-.28,2.78-.71,4.34-.4,1.38-.9,2.73-1.51,4.02-.58,1.31-1.26,2.58-1.96,3.82-.73,1.23-1.49,2.45-2.35,3.61-.87,1.15-1.78,2.27-2.78,3.31-3.93,4.2-8.89,7.71-14.59,9.27-3.38.93-6.98,1.36-10.56,1.1-3.57-.29-7.07-1.11-10.35-2.62-3.58-1.68-6.71-4.28-9.1-7.39-2.41-3.11-4.01-6.72-5.09-10.42-.36-1.13-.57-2.3-.84-3.46-.18-1.17-.4-2.33-.49-3.51-.26-2.34-.28-4.73-.13-7.06.42-7.09,2.11-14.05,4.51-20.63.46-1.28.97-2.54,1.5-3.8.15-.34.23-.56.47-1.03l.31-.63.4-.56c.12-.2.36-.25.57-.29.21-.05.45-.07.69-.04l1.27.11c2.57.2,5.11.03,7.52-.64,1.06-.3,2.05-.71,3.03-1.19,1.82-.9,2.87-1.72,3.7-2.21.41-.25.75-.43,1.06-.56.33-.12.62-.18.92-.22.27-.03.6-.11.81-.09.37.04.34.47-.06,1.25-.42.75-1.28,1.8-2.67,2.85-2.06,1.55-4.52,2.65-7.1,3.24-2.58.6-5.3.66-7.88.4-.13,0-.1,0-.12.03,0,0-.03.08-.05.12l-.33.74c-.47,1.1-.93,2.22-1.35,3.37-.85,2.28-1.58,4.63-2.21,7-.92,3.52-1.6,7.11-1.96,10.73-.18,1.81-.26,3.63-.26,5.4.06,1.79.17,3.58.47,5.34l-.07.02Z"/><path class="cls-2" d="M239.29,131.67c-1.9-1.37-3.6-3.06-4.87-5.08-.24-.36-.48-.71-.69-1.09-.22-.37-.44-.73-.6-1.13-.6-1.37-.99-2.8-1.28-4.23-.16-.71-.24-1.43-.35-2.14-.06-.72-.11-1.44-.11-2.15-.04-1.27-.05-2.53.04-3.78.11-1.6.39-3.19.93-4.7.17-.47.3-.37.42.08.11.45.31,1.24.35,2.12.04,1.57.26,3.1.37,4.61.14,1.52.41,3,.58,4.52.23,1.82,1.07,3.55,1.92,5.15.93,1.77,2.2,3.32,3.8,4.62.96.81,2.03,1.52,3.16,2.11,1.71.9,3.55,1.62,5.45,1.97,1.48.27,2.97.22,4.43.11.32-.02.63-.07.95-.11,1.19-.07,1.57.06,1.93.81.08.17.19.33.24.5.2.57-.26,1.13-1.24,1.42-2.9.73-6.14.45-9.15-.48-2.25-.68-4.39-1.73-6.34-3.08l.04-.06Z"/><path class="cls-2" d="M100.01,179.47c-1.28.82-2.58,1.58-3.9,2.3-.48.26-.92.6-1.42.84-1.74.86-3.52,1.66-5.39,2.24l-1.24.41c-.41.15-.82.29-1.24.41l-.8.25c-.28.05-.57.08-.85.1-.56.09-1.16-.02-1.72-.2-.35-.22-.29-.24-.02-.61.28-.33.69-.95,1.2-1.21.89-.51,1.85-.7,2.8-1.12.96-.35,1.91-.77,2.94-1.07,1.23-.38,2.33-1.16,3.48-1.8,1.25-.73,2.51-1.46,3.72-2.26.75-.49,1.49-.99,2.21-1.53,1.08-.82,2.16-1.61,2.97-2.62.32-.38.57-.83.63-1.14.01-.04.02-.08,0-.08.01,0-.1-.04.18,0,.11.04.24.05.37.01.04,0,.07,0,.1-.03-.07.04-.08.07-.12.14-.09.12-.15.26-.17.4-.01.05-.09.29-.07.23l-.02.02s-.03.01-.07.02c-.1.02-.27.1-.44.13-.68.17-1.01,0-1.37-.75-.08-.17-.18-.33-.25-.5-.12-.29-.12-.58-.02-.85.1-.27.31-.55.65-.7.53-.22.99-.48,1.97-.45.14.02.27.04.4.06.17.04.39.13.57.22.15.06.46.3.65.51.21.21.36.51.47.83.12.35.11.53.11.78,0,.12-.01.24-.02.35-.02.09-.03.15-.05.23-.04.15-.07.29-.12.44l-.13.3c-.35.75-.71,1.22-1.08,1.65-.37.44-.73.82-1.16,1.22-1.2,1.11-2.45,1.97-3.71,2.85l-.04-.06Z"/><path class="cls-2" d="M288.91,159.37c-.41-.97-.65-2.02-.65-3.12,0-1.09.27-2.29.95-3.28.45-.64.83-1.19,1.39-1.69.99-.83,2.21-1.44,3.48-1.68,1.27-.25,2.55-.15,3.74.23,1.04.37,2.01.94,2.76,1.69,1.02.91,1.65,2.25,1.56,3.58-.02.41-.07.36-.35.11-.14-.12-.36-.29-.63-.45-.13-.09-.31-.15-.44-.25-.12-.1-.25-.19-.36-.3-1.58-1.52-3.1-2.18-5.09-2.21-.58,0-1.16.21-1.67.53-.52.32-.95.77-1.39,1.22-.12.13-.24.26-.35.4-.12.14-.23.28-.29.38-.15.22-.27.48-.34.77-.15.58-.14,1.26.01,1.94.2.84.58,1.66,1.17,2.32.44.5.94.92,1.53,1.21.59.29,1.27.43,1.96.44,1.08.02,2.15-.37,3.19-.77.23-.08.45-.21.69-.28.88-.3,1.26-.16,1.69.46.1.14.21.28.29.42.27.49.05,1.08-.59,1.54-.97.64-2.09,1.08-3.35,1.34-1.26.25-2.71.28-4.17-.15-1.08-.32-2.12-.94-2.92-1.71-.8-.77-1.44-1.67-1.88-2.65l.07-.03Z"/><path class="cls-2" d="M302.74,97.21c-1.79.15-3.59.68-5.11,1.66-.31.14-.51.41-.77.61-.23.23-.53.4-.73.66-.37.43-.86.79-1.14,1.3l-.5.72c-.17.24-.27.5-.41.76-.45,1.06-.74,2.24-.75,3.46-.01,1.08.24,2.18.67,3.17.23.66.55,1.28.9,1.89.35.6.66,1.3,1.17,1.83.29.36.19.42-.25.3-.22-.06-.52-.15-.89-.29-.38-.13-.8-.33-1.2-.63-.63-.58-1.2-1.26-1.66-2-.45-.75-.72-1.6-.93-2.45-.4-1.71-.38-3.55.2-5.25.2-.5.38-1,.62-1.49.22-.49.52-.93.78-1.4.24-.48.58-.89.92-1.31.33-.42.67-.84,1.09-1.16,1.72-1.57,3.84-2.58,6.03-3.12.68-.12,1.36-.26,2.04-.34.69-.02,1.37-.12,2.06-.08,2.09,0,4.15.55,6.05,1.38.77.26,1.45.72,2.2,1.07.35.21.68.47,1.02.7.34.24.69.48.97.8.26.27.54.51.79.8.25.25.36.53.45.76.09.23.13.43.14.61,0,.36-.16.64-.48.94-.15.14-.29.29-.45.4-.55.36-1.29.18-1.85-.35-.1-.1-.21-.2-.3-.3l-.34-.26c-.22-.18-.43-.36-.63-.54-.2-.19-.46-.31-.68-.48-.23-.15-.42-.34-.67-.47-.51-.24-.94-.59-1.49-.77l-.78-.34-.83-.25c-1.65-.47-3.47-.67-5.26-.45l-.02-.08Z"/><path class="cls-2" d="M345.81,95.62c1.01.34,1.98.83,2.91,1.39.43.3.87.59,1.28.91.4.35.82.65,1.19,1.03l.82.8c.26.29.51.57.74.88.77,1.12,1.37,2.32,1.8,3.56.41,1.25.64,2.52.77,3.79.08,1.12.13,2.25.06,3.35,0,.35-.04.71-.08,1.06-.05.35-.04.71-.15,1.05-.18.69-.4,1.36-.75,1.98-.33.36-.4.27-.7-.17-.29-.44-.62-1.16-.71-1.9-.05-1.31,0-2.57-.17-3.81-.11-1.23-.24-2.45-.53-3.67-.33-1.47-1.29-2.75-2.3-3.84-1.1-1.21-2.49-2.3-4.02-2.96-.95-.41-1.98-.74-3.04-.89-1.6-.25-3.28-.27-4.86.11-1.22.3-2.3.95-3.23,1.66-.2.16-.4.32-.59.49-.37.29-.64.43-.91.45-.28,0-.57-.12-.96-.36-.18-.11-.37-.21-.53-.33-.27-.2-.42-.48-.44-.81-.01-.33.1-.76.41-1.12.89-1.11,2.12-1.94,3.45-2.5,1.33-.57,2.77-.88,4.2-1,2.14-.14,4.29.11,6.34.77l-.02.08Z"/><path class="cls-2" d="M379.58,142.44c-.33,1.6-1.07,3.07-1.97,4.27-.9,1.21-1.96,2.18-2.99,3.03-.19.16-.37.31-.54.47l-.2.19c-.08.08-.15.15-.25.23-.2.16,0,.29.08.43.02.04.05.08.07.12l.3.42c.21.33.42.66.59,1.02.36.7.64,1.45.78,2.25.32,1.57.08,3.3-.73,4.63-.46.74-.91,1.37-1.62,1.98-.69.57-1.51.92-2.31,1.1-2.07.39-4.16-.08-5.71-1.31-.46-.42-.35-.39.15-.29.25.04.61.06,1.04.03.22-.02.44-.03.68-.08.12-.02.23-.02.36-.06.12,0,.24-.01.36-.01.85-.01,1.68-.19,2.35-.48.68-.27,1.18-.62,1.48-1.06.08-.08.17-.25.26-.4.1-.15.17-.3.24-.45.15-.3.25-.61.32-.91.18-.59.26-1.22.16-1.91-.05-.47-.24-.94-.5-1.39-.12-.23-.29-.44-.44-.65l-.3-.35-.6-.6c-.14-.15-.31-.31-.43-.46l-.28-.46c-.21-.3-.33-.6-.3-1.01.06-.74.5-1.35,1.09-1.95.37-.35.85-.74,1.18-1.01.25-.2.48-.4.71-.6.46-.4.89-.81,1.28-1.23.79-.84,1.46-1.75,1.86-2.75.26-.61.42-1.25.49-1.92.04-.33.03-.67,0-1.02,0-.35-.02-.69-.1-1.02-.29-2.03-1.64-3.8-3.51-4.88-1.46-.85-3.16-1.21-4.84-1.5-.37-.07-.75-.08-1.12-.16-1.38-.32-1.79-.65-1.97-1.61-.04-.22-.1-.44-.12-.65-.04-.7.65-1.22,1.84-1.29,1.76-.12,3.57.19,5.41.77,1.84.57,3.67,1.66,5.21,3.26,1.13,1.19,2.04,2.72,2.46,4.35.18.81.35,1.64.34,2.43.05.79,0,1.63-.15,2.44h-.09Z"/><path class="cls-2" d="M354.82,147.65c.81,5.71.11,11.7-2.2,16.99-.83,1.89-1.81,3.88-3.21,5.52-2.44,2.93-5.65,5.07-9.1,6.4-3.45,1.34-7.15,1.81-10.77,1.68-3.21-.14-6.43-.74-9.4-1.91-1.92-.73-3.76-1.69-5.4-2.95-.42-.3-.81-.63-1.19-.98-.38-.35-.79-.66-1.09-1.09-.34-.39-.65-.8-.93-1.22-.3-.41-.57-.84-.82-1.29-.62-1.1-.52-.94.33-.3.41.34,1.1.71,1.89,1.15.4.21.88.39,1.3.65.42.26.87.53,1.3.84,3.2,2.04,6.73,3.52,10.49,4.08,3.74.59,7.62.39,11.31-.6,4.46-1.11,8.52-4.14,10.92-8.05,2.61-4.41,3.93-9.73,3.68-14.98-.05-1.62-.28-3.24-.56-4.85-.33-1.6-.73-3.19-1.26-4.74-1.6-4.71-4-9.21-7.01-13.19-2.35-3.09-5.09-5.76-7.99-8.23-.64-.54-1.3-1.04-1.95-1.57-2.43-1.97-3.14-2.67-3.16-3.82,0-.26-.06-.54-.02-.75.1-.69,1.58-.49,3.6.86,5.98,3.97,11.36,9.59,15.35,16.17,2.98,4.88,5.09,10.39,5.97,16.16l-.08.02Z"/><path class="cls-2" d="M321.69,119.66c.4-.01.82.02,1.23-.02.4-.06.84-.07,1.24-.19.29-.09.57-.21.85-.32,1.06-.29,1.99-.85,2.85-1.54.4-.31.62-.74.85-1.16.26-.56.44-1.11.85-1.76.13-.2.22-.19.41,0,.1.1.24.24.39.43.08.1.16.2.23.32.04.06.06.12.12.18.01.07.02.12.04.18,0,.43-.03.87-.07,1.33-.1.43-.29.83-.47,1.24-.22.38-.47.73-.74,1.08-.29.32-.62.59-.98.83-.44.26-.85.54-1.25.85-.43.25-.83.57-1.29.76-1,.43-2.04.75-3.1.89-.65.13-1.31.1-1.96.15-.5-.01-.99-.05-1.48-.09-.49-.09-.98-.12-1.47-.2-.38-.07-.77-.09-1.18-.1-.39-.05-.8-.1-1.21-.17-.18-.02-.37-.04-.53-.13-.61-.31-.68-.64-.26-1.48.09-.19.18-.39.29-.57.37-.62.89-1.01,1.29-1.06.59-.05,1.09-.04,1.55.05.5.03.96.17,1.47.22.74.13,1.53.19,2.33.18v.08Z"/><path class="cls-2" d="M304.59,173.91c-.57.31-1.15.62-1.76.73-.3.07-.6.17-.9.19l-.88.04c-.6.06-1.12-.07-1.67-.12-.27-.04-.54-.06-.81-.12l-.81-.24c-.78-.19-1.57-.56-2.28-1.01-1.25-.89-2.12-2.28-2.44-3.71-.32-1.44-.17-2.93.41-4.2.53-1.1,1.22-2.16,2.17-2.9l.46-.35.51-.27c.34-.17.67-.38,1.05-.45.37-.09.75-.15,1.11-.18.36.02.73.03,1.1.05.45.04.38.08.04.31-.34.23-.92.68-1.44,1.24-.12.11-.25.17-.38.26-.12.09-.22.21-.33.31-.2.22-.45.36-.6.62-.15.25-.39.39-.54.62l-.45.67c-.5.94-.88,1.97-.9,3.07-.03,1.35.97,2.47,2.2,3.06.17.08.33.2.52.26l.58.17c.2.05.38.13.59.16l.63.07.63.08c.21.02.4-.02.6-.02.2-.02.4,0,.6-.04l.55-.15c.89-.27,1.66-.85,2.11-1.69.67-1.27.75-3.01.03-4.39-.53-1.08-1.49-1.86-2.5-2.29-.21-.13-.47-.15-.68-.26-.4-.21-.69-.31-.85-.53-.17-.21-.23-.49-.26-.9-.01-.19-.04-.38-.04-.55,0-.6.57-.97,1.59-.92.37.02.72.16,1.09.26.37.1.74.23,1.08.43.33.21.69.4,1,.66.3.27.6.55.88.83,1.08,1.23,1.77,2.81,1.96,4.47.17,1.22,0,2.52-.46,3.74-.43,1.24-1.39,2.31-2.48,3.06l-.04-.06Z"/><path class="cls-2" d="M411.59,137.26c.08-.81.33-1.61.64-2.38.04-.1.09-.19.14-.28l.17-.33c.13-.29.32-.51.52-.74.39-.46.95-.72,1.52-.92,1.01-.28,1.77-.23,2.53-.18.75.07,1.46.18,2.14.33,1,.22,1.99.41,2.95.74,1.5.54,2.97,1.15,4.37,1.99.35.21.7.43,1.04.68.35.24.63.48,1.13.93.41.42.8.87.95,1.39.08.26.12.53.11.8-.01.13-.09.26-.1.4l-.17.36c-.14.21-.29.39-.47.56l-.26.25c-.1.07-.21.13-.32.2-.44.32-1.05.48-1.5.61-.42.09-.83.15-1.24.19-.81.06-1.6.08-2.37,0-1.98-.16-3.95-.53-5.68-1.56-.51-.39-.38-.44.19-.59.29-.07.68-.16,1.13-.23.23-.04.47-.09.72-.11.13-.02.25-.02.39-.05.13.01.25.02.38.03,1.37.16,2.75.16,4.03.12.63-.03,1.27-.07,1.78-.21.18-.04.14-.02.18-.03h.07s.09,0,.14-.04c.07-.03.12-.12.1-.2,0-.04-.02-.09-.04-.13l-.04-.08s-.15-.13-.22-.19c-1.62-1.25-3.96-2.04-6.12-2.66-1.2-.34-2.43-.62-3.59-.7-.29-.02-.57-.02-.82,0-.25,0-.52.06-.6.09-.3.11-.37.25-.65.85-.58,1.23-.59,2.73-.27,4.2.23,1.15.66,2.18,1.04,3.52.3,1.31.38,2.6.35,3.88-.06,1.98-.28,3.92-.8,5.82-.12.42-.22.83-.37,1.24-.58,1.51-.98,1.9-1.7,1.91-.16,0-.32.04-.45.02-.43-.06-.58-.83-.29-1.87.8-3.1,1.24-6.45.83-9.46-.03-.28-.1-.54-.15-.81-.05-.17-.13-.44-.24-.75-.21-.61-.45-1.28-.65-1.98-.4-1.41-.64-2.97-.48-4.62h.07Z"/><path class="cls-2" d="M409.31,153.21c1.23,1.05,2.6,2.04,4.01,2.95.51.34,1.08.59,1.59.93,1.81,1.21,3.72,2.26,5.66,3.29.86.44,1.77.81,2.67,1.13,1.16.42,2.3.88,3.52,1.15.38.09.33.11,0,.17-.33.06-.98.23-1.74.22-.67-.02-1.34-.06-2-.15-.65-.13-1.29-.29-1.92-.46-1.26-.37-2.51-.79-3.64-1.46-1.37-.76-2.89-1.36-4.29-2.13-1.52-.88-3.01-1.84-4.44-2.89-.44-.32-.88-.66-1.3-1.02-.21-.17-.43-.36-.63-.54-.2-.16-.54-.5-.8-.76-.54-.58-1.01-1.19-1.17-1.82-.07-.32-.13-.65.01-.98.04-.17.19-.29.28-.42l.38-.33c.56-.35,1.18-.57,1.87-.6.42-.02.85.02,1.29.08l.64.14.5.14c.65.2,1.28.46,1.87.76.26.14.52.25.77.41.91.6,1.05.98.8,1.63-.06.15-.11.31-.18.44-.27.45-.84.51-1.48.23-.94-.41-1.87-.8-2.74-1.04-.17-.05-.54-.14-.41-.09-.01.02-.01.02-.02.03,0,.02,0,.02.01.03h0s-.03-.01-.04,0v.02s0,.01,0,.01c-.01,0,.01.02.1.1.28.26.59.52.9.78l-.04.05Z"/><path class="cls-2" d="M195.89,130.41c.91,1.85,2.65,3.16,4.61,3.74s4.12.39,6.03-.42c.62-.26.76-1.18.45-1.71-.38-.64-1.09-.71-1.71-.45.24-.1-.11.04-.13.04-.09.03-.18.06-.27.09-.18.06-.37.11-.56.15-.09.02-.19.04-.28.06-.02,0-.4.06-.12.03-.19.02-.38.04-.57.05-.4.02-.81,0-1.21-.04-.15-.01.17.04-.07,0-.09-.02-.19-.03-.28-.05-.21-.04-.41-.09-.61-.15-.18-.05-.36-.12-.54-.18-.34-.12.12.06-.07-.03-.09-.04-.17-.08-.26-.12-.19-.09-.37-.2-.54-.31-.08-.05-.16-.1-.24-.16,0,0-.26-.19-.15-.1s-.11-.1-.14-.12c-.09-.07-.17-.15-.25-.23-.14-.13-.26-.28-.39-.42-.23-.26.11.18-.08-.11-.04-.07-.09-.13-.13-.19-.13-.2-.24-.41-.34-.62-.3-.61-1.16-.77-1.71-.45-.62.36-.75,1.1-.45,1.71h0Z"/><path class="cls-2" d="M216.25,133.99c-.99.44-2.11.76-3.18.86s-1.92.05-2.86-.22c-.49-.14-.62-.18-1.03-.4-.18-.1-.35-.2-.51-.32-.3-.21.09.08-.07-.05-.07-.06-.14-.12-.21-.19-.08-.08-.15-.16-.23-.24s-.07-.1,0,0c-.11-.16-.21-.33-.29-.51-.07-.16.06.26-.01-.05-.02-.09-.05-.17-.07-.26-.03-.12-.04-.22-.02-.04-.01-.11-.02-.22-.02-.33-.03-1.61-2.53-1.61-2.5,0,.04,2.39,1.88,4.04,4.03,4.73,2.71.87,5.68.32,8.22-.81.62-.28.76-1.17.45-1.71-.37-.63-1.09-.72-1.71-.45h0Z"/><path class="cls-2" d="M202,153.37c1.5,1.13,3.5,1.5,5.32,1.1s3.28-1.55,4.19-3.07c.37-.62.16-1.54-.49-1.88s-1.48-.16-1.88.49c-.08.13-.17.26-.25.39.14-.23,0-.01-.03.04-.05.06-.1.12-.15.17-.1.11-.21.22-.33.32-.07.06-.15.13-.22.19.1-.08.11-.08,0,0-.27.19-.56.34-.85.49-.18.09.2-.06,0,0-.07.02-.14.05-.22.08-.16.05-.33.1-.5.14-.08.02-.16.03-.23.04.13-.03.14-.01,0,0-.16.01-.32.02-.49.02-.18,0-.37-.02-.55-.03-.21-.02.2.05,0,0-.08-.02-.16-.03-.24-.05-.18-.04-.36-.09-.53-.15-.08-.03-.15-.06-.23-.08.13.04.1.05,0,0-.33-.16-.64-.35-.94-.57-.58-.43-1.56-.11-1.88.49-.38.72-.12,1.42.49,1.88h0Z"/><path class="cls-2" d="M210.32,120.13c-.61-1.82-2.23-2.89-3.96-3.51-1.57-.56-3.33-.74-4.97-.44-.77.14-1.28,1.12-1.05,1.85.27.83,1.02,1.2,1.85,1.05.06-.01.14-.01.2-.03-.41.13-.27.03-.11.02s.3-.02.45-.03c.33,0,.65,0,.98.04.08,0,.17.03.25.03-.17,0-.32-.05-.06,0,.16.03.32.05.47.09.35.07.69.16,1.02.28.15.05.3.11.45.17.28.11-.29-.14-.04-.02.08.04.16.07.23.11.3.15.56.36.85.52-.32-.17-.17-.14-.05-.04.06.05.12.1.17.16.11.1.2.24.31.34-.1-.09-.2-.28-.06-.06.03.05.07.1.1.16.04.06.06.13.1.2.05.09-.14-.38-.03-.05.25.74,1.04,1.31,1.85,1.05.74-.24,1.32-1.05,1.05-1.85h0Z"/><path class="cls-2" d="M217.72,124.13c.33,0,.65,0,.98.03.1,0,.19.02.29.03.25.02-.04-.03-.05,0,.03-.04.45.08.51.09.32.06.64.14.95.23.16.05.33.1.49.16.08.03.45.11.48.18-.02-.04-.26-.12-.05-.02.07.03.14.06.2.09.15.07.3.15.44.23.27.15.53.31.78.48.07.05.14.1.21.15.17.12-.21-.18-.06-.04.12.1.24.2.35.3.1.09.19.19.29.29.07.08.41.49.15.15.25.32.48.58.9.69.36.1.84.05,1.16-.15.61-.39,1.05-1.39.54-2.05-2-2.59-5.33-3.87-8.55-3.83-.78,0-1.54.68-1.5,1.5s.66,1.51,1.5,1.5h0Z"/><path class="cls-2" d="M205.21,135.96c-.52.44-1.03.89-1.53,1.36-.18.17-.32.38-.51.55-.68.58-1.35,1.16-2.06,1.71-.32.23-.6.51-.88.77-.32.38-.8.61-1.28.81-.15.06-.21-.03-.24-.24-.02-.2-.07-.59.02-.89.12-.56.46-.91.72-1.33.14-.2.29-.39.45-.57.17-.17.37-.32.57-.47.48-.36.78-.91,1.16-1.38l1.31-1.53.83-.93c.42-.48.87-.93,1.24-1.45.28-.4.45-.89.67-1.35.05-.1.08-.21.14-.31.24-.33.49-.28,1.07.13.13.09.27.18.39.28.42.34.65.76.62,1.1-.18.95-.72,1.62-1.29,2.3-.43.49-.9.97-1.36,1.46l-.05-.04Z"/><path class="cls-2" d="M324.47,141.79c1.6,2.27,4.12,4.14,6.96,4.39,1.17.1,2.45-.19,3.42-.87,1.13-.79,1.44-2.06,1.45-3.37.02-1.51-2.33-1.51-2.35,0,0,.27-.01.55-.05.71-.02.11-.06.22-.09.34-.05.21.04-.05-.01.05-.04.07-.08.13-.11.2-.08.11-.07.1.03-.04l-.06.06s-.29.22,0,.02c-.07.04-.13.09-.2.13-.67.4-1.46.51-2.13.41-1.92-.29-3.79-1.74-4.83-3.22-.37-.52-1.03-.76-1.61-.42-.51.3-.79,1.09-.42,1.61h0Z"/><path class="cls-2" d="M341.57,139.4c.02.1.04.21.05.31.02.14-.01-.09-.01-.09,0,.03.01.13.02.17.02.2.03.4.03.61,0,.14-.06.35-.03.49-.04-.16.04-.23.01-.1,0,.03-.01.07-.02.1-.02.09-.04.18-.06.26-.02.07-.04.15-.06.22-.02.05-.12.28-.03.1s-.02.04-.04.08c-.04.07-.07.14-.12.21-.04.06-.07.11-.11.17-.13.2.15-.16.03-.03-.09.1-.18.19-.27.28-.03.03-.23.19-.05.05s-.02,0-.06.04c-.12.08-.24.14-.36.2-.23.12.23-.08.05-.02-.06.02-.12.04-.18.06-.14.04-.27.07-.41.1-.03,0-.06,0-.08.01-.14.03.29-.02.14-.02-.07,0-.13.01-.2.02-.14,0-.27,0-.41,0-.07,0-.14-.01-.21-.02-.27-.02.24.05.04,0-.15-.03-.3-.06-.45-.1-.16-.05-.32-.11-.48-.16-.12-.04.14.06.13.06-.04-.03-.1-.04-.15-.07-.08-.04-.16-.08-.23-.12-.16-.08-.31-.18-.46-.28-.05-.03-.28-.2-.13-.09s-.1-.09-.15-.13c-.46-.4-1.21-.49-1.66,0-.41.44-.49,1.23,0,1.66,1.21,1.06,2.81,1.75,4.44,1.56,1.72-.2,3.09-1.24,3.67-2.89.37-1.05.3-2.2.09-3.28-.12-.61-.88-1.01-1.45-.82-.65.21-.94.8-.82,1.45h0Z"/><path class="cls-2" d="M324.74,134.43c-.32-.04-.65-.07-.97-.09-.12-.02-.23,0-.35-.02-.41-.06-.84-.11-1.25-.07-.19,0-.36.08-.54.09-.23.04-.46.09-.71.11-.08,0-.09-.04-.06-.13.03-.09.09-.26.2-.37.4-.44.94-.58,1.47-.59.32,0,.63-.11.95-.14.35-.05.7,0,1.04.02.21.02.42.03.63.05.32.02.63.05.94.06.24,0,.48-.06.71-.09.05,0,.1-.02.15-.02.19,0,.25.07.3.33l.03.18c.02.2-.05.37-.2.45-.44.21-.9.31-1.34.32-.33,0-.66-.04-.99-.05v-.03Z"/><path class="cls-2" d="M330.33,158.4c1.01,1.98,3.65,3.03,5.74,2.24.31-.12.57-.28.75-.57.16-.27.22-.66.13-.96-.19-.59-.88-1.12-1.54-.87-.24.09-.48.15-.73.19l.33-.04c-.31.04-.62.03-.93,0l.33.04c-.27-.04-.53-.11-.79-.2-.04-.01-.07-.03-.11-.04l.19.08c-.05,0-.16-.08-.21-.1-.11-.06-.22-.12-.33-.19-.06-.04-.11-.08-.17-.12.31.2.15.12.07.05-.1-.09-.2-.18-.29-.28-.04-.04-.08-.09-.11-.13-.14-.16.2.28.02.02-.08-.11-.14-.23-.21-.35-.3-.58-1.16-.8-1.71-.45-.6.38-.77,1.09-.45,1.71h0Z"/><path class="cls-2" d="M337.62,133.35c-1.18.68-1.99,1.58-2.21,2.78-.08.44-.02.91.03,1.4.21,1.74.98,3.69,2.06,5.43.49.77,1.01,1.54,1.57,2.27.79.87,1.34,1.98,2,3.01.23.29.12.33-.2.2-.31-.15-.98-.31-1.64-.66l-.84-.5c-.28-.17-.49-.41-.73-.61-.47-.43-.92-.88-1.35-1.36-.82-.98-1.48-2.13-2.02-3.34-.62-1.45-1.4-3-1.48-4.81-.04-.98.13-2.02.56-2.95.43-.93,1.09-1.71,1.82-2.3.45-.37.93-.68,1.42-.95.56-.31,1.16-.49,1.76-.58.91-.12,1.86-.07,2.76.33.46.21.85.47,1.24.91.25.34.41.71.3,1.25-.13.56-.62.86-.86.95-.76.33-1.49.39-2.14.43l-1.78.07c-.23.01-.44.07-.63.08-.35.03-.47.03-.63-.09-.16-.1-.34-.26-.61-.49-.13-.11-.28-.19-.4-.29-.22-.17-.32-.39-.24-.72.08-.33.4-.71.91-.96.74-.31,1.44-.4,2.04-.41.52,0,1.05-.01,1.58-.02.44,0,.75-.08.82-.12h0s0,0,0,0h0l.38.82c.03.07.07.14.1.19.06.1.14.18.17.21.1.07.03,0-.12.03-.07.01-.14.04-.14.04l.08-.05.1-.08.03-.03h.02s0-.02,0-.02c-2.1,1.89-.58.52-1.05.95h0s0,0,0,0c-.02-.02-.04-.05-.07-.08-.15-.16-.59-.36-1.11-.36-.25,0-.52.05-.75.12-.24.07-.4.16-.73.37l-.04-.05Z"/><path class="cls-2" d="M328.48,133.64c-.05.05-.1.12-.16.2l-.04.06h0s-.11.2-.11.2h0s0,0,0,0h0s-.04-.04-.04-.04l-.14-.13c-.09-.1-.25-.15-.39-.23-.16-.06-.33-.11-.5-.17l-.58-.09c-.3,0-.59.03-.9.05-1.11.02-2.26.29-3.4.63-.5.16-.99.38-1.45.63-.57.35-1.22.57-1.83.92-.19.1-.18.08-.09-.09.09-.17.22-.54.48-.9.43-.65,1.06-1.06,1.65-1.5.62-.39,1.26-.8,2-.97.87-.22,1.73-.61,2.68-.77,1.03-.15,2.19-.16,3.32.36.18.09.32.15.52.28.21.14.42.35.58.64.15.29.22.67.15.99-.06.33-.22.6-.4.8-.29.31-.56.48-.94.59-.39.12-.71.09-1,.06-.56-.09-1.01-.25-1.45-.38-.68-.2-1.36-.28-1.97-.34-.13,0-.26,0-.38,0-.42-.06-.44-.25-.59-.89l-.11-.44c-.05-.24-.03-.47.09-.66.13-.2.36-.36.64-.42.84-.16,1.55-.03,2.2.1.64.14,1.23.33,1.63.41l.18.03s.03,0,.04,0h.02s0,0,0,.09c0,.13.01.27.04.4.04.16.02.16.05.26.01.04.03.07.05.11h0s0,.02,0,.02h0c.25.53-.33-.72-.27-.59h0s0,0,0,0v.02s.03.04.03.04c.03.06.06.11.1.16.13.2.35.35.47.36.12.02,0-.04-.21.19h0Z"/><path class="cls-2" d="M440.39,109.19c.04.26-.25.38-.71.42-.14.01-.53-.11-.57-.19-.07-.16-.15-.32-.2-.48-.02-.09.05-1.43.04-1.9,0-.45.05-.88.13-1.31l.61-2.55c.05-.19.12-.37.22-.54.34-.59.53-1.23.65-1.89.02-.11.07-.21,0-.35-.1-.22.35-1.96.48-2.17.32-.51.61-1.03.95-1.53.05-.07.04-.17.18-.2.32-.09.33-.27.4-.44.1-.23.25-.45.42-.65.09-.1.26-.18.41-.26.13-.07.46.09.49.14.08.14.27.1.42.14.05.01.12.03.15.04.07.03.44,1.64.38,1.78,0,.02-.08.55-.17,1.11-.1.55-.23,1.12-.24,1.24-.01.13-.11.23-.19.33-.03.05-.35,1.7-.38,1.76-.14.32-.16.68-.48.94-.06.05-.07.12-.09.19-.15.58-.42,1.11-.66,1.66-.12.28-.19.58-.29.87-.02.05-.07.09-.1.14-.04.06-.09.12-.11.18-.19.7-.57,1.33-.75,2.03-.05.16-.54.84-.58,1.02-.03.1-.43.35-.42.45Z"/><path class="cls-2" d="M446.05,112.59c-.11.08-.24-.13-.36-.41-.04-.09-.06-.36-.03-.41.07-.11.13-.22.17-.3.03-.08.68-.34.89-.48.21-.12.42-.18.64-.23l1.31-.33c.1-.02.2-.02.3,0,.35.07.68.01,1.01-.1.05-.02.11-.02.16-.11.07-.15.98-.35,1.11-.29.31.11.62.17.92.25.04.01.09-.03.13.07.11.22.2.17.29.18.13,0,.26.03.39.09.07.03.14.16.22.26.07.09.08.46.06.5-.04.12.02.29.04.44,0,.05.01.12.02.16,0,.1-.66.77-.74.77,0,0-.27.07-.55.14-.28.07-.57.15-.63.17-.06.03-.13-.02-.2-.05-.03-.01-.87.18-.9.18-.18-.02-.35.06-.55-.12-.04-.03-.07-.02-.11-.02-.3.03-.61-.03-.92-.06-.16-.02-.31,0-.47.01-.03,0-.06-.02-.09-.03-.04-.01-.07-.03-.11-.03-.37.03-.74-.04-1.11.03-.08.01-.51-.14-.6-.11-.05.01-.26-.21-.3-.17Z"/><path class="cls-2" d="M58.43,116.17c-.14-.04-.08-.23.08-.5.05-.09.28-.28.33-.29.11,0,.22,0,.32.01.06,0,.67.43.9.57.22.13.39.3.55.48.33.36.67.72.98,1.11.07.08.12.18.16.29.12.37.33.67.57.96.04.05.07.11.16.12.16.02.72.88.74,1.02.04.35.12.67.17,1.01,0,.05.06.08,0,.16-.15.18-.08.25-.05.35.04.13.07.27.05.43,0,.08-.1.19-.17.29-.06.09-.39.19-.44.18-.12-.01-.25.09-.38.15-.04.02-.1.04-.14.06-.09.02-.87-.44-.89-.51,0,0-.14-.24-.28-.49-.15-.24-.3-.49-.35-.54-.04-.05-.03-.13-.03-.2,0-.04-.49-.73-.51-.76-.06-.17-.19-.29-.14-.53.01-.05-.01-.07-.03-.1-.16-.25-.26-.55-.38-.84-.06-.15-.16-.27-.24-.4-.01-.02-.01-.06-.02-.09,0-.04-.01-.08-.03-.11-.21-.3-.36-.66-.62-.93-.06-.06-.18-.49-.26-.56-.04-.04,0-.32-.05-.34Z"/><path class="cls-2" d="M51.37,129.75c-.18.06-.31-.13-.41-.45-.03-.1,0-.4.05-.44.1-.08.21-.16.31-.21.06-.03,1.04-.19,1.37-.27.32-.08.64-.1.96-.11.65-.02,1.3-.08,1.94-.08.14,0,.28.03.42.07.48.16.96.19,1.46.16.08,0,.16.01.25-.07.14-.13,1.47-.1,1.64-.03.41.18.83.3,1.24.48.06.02.13,0,.17.11.11.25.24.23.37.26.18.04.36.1.53.19.09.05.16.19.24.31.07.11,0,.47-.04.5-.09.11-.04.28-.05.44,0,.05,0,.12-.01.16-.02.09-1.12.63-1.23.62-.01,0-.4.02-.82.04-.41,0-.84,0-.93.01-.09.01-.18-.06-.27-.1-.04-.02-1.28,0-1.33-.01-.25-.06-.51-.01-.75-.24-.05-.04-.1-.04-.15-.04-.44-.03-.87-.16-1.29-.27-.22-.06-.44-.08-.66-.12-.04,0-.08-.04-.12-.06-.05-.02-.1-.06-.15-.06-.52-.08-1.04-.25-1.57-.28-.12-.01-.68-.27-.82-.27-.08,0-.31-.26-.39-.24Z"/><path class="cls-2" d="M54.36,144.5c.02.22-.28.14-.8-.07-.16-.07-.59-.38-.62-.46-.06-.16-.12-.33-.14-.47-.02-.09.37-1.04.52-1.38.13-.33.34-.59.57-.84.46-.5.93-1,1.45-1.45.11-.1.25-.18.4-.23.52-.17.93-.46,1.34-.79.07-.05.15-.09.17-.22.02-.23,1.26-.94,1.47-.93.5-.02.96-.08,1.43-.1.07,0,.12-.06.21.03.22.22.33.13.46.11.19-.04.38-.04.58,0,.1.02.23.15.35.25.11.09.17.51.16.57-.04.15.07.33.12.49.02.06.04.13.05.18,0,.11-.67,1.06-.75,1.09-.03,0-1.17.68-1.27.8-.06.06-.16.03-.24.03-.05-.01-.87.66-.9.68-.21.07-.33.27-.65.19-.06-.02-.09.02-.13.04-.29.23-.65.37-.99.55-.17.09-.3.24-.46.36-.03.02-.08.02-.11.03-.05.01-.1.02-.13.05-.33.32-.76.55-1,.95-.06.08-.6.3-.65.42-.03.06-.47.01-.45.1Z"/></svg>