<svg xmlns="http://www.w3.org/2000/svg" width="520" height="520" viewBox="0 0 520 520"><defs><style>.cls-1{fill:#231f20;}</style></defs><title>107. Launch </title><g id="n.107_Launch" data-name="n.107 Launch"><path class="cls-1" d="M430.25,72.59c-1.39.06-2.78.13-4.17.13s-2.77,0-4.16,0c-1,0-2,0-3,0a90.14,90.14,0,0,1-10.62-1.22q-1.17-.21-2.34-.39l-2.33-.48a23.37,23.37,0,0,1-5.75-2c-.56-.29-.34-.55.28-.69a6.39,6.39,0,0,1,2.71.11c1.94.45,3.88.81,5.84,1.22l3,.52c1,.14,2,.29,3,.46,1.2.17,2.44.25,3.68.32l3.75.09,4.11,0c1.37,0,2.75,0,4.12-.11,1.68-.08,3.37-.17,5.05-.34a73.31,73.31,0,0,0,7.59-1.05c1-.17,1.91-.46,2.85-.72s1.86-.55,2.78-.83l1.21-.39c1.51-.48,2.07-.4,2.55-.08a2.1,2.1,0,0,1,.33.22c.26.27-.25.77-1.33,1.39a15.13,15.13,0,0,1-2.52,1.07,27.23,27.23,0,0,1-2.65.85c-1.81.49-3.67.81-5.53,1.14-2.78.4-5.58.69-8.38.86Z"/><path class="cls-1" d="M419.8,136.21a16.89,16.89,0,0,1-1.85.94c-.65.25-1.33.45-2,.64a16.61,16.61,0,0,1-2.08.25l-1.05,0a4.44,4.44,0,0,1-1-.1l-1.47-.26a14.71,14.71,0,0,1-1.46-.49,11.52,11.52,0,0,1-4.07-3.24,16.59,16.59,0,0,1-2.53-4.33,19.6,19.6,0,0,1-1.23-4.22,10.26,10.26,0,0,1,.41-5.62c.22-.56.56-.33.82.23a5.21,5.21,0,0,1,.33,1,5.34,5.34,0,0,1,.16,1.31,18,18,0,0,0,3,9.56,9,9,0,0,0,2.13,2.22,9.1,9.1,0,0,0,2.72,1.31c.52.16,1.1.2,1.65.32s1.12,0,1.68,0,1.11-.16,1.66-.29a13.43,13.43,0,0,0,1.6-.6,14,14,0,0,0,3.55-2.43,23.15,23.15,0,0,0,4.16-5.3A33.4,33.4,0,0,0,427,122.4c.14-.35.29-.7.43-1.06.56-1.32,1.05-1.61,1.66-1.7a2.08,2.08,0,0,1,.41,0c.38,0,.55.71.4,1.82-.21.79-.41,1.6-.68,2.39s-.63,1.55-1,2.33a30.17,30.17,0,0,1-2.66,4.48,21.74,21.74,0,0,1-5.74,5.65Z"/><path class="cls-1" d="M427.12,123.56a21.5,21.5,0,0,1-6.74,9.09,12.54,12.54,0,0,1-3.81,1.92,11.89,11.89,0,0,1-7.39-.24,9.74,9.74,0,0,1-5.34-5,14.17,14.17,0,0,1-1.4-6.23,13.9,13.9,0,0,1,2.13-7.79c.46-.71.66-.42.6.34a26.5,26.5,0,0,1-.66,3.34,14.62,14.62,0,0,0-.07,7.43,4.57,4.57,0,0,0,.27.89c.11.28.19.58.32.86a9.47,9.47,0,0,0,.9,1.58,7.91,7.91,0,0,0,2.61,2.47,8.61,8.61,0,0,0,4.33,1.1,10.36,10.36,0,0,0,4.46-1,13.3,13.3,0,0,0,4.08-3.06,20.91,20.91,0,0,0,2.94-4.35,26.08,26.08,0,0,0,2.23-6.14,21.21,21.21,0,0,0,0-9.8,9.48,9.48,0,0,0-1.5-3.32,4.56,4.56,0,0,0-4-2.1c-.91,0-1.53.15-2,.17a1.78,1.78,0,0,1-1.07-.21,2.73,2.73,0,0,1-.42-.23c-.16-.15-.09-.39.24-.67a4.48,4.48,0,0,1,1.75-.85,6.7,6.7,0,0,1,4.12.12,6.92,6.92,0,0,1,3.3,2.77,15.93,15.93,0,0,1,2.17,7.62,22.81,22.81,0,0,1-.36,5.77,28.94,28.94,0,0,1-1.61,5.5Z"/><path class="cls-1" d="M337.92,164.45c-.69.38-1.38.86-2.08,1.32-.25.17-.47.41-.74.58-.93.59-1.9,1.19-2.92,1.72-.44.25-.9.5-1.33.78s-.58.33-.89.48a2.66,2.66,0,0,1-1,.18c-.22,0-.3-.53-.28-1.08s.12-1.11.38-1.21c.95-.43,1.92-1,3.05-1.49a9,9,0,0,0,1.83-1.35c.67-.52,1.39-1,2.12-1.51.46-.29.92-.59,1.41-.86a15.88,15.88,0,0,1,2.32-1.08,10.13,10.13,0,0,1,2-.66,1.44,1.44,0,0,1,.46-.05.75.75,0,0,1,.6.25,1.32,1.32,0,0,1,.18.61c0,.11,0,.22,0,.31a.93.93,0,0,1-.17.48,1.34,1.34,0,0,1-.42.46c-.91.52-1.63.64-2.51,1.07a14.51,14.51,0,0,0-2,1.1Z"/><path class="cls-1" d="M462.13,170.63c.53.86,1,1.72,1.49,2.57.17.31.4.59.56.89a35.09,35.09,0,0,0,1.8,3.19,6.87,6.87,0,0,0,1,1.18,8.47,8.47,0,0,1,1.45,1.28c.12.17-.16.61-.6.94a1.35,1.35,0,0,1-1.45.24,9.63,9.63,0,0,1-2.88-3.64,25.5,25.5,0,0,0-1.45-2.26l-1.49-2.47c-.31-.49-.63-1-1-1.45a11.05,11.05,0,0,0-1.72-1.94,5,5,0,0,0-.83-.51c-.28-.16-.6-.22-.86-.37l-.38-.15a.61.61,0,0,1-.4-.4,2,2,0,0,1,0-.65c0-.12,0-.23,0-.32a.63.63,0,0,1,.28-.41,1.08,1.08,0,0,1,.67-.25,5.8,5.8,0,0,1,3.83,2,18.62,18.62,0,0,1,1.95,2.46Z"/><path class="cls-1" d="M402.53,229.42c-2.1.12-4.21,0-6.31.07l-3.14-.23c-1.05-.1-2.1-.1-3.14-.29-1.51-.23-3-.36-4.54-.62A86,86,0,0,1,370,223.67c-2.2-.88-4.38-1.84-6.53-2.79-1.36-.64-2.76-1.24-4.06-2a43.49,43.49,0,0,1-3.88-2.35c-1.55-1.05,1.42-1.46,4.53-.09,2.79,1.19,5.47,2.52,8.24,3.71,1.38.59,2.78,1.12,4.16,1.74l4.24,1.63c1.72.55,3.49,1.12,5.3,1.51l2.74.55,1.37.27,1.38.19,3,.44c1,.14,2,.17,3,.26s2,.18,3.06.19l3.06,0h1.89c.63,0,1.25-.11,1.88-.16l3.76-.35,5.64-1c1.85-.44,3.68-1,5.49-1.54.36-.11.71-.21,1.06-.34l1-.42,2-.87,2-.89,1-.44,1-.52c.56-.31,1.1-.63,1.68-.93a9.11,9.11,0,0,1,2.37-.93,2.13,2.13,0,0,1,1.33.09,2.7,2.7,0,0,1,.51.21c.42.29-.26,1.1-1.75,2.14-1.14.73-2.32,1.41-3.52,2.08s-2.52,1.15-3.8,1.71l-1.95.81a14.47,14.47,0,0,1-2,.72l-4.11,1.21c-.51.14-1,.32-1.53.42l-1.57.3-3.14.6a28,28,0,0,1-3.17.41l-3.18.31Z"/><path class="cls-1" d="M218.45,300a6.44,6.44,0,0,0,.38-2.66,13,13,0,0,0-.57-2.88c-.2-.7-.51-1.38-.76-2.08a48.21,48.21,0,0,0-3.5-7.1,29.32,29.32,0,0,0-2-2.9c-.91-1.19-1.92-2.3-2.91-3.41-.31-.35-.11-.48.35-.38a3.91,3.91,0,0,1,1.78,1.11,36.44,36.44,0,0,1,5.43,7.72c.84,1.69,1.79,3.41,2.5,5.23a21.31,21.31,0,0,1,1,3.09,9,9,0,0,1,.16,3.35,8,8,0,0,1-1.73,3.73,13.32,13.32,0,0,1-4.95,3.46,24,24,0,0,1-4.34,1.51l-1,.21c-1.26.16-1.69,0-2-.37a1.06,1.06,0,0,1-.18-.27c-.11-.33.37-.58,1.21-.76a24.48,24.48,0,0,0,7.37-2.61,8.33,8.33,0,0,0,3.73-4Z"/><path class="cls-1" d="M289.93,318.57A9.37,9.37,0,0,0,289,316c-.16-.3-.37-.56-.55-.84a13.11,13.11,0,0,0-2.45-2.8,15.42,15.42,0,0,0-1.37-1,9.24,9.24,0,0,1-1.74-1.39c-.31-.35.9-1,1.6-.51a18.79,18.79,0,0,1,3.6,2.85,26.41,26.41,0,0,1,2,2.19,11.71,11.71,0,0,1,1.36,3,19.42,19.42,0,0,1,.44,1.91c.18,1,.26,1.95.36,2.9,0,.74.26,1.47.26,2.2a2.68,2.68,0,0,1,0,.49c-.07.6-.24.8-.53.93l-.2.08c-.2.06-.42-.18-.62-.61a16.23,16.23,0,0,1-.88-3.88c0-.48-.1-1-.18-1.43a10.35,10.35,0,0,0-.27-1.39Z"/><path class="cls-1" d="M260.23,224.67c11.25-5.16,16.67-16.93,13.26-28.24-5.91-19.63-52.09-25.32-62.58,23.06C210.52,221.29,225,240.85,260.23,224.67Z"/><path class="cls-1" d="M215.17,238c-13.12,3.53-7.23,16.26-7.23,16.26-2.32,3.28-19.08,5.1-27-7.8-4.57-7.41-5-17.67,4.61-23.74C202.44,212,219.48,223.83,215.17,238Z"/><path class="cls-1" d="M257.44,244.28l-.06-.8c0-.1-.07-.17-.08-.26,0-.34,0-.67-.05-1a.88.88,0,0,0-.14-.38c-.08-.14-.23-.26-.15-.48s1.3-.59,1.44-.41a1.55,1.55,0,0,1,.31,1.06c0,.24.15.41.22.61l.2.68c0,.13.08.28.13.4a1.69,1.69,0,0,0,.26.58c.1.12.33.15.45.23l.09,0c.08.07,0,.19-.38.55l-.25.24a1.21,1.21,0,0,1-.77.42,1.06,1.06,0,0,1-.68-.22,1.71,1.71,0,0,1-.34-.47,3.78,3.78,0,0,1-.24-.79Z"/><path class="cls-1" d="M256.94,277.07a23.57,23.57,0,0,0,8.91-9,22.28,22.28,0,0,0,1.69-4.35,30.52,30.52,0,0,0-.39-16.67,35.84,35.84,0,0,0-2.85-7,44,44,0,0,0-2.52-4.12,22.55,22.55,0,0,0-2.91-3.56c-.31-.24-.37-.34-.37-.51s.26-.38.82-.36a6,6,0,0,1,4.14,2.48,25.82,25.82,0,0,1,2.86,4.44,40.27,40.27,0,0,1,2.15,4.79,37.34,37.34,0,0,1,2.29,10.26,31.31,31.31,0,0,1-1.34,12.84,24.58,24.58,0,0,1-8.51,11.31,35,35,0,0,1-7.54,4.28,48.63,48.63,0,0,1-12.62,3c-3.3.42-6.54.77-9.83.9-.72,0-1.43.07-2.16.06a10.58,10.58,0,0,1-2.86-.29,3.14,3.14,0,0,1-.75-.31,2.71,2.71,0,0,1-.49-.46c-.12-.15-.29-.28-.36-.4-.24-.33.88-.93,2.82-1.09,5.76-.47,11.79-.64,17.62-1.77a40.63,40.63,0,0,0,6.32-1.72A32.47,32.47,0,0,0,256.9,277Z"/><path class="cls-1" d="M275.35,239.1a4.57,4.57,0,0,1,1.14,1.94,3.45,3.45,0,0,1-.19,2.3,6.09,6.09,0,0,1-.59,1.17,15.94,15.94,0,0,1-2.84,2.75c-.44.35-.84.74-1.25,1.11a5,5,0,0,1-1.74,1.26c-.23.07-.46-.34-.58-.83s-.15-1.05.13-1.3c1-.89,2-1.78,3.06-2.59a5.24,5.24,0,0,0,1.36-1.84,1.87,1.87,0,0,0,.28-.86.93.93,0,0,0-.25-.66,3.81,3.81,0,0,0-1.05-.89,8.88,8.88,0,0,0-2.27-1,9.94,9.94,0,0,0-2-.19l-.42-.06c-.52-.12-.65-.39-.71-.93,0-.13,0-.25,0-.37a1,1,0,0,1,.72-.93,9.77,9.77,0,0,1,1-.27,9,9,0,0,1,1,0,7.59,7.59,0,0,1,2.09.37,8.38,8.38,0,0,1,3.07,1.77Z"/><path class="cls-1" d="M264.9,179.27a29.37,29.37,0,0,1,6.71,4.22,20.42,20.42,0,0,1,5.08,6.21,17.48,17.48,0,0,1,1.45,3.82,15.79,15.79,0,0,1,.39,2,16,16,0,0,1,.25,2,24.79,24.79,0,0,1-.44,7.87,25.83,25.83,0,0,1-4.75,10.4c-4.07,5.41-9.82,9.15-15.87,11.7a55.63,55.63,0,0,1-9.44,2.81,59.28,59.28,0,0,1-9.77,1l-2.18,0a19.89,19.89,0,0,1-2.18-.11l-2.18-.18-2.16-.32c-1.45-.17-2.85-.58-4.27-.88l-2.09-.64-1-.32-1-.4a27.63,27.63,0,0,1-3.11-1.36l-1.52-.76c-.3-.15-.43-.25-.64-.37l-.33-.2-.17-.09-.08,0s0,.06,0,.08l.2.76c.05.15.42,1.88.58,3.07a17.55,17.55,0,0,1-.32,7.88c-.43,1.17-.91,1.53-1,1.41s0-.72.08-1.67c.19-1.89-.29-5.22-1.2-9.2l-.18-.79-.35-1.39-.37-1.41a1.75,1.75,0,0,1,0-1,.69.69,0,0,1,.17-.25.45.45,0,0,1,.25-.07l.22,0h.06s-.33-.47-.17-.25h1.6l2.06,1.26.57.34.27.13.52.25c.71.33,1.39.71,2.12,1l2.18.84c.73.28,1.5.46,2.24.7a44.69,44.69,0,0,0,9.28,1.65,51.83,51.83,0,0,0,18.86-2.1,38.72,38.72,0,0,0,11.87-5.87,34.62,34.62,0,0,0,5-4.48,28.53,28.53,0,0,0,3.79-5.42,23.38,23.38,0,0,0,2.49-14,23.1,23.1,0,0,0-.74-3.52,10,10,0,0,0-.63-1.65,10.23,10.23,0,0,0-.83-1.57,19.84,19.84,0,0,0-4.81-5.33,29.75,29.75,0,0,0-16.82-5.86A34.29,34.29,0,0,0,239,181.13a36,36,0,0,0-11.58,7.33,44.56,44.56,0,0,0-3.66,3.87,49.56,49.56,0,0,0-3.08,4.3,61.66,61.66,0,0,0-4.93,9.34l-1.66,4.35c-1.89,5.52-2.42,7.31-3.27,8.4a6,6,0,0,1-.55.73c-.26.24-.32-.25-.21-1.33.06-.55.15-1.24.29-2.06a25.11,25.11,0,0,1,.59-2.85,61.92,61.92,0,0,1,7.88-18.44c.24-.36.46-.73.72-1.08l.78-1c.53-.69,1-1.4,1.6-2.07a50,50,0,0,1,3.62-3.81,44.15,44.15,0,0,1,4.07-3.4l2.22-1.47c.74-.5,1.55-.88,2.32-1.32a36.37,36.37,0,0,1,15.22-4.21,38.42,38.42,0,0,1,7.94.52,36.49,36.49,0,0,1,7.63,2.31Z"/><path class="cls-1" d="M181.22,226.46a18.71,18.71,0,0,0-2.59,12.17,18.47,18.47,0,0,0,1.33,4.42,22.28,22.28,0,0,0,11.6,11.48,20,20,0,0,0,7.32,1.38,20.2,20.2,0,0,0,4.72-.59,12,12,0,0,0,4.19-1.74c.34-.26.53-.33.7-.21s.22.47,0,1a5.82,5.82,0,0,1-3.74,3.07,21.89,21.89,0,0,1-20.34-4.57,29.41,29.41,0,0,1-4.36-4.82,21,21,0,0,1-3.07-5.85,20.39,20.39,0,0,1,.7-14.17,20.93,20.93,0,0,1,5-7.19,18.41,18.41,0,0,1,5.57-3.61,28.31,28.31,0,0,1,6.31-1.79,32.75,32.75,0,0,1,5-.44,22.85,22.85,0,0,1,5,.56,18.73,18.73,0,0,1,2.17.67c2.66,1.13,3.23,2.06,3.3,2.85a1.76,1.76,0,0,1,0,.55c0,.24-.36.27-.83.12a5.83,5.83,0,0,1-.81-.36c-.33-.14-.71-.3-1.11-.5-4.92-2.17-11.12-2-16.56-.12a17.69,17.69,0,0,0-5.51,3,18,18,0,0,0-4.1,4.77Z"/><path class="cls-1" d="M210.16,257.35a13.23,13.23,0,0,1-4.42-6.92,10.35,10.35,0,0,1-.38-3,12.24,12.24,0,0,1,.16-1.34,6.71,6.71,0,0,1,.35-1.33,8.81,8.81,0,0,1,1.33-2.39,13.23,13.23,0,0,1,3.91-3.37,13.55,13.55,0,0,1,4.26-1.66,10.6,10.6,0,0,1,1.5-.18,6.79,6.79,0,0,1,1.55.15,5,5,0,0,1,1.46.58,4.1,4.1,0,0,1,.66.42c.2.18.38.36.56.54.46.47,0,.73-.68.85a9.64,9.64,0,0,1-2.29.09,7.22,7.22,0,0,0-2.14-.09,9.57,9.57,0,0,0-2.27.61,13.25,13.25,0,0,0-4.18,2.66,5.9,5.9,0,0,0-1.6,2.45,8.3,8.3,0,0,0-.33,3,9.87,9.87,0,0,0,2.85,6.12A12,12,0,0,0,214,257a9.83,9.83,0,0,0,6.39.89,21.6,21.6,0,0,0,4.81-1.93c.35-.16.69-.35,1.06-.51,1.37-.58,1.91-.55,2.41-.13a2.51,2.51,0,0,1,.34.3c.29.37-.13.94-1,1.54a25.59,25.59,0,0,1-4.45,2.35,12.82,12.82,0,0,1-13.38-2.14Z"/><path class="cls-1" d="M215,300.17a5.39,5.39,0,0,0,.49-2.78,16.86,16.86,0,0,0-.46-3.24c-.18-.8-.45-1.57-.69-2.35a50.8,50.8,0,0,0-3.43-8.11,34.56,34.56,0,0,0-2.08-3.34c-1-1.38-2-2.69-2.91-4.11-.28-.45,0-.61.57-.47a3.9,3.9,0,0,1,2,1.35,44.4,44.4,0,0,1,5.61,8.92c.84,1.95,1.83,3.92,2.51,6a27.57,27.57,0,0,1,.87,3.53,10.61,10.61,0,0,1,.09,3.78,8.64,8.64,0,0,1-2.18,4.18,18.42,18.42,0,0,1-5.58,3.87,25.26,25.26,0,0,1-4.87,1.83c-.38.08-.76.17-1.15.24-1.46.15-2-.09-2.23-.69a2.9,2.9,0,0,1-.16-.41c-.07-.47.49-.78,1.38-1a25.65,25.65,0,0,0,8-3c.47-.25.88-.59,1.32-.88a14.55,14.55,0,0,0,1.18-1,7.11,7.11,0,0,0,1.72-2.36Z"/><path class="cls-1" d="M77.23,478.25c-1.71,0-3.43-.06-5.14-.13s-3.44-.19-5.15-.44a53.31,53.31,0,0,1-10.19-2.09c-.83-.3-1.67-.57-2.49-.9l-2.92-1.41-.13-.07s0-.09,0-.14l-.06-.29-.12-.55-.18-.82-.27-1.28c-.17-.85-.41-1.7-.51-2.54-.24-1.7-.5-3.39-.72-5.09l-.52-5.08c-.56-6.77-.95-13.54-1.11-20.31s-.24-13.54-.23-20.31c0-9.87.23-19.75.71-29.61.45-8.69,1-17.38,2.17-26.06a71.93,71.93,0,0,1,8.12-25A53.32,53.32,0,0,1,62,330.55c.63-.91,1.34-1.76,2-2.63.37-.42.77-.85,1.17-1.26l1.27-1.14a69.5,69.5,0,0,1,11.14-7.07c7.73-4.08,15.73-7.54,23.78-10.83,14.31-5.8,28.93-11,43.54-15.63,9.41-2.88,18.86-5.63,28.31-8.38s19-5.3,28.31-8.23c2.91-.93,4.09-1.4,4.08-1.23s-.33.32-.94.68-1.56.8-2.76,1.31c-4.8,2-13.84,5.19-24.68,8.45-9.62,2.85-19.25,5.66-28.84,8.57s-19,6.19-28.45,9.65S101.22,309.91,92,314c-4.58,2-9.13,4.15-13.55,6.49-2.21,1.17-4.38,2.41-6.47,3.73a31.63,31.63,0,0,0-5.74,4.46,53.49,53.49,0,0,0-9.21,15.25,72.68,72.68,0,0,0-4.59,17.65c-.84,6.09-1.27,12.3-1.65,18.49-.18,3.09-.35,6.19-.46,9.29s-.23,6.19-.33,9.28c-.4,13.58-.41,27.18,0,40.75.08,3.4.31,6.78.46,10.17s.45,6.77.85,10.13c.16,1.69.34,3.37.61,5s.46,3.35.86,5l.26,1.23.11.48c0,.1,0,.21.09.26l1.9.91a35.67,35.67,0,0,0,4.73,1.5c8,1.94,16.43,2.1,24.69,1.52a92.48,92.48,0,0,0,12.29-1.84,42.33,42.33,0,0,0,11.44-4.26l.29-.16s.1,0,.12-.08V469l0-.88c0-.79.07-1.58.08-2.37,0-1.57.08-3.15.07-4.74,0-3.16,0-6.32-.13-9.49-.2-6.33-.56-12.66-1-19S106.73,420,106,413.67s-1.67-12.51-2.24-18.82c-.47-5-.78-10-.94-15q-.12-3.74-.11-7.46c0-1.24,0-2.47.06-3.71l.09-1.87a4.35,4.35,0,0,1,.19-1.3c.09-.2.24-.32.28-.54l.55-.32,1.92-.71c.55-.2,1.09-.41,1.63-.64,1.09-.47,2.17-.9,3.25-1.39l3.2-1.46,3.18-1.53q6.33-3.1,12.55-6.45l11.18-6.05c14-7.62,18.57-9.83,21.87-10.9.76-.24,1.73-.59,2.19-.68.78-.15-.25.56-2.73,2s-6.37,3.8-11.43,6.7c-7.23,4.13-14.57,8.32-22.12,12.33-3.78,2-7.59,4-11.5,5.88-1.94,1-3.93,1.85-5.92,2.76l-3,1.28c-.5.22-1,.4-1.55.6s-1.29.48-1.07.41c0,0,0,0,0,.11l-.09,1.64c0,1.15-.06,2.3-.08,3.46,0,2.31,0,4.64.06,7q.18,7,.78,14c.39,4.69,1,9.29,1.61,14s1.12,9.45,1.59,14.19q1,10.19,1.57,20.43c.38,6.83.61,13.67.55,20.55q0,2.56-.12,5.16l-.06,1.29,0,1.12,0,.63v.16c0,.06,0,.11-.06.12l-.28.16-2.94,1.65a50,50,0,0,1-10,3.47,94.29,94.29,0,0,1-20.66,2.32Z"/><path class="cls-1" d="M226.43,324.54c-1.82-.59-3.62-1.21-5.4-1.89-.65-.24-1.31-.45-1.95-.71a69.4,69.4,0,0,1-6.63-3.16l-2.86-1.53-1.81-1a18,18,0,0,1-1.69-1.21c-.33-.27-.11-.49.36-.56a3.15,3.15,0,0,1,1.89.36c2.42,1.31,4.93,2.39,7.38,3.72a37,37,0,0,0,4.73,1.88c1.76.64,3.54,1.24,5.34,1.78,1.11.33,2.22.66,3.34,1,1.69.44,3.41.88,5.12,1.19,1.34.24,2.67.33,4,.47.29,0,.58.06.87.11,1.09.18,1.41.39,1.56.95a1.78,1.78,0,0,1,.1.38c0,.41-.46.68-1.29.7-.61,0-1.23,0-1.86,0s-1.25-.12-1.87-.21c-1.26-.18-2.52-.42-3.78-.7-1.87-.4-3.73-.9-5.57-1.44Z"/><path class="cls-1" d="M234.17,353l1.89,0c.62,0,1.25-.07,1.87-.1s1.25-.08,1.86-.17,1.23-.14,1.85-.26a52,52,0,0,0,7.3-1.84,97.51,97.51,0,0,0,14-6c3.32-1.71,6.53-3.62,9.72-5.56a165.71,165.71,0,0,0,16.25-11.17l.45-.38a1.26,1.26,0,0,0,.2-.19l.19-.9a11.82,11.82,0,0,0-.86-6.78,21.9,21.9,0,0,0-5.9-7.44c-.54-.45-1.15-1-1.64-1.33-.14-.1-.28-.27-.46-.14l-.78.35-4,1.9c-2.66,1.27-5.31,2.54-8,3.73-3.43,1.53-6.9,3-10.46,4.3-1.79.64-3.59,1.22-5.44,1.69a22.94,22.94,0,0,1-5.7.82c-1.24,0-1.77-.34-1.69-.46s.68-.17,1.64-.37a72.49,72.49,0,0,0,9.27-3c7.1-2.61,13.94-6,20.86-9.24l2.62-1.24.75-.33c.21-.1.42-.18.64-.26s.21,0,.32-.08a1.07,1.07,0,0,1,.31.06l.07,0h.06c0,.08,0-.11,0-.09l.15.07.29.12a2.71,2.71,0,0,1,.56.37l.69.54a33.61,33.61,0,0,1,4.36,4.09,19.54,19.54,0,0,1,3.33,5.15,14.07,14.07,0,0,1,1.15,6.15c-.06.62-.1,1.25-.22,1.87l-.22,1a2,2,0,0,1-.12.34c-.12.08-.14.21-.23.29s-.36.42-.46.5c-.94.8-1.87,1.51-2.81,2.23-1.89,1.42-3.82,2.81-5.77,4.17-3.92,2.72-7.93,5.33-12.05,7.7a128.38,128.38,0,0,1-14,7.1A63.71,63.71,0,0,1,241,354.72a62,62,0,0,1-19.33-.82c-9.61-1.8-18.85-5.14-27.73-8.81-6.92-2.83-13.72-5.59-20.43-8.73-1.48-.69-2.92-1.39-4.38-2.15a48.21,48.21,0,0,1-5.6-3.27,11.61,11.61,0,0,1-2.23-1.89c-.2-.24-.49-.52-.59-.68-.35-.56,1.91.48,5.94,2.32,3,1.45,6,2.78,9.05,4.19s6.17,2.76,9.32,4.1,6.34,2.67,9.55,4,6.41,2.59,9.67,3.75A123.45,123.45,0,0,0,219,351.07a70.65,70.65,0,0,0,15.15,1.82Z"/><path class="cls-1" d="M300.61,289.06a29,29,0,0,1,6.16-5,13.34,13.34,0,0,1,2.8-1.25,9.42,9.42,0,0,1,2.75-.32,5.67,5.67,0,0,1,.88.13c.25.09.51.18.73.28l.64.34.57.37a19,19,0,0,1,3.67,3.55,22.59,22.59,0,0,1,1.37,1.81,5.73,5.73,0,0,1,.6,1.07,2.85,2.85,0,0,1,.18.71l.06.51c.12.86.35,1.77.42,2.76a6.5,6.5,0,0,1-.48,2.92c-.26.56-.49.36-.68-.18s-.47-1.39-.67-2.28-.34-1.66-.54-2.64c0-.25-.09-.5-.13-.76l0-.19v0h0l.5-.05h-.24l-.19,0-.09,0s0,0,0-.09a6.54,6.54,0,0,0-.56-.94,24,24,0,0,0-3.6-3.81,4.39,4.39,0,0,0-2.35-1.24,8.75,8.75,0,0,0-2.95.65,19.12,19.12,0,0,0-5.86,4.15c-1.1,1.06-2.16,2.19-3.19,3.36l-4.69,5.36a48.44,48.44,0,0,1-3.79,4.09c-.32.28-.62.56-1,.82-1.32.91-2,.87-2.48.5a2.12,2.12,0,0,1-.35-.26c-.3-.35.09-.91.82-1.62a65.76,65.76,0,0,0,6.59-7c1.63-1.91,3.29-3.87,5.09-5.78Z"/><path class="cls-1" d="M317.08,299.61a22.36,22.36,0,0,0-.52-3.51c0-.13-.07-.26-.11-.38a.67.67,0,0,0-.06-.15l-.19-.22A22.17,22.17,0,0,0,313,292a8.48,8.48,0,0,0-1.72-1c-.78-.35-1.58-.51-2.32-.86-.22-.12-.14-.67.2-1.14a1.48,1.48,0,0,1,1.57-.69,11.29,11.29,0,0,1,4.94,3.45c.38.44.79.86,1.2,1.28l.62.63c.22.24.34.37.68.79l0,0a6.06,6.06,0,0,1,.36,1.14c.08.32.14.63.2.95.13.63.23,1.27.31,1.92a17.46,17.46,0,0,1,.16,2.42,4.25,4.25,0,0,1-.53,2.2,2.67,2.67,0,0,1-1.86,1,3.82,3.82,0,0,1-3-1.22,3.54,3.54,0,0,1-.47-.48c-.52-.66-.46-1-.06-1.38a1.92,1.92,0,0,1,.29-.28.89.89,0,0,1,1.17.16,5,5,0,0,0,1.47,1.06.73.73,0,0,0,.43.06.6.6,0,0,0,.3-.13h0a2.38,2.38,0,0,0,.13-.82,9.39,9.39,0,0,0-.06-1.48Z"/><path class="cls-1" d="M304.76,305.9a27.74,27.74,0,0,0,1.79-2.64l.21-.34.35-.61a10.6,10.6,0,0,1,.75-1.25,1.75,1.75,0,0,1,.81-.6.56.56,0,0,1,.23,0l.2.07.41.14.68.7.67.83.87,1,.24.28.07.08a.69.69,0,0,0,.17.17.3.3,0,0,0,.46,0,.79.79,0,0,0,.11-.42s0-.08,0-.13l0-.27c0-.2,0-.41-.06-.62a18,18,0,0,0-.47-2.48,10,10,0,0,0-.45-1.4c-.22-.51-.27-.7-.54-.76s-.45-.19-.65-.29a23.1,23.1,0,0,1-4.3-2.32c-.82-.62,1.3-1.79,2.93-.93,1,.52,2,1.05,3,1.54a2.7,2.7,0,0,1,1.15,1c.13.26.22.42.28.57l.17.44a15.93,15.93,0,0,1,.48,1.69,16.87,16.87,0,0,1,.47,3.43c0,.14,0,.43,0,.69l0,.78-.17.69c-.11.2-.2.39-.33.6a1.89,1.89,0,0,1-1.3.68,2.4,2.4,0,0,1-1.46-.46,4.72,4.72,0,0,1-.68-.52c-.11-.09-.23-.22-.32-.31l-.2-.21c-.26-.27-.5-.56-.73-.84s-.24-.33-.37-.52l-.09-.14s-.07.05-.1.07l-.16.25-.18.27-.39.66c-.29.49-.6,1-.92,1.45a19.94,19.94,0,0,1-2.72,3.32,9.45,9.45,0,0,1-2.76,1.91,6.06,6.06,0,0,1-3.42.44l-.33-.07a1.37,1.37,0,0,0-.22.2l-.29.28-.72.73c-.48.49-.94,1-1.4,1.49l-.66.78c-.85.94-1.19,1.15-1.81,1a2.58,2.58,0,0,1-.42-.1c-.43-.17-.38-.84.2-1.67a22.11,22.11,0,0,1,2-2.38l1.1-1.1.58-.54,1.16-1,.67.18.35.09.19,0h.06a2.81,2.81,0,0,0,.5,0,3.74,3.74,0,0,0,1-.13,9.16,9.16,0,0,0,4.37-3.57Z"/><path class="cls-1" d="M334.79,262c-8,6.6-15.36,14-23.36,20.63-1.36,1.13.59,3.06,1.95,1.94,8-6.63,15.34-14,23.36-20.63,1.37-1.12-.59-3.06-1.95-1.94Z"/><path class="cls-1" d="M345.84,257.1a9.79,9.79,0,0,0,.93-.69,2.66,2.66,0,0,0,.49-.53.23.23,0,0,0,0-.2.4.4,0,0,0-.07-.12l-.14-.15c-.07,0-.14-.11-.13-.12a.36.36,0,0,0-.4,0,5.75,5.75,0,0,0-1.28.7c-.43.29-.87.63-1.34,1a8.48,8.48,0,0,1-1.66,1,2.89,2.89,0,0,1-1.78.23,2.17,2.17,0,0,1-1-.53,3.68,3.68,0,0,1-.32-.37l-.23-.37a3.7,3.7,0,0,1-.31-1.76,9.27,9.27,0,0,1,.15-1.36l.46-2.41a6.55,6.55,0,0,0,.08-2.09,1,1,0,0,0-1-.93,1.83,1.83,0,0,0-1.68.69,6.21,6.21,0,0,0-1.11,2,14.94,14.94,0,0,0-.63,3.07,14.41,14.41,0,0,0-.09,3.06c.07.53-.36.77-1,.29a4,4,0,0,1-1.3-3.16,12,12,0,0,1,.71-3.73,7.85,7.85,0,0,1,2.29-3.53,4.77,4.77,0,0,1,1.1-.65,3.78,3.78,0,0,1,1.32-.26l.66,0a4.77,4.77,0,0,1,.65.17,3.31,3.31,0,0,1,1.27.71,3.59,3.59,0,0,1,1,2.41,8.43,8.43,0,0,1-.13,2c-.15.88-.32,1.71-.44,2.51a9.79,9.79,0,0,0-.1,1.14,2.08,2.08,0,0,0,.09.7s.07.09.08.09,0,0,0,.07,0,.06,0,.08h0a1.08,1.08,0,0,0,0-.18.25.25,0,0,0,.1,0,4.66,4.66,0,0,0,1.11-.64c.73-.51,1.47-1.13,2.36-1.7a5.65,5.65,0,0,1,1.65-.74,2.64,2.64,0,0,1,2.17.4,4.28,4.28,0,0,1,.91.85,2.8,2.8,0,0,1,.63,1.25,2.85,2.85,0,0,1-.09,1.39,3.87,3.87,0,0,1-.61,1.11,9.82,9.82,0,0,1-2.08,1.85l-.27.19-.13.09-.07,0-.26.16-.56.34-.32.22-.22.19a.17.17,0,0,0,0,.25,1.69,1.69,0,0,0,.48.25l1.09.39c.27.1.68.24,1,.39l.28.12c.11,0,.23.11.34.16a4.73,4.73,0,0,1,.66.38,2.88,2.88,0,0,1,1.45,2.35s0,.08,0,.12a2.85,2.85,0,0,1-1,1.95,3.73,3.73,0,0,1-1,.6,5.12,5.12,0,0,1-1.14.39,23.53,23.53,0,0,1-3.46.51l-1.41.15c-1.74.15-2,.08-2.65-.65a5.29,5.29,0,0,0-.44-.34c-.2-.19-.19-.43.08-.92a1.32,1.32,0,0,1,.64-.59,4.18,4.18,0,0,1,1-.4c1.64-.39,3.21-.49,4.6-.69.36-.05.66-.12,1-.18s.12,0,.14-.06l0,0s0-.06,0-.07,0,0,0,0-.37-.18-.58-.26l-.33-.13c-.16-.08-.47-.18-.7-.26a13.72,13.72,0,0,1-2.74-1.09,2.24,2.24,0,0,1-.54-3.42,26,26,0,0,1,3.79-2.72Z"/><path class="cls-1" d="M123.37,275a77.74,77.74,0,0,1,6.1-5.3,26.75,26.75,0,0,1,3.46-2.32,8,8,0,0,1,1-.49,6.89,6.89,0,0,1,1.06-.42,5,5,0,0,1,1.06-.25l1-.19a33.43,33.43,0,0,1,6-.63,63.29,63.29,0,0,1,20.24,4.22c2.88,1,5.72,2.12,8.51,3.25,3.59,1.39,7.13,3.09,10.53,4.59,1,.34,1,.49-.11.63a12.79,12.79,0,0,1-2.25-.06,15.23,15.23,0,0,1-3-.73c-1.88-.63-3.69-1.39-5.5-2.13s-3.62-1.47-5.45-2.14a110.67,110.67,0,0,0-11.05-3.78,42.12,42.12,0,0,0-14.05-1.5A17.34,17.34,0,0,0,139,268l-1.9.35-.95.17c-.31.06-.55.17-.83.25l-.83.37-.82.46a44,44,0,0,0-6.18,4.77c-2.42,2.18-4.76,4.47-7,6.82-3.46,3.55-6.86,7.21-10.15,10.89-2.55,2.86-5,5.76-7.48,8.61-.56.63-1.1,1.25-1.68,1.87-2.22,2.23-3.12,2.79-4,2.81a2.32,2.32,0,0,1-.59,0c-.5-.14.22-1.2,1.69-2.92,4.36-5.09,9.06-10.49,13.91-15.8,3.6-3.94,7.31-7.85,11.19-11.6Z"/><path class="cls-1" d="M134,290.16c1.19-1.41,2.25-2.92,3.62-4.39a6.25,6.25,0,0,1,1.92-1.53,2.6,2.6,0,0,1,1.41-.23l.38.07.23.07.43.14c.56.18,1.12.35,1.69.5a20.48,20.48,0,0,0,3.41.62c1,.09,2.13.1,3.2.14a18.87,18.87,0,0,1,4.09.53c.42.1.34.33,0,.57a4.22,4.22,0,0,1-1.84.6,40.67,40.67,0,0,1-4.13.09,15.5,15.5,0,0,1-4.33-.52l-2.54-.67-.63-.17h-.23a1.89,1.89,0,0,0-.71.39,13.51,13.51,0,0,0-1.81,1.87l-1.8,2.17c-.75.9-1.5,1.8-2.28,2.68a42.23,42.23,0,0,1-3.82,3.75,26.66,26.66,0,0,1-3.23,2.58,7.57,7.57,0,0,1-.76.49,2.58,2.58,0,0,1-1.14.43,1,1,0,0,1-.67-.17,1.67,1.67,0,0,1-.26-.17c-.21-.21.08-.65.68-1.18.94-.7,1.84-1.48,2.75-2.24s1.83-1.54,2.7-2.39a44.6,44.6,0,0,0,3.68-4.05Z"/><path class="cls-1" d="M97.87,496.64a48.1,48.1,0,0,0,14.72-1.56,14.7,14.7,0,0,0,2.42-1l.64-.31.66-.3c.42-.19.81-.36,1.15-.54a3.56,3.56,0,0,0,.67-.43.45.45,0,0,0,.12-.3c0-.18-.17-.56-.72-.87a15.66,15.66,0,0,0-4.37-1.18,53.25,53.25,0,0,0-9.66-.48c-2.91.06-5.83.26-8.73.46-1.86.12-3.72.26-5.61.31a20.22,20.22,0,0,1-5.71-.45c-1.21-.45-.86-.65.15-.88.5-.14,1.18-.29,2-.48a15,15,0,0,1,2.82-.37c3.74-.18,7.53-.5,11.35-.68a76.56,76.56,0,0,1,11.62.11c.59.07,1.18.12,1.78.24l.91.15.84.15a12.8,12.8,0,0,1,3.72,1.09,3.79,3.79,0,0,1,1.73,1.78,2.7,2.7,0,0,1-.23,2.79,4.89,4.89,0,0,1-1.78,1.46c-.57.31-1.12.56-1.6.79a26.71,26.71,0,0,1-7.67,2.4,54.73,54.73,0,0,1-7.85.75,90.68,90.68,0,0,1-9.62-.26c-2.42-.2-4.84-.48-7.24-.88-1.2-.19-2.4-.42-3.59-.7q-.9-.21-1.8-.48c-.31-.11-.61-.2-.92-.34a3,3,0,0,1-1-.69.72.72,0,0,1-.18-.21,4.49,4.49,0,0,1-.51-1.72,14.55,14.55,0,0,1-.07-1.46c0-.93.07-1.89,0-2.69,0-1.88.11-3.68.21-5.46,0-.8,0-1.58.08-2.37.08-2.91,0-3.71.62-4.47a3.2,3.2,0,0,1,.39-.52c.44-.45,1.32.75,1.54,3.12a60.06,60.06,0,0,1-.06,7.6c0,.61,0,1.22,0,1.81v1l0,1c0,.61,0,1.2,0,1.73a4.41,4.41,0,0,0,.09.71c0,.12,0,.06,0,.08h0l.16.06c.32.12.69.23,1.07.34.78.21,1.6.4,2.43.56a86.45,86.45,0,0,0,15,1.5Z"/><path class="cls-1" d="M88.93,481.86c0,.62-.08,1.24-.1,1.87,0,.23.06.45.06.68a19.55,19.55,0,0,0,0,2.42,4.24,4.24,0,0,0,.26,1,2.82,2.82,0,0,1,.39,1.26c0,.15-.48.35-1,.43s-1.06,0-1.18-.26a6.49,6.49,0,0,1-.55-3,10.91,10.91,0,0,0-.21-1.81,19.17,19.17,0,0,1-.06-2c0-.41,0-.83,0-1.23,0-.62.08-1.24,0-1.86s-.17-.95-.19-1.44c0-.11-.06-.22,0-.33.13-.39.33-.49.82-.51h.34a1.12,1.12,0,0,1,.85.5A4,4,0,0,1,89,480l0,1.85Z"/><path class="cls-1" d="M124.14,301s-5.79,29.59,16.23,49.25c0,0-29.57,13.6-34.44,15.44-3.23,1.22-.16,53.38,1.44,57.95s6.93,45.09,5.21,46.1-41.25,14.55-60.51,1c0,0-4-30.65-3-76.76,0,0-.79-47.4,14.39-63.72C63.48,330.18,69.5,314.48,124.14,301Z"/><path class="cls-1" d="M98.67,481.93a8.91,8.91,0,0,0,0,1.36c0,.17.1.32.11.5l.18,1.88a3.67,3.67,0,0,0,.23.8,1.57,1.57,0,0,1,.24,1.07c0,.25-1.79.47-2,.14a4,4,0,0,1-.59-2.08,4.92,4.92,0,0,0-.32-1.35,15.43,15.43,0,0,1-.22-1.54c0-.33,0-.65-.07-1,0-.49,0-1,0-1.5s-.15-.8-.12-1.23a.94.94,0,0,1,0-.29c.11-.34.3-.39.88-.24l.39.1a1.67,1.67,0,0,1,.86.59,2.59,2.59,0,0,1,.43,1.52c0,.39,0,.8,0,1.24Z"/><path class="cls-1" d="M210.48,217.77c-1.38-2.42-3.13-4.9-6.19-4.9-.9,0-1.23,1.14-.15,1.15,2.37,0,3.86,2.66,4.88,4.45.35.6,1.87,0,1.46-.7Z"/><path class="cls-1" d="M77.15,493.9c-.8,0-17.05-.41-20.22,1.79-3.85,2.67,24.57,4.64,33.42,3.16C90.35,498.85,77.15,497.07,77.15,493.9Z"/><path class="cls-1" d="M205.5,350.46a119.84,119.84,0,0,0,15.64,4.18c1.93.34,3.88.62,5.83.81a42.68,42.68,0,0,0,10.29,0,48.79,48.79,0,0,0,10-2.65,87.64,87.64,0,0,0,8.48-3.7c3.53-1.75,7-3.67,10.49-5.51,1.09-.58,1.07-.28.29.46a23.49,23.49,0,0,1-4.28,3.1,103.68,103.68,0,0,1-10.88,5.51c-1.88.8-3.79,1.54-5.74,2.18a45,45,0,0,1-6,1.59,45.75,45.75,0,0,1-15.09.22,79.74,79.74,0,0,1-8.13-1.53q-4-.94-8-2.16c-3.23-1-6.43-2.09-9.6-3.25-4.81-1.77-9.55-3.74-14.22-5.75-3.62-1.57-7.17-3.09-10.71-4.73-.79-.36-1.54-.73-2.32-1.12-2.87-1.42-3.67-2.12-4.16-2.67-.11-.13-.26-.28-.32-.37-.18-.32,1.08.1,3.26,1,6.39,2.76,13,5.89,19.79,8.67,5,2.07,10.16,4,15.34,5.74Z"/><path class="cls-1" d="M352.78,124.6a280.09,280.09,0,0,1,11.49-29.29c1.6-3.47,3.17-7,4.91-10.36A247.55,247.55,0,0,1,390.3,50.52c3.55-4.81,7.28-9.53,11.21-14,1.22-1.46,2.56-2.83,3.84-4.25s2.67-2.75,4-4.09,2.79-2.63,4.3-3.82l2.23-1.81,2.33-1.68c2-1.39,2.11-.61,1,1.17a49.94,49.94,0,0,1-6.61,7.57,156.86,156.86,0,0,0-15.47,16.88q-7.18,9-13.54,18.76a223.88,223.88,0,0,0-13.72,24.9,287,287,0,0,0-12.13,28.91c-2.14,6.07-4.07,12.22-5.67,18.44A196.78,196.78,0,0,0,347,166.24a152.47,152.47,0,0,0-.76,22.26c.05,1.62.16,3.21.25,4.85.41,6.06.47,8,0,9.4a6.34,6.34,0,0,1-.35.93c-.21.33-.51-.11-.88-1.19a31.29,31.29,0,0,1-1.15-5.07c-.45-3.35-.79-6.77-.91-10.23s-.07-7,.08-10.47a207,207,0,0,1,2.17-21.13c.75-5.2,1.7-10.5,3-15.66s2.71-10.29,4.32-15.34Z"/><path class="cls-1" d="M451.66,137.37c.31-9.64.24-19.3-.08-29-.05-1.76-.14-3.52-.27-5.27s-.22-3.49-.38-5.24a177.81,177.81,0,0,0-2.38-18.37,159.81,159.81,0,0,0-4.5-18,150,150,0,0,0-5.86-15.39c-2.81-6.44-6.2-12.6-9.24-18.95-.94-2-.55-1.89.79-.51.67.69,1.58,1.69,2.65,2.93a41.67,41.67,0,0,1,3.13,4.61L438.09,39l2.41,4.9c.75,1.66,1.52,3.31,2.24,5s1.35,3.39,2,5.1a143.11,143.11,0,0,1,6,21.1,190.85,190.85,0,0,1,3.78,26.56c.54,9.82.73,19.59.64,29.4-.09,6-.26,12.07-.65,18.09-.56,9.12-1.58,18.26-3,27.23-1.09,7-2.2,13.81-3.77,20.62-.33,1.51-.69,3-1.08,4.48a36.48,36.48,0,0,1-1.87,5.81,5.25,5.25,0,0,1-1.68,2.31,4.7,4.7,0,0,1-.85.59c-.85.29-.73-2.11.28-6.14a332.52,332.52,0,0,0,6.91-37.65c1.16-9.6,1.87-19.32,2.1-29Z"/><path class="cls-1" d="M403.76,225.37a98,98,0,0,1-14-.51c-1.7-.19-3.4-.3-5.08-.58a103.68,103.68,0,0,1-17.4-4.42c-2.5-.9-5-1.82-7.45-2.85A28.21,28.21,0,0,1,351,211.7c-.79-.79-.25-1.08.79-1a13.49,13.49,0,0,1,4.28,1.25c3,1.35,6,2.74,9.13,3.9s6.3,2.28,9.54,3.29a74.47,74.47,0,0,0,12.19,2.39,99.24,99.24,0,0,0,13.68.87,82,82,0,0,0,8.43-.47,72.53,72.53,0,0,0,12.54-2.41,60.4,60.4,0,0,0,9.06-3.6c.64-.32,1.25-.66,1.9-1,2.38-1.18,3.29-1.26,4.14-.9a3.36,3.36,0,0,1,.57.26c.48.34-.28,1.27-1.94,2.47a56.26,56.26,0,0,1-17.44,6.79,83.88,83.88,0,0,1-14.11,1.85Z"/><path class="cls-1" d="M325.93,157.27a46,46,0,0,1,3.15-10.83l.37-.95.42-.94c.28-.62.57-1.25.87-1.86a48.64,48.64,0,0,1,8.52-11.54c.77-.72,1.49-1.51,2.28-2.22s1.55-1.44,2.38-2.09a33.7,33.7,0,0,1,3.25-2.45,17.33,17.33,0,0,1,1.75-1.06c.61-.3,1.23-.58,1.86-.83.8-.32,1,.35.65,1.26a4.94,4.94,0,0,1-.82,1.46,6.11,6.11,0,0,1-.66.7,5.34,5.34,0,0,1-.81.67,48.56,48.56,0,0,0-6.1,4.73,61.77,61.77,0,0,0-5.38,5.69,28.26,28.26,0,0,0-2.75,3.94c-.77,1.43-1.55,2.86-2.19,4.35l-.57,1.21-.49,1.24c-.3.83-.69,1.64-.93,2.5l-.81,2.55-.62,2.6a41,41,0,0,0-.9,6.53l-.06.73,0,.34v1c0,.33,0,.68,0,1a2.27,2.27,0,0,0,.86-.44L330,164l1.42-1a46.27,46.27,0,0,1,6.77-4.34A13.12,13.12,0,0,1,340,158a4.38,4.38,0,0,1,2.7,0,1.68,1.68,0,0,1,1,1,1.64,1.64,0,0,1,.1.49c0,.23-.26.29-.62.39s-.8.32-1.38.48a13.87,13.87,0,0,0-2.77,1.28c-.94.55-1.92,1.13-2.88,1.77s-1.94,1.31-2.92,2l-1.59,1.13a24.76,24.76,0,0,1-3,2,2.59,2.59,0,0,1-1.21.27,2,2,0,0,1-.94-.27c-.42-.55-.74-1.18-1.11-1.78l0-3.66c0-.29,0-.38,0-.56l0-.48.07-.95.14-1.92.28-1.9Z"/><path class="cls-1" d="M468.94,173.19a57.82,57.82,0,0,0,.65-11.39c-.11-1.39-.28-2.78-.46-4.15A43.4,43.4,0,0,0,465,143.57a28.48,28.48,0,0,0-3.61-5.43c-.43-.54-.95-1-1.42-1.5l-.73-.74c-.24-.24-.52-.45-.78-.68l-1.54-1.37c-.55-.41-1.09-.84-1.61-1.3s-.22-1.08.76-1.19A5.32,5.32,0,0,1,460,132.7a30.87,30.87,0,0,1,3.3,3.27c.48.6.94,1.22,1.4,1.84.23.31.48.61.68.93l.61,1a34.55,34.55,0,0,1,3.74,8.35,63.23,63.23,0,0,1,2.45,10.79c.09,1,.24,2,.28,3l.09,3c-.06,2-.1,4-.35,6-.1,1.24-.3,2.47-.51,3.69l-.15.92-.08.46c0,.14-.05.3-.1.53l-.56,2.49,0,.19-.63,1.39a1.24,1.24,0,0,1-.38.56.75.75,0,0,1-.72.15,5.07,5.07,0,0,1-2.36-2.17c-.35-.52-.74-1.15-1-1.61l-.71-1.17-1.41-2.32a34.4,34.4,0,0,0-5.08-6.41,11.46,11.46,0,0,0-1.27-1,13.26,13.26,0,0,0-1.52-.89c-.32-.22-.61-.39-.93-.59-.14-.09-.33-.14-.45-.22s-.16-.39.26-.79a2.74,2.74,0,0,1,1-.53,3.08,3.08,0,0,1,1.57,0A9.22,9.22,0,0,1,461,166a22.92,22.92,0,0,1,2.73,3.14c1.63,2.2,3,4.54,4.37,6.78l.17.27h0a0,0,0,0,0,0,0s0,.05,0,0l.06-.23,0-.12v-.06l.05-.26.36-2.33Z"/><path class="cls-1" d="M364.71,234.08c-.6,1.16-1.2,2.32-1.76,3.5-.21.43-.34.9-.55,1.33l-2.27,4.56c-.33.68-.59,1.39-.85,2.09a8.56,8.56,0,0,1-1.17,2.64c-.38.49-2.19-1.1-1.84-2.13a27.49,27.49,0,0,1,2.44-5.33,25.93,25.93,0,0,0,1.46-3.31c.54-1.21,1.12-2.42,1.7-3.63l1.09-2.21c.55-1.12,1.15-2.22,1.66-3.35.41-.87.61-1.83,1-2.69.09-.2.16-.39.26-.58.38-.69.66-.81,1.31-.65.15,0,.3.07.44.12a1,1,0,0,1,.59,1.24,16.15,16.15,0,0,1-1.73,4.91c-.57,1.17-1.15,2.34-1.72,3.52Z"/><path class="cls-1" d="M387.6,246.53c-.54,1.76-1.06,3.52-1.62,5.28-.19.64-.32,1.3-.53,1.94l-2.3,6.74c-.34,1-.62,2-.88,3a16.28,16.28,0,0,1-1.25,3.82c-.41.75-2.24-.95-1.86-2.42a68.28,68.28,0,0,1,2.49-7.74,42.41,42.41,0,0,0,1.33-4.83l1.48-5.32.9-3.29c.43-1.67.91-3.33,1.25-5,.27-1.31.36-2.62.53-3.94,0-.29,0-.57.1-.86a1.73,1.73,0,0,1,.45-1.07,1.34,1.34,0,0,1,.92-.31c.18,0,.36,0,.53,0,.52,0,1,.59,1.05,1.41a33.7,33.7,0,0,1-1.11,7.23c-.43,1.79-.94,3.58-1.41,5.37Z"/><path class="cls-1" d="M418.91,242.75l1.29,5c.16.61.38,1.2.53,1.82.5,2.17,1,4.34,1.51,6.51.24,1,.52,1.92.82,2.86a11,11,0,0,1,.74,3.81c0,.44-.48.38-1,.11a3.74,3.74,0,0,1-.76-.51,2,2,0,0,1-.57-.83,71.89,71.89,0,0,1-2-7.35c-.3-1.51-.93-3-1.39-4.51-.51-1.66-.95-3.35-1.43-5l-.86-3.09c-.46-1.56-.87-3.14-1.38-4.68-.4-1.18-.91-2.32-1.33-3.51-.09-.26-.21-.51-.28-.79-.13-1,.06-1.46.57-1.76a3.13,3.13,0,0,1,.34-.21c.38-.16.84.18,1.28.8a26,26,0,0,1,2.55,6.31q.7,2.49,1.43,5Z"/><path class="cls-1" d="M428.83,276.72c.35,0,.56.3.65.71,0,.13-.12.43-.22.44l-.55.08c-.06,0-.5-.06-1-.07-.25,0-.5,0-.71,0l-.16,0,0,0s0,0,0,0,0,.09,0,.1,0,0,.07.06a9.24,9.24,0,0,0,1.32.74c.21.09.42.21.62.32a3.31,3.31,0,0,0,1,.41,1.5,1.5,0,0,0,.2,0l.08,0a.3.3,0,0,0,.11-.1.22.22,0,0,0,.08-.18c0-.08.17-.41.3-.95s.21-1.09.24-1.22a4.52,4.52,0,0,0,.11-.47c0-.08,0-.16,0-.23v-.14h0l1.2-.08h0a.25.25,0,0,0,0,.07.55.55,0,0,0,.11.1l.2.2a1.29,1.29,0,0,0,.21.19l.26.22.06.06h0a0,0,0,0,0,0,0l0,0-.1.09-.2.2-.41.43c-.08.09-.13.2-.27.23-.31.07-.44.29-.62.48a2.54,2.54,0,0,1-1,.75.83.83,0,0,1-.34.07.61.61,0,0,1-.52-.25.52.52,0,0,1-.05-.56c.09-.2.3-.08.33,0s.2,0,.3,0h.1s0,0,.06,0-.13,0-.19.06l-.1.06s0,0,0,0a.62.62,0,0,0-.09-.33l-.09-.18s0,0,0-.05.05-.17.09-.26c.18-.41.38-.91.44-1s.41-.64.82-1.28a1.86,1.86,0,0,1,.25-.29,1.34,1.34,0,0,1,.36-.22l.09,0,.08,0a1.13,1.13,0,0,1,.34,0,1.27,1.27,0,0,1,1,.51,1.17,1.17,0,0,1,.24.66v.13c0,.12,0,.23,0,.34s0,.42,0,.6c0,.35-.05.62-.06.72a2.29,2.29,0,0,1-.18.56,9,9,0,0,1-.42,1.4,4.79,4.79,0,0,1-.55,1,3.21,3.21,0,0,1-.45.48,2.87,2.87,0,0,1-1.16.57,1.9,1.9,0,0,1-.67,0,2.34,2.34,0,0,1-.49-.13,1.06,1.06,0,0,0-.35-.09,8,8,0,0,1-2.49-1,11.41,11.41,0,0,1-1.17-.74,2.74,2.74,0,0,1-.27-.25c-.12-.12-.21-.25-.32-.37a2,2,0,0,1-.6-2.13,2.08,2.08,0,0,1,1.78-1.3,2.32,2.32,0,0,1,.54,0,1.14,1.14,0,0,1,.37.05l.28.07c.36.1.7.23.84.25S428.69,276.71,428.83,276.72Z"/><path class="cls-1" d="M373.58,288.71c-.22.18-.5.09-.83-.14-.11-.07-.23-.37-.18-.45a4.48,4.48,0,0,1,.32-.44,13.25,13.25,0,0,1,2-1.2,3.11,3.11,0,0,1,1-.21,2,2,0,0,1,.87.18,1.43,1.43,0,0,1,.53.39,1.4,1.4,0,0,1,.33.59,1.42,1.42,0,0,1,.08.31V288a1.67,1.67,0,0,1-.05.48,2.26,2.26,0,0,1-.39.81,4.23,4.23,0,0,1-.78.76A8.74,8.74,0,0,1,375,291a3.07,3.07,0,0,1-.74.25,11.81,11.81,0,0,1-1.41.27,2.58,2.58,0,0,1-1.94-.55,2.8,2.8,0,0,0-.45-.34,3.72,3.72,0,0,1-1-1.26,4.53,4.53,0,0,1-.56-1.65v-.44a5,5,0,0,1,.11-.59,1.76,1.76,0,0,1,.52-.8,1.52,1.52,0,0,1,1-.4,1.5,1.5,0,0,1,.42,0,1.3,1.3,0,0,1,.33.14,1.45,1.45,0,0,1,.3.22,2.23,2.23,0,0,1,.28.34,3.93,3.93,0,0,1,.32.53c.05.09.13.17.11.29a.81.81,0,0,0,.21.62,2.1,2.1,0,0,1,.3.65,1.6,1.6,0,0,0-.24.36c0,.12,0,.13,0,.08a.85.85,0,0,0-.28-.1s.06,0,.08,0a.27.27,0,0,1,.34,0c.07.14.2,0,.29,0h.11a.36.36,0,0,1,.05.12.56.56,0,0,1-.47.69,1,1,0,0,1-.24,0l-.14,0-.2-.07-.24-.13a3,3,0,0,1-.37-.23,7.13,7.13,0,0,1-.83-.68,3.22,3.22,0,0,1-.25-.29,1.67,1.67,0,0,0-.23-.23s-.06-.06-.08-.06l.16-.17.19-.26a1.24,1.24,0,0,0,.21-.38l0-.05v0h0c0,.19,0-.41,0,.41h0a.13.13,0,0,0,0-.06.4.4,0,0,0,0-.13c0,.05,0,0,.17.12a.71.71,0,0,0,.21,0,1.3,1.3,0,0,0,.33.07h.16s0,0,0,0v0a1.15,1.15,0,0,0,.08.26,1.06,1.06,0,0,1,0,.32,3.76,3.76,0,0,0,.4.7,2.61,2.61,0,0,0,.45.52c.16.17.05,0,.09.2,0,0,.1,0,.15,0a10.24,10.24,0,0,0,1.66-.57,3.77,3.77,0,0,0,.76-.47l.14-.07.15-.08.11-.13,0,0h0l.11.05.13.08.16,0h.08l-.49-.08h0s0,0,0,0h.21c.17,0,.18,0,.24,0s.14-.08.09,0,0,0-.06.09a.46.46,0,0,0-.08.25s-.06.19-.05.17h-.06a1.33,1.33,0,0,0-.41.09,6.3,6.3,0,0,0-1.21.16C374.13,288.72,373.67,288.63,373.58,288.71Z"/><path class="cls-1" d="M401.06,307.54c-.21.2-.57.13-.92-.08-.11-.07-.23-.38-.17-.46a4.42,4.42,0,0,1,.39-.47l.1-.07s.14-.08.29-.19c.3-.17.7-.4,1.18-.64a6.06,6.06,0,0,1,2.24-.56,1.53,1.53,0,0,1,1.54.86,2.15,2.15,0,0,1-.12,2,5.71,5.71,0,0,1-2.1,1.8,7.54,7.54,0,0,1-1.37.62c-.5.13-1,.26-1.55.36l-.44.07a2.43,2.43,0,0,1-.55,0,2.79,2.79,0,0,1-1.16-.38c-.21-.14-.4-.31-.6-.43a3.9,3.9,0,0,1-1.08-1.68,6.58,6.58,0,0,1-.41-1.78c0-.23,0-.46,0-.7l0-.35,0-.19V305a1.24,1.24,0,0,1,1.46-1l.12,0,.05,0a1.36,1.36,0,0,1,.37.21l.08.07,0,0,0,.05s0,.06.06.07l.06.1.09.16.15.28.28.52c0,.1.14.18.13.31a.89.89,0,0,0,.27.66,3.89,3.89,0,0,1,.43.67,1.51,1.51,0,0,0-.15.37c0,.09,0,.13,0,.09a.54.54,0,0,0-.24-.11.1.1,0,0,0,.08,0,.25.25,0,0,1,.34,0c.07.17.19.05.29,0h.1s0,0,.05.15a.59.59,0,0,1,0,.25.65.65,0,0,1-.43.43.81.81,0,0,1-.34,0l-.22,0-.3-.12c-.16-.08-.32-.15-.45-.23a7.1,7.1,0,0,1-1-.81l-.32-.39c-.17-.2-.45-.56-.61-.72h0s.22-.2.26-.22a3.6,3.6,0,0,0,.41-.37.57.57,0,0,1,.14-.14.24.24,0,0,0,.06-.11h0c-1.08-.06,1.47.09,1.21.08h0v.34c0,.15,0,.3.05.43a3.09,3.09,0,0,0,.1.52,2.13,2.13,0,0,1,0,.44,4,4,0,0,0,.34.88,1.17,1.17,0,0,0,.38.46s0,0,0,0h0l0,.29v0l0-.16a.64.64,0,1,0,0-.08h.09l.23.06a.35.35,0,0,0,.22,0l.48-.15.26-.08.19-.06.2,0a.26.26,0,0,0,.14-.1l.1,0,.12,0c0-.06.13-.18.07-.28s-.2,0-.34,0,0,0-.08-.05a.15.15,0,0,0-.16,0S401.14,307.47,401.06,307.54Z"/><path class="cls-1" d="M341.7,320.46c-.22.19-.57.13-.92-.09-.12-.07-.24-.37-.18-.46s.26-.32.4-.47l.09-.07s.14-.08.29-.19c.3-.17.71-.4,1.18-.63a6.44,6.44,0,0,1,2.25-.57,1.52,1.52,0,0,1,1.53.87,2.13,2.13,0,0,1-.11,1.95,5.82,5.82,0,0,1-2.1,1.81,7.56,7.56,0,0,1-1.38.61c-.5.13-1,.26-1.54.36a2.84,2.84,0,0,1-.45.07,2.36,2.36,0,0,1-.54,0,2.57,2.57,0,0,1-1.16-.38c-.21-.14-.41-.31-.6-.43a3.83,3.83,0,0,1-1.09-1.68,6,6,0,0,1-.4-1.77c0-.23,0-.47,0-.7l0-.36,0-.19v-.26a1.27,1.27,0,0,1,.53-.82,1.24,1.24,0,0,1,.93-.19l.12,0,.05,0a1.25,1.25,0,0,1,.37.22c.08.06.08.06.08.07l0,0,0,.05a.26.26,0,0,1,.06.08l.06.1.1.15.15.28.27.53c.05.1.15.17.13.31a1,1,0,0,0,.28.66,3,3,0,0,1,.42.67,1.32,1.32,0,0,0-.15.36c0,.09,0,.14,0,.09a.59.59,0,0,0-.24-.11.09.09,0,0,0,.09,0,.24.24,0,0,1,.33,0c.07.16.2.05.29,0a.2.2,0,0,1,.11,0,.32.32,0,0,1,0,.15.43.43,0,0,1,0,.24.65.65,0,0,1-.43.43.83.83,0,0,1-.34,0,1.42,1.42,0,0,1-.22-.05l-.29-.11a3.28,3.28,0,0,1-.46-.24,6.78,6.78,0,0,1-1-.81l-.32-.38c-.17-.21-.46-.56-.62-.73h0l.26-.23a2.79,2.79,0,0,0,.4-.37,1.44,1.44,0,0,1,.15-.14s0-.09.06-.11,0,0,0,0l1.21.07h0v.33c0,.14,0,.29,0,.42s.09.46.1.53a1.23,1.23,0,0,1,0,.43,3.72,3.72,0,0,0,.35.88,1.37,1.37,0,0,0,.37.47s0,0,0,0h0l-.05.28v0l0-.16c0-.16,0-.05,0-.08h0l.08,0,.24.05c.07,0,.13,0,.21,0l.49-.15.25-.09.19-.06.2,0a.33.33,0,0,0,.14-.11l.1,0c.05,0,.11,0,.12-.05s.13-.18.07-.27-.2,0-.34,0,0,0-.07-.05a.17.17,0,0,0-.17,0S341.77,320.38,341.7,320.46Z"/><path class="cls-1" d="M433.66,70c-1.64.16-3.28.34-4.92.42l-2.47.14c-.83,0-1.65,0-2.48.07-1.2,0-2.4.13-3.6.07a76.94,76.94,0,0,1-12.66-1.26l-2.78-.53L402,68.23a12.79,12.79,0,0,1-1.72-.56l-1.71-.62a9.46,9.46,0,0,1-1.64-.78c-.53-.3-1.06-.6-1.58-.91s-.38-.63.35-.66a8.51,8.51,0,0,1,3.12.58,74.64,74.64,0,0,0,13.86,3c1.43.19,2.9.23,4.38.31h4.45c1.63-.07,3.25-.08,4.88-.17s3.26-.18,4.88-.37l3-.31c1-.12,2-.27,3-.42,3-.44,6-1,9-1.72,2.27-.59,4.46-1.32,6.64-2.08L454.3,63c1.79-.61,2.45-.57,3-.29a3.09,3.09,0,0,1,.37.2c.3.26-.33.81-1.59,1.52a22.31,22.31,0,0,1-3,1.3c-1,.39-2,.78-3.1,1.09-2.11.66-4.29,1.16-6.47,1.65-1.63.31-3.27.63-4.91.88s-3.3.52-4.95.68Z"/><path class="cls-1" d="M431.34,122.08a37,37,0,0,1-3.16,7,20.72,20.72,0,0,1-5.05,6,20.05,20.05,0,0,1-4.94,2.92,13.19,13.19,0,0,1-10.08,0,14.28,14.28,0,0,1-7.06-7,18.24,18.24,0,0,1-1.8-8.53A17.51,17.51,0,0,1,403,112.22c.72-.91.93-.52.72.48a45.83,45.83,0,0,1-1.43,4.43,16.92,16.92,0,0,0-.57,10.07,13.93,13.93,0,0,0,5.59,8.2A9.71,9.71,0,0,0,413.1,137a13.75,13.75,0,0,0,6-1.83c.51-.29,1-.62,1.51-.93s1-.7,1.42-1.07a14.87,14.87,0,0,0,2.4-2.54,27.56,27.56,0,0,0,3.54-6.27,39.85,39.85,0,0,0,2.46-8.64,32.18,32.18,0,0,0,.45-6.78,16.46,16.46,0,0,0-1.49-6.42,7.07,7.07,0,0,0-3.27-3.38,8,8,0,0,0-4.61-.5,12.88,12.88,0,0,0-2.09.48c-2.62.8-3.46,1.16-4.32.79a3.5,3.5,0,0,1-.58-.23c-.24-.17-.14-.47.27-.87a7.91,7.91,0,0,1,.84-.67,6.87,6.87,0,0,1,1.31-.72l1.15-.51a11.82,11.82,0,0,1,1.23-.41,14.48,14.48,0,0,1,2.6-.59,9.77,9.77,0,0,1,5.68,1,9.89,9.89,0,0,1,4,4.33,16.58,16.58,0,0,1,1.56,5.33,29.83,29.83,0,0,1-.05,7.9,42.66,42.66,0,0,1-1.71,7.6Z"/><path class="cls-1" d="M261.36,244c.14,1.27-.08,2.22-.92,2.73a1.42,1.42,0,0,1-1,.16,3.36,3.36,0,0,1-1.7-1,5.29,5.29,0,0,1-.61-.87,4.19,4.19,0,0,1-.34-.73,6.27,6.27,0,0,1-.37-1.26,2.1,2.1,0,0,1,.27-1.73c.13-.16.33,0,.53.23a2.49,2.49,0,0,1,.52.63,6.17,6.17,0,0,0,.38,1.06c.11.35.36.83.3.93,0,.26.24.34.44.43a.23.23,0,0,0,.33-.08.72.72,0,0,0,.09-.37,2.72,2.72,0,0,0,0-.28l0-.16-.08-.27a5,5,0,0,0-.75-1.58,1.2,1.2,0,0,0-.46-.35c-.08,0-.15,0-.17,0s0-.08,0-.13a.31.31,0,0,0,0-.1v0a.17.17,0,0,0,0,0c0,.05,0,0,.09.15a.47.47,0,0,0,.15.14h0a.45.45,0,0,0-.13,0,2.4,2.4,0,0,1-.56-.13l-.36-.11a.69.69,0,0,1-.52-.94,1.28,1.28,0,0,1,.44-.59,1.7,1.7,0,0,1,1-.36,2.26,2.26,0,0,1,1.45.5,4.32,4.32,0,0,1,1.17,1.45,6.87,6.87,0,0,1,.48,1.12c.06.19.11.37.17.59a8.24,8.24,0,0,1,.21,1Z"/><path class="cls-1" d="M254.89,238a3.37,3.37,0,0,1,1.62-.39,2,2,0,0,1,.65,0,2.76,2.76,0,0,1,1.53,1.25c.15.22.27.43.4.63a1.13,1.13,0,0,1,.29.84c0,.11-.37.22-.74.3s-.78.13-.86,0-.3-.3-.4-.45a.36.36,0,0,1-.11-.23,1.26,1.26,0,0,1-.07-.25c-.07-.21-.26-.21-.39-.23a.89.89,0,0,0-.62,0,1.53,1.53,0,0,0-.46.23,2.06,2.06,0,0,0-.59.62,2.6,2.6,0,0,0-.15.67c0,.05,0,.1,0,.14s-.24.18-.63.11l-.27-.05a.8.8,0,0,1-.59-.44,1.88,1.88,0,0,1,.27-1.85,3.62,3.62,0,0,1,1.13-1Z"/><path class="cls-1" d="M268.4,258.77c-1,1.24-5.29.88-6.12-.44s-3-.1-2.16,1.26c1.63,2.61,8,3.53,10.05,1,1-1.25-.78-3-1.77-1.77Z"/><path class="cls-1" d="M255.26,229.13c-3.34.06-6.34,2.4-8.24,5-.94,1.31,1.22,2.55,2.16,1.26,1.36-1.86,3.68-3.71,6.08-3.76a1.25,1.25,0,0,0,0-2.5Z"/><path class="cls-1" d="M126.37,333.56a64.78,64.78,0,0,1-2.75-9.26c-.26-1.14-.53-2.29-.72-3.45a46.73,46.73,0,0,1-.15-12.39,42.9,42.9,0,0,1,1-5.41,19.9,19.9,0,0,1,2.62-6.52c.4-.62.79-.27,1,.5a6,6,0,0,1-.31,3.1,40.21,40.21,0,0,0-2.39,13.19,37.17,37.17,0,0,0,.93,8.35,59.9,59.9,0,0,0,2.49,9c.65,1.81,1.39,3.59,2.2,5.33a52.81,52.81,0,0,0,4.3,7.59,34.19,34.19,0,0,0,4.36,5c.34.35.71.63,1.06,1,1.28,1.22,1.6,1.68,1.43,2.52a4.56,4.56,0,0,1-.12.58c-.2.56-1.14.49-2.33-.35-3.47-2.51-6.13-6.12-8.39-9.88a64.81,64.81,0,0,1-4.25-8.8Z"/></g></svg>