<svg xmlns="http://www.w3.org/2000/svg" width="520" height="520" viewBox="0 0 520 520"><defs><style>.cls-1{fill:#231f20;}.cls-2{opacity:0.35;}</style></defs><title>notioly upgrade</title><g id="n.113_Faq" data-name="n.113 Faq"><path class="cls-1" d="M245.52,396.71c-.89,4.86-.64,14.34,1.16,18.49,1.92,4.44,9.44-3.11,9.16-14.35C255.84,400.85,245.86,394.85,245.52,396.71Z"/><path class="cls-1" d="M261.45,296.3s10.11,7.43,13.65,14.24-12.46,3.88-14.15-4.13Z"/><path class="cls-1" d="M271.31,286.83s3.32-1.86,3.32-3.05,1,12.15,1,12.15l-4.29.37Z"/><path class="cls-1" d="M276.88,296.94s5.66-1.91,6.81-3.42,1.05,12.65,1.05,12.65-4.7,6.53-6.09,4.37C277.52,308.8,276.88,296.94,276.88,296.94Z"/><path class="cls-1" d="M268.28,357.8,267.7,367s-3,1.63-5.25,1l1.33-11.21Z"/><path class="cls-1" d="M277.84,355.8s13-4.7,12.9-6.31c0,0,2,13.22-.43,15.53s-11.37,6.78-14.21,5.07Z"/><path class="cls-1" d="M264.89,426s7.72-1.75,7.26-2.46l-.5,17.66h-7.72Z"/><path class="cls-1" d="M272,441s8.74-1.13,8.49-2.45-2.35,17.22-2.35,17.22l-5.44,1.4Z"/><path class="cls-1" d="M279.83,456.13s6.91-3.66,9.53-6.93l-1.52,11.73s-6.26,7.17-8.11,6.1S279.83,456.13,279.83,456.13Z"/><path class="cls-1" d="M268.44,470.12l4.59-.45,2.44,8.56s-4,1.14-5-1.19A55,55,0,0,1,268.44,470.12Z"/><path class="cls-1" d="M264.89,460.09a7.26,7.26,0,0,1-5.21,0l1.77,9.58s7.16,1.11,6.6-1.16S264.89,460.09,264.89,460.09Z"/><path class="cls-1" d="M272.94,329.88l5.58-1.43-1,12.61s-4.68,2-6,1.42S272.94,329.88,272.94,329.88Z"/><path class="cls-1" d="M211.26,148.62s-5.19-2.65-11.49-5.9c-14.58-7.51-23-26.14-17.5-42.58,7.3-21.77,37.19-20.71,39.59-20.72,0,0,14.19-29.64,42.05-37.19,0,0,46.85-10.45,58,21.15,2.3,6.52,7.12,31.94-19.74,45.25,0,0-28.46,14.91-74.08-3.68,0,0-16.13,2.87-16.7,17.41-.22,5.7-1.69,11.77-1.33,15.13Z"/><path class="cls-1" d="M192,164.78a26.42,26.42,0,0,1-1.44-2.38c-.21-.42-.44-.81-.63-1.24s-.38-.89-.55-1.34a17.27,17.27,0,0,1-1-5.59c0-.69,0-1.39,0-2.08a12.23,12.23,0,0,1,.36-2.08,11.62,11.62,0,0,1,4-6.27,9.52,9.52,0,0,1,1.58-1l.83-.43c.28-.13.58-.21.86-.32l.87-.29.89-.19.89-.17,1-.07a12.08,12.08,0,0,1,6.09,2.08,22,22,0,0,1,3.14,2.32,20.88,20.88,0,0,1,2.53,2.88c.46.65,0,.95-.92.91a6.76,6.76,0,0,1-3.33-1.18c-1-.69-1.88-1.47-2.85-2.07a12.65,12.65,0,0,0-2.88-1.43,5.35,5.35,0,0,0-1.36-.29,2.71,2.71,0,0,0-.63,0,3.53,3.53,0,0,0-.74.08l-.81.13c-.26.05-.51.15-.77.21a9,9,0,0,0-1.49.57,6.82,6.82,0,0,0-2.79,2.67,10.1,10.1,0,0,0-1.28,3.88,14.29,14.29,0,0,0,1.84,9.11,20.16,20.16,0,0,0,3.65,4.77,18.85,18.85,0,0,0,7.91,4.48,21.56,21.56,0,0,0,7,.54c.52,0,1-.09,1.54-.15a5.62,5.62,0,0,1,1.21,0,3.77,3.77,0,0,1,.85.12,2.15,2.15,0,0,1,1,.72c.12.15.27.29.35.42s0,.47-.32.77a4.19,4.19,0,0,1-1.65.87A22.89,22.89,0,0,1,200.66,172a22.13,22.13,0,0,1-8.69-7.21Z"/><path class="cls-1" d="M309.81,41.68c.78.43,1.56.8,2.35,1.28s1.56,1,2.31,1.51l2.16,1.72,2,1.91a34.21,34.21,0,0,1,6.06,9,41.65,41.65,0,0,1,3.69,20.84,38.74,38.74,0,0,1-4.19,14.88,33.47,33.47,0,0,1-3.74,5.74,35.6,35.6,0,0,1-4.73,4.93,45,45,0,0,1-11.42,7.18,71,71,0,0,1-25.95,5.58,78.88,78.88,0,0,1-11.8-.34c-3.89-.42-7.74-1-11.56-1.65-4.9-.85-9.8-1.8-14.63-3.09-2.42-.64-4.82-1.37-7.18-2.24a26.78,26.78,0,0,1-6.8-3.46c-1.31-1-1.63-1.77-1.46-1.82s.87.35,2.07.83c2.42,1,6.95,2.08,12.38,3.51,4.81,1.27,9.71,2.33,14.64,3.21s9.91,1.64,14.84,2.08A78.91,78.91,0,0,0,298.22,110a43,43,0,0,0,15.57-8.73,33.91,33.91,0,0,0,9.68-14.92,37.47,37.47,0,0,0,.93-19.54,32.87,32.87,0,0,0-9.25-17.07,26,26,0,0,0-4.8-3.6c-.86-.52-1.81-1-2.71-1.46s-1.86-.87-2.8-1.3A51.21,51.21,0,0,0,293,39.86a54.26,54.26,0,0,0-18.68.12c-1.54.24-3.06.64-4.59,1s-3,.85-4.49,1.4-2.92,1.12-4.37,1.7-2.84,1.29-4.21,2a76.73,76.73,0,0,0-22.14,18.15c-1.36,1.62-2.65,3.23-3.93,4.93-2.4,3.13-3.86,5.28-5,6.71a9.72,9.72,0,0,1-2.82,2.66,8.68,8.68,0,0,1-1.16.63c-.52.14-.49-.56,0-2a33.17,33.17,0,0,1,3.18-6,86.48,86.48,0,0,1,18.12-20.37A70.47,70.47,0,0,1,268,37.66a64.45,64.45,0,0,1,10.52-2,57.73,57.73,0,0,1,10.76,0,55.91,55.91,0,0,1,10.58,2,60.25,60.25,0,0,1,10,4Z"/><path class="cls-1" d="M209.54,129a62.42,62.42,0,0,1,1.55-7.72c.24-.93.47-1.87.78-2.78a25.29,25.29,0,0,1,5.21-8.85,18.4,18.4,0,0,1,3.54-3,10,10,0,0,1,5.6-1.81c.62,0,.57.53.18,1.15a3.87,3.87,0,0,1-.81.94,3.82,3.82,0,0,1-1.14.77,16.88,16.88,0,0,0-4.25,2.56,20.25,20.25,0,0,0-3.44,3.89,22.4,22.4,0,0,0-2.61,6.13,51.57,51.57,0,0,0-1.68,7.35c-.22,1.54-.43,3.1-.55,4.66a70.4,70.4,0,0,0-.26,7.11c0,1.84.28,3.64.46,5.44,0,.4.07.79.09,1.2,0,1.49-.09,2-.66,2.34a2.36,2.36,0,0,1-.38.24c-.43.18-.86-.4-1.14-1.5-.2-.81-.39-1.63-.55-2.47s-.23-1.69-.3-2.55a50.66,50.66,0,0,1-.22-5.24,72.06,72.06,0,0,1,.52-7.88Z"/><path class="cls-1" d="M176.17,111a35,35,0,0,1,3.69-15.79c.4-.92.92-1.76,1.4-2.62.25-.43.49-.87.75-1.29l.87-1.2a34,34,0,0,1,16.56-12,38.86,38.86,0,0,1,9-1.73,22.26,22.26,0,0,1,11.4,2.24c1.09.54.67,1-.48,1.28a10.13,10.13,0,0,1-2.18.24,11.24,11.24,0,0,1-2.79-.16c-.87-.15-1.77-.17-2.65-.27s-1.77,0-2.65,0a30.31,30.31,0,0,0-5.27.62,32.41,32.41,0,0,0-10,3.94,27.93,27.93,0,0,0-9.38,9.49,32,32,0,0,0-4.83,14A35.82,35.82,0,0,0,180,117a34.46,34.46,0,0,0,5.32,13,32,32,0,0,0,7.5,7.64c.59.51,1.3.85,1.93,1.31,1.17.88,2,1.37,2.5,1.86a2.4,2.4,0,0,1,.79,1.45,3.84,3.84,0,0,1,.11.71c0,.69-1.37.57-3.51-.41a24.39,24.39,0,0,1-2.26-1.3l-1.12-.7c-.36-.25-.71-.53-1.06-.8-.7-.56-1.43-1.09-2.09-1.69l-2-1.9a36.94,36.94,0,0,1-10.08-25Z"/><path class="cls-1" d="M223.13,78c-1.63-4.75,0-10,2.9-13.87,1.1-1.46-1.63-1.89-2.42-.84-3.26,4.36-5.21,10.16-3.38,15.49.45,1.31,3.34.51,2.9-.78Z"/><path class="cls-1" d="M205,71.83c5.39-2.3,12.31,3,13.87,8,.22.68,3.1-.14,2.9-.78-2.38-7.62-11.55-10.55-18.45-7.61-1.75.75,1,.72,1.68.42Z"/><path class="cls-1" d="M293.83,176.46c0-5-.53-10-.87-15.16-.11-1.88-.31-3.76-.28-5.68.14-6.57.06-13.07,0-19.66,0-2.91-.07-5.85,0-8.75,0-1.87,0-3.74.17-5.61a43.56,43.56,0,0,1,.74-5.57c.23-1.15.63-.93,1,.09a16.93,16.93,0,0,1,.73,4.95c0,3.73,0,7.47.07,11.24s.06,7.56,0,11.39c0,2.28,0,4.62.08,7,0,1.18,0,2.36.05,3.55s.06,2.29.1,3.44c.25,5,.88,10.16,1.15,15.35a70.23,70.23,0,0,1-.09,9.62,54,54,0,0,1-3.11,14.24c-.7,1.75-1.28,3.53-2.11,5.19l-1.17,2.55L288.9,207c-.41.72-.76,1.45-1.22,2.14-1.86,2.45-2.62,3.1-3.67,3.1a3,3,0,0,1-.66,0c-.56-.08-.37-1.48.72-3.34.4-.7.8-1.4,1.21-2.1l1.15-2.13c.38-.71.82-1.4,1.17-2.13l1-2.21a56,56,0,0,0,3.43-9.22,53,53,0,0,0,1.68-14.7Z"/><path class="cls-1" d="M230.69,204.91a59.65,59.65,0,0,1-3.93-6c-.42-.76-.91-1.48-1.29-2.27-1.41-2.79-2.34-5.66-3.54-8.37a29.43,29.43,0,0,0-1.8-3.49,41.22,41.22,0,0,0-2.85-4c-.31-.4,0-.66.6-.64a3.33,3.33,0,0,1,2.24,1.16,31,31,0,0,1,5.16,9.33,35.74,35.74,0,0,0,2.83,5.59q1.75,3,3.81,5.77c.83,1.15,1.72,2.27,2.64,3.36A48.24,48.24,0,0,0,239,210a37.16,37.16,0,0,0,4,2.91,10.55,10.55,0,0,1,.89.59c1.05.84,1.29,1.23,1.16,2a3.56,3.56,0,0,1-.09.49c-.17.49-.88.54-1.87.14a24.37,24.37,0,0,1-7.72-5.66,63.44,63.44,0,0,1-4.75-5.48Z"/><path class="cls-1" d="M182.83,430.16a24,24,0,0,1-13.08-7,26.47,26.47,0,0,1-4.42-6,30.27,30.27,0,0,1-2.77-6.8c-2.62-9.28-2.53-18.91-1.61-28.19.7-6.79,1.77-13.5,3-20.12a254.85,254.85,0,0,1,8.71-34.75A285.59,285.59,0,0,1,186,294.13c2.29-4.78,4.72-9.51,7.36-14.13a142.32,142.32,0,0,1,8.7-13.32,95.19,95.19,0,0,1,13.78-15.1c.62-.58,1.29-1.12,2-1.65l2-1.59a17.54,17.54,0,0,1,2.21-1.51c.76-.44,1.53-.85,2.32-1.22a41.37,41.37,0,0,1,4.83-2,19.4,19.4,0,0,1,5.2-1.09,8.41,8.41,0,0,1,1.51.1A4.59,4.59,0,0,1,237,243c.53.26.7.45.62.56s-.42.15-.92.18l-.89.17c-.34.1-.72.2-1.12.35-.82.33-1.78.7-2.85,1.22s-2.26,1.14-3.54,1.87-2.63,1.56-4,2.46c-.35.22-.68.45-1,.68s-.59.44-1,.75c-.69.58-1.4,1.16-2.14,1.74a87.67,87.67,0,0,0-14,14.33A135.2,135.2,0,0,0,195,284.14c-3.33,5.9-6.35,12-9.15,18.26s-5.46,12.58-7.83,19a217.93,217.93,0,0,0-7.3,23.94c-1,4.1-1.9,8.24-2.69,12.39s-1.53,8.36-2.23,12.5c-1.52,9.12-2.68,18.32-2.15,27.45a51.79,51.79,0,0,0,2.41,13.36,25.63,25.63,0,0,0,2.86,6,22.2,22.2,0,0,0,4.29,5,21.1,21.1,0,0,0,15,5.26,25.74,25.74,0,0,0,8-1.67,33.23,33.23,0,0,0,7.27-4,53.58,53.58,0,0,0,9.3-8.71,108.88,108.88,0,0,0,7.77-10.3c4.85-7.18,9.6-14.43,14.25-21.67,7.22-11.27,14-22.48,20.68-33.89l4.29-7.54,3.36-6c.92-1.66,1.65-2.92,2.35-4.05a13.13,13.13,0,0,1,3.64-3.9,14,14,0,0,1,1.36-.95c.56-.28.4.64-.52,2.45-.46.89-1.09,2-1.71,3.26l-1,2.19L266,335.17c-5.5,10.57-11.76,21-18.26,31.52s-13.3,21-20.23,31.45c-5.13,7.69-10.35,15.78-17.5,22.37a50.75,50.75,0,0,1-5.74,4.55,38.2,38.2,0,0,1-6.57,3.49,30.19,30.19,0,0,1-7.28,1.86,25.7,25.7,0,0,1-7.58-.17Z"/><path class="cls-1" d="M220.13,306.34l-5.36,10.76c-.65,1.32-1.22,2.67-1.88,4-2.33,4.61-4.73,9.2-7.31,13.72-1.15,2-2.29,4-3.53,6a31.32,31.32,0,0,1-2.62,3.68,12.19,12.19,0,0,1-1.71,1.65,5.68,5.68,0,0,1-2.36,1.11c-.6.09-.88-.13-.85-.38a3.22,3.22,0,0,1,.5-1,17.12,17.12,0,0,1,1.91-3,48.2,48.2,0,0,0,4.8-7q2.24-3.83,4.47-7.67c1.8-3.1,3.29-6.53,4.89-9.83l5.31-10.9,3.33-6.69c1.68-3.38,3.49-6.73,5.29-10,.7-1.29,1.4-2.56,2.09-3.84s1.5-2.49,2.37-3.69c.38-.53.75-1.06,1.18-1.56,1.69-1.82,2.59-2.14,3.31-2a2.51,2.51,0,0,1,.47.11c.39.24-.23.92-1.17,2.26a58.52,58.52,0,0,0-3.9,6.52c-1.28,2.28-2.53,4.64-3.75,7-1.81,3.56-3.65,7.15-5.41,10.78Z"/><path class="cls-1" d="M251.92,300a67.3,67.3,0,0,0,9.22,7.92c1.2.86,2.49,1.54,3.75,2.28a32.84,32.84,0,0,0,3.4,1.72,18.54,18.54,0,0,0,3.51,1.17c2.72.41,3.6.42,2.66-2.28a17,17,0,0,0-3.27-5.85c-1.82-2.3-4.1-4.47-5.56-7.29-.45-.88.1-1,1-.68a9.86,9.86,0,0,1,3.38,2.32c2.05,2.18,4.45,4.43,6.11,7.48l.59,1.15.5,1.2.41,1.24a6.45,6.45,0,0,1,.16.63l.2.83c0,.18.06.36.09.53a4.7,4.7,0,0,0,0,.53,4.52,4.52,0,0,1,0,.52l-.14.5a2.89,2.89,0,0,1-.46.91,5.52,5.52,0,0,1-.72.73,5.71,5.71,0,0,1-.91.5c-.32.11-.66.21-1,.29l-.48.06-.39,0a6,6,0,0,1-.74,0,15.41,15.41,0,0,1-3.16-.57c-.51-.14-1-.29-1.48-.46s-1-.34-1.42-.52a36.19,36.19,0,0,1-5.36-2.67,63.08,63.08,0,0,1-10.14-7.9c-1.91-1.79-3.74-3.67-5.49-5.6-2.67-2.93-5.13-6-7.54-9.12-1.84-2.41-3.8-4.68-5.55-7.13-.39-.54-.79-1.05-1.17-1.6-1.35-2.09-1.57-2.88-1.13-3.77a4.23,4.23,0,0,1,.32-.6c.43-.54,1.43,0,2.55,1.42,3.39,4.1,6.59,8.6,10.1,12.88a108.74,108.74,0,0,0,8.25,9.17Z"/><path class="cls-1" d="M243,228.11a25.77,25.77,0,0,1,1.24-5.75,28.1,28.1,0,0,1,1.1-2.72c.4-.92.79-1.66,1.18-2.51,1.58-3.28,3.13-6.67,5-9.94a38.63,38.63,0,0,1,4.86-6.81,31.2,31.2,0,0,1,2.72-2.55c.5-.38,1-.78,1.49-1.15l1.5-1c2-1.32,4-2.57,6.12-3.75a44.64,44.64,0,0,1,6.58-3.11,14.59,14.59,0,0,1,1.84-.54,6.13,6.13,0,0,1,2.45-.07,6.25,6.25,0,0,1,.6.24,3.31,3.31,0,0,1,.52.38,2.26,2.26,0,0,1,.57,1.13,4.81,4.81,0,0,1,.08.65l-.06.66a5.7,5.7,0,0,1-.26,1.13,17.27,17.27,0,0,1-3.5,5.69,63.34,63.34,0,0,1-4.57,4.44,40.49,40.49,0,0,0-5.35,5.65,16.41,16.41,0,0,0-2.89,6.82c-.25,1.55-.68,1.43-1.16,0a9.2,9.2,0,0,1-.38-3.2,9.67,9.67,0,0,1,1.51-4.36,30.4,30.4,0,0,1,5.72-6.47,55.86,55.86,0,0,0,5.65-5.5,14.45,14.45,0,0,0,2-3l.32-.79.13-.43a.17.17,0,0,0,0-.21l-.11-.05h-.09l-.09,0-.19,0a10.88,10.88,0,0,0-1.7.49,35.15,35.15,0,0,0-3.59,1.59,68.57,68.57,0,0,0-8.47,5,27.84,27.84,0,0,0-7,6.6,55.5,55.5,0,0,0-5.46,9.33l-2.41,5-.63,1.25-.57,1.2a21.79,21.79,0,0,0-.94,2.48c-1.4,4.14-1.32,8.64-.86,13.12a193.27,193.27,0,0,1,1.44,20.68c0,2.68,0,5.34-.19,8a66.59,66.59,0,0,1-1,7.92c-.22,1.15-.46,2.29-.76,3.44s-.55,1.95-.85,2.66-.57,1.28-.8,1.74a4.83,4.83,0,0,1-1.4,1.66c-.19.14-.4.35-.53.43s-.21-.26-.1-1.06A7.41,7.41,0,0,1,242,281c.14-.58.29-1.26.51-2a64.42,64.42,0,0,0,2.14-13.9,116.7,116.7,0,0,0-.08-14.6c-.23-3.65-.6-7.28-1.09-10.95a52.26,52.26,0,0,1-.58-11.47Z"/><path class="cls-1" d="M283.33,220.07a16.14,16.14,0,0,0-2.51-3.87c-.2-.19-.42-.34-.63-.51s-.46-.29-.68-.46a9.34,9.34,0,0,0-5.85-1.48,9.15,9.15,0,0,0-2.73.65,29.23,29.23,0,0,0-3.24,1.67c-.34.18-.49-.08-.42-.53a2.62,2.62,0,0,1,1-1.6,10.87,10.87,0,0,1,8-2.06,14.57,14.57,0,0,1,5,1.49,9.22,9.22,0,0,1,2.33,1.86,21.19,21.19,0,0,1,1.65,2.25,23.58,23.58,0,0,1,1.6,3,25.67,25.67,0,0,1,1.41,5c.25,1.29.56,2.58.69,3.9a6.26,6.26,0,0,1,0,.87c-.06,1.08-.37,1.4-1.17,1.54a5,5,0,0,1-.54.08,1.3,1.3,0,0,1-1.26-1.16,21.36,21.36,0,0,1-.62-3.15c-.16-1-.34-2.06-.59-3.06a21.45,21.45,0,0,0-1.62-4.36Z"/><path class="cls-1" d="M281.82,225.23a11,11,0,0,0-2.16-2.3c-.31-.23-.64-.43-1-.63a10.33,10.33,0,0,0-3.82-1.79,5.07,5.07,0,0,0-.95-.14,6,6,0,0,0-.95,0c-.82,0-1.61.18-2.4.19-.25,0-.38-.38-.28-.85a1.59,1.59,0,0,1,1-1.2,9.29,9.29,0,0,1,5.78.33c.55.2,1.1.43,1.67.6a12,12,0,0,1,1.64.73,14.07,14.07,0,0,1,3,2.47l.79.88.69,1,.52.72.43.76c.28.52.62,1,.86,1.53.4.79,1,1.48,1.44,2.29.09.18.19.35.26.53.23.71.05,1-.59,1.37-.15.08-.29.17-.44.24a1.38,1.38,0,0,1-1.48-.28,4.8,4.8,0,0,1-.76-.88c-.19-.31-.38-.62-.59-.92-.4-.61-.67-1.29-1.07-1.88a18,18,0,0,0-1.69-2.67Z"/><path class="cls-1" d="M284.62,238.15a15.6,15.6,0,0,1-1.53-1.07c-.24-.2-.48-.39-.71-.6s-.28-.27-.43-.41a11.39,11.39,0,0,1-1.46-1.8l-.48-.68-.22-.34-.12-.22a8,8,0,0,0-5.29-3.46c-.88-.19-1.76-.26-2.67-.46-.29-.07-.29-.49,0-.94a1.94,1.94,0,0,1,1.37-1,8.48,8.48,0,0,1,6.25,1.75c.53.44,1.08.82,1.63,1.29a8.13,8.13,0,0,1,.79.77,2.73,2.73,0,0,1,.36.45l.17.24.11.18a10.31,10.31,0,0,0,1,1.4c.34.4.94.91,1.05,1l.47.41c.17.12.33.33.56.36a.38.38,0,0,0,.35-.26,1.76,1.76,0,0,0,.14-.46,3.52,3.52,0,0,0,0-1,19.32,19.32,0,0,0-.6-2.69,5.47,5.47,0,0,1-.15-.58c-.13-.73,0-1,.72-1.29a3.88,3.88,0,0,1,.46-.22,1.1,1.1,0,0,1,1.4.58,8.85,8.85,0,0,1,1,2.62,13.12,13.12,0,0,1,.2,1.42,12.59,12.59,0,0,1-.06,2.61,3.41,3.41,0,0,1-1.51,2.62,2.43,2.43,0,0,1-1.36.35,3.33,3.33,0,0,1-1.45-.45Z"/><path class="cls-1" d="M285,246c-.79-1.83-1.13-3.5-2.59-5a11.79,11.79,0,0,0-4.63-2.8c-1.09-.37-3.4,1.2-1.72,1.78a9.5,9.5,0,0,1,4,2.56c1.14,1.25,1.41,2.7,2.06,4.2.5,1.16,3.36.31,2.89-.77Z"/><path class="cls-1" d="M274.29,263.76c-.19,1-.33,2-.57,2.95l-.33,1.47-.41,1.46a20.32,20.32,0,0,1-.6,2.12,25.74,25.74,0,0,1-3.7,6.84,14.09,14.09,0,0,1-1.07,1.35,15.65,15.65,0,0,1-1.11,1.31c-.52.51-1,1.07-1.56,1.56a12.33,12.33,0,0,1-1.83,1.21c-.41.21-.63-.26-.64-.9a2.56,2.56,0,0,1,.78-1.93,31.15,31.15,0,0,0,5.06-6.21,17.54,17.54,0,0,0,1.83-4.71c.25-.9.46-1.82.68-2.74s.38-1.86.48-2.81c.18-1.17.31-2.34.41-3.52.13-1.79.26-3.6.24-5.4,0-1.39-.28-2.77-.31-4.16,0-.3-.05-.6,0-.91a2,2,0,0,1,.27-1.21,1.34,1.34,0,0,1,.76-.53c.14-.05.28-.12.4-.15.35-.11,1,.37,1.24,1.21a24.83,24.83,0,0,1,.65,7.74c-.07,2-.3,4-.56,6Z"/><path class="cls-1" d="M260.87,287a73.21,73.21,0,0,0-.74,23.81c.06.42,2.25,0,2.17-.58a72.8,72.8,0,0,1,.71-23.61c.1-.47-2-.15-2.14.38Z"/><path class="cls-1" d="M363.71,409.67a71.18,71.18,0,0,0,1.37-11.73c.23-4-.06-8-.14-11.95-.15-2-.38-4-.57-6l-.3-3-.47-3-.94-5.94-1.24-5.9c-.54-2.88-1.37-5.71-2.1-8.55s-1.59-5.65-2.41-8.47a306.57,306.57,0,0,0-23.75-57.41c-2.25-4-4.54-8-7.16-11.77s-5.42-7.43-8.31-10.93c-1.87-2.25-3.81-4.44-5.84-6.53a69.45,69.45,0,0,0-6.37-5.91,31.77,31.77,0,0,0-3.48-2.46,17.07,17.07,0,0,0-3.7-1.75,6.48,6.48,0,0,0-3.73-.24,6,6,0,0,0-3,2.2c-.54.65-.83,1.22-1.09,1.54s-.41.45-.5.39-.08-.32,0-.75a6.5,6.5,0,0,1,.55-1.81,5.25,5.25,0,0,1,.66-1.22l.46-.67c.19-.21.41-.41.63-.63a6.28,6.28,0,0,1,1.69-1.15l1.07-.37a6.25,6.25,0,0,1,1.16-.2,11.31,11.31,0,0,1,4.94.68,23,23,0,0,1,4.64,2.5,73.75,73.75,0,0,1,13.34,12.87q3,3.51,5.68,7.18c.92,1.21,1.81,2.45,2.7,3.67l2.59,3.84a234.16,234.16,0,0,1,16.67,32.53c5.67,13.43,11.22,27.6,15.14,42,1,4,2.12,7.94,2.89,12,.4,2,.91,4,1.22,6.05l1,6.1a131.37,131.37,0,0,1,1.27,24.68,62.79,62.79,0,0,1-2.49,15.14,32.3,32.3,0,0,1-3.14,7.13,21.69,21.69,0,0,1-5.18,6,20.65,20.65,0,0,1-11.12,4.2,89.52,89.52,0,0,1-11.58.06,134,134,0,0,1-22.64-3.61c-11.49-2.72-22.48-6.41-33.54-9.76-2.44-.74-4.84-1.38-7.29-2a77.4,77.4,0,0,0-9.6-1.94c-.5-.06-1-.13-1.38-.2s-.78-.08-1.13-.15c-.69-.15-1.22-.16-1.77-.31s-1.11,0-1.45-.1-.28-.2,0-.48a5.25,5.25,0,0,1,1.76-1,16.45,16.45,0,0,1,8.43-.46,112.72,112.72,0,0,1,15.53,3.9c5.1,1.58,10.18,3.28,15.32,4.84,10.27,3.16,20.77,6,31.46,7.31a99.35,99.35,0,0,0,11.92.75c1,0,2,0,3-.05s2-.05,2.92-.16a19.24,19.24,0,0,0,5.31-1.25,17,17,0,0,0,8.09-7,33.55,33.55,0,0,0,4-10.74Z"/><path class="cls-1" d="M287.3,331.16c-.53-5-1.13-10-1.76-15l-.77-5.48c-.82-6.45-1.49-12.94-2.07-19.44-.25-2.88-.52-5.78-.72-8.65a45.32,45.32,0,0,1,.39-11.15c.22-1.15.53-.92.79.08a29.18,29.18,0,0,1,.63,4.84c.06,1.84.22,3.69.37,5.54s.29,3.71.46,5.56q.57,5.59,1.13,11.21c.46,4.5,1.22,9.15,1.85,13.74.68,5.05,1.34,10.11,1.95,15.17q.56,4.68,1,9.38c.48,4.73.83,9.51,1.06,14.24.05.93.09,1.84.13,2.76s.07,1.83.1,2.74,0,1.83,0,2.75-.08,1.83-.12,2.75-.14,1.61-.23,2.43c-.5,3-1.13,3.92-1.8,4.4a3.3,3.3,0,0,1-.47.3c-.48.15-.44-1.1-.36-3.22.23-3.14.16-6.38.15-9.69s-.21-6.68-.44-10.06c-.35-5-.82-10.09-1.41-15.14Z"/><path class="cls-1" d="M287.88,460.41c.32-2.46.67-4.92.92-7.39.11-.9.09-1.81.19-2.71.34-3.17.75-6.35,1-9.55.09-1.42.18-2.84.21-4.25a49.78,49.78,0,0,1,.41-5.44c.14-1.13,1.18.3,1.6,2.4a40.64,40.64,0,0,1,.15,11.18c-.26,2.24-.17,4.58-.37,6.87-.2,2.52-.46,5-.75,7.54l-.58,4.63c-.29,2.33-.64,4.67-.88,7-.18,1.81-.23,3.59-.37,5.38,0,.39-.06.77-.12,1.17-.24,1.45-.52,1.89-1.22,2.11a3.18,3.18,0,0,1-.47.15c-.51.07-.86-.58-1-1.68a33.87,33.87,0,0,1-.1-4.94c0-1.66.23-3.33.41-5l.87-7.46Z"/><path class="cls-1" d="M279.94,375.9c4.15.74,8.28,1.51,12.43,2.16,1.52.25,3,.39,4.55.62,2.67.4,5.34.77,8,1.09s5.35.59,8,.74a52.43,52.43,0,0,0,7.1-.15c.75-.06,1.49-.19,2.23-.28s1.46-.3,2.2-.41a21.09,21.09,0,0,0,4.18-1.28c.83-.34,1,0,.5.83a4.86,4.86,0,0,1-1.29,1.37,8.41,8.41,0,0,1-1,.7,9.58,9.58,0,0,1-1.25.52,35.64,35.64,0,0,1-9.65,1.33,74.29,74.29,0,0,1-9.56-.47c-3.79-.46-7.73-.74-11.57-1.25-4.23-.57-8.43-1.24-12.63-1.92l-7.74-1.28c-3.9-.63-7.82-1.29-11.7-1.72a77.62,77.62,0,0,0-9-.37l-1.92.05c-2.39,0-3.05,0-3.72-.79a4,4,0,0,1-.45-.48c-.19-.28-.07-.58.37-.91a3.4,3.4,0,0,1,.88-.48,10.77,10.77,0,0,1,1.26-.33,35.06,35.06,0,0,1,8.56-.28c2.85.19,5.71.54,8.55.93,4.23.58,8.44,1.31,12.63,2Z"/><path class="cls-1" d="M323.58,360.85a26.31,26.31,0,0,0-.63-3.3c-.1-.41-.29-.77-.41-1.16a22,22,0,0,0-1.52-4.08,8.71,8.71,0,0,0-1.06-1.6l-.83-.89a4.76,4.76,0,0,1-.75-1c-.13-.23.23-.59.73-.81a1.57,1.57,0,0,1,1.6.1,11.9,11.9,0,0,1,3,4.69c.37,1,.93,2,1.3,3.09a29,29,0,0,1,.95,3.55c.14.73.28,1.47.38,2.21.19,1.12.21,2.27.32,3.39a22.77,22.77,0,0,1,.24,2.62,5.81,5.81,0,0,1,0,.59c-.14.73-.35.94-.9,1a2.33,2.33,0,0,1-.37,0c-.4,0-.72-.33-.86-.82-.21-.73-.42-1.45-.55-2.16l-.27-2.19c-.18-1.08-.24-2.2-.46-3.3Z"/><path class="cls-1" d="M250.74,412.87a30,30,0,0,0,2.8-7.79c.24-1,.38-2.06.59-3.09.8-3.63,1.5-7.34,2.17-11.06.29-1.66.58-3.33.86-5a15.09,15.09,0,0,1,2.24-6.21c.45-.59.69-.24.79.45a9.34,9.34,0,0,1,0,2.84c-.12.5-.19,1-.28,1.53s-.15,1-.25,1.55c-.19,1-.36,2.09-.53,3.15-.34,2.12-.68,4.27-1.12,6.43-.54,2.57-.7,5.33-1.27,8a45.37,45.37,0,0,1-2.55,8.72,14.06,14.06,0,0,1-3.26,4.86c-.3.25-.62.48-.94.71a9.38,9.38,0,0,1-1.1.54,3.06,3.06,0,0,1-1.43.21,2.82,2.82,0,0,1-1.35-.58,5.29,5.29,0,0,1-1.38-2.07A18.44,18.44,0,0,1,244,414c-.55-2.12-1-4.17-1.46-6.2-.1-.44-.21-.87-.29-1.31-.33-1.64-.33-2.08.14-2.65.11-.13.2-.29.31-.4.35-.39,1.12.18,1.63,1.46a34.19,34.19,0,0,1,1.6,5.65c.22.93.43,1.85.67,2.73a10.08,10.08,0,0,0,.87,2.27c.33.47.23.31.24.35l.11,0a6.35,6.35,0,0,0,.6-.33,7.89,7.89,0,0,0,2.22-2.69Z"/><path class="cls-1" d="M256.54,398.75c-5.34-1.31-11-2.78-15.73-5.75-.94-.6-3.56.73-2.26,1.55,4.85,3.07,10.75,4.62,16.27,6,1.1.27,3.42-1.36,1.72-1.78Z"/><path class="cls-1" d="M265.16,350.73c-.29,1.51-.54,3-.77,4.56-.08.56-.1,1.13-.19,1.69-.29,2-.69,3.95-1,5.93-.16.87-.25,1.76-.39,2.64a11.25,11.25,0,0,1-.8,3.38c-.15.33-.46.17-.73-.22a2.43,2.43,0,0,1-.41-1.58c.29-2.2.44-4.48.85-6.75.23-1.37.23-2.82.37-4.23s.35-3.12.55-4.68c.14-1,.26-1.91.42-2.87.23-1.45.52-2.9.79-4.35.2-1.13.31-2.27.62-3.43.07-.25.12-.51.21-.76.39-.95.78-1.17,1.4-1a2.25,2.25,0,0,1,.44.14,1.1,1.1,0,0,1,.49,1.31c-.36,1.71-.69,3.67-1,5.67-.27,1.48-.47,3-.73,4.53Z"/><path class="cls-1" d="M256.83,461.32c-.46-2.89-.81-5.8-1.09-8.71-.12-1.06-.28-2.11-.36-3.17-.24-3.75-.39-7.49-.37-11.23,0-1.65-.06-3.32-.13-5a48,48,0,0,1,.28-6.33c.08-.65.41-.57.8,0a6.75,6.75,0,0,1,1.06,2.76l.42,3.19c.1,1.06.13,2.13.19,3.19.09,2.13.18,4.26.14,6.42a64.92,64.92,0,0,0,.65,7.82c.3,2.87.65,5.73,1.12,8.58l.43,2.63.51,2.61c.26,1.32.57,2.63.86,3.95s.66,2.61,1.07,3.88c.63,2,1.41,3.87,2.12,5.79L265,479c.53,1.6.45,2.21.05,2.75a3.76,3.76,0,0,1-.28.36c-.33.3-.93-.21-1.64-1.29a45.4,45.4,0,0,1-2.57-5.18,59,59,0,0,1-1.84-5.64c-.81-2.84-1.43-5.74-2-8.65Z"/><path class="cls-1" d="M204.33,455.56l1.28-7.39c.15-.89.2-1.8.36-2.7.53-3.16,1.15-6.31,1.57-9.48.2-1.4.34-2.82.41-4.21,0-1.79.32-3.6.19-5.35,0-.54.17-.54.52-.11a4,4,0,0,1,.56.95,6.08,6.08,0,0,1,.51,1.44l.27,1.43c.07.47.07.95.1,1.43,0,.95.05,1.89,0,2.83a34,34,0,0,1-.57,5.61c-.39,2.23-.48,4.56-.79,6.83l-1.08,7.48-.65,4.59c-.31,2.32-.68,4.64-.84,6.95a52,52,0,0,0,0,5.3c0,.38.06.74.05,1.12,0,1.39-.1,1.72-.75,2.18-.15.1-.29.24-.44.33a.61.61,0,0,1-.81-.14,2.79,2.79,0,0,1-.7-1.31,19.18,19.18,0,0,1-.6-5.13c0-1.71.13-3.42.29-5.12.11-1.26.26-2.52.42-3.78l.56-3.75Z"/><path class="cls-1" d="M330.5,457.11c-.34-1.42-.62-2.87-1-4.3-.13-.52-.34-1-.46-1.55-.42-1.86-.88-3.73-1.2-5.65-.13-.85-.35-1.68-.49-2.53a14.76,14.76,0,0,1-.27-1.64,6.3,6.3,0,0,1,0-1.68c.05-.35.46-.29.88,0a2.14,2.14,0,0,1,1,1.29c.43,2,1.21,4,1.6,6.13A29.15,29.15,0,0,0,331.8,451c.46,1.41.9,2.83,1.32,4.27l.72,2.67c.36,1.35.7,2.72,1,4.07.29,1,.71,2,1,3.07.05.23.13.46.17.69.11.88-.14,1.22-.68,1.49a2.61,2.61,0,0,1-.37.19c-.41.15-.87-.13-1.29-.68a21.25,21.25,0,0,1-2.18-5.38c-.38-1.39-.7-2.82-1.1-4.23Z"/><path class="cls-1" d="M308,147.54a21.73,21.73,0,0,0,1.1-6.46c0-.39-.05-.78-.09-1.17s-.12-.76-.18-1.14a7.88,7.88,0,0,0-1.33-3.63,3.86,3.86,0,0,0-.63-.71l-.35-.33-.4-.26a3.73,3.73,0,0,0-.86-.46,2.92,2.92,0,0,0-.86-.27,5.2,5.2,0,0,0-3.29,1,8.71,8.71,0,0,0-1.74,1.57,6.53,6.53,0,0,0-1.17,1.82c-.13.35-.62.42-1-.17a2.63,2.63,0,0,1,.21-2.85,9.68,9.68,0,0,1,5-3.57,6.58,6.58,0,0,1,1.7-.24,4.88,4.88,0,0,1,.92.07,4.45,4.45,0,0,1,.86.23,8,8,0,0,1,1.46.67,6.88,6.88,0,0,1,1.3,1,11.25,11.25,0,0,1,3.33,6.54,21.79,21.79,0,0,1-.46,7.58,27.56,27.56,0,0,1-1.36,4.39,26,26,0,0,1-3.37,6.1,11,11,0,0,1-4.31,3.82,5.65,5.65,0,0,1-1.41.38,2.62,2.62,0,0,1-1.18-.07,2,2,0,0,1-.74-.31,1.28,1.28,0,0,1-.45-1.08,2.75,2.75,0,0,1,0-.58c.15-.62.87-.85,1.54-1a5.39,5.39,0,0,0,2.69-1.6,15,15,0,0,0,2.44-3.21,25.38,25.38,0,0,0,2.56-6Z"/><path class="cls-1" d="M254.76,158.13a5,5,0,0,1-2,1.56,6.09,6.09,0,0,1-2.19.53,9.71,9.71,0,0,1-2-.08,5.33,5.33,0,0,1-1-.2,4.88,4.88,0,0,1-1-.31,9.56,9.56,0,0,1-2.44-1.34,16,16,0,0,1-3.09-3.3,29.71,29.71,0,0,1-2.32-3.67c-.63-1.11-1.22-2.24-1.8-3.35a13.61,13.61,0,0,1-1.53-4.62c-.05-.52.41-.55,1-.29a4,4,0,0,1,.92.59,2.93,2.93,0,0,1,.79.95c.75,1.35,1.41,2.72,2.13,4.08s1.49,2.68,2.32,4a11.84,11.84,0,0,0,3.89,3.71,6.8,6.8,0,0,0,1.21.6,6.12,6.12,0,0,0,1.29.27,4.66,4.66,0,0,0,2.51-.31,2.88,2.88,0,0,0,1.34-2.47,15.13,15.13,0,0,0-.79-5.64,33.21,33.21,0,0,0-1.86-4.19c-.14-.31-.31-.6-.43-.93-.46-1.19-.2-1.78.35-2.25a2.38,2.38,0,0,1,.36-.3.79.79,0,0,1,.74,0,2.54,2.54,0,0,1,.95.74,16.1,16.1,0,0,1,2.14,3.79,26,26,0,0,1,1.42,4.42,14.32,14.32,0,0,1,.38,3.72,7.62,7.62,0,0,1-1.31,4.3Z"/><path class="cls-1" d="M277.8,148.39a8.23,8.23,0,0,1-1.37,3.78,5.27,5.27,0,0,1-3.88,2.21,5.78,5.78,0,0,1-3-.59,11.22,11.22,0,0,1-3.4-3,18.74,18.74,0,0,1-1.23-1.73,16.57,16.57,0,0,1-1-1.82c-.51-1.06-1.1-2.09-1.64-3.16a14.77,14.77,0,0,1-1.51-4.33c-.07-.47.29-.52.8-.28A4,4,0,0,1,263.2,141c.36.64.75,1.25,1.14,1.87l1.14,1.88c.38.63.8,1.3,1.14,1.95s.66,1.18,1,1.77a7.23,7.23,0,0,0,3.7,2.87c1.3.39,2.56-.33,2.95-2a10.78,10.78,0,0,0,.2-3.4,39.17,39.17,0,0,0-.88-5.58c-.34-1.44-.91-2.82-1.19-4.37a7.43,7.43,0,0,1-.18-1.05,4.23,4.23,0,0,1,0-.89,1.69,1.69,0,0,1,.28-.62,1.24,1.24,0,0,1,1-.52,2.8,2.8,0,0,1,.57,0,1.26,1.26,0,0,1,.75.42,2.85,2.85,0,0,1,.59.83c.32,1,.8,2.24,1.16,3.51s.65,2.63.91,4a25.19,25.19,0,0,1,.36,6.76Z"/><path class="cls-1" d="M271.86,168.69a20.08,20.08,0,0,0-1-6.59c-.23-.81-.64-1.57-.92-2.37a61.15,61.15,0,0,0-4.07-8.24c-.69-1.19-1.51-2.32-2.29-3.45a26.49,26.49,0,0,1-2.8-4.6c-.22-.54.2-.66.83-.5a4.45,4.45,0,0,1,2.17,1.33,40.58,40.58,0,0,1,6.21,9c1,2,2.19,4,3.06,6.16a25.6,25.6,0,0,1,1.87,7.48l0,1.21a7.87,7.87,0,0,1,0,1.27,5.23,5.23,0,0,1-1,2.64,5.72,5.72,0,0,1-3.56,2,14.32,14.32,0,0,1-3.68.15,23,23,0,0,1-5.47-.92c-.39-.14-.79-.25-1.17-.43a2.89,2.89,0,0,1-1.37-1,1.28,1.28,0,0,1-.15-1.07,3,3,0,0,1,.15-.48c.27-.45.91-.44,1.85-.28a39.55,39.55,0,0,0,4.23.9,16.45,16.45,0,0,0,4.21.25,4.37,4.37,0,0,0,2.21-.71,1.87,1.87,0,0,0,.62-1.7Z"/><path class="cls-1" d="M228.46,134.94c3-5,7.75-6.62,13.38-6.58,2.57,0,2.57-4,0-4-7.05,0-13.09,2.39-16.83,8.57-1.34,2.2,2.11,4.21,3.45,2Z"/><path class="cls-1" d="M254.93,120.24c8,7.31,13.56-2.86,19.94-6.78,2.19-1.34.18-4.8-2-3.45-4.17,2.56-10,12.07-15.09,7.4-1.9-1.74-4.73,1.09-2.83,2.83Z"/><path class="cls-1" d="M262.07,188.7c.17.26-.1-.46-.06-.18a.65.65,0,0,0,0,.19,3,3,0,0,0,.32.76,2.7,2.7,0,0,0,2.4,1.15,2.08,2.08,0,0,0,1.93-1.47,4.69,4.69,0,0,0,0-2.6,2,2,0,0,0-1.4-1.4,2.45,2.45,0,0,0-2,.16,4.82,4.82,0,0,0-.51.38c-.34.28.36-.23.43-.25a2,2,0,0,0-1.4,2.46,2.06,2.06,0,0,0,2.47,1.4,2.69,2.69,0,0,0,1.16-.63s.1-.07.11-.1c.25-.23,0-.17-.73.17-.83.09-1,.17-.64.27l-1.4-1.4.09.44c0,.09.08.41,0,0,0-.19,0-.24,0-.13s0,.06.05-.29c-.06,0-.12.38-.14.43l1.93-1.46c-.25,0-.2,0,.14,0a1.67,1.67,0,0,1,.88.72c0,.09.18.56.11.22a2.72,2.72,0,0,0-.38-.93,2,2,0,1,0-3.45,2Z"/><path class="cls-1" d="M377.63,63.34c-.13,2.71-.27,5.41-.35,8.12l0,3c-.1,3.48-.22,7-.19,10.45,0,1.54.1,3.09.2,4.61.16,2,.41,3.92.46,5.89,0,.61-.36.58-.78.1a5.11,5.11,0,0,1-1.07-2.53,79.77,79.77,0,0,1-.7-12.17c0-2.44-.08-5-.08-7.47,0-2.74.07-5.48.14-8.21l.13-5.05c.06-2.55.16-5.11.15-7.64,0-2-.16-3.89-.26-5.83,0-.43-.07-.85-.08-1.28,0-1.59.22-2.1.86-2.45a4.33,4.33,0,0,1,.42-.22c.45-.16.9.5,1.09,1.67A65.81,65.81,0,0,1,378,55.13c-.09,2.73-.19,5.47-.29,8.2Z"/><path class="cls-1" d="M402.93,37.76c3.51.13,7,.32,10.51.52,1.27.06,2.55.09,3.82.18,4.5.29,9,.66,13.47,1,2,.16,4,.26,6,.36,2.54.12,5.1.23,7.6.49.78.08.69.41,0,.74a7.79,7.79,0,0,1-3.42.61c-5.2-.13-10.37-.51-15.58-.95-3.12-.28-6.38-.33-9.57-.46-3.51-.15-7-.29-10.54-.38-2.16-.08-4.33-.1-6.49-.14h-4.91c-1.64,0-3.27.1-4.89.17-2.51.18-5,.46-7.41.88l-1.61.25c-2,.4-2.62.37-3.18-.13a3.28,3.28,0,0,1-.38-.35c-.3-.41.46-.93,2-1.33a64.68,64.68,0,0,1,14-1.55c3.55-.09,7.1,0,10.64,0Z"/><path class="cls-1" d="M448.22,91.17l0,1.82-.05,2.16-.08.41c0,.06,0,.14-.07.18L448,96a2.66,2.66,0,0,1-.52.64,5.19,5.19,0,0,1-.71.48l-.36.19-.25.12c-.65.28-1.26.5-1.88.7-1.23.4-2.46.72-3.69,1-2.45.58-4.91,1.06-7.37,1.49-2.23.38-4.46.78-6.7,1.06a157.18,157.18,0,0,1-23.85,1.18c-3.53-.1-7.08-.33-10.57-.78a63.51,63.51,0,0,1-6.68-1.17A38.14,38.14,0,0,1,379,98.67c-1.28-.61-1-.76.2-.6s3.36.45,5.85.88a84.16,84.16,0,0,0,13.38,1.61c4.51.27,9.06.3,13.63.18A133.85,133.85,0,0,0,428.7,99c3.05-.48,6.08-1,9.07-1.7,1.5-.33,3-.7,4.45-1.13.72-.21,1.45-.44,2.14-.7a9.76,9.76,0,0,0,1-.41.93.93,0,0,0,.42-.3,1.23,1.23,0,0,0,0-.19l0-1.16c0-.45,0-.91,0-1.36,0-.91,0-1.82-.07-2.74-.06-1.82-.16-3.65-.26-5.48-.33-5.77-.67-11.57-.89-17.32a132.3,132.3,0,0,1,0-13.36c0-1,.16-2,.28-3a15.31,15.31,0,0,1,.51-2.31,8.81,8.81,0,0,1,.54-1.53,4.92,4.92,0,0,1,1.24-1.45,3,3,0,0,1,.48-.36c.21-.1.26.23.25.91a28.51,28.51,0,0,1-.25,2.94A90.22,90.22,0,0,0,447,60.19c0,4,.17,8.18.39,12.32.3,6.16.78,12.35.94,18.65Z"/><path class="cls-1" d="M397.31,56.7a2.47,2.47,0,0,1-.25,1.45,2.68,2.68,0,0,1-.78.92,2.45,2.45,0,0,1-.67.47,2.26,2.26,0,0,1-1.58.08,2.33,2.33,0,0,1-1.13-.83,5.06,5.06,0,0,1-.58-.94,1.45,1.45,0,0,1-.07-1.4c.09-.14.53,0,1,.18a7,7,0,0,1,.88.33c.08.27.2.54.27.81s.2.09.39,0a1.08,1.08,0,0,0,.48-.47.34.34,0,0,0,0-.32.39.39,0,0,0-.49-.18c-.15.1-.19.32-.21.57a.32.32,0,0,1,0,.14c0,.18-.33.1-.86-.07l-.36-.13a1.06,1.06,0,0,1-.76-.77,1.71,1.71,0,0,1,.67-1.43,2.57,2.57,0,0,1,2-.58,2.64,2.64,0,0,1,2.18,2.18Z"/><path class="cls-1" d="M397,68.19a2.85,2.85,0,0,1-.17,1.31,2.09,2.09,0,0,1-.86,1.09,1.59,1.59,0,0,1-.41.26A1.14,1.14,0,0,1,395,71a2.18,2.18,0,0,1-1.6-.37,2.52,2.52,0,0,1-.85-1.08,4.11,4.11,0,0,1-.34-1.08,1.45,1.45,0,0,1,.43-1.44c.14-.11.4.18.65.47s.57.52.58.56a4.06,4.06,0,0,0,.31,1c.06.22.25.2.39.16a.45.45,0,0,0,.39-.42,1.24,1.24,0,0,0-.09-.59.86.86,0,0,0-.22-.33c-.08-.08-.08,0-.11,0a1.53,1.53,0,0,0-.11.63,1.54,1.54,0,0,1,0,.19c-.06.23-.23.25-.79.14l-.38-.07c-.42-.08-.72-.31-.76-.62a1.35,1.35,0,0,1,0-.69,1.86,1.86,0,0,1,.35-.75,2,2,0,0,1,.34-.39,3.94,3.94,0,0,1,.55-.35,2.86,2.86,0,0,1,.78-.18,3,3,0,0,1,.77.13A2.49,2.49,0,0,1,396.57,67a3.42,3.42,0,0,1,.43,1.23Z"/><path class="cls-1" d="M397,79.09a2.88,2.88,0,0,1-.17,1.31,2.09,2.09,0,0,1-.86,1.09,1.59,1.59,0,0,1-.41.26,1.14,1.14,0,0,1-.47.16,2.18,2.18,0,0,1-1.6-.37,2.55,2.55,0,0,1-.85-1.09,4,4,0,0,1-.34-1.08,1.44,1.44,0,0,1,.43-1.43c.14-.11.4.18.65.46s.57.53.58.57a4.2,4.2,0,0,0,.31,1c.06.22.25.19.39.16a.45.45,0,0,0,.39-.42,1.28,1.28,0,0,0-.09-.6.75.75,0,0,0-.22-.32c-.08-.08-.08,0-.11,0a1.59,1.59,0,0,0-.11.64,1.24,1.24,0,0,1,0,.18c-.06.24-.23.26-.79.15l-.38-.07c-.42-.09-.72-.31-.76-.62a1.35,1.35,0,0,1,0-.69,1.81,1.81,0,0,1,.35-.75,2,2,0,0,1,.34-.39,4,4,0,0,1,.55-.36,2.85,2.85,0,0,1,.78-.17,2.59,2.59,0,0,1,.77.13,2.44,2.44,0,0,1,1.25,1.08,3.42,3.42,0,0,1,.43,1.23Z"/><path class="cls-1" d="M419.84,57h-4.47c-.55,0-1.09.07-1.63.07l-5.77,0c-.85,0-1.71,0-2.56.09a17,17,0,0,1-3.27,0c-.67-.09.15-1.56,1.39-1.68a48.72,48.72,0,0,1,6.63-.2c1.34.07,2.72-.1,4.09-.15l4.51-.13,2.78-.07c1.4,0,2.81,0,4.2-.13,1.09,0,2.14-.27,3.22-.33a5.63,5.63,0,0,1,.71,0c.88,0,1.17.16,1.35.66a2.79,2.79,0,0,1,.12.34c.09.38-.27.71-.91.87a24.46,24.46,0,0,1-5.89.65l-4.49.09Z"/><path class="cls-1" d="M415.17,68.82c-1,0-2-.07-3-.08-.36,0-.72.05-1.09,0l-3.87-.13a16.27,16.27,0,0,0-1.71,0,7.66,7.66,0,0,1-2.19,0c-.46-.1.12-1.5.93-1.6a24.79,24.79,0,0,1,4.4-.13,19.18,19.18,0,0,0,2.72-.12l3-.09,1.86,0c.94,0,1.88,0,2.82,0,.72,0,1.43-.25,2.16-.25a3.77,3.77,0,0,1,.48,0c.59,0,.78.18.89.67a2.29,2.29,0,0,1,.07.34.8.8,0,0,1-.63.83,9.33,9.33,0,0,1-1.91.52c-.65.07-1.31.1-2,.13-1,0-2,0-3,0Z"/><path class="cls-1" d="M418.27,80.84l-3.93-.15c-.48,0-.95,0-1.43,0l-5.06-.23c-.75,0-1.5,0-2.25,0a12.56,12.56,0,0,1-2.87-.09c-.29-.06-.25-.43,0-.81a1.81,1.81,0,0,1,1.25-.83c1-.08,1.93-.15,2.9-.18a28.75,28.75,0,0,1,2.92.12,35.76,35.76,0,0,0,3.58-.07c1.32,0,2.64,0,4,0l2.44,0c1.23,0,2.46,0,3.68,0,1,0,1.88-.23,2.82-.22.21,0,.41,0,.62,0,.78,0,1,.2,1.19.64a1.82,1.82,0,0,1,.11.3c.07.32-.24.61-.8.79a16.37,16.37,0,0,1-2.55.63,20.87,20.87,0,0,1-2.63.17c-1.31,0-2.63,0-4,0Z"/><path class="cls-1" d="M450.22,92.12l0,1.86-.05,2.17-.08.39c0,.06,0,.14-.06.18l-.05.19a2.5,2.5,0,0,1-.48.63,4.43,4.43,0,0,1-.65.49,3.24,3.24,0,0,1-.33.2l-.23.12a17.32,17.32,0,0,1-1.76.76c-1.15.44-2.3.8-3.45,1.14-2.3.67-4.61,1.23-6.93,1.74-2.13.47-4.25,1-6.39,1.31a147.55,147.55,0,0,1-22.87,2.09c-3.4,0-6.82,0-10.19-.34-2.16-.19-4.33-.45-6.48-.85a39.14,39.14,0,0,1-6.27-1.83c-1.26-.5-1-.67.17-.61s3.26.23,5.67.53a83.15,83.15,0,0,0,12.92,1c4.35.09,8.71-.06,13.1-.35a122.12,122.12,0,0,0,15.94-2.35c2.9-.58,5.78-1.25,8.63-2,1.42-.39,2.83-.82,4.2-1.3.69-.24,1.37-.49,2-.78l.47-.22.36-.19c.13-.09.32-.17.32-.35a.28.28,0,0,1,0-.09l0-1.15c0-.44,0-.89,0-1.33,0-.89,0-1.79-.06-2.68-.06-1.79-.16-3.59-.25-5.38-.32-5.54-.65-11.12-.88-16.65-.18-4.3-.39-8.53-.2-12.83,0-1,.11-1.88.19-2.84a18.91,18.91,0,0,1,.41-2.23,6.06,6.06,0,0,1,.45-1.48,4.54,4.54,0,0,1,1.09-1.46c.16-.13.32-.32.44-.39s.29.21.34.86a18.05,18.05,0,0,1-.05,2.88,175.22,175.22,0,0,0,.1,23.23c.31,5.93.75,11.88.91,17.93Z"/><path class="cls-1" d="M442.5,174.92l-9.66-1.59c-1.17-.18-2.36-.32-3.54-.53-4.14-.78-8.28-1.62-12.37-2.69l-5.44-1.39-3.46-1a26.9,26.9,0,0,1-3.33-1.39c-.67-.34-.39-.75.37-1a5.36,5.36,0,0,1,3.3,0c4.53,1.42,9.16,2.54,13.86,3.7,2.82.72,5.83,1,8.77,1.48l9.74,1.46,6,.94c3,.46,6.07,1.07,9.08,1.61,2.33.47,4.66.77,7,1.32.51.12,1,.2,1.52.37,1.86.59,2.4,1,2.56,1.76a3.64,3.64,0,0,1,.1.54c0,.56-.9.75-2.27.51-4.09-.65-8.25-1.67-12.56-2.43-3.18-.58-6.4-1.16-9.65-1.64Z"/><path class="cls-1" d="M394.19,217.53a26.36,26.36,0,0,0-.32,4.65,12.51,12.51,0,0,0,.27,2.16l0,.13,0,.06a1.12,1.12,0,0,0,.05.13,1.64,1.64,0,0,0,.16.28,3.48,3.48,0,0,0,.57.6,13.3,13.3,0,0,0,4,1.94,46.94,46.94,0,0,0,4.66,1.27c2.32.53,4.69.88,7.06,1.29,8.36,1.4,16.83,2.45,25.24,3.91,3.73.65,7.49,1.32,11.17,2.14a54.56,54.56,0,0,1,13.8,4.62c1.33.75,1,.9-.27.62s-3.53-.8-6.15-1.56c-9.32-2.74-19.08-3.84-28.85-5.39-5.86-.91-12-1.48-18-2.46a66,66,0,0,1-9.91-2.28,12.85,12.85,0,0,1-4.79-2.58,4.94,4.94,0,0,1-.94-1.3,6.67,6.67,0,0,1-.4-1.45,15.05,15.05,0,0,1-.26-2.65,51.28,51.28,0,0,1,1.94-12.39c1.59-6,3-12.06,4-18.14.8-4.72,1.31-9.38,1.85-14.09.11-1,.24-2,.39-3.08.56-3.86.91-5.07,1.67-5.82a3.28,3.28,0,0,1,.51-.49c.53-.31.75,1.32.61,4.19a168.85,168.85,0,0,1-3.55,26.28q-1,4.94-2.33,9.83a84,84,0,0,0-2.11,9.58Z"/><path class="cls-1" d="M414.86,188.42l.22-.72a11.32,11.32,0,0,1,.41-1.12,1.74,1.74,0,0,1,.3-.42A.26.26,0,0,1,416,186l.11,0h.1c-.09-.2,0-.06-.05-.1h0l.95,0c1.31.53,1.55.64,2.18.88l1.71.57c1.16.35,2.32.69,3.52,1s2.35.49,3.54.72c4.17.83,8.4,1.51,12.65,2.2,1.88.31,3.78.61,5.65,1a20.23,20.23,0,0,1,7,2.34c.67.42.42.57-.27.51a26.28,26.28,0,0,1-3.12-.57c-4.67-1.15-9.61-1.69-14.53-2.55-2.95-.51-6-.85-9.08-1.46-1.59-.32-3.18-.67-4.76-1.11-.79-.19-1.56-.47-2.35-.72-.39-.13-.78-.24-1.16-.4l-.82-.33-.17-.08c-.14-.11-.18.06-.22.15l-.12.34-.41,1.43c-.27,1-.53,2-.77,3-.74,3-1.43,6.1-2,9.15-.41,2.37-.66,4.73-.87,7.09l-.12,1.55c-.17,1.94-.33,2.53-.91,2.92a2.84,2.84,0,0,1-.39.25c-.43.17-.75-.67-.72-2.13a73.46,73.46,0,0,1,1.76-13.3c.7-3.31,1.49-6.6,2.42-9.89Z"/><path class="cls-1" d="M434.68,218.92c2.69.68,5.38,1.34,8.08,1.87,1,.19,2,.31,3,.46s1.73.23,2.58.28a7.57,7.57,0,0,0,2.37-.13l.22-.07.12-.06c.08,0,.11-.13.14-.21a9.34,9.34,0,0,0,.26-1.19c.15-.87.28-1.76.4-2.64.23-1.58.43-3.17.69-4.74a14.6,14.6,0,0,1,2-5.84c.38-.54.44-.37.36.19s-.11,1.55-.33,2.64-.36,2-.47,3l-.41,3-.39,3.07c-.07.52-.14,1-.23,1.57,0,.26-.09.52-.15.8s0,.26-.1.43a2.29,2.29,0,0,1-.22.59,1.35,1.35,0,0,1-.52.59,2.23,2.23,0,0,1-.63.37,5.79,5.79,0,0,1-1.12.29,13.15,13.15,0,0,1-2.06.1,28.13,28.13,0,0,1-3.93-.37c-2.8-.45-5.55-1.08-8.28-1.74l-5-1.24c-2.53-.63-5.07-1.3-7.6-1.85-2-.43-3.92-.72-5.88-1l-1.28-.15c-1.59-.23-2.06-.41-2.37-.93a2.24,2.24,0,0,1-.21-.36c-.14-.38.57-.68,1.82-.66a62.61,62.61,0,0,1,11,1.87l8.17,2Z"/><path class="cls-1" d="M441,209.65a4.75,4.75,0,0,1-1.07,0,5.78,5.78,0,0,1-1-.22,5.27,5.27,0,0,1-.9-.32c-.27-.12-.57-.23-.83-.37-1.05-.52-2-1.1-3-1.7-.69-.45-1.42-.84-2.09-1.31-2.39-1.64-4.62-3.45-6.87-5.22-1-.79-2-1.56-3-2.31a31,31,0,0,1-3.76-3.1c-.35-.37-.09-.58.46-.59a4,4,0,0,1,2.17.71c2.69,1.88,5.27,3.91,7.86,6,1.54,1.24,3.29,2.33,5,3.43.92.6,1.86,1.18,2.81,1.72a13.21,13.21,0,0,0,2.86,1.27c1.07.35,2.37-.11,3.61-.56a49.84,49.84,0,0,0,5.55-2.71c1.4-.79,2.72-1.67,4.1-2.49.3-.18.6-.37.91-.54,1.16-.63,1.62-.68,2.1-.32a2,2,0,0,1,.32.25c.29.32,0,.86-.84,1.38-2.36,1.57-4.92,3.06-7.62,4.49-1,.53-2,1-3.11,1.49a13.82,13.82,0,0,1-3.57,1.07Z"/><path class="cls-1" d="M392.64,219.71a24.59,24.59,0,0,0-.27,4.24,11,11,0,0,0,.23,2,.73.73,0,0,0,.11.33c.05.08,0,.17.11.26a3,3,0,0,0,.49.57,11.36,11.36,0,0,0,3.45,1.94,40,40,0,0,0,4.18,1.35c2.09.57,4.24,1,6.39,1.4,7.58,1.54,15.29,2.67,23,4.05,3.41.61,6.84,1.2,10.21,1.87a78,78,0,0,1,12.83,3.4c1.3.49,1,.69-.18.64a39.79,39.79,0,0,1-5.79-.82c-8.69-2-17.59-3.08-26.51-4.64-5.34-.94-11-1.59-16.45-2.68a55.66,55.66,0,0,1-9-2.45l-1.1-.48c-.37-.18-.73-.38-1.1-.57s-.71-.46-1.06-.69a7.76,7.76,0,0,1-1-.91,4.93,4.93,0,0,1-1.15-2.55,15.8,15.8,0,0,1-.22-2.44,49.07,49.07,0,0,1,1.66-11.36c1.39-5.55,2.9-11,3.9-16.54a96.54,96.54,0,0,0,1.44-12.82c0-.94.09-1.86.13-2.8.18-3.51.31-4.63,1-5.41a3.4,3.4,0,0,1,.43-.52c.46-.36,1,1.09,1.17,3.75.63,7.92-.81,16.23-2.67,24.26-1.35,6-3.32,11.85-4.09,17.66Z"/><path class="cls-1" d="M440.17,210.14a8,8,0,0,1-3.15-.88,29.26,29.26,0,0,1-2.67-1.39c-.64-.35-1.27-.71-1.89-1.09-2.15-1.35-4.2-2.85-6.24-4.35l-2.74-2a30.79,30.79,0,0,1-3.38-2.65c-.33-.31-.13-.46.31-.42a4.1,4.1,0,0,1,1.83.71c2.4,1.63,4.73,3.35,7.1,5.07,1.41,1,3,2,4.5,2.87a27.09,27.09,0,0,0,5.18,2.56,3.65,3.65,0,0,0,1.6.15,8,8,0,0,0,1.68-.42,33,33,0,0,0,4.95-2.29c1.24-.68,2.41-1.44,3.62-2.16l.8-.48c1-.56,1.39-.64,1.78-.43a1,1,0,0,1,.26.16c.23.2-.08.63-.78,1.09a68.89,68.89,0,0,1-6.78,3.94c-.9.45-1.82.89-2.79,1.26a10,10,0,0,1-3.19.75Z"/><path class="cls-1" d="M89.34,126.05,80,128.87c-1.14.35-2.27.75-3.41,1.08-4.06,1.13-8.15,2.2-12.29,3l-5.51,1.15-3.54.64a28.7,28.7,0,0,1-3.59.21c-.75,0-.69-.5-.11-1.07a5.41,5.41,0,0,1,3-1.42c4.7-.72,9.34-1.74,14.08-2.77,2.84-.6,5.69-1.64,8.53-2.53l9.38-3,5.8-1.81c2.94-.92,5.92-1.71,8.87-2.54,2.3-.61,4.52-1.37,6.83-1.89.51-.11,1-.26,1.53-.33,1.93-.3,2.58-.19,3.07.45a3.15,3.15,0,0,1,.33.44c.24.51-.48,1.07-1.81,1.46-4,1.21-8.14,2.13-12.35,3.34-3.12.88-6.26,1.78-9.39,2.77Z"/><path class="cls-1" d="M64.71,185.57a24.65,24.65,0,0,0,1.77,4.31,10.78,10.78,0,0,0,1.19,1.82l.08.11,0,.05s0,.06.09.09a1.81,1.81,0,0,0,.27.18,3.28,3.28,0,0,0,.79.29,13.1,13.1,0,0,0,4.42,0,44.43,44.43,0,0,0,4.74-.91c2.32-.55,4.61-1.27,6.91-1.95,8.12-2.42,16.19-5.21,24.39-7.59,3.63-1.07,7.3-2.12,11-3A54.37,54.37,0,0,1,134.8,177c1.52.08,1.29.36,0,.67s-3.53.84-6.21,1.31c-9.57,1.64-18.83,4.94-28.28,7.85-5.66,1.77-11.43,4-17.28,5.73a65.74,65.74,0,0,1-9.9,2.32,12.89,12.89,0,0,1-5.43-.21,5,5,0,0,1-1.42-.75,6.46,6.46,0,0,1-1-1.12,15.52,15.52,0,0,1-1.4-2.28,50.89,50.89,0,0,1-3.71-12c-1.22-6.1-2.63-12.14-4.39-18-1.36-4.59-3-9-4.54-13.47-.35-1-.68-1.94-1-2.94-1.2-3.71-1.41-4.95-1.06-5.95a3.68,3.68,0,0,1,.24-.67c.34-.51,1.26.85,2.4,3.49a169.85,169.85,0,0,1,8.37,25.16c.84,3.25,1.58,6.55,2.24,9.85a81.85,81.85,0,0,0,2.32,9.53Z"/><path class="cls-1" d="M128.23,150.85q-1-3.78-2.21-7.51l-1-2.7c-1.06-3.2-2.19-6.39-3.29-9.6-.49-1.42-1-2.83-1.54-4.24a16.24,16.24,0,0,1-1.39-5.76c.07-.72.46-.49.86,0A6.1,6.1,0,0,1,121,123.2c1.19,3.58,2.78,7.18,4,10.93.72,2.25,1.72,4.5,2.54,6.78q1.35,3.75,2.52,7.58c.47,1.58.92,3.16,1.32,4.75.63,2.41,1.12,4.88,1.55,7.32a47.83,47.83,0,0,1,.78,5.73,11,11,0,0,1,0,1.28,4.29,4.29,0,0,1-.25,1.7,1.17,1.17,0,0,1-.66.68,2.75,2.75,0,0,1-.41.17c-.44.08-.74-.58-.82-1.67a94.85,94.85,0,0,0-1.55-10c-.53-2.53-1.14-5.07-1.84-7.59Z"/><path class="cls-1" d="M64.28,188.21a24.19,24.19,0,0,0,1.63,3.93A10.52,10.52,0,0,0,67,193.8a.82.82,0,0,0,.24.25c.08,0,.09.14.21.18a3,3,0,0,0,.69.29,11.27,11.27,0,0,0,4,.23,41.59,41.59,0,0,0,4.34-.62c2.13-.42,4.23-1,6.35-1.56,7.49-2,14.91-4.34,22.41-6.47,3.32-1,6.66-1.93,10-2.82a78.55,78.55,0,0,1,13-2.59c1.37-.13,1.22.17.12.66a38.75,38.75,0,0,1-5.56,1.8c-8.68,2.06-17.15,5-25.86,7.51-5.2,1.51-10.53,3.4-15.94,4.83a55.34,55.34,0,0,1-9.16,1.76l-1.21.06-1.23,0c-.41,0-.84-.1-1.26-.15a10.63,10.63,0,0,1-1.3-.38A5,5,0,0,1,64.64,195a15.76,15.76,0,0,1-1.27-2.09,49.51,49.51,0,0,1-3.51-10.93c-1.19-5.6-2.24-11.16-3.77-16.57a97.2,97.2,0,0,0-4.36-12.14c-.37-.87-.73-1.71-1.11-2.58-1.38-3.23-1.76-4.29-1.52-5.28a3.43,3.43,0,0,1,.16-.65c.25-.53,1.36.54,2.7,2.85,4,6.83,6.41,14.93,8.27,23,1.44,6,2.24,12.09,4.11,17.66Z"/><path class="cls-1" d="M82.23,152.59c1.47-.3,2.93-.61,4.39-.94.53-.12,1-.3,1.58-.41,1.88-.42,3.76-.82,5.62-1.29.82-.2,1.63-.5,2.43-.74,1-.33,2-.69,3.09-.93.33-.07.41.21.26.6a2.25,2.25,0,0,1-1.11,1.19,26.89,26.89,0,0,1-6.4,2.07c-1.32.27-2.63.76-3.94,1.13-1.46.41-2.92.78-4.37,1.16l-2.7.7c-1.35.37-2.73.68-4.06,1.09-1,.32-2,.78-3,1.15-.23.08-.44.18-.67.25-.85.21-1.19,0-1.51-.4a2.73,2.73,0,0,1-.21-.3c-.18-.34.07-.77.62-1.19a20.66,20.66,0,0,1,5.58-2.13c1.45-.41,2.93-.71,4.4-1.06Z"/><path class="cls-1" d="M72.07,160.11l-1.06-.6a4.49,4.49,0,0,1-1.05-.85,2.4,2.4,0,0,1-.55-1.09,2.33,2.33,0,0,1,.09-1.23,6.76,6.76,0,0,1,.8-1.64c.16-.25.23-.31.34-.47l.32-.4.65-.77c.43-.51.86-1,1.26-1.53a11,11,0,0,0,.89-1.46,6.19,6.19,0,0,1,1.2-1.82c.18-.16.66.08,1.09.5s.82,1,.7,1.48a8.74,8.74,0,0,1-2.48,4,5.32,5.32,0,0,0-.84,1.11l-.36.59-.13.22-.11.14c-.1.13-.3.3-.28.51a1,1,0,0,0,.4.46,1.2,1.2,0,0,0,.21.16l.38.23a7.75,7.75,0,0,0,.81.42,16.48,16.48,0,0,0,2.62,1c.71.2,1.48.18,2.22.33a3.86,3.86,0,0,1,.49.1,1.54,1.54,0,0,1,.36.16.8.8,0,0,1,.19.3,1.7,1.7,0,0,1,0,.76c0,.14,0,.28-.06.41a1.48,1.48,0,0,1-1,.94,8.92,8.92,0,0,1-4.08-.59A25.15,25.15,0,0,1,72,160.18Z"/><path class="cls-1" d="M100.52,165.83l-4.36,1.1c-.53.13-1,.33-1.57.46L89,168.75c-.83.2-1.64.48-2.47.7a15.07,15.07,0,0,1-3.23.67c-.35,0-.36-.28-.14-.64a2.52,2.52,0,0,1,1.21-1,39.76,39.76,0,0,1,6.35-1.89c1.31-.28,2.6-.8,3.91-1.21l4.31-1.3,2.66-.82c1.33-.42,2.69-.8,4-1.28,1-.37,2-.88,3-1.3a5.3,5.3,0,0,1,.65-.28c.84-.26,1.19-.1,1.53.31a2.92,2.92,0,0,1,.23.29c.2.33,0,.77-.56,1.22a20.4,20.4,0,0,1-5.47,2.42c-1.43.48-2.9.85-4.35,1.27Z"/><path class="cls-1" d="M109.14,161.89l.09-.14.07-.08.06,0a.47.47,0,0,0,.12-.09.23.23,0,0,0,.07-.32c-.06-.07-.15,0-.31-.17l-1.6-1-1.71-1c-.51-.31-1.07-.52-1.6-.79a4.88,4.88,0,0,1-1.92-1.31c-.15-.21.16-.65.62-1s1.06-.74,1.45-.63a10.84,10.84,0,0,1,4,2,6.25,6.25,0,0,0,1.24.69l.65.3.41.2.47.24a2.75,2.75,0,0,1,1.54,1.69,3.29,3.29,0,0,1-.63,2.21c-.12.19-.28.47-.36.58l-.3.42-.6.81c-.6.81-1.27,1.53-1.84,2.31a20.5,20.5,0,0,0-1.08,1.93c-.09.14-.15.28-.24.41a1.34,1.34,0,0,1-.25.27.62.62,0,0,1-.32.07,1.77,1.77,0,0,1-.74-.18L106,169a1.35,1.35,0,0,1-.61-1.24,8.88,8.88,0,0,1,2-3.64,21,21,0,0,0,1.69-2.29Z"/><path class="cls-1" d="M377,111.19a3,3,0,0,1-.27,1,3,3,0,0,1-.51.84,3.91,3.91,0,0,1-1.4,1,3.24,3.24,0,0,1-.56.25,2,2,0,0,1-.65.17,2.92,2.92,0,0,1-2.19-.7,3.5,3.5,0,0,1-1.08-1.72,3.31,3.31,0,0,1-.07-1.77,1.91,1.91,0,0,1,1.62-1.56c.24,0,.3.4.34.85,0,.23,0,.46,0,.64s.07.34,0,.37a.86.86,0,0,0,0,.48,3.61,3.61,0,0,0,.21.85.56.56,0,0,0,.39.32,1.43,1.43,0,0,0,.48-.06l.15,0,.17-.1a1.15,1.15,0,0,0,.33-.19.84.84,0,0,0,.26-.23l.11-.12.06-.15a1,1,0,0,0,0-.82,1.09,1.09,0,0,0-1-.82c-.34,0-.61.27-.86.57a1.53,1.53,0,0,1-.18.18.59.59,0,0,1-.19.13.72.72,0,0,1-.25,0,1.88,1.88,0,0,1-.57-.22l-.29-.14a1,1,0,0,1-.41-1,2.9,2.9,0,0,1,.5-1,3.31,3.31,0,0,1,1-.74,3.27,3.27,0,0,1,2.9.14,3.79,3.79,0,0,1,1.86,3.58Z"/><path class="cls-1" d="M363.31,123.44a2.72,2.72,0,0,1-.24.73l-.16.35-.22.31-.22.31a2.75,2.75,0,0,1-.26.22,2.94,2.94,0,0,1-.52.39l-.41.26a2.3,2.3,0,0,1-.5.18,2.35,2.35,0,0,1-1.74-.36,2.48,2.48,0,0,1-1-1.23,2.29,2.29,0,0,1-.14-1.37,1.49,1.49,0,0,1,1.18-1.25c.19,0,.31.43.44.88a2.72,2.72,0,0,0,.32.85s0,0,0,0-.05.17,0,.35.26.14.39.08a1.05,1.05,0,0,0,.33-.21,1.24,1.24,0,0,0,.28-.28.69.69,0,0,0,.13-.49.65.65,0,0,0-.57-.55.61.61,0,0,0-.53.35.47.47,0,0,1-.07.12c-.12.07-.34-.06-.74-.39l-.28-.22a.94.94,0,0,1-.34-1,2.13,2.13,0,0,1,1.56-1.21,3,3,0,0,1,2.11.43,2.73,2.73,0,0,1,1.26,2.74Z"/><path class="cls-1" d="M380.13,236.23a2.89,2.89,0,0,1-.6.83,3.29,3.29,0,0,1-.78.61,3.86,3.86,0,0,1-1.67.48,4,4,0,0,1-.62,0,1.9,1.9,0,0,1-.66-.08,2.93,2.93,0,0,1-1.81-1.43,3.56,3.56,0,0,1-.4-2,3.31,3.31,0,0,1,.57-1.68,1.91,1.91,0,0,1,2.07-.89c.23.06.14.49,0,.92-.07.22-.13.44-.19.62s-.05.33-.1.35a.94.94,0,0,0-.17.45,3.59,3.59,0,0,0-.1.87.54.54,0,0,0,.24.43,1.16,1.16,0,0,0,.47.11l.16,0,.2,0a1.28,1.28,0,0,0,.37-.07.71.71,0,0,0,.32-.12l.15-.08.11-.11a1.07,1.07,0,0,0,.33-.75,1.08,1.08,0,0,0-.61-1.11,1.13,1.13,0,0,0-1,.23,1.73,1.73,0,0,1-.24.1L376,234a.89.89,0,0,1-.23-.1,2.05,2.05,0,0,1-.46-.41l-.22-.24a1,1,0,0,1,0-1.13,2.76,2.76,0,0,1,.82-.72,3.1,3.1,0,0,1,3.86.83,3.77,3.77,0,0,1,.47,4Z"/><path class="cls-1" d="M365.22,243.47a2.76,2.76,0,0,1-1.8,1.23l-.37.07a1.7,1.7,0,0,1-1.57-.74,2.05,2.05,0,0,1-.36-1.15,1.87,1.87,0,0,1,.29-1,1.15,1.15,0,0,1,1.2-.58c.14,0,.1.39.07.75a2.65,2.65,0,0,0,0,.71s0,0,0,0-.09.12-.1.26.16.17.27.17a1.13,1.13,0,0,0,.3-.07,1,1,0,0,0,.28-.12.54.54,0,0,0,.22-.33.5.5,0,0,0-.25-.55.48.48,0,0,0-.48.11l-.09.06c-.12,0-.24-.14-.44-.49l-.14-.23a.71.71,0,0,1,0-.82,1.57,1.57,0,0,1,1.44-.44,2.24,2.24,0,0,1,1.41.88,2.11,2.11,0,0,1,.16,2.34Z"/><path class="cls-1" d="M147.58,184.61c-.06.18,0,.5.49.75a.49.49,0,0,0,.23.07c.06,0,.13,0,.18,0a.7.7,0,0,0,.66-.09,1.4,1.4,0,0,0,.57-.79,1.07,1.07,0,0,0-.07-.85c-.18-.3-.41-.37-.8-.64-.11-.1-.1-.52.13-.91a1,1,0,0,1,1.28-.55,4.14,4.14,0,0,1,.64.42,4.78,4.78,0,0,1,.52.58,3.33,3.33,0,0,1,.47,1.39,3.17,3.17,0,0,1-.87,2.44,5.12,5.12,0,0,1-1.28,1,3,3,0,0,1-1.63.27l-.42-.08-.37-.14a2.4,2.4,0,0,1-.72-.35,2.66,2.66,0,0,1-.64-.53l-.28-.32c-.08-.13-.15-.26-.21-.38a2.92,2.92,0,0,1-.24-2,3,3,0,0,1,1.93-2.18,3.41,3.41,0,0,1,2.29-.05,3.57,3.57,0,0,1,.45.19,1.57,1.57,0,0,1,.26.25.53.53,0,0,1,.08.29,1.07,1.07,0,0,1-.15.6c-.05.1-.1.2-.15.28a1.71,1.71,0,0,1-1,.55,1.89,1.89,0,0,0-.62.09c-.17,0-.25.09-.34.09s-.07.16-.13.15a.54.54,0,0,0-.25.41Z"/><path class="cls-1" d="M160.61,194.22c-.06.05-.08.14.08.32l.07.06s0,0,.06,0a.25.25,0,0,0,.26.08.55.55,0,0,0,.32-.28.27.27,0,0,0-.05-.33c-.12-.12-.21-.06-.37-.26a1.24,1.24,0,0,1,.18-.73c.16-.28.52-.63.85-.41a1.67,1.67,0,0,1,.9,1.51,1.7,1.7,0,0,1-.7,1.45,2.15,2.15,0,0,1-1.81.54A2.38,2.38,0,0,1,159,195a1.8,1.8,0,0,1-.19-1.13,1.87,1.87,0,0,1,1-1.28,2.29,2.29,0,0,1,1.33-.35,1,1,0,0,1,.3.07c.35.15.33.4.19.75a1.92,1.92,0,0,1-.12.25,1.84,1.84,0,0,1-.53.57c-.24.14-.26.23-.26.28s0,.07,0,.07a.06.06,0,0,0-.07,0Z"/><path class="cls-1" d="M293.64,423.06c4.17,1.53,8.36,3,12.61,4.24,1.54.47,3.12.84,4.67,1.28a109.52,109.52,0,0,0,16.75,3.2,65.81,65.81,0,0,0,7.55.37c3.22,0,6.42-.32,9.64-.42,1,0,.91.2.1.6a13.75,13.75,0,0,1-1.71.71,8.7,8.7,0,0,1-2.52.52,60.11,60.11,0,0,1-10,.07,78.13,78.13,0,0,1-10-1.32c-3.94-.77-8-1.6-12-2.68-4.35-1.18-8.63-2.57-12.87-4.06-2.61-.92-5.21-1.88-7.8-2.83-3.93-1.44-7.84-3-11.76-4.3a76.14,76.14,0,0,0-9.17-2.52c-.68-.12-1.34-.26-2-.35-2.53-.39-3.3-.52-3.84-1a3.32,3.32,0,0,1-.37-.31c-.12-.16.08-.29.57-.44a5.76,5.76,0,0,1,.95-.18,8.57,8.57,0,0,1,1.32,0,42.81,42.81,0,0,1,8.72,1.81c2.88.84,5.74,1.84,8.59,2.87,4.22,1.52,8.39,3.22,12.62,4.71Z"/><path class="cls-1" d="M291.05,423.24s-21.58-15-32.48-9"/><path class="cls-1" d="M273.21,203.83l-1.63,1.43c-.56.45-1.08.91-1.62,1.37-.39.34-.67.76-1,1.1s-.62.63-.93.94a8.85,8.85,0,0,0-.87,1c-.26.35-.6.65-.85,1s-.47.73-.71,1.1a7.08,7.08,0,0,0-.44,1.07,4.35,4.35,0,0,0-.3,1.11c-.05.49-.14,1-.2,1.46a6.09,6.09,0,0,1-.1.73,3.25,3.25,0,0,1-.31.74c-.18.3-.62.28-1.16,0a3.91,3.91,0,0,1-.88-.63,1.52,1.52,0,0,1-.42-.95,11.44,11.44,0,0,1,2.62-6.74c.48-.55.91-1.12,1.38-1.65a13.45,13.45,0,0,1,1.41-1.59,32.73,32.73,0,0,1,3.46-2.93c.72-.55,1.45-1.1,2.15-1.66a22.72,22.72,0,0,0,3-2.74,15.18,15.18,0,0,0,1.61-2.53,4.37,4.37,0,0,0,.29-.57,1.24,1.24,0,0,1,.55-.67,1.33,1.33,0,0,1,.74-.09l.34,0c.26,0,.63.56.5,1.27l-.21.77c-.09.24-.2.48-.31.72a8.14,8.14,0,0,1-.74,1.4c-.3.43-.6.88-.94,1.28l-1.05,1.16c-1.1,1.06-2.17,2.15-3.24,3.15Z"/><g class="cls-2"><path class="cls-1" d="M286,332.63c-.51-4.82-1.1-9.63-1.73-14.45l-.74-5.26q-1.22-9.29-2.19-18.62c-.29-2.75-.59-5.53-.83-8.28a67.59,67.59,0,0,1-.24-10.65c.08-1.1.32-.94.57,0a31,31,0,0,1,.7,4.64c.13,1.78.31,3.56.5,5.35s.35,3.57.54,5.36q.61,5.36,1.22,10.77c.5,4.31,1.22,8.78,1.83,13.19.66,4.84,1.3,9.7,1.89,14.56.35,3,.69,6,1,9,.45,4.54.78,9.12,1,13.67a87.91,87.91,0,0,1,0,10.52c0,.78-.14,1.54-.24,2.32-.46,2.89-1,3.74-1.52,4.23a2.42,2.42,0,0,1-.35.32c-.37.17-.25-1-.08-3.05.32-3,.33-6.16.35-9.35s-.13-6.44-.35-9.7c-.3-4.84-.77-9.71-1.32-14.56Z"/></g><g class="cls-2"><path class="cls-1" d="M286.14,461.23c.29-2.35.63-4.71.86-7.08.1-.86.1-1.73.19-2.59.32-3.05.7-6.1.9-9.16.09-1.35.18-2.72.21-4.07,0-1.74.2-3.48.36-5.21.12-1.08,1,.29,1.32,2.3a43.61,43.61,0,0,1,.06,10.71c-.23,2.14-.19,4.38-.38,6.57-.19,2.41-.44,4.82-.72,7.22l-.54,4.43c-.28,2.23-.61,4.47-.84,6.68-.18,1.73-.25,3.43-.39,5.14,0,.38-.07.75-.12,1.12-.23,1.4-.47,1.82-1.06,2a1.73,1.73,0,0,1-.39.15c-.43.08-.71-.54-.78-1.58a35.55,35.55,0,0,1,0-4.73c.05-1.59.24-3.19.42-4.79.27-2.38.55-4.77.83-7.15Z"/></g><path class="cls-1" d="M277.59,334.83c.08-4.93-.1-9.89-.44-14.85-.12-1.81-.33-3.62-.47-5.42-.46-6.36-1.29-12.74-1.85-19.16-.2-2.84-.52-5.69-.68-8.54-.2-3.63-.23-7.44,1.07-10.95.43-1.08.55-.85.49.13s-.09,2.71-.09,4.74a70.82,70.82,0,0,0,.8,10.91c.47,3.7.81,7.35,1.2,11.08.44,4.44,1.23,9.06,1.59,13.64.42,5,.73,10.07.8,15.14,0,3.11,0,6.23-.22,9.34-.31,4.7-.67,9.39-.91,14a105,105,0,0,1-.84,10.79c-.11.79-.19,1.56-.34,2.35a13.08,13.08,0,0,1-.84,3.06,2.28,2.28,0,0,1-1,1.2,3.18,3.18,0,0,1-.48.31c-.45.16-.62-1.11-.37-3.22.39-3.13.8-6.35,1.09-9.6.16-1.61.21-3.29.31-5s.19-3.36.29-5l.51-7.52c.18-2.5.29-5,.31-7.45Z"/><path class="cls-1" d="M270.61,335.76c.3-4.3.51-8.61.47-12.92,0-1.57-.12-3.14-.17-4.71l-.48-8.35c-.14-2.8-.24-5.59-.32-8.39-.06-2.48-.18-5-.2-7.43-.05-3.16-.08-6.34.11-9.49.07-1,.32-.85.59,0a16.84,16.84,0,0,1,.68,4.18c.33,6.43.47,12.84.71,19.32.11,3.87.65,7.87.83,11.89.2,4.4.16,8.8-.06,13.19-.14,2.7-.36,5.39-.6,8.08-.37,4.07-.89,8.14-1.39,12.16-.35,3.13-.7,6.2-1,9.29-.09.69-.17,1.35-.25,2-.34,2.54-.66,3.31-1.26,3.77a2.21,2.21,0,0,1-.41.31c-.43.18-.61-.91-.47-2.78.5-5.54,1.3-11.33,2-17.14.5-4.32.95-8.66,1.23-13Z"/><path class="cls-1" d="M281.64,355.71c-.7.29-1.41.57-2.13.81s-1.43.49-2.17.69a16.24,16.24,0,0,1-1.59.47,25.14,25.14,0,0,1-5.81.67c-.43,0-.87,0-1.3,0l-1.3-.12a15.68,15.68,0,0,1-1.66-.32,6.85,6.85,0,0,1-1.54-.69c-.31-.18-.12-.42.27-.59a2.27,2.27,0,0,1,1.48-.15,25.06,25.06,0,0,0,6.15.23,12.83,12.83,0,0,0,1.91-.3c.64-.15,1.27-.37,1.91-.53l2.07-.66c.68-.26,1.37-.5,2-.79s1.65-.71,2.44-1.13a26.74,26.74,0,0,0,3.5-2.09,18.88,18.88,0,0,0,2.27-2.09c.16-.17.32-.31.49-.46.61-.55.91-.63,1.37-.45a3,3,0,0,1,.32.12c.31.16.28.62-.07,1.22a12.65,12.65,0,0,1-4.52,4.13,36.88,36.88,0,0,1-4.11,2.09Z"/><path class="cls-1" d="M281.49,340.76c-1.25.56-2.52,1.06-3.8,1.52-.47.17-.92.37-1.4.52a32.39,32.39,0,0,1-5.13,1.12l-2.3.34-1.48.18a6.82,6.82,0,0,1-1.49-.09c-.31-.05-.26-.46,0-.88a1.81,1.81,0,0,1,1.22-.9c1.87-.2,3.69-.6,5.62-.82a16.61,16.61,0,0,0,3.38-1c1.23-.43,2.45-.92,3.65-1.46.73-.34,1.47-.68,2.18-1.07a29.61,29.61,0,0,0,3.17-1.87c.77-.56,1.48-1.17,2.19-1.78l.47-.41c.6-.47.89-.51,1.34-.19a3.37,3.37,0,0,1,.31.21c.3.28.25.74-.13,1.2a15.58,15.58,0,0,1-4.13,3.5c-1.17.71-2.4,1.35-3.64,1.95Z"/><path class="cls-1" d="M278,326.9a23.62,23.62,0,0,0,2.49-1.07c.3-.14.57-.35.86-.5,1.05-.54,2.1-1.09,3.11-1.73a10.62,10.62,0,0,0,1.25-1,7.94,7.94,0,0,1,1.55-1.28c.39-.2,1,1.24.44,1.84a13.83,13.83,0,0,1-3.46,2.55c-.76.4-1.48.94-2.24,1.37s-1.73.89-2.61,1.28c-.55.23-1.11.45-1.67.66-.84.32-1.73.53-2.59.79a17.19,17.19,0,0,1-2,.55,2.36,2.36,0,0,1-.45.08c-.59,0-.78-.07-.92-.42a1.13,1.13,0,0,1-.08-.24c-.07-.26.14-.52.51-.67.55-.21,1.1-.47,1.64-.7s1.11-.4,1.67-.61l2.49-1Z"/><path class="cls-1" d="M279.8,295.89a16.64,16.64,0,0,1-1.94.83,5.7,5.7,0,0,1-.72.29,12.29,12.29,0,0,1-2.71.46l-1.22.11a2.52,2.52,0,0,1-1.59-.27c-.16-.09,0-.48.24-.85s.51-.74.71-.71c.75.05,1.56,0,2.49-.05a5,5,0,0,0,1.6-.51c.58-.24,1.17-.47,1.75-.75.35-.18.71-.35,1-.56a11.54,11.54,0,0,0,1.51-1,7.38,7.38,0,0,0,.93-1,2.11,2.11,0,0,1,.19-.23c.27-.26.43-.26.77-.07l.23.13a.59.59,0,0,1,.19.75,6.27,6.27,0,0,1-1.7,2.28,8.71,8.71,0,0,1-1.75,1.19Z"/><path class="cls-1" d="M264.13,457.35a71.91,71.91,0,0,1-1-9.25c-.06-1.13-.15-2.25-.16-3.37-.07-4,.16-7.91.38-11.84.1-1.75.16-3.5.21-5.23.07-2.22.09-4.44.24-6.66.05-.69.27-.6.5,0a9.15,9.15,0,0,1,.53,2.95c.1,4.56,0,9.09-.13,13.65-.09,2.72,0,5.56.15,8.33a72.75,72.75,0,0,0,.93,9.08c.29,1.86.65,3.71,1.05,5.55.61,2.8,1.27,5.6,2,8.36.55,2.15,1.2,4.24,1.72,6.39a13.68,13.68,0,0,1,.32,1.41c.31,1.8.23,2.4-.2,2.86-.09.1-.18.23-.26.3-.28.21-.8-.45-1.14-1.71-.62-1.86-1.07-3.79-1.59-5.75l-1.52-6c-.74-3-1.44-6-2-9.09Z"/><path class="cls-1" d="M271.56,457.93l-.26-4.48c-.11-1.51-.18-3-.23-4.54,0-1.1-.13-2.21-.14-3.31,0-3.89.05-7.77.14-11.64,0-1.71,0-3.44.05-5.14,0-2.19,0-4.38.2-6.57.06-.68.29-.58.54,0a9,9,0,0,1,.63,2.9c.27,4.47.18,8.93.09,13.42-.06,2.68.13,5.47.27,8.2.15,3,.42,6,.65,9l.37,5.58c.21,2.81.4,5.64.78,8.4a58.6,58.6,0,0,0,1.24,6.28l.33,1.35c.38,1.7.42,2.25,0,2.76a2.5,2.5,0,0,1-.25.34c-.3.28-.82-.33-1.33-1.57a31,31,0,0,1-1.67-5.8,56.14,56.14,0,0,1-.87-6.09c-.29-3-.45-6.09-.64-9.11Z"/><path class="cls-1" d="M278.18,456.49l.56-7.42c.07-.9.08-1.81.16-2.71.24-3.17.57-6.34.78-9.51.1-1.41.13-2.83.16-4.23,0-1.8,0-3.6.14-5.4.11-1.12,1.53.3,1.59,2.39a100.29,100.29,0,0,1-.43,11.09c-.21,2.22-.25,4.53-.39,6.79l-.5,7.47c-.09,1.53-.19,3.06-.26,4.6-.1,2.31-.22,4.64-.25,6.95,0,1.79.11,3.54.2,5.31L280,473c.05,1.45-.06,1.92-.51,2.24a1.43,1.43,0,0,1-.3.22c-.35.16-.66-.43-.81-1.5a70.08,70.08,0,0,1-.57-9.92c0-2.51.19-5,.32-7.52Z"/><path class="cls-1" d="M280.74,439.39c-.85.32-1.71.63-2.57.89s-1.72.54-2.59.79c-.63.19-1.25.4-1.88.56a63.07,63.07,0,0,1-6.8,1.27l-3,.45a19.46,19.46,0,0,1-3.89.32c-.81,0,.14-1.28,1.56-1.53,2.56-.42,5.07-1,7.66-1.37a35.2,35.2,0,0,0,4.65-1.18c.84-.23,1.68-.51,2.52-.76s1.67-.57,2.49-.88c1-.4,2-.79,3-1.26a27.76,27.76,0,0,0,4.27-2.38,12.71,12.71,0,0,0,1.43-1.19c.48-.39.88-.85,1.32-1.27.18-.2.37-.38.55-.58.64-.74,1-.83,1.53-.69a2.12,2.12,0,0,1,.36.1c.35.15.32.68-.09,1.4-.16.26-.33.52-.51.77l-.59.71a10.22,10.22,0,0,1-1.29,1.34,23.25,23.25,0,0,1-3.07,2.16,42.2,42.2,0,0,1-5,2.37Z"/><path class="cls-1" d="M279.49,456.89q-2.28.94-4.63,1.73c-.56.2-1.1.46-1.69.62a38.87,38.87,0,0,1-6.24,1.31c-.94.14-1.89.26-2.84.36a10.66,10.66,0,0,1-1.88,0,6.3,6.3,0,0,1-1-.12,7.45,7.45,0,0,1-.93-.36c-.38-.18-.1-.68.36-1.13a2.39,2.39,0,0,1,1.55-.84,38.3,38.3,0,0,0,6.61-.59,14.16,14.16,0,0,0,2.07-.5c.69-.23,1.37-.49,2.06-.71,1.5-.52,3-1.06,4.48-1.68.9-.38,1.82-.76,2.7-1.2.67-.32,1.35-.65,2-1a20.67,20.67,0,0,0,1.94-1.11c1-.59,1.86-1.33,2.77-2,.2-.15.38-.33.59-.47.78-.51,1.12-.54,1.61-.2a2.1,2.1,0,0,1,.33.22c.32.29.22.81-.25,1.37a17,17,0,0,1-2.38,2.26,17.3,17.3,0,0,1-2.77,1.84c-1.45.81-3,1.53-4.48,2.21Z"/><path class="cls-1" d="M273.36,468.05a20.83,20.83,0,0,0,3.72-1c.46-.14.86-.4,1.31-.58a25.8,25.8,0,0,0,4.53-2.38,16.29,16.29,0,0,0,1.78-1.42,19.29,19.29,0,0,1,2.17-2c.52-.35,1.16,1.32.37,2.23a18.93,18.93,0,0,1-5,3.85c-1.12.59-2.2,1.35-3.37,1.91-.63.33-1.31.57-2,.84s-1.36.45-2,.62l-1.29.3-1.3.21a19.29,19.29,0,0,1-2,.18c-.67,0-1.33,0-2,0-.51,0-1,0-1.54,0s-1-.09-1.55-.14a3.13,3.13,0,0,1-.68-.12c-.82-.26-1-.5-1-1.09a2.75,2.75,0,0,1,0-.41c.08-.43.52-.69,1.09-.69.84,0,1.68,0,2.5,0,.42,0,.83,0,1.24.05h1.25c.62,0,1.25-.09,1.88-.12s1.26-.15,1.87-.32Z"/><path class="cls-1" d="M300.89,302.23a11.42,11.42,0,0,1-1-3.18,7.31,7.31,0,0,1,.47-3.51c.78-2,1.62-3.61,2.33-5.39a38.34,38.34,0,0,0,1.26-3.85,14.66,14.66,0,0,0,.35-6.86,14.17,14.17,0,0,0-3.09-6.21,23.11,23.11,0,0,0-4.83-4.19c-2.31-1.51-4.84-2.7-7.3-4-.76-.42-.5-.76.35-.84a7.92,7.92,0,0,1,3.82.77,34.54,34.54,0,0,1,7.59,4.75c.58.49,1.11,1.06,1.67,1.59s1,1.17,1.48,1.8a15,15,0,0,1,2.07,4.24,17.5,17.5,0,0,1,.78,5.63,19,19,0,0,1-.31,2.83l-.27,1.39c-.13.45-.28.89-.42,1.33a48.47,48.47,0,0,1-2.26,5.53c-.4.89-.81,1.76-1.1,2.59a4.49,4.49,0,0,0-.22,2.42,12.55,12.55,0,0,0,1.21,3.11c.55,1,1.15,2.07,1.76,3.1.93,1.56,1.88,3.13,2.75,4.77a15.39,15.39,0,0,1,1.89,5.38,10.25,10.25,0,0,1-.54,4.51,18,18,0,0,1-2,3.88,18.42,18.42,0,0,1-1.06,1.55c-1.4,1.88-2.08,2.26-2.84,2.27a2.93,2.93,0,0,1-.52,0c-.47-.11-.21-1.11.69-2.5a31.75,31.75,0,0,0,3.25-6.34,7.62,7.62,0,0,0-.45-6.23c-.72-1.63-1.7-3.3-2.66-5s-2-3.42-2.88-5.27Z"/><path class="cls-1" d="M282.21,310.34c-.67.28-1.34.53-2,.75-.25.08-.48.21-.73.27a15,15,0,0,1-2.74.42c-.4.05-.81.09-1.21.17a2.6,2.6,0,0,1-1.56,0c-.16-.07-.09-.56.07-1s.39-.94.63-.94c.86-.05,1.73-.1,2.69-.08a5,5,0,0,0,1.67-.44,18.92,18.92,0,0,0,1.81-.67c.36-.17.73-.33,1.08-.53a9.22,9.22,0,0,0,1.55-1,7.88,7.88,0,0,0,.91-1.08c.07-.08.12-.17.19-.25.25-.27.44-.25.88.1a3.5,3.5,0,0,1,.3.24.83.83,0,0,1,.32.95,5.06,5.06,0,0,1-1.93,2.12,15.94,15.94,0,0,1-1.89,1.08Z"/><g class="cls-2"><path class="cls-1" d="M304.72,304.07a16.18,16.18,0,0,1-2.13-5.16,6.12,6.12,0,0,1,.35-2.93c.31-.89.68-1.71,1-2.52.52-1.19,1-2.38,1.48-3.58a22.48,22.48,0,0,0,1.67-6.45,13.74,13.74,0,0,0-1-6.49,15.67,15.67,0,0,0-3.37-4.85,37,37,0,0,0-6.11-4.63c-.67-.43-.48-.56.21-.4a10,10,0,0,1,3.18,1.47,22.12,22.12,0,0,1,5.86,5.64A14,14,0,0,1,308.3,282a25,25,0,0,1-2.27,9.67c-.67,1.67-1.53,3.3-2,4.91a5,5,0,0,0-.18,2.42,10.54,10.54,0,0,0,.86,2.41c.95,1.95,2.11,3.83,3.24,5.73a47.5,47.5,0,0,1,2.42,4.44,10.9,10.9,0,0,1,1.16,5,10.27,10.27,0,0,1-.29,2,13.41,13.41,0,0,1-.67,1.87c-.13.3-.25.6-.4.89l-.49.85a19,19,0,0,1-1,1.65c-.3.48-.63.92-1,1.38-1.28,1.69-1.84,2.1-2.34,2.27a2.37,2.37,0,0,1-.34.1c-.3,0,.08-.78,1-2a35.66,35.66,0,0,0,3.47-5.84,14.39,14.39,0,0,0,.57-1.55,8.65,8.65,0,0,0,.25-1.58,7.61,7.61,0,0,0-.5-3.2,28.39,28.39,0,0,0-2.28-4.68l-2.72-4.66Z"/></g><g class="cls-2"><path class="cls-1" d="M215.33,310.72l-4.71,9.67c-.58,1.17-1.1,2.37-1.69,3.54-2.07,4.12-4.2,8.22-6.53,12.22-1,1.78-2.09,3.56-3.23,5.27a28,28,0,0,1-2.43,3.19,6.81,6.81,0,0,1-3.54,2.29c-.49.08-.71-.07-.69-.22s.23-.36.49-.63c.53-.51,1.15-1.37,2.11-2.36a39.18,39.18,0,0,0,4.49-6.25c1.36-2.24,2.69-4.54,4-6.86,1.58-2.77,3-5.81,4.39-8.75l4.7-9.75,2.89-6c1.45-3,3-6.05,4.47-9.05,1.14-2.33,2.24-4.64,3.49-6.89.28-.5.53-1,.83-1.48,1.13-1.81,1.63-2.3,2.15-2.5a1.52,1.52,0,0,1,.35-.13c.31,0,0,.79-.65,2.18l-3,6.31c-1,2.14-2.1,4.3-3.16,6.47-1.55,3.24-3.12,6.5-4.68,9.75Z"/></g><g class="cls-2"><path class="cls-1" d="M413.51,188l.18-.59.1-.31c.06-.18.11-.36.18-.54.13-.34.28-.7.54-.8h.17c0,.07,0-.1,0-.08h.29c.15,0,.3,0,.44,0l2.1.85,1.77.58c1.19.35,2.4.69,3.62,1s2.36.49,3.55.71c4.18.82,8.43,1.45,12.67,2.12,1.88.3,3.78.6,5.64,1a21.3,21.3,0,0,1,7,2.3c.67.41.46.51-.2.39s-1.77-.38-3.08-.72c-4.7-1.21-9.64-1.73-14.56-2.56-2.95-.49-6.05-.85-9.07-1.45-1.62-.32-3.23-.68-4.83-1.12-.81-.19-1.59-.48-2.39-.72-.39-.12-.79-.26-1.17-.42l-.92-.36-.1,0c-.14-.11-.18.06-.22.16s-.06.17-.15.47l-.42,1.48c-.27,1-.53,2-.77,3-.73,3-1.41,6.1-1.95,9.16-.42,2.37-.7,4.72-.93,7.08-.05.52-.09,1-.14,1.56-.18,1.94-.31,2.54-.76,2.93a1.74,1.74,0,0,1-.3.26c-.33.17-.56-.65-.51-2.11a83.22,83.22,0,0,1,1.84-13.25c.69-3.31,1.47-6.6,2.39-9.88Z"/></g><g class="cls-2"><path class="cls-1" d="M379.88,234.85l.18-.61a2.52,2.52,0,0,0-1.74-3.07,2.55,2.55,0,0,0-3.08,1.74l-.18.61a2.52,2.52,0,0,0,1.74,3.07,2.55,2.55,0,0,0,3.08-1.74Z"/></g><g class="cls-2"><path class="cls-1" d="M374,113.2c3.22,0,3.23-5,0-5s-3.22,5,0,5Z"/></g><g class="cls-2"><path class="cls-1" d="M392.31,65.27a4.14,4.14,0,0,0-2.07,2.58,3.79,3.79,0,0,0,1.25,3.56A2.5,2.5,0,0,0,395,67.88l-.23-.24c.23.32.28.37.15.16a1.75,1.75,0,0,1,.14,1.27c-.2.4-.25.52-.15.34s0-.08-.21.26c.19-.18.13-.14-.17.1l.28-.18a2.5,2.5,0,1,0-2.52-4.32Z"/></g><g class="cls-2"><path class="cls-1" d="M393.26,75.38a4.53,4.53,0,0,0-2.58,2.77,4.07,4.07,0,0,0,1.12,4,2.5,2.5,0,0,0,3.54-3.54c-.22-.23,0,0,.05.09-.2-.26,0,0,.08.18s0,.6,0,.26l0,.4c-.18.36-.21.46-.12.28s-.36.34-.13.16c.06,0,.33-.3,0-.06s0,0,.1,0l.4-.19a2.51,2.51,0,0,0,.9-3.42,2.58,2.58,0,0,0-3.42-.9Z"/></g><g class="cls-2"><path class="cls-1" d="M393.22,53a4.63,4.63,0,0,0-3.38,4,4.26,4.26,0,0,0,2.47,4.06,2.56,2.56,0,0,0,3.42-.9,2.52,2.52,0,0,0-.9-3.42c-.06,0-.46-.19-.48-.27l.25.18c-.14-.16-.14-.15,0,0s.14.18,0,0l.15.34c-.16-.44,0,.59,0,.12l0,.4c.06-.19.05-.18,0,0s-.1.22,0,0l-.21.27a1.21,1.21,0,0,1,.16-.16c.14-.12.07-.07-.19.15.39-.28-.48.14,0,0A2.5,2.5,0,1,0,393.22,53Z"/></g><g class="cls-2"><path class="cls-1" d="M81.36,155l4.36-1,1.58-.43c1.86-.46,3.73-.9,5.58-1.41.82-.22,1.63-.5,2.43-.75,1-.34,2.06-.69,3.09-1,.32-.09.36.1.17.39a2.7,2.7,0,0,1-1.19,1A36.76,36.76,0,0,1,91,153.83c-1.31.31-2.62.77-3.94,1.15l-4.36,1.19-2.69.72c-1.35.37-2.72.71-4.05,1.11-1,.3-2,.71-3,1.05l-.67.23c-.85.22-1.17.12-1.44-.15a1.07,1.07,0,0,1-.18-.19c-.15-.21.13-.53.71-.87a30.92,30.92,0,0,1,5.63-2c1.44-.41,2.92-.74,4.38-1.11Z"/></g><g class="cls-2"><path class="cls-1" d="M101.38,167.06l-3.93,1.07-1.43.44L91,169.92c-.75.2-1.49.44-2.23.66a21.3,21.3,0,0,1-2.88.73c-.6.11,0-.82,1-1.24a45.38,45.38,0,0,1,5.77-1.79c1.18-.29,2.36-.74,3.54-1.12l3.92-1.21,2.4-.76c1.21-.39,2.44-.75,3.63-1.18.92-.32,1.8-.75,2.7-1.11.2-.08.39-.17.59-.24.76-.24,1.06-.16,1.33.1a1.57,1.57,0,0,1,.18.19c.15.21-.08.53-.58.88a24.67,24.67,0,0,1-5,2.07c-1.29.44-2.62.8-3.93,1.19Z"/></g><path class="cls-1" d="M467.65,205.43c-.58,2.55-1.1,5.11-1.54,7.69-.16.94-.24,1.89-.4,2.83-.52,3.33-1,6.67-1.35,10-.14,1.49-.18,3-.2,4.47a52.45,52.45,0,0,1-.22,5.74c-.07.6-.44.51-.84,0a5,5,0,0,1-.89-2.55,52.94,52.94,0,0,1,0-5.91,45.65,45.65,0,0,1,.6-5.93c.39-2.34.56-4.8.91-7.21.38-2.63.85-5.26,1.38-7.88.32-1.61.68-3.21,1-4.81.52-2.44,1.31-4.86,2-7.2a49.15,49.15,0,0,0,1.25-5.45c.06-.4.13-.79.2-1.19.28-1.47.44-1.91,1-2.21.13-.06.25-.15.37-.19.39-.13.72.54.73,1.74a21.84,21.84,0,0,1-.66,5.32c-.42,1.74-.89,3.47-1.41,5.15-.37,1.25-.72,2.46-1,3.73s-.6,2.56-.87,3.85Z"/><path class="cls-1" d="M339.43,161c2.41-1.93,8-5.17,10.85-2.22s-.68,8.09-2.78,10.41c-3.71,4.12-9.63,9-5.93,14.88.7,1.12,3.76,0,2.93-1.35-5.42-8.68,13.79-14.31,9.57-23.95-2.85-6.5-13-2-16.71.93-1.69,1.35.91,2.24,2.07,1.3Z"/><path class="cls-1" d="M348.5,191a1.12,1.12,0,0,1,.11-1c.39-.61-.34-.89-.85-.89a2.71,2.71,0,0,0-2.11.86,2.16,2.16,0,0,0-.33,1.84c.17.64,1.35.46,1.79.34s1.57-.55,1.39-1.19Z"/><path class="cls-1" d="M159.15,231.61c3.56-.61,12.35-.28,11.4,5.33-.77,4.54-7.26,5.81-10.77,7-4.6,1.6-9.36,3.89-8.95,9.46.1,1.33,3.3.59,3.19-.85-.41-5.51,6.3-6.55,10.29-7.93,3.25-1.13,6.55-2.71,8.44-5.75,5.08-8.14-8-10.37-13.27-9.45-1.67.29-2.5,2.54-.33,2.16Z"/><path class="cls-1" d="M153.59,261.72a2.24,2.24,0,0,1,.14-.39c.08-.11.1-.14.05-.06s-.09.07.06,0c.44-.24.94-.88.29-1.2a3.15,3.15,0,0,0-3.72,2.09c-.26,1.13,2.94.63,3.18-.42Z"/></g></svg>