<?xml version="1.0" encoding="UTF-8"?><svg id="Layer_1" xmlns="http://www.w3.org/2000/svg" width="520" height="520" viewBox="0 0 520 520"><defs><style>.cls-1{opacity:.2;}.cls-1,.cls-2,.cls-3,.cls-4{fill:#231f20;stroke-width:0px;}.cls-2{opacity:.1;}.cls-3{opacity:.3;}</style></defs><path class="cls-2" d="M240.72,166.84s.16-4.84,6.52-12.12c6.35-7.27,16.34-9.03,20.66-9.23s13.61-5.35,13.61-5.35c0,0,8.87-.34,10.97,1.26,2.09,1.6,7.18,7.14,7.76,8.91s-.14,4.25-1.09,3.99-11.02-6.79-11.02-6.79l-6.62,1.56s-2.28,2.29-3.09,2.87,6.21,2.69,7.22,5.68,2.59,11.51,1.2,12.8-3.38-.85-3.38-.85c0,0-1.02,4.82-2.08,4.72s-4.01-6.49-4.01-6.49c0,0,.22,6.67-.96,6.47s-8.12-7.71-9.48-7.32-14.28-1.13-14.28-1.13l-11.92,1.03Z"/><path class="cls-2" d="M382.97,255.78s-26.03-1.41-36.1-10.8c-7.07-6.6-13.18-18.05-13.56-24.33-.39-6.27,1.46-13.63,3.22-20.43s7.53-15.99,10.03-18.61c2.5-2.62,14.51-12.08,18.71-12.92s15.58-6.53,24.33-6.12c8.75.41,17.43,3.41,17.43,3.41,0,0-3.12,6.04-3.12,13.09s1.15,22.84,3.12,28.08,0,14.58,0,14.58c0,0-13.63,15.17-13.84,16.07s-10.21,17.98-10.21,17.98Z"/><path class="cls-2" d="M418.8,218.38l8.66-14.18s6.11,2.04,7.51,7.09-3.87,12.2-6.85,12.16-9.32-5.07-9.32-5.07Z"/><path class="cls-3" d="M319.23,282.81c-.53,1.7-.49,9.91-.25,12.5.03.34,9.83-9.22,9.83-9.22,0,0,3.35-1.8,2.9-3.2-.14-.43-12.35-.5-12.48-.08Z"/><path class="cls-3" d="M247.47,236.54c-.98,1.69-1.19,21.46.85,22.9,2.26,1.6,22.42,2.36,24.07-.18,1.45-2.24,1-21.29-1-22.59-1.51-.98-23.06-1.61-23.92-.14Z"/><path class="cls-3" d="M293.38,235.57c-.98,1.69-1.19,21.46.85,22.9,2.26,1.6,22.42,2.36,24.07-.18,1.45-2.24,1-21.29-1-22.59-1.51-.98-23.06-1.61-23.92-.14Z"/><path class="cls-1" d="M88.63,142.68c-5.13-4.28-43.67-2.36-47.59.63-1.47,1.13-.5,48.19.13,48.52,4.42,2.37,47.8.99,49.96-.02,2.39-1.13,3.18-44.4-2.5-49.13ZM71.29,164.94c-1.7-.27-9.6,0-9.6,0,0,0,1.77-10.72,5.12-11.28,3.35-.56,6.17,11.54,4.48,11.28Z"/><path class="cls-4" d="M148.99,142.42c-.39.65-.88,1.23-1.44,1.73-.2.18-.37.4-.61.54-.79.55-1.68.89-2.56,1.11-.39.09-.78.16-1.17.22-.49.08-1,.14-1.5-.04-.15-.05-.13-.16,0-.32.12-.15.34-.44.58-.54.45-.13.88-.27,1.29-.42.41-.16.84-.23,1.26-.38.53-.14.92-.55,1.33-.89.41-.42.83-.85,1.13-1.38.22-.3.37-.66.54-1l.3-.83c.07-.29.14-.58.18-.86.04-.46-.01-.92-.08-1.37-.01-.1-.04-.2-.04-.3,0-.37.12-.48.57-.57.1-.02.2-.04.3-.05.34-.04.61.12.72.43.16.45.24.92.22,1.4,0,.48-.07.97-.19,1.45-.16.72-.45,1.42-.79,2.1l-.04-.02Z"/><path class="cls-4" d="M153.37,244.42c-.51-.6-.93-1.28-1.25-1.96-.12-.25-.26-.49-.36-.74-.34-.9-.57-1.83-.76-2.74-.08-.41-.15-.81-.23-1.21-.1-.51-.2-1.02-.22-1.55,0-.16.1-.16.24-.05.14.11.34.32.45.6.36,1,.76,1.96.94,2.98.13.61.43,1.18.71,1.73.31.61.66,1.19,1.09,1.7.26.32.56.62.88.88.48.4,1.02.75,1.61.94.46.14.93.16,1.38.12.1,0,.19-.02.29-.04.36,0,.48.07.61.43.03.08.07.16.09.24.09.27-.06.52-.41.67-1.04.36-2.27.13-3.22-.45-.72-.4-1.34-.95-1.87-1.54l.02-.02Z"/><path class="cls-4" d="M100.99,195.72c.33-.86.57-1.78.74-2.73.06-.35.08-.7.12-1.05.18-1.24.26-2.5.36-3.77.04-.56.04-1.13.05-1.69,0-.72.01-1.45.11-2.17.03-.22.07-.19.13,0,.05.19.16.54.22.95.19,1.45.46,2.92.4,4.42-.06.89-.01,1.83-.07,2.75-.07,1.01-.21,2.03-.46,3.04-.14.62-.35,1.23-.59,1.83-.39.9-.95,1.76-1.68,2.47-.57.55-1.23,1.03-2,1.31-.17.08-.33.12-.51.17-.65.16-.88-.05-1.01-.44-.03-.1-.07-.19-.09-.29-.05-.32.17-.62.53-.76,1.05-.41,1.87-.86,2.53-1.74.5-.63.86-1.45,1.18-2.31h.04Z"/><path class="cls-4" d="M288.77,167.64c.36-.2.7-.41,1.09-.53.14-.05.25-.14.39-.18.5-.14,1-.23,1.49-.3.22-.02.43-.06.64-.1.26-.07.54-.07.83.06.09.04.09.11.05.27-.04.14-.1.44-.2.57-.39.41-.73.71-1.24.72-.3.02-.51.26-.75.4-.26.17-.55.31-.83.47-.17.1-.34.2-.5.33-.24.18-.49.37-.66.62-.13.2-.14.47-.2.69-.02.05-.02.1-.04.15-.09.16-.23.14-.69-.07l-.31-.14c-.34-.17-.58-.4-.61-.62-.12-.66.21-1.14.57-1.56.27-.31.6-.56.93-.81l.03.04Z"/><path class="cls-4" d="M242.91,214.31c-.33-.57-.59-1.18-.8-1.77-.08-.22-.19-.42-.25-.64-.22-.78-.29-1.59-.41-2.36-.05-.34-.12-.68-.18-1.02-.08-.43-.17-.86-.18-1.3,0-.14.09-.14.22-.05.13.09.31.27.4.5.31.84.61,1.66.81,2.5.12.51.39.98.58,1.46.22.53.45,1.05.75,1.53.18.3.37.59.6.86.34.4.7.8,1.13,1.09.34.22.73.33,1.1.42.08.02.17.03.25.05.29.09.36.19.32.61,0,.09-.01.19-.02.28-.04.32-.26.53-.57.53-.92-.02-1.81-.49-2.5-1.1-.52-.46-.92-1.02-1.27-1.59l.03-.02Z"/><path class="cls-4" d="M257.85,170.56c-1.26-.36-2.51-.75-3.74-1.09-.45-.12-.91-.19-1.36-.3-1.59-.4-3.19-.71-4.8-.81-.72-.05-1.44.02-2.13.13-.45.05-.89.15-1.34.23-.44.1-.87.22-1.39.18-.36-.12-.28-.02-.13-.32.07-.16.19-.34.34-.59.16-.21.4-.36.66-.48.48-.19.97-.36,1.48-.49.5-.12,1.02-.16,1.53-.19,1.02-.04,2.05.01,3.04.22,1.18.24,2.41.37,3.59.65,1.3.3,2.56.67,3.81,1.02.77.21,1.54.42,2.32.6,1.17.27,2.36.52,3.54.59.92.06,1.82-.07,2.69-.23.19-.03.38-.08.57-.12.36-.06.59-.08.77-.02.18.07.31.21.43.44.06.1.13.2.17.3.15.32-.09.74-.67.95-1.72.56-3.64.49-5.45.23-1.35-.19-2.66-.52-3.94-.85v-.04Z"/><path class="cls-4" d="M276.84,261.28c.22-.2.42-.42.53-.72.08-.13.09-.32.14-.48.04-.18.06-.41.08-.63.03-.32,0-.64.04-.96.15-1.14.25-2.3.32-3.47.04-.52.05-1.04.07-1.55.02-.66.06-1.32.18-1.98.04-.2.07-.17.12,0,.04.18.15.49.22.87.2,1.32.54,2.64.47,4-.03.81.12,1.65.12,2.5-.02.47-.03.91-.1,1.43-.07.53-.24,1.07-.55,1.54-.37.57-.9,1.01-1.45,1.31-.85.43-1.74.61-2.58.79-.66.14-1.3.32-1.95.44-.14.03-.28.07-.42.09-.53.05-.71-.05-.86-.42-.03-.08-.08-.17-.1-.25-.08-.29.12-.55.49-.7,1.12-.42,2.28-.59,3.32-.9.76-.23,1.43-.54,1.87-.93l.03.03Z"/><path class="cls-4" d="M290.2,262.52c-.19-.11-.39-.24-.6-.38-.2-.15-.43-.35-.56-.51-.32-.33-.58-.73-.76-1.15-.14-.3-.29-.6-.36-.91-.26-1.12-.14-2.16-.05-3.16.04-.45.07-.88.11-1.32.04-.55.08-1.02.13-1.68.02-.17.05-.15.1,0,.05.15.14.42.18.75.13,1.16.18,2.31.24,3.41.03.66.24,1.31.54,1.84.16.29.34.57.57.81.22.26.46.49.71.64.34.21.77.39,1.2.53.66.21,1.34.45,2.04.57.54.11,1.1.07,1.66.13.12.01.25,0,.37.03.45.08.59.23.58.68,0,.1,0,.21,0,.31-.04.34-.27.57-.61.62-1.02.16-2.07,0-3.13-.25-.8-.18-1.56-.48-2.37-.9l.02-.04Z"/><path class="cls-4" d="M315.05,294.05c-.03-.6,0-1.18,0-1.77,0-.21-.04-.42-.03-.63.05-.74.1-1.49.15-2.23.02-.33.04-.65.05-.98,0-.41.02-.83.13-1.24.04-.13.17-.11.32,0,.15.11.34.31.39.54.09.41.17.82.24,1.23.07.41.04.82.02,1.23-.04.5.1,1,.17,1.5.07.55.14,1.1.21,1.65.04.34.07.67.14,1,.1.49.21.98.45,1.38.19.31.49.52.77.67.06.03.13.04.19.08.21.11.19.24,0,.72l-.13.33c-.15.36-.45.58-.78.48-1-.3-1.62-1.25-1.92-2.09-.24-.64-.33-1.27-.41-1.88h.04Z"/><path class="cls-4" d="M241.34,279.77c.31-.55.66-1.14,1.36-1.58.63-.37,1.18-.51,1.72-.66.4-.08.79-.19,1.18-.23,1.4-.15,2.77-.17,4.13-.14.61.01,1.21.02,1.82.05.77.07,1.57.23,2.27.63.22.12.14.18-.08.21-.22.02-.6.11-1.02.12-.37,0-.74.05-1.11.08-.37.01-.74.01-1.11.04-.74.04-1.48.08-2.25.12-.91.04-1.83.29-2.71.53-.47.14-.97.25-1.39.41-.45.17-.7.31-.97.65-.32.41-.55.98-.73,1.56-.27.88-.46,1.83-.53,2.78-.06.74.03,1.48.03,2.22,0,.16.02.33.01.49-.02.62-.16.81-.6.91-.1.02-.2.05-.3.06-.34.03-.59-.23-.68-.68-.28-1.34-.26-2.78-.05-4.25.16-1.09.41-2.2.95-3.35l.04.02Z"/><path class="cls-4" d="M245.33,325.86c-.78-.38-1.52-.87-2.21-1.44-.25-.21-.54-.36-.76-.61-.82-.81-1.46-1.83-1.79-2.91-.16-.47-.31-.94-.41-1.41-.05-.3-.15-.6-.14-.91,0-.31.04-.62.11-.92.04-.19.24-.16.47-.01.23.15.54.4.65.69.35,1.04.72,1.92,1.22,2.81.26.58.83.96,1.32,1.36.58.42,1.19.84,1.87,1.17.4.23.84.41,1.28.6.67.25,1.36.51,2.07.64.55.12,1.12.09,1.68.12.12,0,.25,0,.37,0,.46.06.58.21.61.71,0,.11.02.23.02.34,0,.38-.24.66-.61.74-1.08.21-2.23.2-3.33-.1-.83-.19-1.64-.51-2.45-.84l.02-.05Z"/><path class="cls-4" d="M239.48,309.52s-6.95,3.89-5.65,7.91c1.3,4.02,7.22,5.27,7.22,5.27l-1.57-13.17Z"/><path class="cls-4" d="M314.97,364.84c1.28-.24,2.55-.49,3.81-.81.46-.11.9-.29,1.36-.41,1.63-.37,3.27-.78,4.87-1.31.72-.21,1.42-.47,2.11-.74.87-.4,1.81-.64,2.75-.87.3-.06.31.06.16.34-.16.26-.45.75-.89,1.12-1.61,1.23-3.43,2.07-5.39,2.53-1.17.29-2.3.81-3.48,1.16-1.3.36-2.61.68-3.92.96l-2.43.5c-1.22.25-2.47.41-3.68.66-.94.19-1.84.5-2.77.69-.2.05-.4.1-.61.13-.77.12-1.04.02-1.28-.43-.05-.1-.12-.2-.16-.3-.13-.35.14-.7.67-.93,1.59-.71,3.29-1.14,5.01-1.53,1.27-.31,2.56-.53,3.84-.81l.02.05Z"/><path class="cls-4" d="M363.14,267.32c1.28.1,2.56.27,3.81.58.45.12.93.14,1.37.31,1.58.5,3.08,1.29,4.39,2.3.57.45,1.18.86,1.72,1.34.36.29.68.63.94,1.02.25.4.39.88.56,1.31.09.28,0,.29-.3.23-.29-.07-.88-.13-1.4-.28-.11-.04-.23-.07-.33-.11l-.26-.17c-.16-.12-.35-.22-.52-.33-.31-.25-.61-.52-.95-.74-.32-.25-.64-.49-.99-.71-.33-.25-.68-.46-1.03-.69-.83-.59-1.87-.82-2.87-1.1-1.11-.27-2.24-.53-3.41-.6-.72-.09-1.44-.08-2.17-.09l-1.65.08c-.55.05-1.1.14-1.64.23-.84.17-1.63.49-2.43.75-.18.06-.34.14-.52.19-.67.18-.92.09-1.22-.38-.07-.11-.15-.21-.2-.32-.18-.37,0-.78.48-1.07.7-.43,1.45-.81,2.26-1.05.79-.3,1.64-.42,2.49-.55,1.27-.17,2.56-.2,3.86-.18v.06Z"/><path class="cls-4" d="M346.38,251.76c1.72-.58,3.47-.97,5.23-1.23.63-.08,1.23-.26,1.87-.32,2.22-.22,4.51-.29,6.78.06,1,.15,2.01.3,2.99.54.63.15,1.26.31,1.85.59.29.14.58.28.85.45.28.15.49.46.73.68.28.32.19.37-.23.51-.21.07-.51.17-.87.32-.34.1-.68.11-1.01.07-.6-.08-1.15-.21-1.7-.32-.56-.1-1.11-.19-1.68-.24-1.13-.13-2.29-.16-3.49-.24-1.45-.15-2.96.19-4.45.4-1.67.22-3.23.52-4.81,1-.96.3-1.91.63-2.81,1.07-1.37.64-2.7,1.43-3.81,2.43-.86.79-1.5,1.74-2.06,2.7-.12.21-.2.45-.34.65-.5.76-.75.95-1.46.83-.16-.02-.32-.03-.47-.07-.5-.13-.7-.68-.5-1.49.66-2.34,2.39-4.44,4.44-5.91,1.53-1.1,3.22-1.91,4.94-2.55l.03.06Z"/><path class="cls-4" d="M477.56,198.45c-9.07-21.08-22.55-34.82-29.71-39.41-7.15-4.6-22.7-3.21-22.7-3.21,0,0-.41-1.95-1.09-4.1-.69-2.15-7.15-11.37-12.85-16.54-5.71-5.17-15.12-6.39-15.12-6.39-7.72,0-12.16,4.07-13.13,7.91-1.37,5.41,3.39,12.49,3.61,12.82-.19-.21-3.33-3.56-9.49-6.39-6.37-2.91-13.12-1.74-13.12-1.74-5.05.53-9.55,4.4-9.85,7.73-1.08,12.05,15.35,18.72,15.35,18.72,0,0,19.29-5.76,23.24-5.7s13.4,2.77,13.4,2.77l-3.58,8.96s-.22,19.49-.55,24.03c-.33,4.53,6.42,20.26,6.42,20.26l-8.15,9.61s-12.11,17.8-14.25,22.23-4.02,12.63-3.03,15.83c.99,3.2,4.29,8.35,5.42,9.21,1.14.86,9.58,2.35,13.98,1.51,4.39-.85,7.3-6.96,7.3-6.96,0,0,.92,6.4,1.55,8.85.62,2.45,6.16,10.36,7.29,11.37,1.14,1,8.27,4.82,14.86,2.25s13.23-13.99,13.23-13.99c0,0,5.31,10.88,16.03,16.18,15.54,7.67,28.27-19.76,28.25-51.52,0-7.69-4.24-23.21-13.31-44.29ZM433.98,219.74c-1.94,1.86-6.78,4.02-8.83,3.68-2.04-.33-6.35-2.08-6.35-2.08,0,0,1.27-6.06,3.09-9.63,1.83-3.58,5.57-7.51,5.57-7.51,0,0,6.28,1.84,7.22,5.77.95,3.93,1.24,7.9-.7,9.77Z"/><path class="cls-4" d="M60.22,167.02c4.09-.1,8.18-.23,12.27-.33.95-.02,1.75-.79,1.75-1.75s-.8-1.77-1.75-1.75c-4.09.1-8.18.23-12.27.33-.95.02-1.75.79-1.75,1.75s.8,1.77,1.75,1.75h0Z"/><path class="cls-4" d="M243.39,172.87c-.47,6.23-.64,12.58-.7,18.9-.03,3.16,0,6.33.09,9.48.09,3.15.21,6.31.49,9.4.1,1.1.25,2.3.44,3.2.06.2.05.32.18.4.06.03.14.03.2.04l.52.06c2.2.2,4.53.28,6.82.39,8.12.34,16.29.48,24.45.54,8.16.05,16.32.03,24.45-.3,1.46-.07,2.92-.14,4.37-.25.73-.05,1.44-.12,2.15-.2l.96-.12c.18-.03.35-.06.52-.1.35,0,.25-.4.29-.62l.07-1.3c.04-1.07.08-2.15.13-3.22.05-2.15.11-4.29.16-6.43.11-4.62.22-9.25.32-13.87l.1-3.47.18-3.47.19-3.47c.08-1.15.26-2.31.38-3.46.41-2.88.23-2.49.57-.05.43,2.44,1.23,6.94,1.39,12.27.07,4.75.17,9.5.16,14.26l-.14,7.14-.12,3.59-.04.91-.03.46-.06.85c-.06.57-.07,1.2-.37,1.6l-.24.27-.12.13-.06.07-.03.04c-.1-.09.13.13.1.11h0s-.02.02-.02.02l-.6.45-1.6.45c-.26.08-.57.11-.8.14l-.47.06c-.63.09-1.23.12-1.84.18-1.2.09-2.4.15-3.59.21-2.38.1-4.75.15-7.12.19-4.74.06-9.47.06-14.21,0-5.7-.05-11.52-.09-17.37-.14-5.86-.07-11.72-.11-17.62-.49l-1.23-.1c-.2-.02-.41-.04-.63-.06l-.34-.04c-.16-.02-.32-.03-.48-.06-.61-.18-1.28-.28-1.75-.69-.46-.43-.67-1.06-.86-1.69-.17-.68-.23-1.02-.3-1.46-.07-.42-.12-.83-.18-1.24-.1-.82-.18-1.64-.25-2.45-.27-3.24-.39-6.46-.48-9.67-.14-6.43-.19-12.85-.03-19.28.06-2.39.14-4.79.28-7.19.07-1.2.17-2.4.29-3.62.06-.61.14-1.22.23-1.84l.08-.49.14-.66c.12-.43.26-.84.5-1.2.36-.45.87-.72,1.43-.87.28-.09.56-.14.85-.19.31-.05.46-.06.69-.09.83-.09,1.62-.12,2.42-.15,1.59-.05,3.15-.06,4.71-.05h1.03s.54.01.54.01c.25.01.51.04.75.1.87.24,1.46.55,2.09.82,1.22.55,2.39.98,3.6,1.16.3.05.6.07.91.09l.99.03c.66,0,1.31,0,1.94-.05.64-.05,1.26-.13,1.81-.29.14-.04.28-.08.41-.13.14-.05.4-.16.61-.25.45-.19.92-.29,1.39-.17.32.14.6.31.88.51.25.23.54.47.75.71l1.01,1.09c.66.72,1.31,1.42,1.99,2.08.67.67,1.36,1.3,2.08,1.83.18.14.36.27.54.38.16.09.23.16.37.22.24.13.5.23.77.28.35.08.82-.02.9-.42.09-.36.02-.74-.05-1.09l-.17-.7-.25-.92c-.17-.62-.36-1.25-.49-1.96-.04-.27-.09-.55-.1-.88.01-.33,0-.72.31-1.24.08-.13.18-.25.32-.35l.1-.08c.06-.03,0-.02.21-.11.16-.06.35-.09.51-.08.18.02.21.05.33.09.09.04.18.09.26.15.05.04.07.06.1.1.06.06.13.14.16.18.06.08.13.19.16.25.17.3.26.53.36.77.38.94.69,1.84,1.03,2.72.17.44.34.87.53,1.29.12.28.22.47.35.7.12.21.25.42.42.6.16.17.38.33.62.27.36-.07.51-.46.58-.77.08-.33.11-.64.18-.98.08-.35.18-.71.3-1.07l.1-.27.05-.14.05-.12s0-.02.08-.14c.03-.05.06-.09.09-.13l.05-.06c.11-.13.41-.35.76-.38.33-.04.69.11.72.18l.17.23.17.23c.06.07.02.02.03.04h0s0,.04,0,.04v.06s0,.11,0,.11c.01.28.05.62.32.77.28.11.6-.03.81-.21.22-.2.36-.45.47-.7l.27-.65c.11-.28.21-.57.31-.87l.39-1.17c.17-.5.36-1,.66-1.35.11-.12.24-.3.42-.31l.53-.03,1.06-.06,1.05-.06.75.02c1,.03,2,.07,3.02.13,7.54.49,9.89,1.12,11.38,2.14.34.24.79.48,1,.69.38.36-.31.65-1.69.73-1.39.09-3.51.02-6.23-.14-2.14-.12-4.29-.22-6.46-.29l-1.63-.04h-.36s-.14,0-.14,0h-.26c-.07.02-.21-.01-.2.05-.02.05-.02.09-.03.14-.02.07,0,.01-.07.26l-.28.84c-.1.28-.21.57-.33.87l-.22.49c-.11.23-.23.47-.36.69-.5.91-1.17,1.68-1.93,2.14-.76.46-1.66.68-2.53.58-.43-.05-.87-.21-1.22-.44-.35-.23-.62-.5-.84-.83-.22-.33-.41-.72-.53-1.2-.06-.24-.11-.49-.14-.79l.65.44.37.25c1.97-3.57.54-.98.99-1.77.01,0,.09.09.16.12.03.02.07.04.11.05.04.02.13.07.19.1.14.07.28.14.42.2l.21.09.11.04c1.26.54.35.15.63.27v.02s-.02.03-.02.03l-.05.14c-.14.42-.2.58-.46,1.92-.11.54-.24,1.05-.41,1.52-.19.44-.39.85-.65,1.15-.48.62-1.17,1.04-2.05,1.21-1.25.14-2.22-.29-3.12-1.31-.44-.51-.84-1.14-1.19-1.84-.17-.35-.34-.7-.5-1.06l-.27-.63c-.32-.79-.6-1.56-.88-2.31l-.4-1.07-.19-.44-.06-.12h0s-.07.03.09-.07c.19-.11.33-.17.49-.28.15-.1.3-.2.44-.32.14-.12.21-.14.31-.23.19-.2.28-.29.27-.37h0s0,0,0,0l.23.39h0s0,0,0,0c.02.02.04.04.06.05l.18.09c.13.05.44.15.71.16.17.03.38.05.56.05.06,0,.01,0,.03.01,0,.1.05.42.13.74.15.66.39,1.43.61,2.26.07.26.33,1.24.4,1.98.09.78.06,1.52-.15,2.15-.2.63-.59,1.18-1.13,1.6-.28.2-.57.36-.89.45-.32.09-.65.12-.98.19-.72-.1-1.42-.07-2.15-.43-.36-.15-.73-.25-1.08-.45l-.83-.52c-.78-.56-1.51-1.14-2.14-1.75-.9-.83-1.71-1.69-2.49-2.52-.38-.42-.78-.82-1.15-1.19-.26-.26-.17-.17-.19-.19,0,0,0,0,0,0,0,0,0,0,0,0,0,0,0,0,0,0l-.24.09c-.68.26-1.35.41-1.98.52-1.26.21-2.43.25-3.58.26-.29,0-.56,0-.87-.01-.33-.02-.67-.03-.99-.08-.66-.07-1.29-.22-1.91-.38-1.22-.34-2.36-.83-3.31-1.25-.45-.2-.95-.38-1-.38,0,0,0,0,0,0h-.37s-.8,0-.8,0l-3.17.04c-1.05.02-2.09.06-3.08.13l-.72.07-.44.06s-.05,0-.06.02c0,0-.01.02-.01.03v.02s-.02.11-.02.11c-.07.42-.13.88-.18,1.35-.1.94-.17,1.91-.23,2.88h-.09Z"/><path class="cls-4" d="M313.78,286.66l.17-5.31v-.49s-.01-.66-.01-.66c0-.56-.01-1.15.1-1.67l.08-.33c.05-.09.1-.18.15-.27.1-.18.22-.32.34-.48l.1-.12s.05.03-.03-.06h.02s.03-.03.03-.03l.06-.04c.08-.06.18-.1.28-.13.19-.07.4-.14.62-.18.42-.12.91-.14,1.38-.17.22-.01.5-.04.67-.04h.44c1.16.02,2.32.15,3.47.22,1.02.04,2.05.11,3.06.19.65.05,1.3.13,1.96.25.66.06,1.28.5,1.92.67.39.15.3.28-.07.46-.19.1-.43.16-.74.37-.17.11-.33.2-.48.3-.08.06-.17.09-.26.17-.09.01-.18.05-.27.07l-1.92.43c-.64.1-1.28.21-1.92.3-1.28.01-2.57-.02-3.87-.12-.38-.03-.8-.08-1.16-.08-.13-.02-.26-.02-.39,0-.07,0-.13.01-.19.03-.08,0-.06.11-.07.16l-.04.39s-.05.6-.08,1.01l-.08,1.32-.13,2.67-.14,3.29c-.06,1.66-.17,3.34-.18,5,0,1.29.11,2.56.06,3.85,0,.28,0,.57-.04.85-.16,1.06-.46,1.37-1.07,1.51-.14.03-.27.08-.4.09-.42.04-.78-.43-.95-1.19-.27-1.13-.36-2.26-.49-3.42-.08-1.15-.06-2.32-.07-3.5.02-1.76.03-3.53.05-5.29h.08Z"/><path class="cls-4" d="M247.36,274.8c6.96-.15,13.87-.09,20.79-.02,2.52.03,5.05-.04,7.57.03,4.45.12,8.89.29,13.34.51,4.45.24,8.89.46,13.37.98l1.36.2.69.12c.27.06.64.14.96.19.53.15,1.05.42,1.31.93.28.49.47,1.02.6,1.6.2.88.29,1.63.39,2.42.17,1.56.26,3.1.32,4.63.15,5.06.38,10.16-.76,15.16-.42,1.55-.61,1.3-1.05-.05-.2-.68-.65-1.64-.83-2.77-.23-1.14-.41-2.46-.46-3.89-.03-2.89-.06-5.78-.22-8.64-.08-1.43-.18-2.85-.35-4.21l-.15-.99c-.02-.17-.06-.32-.09-.47l-.05-.23-.03-.1h0s.02-.1-.04-.07c0-.04,0-.02-.01-.03,0,0,0,0-.03,0l-.19-.02-.76-.08-1.58-.13-3.23-.33c-2.18-.18-4.37-.37-6.56-.55-6.14-.49-12.56-.38-18.87-.46-6.93-.09-13.88-.17-20.81-.1-2.13.02-4.27.06-6.38.13l-1.51.07c-.26.02-.54.02-.8.09-.16.21-.22.48-.29.74l-.11.57-.11.75c-.39,3.1-.49,6.36-.57,9.57-.07,3.23-.08,6.46-.04,9.67.06,5,.34,9.9.46,14.85.03,1.09.06,2.16.05,3.26-.07,4.09-.37,5.39-1.26,6.23-.2.19-.39.45-.58.56-.62.36-1.15-1.31-1.33-4.27-.32-4.4-.52-8.92-.67-13.51-.15-4.6-.25-9.26-.26-13.97,0-3.5.03-7,.28-10.6.08-.91.15-1.81.29-2.77.03-.23.07-.48.12-.73.05-.29.15-.79.28-1.17.12-.4.22-.82.43-1.16.09-.18.17-.37.28-.53l.38-.43c.44-.07.57-.47.99-.56.17-.08.37-.13.58-.16.2-.04.41-.08.62-.09l.63-.07.52-.04.68-.04,2.66-.12v.09Z"/><path class="cls-4" d="M351.46,179.72c-2.85,2.61-5.43,5.54-7.73,8.68-2.35,3.12-4.22,6.47-5.7,10.06-1.06,2.62-1.84,5.35-2.43,8.11-1.05,4.86-1.4,9.91-.64,14.79.41,2.43,1.08,4.8,2.1,7.03,1.06,2.27,2.35,4.42,3.79,6.48,2.62,3.6,5.85,6.8,9.52,9.26,2.34,1.6,4.88,2.88,7.47,3.99,2.61,1.11,5.32,1.76,8.05,2.78.86.33,1.24.53,1.2.64-.04.12-.48.18-1.3.4-.81.24-1.99.52-3.44.62-.73.09-1.48-.06-2.29-.15-.82-.09-1.64-.32-2.5-.59-.76-.22-1.5-.51-2.23-.81l-1.11-.44c-.37-.15-.71-.36-1.06-.53-1.42-.7-2.77-1.54-4.09-2.4-2.63-1.75-5.03-3.82-7.18-6.12-2.15-2.3-4.05-4.82-5.66-7.53-.38-.69-.78-1.37-1.15-2.06l-1.02-2.13c-.32-.73-.59-1.5-.89-2.25-.27-.76-.45-1.54-.68-2.31-.95-3.71-1.27-7.57-1.15-11.4.13-3.83.72-7.65,1.76-11.31,1.14-4.02,2.76-7.9,4.84-11.52.53-.9,1.1-1.78,1.66-2.66l1.8-2.53c.59-.85,1.28-1.63,1.91-2.44.63-.82,1.33-1.58,2.03-2.35,3.42-3.77,7.31-7.14,11.58-9.9,6.46-4.22,13.83-7,21.29-8.45,5.81-1.16,11.64-1.69,17.54-1.36,1.3.08,2.57.17,3.88.35,2.42.36,4,.82,5.07,1.32,1.06.49,1.61,1.05,1.9,1.68.13.3.3.64.3.88-.03.41-.46.48-1.25.42-.8-.07-2.06-.28-3.69-.55-4.88-.76-10.05-.87-15.2-.46-5.16.4-10.32,1.43-15.27,3.08-7.36,2.43-14.24,6.41-19.93,11.73l-.07-.06Z"/><path class="cls-4" d="M387.3,125.59c2.31-.33,4.59-.3,6.83-.04,2.24.28,4.44.77,6.62,1.64,1.49.65,2.95,1.22,4.34,2,2.45,1.37,4.76,2.94,6.93,4.69,2.15,1.77,4.13,3.74,5.93,5.85,1.6,1.86,3.12,3.83,4.4,5.92l.61,1.01.55,1.05.54,1.06.46,1.1c.58,1.47.92,3.06.79,4.68.07.97-.05.85-.54.15-.24-.35-.7-.82-1.28-1.33-.55-.52-.97-1.18-1.43-1.88-2.71-5.18-6.34-9.85-10.78-13.95-2.64-2.48-5.95-4.39-9.27-6-.92-.41-1.87-.88-2.76-1.22-.88-.36-1.85-.6-2.81-.83-1.94-.41-3.95-.61-5.94-.56-2.44.06-4.91.48-6.98,1.55-.76.43-1.5.9-2.07,1.53-.63.59-1.03,1.27-1.28,2.05-.51,1.55-.18,3.41.47,5.1,1.05,2.66,2.89,4.96,4.83,7.11.43.48.88.91,1.32,1.38,1.63,1.75,1.99,2.45,1.77,3.44-.05.23-.07.48-.16.67-.28.64-1.43.37-2.9-.82-2.15-1.78-4.09-3.93-5.78-6.41-.84-1.25-1.61-2.59-2.21-4.09-.6-1.49-1.07-3.16-1.03-5.04,0-1.38.37-2.89,1.13-4.17.37-.66.83-1.22,1.3-1.7.45-.53.99-.92,1.52-1.34,2.16-1.57,4.57-2.26,6.88-2.68l.02.09Z"/><path class="cls-4" d="M418.95,286.95c2.02,2.21,4.66,3.79,7.41,4.39.5.17,1.03.12,1.55.15.26,0,.52.03.78.02.26-.03.52-.06.78-.08,1.84-.13,3.74-.67,5.47-1.66,1.73-.96,3.39-2.19,4.83-3.67.68-.62,1.21-1.38,1.8-2.09.49-.78,1.07-1.51,1.47-2.33.64-1,1.12-2.07,1.65-3.14.45-1.1.93-2.18,1.41-3.31.32-.7.42-.59.57.1.09.45.2.95.31,1.47.08.62.01,1.31-.11,2.05-.1.67-.33,1.28-.5,1.93-.17.65-.41,1.27-.66,1.9-.23.64-.55,1.22-.89,1.8-.35.57-.65,1.18-1.06,1.71-1.49,2.24-3.44,4.23-5.82,5.64-1.39.88-2.89,1.65-4.47,2.31-.8.3-1.64.53-2.48.76-.87.11-1.73.32-2.6.29-.96-.03-1.93-.01-2.86-.26-.47-.1-.94-.18-1.4-.31l-1.33-.51c-1.78-.66-3.31-1.7-4.74-2.83-1.76-1.4-3.2-3.12-4.47-4.9-1.9-2.74-3.22-5.81-4.15-8.95-.69-2.44-1.32-4.92-1.37-7.52,0-.57-.07-1.13.02-1.71.06-.53.13-.98.22-1.34.09-.36.24-.64.38-.87.29-.44.66-.64,1.18-.73.24-.04.48-.11.7-.1.76.03,1.18.96,1.17,2.28.03.5.06.99.08,1.5.03.49.12,1,.16,1.49.04.49.13.99.2,1.48.06.5.12.99.24,1.49.35,1.98.91,3.96,1.71,5.85,1.13,2.83,2.78,5.47,4.89,7.6l-.06.07Z"/><path class="cls-4" d="M433.07,216.53c.41-1.1.59-2.11.49-3.31-.09-1.17-.43-2.37-.96-3.47-.39-.81-.97-1.48-1.53-2.13-.48-.56-1.04-1-1.62-1.37-.3-.13-.6-.33-.92-.4-.16-.04-.31-.13-.48-.13-.17-.02-.33-.04-.4-.07-.18-.02-.34.04-.51.15-.26.17-.55.47-.84.76-.58.6-1.13,1.33-1.64,2.09-.9,1.31-1.58,2.78-2.33,4.2l-1.37,2.79c-.44.94-1.01,1.83-1.52,2.75-.34.56-.43.44-.46-.17,0-.59-.13-1.73.13-2.93.27-1.05.56-2.1.88-3.14.16-.52.32-1.05.51-1.56.21-.5.43-1.01.67-1.51.47-1,.99-1.99,1.61-2.96.65-.98,1.29-1.93,2.6-2.83.62-.42,1.33-.69,2.09-.68,3.04.1,5.3,1.77,6.85,3.71.99,1.31,1.71,2.78,2.16,4.33.45,1.55.64,3.19.42,4.85-.31,1.99-1.05,3.9-2.37,5.47-.95,1.21-2.28,2.1-3.67,2.68-1.39.61-2.87.87-4.32.92-2.26.08-4.5-.18-6.62-.94-.47-.17-.94-.29-1.38-.54-.41-.21-.74-.41-1.01-.59-.25-.2-.43-.4-.56-.59-.25-.38-.26-.78-.13-1.27.06-.22.1-.46.19-.65.3-.64,1.26-.81,2.28-.37,1.58.57,3.18,1,4.75,1.2,1.57.2,3.13.12,4.51-.24,1.02-.29,1.94-.76,2.71-1.42.74-.69,1.3-1.6,1.69-2.64l.09.02Z"/><path class="cls-4" d="M269.64,374.69c-8.57-.85-16.89-3.22-24.6-6.9-2.82-1.32-5.58-2.82-8.18-4.57-2.3-1.53-4.44-3.32-6.47-5.2-1.98-1.95-3.85-4.07-5.4-6.39-3.11-4.63-5.2-9.89-6.19-15.34-.4-2.43-.66-4.88-.65-7.35.03-2.47.29-4.93.83-7.33.39-1.52.75-3.08,1.42-4.58.64-1.49,1.43-2.9,2.39-4.22,1.95-2.58,4.75-4.66,7.89-5.45,1.99-.38,1.71,0,.46,1.06-.6.59-1.43,1.35-2.2,2.42-.8,1.02-1.63,2.18-2.46,3.47-.78,1.11-1.53,2.25-2.11,3.49-.62,1.23-.98,2.47-1.34,3.88-.69,2.75-.96,5.59-.96,8.46.04,5.73,1.52,11.54,4.21,16.79,3.17,6.37,9.09,11.33,15.44,15.07,7,4.15,14.85,7.01,22.93,8.42,4.98.92,10.03,1.1,15.1.79,7.68-.46,15.38-1.86,22.79-3.88,5.76-1.61,11.24-3.72,16.66-6.03,1.2-.49,2.34-1.06,3.54-1.56,4.43-1.94,5.9-2.43,7.28-1.98.31.1.7.16.92.3.76.46-.75,1.94-3.97,3.66-1.19.64-2.4,1.26-3.63,1.84-1.23.61-2.48,1.18-3.75,1.73-2.54,1.1-5.15,2.09-7.81,3.02-5.32,1.85-10.84,3.38-16.46,4.52-4.17.87-8.42,1.49-12.7,1.86-4.28.36-8.63.47-12.98.09v-.09Z"/><path class="cls-4" d="M424.02,332.88c2.13,7.38,4.06,14.81,5.85,22.27.65,2.72,1.38,5.42,1.98,8.16,2.08,9.64,3.89,19.34,5.22,29.12.59,4.34,1.19,8.7,1.65,13.03.31,2.78.53,5.58.62,8.39.03,1.4.07,2.81-.02,4.22-.11,1.41-.26,2.81-.5,4.2-.32,1.74-.53,1.47-.91-.02-.2-.79-.47-1.82-.78-3.03-.14-.62-.33-1.29-.45-2-.1-.71-.19-1.47-.25-2.25-.19-2.79-.57-5.56-.83-8.36-.29-2.79-.64-5.58-1.01-8.37-.75-5.59-1.65-11.17-2.49-16.81-1.03-6.74-2.72-13.64-4.32-20.43-1.76-7.47-3.66-14.91-5.75-22.29-1.29-4.54-2.64-9.07-4.1-13.56-2.21-6.8-4.57-13.59-7.35-20.11-2.18-5.05-4.68-9.86-7.53-14.38-.64-.99-1.3-1.92-1.99-2.86-2.55-3.5-3.35-4.25-3.52-5.61-.05-.29-.18-.63-.19-.88-.02-.43.44-.56,1.4-.28.94.28,2.15,1.11,3.39,2.39,1.84,1.89,3.29,4.03,4.68,6.21,1.37,2.19,2.61,4.46,3.77,6.78,2.32,4.64,4.32,9.48,6.18,14.36,2.75,7.26,5.13,14.67,7.36,22.09l-.08.04Z"/><path class="cls-4" d="M313.33,397.58c-1.26,3.04-2.48,6.11-3.57,9.23-.41,1.13-.68,2.31-1.08,3.45-1.36,4.02-2.82,8.04-3.99,12.14-.53,1.82-.95,3.68-1.37,5.51-.25,1.18-.47,2.37-.74,3.55-.14.59-.25,1.18-.44,1.76l-.32.86c-.11.29-.49.52-.6.81-.31.71-.53.56-.81-.14-.08-.34-.7-.93-.8-1.51-.09-.3-.2-.63-.24-.96-.03-.33-.02-.67.02-1.02.36-2.47.77-4.93,1.31-7.37.59-2.43,1.28-4.84,2.12-7.22.97-2.85,1.68-5.9,2.64-8.82.52-1.61,1.1-3.2,1.66-4.8.6-1.58,1.17-3.17,1.8-4.75l1.16-2.9,1.2-2.88c1.21-2.91,2.57-5.77,3.81-8.64,1-2.21,1.76-4.5,2.77-6.7.22-.49.41-.97.66-1.44.95-1.75,1.48-2.18,2.52-2.08.24.02.48.02.7.07.72.19.88,1.19.43,2.57-1.23,4.12-3.18,8.06-4.92,12.16-.66,1.51-1.32,3.03-1.98,4.55-.62,1.54-1.29,3.06-1.87,4.61l-.09-.03Z"/><path class="cls-4" d="M256.02,266.34c-2.43-.03-4.87-.1-7.32-.27-1.23-.09-2.46-.19-3.73-.37-.66-.1-1.23-.19-2.01-.39-1.05-.27-2.1-.73-2.53-1.7-.14-.4-.25-.81-.31-1.24-.09-.5-.09-.65-.13-.93l-.13-1.51c-.07-.99-.13-1.98-.18-2.96-.12-2.49-.31-4.96-.36-7.44-.06-3.13-.06-6.25.02-9.39.04-1.57.11-3.14.22-4.73.06-.8.13-1.59.24-2.42.04-.23.04-.36.1-.68.06-.29.1-.58.17-.87.15-.6.4-1.13.77-1.59.38-.29.77-.53,1.24-.67.22-.09.47-.12.7-.19.24-.06.49-.12.63-.13.67-.11,1.31-.17,1.95-.23,1.27-.11,2.53-.18,3.78-.22,3.9-.14,7.79-.23,11.64-.25,4.93.02,9.94,0,14.81,1.28.74.39,1.05.59,1.02.66-.03.09-.41.11-1.09.4-.68.31-1.61.51-2.74.8-.56.13-1.17.27-1.81.38-.32.06-.65.1-.99.17-.34,0-.68.02-1.03.03-2.24,0-4.48.04-6.73.1-2.24.01-4.48.02-6.73.03-2.24.03-4.48.08-6.7.18-1.11.05-2.21.11-3.28.21-.53.05-1.06.11-1.54.18-.15,0-.22,0-.35.03-.07.07-.1.12-.15.27l-.04.12-.06.3-.12.67c-.45,2.85-.54,5.95-.58,9.02-.03,3.08.02,6.19.07,9.26.03,1.72.07,3.45.15,5.16.04.86.08,1.71.14,2.56.03.42.06.85.1,1.25l.05.44c0,.09.02.17.04.25.02.18.21.25.35.3.08.03.15.05.24.08.17.04.35.09.54.12.75.15,1.55.26,2.36.35,1.62.18,3.27.28,4.92.36,4.15.19,8.33.17,12.49.04,3.15-.11,6.32-.25,9.44-.56.78-.08,1.55-.17,2.3-.29.44-.07.6-.1.83-.16.19-.07.5-.08.52-.35.05-.22.07-.44.1-.69l.1-1.12c.05-.78.09-1.56.12-2.34.17-4.86-.05-9.67-.18-14.48-.04-1.06-.09-2.1-.13-3.17-.05-1.98-.04-3.28.13-4.2.18-.92.47-1.45.92-1.9.21-.2.41-.47.61-.59.35-.21.68.09,1,.81.31.72.61,1.86.72,3.33.36,4.35.55,8.82.46,13.36-.04,2.27-.12,4.55-.25,6.86-.07,1.16-.16,2.31-.26,3.52l-.02.24-.05.4c-.04.27-.06.53-.13.8-.08.56-.33,1.04-.66,1.4l-.06.08-.03.04-.02.02h0s.12.13.06.08l-.14.14c-.09.09-.2.16-.3.24-.22.14-.46.26-.72.35-.51.19-1.11.32-1.62.41-1.85.32-3.56.46-5.3.59-1.73.13-3.46.21-5.18.27-3.45.13-6.89.17-10.33.13v-.08Z"/><path class="cls-4" d="M309.71,262.81c3.33.03,6.7,0,9.92-.29.4-.04.79-.09,1.18-.14l.56-.09c.09-.02.18-.03.27-.05l.19-.04c.08-.01.16-.03.23-.07.07-.05.07-.14.1-.23,0,.03.04-.28.06-.45l.07-.6.12-1.23.19-2.49c.17-2.44.16-4.89.25-7.33.14-4.31.25-8.64.13-12.91-.04-1.06-.09-2.12-.19-3.13l-.07-.6c-.01-.14-.03-.24-.05-.35-.03-.11-.05-.23-.14-.3-.09-.07-.19-.11-.3-.15-.12-.04-.19-.06-.35-.1-.24-.05-.48-.11-.74-.15-.5-.09-1.02-.17-1.54-.24-1.05-.14-2.11-.25-3.18-.34-3.8-.32-7.66-.36-11.46-.31-2.44.05-4.89.1-7.33.15l-1.83.05-1.84-.05-1.84-.05-.92-.02h-.46s-.23-.01-.23-.01c-.04-.02-.07.05-.12-.04l-.12-.03c-.79-.23-1.13-.36-1.12-.44.01-.09.38-.19.99-.62.61-.43,1.51-.81,2.61-1.25.55-.21,1.15-.43,1.79-.61.32-.09.65-.18.99-.28.34-.05.69-.1,1.05-.13,2.53-.22,5.07-.41,7.6-.48,2.54-.03,5.08,0,7.62.09,2.55.1,5.09.25,7.69.56.65.08,1.31.17,1.98.29.34.06.67.12,1.03.2.15.02.48.12.74.2.28.08.56.15.81.27,2.31.6,2.28,4.13,2.33,4.94.1,3.18.05,6.26.02,9.4-.04,3.13-.12,6.27-.3,9.38-.1,1.71-.21,3.42-.35,5.13l-.23,2.58-.15,1.31-.05.33c-.01.1-.03.21-.06.4-.06.33-.11.67-.22.99-.17.65-.68,1.13-1.3,1.39-.3.14-.63.24-.96.32-.36.1-.52.12-.77.17-.91.16-1.79.25-2.66.32-1.74.14-3.46.19-5.18.21-4.23.04-8.44-.05-12.64-.24-3.19-.15-6.37-.35-9.57-.7-.8-.09-1.6-.19-2.41-.33-.34-.06-.96-.16-1.49-.33-.26-.09-.52-.18-.75-.32-.06-.03-.11-.07-.16-.11l-.08-.06c.03-.07-.03-.07-.03-.1-.08-.11-.13-.22-.2-.33-.23-.47-.26-1.07-.34-1.59l-.12-1.23-.18-2.38c-.3-4.92-.69-9.71-.88-14.57-.04-1.07-.11-2.12-.13-3.2-.02-2,.04-3.33.24-4.25.23-.93.55-1.45,1.04-1.86.22-.19.44-.43.66-.54.36-.17.67.15.93.88.26.73.49,1.85.55,3.3.24,4.3.5,8.72.61,13.2.07,2.23.15,4.48.22,6.74.05,1.12.09,2.25.2,3.31l.03.25h0s-.02,0,.03,0c1.5.27,3.19.45,4.84.6,1.66.15,3.35.27,5.03.37,3.37.2,6.75.33,10.13.36v.08Z"/><path class="cls-4" d="M280.58,171.76c.02.09.13.24.25.19.1-.03.2-.11.27-.27.1-.42.22-1.12.18-1.76,0-.76-.21-1.53-.36-2.31-.28-1.38-.73-2.77-1.34-4.05-.3-.65-.66-1.26-1.06-1.84-.38-.56-.77-.98-1.34-1.39-.99-.7-2.25-1.15-3.53-1.51-.8-.3-1.66-.5-2.48-.89l-.62-.29-.58-.39c-.39-.26-.76-.55-1.13-.82-.48-.29-.35-.38.16-.38.25,0,.63-.06,1.07-.16.24-.06.48-.12.72-.18.13-.04.25-.04.39-.1.12.01.25,0,.37,0,.44.03.91.01,1.35.09l1.36.22c.91.19,1.82.53,2.75.93.92.41,1.88.95,2.74,1.73.22.19.42.4.61.63l.29.34.21.32c.29.43.55.87.76,1.32,1.06,2.14,2.06,4.32,2.48,6.72.17,1.13.26,2.29.12,3.51-.06.32-.07.59-.18.95-.15.38-.23.8-.42,1.15-.38.73-.89,1.29-1.52,1.72-.41.24-.9.4-1.4.33-1.06-.14-1.89-.98-2.55-1.9-.18-.25-.27-.39-.38-.57l-.31-.52c-.2-.35-.38-.69-.55-1.04-.52-1.05-.97-2.12-1.4-3.18-.43-1.04-.86-2.16-1.32-3.04l-.05-.09c-.23-.34-.96-.69-1.69-.91-.73-.24-1.52-.42-2.32-.61-.36-.09-.73-.14-1.11-.25-.7-.16-1.12-.49-1.4-.74-.14-.14-.23-.28-.29-.44-.06-.17-.08-.36-.09-.54,0-.17-.03-.34-.02-.47.06-.4.77-.77,1.79-.72,1.14.06,2.28.31,3.51.62.62.17,1.24.36,1.92.67.34.16.69.34,1.07.61.37.24.84.69,1.17,1.18.13.2.19.32.25.44l.17.34.3.62.53,1.19c.49,1.1.95,2.19,1.45,3.22.25.52.51,1.01.77,1.48.13.23.26.46.4.66.07.11.03.06.05.1l-.05.07Z"/><path class="cls-4" d="M272,143.25l.89-.03.32-.02h0s0-.04.01.04l.1.41.11.4.03.1.02.05c-.12-.45.29,1.08-.26-1h0s.15-.05.15-.05c.39-.1.98-.36,1.51-.59l3.48-1.58c1.19-.53,2.42-1.03,3.71-1.45,1.28-.43,2.61-.79,4.03-.97,1.02-.15,2.1-.19,3.2-.11.56.08,1.09.15,1.68.31.61.17,1.12.42,1.61.69,1.4.79,2.5,1.75,3.54,2.76,1.03,1.02,1.96,2.1,2.81,3.24.85,1.15,1.63,2.35,2.28,3.68.16.33.31.68.45,1.04l.19.56c.04.16.15.49.18.73.23,1.04.12,2.11-.5,2.91-.55.63-1.31,1.05-2.15,1.11-.21.02-.42,0-.63,0l-.63-.1-.62-.19c-.21-.08-.39-.19-.52-.25-1.45-.81-2.66-1.65-3.83-2.58-1.16-.9-2.28-1.84-3.4-2.67-.36-.27-.72-.51-1.07-.73-.18-.11-.35-.2-.5-.27-.16-.07-.21-.09-.32-.1-.12,0-.15.02-.33.05l-.64.13-1.32.31c-1.76.45-3.57.82-5.29,1.2-1.04.13-1.15-.07-.45-1.05.35-.48.93-1,1.67-1.53.73-.55,1.65-1.02,2.7-1.32.75-.22,1.5-.43,2.28-.62l.63-.14c.36-.07.75-.11,1.12-.07.37.05.75.17,1.07.3.3.13.5.24.72.37,1.58.97,2.67,1.97,3.86,2.93,1.16.95,2.3,1.88,3.42,2.58.14.09.28.16.41.24.15.06.29.09.43.13l.18.04s.02.02.02.02c.02.01.03.02.05.03.07.04.2.07.29,0,.11-.05.13-.18.13-.32.02.02-.03-.16-.07-.29-.05-.13-.09-.28-.14-.42-.1-.29-.23-.59-.36-.88-.86-1.85-2.24-3.65-3.77-5.2-.77-.77-1.6-1.5-2.45-2.09-.42-.3-.86-.57-1.28-.77-.44-.21-.76-.34-1.26-.41-2.04-.43-4.45.1-6.74.88-2.32.79-4.55,1.91-6.96,2.98-.37.17-.77.32-1.2.47-.24.07-.41.15-.72.2-.34.06-.5.06-.74.08-.84.05-1.62.06-2.41.08-1.57.04-3.13.08-4.68.19-1.17.08-2.33.18-3.46.36-1.13.18-2.2.44-3.27.85-2.14.79-4.19,1.9-6.1,3.2-2.96,2.04-5.5,4.54-7.69,7.28-.47.61-.91,1.23-1.36,1.85-1.74,2.27-2.27,3-3.2,3.24-.21.06-.44.16-.61.17-.3.02-.41-.29-.34-.89.04-.3.12-.67.24-1.1.14-.42.34-.89.59-1.42.73-1.56,1.69-3.02,2.79-4.38,1.07-1.39,2.29-2.66,3.58-3.89,2.6-2.42,5.54-4.55,8.86-6.2,1.26-.57,2.53-1.13,3.95-1.5,1.42-.4,2.8-.57,4.13-.71,2.66-.26,5.29-.31,7.8-.41v.08Z"/><path class="cls-4" d="M101.67,164.49c-.02-5.28-.17-10.55-.34-15.81-.1-2.62-.24-5.25-.45-7.84-.11-1.29-.24-2.58-.42-3.83-.09-.63-.19-1.24-.32-1.82-.05-.31-.13-.58-.2-.83-.02-.11-.03-.15-.06-.22-.01-.1-.11-.14-.19-.17l-.13-.04-.48-.09c-.77-.14-1.6-.24-2.43-.33-1.67-.18-3.38-.3-5.08-.4-5.07-.29-10.19-.3-15.3-.37-7.94-.11-15.89-.07-23.83.16-3.97.12-7.94.27-11.88.56-1.97.15-3.94.32-5.87.56-1.82.24-4.26.6-4.59.97-.1.22-.09.47-.13.71l-.11,1.55-.15,3.19c-.28,7.99-.25,16.06-.16,24.02.1,5.11.2,10.23.29,15.35,0,2.56.06,5.12.01,7.67l-.13,7.66c-.25,3.18-.32,2.8-1.22.14-.45-1.33-.92-3.23-1.42-5.54-.24-1.16-.51-2.41-.7-3.75-.17-1.34-.31-2.76-.4-4.23-.28-3.98-.28-7.96-.35-11.94-.05-3.98-.07-7.96-.07-11.95,0-3.99.04-7.98.13-11.98.04-2,.1-4,.18-6.02l.15-3.04.05-.77.03-.39v-.2c.02-.07.03-.22.05-.33.07-.46.08-.95.2-1.37.16-.4.32-.81.5-1.2l.61-.56c.21-.18.47-.3.71-.44l.81-.32.83-.24c.79-.19,1.4-.3,2.08-.4,1.32-.2,2.6-.33,3.89-.45,2.56-.23,5.11-.35,7.66-.46,12.68-.5,25.8-.89,38.75-.66,3.33.07,6.66.18,10,.37,1.67.1,3.35.22,5.04.4.85.09,1.7.2,2.58.36.35.07,1.14.21,1.73.45.61.23,1.16.63,1.44,1.2.14.35.31.69.42,1.05l.25.89c.12.51.21.99.32,1.49.16.97.31,1.94.43,2.89.24,1.91.4,3.82.54,5.71.26,3.8.44,7.58.52,11.37.19,8.76.12,17.51-.13,26.25-.1,3.31-.23,6.63-.44,9.95-.1,1.66-.23,3.32-.4,4.99-.08.83-.18,1.67-.3,2.52l-.11.64c-.05.22-.05.41-.14.72l-.25.85c-.08.29-.25.52-.36.78-.36.45-.93.66-1.5.81-.27.07-.61.15-.84.19-.22.04-.43.08-.65.11-.85.13-1.69.22-2.53.3-1.67.16-3.33.26-4.98.35-3.31.17-6.61.27-9.89.36-10.22.25-20.22.46-30.32.45-2.22,0-4.4.02-6.64-.02-8.31-.17-10.96-.58-12.68-1.74-.39-.26-.91-.52-1.14-.77-.75-.81,2.65-1.34,8.71-1.33,8.99-.03,18.22-.07,27.58-.1,4.68-.04,9.39-.09,14.11-.19,4.71-.11,9.47-.24,14.1-.6.85-.07,1.71-.15,2.52-.26.4-.05.81-.11,1.16-.18.06-.01.02,0,.03,0h0s0,.06.01-.06l.09-.57c.12-.79.21-1.64.29-2.49.31-3.42.46-6.96.59-10.47.23-7.05.28-14.13.2-21.19l.1-.02Z"/><path class="cls-4" d="M127.1,82.3c4.99.13,9.97.31,15.03.79,1.27.13,2.54.27,3.88.52l.51.1.61.14c.54.15,1.08.31,1.55.58.24.12.45.29.64.48.1.09.17.21.28.28.08.11.16.21.23.33.26.47.45.99.58,1.53l.1.4.05.27.09.51.15.99c.09.65.16,1.29.22,1.93.12,1.27.21,2.53.29,3.79.21,3.66.43,7.29.48,10.93.11,6.41-.06,12.8-.22,19.19-.09,3.2-.2,6.39-.34,9.59-.15,3.21-.29,6.36-.63,9.65-.07.54-.13,1.08-.32,1.55-.09.23-.25.43-.41.62-.19.17-.42.28-.66.39-.22.13-.5.19-.74.28-.24.09-.55.16-.7.2-.38.1-.74.16-1.1.23-1.45.26-2.88.43-4.3.59-2.85.31-5.68.51-8.5.67-3.62.2-7.25.36-10.88.39-1.82,0-3.63-.06-5.45-.15-1.81-.09-3.63-.23-5.43-.52-2.25-.39-1.9-.75.03-1.28,1.93-.58,5.41-1.27,9.53-1.46,7.28-.15,14.64-.42,21.79-1.19.88-.11,1.76-.23,2.6-.37l.61-.12.29-.07.13-.03h.03s.07,0,.1-.02c.02-.02.03-.06.04-.09,0,.04.02-.15.03-.23l.03-.32.06-.66c.08-.89.14-1.8.19-2.71.2-3.65.34-7.34.47-11.04.33-8.85,0-18.08-.23-27.11-.08-2.48-.17-4.96-.33-7.42-.08-1.23-.18-2.45-.31-3.65-.07-.6-.14-1.19-.24-1.76l-.07-.42-.07-.33c-.03-.12-.05-.24-.1-.35-.07-.26-.36-.31-.58-.38l-.3-.07-.42-.08c-.28-.06-.57-.1-.86-.15-1.18-.18-2.4-.31-3.62-.42-2.45-.21-4.93-.35-7.41-.46-6.11-.25-12.25-.34-18.38-.29-4.64.04-9.3.12-13.93.3-2.32.09-4.63.21-6.93.39-1.15.09-2.29.19-3.43.31l-1.69.21-.83.13-.41.07-.33.06c-.29.07-.58.13-.84.27-.12.05-.13.18-.15.3l-.04.35-.06.89c-.05.81-.09,1.63-.12,2.45-.06,1.64-.09,3.28-.1,4.91-.03,3.27.02,6.54.09,9.81.05,1.55.1,3.07.15,4.64.16,5.8.13,7.6-.77,8.93-.19.3-.36.7-.54.88-.57.65-1.65-1.71-2-6.04-.41-4.58-.58-9.24-.63-13.97-.02-2.36-.01-4.74.02-7.14.02-1.2.05-2.41.1-3.63l.04-.92.07-1.14c.04-.59.12-1.18.25-1.73.26-.48.51-.89.8-1.37.66-.52,1.48-.89,2.41-1.08.22-.06.45-.11.68-.15l.4-.08.76-.13c1-.16,1.98-.27,2.96-.38,1.95-.2,3.88-.35,5.81-.47,10.07-.6,20.13-.68,30.2-.54v.1Z"/><path class="cls-4" d="M172.92,245.41c3.47-.07,6.98-.19,10.31-.69.83-.12,1.65-.27,2.36-.46l.19-.05s.08-.02.12-.04c.1-.03.11-.12.13-.21v-.07s.02,0,.02-.05l.02-.16.07-.64.12-1.29.21-2.61c.18-2.55.23-5.1.38-7.65.23-4.49.42-9.01.27-13.44-.04-1.11-.11-2.21-.21-3.27-.05-.53-.12-1.06-.22-1.54-.05-.24-.1-.48-.16-.67-.03-.14-.08-.23-.14-.34-.07-.1-.16-.18-.27-.23-.05-.02-.11-.05-.17-.07l-.25-.08c-.48-.14-.99-.25-1.53-.34-1.07-.19-2.17-.32-3.28-.44-3.95-.39-7.98-.45-11.95-.41-2.55.04-5.1.15-7.65.22-2.55.1-5.09.14-7.63.14-1.59-.11-1.46-.49-.18-1.34.64-.43,1.57-.88,2.72-1.3,1.15-.44,2.52-.78,4.01-.89,2.65-.23,5.3-.38,7.95-.36,2.65-.01,5.3.04,7.96.17,2.66.14,5.32.34,8.06.77.69.12,1.38.25,2.13.44.19.05.35.09.6.17.31.09.59.19.85.33.27.13.52.29.76.47.2.21.4.43.58.66l.44.77c.14.26.2.55.27.74.13.42.2.78.28,1.16.13.73.22,1.44.28,2.14.24,3.31.21,6.56.21,9.84-.02,3.27-.11,6.55-.3,9.8-.11,1.78-.25,3.57-.4,5.35l-.26,2.68-.15,1.35-.05.39c-.02.18-.04.36-.08.53-.08.34-.14.69-.28.99-.08.34-.37.56-.63.77-.28.2-.56.39-.9.5-.31.14-.68.27-.97.34-.24.06-.48.13-.72.17-.94.21-1.85.33-2.76.45-1.81.22-3.61.35-5.4.47-4.41.27-8.82.32-13.23.22-3.34-.1-6.68-.25-10.07-.81-.85-.15-1.69-.32-2.61-.65-.3-.11-.57-.22-.81-.39l-.37-.23c-.08-.12-.21-.21-.29-.33-.36-.44-.53-1.1-.66-1.57-.39-1.78-.48-3.43-.6-5.1-.28-5.17-.43-10.18-.53-15.25-.02-1.11-.07-2.2-.07-3.32-.01-2.08.07-3.44.29-4.4.19-.96.52-1.51.97-1.95.2-.2.39-.47.57-.59.56-.41,1.32,1.3,1.57,4.36.26,4.53.33,9.17.42,13.83.05,2.33.1,4.68.23,6.98.07,1.15.15,2.29.29,3.36.06.5.18,1.1.25,1.36,0-.02,0,0,0,0,.04.01-.13-.05.08.03l.49.14c.37.08.73.17,1.13.23.78.15,1.63.24,2.46.34,1.69.19,3.42.31,5.17.39,3.49.16,7.01.19,10.51.1v.08Z"/><path class="cls-4" d="M363.98,141.27c-1.93.04-3.86.25-5.67.72-1.8.47-3.5,1.21-4.79,2.32-.92.83-1.62,1.82-1.99,2.97-.81,1.9-.41,4.22.67,6.37,1.08,2.14,2.68,4.14,4.57,5.83,1.67,1.52,3.64,2.72,5.65,3.67,1.29.63,2.65,1.07,4.01,1.45.68.21,1.36.37,2.06.49.35.06.69.12,1.05.22.35.06.72.14,1.09.15.92.08.85.1.11.57-.37.23-.93.58-1.67.94-.74.32-1.65.44-2.62.43-3.42-.25-6.6-1.58-9.32-3.45-2.72-1.88-5.19-4.21-6.92-7.16-1.01-1.77-1.92-3.7-2.28-5.91-.16-1.1-.17-2.26.05-3.39l.2-.84.3-.79.31-.78c.12-.25.28-.48.42-.72,1.28-2.13,3.31-3.61,5.38-4.52,2.09-.93,4.27-1.39,6.43-1.64,2.67-.3,5.32-.23,7.96.09,2,.28,3.94.71,5.86,1.34,1.92.6,3.78,1.42,5.51,2.45,2.71,1.58,5.1,3.66,7.03,6.06.43.52.85,1.04,1.25,1.59,1.42,2.07,1.59,2.86,1.14,3.75-.11.2-.19.44-.33.6-.45.55-1.43-.04-2.52-1.41-1.63-2.03-3.24-4.04-5.14-5.65-1.86-1.65-4.03-2.89-6.41-3.8-1.78-.65-3.65-1.16-5.6-1.49-1.88-.35-3.85-.43-5.79-.37v-.08Z"/><path class="cls-4" d="M489.46,259.06c.07-5.54-.2-11.12-.83-16.64-.32-2.76-.71-5.52-1.22-8.24-.49-2.72-1.15-5.41-1.86-8.12-1.04-3.94-2.33-7.82-3.63-11.68-2.31-6.81-4.99-13.51-8.12-19.99-3.15-6.46-6.73-12.73-10.98-18.5-1.88-2.56-3.96-4.98-6.15-7.27-2.24-2.24-4.63-4.31-7.16-6.11-3.28-2.29-6.9-4.05-10.69-5.12-1.9-.52-3.84-.9-5.8-1.02-.98-.04-1.97-.18-2.96-.15l-1.5-.02c-.5-.02-.99.1-1.5.1-2.51.1-2.3-.16-.24-1.16,1.02-.56,2.56-1.04,4.51-1.54.98-.16,2.06-.26,3.22-.27.57.03,1.17.06,1.77.11.61.04,1.23.11,1.85.27,4.44.85,8.59,2.75,12.28,5.18,3.7,2.43,6.99,5.36,9.95,8.54,5.9,6.39,10.62,13.68,14.47,21.35,4.63,9.16,8.9,18.93,12.05,28.91,1.72,5.49,3.26,11.03,4.29,16.75,1.03,5.69,1.63,11.43,1.92,17.18.33,7.08.14,14.2-.85,21.25-.81,5.32-2.01,10.68-4.42,15.65-1.2,2.47-2.72,4.85-4.71,6.85-1.96,2.02-4.52,3.55-7.27,4.28l-1.59.39c-.54.08-1.08.14-1.63.2-.54.09-1.09.1-1.63.09-.54-.01-1.09.03-1.63-.03-1.08-.13-2.16-.21-3.21-.51-1.07-.2-2.07-.59-3.09-.95-4.01-1.59-7.45-4.27-10.32-7.38-.66-.67-1.22-1.4-1.8-2.12-.29-.36-.59-.72-.86-1.09-.26-.39-.52-.77-.78-1.16-1.92-2.9-2.79-5.03-3.29-6.54-.51-1.52-.48-2.5-.31-3.34.09-.38.13-.86.27-1.11.23-.42.73-.04,1.42.96.35.5.7,1.17,1.18,1.95.49.77.97,1.7,1.58,2.71,1.75,3.01,3.91,5.8,6.4,8.19,2.48,2.39,5.39,4.32,8.52,5.44.39.14.78.29,1.17.42l1.2.29.6.15.61.07,1.21.16c1.61.03,3.24.02,4.78-.46,3.08-.71,5.61-2.77,7.59-5.51,2.93-4.11,4.56-9.44,5.61-14.79,1.04-5.4,1.46-10.98,1.51-16.57h.1Z"/><path class="cls-4" d="M385.84,244.78c1.89-3.44,4.01-6.68,6.25-9.82,2.24-3.14,4.6-6.16,7.06-9.09,1.8-2.14,3.54-4.32,5.42-6.38l.94-1.03.34-.36.25-.25c.05-.05.12-.1.15-.17,0-.07-.03-.14-.05-.22l-.07-.23-.29-.77c-.4-1.03-.79-2.08-1.17-3.14-.75-2.11-1.44-4.25-2.05-6.41-1.21-4.33-2.05-8.76-2.48-13.23-.43-4.38-.5-8.84.08-13.18.69-5.55,2.29-11.19,5.59-15.75,1.16-1.33.88-1.21.47.22-.18.72-.47,1.73-.69,2.97-.29,1.22-.62,2.6-.98,4.1-.32,1.32-.61,2.65-.87,3.98-.24,1.33-.42,2.67-.55,4.02-.26,2.69-.25,5.41-.15,8.12.2,5.43,1.13,10.85,2.48,16.23.56,2.31,1.29,4.62,2.13,6.9.42,1.14.88,2.28,1.35,3.42.25.63.41.95.86,2.1.17.48.37.99.26,1.44l-.04.17-.03.09h0s-.09-.01.09.03h0s-.01.03-.01.03l-.02.04-.18.31-.36.62-2.28,2.59-1.92,2.22c-2.46,2.87-4.85,5.81-7.15,8.8-2.3,2.99-4.52,6.05-6.52,9.23-2.46,3.9-4.67,7.99-6.01,12.29-.97,3.32-1.65,6.76-1.51,10.11.12,3.34,1.38,6.57,3.9,8.59.46.42,1,.74,1.53,1.07.53.33,1.08.57,1.67.78,1.17.41,2.42.68,3.67.79,2.5.2,5.03-.13,7.29-1.07,1-.42,1.91-.94,2.8-1.54.4-.3.79-.54,1.12-.8.32-.28.61-.52.89-.74.57-.42.94-.86,1.35-1.13.4-.28.72-.51,1.03-.67.32-.16.64-.24.97-.29.31-.04.65-.15.91-.14.43.03.5.48.24,1.35-.24.88-.95,2.08-2.18,3.4-1.83,1.94-4.22,3.51-6.89,4.42-2.67.91-5.56,1.22-8.41.85-1.43-.16-2.84-.5-4.25-1.03-.69-.25-1.45-.61-2.08-1-.64-.41-1.3-.78-1.88-1.3-1.24-.92-2.24-2.18-3.11-3.48-.78-1.35-1.43-2.79-1.77-4.26-1.08-4.39-.51-8.64.39-12.56.24-.99.47-1.94.8-2.93.33-.98.63-1.98,1.04-2.9.38-.94.77-1.88,1.22-2.77.43-.91.86-1.81,1.35-2.67l.09.04Z"/><path class="cls-4" d="M340.36,254.85c2.17-1.89,4.71-3.32,7.38-4.26.96-.39,1.94-.69,2.94-.92,3.55-.75,7.16-.55,10.57.07.76.14,1.52.25,2.27.42.75.16,1.52.25,2.24.49l1.41.39c.47.14.93.31,1.39.47.91.37,1.73.96,2.53,1.56.48.41.38.44-.21.57-.39.1-.8.2-1.21.31-.49.11-1.04.19-1.6.2-3.75-.54-7.25-1.52-10.96-1.83-1.11-.16-2.23-.07-3.36.02l-1.67.3c-.56.09-1.09.28-1.63.4-2.37.63-4.64,1.67-6.65,3.14-1.23.91-2.36,1.96-3.36,3.15l-1.1,1.38c-.34.46-.63.93-.89,1.43-.5,1-.8,2.1-.89,3.22-.16,1.75.29,3.49.84,5.16.12.37.28.72.41,1.09.47,1.38.44,1.89-.22,2.5-.15.14-.29.3-.45.41-.54.37-1.28-.02-1.87-1.08-.85-1.57-1.48-3.35-1.75-5.31-.28-1.94-.15-4.1.56-6.13.49-1.49,1.41-2.95,2.3-3.99.84-1.17,1.89-2.18,2.91-3.2l.06.06Z"/><path class="cls-4" d="M286.67,320.25c8.02-4.16,15.32-9.88,22.24-16,2.52-2.25,4.93-4.63,7.4-6.95,4.36-4.1,8.65-8.29,13.09-12.38,4.44-4.08,8.99-8.12,14.17-11.47,2.31-1.46,4.75-2.81,7.44-3.69,2.67-.81,5.37-1.38,8.14-1.5,3.54-.13,7.14.31,10.5,1.52,1.66.65,3.26,1.44,4.76,2.4.36.26.74.5,1.08.79.34.29.65.62.97.93.63.63,1.22,1.29,1.75,1.99.66.88.84,1.33.77,1.34-.09.04-.47-.34-1.24-.83-.75-.5-1.93-1.06-3.38-1.49-1.41-.5-2.97-1.12-4.69-1.67l-1.14-.36c-.39-.1-.78-.16-1.16-.28-.76-.22-1.56-.34-2.33-.49-1.58-.21-3.16-.37-4.76-.28-.8,0-1.59.09-2.38.17-.8.05-1.58.22-2.38.33-1.58.29-3.16.68-4.58,1.22-2.92,1.16-5.76,2.91-8.49,4.9-2.73,1.99-5.37,4.18-7.99,6.44-6.27,5.43-12.2,11.82-18.46,17.7-6.88,6.46-14.08,12.73-22.17,17.84-2.49,1.57-5.09,2.98-7.75,4.26-2.66,1.25-5.49,2.34-8.37,3.05-4.36,1.1-8.83,1.63-13.29,1.72-4.46.11-8.9-.23-13.27-.92-3.39-.57-6.74-1.29-9.99-2.45-1.62-.58-3.23-1.24-4.78-2.12-1.53-.89-3.06-1.93-4.29-3.49-1.09-1.35-1.82-3.29-1.61-5.19.09-.89.35-1.67.65-2.33.33-.65.71-1.16,1.08-1.59.75-.85,1.47-1.36,2.07-1.73,1.22-.72,2.04-.85,2.75-.82.33.02.72,0,.94.08.36.14.08.55-.61,1.24-.66.7-1.81,1.72-2.66,3.14-.58,1.07-.88,2.06-.72,3.06l.07.38c.03.12.09.22.12.33.05.22.21.44.32.66.12.22.33.44.47.66l.61.64c.9.84,2.06,1.58,3.31,2.21,1.25.63,2.58,1.2,3.97,1.67,5.56,1.89,11.68,2.79,17.76,2.95,4.52.11,9.07-.19,13.47-1.08,2.2-.44,4.36-1.02,6.44-1.78l1.54-.61,1.54-.69c1.04-.44,2.04-.99,3.05-1.5l.05.08Z"/><path class="cls-4" d="M285.37,168.95c0,.08.04.3.19.3.12.01.25-.06.34-.19.03-.05.03-.02.07-.15.05-.14.09-.28.13-.44.08-.31.12-.65.16-1,.07-.82-.05-1.68-.14-2.54-.16-1.53-.47-3.1-.98-4.59-.26-.75-.56-1.47-.92-2.16-.18-.34-.38-.67-.58-.99-.1-.16-.22-.3-.33-.46-.11-.11-.17-.22-.32-.33-.45-.42-1.08-.79-1.69-1.14-.62-.36-1.27-.68-1.93-.99-.85-.39-1.72-.74-2.59-1.11-.86-.4-1.66-.94-2.49-1.44-.51-.32-.4-.43.17-.56.29-.07.7-.15,1.19-.23.5-.09,1.07-.14,1.63-.06,1.93.52,3.81,1.18,5.7,2.13.46.27.93.56,1.4.92.45.32,1.08.97,1.35,1.39.67.93,1.16,1.91,1.55,2.9.9,2.38,1.8,4.81,1.98,7.43.07,1.22.05,2.48-.29,3.79l-.15.52-.26.62c-.1.2-.22.39-.32.58-.12.18-.26.35-.39.52-.56.66-1.31,1.04-2.09,1.21-.54.1-1.14.03-1.59-.29-.47-.31-.85-.76-1.16-1.29-.29-.49-.59-1.2-.7-1.53-.3-.81-.54-1.59-.78-2.36-.37-1.17-.74-2.31-1.2-3.39-.46-1.06-1.03-2.08-1.8-2.74-1.27-1.04-3.09-1.62-4.8-2.25-.38-.14-.77-.24-1.16-.4-.36-.14-.65-.27-.89-.4-.23-.14-.41-.31-.54-.46-.27-.3-.35-.65-.34-1.06,0-.18-.02-.36,0-.51.09-.44.86-.75,2-.58,1.64.4,3.33.91,5.05,1.71.86.41,1.73.86,2.66,1.63.95.8,1.58,1.75,2.09,2.64.75,1.35,1.24,2.68,1.68,3.97l.63,1.88.3.89c.09.27.25.65.2.55l-.07.04Z"/><path class="cls-4" d="M271.71,169.14c.75.81,1.49,1.61,2.22,2.33.37.32.81.67,1.09.87.08.08.18.17.31.21.03.01.07.01.1.01.24,0,.3-.27.33-.45.01-.04.02-.09.02-.14,0,0,0-.06,0-.15l-.02-.22c-.04-.3-.08-.61-.17-.92-.15-.63-.38-1.28-.66-1.91-.27-.64-.61-1.26-.95-1.88-.3-.52-.71-.98-1.22-1.43-.92-.77-2.08-1.36-3.27-1.84-.76-.31-1.5-.71-2.27-1.08-.75-.42-1.48-.91-2.21-1.43-.44-.36-.33-.4.19-.47.51-.05,1.47-.32,2.52-.32.89.11,1.8.25,2.69.51.85.36,1.7.74,2.53,1.24.83.5,1.66,1.08,2.42,1.87.37.38.75.88,1.02,1.33.23.42.47.83.66,1.27.46,1.05.95,2.11,1.31,3.27.19.59.33,1.17.41,1.89.08.9-.02,1.82-.43,2.54-.22.47-.62.82-1.04,1.1-.45.24-.96.35-1.46.38-.66-.02-1.29-.24-1.89-.59l-.43-.29c-.16-.1-.23-.22-.33-.28-.19-.15-.36-.31-.53-.47-.66-.64-1.27-1.25-1.86-1.88l-1.49-1.6-.74-.78c-.24-.24-.45-.44-.7-.63-.73-.54-1.58-.81-2.38-.63-.1.02-.19.05-.28.09l-.4.15c-.27.11-.55.19-.82.29-.56.17-1.12.33-1.71.44-1.79.36-3.77.38-5.6-.35-.39-.17-.8-.31-1.16-.54-.7-.39-1.04-.81-1.18-1.17-.15-.36-.09-.7.05-1.06.06-.16.1-.32.16-.44.19-.36,1.05-.4,1.88-.07,2.31,1.23,4.59,1.32,7.24.33l.37-.14c.11-.04.42-.16.63-.21.46-.13.93-.18,1.4-.18.93,0,1.82.28,2.55.67.74.39,1.35.9,1.87,1.4l1.27,1.28-.05.05Z"/><path class="cls-4" d="M267.91,200.22c-.06-4.33-.22-8.67-.46-12.99-.05-.84-.68-1.55-1.55-1.55-.8,0-1.6.71-1.55,1.55.24,4.33.4,8.66.46,12.99.03,1.99,3.13,2,3.1,0h0Z"/><path class="cls-4" d="M281.51,196.43c2.52.03,5.03.02,7.53-.3.8-.1,1.59-.64,1.55-1.55-.03-.75-.69-1.66-1.55-1.55-2.51.31-5.01.33-7.53.3-.81-.01-1.59.72-1.55,1.55s.68,1.54,1.55,1.55h0Z"/><path class="cls-4" d="M264.15,240.22c-2.18-1.68-5.89-1.14-7.95.47-1.03.8-1.78,2.18-1.68,3.52s.97,2.26,2.12,2.79c1.04.48,2.14.72,3.23,1,.25.06.5.13.74.21.11.03.21.07.32.1.05.02.1.04.15.05.19.07-.3-.16-.05-.02.67.36,1.07.61,1.57,1.21.33.39.65.99.79,1.52.02.08.09.41.09.35s.02.26.02.34c0,.08-.02.42,0,.33,0-.06-.08.29-.1.39-.07.27.05-.06-.07.16-.07.14-.15.27-.23.4-.03.06-.07.11-.11.16.01-.02.15-.17.03-.05-.1.11-.2.22-.31.32-.08.08-.3.22-.09.08-.11.07-.21.14-.32.2-.06.03-.42.22-.28.15.12-.06-.23.08-.31.11-.3.1-.6.16-.91.22.28-.05-.12.01-.22.02-.19.01-.38.02-.56.02-.34,0-.67-.02-1.01-.05-.07,0-.15-.01-.22-.02.16.02.07.01-.04,0-.17-.03-.34-.06-.51-.1-.36-.08-.72-.17-1.07-.28-.16-.05-.32-.11-.48-.16-.07-.03-.47-.18-.24-.09-.63-.26-1.22-.6-1.78-1-.66-.47-1.67-.12-2.05.54-.44.75-.12,1.58.54,2.05,2.06,1.48,4.88,2.29,7.42,2.1,2.87-.21,5.54-1.9,5.88-4.96s-2.14-6.06-5.01-6.97c-1-.32-2.03-.49-3.02-.82-.11-.04-.22-.08-.33-.12-.25-.09.19.11-.11-.05-.09-.05-.19-.1-.28-.15-.16-.09-.26-.23-.06-.02-.06-.06-.13-.14-.2-.2.19.16.06.19.03,0-.05-.25.1.33,0-.02-.04-.16.02.17.02.16,0-.05-.01-.15,0-.2-.09.32,0,.04.04-.11.02-.06.04-.12.06-.18-.05.15-.04.07.02-.03.03-.06.24-.41.14-.28-.09.13.2-.2.25-.25.11-.12-.04.02-.06.03.07-.05.14-.1.22-.15.13-.09.27-.16.42-.24.06-.03.13-.06.19-.09-.15.07-.06.02.04-.01.16-.06.33-.11.49-.16.74-.21,1.05-.21,1.91-.18.01,0,.25.03.09,0-.15-.02.13.03.16.03.18.04.36.1.54.15.16.05-.02-.02-.04-.03.08.03.16.08.24.12.15.08.29.18.43.28.64.49,1.68.1,2.05-.54.45-.77.11-1.56-.54-2.05h0Z"/><path class="cls-4" d="M278.84,295.06c-2.3-2.19-6.05-2.38-8.65-.59-1.32.91-2.23,2.24-2.39,3.86-.14,1.38.59,2.59,1.75,3.3.96.59,2.12.84,3.2,1.1.52.13,1.02.28,1.53.43.26.08-.3-.16.06.02.15.08.3.16.45.24.05.03.38.25.23.14.18.14.35.3.51.46.12.12.24.25.34.38-.12-.14.12.17.15.22.11.16.21.33.3.51.04.07.08.15.11.22-.07-.16,0,0,.02.07.05.15.1.31.14.46.03.1.05.21.07.31,0-.03-.02-.24,0-.04.01.15.01.31.02.46,0,.08,0,.15-.01.23.01-.17.03-.12-.01.02-.02.06-.16.52-.1.37.06-.15-.09.18-.13.24-.06.12-.14.22-.21.33-.13.2.18-.19.02-.03-.06.06-.11.13-.17.19-.09.09-.18.17-.28.25-.14.12.07-.06.08-.06-.05.03-.1.07-.16.1-.13.07-.26.14-.39.22-.22.13.2-.06-.14.06-.32.11-.64.18-.96.26-.27.06.2,0-.18.02-.19.01-.37.03-.56.03-.34,0-.67,0-1-.03-.07,0-.14-.01-.22-.02-.46-.04.19.03-.08,0-.17-.03-.34-.06-.51-.09-.36-.07-.72-.17-1.07-.28-.16-.05-.32-.1-.49-.16-.09-.03-.58-.23-.28-.1-.63-.27-1.22-.6-1.78-1-.71-.51-1.81-.13-2.22.58-.48.82-.13,1.71.58,2.22,2.11,1.51,5.03,2.34,7.62,2.1,1.46-.14,2.8-.56,3.95-1.48s1.85-2.36,1.94-3.82c.21-3.26-2.43-6.1-5.41-6.95-1.02-.29-2.06-.5-3.06-.85.25.09.15.07-.02-.02-.09-.05-.18-.1-.28-.16-.04-.02-.08-.06-.13-.09-.19-.09.28.15.1.07-.17-.08-.21-.28-.03,0-.13-.22-.04-.13-.01.06-.01-.09-.05-.2-.08-.28l.02.11c.02.15.02.15.01,0,0,0,0-.16,0-.17-.03-.15,0,.09-.02.13.03-.08.04-.17.06-.26.02-.07.04-.14.06-.2.01-.03.13-.32.05-.15s.02-.03.03-.05c.06-.09.11-.18.16-.27.09-.15-.05.06-.06.07.06-.07.11-.13.17-.19.11-.11.22-.22.34-.32.14-.12-.04.03-.06.04.1-.07.19-.13.29-.19.14-.09.29-.16.44-.24.02,0,.24-.11.07-.04s.12-.04.15-.05c.17-.06.33-.11.5-.15.19-.05.39-.09.59-.12-.3.04.16,0,.25,0,.18,0,.36,0,.54,0,.1,0,.2.01.31.03-.17-.02-.11-.02.02.01.17.05.35.09.52.14.07.02.15.05.22.07-.16-.06-.06-.03.04.02.19.1.37.2.54.32,0,0,.21.16.09.06-.11-.09.21.2.2.19,1.51,1.44,3.82-.85,2.3-2.3h0Z"/><path class="cls-4" d="M307.24,241.89c-.84.74-1.67,1.51-2.53,2.23-.2.17-.4.33-.6.49-.04.03-.21.16-.02.02.2-.16-.03.02-.06.04-.09.07-.19.14-.28.21-.42.3-.86.58-1.31.83-.69.38-.97,1.39-.54,2.05.45.7,1.31.94,2.05.54,2.03-1.11,3.7-2.78,5.41-4.29.59-.52.57-1.6,0-2.12-.63-.58-1.49-.56-2.12,0h0Z"/><path class="cls-4" d="M311.35,253.07c-.1-.08-.12-.1,0,0-.09-.07-.17-.13-.26-.2-.14-.11-.27-.22-.41-.33-.3-.25-.6-.5-.9-.75-.57-.49-1.14-1-1.7-1.5-1.13-1.01-2.25-2.04-3.42-3-.61-.5-1.54-.64-2.12,0-.51.55-.65,1.59,0,2.12,2.48,2.03,4.74,4.31,7.29,6.25.29.22.83.24,1.16.15.35-.1.73-.36.9-.69.42-.79.13-1.54-.54-2.05h0Z"/><path class="cls-4" d="M58.35,178.26c.12-1.08.43-2.88.71-4.31.39-1.95.84-3.89,1.36-5.81.96-3.55,2.07-7.23,4.04-10.37.4-.64.6-.94,1.08-1.44.09-.09.68-.6.41-.4.13-.1.27-.18.4-.26.09-.05.51-.23.1-.06.09-.04.24-.1.35-.09.3,0-.47.02,0,.02.08,0,.23,0,.31.02-.49-.14.07.04.11.06.3.16.07.02,0,0,.15.07.29.16.44.25.29.18.11.07.05.02.2.15.38.33.55.51,2.23,2.28,3.41,6.21,4.34,9.34,1.26,4.26,2.16,8.65,2.8,13.05.14,1,1.42,1.56,2.31,1.31,1.08-.3,1.46-1.3,1.31-2.31-.62-4.3-1.5-8.58-2.71-12.75-1.12-3.86-2.5-8.34-5.39-11.29-2.5-2.55-5.93-2.42-8.27.25-2.64,3.01-4.02,7.12-5.17,10.88-1.34,4.36-2.35,8.87-2.87,13.41-.12,1.01.94,1.88,1.88,1.88,1.11,0,1.76-.86,1.88-1.88h0Z"/><path class="cls-4" d="M114.8,116.49c2.35-.86,4.75-.86,7.09-.27,1.27.32,2,.6,3.08,1.25.61.37.6.35,1.09.81.17.16.33.33.49.5.06.06.26.33.06.06.09.12.17.24.25.37.06.1.37.73.22.35.09.22.15.45.21.68.02.09.04.19.05.28-.07-.44,0,.03-.01.11,0,.1,0,.2,0,.3,0,.1-.01.19-.02.29.03-.21.04-.25.01-.12-.04.19-.11.38-.15.58-.07.38.19-.27-.02.05-.04.07-.08.15-.12.22-.06.11-.13.21-.2.31.04-.06.26-.26.04-.07-.09.09-.66.59-.29.31-.34.25-.69.44-1.07.62-.24.12.4-.12-.02,0-.09.03-.18.06-.26.09-.27.09-.55.17-.83.24-.24.06-.48.11-.73.15-.12.02-.84.12-.44.07-.52.06-1.04.1-1.57.12-1.19.05-2.39,0-3.58-.08-.51-.04-1.02-.09-1.54-.14-.25-.03-.5-.06-.75-.09-.08,0-.16-.02-.23-.03-.51-.06.22.03-.08,0-.94-.13-1.88.23-2.15,1.22-.22.82.28,2.02,1.22,2.15,2.25.31,4.51.55,6.79.49s5.04-.38,7.01-1.8c2.16-1.56,3.05-4.35,2.09-6.88-1.05-2.76-3.69-4.45-6.37-5.4-3.2-1.13-6.99-1.28-10.2-.11-.89.32-1.49,1.19-1.22,2.15.24.86,1.26,1.55,2.15,1.22h0Z"/><path class="cls-4" d="M175.58,222.33c-1.88-1.68-4.21-2.49-6.72-2.1-2.17.34-4.07,1.71-5.29,3.51-2.81,4.13-1.28,10.33,3.31,12.45,2.99,1.38,6.34.8,9.02-1.01.73-.49,1.05-1.43.58-2.22-.42-.72-1.49-1.08-2.22-.58-1.04.71-1.84,1.07-3.08,1.32-.05,0-.32.04-.05,0-.13.01-.26.02-.39.03-.23.01-.46.01-.69,0-.13,0-.25-.02-.38-.03-.28-.03.37.09-.08-.02-.24-.06-.48-.1-.71-.18-.12-.04-.23-.08-.34-.12-.26-.09.33.17-.08-.03-.19-.09-.38-.19-.57-.3s-.36-.23-.53-.35c.25.18,0,0-.06-.05-.12-.11-.25-.22-.36-.33-.13-.13-.26-.28-.38-.41-.31-.33.16.26-.09-.12-.05-.08-.11-.15-.16-.23-.13-.2-.25-.4-.36-.62-.04-.09-.08-.17-.13-.26-.19-.4.07.28-.05-.14-.07-.23-.15-.46-.21-.7-.02-.1-.04-.19-.06-.29,0,.01-.07-.46-.04-.22s-.02-.24-.02-.23c0-.1-.01-.2-.01-.3,0-.27,0-.54.02-.81,0-.12.02-.24.04-.36-.04.33,0,.08,0,.01.05-.23.09-.45.16-.67.06-.2.12-.39.19-.58.09-.25-.17.34.02-.04.06-.12.11-.24.18-.35.1-.19.21-.38.33-.56.07-.11.35-.45.12-.19.29-.34.63-.61.93-.93.16-.17-.31.2.02-.01.07-.05.14-.09.2-.14.17-.11.35-.22.53-.31.07-.04.15-.07.22-.11.34-.19-.23.06,0,0,.21-.06.42-.15.64-.21.2-.05.4-.09.6-.13.4-.08-.36,0,.06,0,.12,0,.25-.02.37-.02.21,0,.41.01.62.02.4.01-.23-.07,0,0,.14.04.29.05.44.09.21.05.42.11.62.19,0,0,.4.17.18.07-.2-.09.19.1.24.12.23.12.45.25.66.4.08.05.16.11.24.17-.26-.2.21.18.25.22.65.58,1.65.65,2.3,0,.59-.59.66-1.71,0-2.3h0Z"/><path class="cls-4" d="M114.56,120.33c0-3.79-.12-7.59-.31-11.38-.06-1.2-.13-2.41-.18-3.61-.02-.38-.04-.77-.05-1.15,0-.11,0-.22,0-.32-.05-.45-.14.45-.2.57l-.58.58c-.16.11-1.05.18-.5.19.24,0,.49,0,.73,0,.77.01,1.53.06,2.29.13.46.04.92.09,1.38.15.06,0,.32.04,0,0,.15.02.3.04.44.07.28.04.55.09.83.14,1.05.19,2.1.43,3.12.76.25.08.49.16.73.25.14.05.28.11.43.17-.06-.03-.26-.12.03.01.48.22.95.46,1.39.74.07.05.61.45.33.22.17.14.33.28.48.43.08.08.47.57.24.24.14.2.27.41.38.63.04.08.1.28-.02-.05.04.12.08.23.11.35.02.08.04.16.06.24.09.4,0-.35,0,.07,0,.09,0,.18,0,.26,0,.02-.05.45,0,.2s-.06.16-.06.17c-.14.35.11-.21-.05.09-.03.06-.29.38-.06.11-.06.07-.12.14-.19.2-.03.03-.38.32-.11.12-.08.06-.16.12-.25.17-.61.36-.78.44-1.45.63-2.86.83-6.23.57-9.09-.43-.83-.29-1.78.33-2,1.13-.25.89.3,1.71,1.13,2,2.17.76,4.55,1.06,6.85.99,2.08-.06,4.41-.38,6.2-1.53s2.58-2.88,2.22-4.94c-.28-1.63-1.4-2.92-2.7-3.86-2.72-1.97-6.39-2.57-9.65-2.93-1.13-.12-2.28-.21-3.42-.21-1.27,0-2.28.48-2.32,1.94-.05,1.91.18,3.86.27,5.77.17,3.55.27,7.11.27,10.66,0,2.09,3.25,2.09,3.25,0h0Z"/><path class="cls-4" d="M259.46,188.46c4.17-.46,8.35-.93,12.52-.19.82.15,1.67-.22,1.91-1.08.21-.75-.25-1.76-1.08-1.91-4.48-.79-8.86-.41-13.34.08-.83.09-1.55.65-1.55,1.55,0,.77.71,1.64,1.55,1.55h0Z"/><path class="cls-4" d="M281.48,200.43c.07-.82.16-1.65.27-2.47-.05.39,0-.06.02-.11.02-.14.04-.27.06-.41.03-.23.07-.47.11-.7.1-.58.2-1.16.33-1.74.23-1.11.52-2.21.91-3.28.08-.22.16-.44.25-.65-.13.32.04-.09.06-.13.06-.12.11-.24.17-.35.1-.19.2-.37.31-.55.06-.1.13-.2.19-.3.04-.06.09-.13.13-.19-.12.15-.14.18-.07.09.13-.15.27-.29.4-.44.07-.07.35-.26,0-.02.05-.04.11-.08.16-.11.08-.05.18-.09.25-.15.25-.17-.31.05-.02,0,.08-.01.2-.04.28-.07-.19.07-.29,0-.03.01.1,0,.21.01.32,0-.4,0-.13-.03,0,0s.59.26.21.05c.18.1.36.2.54.32-.34-.22.15.15.26.26.08.08.42.52.2.22.14.2.28.4.41.61.11.18.21.37.31.56.06.12.12.24.17.36.04.08.08.16.11.25-.07-.16-.06-.16,0,.01.4,1.02.71,2.06.96,3.12.5,2.1.76,4.23,1.09,6.35.13.83,1.17,1.29,1.91,1.08.88-.24,1.21-1.08,1.08-1.91-.32-2.05-.57-4.11-1.04-6.14-.54-2.32-1.3-4.83-2.94-6.63s-4.28-2.19-6.2-.6c-1.79,1.48-2.58,4.05-3.12,6.21-.61,2.43-.94,4.93-1.16,7.42-.07.83.77,1.55,1.55,1.55.9,0,1.48-.71,1.55-1.55h0Z"/><path class="cls-4" d="M300.66,240.14c-.7,4.89-.42,9.76.03,14.66.07.81.64,1.5,1.5,1.5.75,0,1.57-.69,1.5-1.5-.42-4.6-.79-9.27-.14-13.86.11-.8-.2-1.61-1.05-1.85-.7-.19-1.73.24-1.85,1.05h0Z"/><path class="cls-4" d="M355.08,185.66c-.81,1.25-1.46,2.63-1.92,4.05s-.73,3.25,0,4.71c.47.94,1.41,1.66,2.36,2.08,1.43.64,2.94.75,4.47.41.83-.19,1.4-1.19,1.13-2-.28-.87-1.11-1.34-2-1.13-.15.03-.3.07-.46.09.29-.04-.05,0-.16,0-.23,0-.47-.02-.7-.02.36,0,0,0-.09-.02-.13-.03-.25-.06-.37-.09-.1-.03-.2-.06-.3-.09-.23-.08-.16,0,0,0-.17,0-.45-.23-.59-.32-.06-.04-.26-.24-.09-.05s-.02-.02-.07-.06c-.07-.06-.13-.13-.2-.2-.2-.21.02-.12.04.06,0-.04-.08-.13-.11-.17-.18-.26.07.25.04.13-.02-.11-.07-.23-.09-.34-.11-.42-.02.24-.02-.19,0-.13,0-.26,0-.4,0-.06.05-.49.03-.34-.03.19.05-.22.06-.26.03-.16.07-.31.12-.47.08-.28.17-.56.27-.83.04-.12.09-.25.13-.37,0-.01.19-.47.07-.19.11-.26.23-.52.36-.78.27-.54.57-1.06.9-1.56.46-.72.17-1.83-.58-2.22-.81-.43-1.73-.18-2.22.58h0Z"/><path class="cls-4" d="M376.52,196.8c-.42.48-.87.92-1.35,1.34-.13.11-.26.22-.39.33-.08.06-.15.12-.23.18.02-.02.18-.14.03-.03-.31.23-.62.45-.95.65-.31.19-.62.38-.94.55-.18.1-.37.19-.56.28-.07.03-.14.06-.21.1-.26.11.35-.12-.11.04-.33.12-.66.24-1.01.33-.17.04-.34.08-.51.12-.07.02-.14.03-.22.04.23-.04.07,0-.07,0-.33.02-.67-.02-.99,0-.18.01.05.01.08.02-.09-.02-.18-.03-.28-.05-.18-.04-.36-.1-.54-.15-.06-.02-.28-.12,0,0-.07-.03-.13-.06-.19-.1-.15-.08-.3-.17-.44-.26-.04-.03-.24-.18-.04-.02-.05-.04-.11-.09-.16-.14-.06-.06-.13-.13-.19-.2-.17-.16.13.2,0,.02-.08-.13-.16-.26-.23-.39-.14-.26,0-.02.02.04-.02-.06-.04-.12-.06-.18-.04-.15-.07-.29-.1-.44.08.39,0-.09,0-.22,0-.18.01-.35.02-.53.01-.32-.05.21.01-.11.08-.36.16-.72.27-1.07.06-.18.12-.35.18-.52.02-.06.05-.13.07-.19.07-.18-.11.23.02-.05.15-.31.29-.62.46-.92.15-.28.32-.55.49-.82.07-.11.14-.21.22-.31.02-.04.05-.07.08-.1.18-.26-.25.31-.07.09.55-.68.67-1.63,0-2.3-.57-.57-1.74-.68-2.3,0-1.96,2.4-3.58,6.13-2.18,9.15.84,1.82,2.87,2.8,4.79,2.99s3.71-.47,5.31-1.31c1.69-.89,3.29-2.12,4.56-3.56.58-.66.65-1.65,0-2.3-.59-.59-1.72-.66-2.3,0h0Z"/><path class="cls-4" d="M352.08,219.62c3.13,4,9.34,4.99,13.64,2.38.81-.49,1.11-1.57.63-2.39s-1.58-1.12-2.39-.63c-.22.13-.45.26-.68.38-.09.05-.19.09-.28.13.31-.14-.02,0-.09.03-.46.17-.94.28-1.42.38s.21,0-.07.01c-.13.01-.26.03-.39.04-.26.02-.52.02-.78.02-.23,0-.47-.02-.7-.04-.15-.01-.33-.04-.08,0-.13-.02-.26-.04-.38-.07-.49-.09-.96-.22-1.43-.39-.1-.04-.19-.07-.29-.11.31.12-.02-.01-.08-.04-.23-.11-.46-.23-.69-.36-.2-.12-.4-.24-.59-.37,0,0-.36-.27-.2-.14s-.15-.13-.18-.16c-.39-.34-.74-.72-1.06-1.13-.58-.75-1.86-.61-2.47,0-.74.74-.58,1.73,0,2.47h0Z"/><path class="cls-4" d="M388.5,190.43c-.3-1.63-1.33-3.13-2.44-4.32-1.29-1.38-2.9-2.46-4.67-3.13-.84-.32-1.74-.49-2.63-.53-.58-.02-1.2.02-1.71.32-.62.36-1.02,1.04-1,1.76.02,1.11.9,2.12,1.82,2.65.65.37,1.39.59,2.12.75.82.18,1.65.3,2.46.5.34.08.72.28,1.06.32-.31-.04-.26-.12-.09-.03.09.05.18.1.27.15-.01,0,.14.09.14.09-.22-.17-.26-.21-.14-.1.04.03.08.07.11.11.6.6,1.7.65,2.3,0s.64-1.66,0-2.3c-.97-.97-2.38-1.3-3.68-1.55-.62-.12-1.25-.23-1.87-.38-.27-.07-.54-.15-.81-.24-.35-.12.32.17-.07-.03-.11-.06-.21-.14-.33-.19-.17-.08.3.29.11.08-.04-.05-.11-.11-.15-.15-.07-.07-.16-.24.01.04.01.02-.12-.19-.12-.19.05-.02.11.35.06.13v.64c-.19.25-.37.5-.56.75l-.21.1c-.21.02-.25.03-.13.03.09.01.2,0,.29,0,.18,0,.35.02.52.03.23.02-.31-.06-.08-.01.1.02.19.03.29.05.35.07.7.17,1.04.3.08.03.15.06.23.09.32.12-.04-.03-.05-.02.06-.03.39.18.45.21.35.18.69.38,1.02.6.16.1.31.21.46.32.06.04.24.19-.03-.03.06.05.13.1.19.16.29.24.56.49.82.75.14.14.28.29.42.44.05.05.33.46.38.45-.02,0-.23-.31-.04-.05.07.09.13.19.2.28.11.15.21.31.3.47s.18.31.26.47c.03.06.06.13.09.19.13.26-.08-.25-.02-.06.1.32.22.62.28.96.15.84,1.21,1.39,2,1.13.9-.29,1.3-1.1,1.13-2h0Z"/><path class="cls-4" d="M366.79,180.68c.25.71.41,1.43.48,2.14.03.35.05.71.05,1.06,0,.35-.03.77-.08,1.1-.2,1.35-.56,2.55-1.03,3.73-.15.43-.32.86-.5,1.28-.16.43-.35.84-.58,1.24-1.55,2.82-3.83,5.2-6.46,6.93-1.17.76-2.39,1.46-3.64,2.02-.4.2-.8.39-1.22.53-.41.16-.84.29-1.26.41-.42.14-.86.19-1.3.24l-.66.06c-.22,0-.46-.1-.69-.12-.57-.12-.51-.29-.16-.82.18-.24.39-.76.7-1.02.3-.31.67-.57,1.08-.76.36-.17.71-.38,1.08-.51.37-.14.74-.26,1.09-.46.7-.36,1.42-.65,2.07-1.09,1.35-.76,2.59-1.7,3.83-2.71,1.47-1.24,2.47-3.04,3.29-4.83.47-.98.82-2.01,1.11-3.05.13-.52.24-1.04.29-1.53.05-.44.03-.98-.04-1.46-.16-1.21-.66-2.34-1.54-3.12-.32-.31-.71-.55-1.11-.78-.2-.12-.42-.21-.63-.31-.23-.1-.45-.17-.49-.18-.02-.34-.15-.32-.02-.27.03.01.1.03.16.03.02,0,0,0,0,.02,0,.03,0,.07.01.12,0,.1.38.28.91.38.87.23,1.71.43,2.58.84.84.38,1.79,1.1,2.25,2.17.2.46.27.93.29,1.36,0,.81-.12,1.25-.25,1.57-.13.31-.34.48-.61.61-.12.06-.23.15-.32.18-.29.14-.76-.48-.93-1.45-.08-.34-.17-.67-.29-.92-.13-.25-.25-.44-.36-.57-.2-.27-.57-.49-1.1-.73-.5-.23-1.21-.42-1.83-.57-.34-.09-.94-.16-1.67-.63-.16-.1-.4-.29-.57-.5-.18-.2-.31-.42-.44-.63-.24-.44-.42-.96-.36-1.65.04-.51.31-1.14.77-1.57.43-.44,1.1-.69,1.57-.72.95-.05,1.36.16,1.67.23.71.22,1.45.5,2.1.97,1.32.9,2.32,2.27,2.85,3.7l-.07.03Z"/><path class="cls-4" d="M395.12,319.12c-.72-.03-1.36.28-1.9.74-.21.18-.38.42-.52.65s-.26.51-.34.78-.12.57-.13.85c0,.08,0,.15.01.23.02.21.04.43.1.64.2.68.64,1.25,1.24,1.61.17.1.37.18.56.25.08.03.16.05.24.07.29.05.59.1.88.07.6-.07,1.18-.21,1.68-.57.16-.12.33-.24.48-.38s.28-.33.41-.5c.17-.23.29-.51.38-.78.03-.08.04-.16.06-.24.04-.23.08-.47.07-.7-.03-.5-.14-.85-.33-1.3-.14-.31-.35-.59-.58-.85-.07-.08-.15-.15-.23-.21-.18-.15-.37-.3-.57-.42s-.43-.21-.65-.29c-.1-.04-.21-.07-.32-.1-.23-.05-.48-.09-.72-.09s-.5.04-.74.08c-.38.06-.79.43-.97.75-.2.35-.29.86-.16,1.25s.37.77.75.97l.39.16c.29.08.58.08.86,0,.03,0,.05,0,.08-.01l-.43.06c.14-.02.28-.01.43,0l-.43-.06c.15.02.3.07.45.13l-.39-.16c.16.07.3.15.44.26l-.33-.25c.13.11.25.22.36.36l-.25-.33c.09.12.17.26.23.4l-.16-.39c.05.12.08.24.1.37l-.06-.43c.02.13.02.26,0,.38l.06-.43c-.02.11-.04.21-.08.32l.16-.39c-.05.12-.12.23-.2.33l.25-.33c-.08.1-.17.19-.28.27l.33-.25c-.12.09-.25.17-.4.23l.39-.16c-.14.06-.29.1-.44.12l.43-.06c-.14.02-.28.02-.42,0l.43.06c-.12-.02-.23-.05-.33-.09l.39.16c-.09-.04-.17-.09-.25-.14l.33.25c-.08-.06-.14-.12-.2-.2l.25.33c-.06-.08-.11-.17-.15-.26l.16.39c-.04-.1-.07-.21-.08-.32l.06.43c-.02-.13-.01-.26,0-.39l-.06.43c.02-.14.06-.28.12-.41l-.16.39c.05-.12.12-.24.2-.34l-.25.33c.07-.09.16-.18.25-.25l-.33.25c.08-.06.16-.11.25-.14l-.39.16c.08-.03.17-.05.25-.07l-.43.06c.06,0,.12,0,.18,0,.41.02.87-.19,1.15-.48s.49-.74.48-1.15-.16-.86-.48-1.15-.7-.46-1.15-.48h0Z"/><path class="cls-4" d="M278.93,347.48c-.07.2-.13.41-.17.62-.06.33-.11.66-.11.99,0,.54.08,1.11.26,1.61.08.21.16.41.26.62.05.12.11.19.19.3.13.16.28.31.46.42.12.07.29.13.42.18.27.1.56.13.84.14s.59-.03.87-.1.54-.19.79-.31c.52-.26.91-.68,1.24-1.14.17-.23.28-.5.38-.77s.13-.56.15-.84c0-.08,0-.16,0-.24-.02-.21-.04-.42-.09-.62-.02-.07-.04-.13-.06-.19-.07-.19-.15-.39-.25-.57-.28-.48-.68-.86-1.14-1.16-.24-.16-.52-.27-.79-.36s-.59-.13-.89-.15-.6.03-.87.09c-.08.02-.16.04-.24.08-.2.08-.4.16-.59.27-.35.22-.64.57-.75.97s-.06.91.16,1.25.56.65.97.75.87.07,1.25-.16c.06-.04.12-.07.18-.1l-.39.16c.12-.05.24-.08.36-.1l-.43.06c.15-.02.3-.02.44,0l-.43-.06c.16.02.32.07.47.13l-.39-.16c.15.06.29.15.42.24l-.33-.25c.12.09.22.2.32.31l-.25-.33c.08.11.15.23.21.35l-.16-.39c.04.11.07.22.09.33l-.06-.43c.02.12.02.24,0,.36l.06-.43c-.02.13-.06.26-.11.38l.16-.39c-.05.12-.12.24-.2.35l.25-.33c-.1.13-.21.24-.34.34l.33-.25c-.13.1-.27.18-.41.25l.39-.16c-.15.06-.3.11-.46.13l.43-.06c-.13.02-.27.02-.4,0l.43.06c-.11-.02-.22-.05-.32-.09l.97.75c-.03-.06-.06-.12-.08-.18l.16.39c-.12-.29-.2-.59-.25-.9l.06.43c-.04-.29-.04-.59,0-.88l-.06.43c.04-.26.1-.51.19-.76.14-.37.03-.92-.16-1.25s-.58-.66-.97-.75c-.42-.09-.88-.07-1.25.16l-.33.25c-.2.2-.34.44-.42.72h0Z"/><path class="cls-4" d="M348.88,296.65c-.09.61-.16,1.21-.14,1.83s.09,1.2.21,1.79c.09.46.19.96.55,1.29.43.39.95.52,1.51.56s1.18-.16,1.64-.45.92-.72,1.18-1.22c.34-.65.44-1.33.3-2.05-.2-1.05-1.15-1.88-2.16-2.15-.55-.14-1.17-.16-1.72,0-.27.08-.54.18-.77.34-.39.27-.58.48-.86.86-.24.32-.26.89-.16,1.25s.4.79.75.97c.38.2.83.3,1.25.16l.39-.16c.24-.14.44-.34.58-.58l.02-.03-.25.33c.06-.08.13-.14.2-.2l-.33.25c.08-.06.17-.12.27-.16l-.39.16c.12-.05.25-.08.38-.1l-.43.06c.14-.02.29-.02.43,0l-.43-.06c.16.02.31.06.45.12l-.39-.16c.12.05.23.12.34.2l-.33-.25c.08.07.16.14.22.22l-.25-.33c.06.08.1.16.14.24l-.16-.39c.04.1.07.2.08.3l-.06-.43c.01.11.01.22,0,.33l.06-.43c-.02.11-.05.21-.09.32l.16-.39c-.06.13-.13.25-.21.36l.25-.33c-.09.11-.19.21-.3.3l.33-.25c-.11.08-.23.16-.36.21l.39-.16c-.12.05-.23.08-.36.1l.43-.06c-.11.01-.22.01-.33,0l.43.06c-.1-.01-.19-.04-.28-.07l1.13,1.13c-.09-.34-.16-.69-.21-1.04l.06.43c-.1-.74-.1-1.49,0-2.23l-.06.43v-.06c.08-.22.09-.43.04-.65,0-.22-.07-.42-.19-.6-.2-.34-.58-.66-.97-.75-.42-.09-.88-.07-1.25.16-.33.21-.69.56-.75.97h0Z"/><path class="cls-4" d="M362.2,374.93c-.57.35-.97.87-1.17,1.51-.16.51-.13,1.08,0,1.59.13.54.41.97.75,1.39.13.16.28.27.44.4.27.21.5.33.84.46.06.02.12.04.18.05.19.04.4.07.6.07.26,0,.55-.03.8-.13.42-.16.65-.29,1-.59.19-.16.34-.37.46-.59.09-.16.16-.34.23-.52.02-.06.04-.11.05-.17.06-.25.1-.52.09-.78,0-.56-.15-1.02-.38-1.52-.11-.25-.28-.45-.45-.66s-.39-.37-.61-.52c-.06-.04-.11-.07-.17-.1-.18-.08-.36-.18-.56-.22-.46-.1-.78-.08-1.24,0-.21.05-.4.15-.55.29-.18.11-.32.27-.42.46-.2.35-.29.86-.16,1.25s.37.77.75.97l.39.16c.29.08.58.08.86,0,.02,0,.03,0,.05,0l-.43.06c.09,0,.17,0,.26,0l-.43-.06c.08.01.16.04.24.07l-.39-.16c.08.04.16.08.23.14l-.33-.25c.08.07.16.14.22.23l-.25-.33c.09.11.16.24.21.37l-.16-.39c.06.15.1.31.13.47l-.06-.43c.02.14.02.28,0,.43l.06-.43c-.02.11-.04.22-.09.33l.16-.39c-.04.08-.08.16-.13.23l.25-.33c-.05.06-.11.12-.17.17l.33-.25c-.06.05-.13.09-.2.12l.39-.16c-.09.04-.18.06-.27.07l.43-.06c-.08,0-.16,0-.24,0l.43.06c-.09-.01-.17-.04-.25-.07l.39.16c-.1-.04-.18-.09-.27-.16l.33.25c-.11-.08-.2-.18-.28-.28l.25.33c-.09-.12-.17-.26-.23-.4l.16.39c-.06-.14-.1-.29-.12-.44l.06.43c-.02-.12-.02-.24,0-.37l-.06.43c.01-.09.04-.19.07-.27l-.16.39c.03-.08.08-.15.13-.22l-.25.33c.05-.06.1-.11.16-.16l-.33.25s.07-.05.11-.07c.35-.22.64-.57.75-.97s.06-.91-.16-1.25-.56-.65-.97-.75-.88-.07-1.25.16h0Z"/><path class="cls-4" d="M410.24,420.36s0-.04-.01-.07l.06.43c-.01-.11-.01-.22,0-.32l-.06.43c.02-.13.05-.25.1-.37l-.16.39c.06-.13.13-.25.22-.36l-.25.33c.09-.11.19-.21.3-.3l-.33.25c.12-.09.25-.17.39-.23l-.39.16c.12-.05.24-.08.37-.1l-.43.06c.12-.02.23-.02.35,0l-.43-.06c.11.02.21.04.31.08l-.39-.16c.09.04.18.09.26.15l-.33-.25c.07.06.14.13.2.2l-.25-.33c.07.09.12.19.17.29l-.16-.39c.05.13.09.27.11.41l-.06-.43c.02.15.02.3,0,.45l.06-.43c-.02.13-.05.26-.1.38l.16-.39c-.05.11-.11.21-.18.31l.25-.33c-.06.07-.12.14-.2.2l.33-.25c-.07.05-.14.1-.22.13l.39-.16c-.09.04-.18.06-.27.07l.43-.06c-.08,0-.17,0-.25,0l.43.06c-.1-.02-.2-.04-.3-.08l.39.16c-.11-.05-.2-.11-.29-.18l.33.25c-.11-.09-.2-.18-.29-.29l.25.33c-.08-.11-.15-.23-.2-.35l.16.39c-.04-.11-.07-.21-.09-.33l.06.43c-.01-.1-.01-.2,0-.3l-.06.43c.01-.08.03-.16.06-.24l-.16.39c.03-.08.08-.15.13-.22l-.25.33.02-.02c.16-.15.27-.32.34-.52.1-.19.15-.4.14-.63,0-.4-.18-.87-.48-1.15s-.72-.5-1.15-.48c-.4.02-.88.15-1.15.48s-.51.66-.61,1.11-.09.83-.01,1.29c.01.07.03.15.06.22.07.2.15.41.26.6.14.26.33.51.54.72s.45.4.71.53c.43.21.75.3,1.22.33.21.02.42-.03.63-.06.09-.01.17-.03.25-.06.42-.16.72-.32,1.05-.63.15-.14.26-.31.38-.47.05-.06.09-.13.12-.2.12-.24.24-.51.3-.78s.1-.58.08-.87-.05-.59-.15-.86-.2-.53-.36-.75c-.26-.36-.5-.61-.88-.85-.65-.41-1.46-.48-2.2-.3-.33.08-.66.22-.93.41-.19.13-.38.27-.55.43s-.31.36-.45.55c-.2.27-.34.59-.43.91-.14.5-.11.94-.03,1.44.05.21.15.4.29.55.11.18.27.32.46.42.35.2.86.29,1.25.16s.77-.37.97-.75l.16-.39c.08-.29.08-.58,0-.86h0Z"/><path class="cls-4" d="M257.77,107.32c.09.31-.08.63-.21.91-.04.09-.21.12-.28.05-.13-.15-.28-.3-.43-.45-.04-.1-1.33-1.59-1.68-2.12-.19-.25-.39-.5-.52-.77-.11-.27-.21-.55-.3-.82l-1.18-3.36c-.09-.25-.13-.51-.13-.78-.02-.93-.25-1.8-.57-2.65-.05-.14-.07-.29-.24-.4-.26-.18-.96-2.52-.95-2.85.02-.82-.04-1.62-.06-2.42,0-.12-.08-.22.04-.36.29-.32.17-.54.13-.78-.06-.33-.09-.68-.04-1.04.02-.18.18-.39.3-.59.11-.18.65-.24.72-.21.2.1.42-.08.63-.15.07-.02.17-.06.23-.06.07,0,.47.39.86.82.37.43.73.9.75,1,0,.02.25.7.5,1.42.26.71.53,1.46.6,1.6.07.15.03.34.02.52,0,.08.81,2.21.82,2.3.07.47.31.89.13,1.42-.04.1,0,.19.03.28.24.77.32,1.58.41,2.39.05.41.17.81.26,1.21.01.07-.01.16-.01.23,0,.1-.02.2,0,.29.12.47.19.96.28,1.44.04.24.09.48.14.72.03.24.05.49.1.73.04.22-.15,1.38-.16,1.65,0,.15-.25.71-.2.83Z"/><path class="cls-4" d="M242.96,115.97c.3.11.13.49-.3,1.03-.14.17-.66.53-.78.52-.23-.01-.46-.03-.65-.08-.11-.03-1.24-.98-1.66-1.28-.4-.29-.72-.65-1.01-1.01l-1.84-2.21c-.13-.16-.24-.35-.31-.56-.25-.71-.69-1.3-1.2-1.83-.08-.09-.14-.2-.32-.22-.29-.03-1.54-1.57-1.61-1.83-.18-.65-.43-1.25-.64-1.88-.03-.09-.13-.13-.04-.3.21-.38.04-.5-.06-.68-.12-.25-.25-.49-.28-.8-.02-.15.1-.4.17-.61.07-.2.59-.49.67-.49.23,0,.4-.25.59-.41.07-.05.15-.12.21-.15.06-.03.57.09,1.03.27.46.18.9.4.95.48.01.02.39.46.79.93.4.46.82.95.92,1.04.1.09.11.26.14.41.02.07,1.25,1.44,1.28,1.5.17.34.48.59.43,1.09,0,.1.05.15.09.21.39.52.65,1.14.94,1.73.15.3.36.56.54.84.03.05.03.13.05.19.02.08.03.16.07.23.45.64.76,1.4,1.29,1.99.12.14.33,1.05.48,1.2.08.09-.07.66.05.71Z"/><path class="cls-4" d="M231.38,133.37c.24-.18.51.11.79.62.09.16.16.68.1.77-.13.18-.25.35-.39.49-.08.08-1.5.74-1.99,1.01-.47.26-.95.42-1.44.55-.99.24-2,.4-3.01.57-.22.03-.45.03-.68-.02-.78-.17-1.55-.1-2.32.04-.13.02-.26.01-.38.16-.2.26-2.31.44-2.58.33-.68-.25-1.35-.4-2.02-.62-.1-.03-.2.03-.28-.15-.19-.43-.4-.36-.61-.39-.29-.04-.57-.12-.85-.27-.14-.08-.27-.33-.39-.54-.12-.19-.01-.87.03-.94.14-.21.05-.53.05-.81,0-.1,0-.22.01-.3.03-.18,1.65-1.2,1.82-1.18.02,0,.6-.05,1.22-.09.61-.06,1.25-.12,1.38-.15.14-.03.27.07.41.13.07.03,1.89-.23,1.96-.22.38.06.76-.08,1.15.26.08.07.15.05.23.04.65-.05,1.32.07,1.98.14.34.03.67-.02,1.01-.03.06,0,.13.04.19.06.08.02.16.06.23.05.79-.09,1.62.12,2.4-.01.18-.02,1.11.26,1.31.21.12-.02.57.36.66.28Z"/></svg>